<svg xmlns="http://www.w3.org/2000/svg" width="250" height="144" viewBox="0 0 250 144">
  <g fill="none" fill-rule="evenodd" transform="translate(0 -52)">
    <rect width="250" height="250"/>
    <path fill="#5EA0F7" d="M2.77777778,187.5 C0.35274245,187.5 -0.808154475,184.858918 1.38888889,184.722222 L15.2777778,165.277778 C16.5159996,164.928429 16.5159996,163.452638 15.2777778,162.5 L1.38888889,144.444444 C-0.808154475,143.522149 0.35274245,140.881067 2.77777778,140.277778 L51.3888889,140.277778 C53.0343457,140.277778 54.1666667,141.439416 54.1666667,143.055556 L54.1666667,184.722222 C54.1666667,185.738726 53.0343457,186.896711 51.3888889,187.5 L2.77777778,187.5 Z"/>
    <path fill="#5EA0F7" d="M198.611111,187.5 C196.186076,187.5 195.025179,184.858918 197.222222,184.722222 L211.111111,165.277778 C212.349333,164.928429 212.349333,163.452638 211.111111,162.5 L197.222222,144.444444 C195.025179,143.522149 196.186076,140.881067 198.611111,140.277778 L247.222222,140.277778 C248.867679,140.277778 250,141.439416 250,143.055556 L250,184.722222 C250,185.738726 248.867679,186.896711 247.222222,187.5 L198.611111,187.5 Z" transform="matrix(-1 0 0 1 445.833 0)"/>
    <path fill="#70B3FF" d="M41.6666667,172.222222 C40.0187375,172.222222 38.8888889,171.045552 38.8888889,169.444444 L38.8888889,127.777778 C38.8888889,126.184071 40.0187375,125 41.6666667,125 L208.333333,125 C209.981262,125 211.111111,126.184071 211.111111,127.777778 L211.111111,169.444444 C211.111111,171.045552 209.981262,172.222222 208.333333,172.222222 L41.6666667,172.222222 Z"/>
    <g transform="translate(34.107 33.333)">
      <polygon fill="#FFCB7F" points="161.111 77.083 152.355 64.55 149.406 49.509 136.349 41.652 127.593 29.12 112.498 27.301 99.445 19.444 84.921 23.974 69.829 22.156 58.385 32.251 43.864 36.781 37.482 50.698 26.041 60.793 25.823 76.122 19.444 90.043 25.428 104.137 25.212 119.47 36.36 129.889 42.344 143.984 56.734 148.93 67.885 159.353 83.023 157.965 97.413 162.915 110.684 155.435 125.822 154.051 134.931 141.774 148.206 134.302 151.579 119.35 160.688 107.073 157.739 92.035" transform="rotate(18 90.278 91.18)"/>
      <path fill="#FF9F14" stroke="#F59500" stroke-width="2" d="M90.2777778,148.611111 C58.8278371,148.611111 33.3333333,123.115816 33.3333333,91.6648984 C33.3333333,60.2175177 58.8278371,34.7222222 90.2777778,34.7222222 C121.727718,34.7222222 147.222222,60.2175177 147.222222,91.6648984 C147.222222,123.115816 121.727718,148.611111 90.2777778,148.611111"/>
      <path fill="#FFF" fill-opacity=".1" d="M80.9484737,149.458942 L69.8550536,150.475948 L58.7036146,140.053314 L44.313637,135.1071 L38.3304543,121.01217 L27.1825432,110.593095 L27.3977402,95.2598326 L21.4145575,81.1649025 L27.792856,67.2443352 L28.0115809,51.9146308 L39.452301,41.8193729 L45.8341274,27.9023641 L60.3546344,23.3724862 L71.7988824,13.2772283 L86.8908962,15.0955846 L101.414931,10.5657067 L105.052967,12.7555652 L80.9484737,149.458942 Z" transform="rotate(18 63.234 80.52)"/>
    </g>
  </g>
</svg>
