<svg xmlns="http://www.w3.org/2000/svg" width="32.985" height="31.85" viewBox="0 0 32.985 31.85">
  <g id="icon-user-logout" transform="translate(-186.112 -186.112)">
    <path id="路径_4662" data-name="路径 4662" d="M208.164,213.831a12.914,12.914,0,0,1-15.941-2.168,13.91,13.91,0,0,1,0-19.25,12.911,12.911,0,0,1,15.941-2.167,1.106,1.106,0,0,0,1.533-.421,1.178,1.178,0,0,0-.408-1.581,15.1,15.1,0,0,0-7.728-2.132,14.932,14.932,0,0,0-6.013,1.253,15.345,15.345,0,0,0-4.908,3.413,15.909,15.909,0,0,0-3.311,5.064,16.4,16.4,0,0,0,0,12.4,15.874,15.874,0,0,0,3.311,5.059,15.38,15.38,0,0,0,4.912,3.413,15.073,15.073,0,0,0,13.74-.88,1.177,1.177,0,0,0,.406-1.581,1.106,1.106,0,0,0-1.533-.42Z" fill="#fff"/>
    <path id="路径_4663" data-name="路径 4663" d="M476.079,357.789c0-.008.011-.011.013-.019a.07.07,0,0,0,.019-.021l.017-.027c0-.007.011-.009.013-.017a.08.08,0,0,0,.019-.029s.007-.011.011-.013l0-.008a.193.193,0,0,0,.013-.023c.005,0,.008-.011.012-.013a.141.141,0,0,1,.017-.029.028.028,0,0,0,.007-.015l.013-.029c0-.008.008-.011.008-.019a.111.111,0,0,1,.013-.029.048.048,0,0,0,.008-.017l.011-.029a.078.078,0,0,0,.007-.021l.011-.027.007-.025a.146.146,0,0,0,.007-.025c0-.007,0-.017.008-.025a.23.23,0,0,1,.007-.029c0-.007,0-.013,0-.025a.263.263,0,0,1,.007-.032l0-.023a.131.131,0,0,0,0-.04v-.011a1.174,1.174,0,0,0,0-.223v0a.352.352,0,0,0-.007-.052.013.013,0,0,0,0-.011.31.31,0,0,0-.007-.04l0-.013a.251.251,0,0,1-.007-.04s0-.008,0-.016l-.011-.04,0-.011a.183.183,0,0,0-.013-.04s0,0,0-.007a.225.225,0,0,0-.017-.044v0a1.139,1.139,0,0,0-.225-.347l-.007-.007-6.637-6.892a1.025,1.025,0,0,0-1.487,0,1.121,1.121,0,0,0,0,1.542l4.856,5.044h-14.02a1.093,1.093,0,0,0,0,2.184h14.02l-4.856,5.039a1.121,1.121,0,0,0,0,1.543,1.024,1.024,0,0,0,1.487,0l6.65-6.9a.554.554,0,0,0,.04-.04Z" transform="translate(-257.247 -154.952)" fill="#fff"/>
  </g>
</svg>
