<?xml version="1.0" encoding="UTF-8"?>
<svg width="34px" height="34px" viewBox="0 0 34 34" version="1.1" xmlns="http://www.w3.org/2000/svg" xmlns:xlink="http://www.w3.org/1999/xlink">
    <title>icon-barcode-phone</title>
    <g id="控件" stroke="none" stroke-width="1" fill="none" fill-rule="evenodd">
        <g id="icon-barcode-phone" transform="translate(0.000000, 1.000000)">
            <path d="M26,0 L31,0 C32.1045695,0 33,0.8954305 33,2 L33,7 L33,7 M33,25 L33,30 C33,31.1045695 32.1045695,32 31,32 L26,32 L26,32 M7.99829102,32 L3,32 C1.8954305,32 1,31.1045695 1,30 L1,25 L1,25 M1,7 L1,2 C1,0.8954305 1.8954305,0 3,0 L8,0 L8,0" id="形状" stroke="#FFFFFF" stroke-width="2" stroke-linecap="round"></path>
            <rect id="矩形" fill="#FFFFFF" x="0" y="15" width="34" height="2" rx="1"></rect>
        </g>
    </g>
</svg>