<svg id="icon-_personal-int1" data-name="icon- personal-int1" xmlns="http://www.w3.org/2000/svg" width="40.955" height="40.271" viewBox="0 0 40.955 40.271">
  <path id="路径_4827" data-name="路径 4827" d="M345.19,126.177a10.26,10.26,0,1,1,10.26-10.26A10.29,10.29,0,0,1,345.19,126.177Zm0-17.955a7.663,7.663,0,1,0,5.451,2.244A7.663,7.663,0,0,0,345.19,108.221Zm0,0" transform="translate(-324.67 -105.656)" fill="#8e8e8e"/>
  <path id="路径_4828" data-name="路径 4828" d="M170.237,504.933H147.151a9.279,9.279,0,0,1-7.609-3.334,7.553,7.553,0,0,1-1.026-6.669,1.3,1.3,0,0,1,2.48.77,4.787,4.787,0,0,0,.6,4.361,6.772,6.772,0,0,0,5.558,2.308h23.085a6.591,6.591,0,0,0,5.472-2.308,4.687,4.687,0,0,0,.6-4.275l-.427-1.454c-1.2-4.19-4.7-7.353-6.926-7.353-.513,0-1.2.77-1.966,1.624-1.625,1.8-3.848,4.361-8.38,4.361-4.275,0-6.156-2.309-7.524-4.019-1.026-1.283-1.71-1.966-2.822-1.966-2.651,0-4.361,1.966-5.3,3.591a1.305,1.305,0,0,1-2.223-1.368c1.881-3.164,4.446-4.788,7.524-4.788,2.394,0,3.676,1.539,4.788,2.907,1.282,1.539,2.479,3.078,5.557,3.078,3.42,0,5.045-1.881,6.413-3.506,1.111-1.2,2.223-2.48,3.933-2.48,3.591,0,7.867,4.189,9.32,9.234l.513,1.368a7.415,7.415,0,0,1-1.026,6.584C176.222,503.736,173.486,504.933,170.237,504.933Zm0,0" transform="translate(-138.174 -464.662)" fill="#8e8e8e"/>
</svg>
