<svg id="icon-_org-int" data-name="icon- org-int" xmlns="http://www.w3.org/2000/svg" width="41.121" height="39.487" viewBox="0 0 41.121 39.487">
  <path id="路径_4829" data-name="路径 4829" d="M117.164,105.776h-1.745V86.987a8.911,8.911,0,0,0-7.194-8.589l-5.234-1.047V72.734a3.919,3.919,0,0,0-1.449-3.006,4.214,4.214,0,0,0-3.65-.859l-8.938,1.852a9.4,9.4,0,0,0-7.543,8.992v26.063H78.727a1.148,1.148,0,0,0-1.265,1.151,1.258,1.258,0,0,0,1.265,1.318h38.437a1.39,1.39,0,0,0,1.419-1.318C118.569,106.192,117.9,105.79,117.164,105.776Zm-33.563,0V79.713c.082-3.161,2.2-6.308,5.314-6.845l10.017-1.852a1.637,1.637,0,0,1,1.288.3,1.208,1.208,0,0,1,.483.939l.039,6.886.15,26.64Zm19.284,0v-26.6l4.7.939a6.582,6.582,0,0,1,5.553,5.959v19.705Z" transform="translate(-77.462 -68.758)" fill="#fff"/>
  <path id="路径_4830" data-name="路径 4830" d="M306.59,323.7h-6.013a1.342,1.342,0,0,0,0,2.684h6.013a1.342,1.342,0,1,0,0-2.684Zm0,8.053h-6.013a1.342,1.342,0,0,0,0,2.684h6.013a1.342,1.342,0,1,0,0-2.684Zm0,8.052h-6.013a1.342,1.342,0,0,0,0,2.684h6.013a1.342,1.342,0,1,0,0-2.684Zm12.8-8.052H316.71a1.342,1.342,0,0,0-1.342,1.342,1.369,1.369,0,0,0,1.342,1.342h2.684a1.369,1.369,0,0,0,1.342-1.342A1.342,1.342,0,0,0,319.394,331.75Zm0,8.052H316.71a1.342,1.342,0,0,0-1.342,1.342,1.369,1.369,0,0,0,1.342,1.342h2.684a1.369,1.369,0,0,0,1.342-1.342A1.342,1.342,0,0,0,319.394,339.8Z" transform="translate(-288.844 -311.669)" fill="#fff"/>
</svg>
