<svg id="icon-product-int1" xmlns="http://www.w3.org/2000/svg" width="34.705" height="34.025" viewBox="0 0 34.705 34.025">
  <path id="路径_4076" data-name="路径 4076" d="M150.355,126.8H126.75a5.557,5.557,0,0,0-5.55,5.55v15.405a5.557,5.557,0,0,0,5.55,5.55h23.6a5.564,5.564,0,0,0,5.554-5.55V132.35A5.557,5.557,0,0,0,150.355,126.8Zm3.33,20.955a3.34,3.34,0,0,1-3.334,3.33h-23.6a3.331,3.331,0,0,1-3.33-3.33V132.35a3.331,3.331,0,0,1,3.33-3.33h23.605a3.331,3.331,0,0,1,3.33,3.33Zm-10.42,9.194a1.11,1.11,0,1,0,0-2.22h-9.43a1.11,1.11,0,0,0,0,2.22Zm6,1.656H127.833a1.11,1.11,0,1,0,0,2.22h21.435a1.11,1.11,0,0,0,0-2.22Z" transform="translate(-121.2 -126.8)" fill="#8e8e8e"/>
  <path id="路径_4077" data-name="路径 4077" d="M469,387.3m-2,0a2,2,0,1,0,2-2A2,2,0,0,0,467,387.3Z" transform="translate(-451.648 -373.823)" fill="#8e8e8e"/>
  <path id="路径_4078" data-name="路径 4078" d="M289,387.3m-2,0a2,2,0,1,0,2-2A2,2,0,0,0,287,387.3Z" transform="translate(-279.639 -373.823)" fill="#8e8e8e"/>
  <path id="路径_4079" data-name="路径 4079" d="M649,387.3m-2,0a2,2,0,1,0,2-2A2,2,0,0,0,647,387.3Z" transform="translate(-623.656 -373.823)" fill="#8e8e8e"/>
</svg>
