<svg xmlns="http://www.w3.org/2000/svg" width="84" height="82" viewBox="0 0 84 82">
  <g fill="none" fill-rule="evenodd">
    <ellipse cx="42" cy="41" fill="#FFF" rx="42" ry="41"/>
    <g transform="translate(20.488 19)">
      <path fill="#BABABA" fill-rule="nonzero" d="M4.8034861,4.44266501 L15.6843188,0.686415439 C18.3338355,-0.228292346 22.6385932,-0.229317803 25.291291,0.686415439 L36.1721237,4.44266501 C38.8216403,5.3573728 40.9756098,8.32367854 40.9756098,11.0654092 L40.9756098,26.6092888 C40.9756098,38.7906944 20.4878049,46 20.4878049,46 C20.4878049,46 0,38.7906944 0,26.6092888 L0,11.0654092 C0,8.29564937 2.15043484,5.35839825 4.8034861,4.44266501 Z"/>
      <path fill="#FFF" d="M29.195122,25.5 C29.195122,26.3665714 28.4780488,27 27.61033,27 L22.0725968,27 L22.0725968,32.4282188 C22.0725968,33.2888138 21.3615495,34 20.4878049,34 C19.6140603,34 18.9030129,33.2947902 18.9030129,32.4282188 L18.9030129,27 L13.3652798,27 C12.497561,27 11.7804878,26.3665714 11.7804878,25.5 C11.7804878,24.6334286 12.4915352,24 13.3652798,24 L18.9030129,24 L18.9030129,21 L13.3652798,21 C12.497561,21 11.7804878,20.3665714 11.7804878,19.5 C11.7804878,18.639405 12.4915352,18 13.3652798,18 L17.8967001,18 L13.76901,13.6744186 C13.1543759,13.0648305 13.1543759,12.0667793 13.76901,11.4571911 C14.3836442,10.847603 15.389957,10.847603 16.0045911,11.4571911 L20.4878049,16.3398727 L25.8507891,11.4571911 C26.4654232,10.847603 27.471736,10.847603 28.0863702,11.4571911 C28.7010043,12.0667793 28.7010043,13.0648305 28.0863702,13.6744186 L23.9586801,18 L27.61033,18 C28.4780488,18 29.195122,18.6334286 29.195122,19.5 C29.195122,20.360595 28.4840746,21 27.61033,21 L22.0725968,21 L22.0725968,24 L27.61033,24 C28.4780488,24.0059764 29.195122,24.6334286 29.195122,25.5 Z"/>
    </g>
  </g>
</svg>
