<svg xmlns="http://www.w3.org/2000/svg" width="84" height="82" viewBox="0 0 84 82">
  <g fill="none" fill-rule="evenodd">
    <ellipse cx="41.623" cy="41" fill="#FFF" rx="41.623" ry="41"/>
    <g fill="#BABABA" transform="translate(25 21)">
      <polygon points="17.607 28.231 16.739 34.569 22.31 31.458 40.032 5.594 35.33 2.368"/>
      <path d="M0 4.0004L0 36.0004C2.705415e-16 38.209539 1.790861 40.0004 4 40.0004L13 40.0004 13.766 34.1604 14.634 27.8234 14.731 27.1204 15.132 26.5354 31.1698164 3.13093105C31.7941915 2.21976171 31.5616988.974957021 30.6505294.350581964 30.3176439.122473493 29.9235406.0004 29.5199984.0004L4 .0004C1.790861.0004-2.705415e-16 1.791261 0 4.0004zM5 11.0004L21 11.0004 21 7.9994 5 7.9994 5 11.0004zM5 19.0004L17 19.0004 17 16 5 16 5 19.0004zM5 27.0004L12 27.0004 12 24 5 24 5 27.0004zM24.7851 33.1528L24.3861 33.7338 23.7731 34.0758 18.2011 37.1878 13.1631 39.9998 30.0001 39.9998C32.209239 39.9998 34.0001 38.208939 34.0001 35.9998L34.0001 22.9324623C34.0001 22.3801776 33.5523847 21.9324623 33.0001 21.9324623 32.6702457 21.9324623 32.3616093 22.0951252 32.175166 22.3672332L24.7851 33.1528z"/>
    </g>
  </g>
</svg>
