<svg xmlns="http://www.w3.org/2000/svg" xmlns:xlink="http://www.w3.org/1999/xlink" width="84" height="82" viewBox="0 0 84 82">
  <defs>
    <path id="card-1-a" d="M64.8199833,22.55 L20.2300167,22.55 C18.3720889,22.55 16.8,24.0101248 16.8,25.735676 L16.8,56.2643707 C16.8,57.9899218 18.3720889,59.45 20.2300167,59.45 L64.8199833,59.45 C66.6779111,59.45 68.25,57.9898752 68.25,56.2643707 L68.25,25.735676 C68.25,24.0101248 66.6779111,22.55 64.8199833,22.55 L64.8199833,22.55 Z M54.075,30.75 C56.9762966,30.75 59.325,33.0427345 59.325,35.875 C59.325,38.7072655 56.9762966,41 54.0749514,41 C51.1736548,41 48.825,38.7072181 48.825,35.8749526 C48.825,33.042687 51.1736548,30.75 54.075,30.75 L54.075,30.75 Z M35.5398589,47.9420278 C35.5412448,48.2760847 35.4097321,48.5968614 35.1745447,48.8330773 C34.9393574,49.0692932 34.6199775,49.201381 34.2873752,49.2 L24.4067463,49.2 C24.0741441,49.201381 23.7547641,49.0692932 23.5195768,48.8330773 C23.2843895,48.5968614 23.1528768,48.2760847 23.1542518,47.9420278 L23.1542518,47.3829722 C23.1528768,47.0489153 23.2843895,46.7281386 23.5195768,46.4919227 C23.7547641,46.2557068 24.0741441,46.123619 24.4067463,46.125 L34.4266162,46.125 C34.7592184,46.123619 35.0785984,46.2557068 35.3137857,46.4919227 C35.5489731,46.7281386 35.6804857,47.0489153 35.6791108,47.3829722 L35.6791108,47.9420278 L35.5398589,47.9420278 Z M38.7406888,40.6272772 C38.7406888,41.4659404 38.0448264,42.025 37.349013,42.025 L24.5458405,42.025 C23.710884,42.025 23.1542137,41.3261386 23.1542137,40.6272772 L23.1542137,40.3477228 C23.1542137,39.5090596 23.8500271,38.95 24.5458405,38.95 L37.3490619,38.95 C38.1840185,38.95 38.7406888,39.6488614 38.7406888,40.3477228 L38.7406888,40.6272772 L38.7406888,40.6272772 Z M40.2715076,34.85 L24.6850326,34.85 C23.8500271,34.85 23.1541648,34.1511498 23.1541648,33.3124509 C23.1541648,32.4738502 23.8500271,31.775 24.6850326,31.775 L40.2715076,31.775 C41.1064642,31.775 41.8022776,32.4738502 41.8022776,33.3125 C41.8022776,34.1511498 41.1064642,34.85 40.2715076,34.85 L40.2715076,34.85 Z M62.4967912,50.1485005 C62.4981719,50.4410057 62.3671372,50.7218827 62.1328046,50.9287169 C61.8984719,51.1355511 61.5802527,51.2512092 61.2488592,51.25 L46.82842,51.25 C46.4970265,51.2512092 46.1788072,51.1355511 45.9444746,50.9287169 C45.710142,50.7218827 45.5791073,50.4410057 45.5804772,50.1485005 L45.5804772,46.3544699 C45.5804772,44.518682 47.2443811,43.05 49.324284,43.05 L58.8917789,43.05 C60.971633,43.05 62.6355748,44.518682 62.6355748,46.3544699 L62.6355748,50.1485005 L62.4967912,50.1485005 Z"/>
  </defs>
  <g fill="none" fill-rule="evenodd">
    <ellipse cx="43.05" cy="42.025" fill="#FFF" rx="43.05" ry="42.025"/>
    <use fill="#508CEE" xlink:href="#card-1-a"/>
  </g>
</svg>
