<svg id="icon-open-tax-gray2" xmlns="http://www.w3.org/2000/svg" width="82" height="82" viewBox="0 0 82 82">
  <circle id="Oval" cx="41" cy="41" r="41" fill="#f0f0f0"/>
  <path id="路径_5048" data-name="路径 5048" d="M171.128,105.884l-16.72-5.585a1.506,1.506,0,0,0-.8-.2c-.4,0-.6.2-.8.2l-16.72,5.585a1.941,1.941,0,0,0-1.594,1.993v16.96c.4,10.373,17.317,16.76,18.115,16.96a1.2,1.2,0,0,0,.8.2h1.2c.6-.4,17.716-6.587,18.115-17.159V107.882A2.373,2.373,0,0,0,171.128,105.884Zm-1,18.952a8.366,8.366,0,0,1-1.783,4.568,23.99,23.99,0,0,1-4.825,4.765,48.446,48.446,0,0,1-9.182,5.043l-.1.046h-.082l-.327-.082a41.885,41.885,0,0,1-8.544-4.42c-3.173-2.161-7.857-6.017-8.041-9.921V107.882l16.17-4.86,16.716,4.86.005,16.954Z" transform="translate(-112.5 -80.014)" fill="#3b6aff"/>
  <path id="路径_5049" data-name="路径 5049" d="M301.609,307.655v.664c.552.623,1.042,1.211,1.461,1.763a21.485,21.485,0,0,1,1.237,1.829l-1.405,1.978c-.256-.5-.455-.879-.6-1.15s-.266-.5-.363-.675-.2-.358-.327-.547V317.9c0,.664.01,1.211.026,1.63s.056.818.107,1.2h-2.662c.046-.4.077-.818.1-1.237s.036-.95.036-1.594v-3.975c0-.148.01-.419.026-.8s.036-.777.056-1.175.036-.68.051-.853a15.423,15.423,0,0,1-1.119,2.79,16,16,0,0,1-1.656,2.5,14.1,14.1,0,0,0-.531-1.334A7.154,7.154,0,0,0,295.4,314a20.043,20.043,0,0,0,1.421-1.891,15.034,15.034,0,0,0,1.083-1.972c.21-.424.409-.874.593-1.334a9.357,9.357,0,0,0,.393-1.145h-1.145c-.45,0-.8.005-1.068.02a6.583,6.583,0,0,0-.777.092V305.33a7.29,7.29,0,0,0,.787.092c.255.015.608.02,1.058.02h1.472v-2.458c-.414.082-.766.148-1.063.2s-.741.123-1.329.215a4.935,4.935,0,0,0-.291-.95,10.6,10.6,0,0,0-.608-1.175,28.985,28.985,0,0,0,3.311-.557,16.589,16.589,0,0,0,2.719-.894,5.208,5.208,0,0,0,.986-.526l1.426,2c-.112.051-.194.092-.25.118s-.169.082-.342.164a19.275,19.275,0,0,1-2.167.787v3.076h.721q.559,0,.92-.015a5.62,5.62,0,0,0,.685-.072v2.391a6.371,6.371,0,0,0-.7-.072q-.353-.015-.9-.015h-.72Zm11.707-3.572h.705c.4,0,.741-.005,1.017-.015s.572-.036.894-.072c-.036.276-.061.526-.072.751s-.015.511-.015.853v4.231a14.022,14.022,0,0,0,.092,1.707c-.307-.036-.608-.061-.91-.072s-.634-.015-1-.015h-1.032v6.254c0,.22.051.358.158.414a1.806,1.806,0,0,0,.741.092,2.179,2.179,0,0,0,.618-.072.542.542,0,0,0,.327-.373,3.952,3.952,0,0,0,.133-.976c.02-.455.036-1.083.046-1.891a11.872,11.872,0,0,0,1.155.669,4.608,4.608,0,0,0,1.012.363c-.061.838-.117,1.5-.174,1.978a6.573,6.573,0,0,1-.21,1.119,2.169,2.169,0,0,1-.337.68,1.635,1.635,0,0,1-.991.623,10.949,10.949,0,0,1-2.274.164,3.634,3.634,0,0,1-2.07-.4,1.9,1.9,0,0,1-.521-1.559v-7.087h-1.446a20.712,20.712,0,0,1-.347,2.959,10.166,10.166,0,0,1-.731,2.228,8.552,8.552,0,0,1-1.579,2.432,9.7,9.7,0,0,1-2.432,1.778,6.847,6.847,0,0,0-.705-1.048,9.943,9.943,0,0,0-.986-.971q4.377-2,4.343-7.379h-.358a16.575,16.575,0,0,0-1.819.092c.046-.531.066-1.109.066-1.727v-4.134c0-.593-.02-1.155-.066-1.686.337.036.629.061.869.072s.567.015.971.015h4.41c.337-.634.608-1.18.818-1.635s.393-.91.552-1.364.322-1.012.5-1.661l2.56.818c-.327.736-.6,1.313-.8,1.748s-.393.8-.557,1.1-.342.644-.547,1Zm-4.006-1.124-2.243,1.012c-.358-.853-.675-1.538-.95-2.049a12.678,12.678,0,0,0-.935-1.487l2.223-1.042c.439.674.8,1.277,1.088,1.814S309.049,302.325,309.309,302.959Zm-2.391,3.337v2.9h6.469v-2.9Z" transform="translate(-265.178 -269.035)" fill="#3b6aff"/>
</svg>
