<svg xmlns="http://www.w3.org/2000/svg" width="82" height="82" viewBox="0 0 82 82">
  <g id="icon-open-credit" transform="translate(0 0.047)">
    <circle id="Oval" cx="41" cy="41" r="41" transform="translate(0 -0.047)" fill="rgba(255,255,255,0.99)"/>
    <path id="icon-open-credit-2" data-name="icon-open-credit" d="M4.05,57.007c0-.03,0-.059,0-.089A.836.836,0,0,0,4.05,57.007ZM45.04,54.973,37.1,41.4a13.913,13.913,0,0,0,.843-4.778c0-8.013-6.793-14.508-15.174-14.508S7.592,28.612,7.592,36.625A13.917,13.917,0,0,0,8.435,41.4L.493,54.973c-1.144,1.955-.064,2.87.818,2.772s7.634-1.753,7.634-1.753,1.8,5.787,2.493,7.17c.4.839,1.83,1.076,2.9-.782L20.98,51.032a15.931,15.931,0,0,0,3.573,0L31.194,62.38c1.068,1.859,2.494,1.622,2.9.782.7-1.383,2.492-7.17,2.492-7.17s6.752,1.655,7.634,1.753S46.183,56.928,45.04,54.973Zm-32.3,5.968-2.491-7.172L2.613,55.524l6.912-11.81a15.114,15.114,0,0,0,9.252,6.911Zm10.673-11.86c-.214.01-.429.015-.645.015s-.432-.005-.645-.015a13.64,13.64,0,0,1-2.269-.3,12.943,12.943,0,0,1-9.069-7.222,11.945,11.945,0,0,1-1.062-4.937c0-6.888,5.84-12.473,13.045-12.473s13.046,5.584,13.046,12.473a11.974,11.974,0,0,1-1.063,4.937,12.943,12.943,0,0,1-9.069,7.222A13.639,13.639,0,0,1,23.412,49.081Zm11.874,4.688-2.491,7.172L26.757,50.625a15.115,15.115,0,0,0,9.251-6.911l6.912,11.81ZM22.766,26.308a10.561,10.561,0,0,0-10.79,10.316,10.561,10.561,0,0,0,10.79,10.316,10.561,10.561,0,0,0,10.79-10.316A10.561,10.561,0,0,0,22.766,26.308Zm0,18.587a8.467,8.467,0,0,1-8.65-8.27,8.467,8.467,0,0,1,8.65-8.27,8.467,8.467,0,0,1,8.65,8.27A8.467,8.467,0,0,1,22.766,44.895ZM19.29,37.931a12.623,12.623,0,0,0,.137,1.845,24.02,24.02,0,0,0-1.867,1.988l-.847-1.155a1.483,1.483,0,0,0,.373-1.012V36.1h-.8V34.527h2.278V38.74Q18.916,38.335,19.29,37.931ZM17.9,31.015q.747.928,1.519,2.047-.8.488-1.394.857-.66-1.071-1.407-2.131Zm5.9,7.808q-.1,1.8-1.444,1.9a9.1,9.1,0,0,1-1.021.012q-.075-.631-.174-1.19a8.633,8.633,0,0,1-1.369,3.2q-.722-.6-1.332-1.012A7.373,7.373,0,0,0,19.9,36.871V32.789h4.432q-.013-.893,0-1.881h1.631q-.025,1-.025,1.881h1.17q-.423-.381-1.071-.928L26.921,31q.822.619,1.481,1.178l-.635.607h.8v1.476H25.95q.025,1.869.162,3.226a11.908,11.908,0,0,0,1.008-2.2l1.382.559a19.1,19.1,0,0,1-2.042,3.725,4.165,4.165,0,0,0,.261.726.692.692,0,0,0,.448.452.329.329,0,0,0,.336-.286,11.222,11.222,0,0,0,.174-1.583q.423.238,1.008.5a17.09,17.09,0,0,1-.373,2.261q-.349,1.047-1.1,1.047-1.158,0-1.917-1.666A15.27,15.27,0,0,1,23.51,42.7q-.485-.524-1.133-1.1a14.569,14.569,0,0,0,2.428-2.25,34.385,34.385,0,0,1-.436-5.094H21.431v1.262h2.452Q23.871,36.681,23.8,38.823Zm-2.577.4a6.372,6.372,0,0,0,.7.036.425.425,0,0,0,.473-.488q.05-.964.05-1.869H21.431A13.606,13.606,0,0,1,21.219,39.228Z" transform="translate(18.001 -0.009)" fill="#1f59db"/>
  </g>
</svg>
