<svg xmlns="http://www.w3.org/2000/svg" width="82" height="82" viewBox="0 0 82 82">
  <g id="icon-open-bnf_-gray2" data-name="icon-open-bnf -gray2" transform="translate(-0.252)">
    <circle id="Oval" cx="41" cy="41" r="41" transform="translate(0.252)" fill="#f0f0f0"/>
    <g id="组_4565" data-name="组 4565" transform="translate(40.931 45.01)">
      <path id="路径_5365" data-name="路径 5365" d="M627.731,675.84l-1.856,2-1.856-2h-1.427l2.569,2.855H623.02v.714h2.141v1.427H623.02v.714h2.141v2.141h1.427V681.55h2.141v-.714h-2.141v-1.427h2.141v-.714h-2.141l2.569-2.855Z" transform="translate(-618.891 -672.525)" fill="#3b6aff"/>
      <path id="路径_5366" data-name="路径 5366" d="M83.6,18.984a7.217,7.217,0,0,0-7.2,7.153,7.2,7.2,0,0,0,14.407,0A7.217,7.217,0,0,0,83.6,18.984Zm0,12.931a5.778,5.778,0,1,1,5.818-5.778A5.833,5.833,0,0,1,83.6,31.915Z" transform="translate(-76.401 -18.984)" fill="#3b6aff"/>
    </g>
    <g id="组_4566" data-name="组 4566" transform="translate(24.747 24.026)">
      <path id="路径_5363" data-name="路径 5363" d="M111.133,82.708a12.735,12.735,0,0,1,6.867,2l1.285-2.007a15.035,15.035,0,0,0-3.832-1.75,8.939,8.939,0,1,0-8.174-.13,14.933,14.933,0,0,0-2.037.7A15.116,15.116,0,0,0,96,95.459v.011a2.258,2.258,0,0,0,2.26,2.253h11.511V95.339H98.383A12.766,12.766,0,0,1,111.133,82.708Zm-6.2-9.771a6.548,6.548,0,1,1,1.918,4.636A6.524,6.524,0,0,1,104.937,72.937Z" transform="translate(-96 -64)" fill="#3b6aff"/>
    </g>
  </g>
</svg>
