<svg xmlns="http://www.w3.org/2000/svg" width="82" height="82" viewBox="0 0 82 82">
  <g id="icon-open-connect-gray2" transform="translate(0.492)">
    <circle id="Oval" cx="41" cy="41" r="41" transform="translate(-0.492)" fill="#f0f0f0"/>
    <path id="路径_5363" data-name="路径 5363" d="M111.133,82.708a12.735,12.735,0,0,1,6.867,2l1.285-2.007a15.035,15.035,0,0,0-3.832-1.75,8.939,8.939,0,1,0-8.174-.13,14.933,14.933,0,0,0-2.037.7A15.116,15.116,0,0,0,96,95.459v.011a2.258,2.258,0,0,0,2.26,2.253h7.511V95.339H98.383A12.766,12.766,0,0,1,111.133,82.708Zm-6.2-9.771a6.548,6.548,0,1,1,1.918,4.636A6.524,6.524,0,0,1,104.937,72.937Z" transform="translate(-70.126 -39.524)" fill="#3b6aff"/>
    <path id="路径_12962" data-name="路径 12962" d="M124.864,65.961a3.447,3.447,0,0,1-2.352-.946,3.842,3.842,0,0,1-1.2-2.665l-.011-.306a.923.923,0,0,1,.891-.955.907.907,0,0,1,.953.889l.011.309a1.975,1.975,0,0,0,.612,1.377,1.64,1.64,0,0,0,1.163.449l5.459-.118a1.823,1.823,0,0,0,1.638-1.959l-.011-.308a1.982,1.982,0,0,0-.614-1.379,1.562,1.562,0,0,0-1.161-.447l-2.273.082a.957.957,0,0,1-.955-.887.923.923,0,0,1,.887-.955l2.275-.084a3.425,3.425,0,0,1,2.486.943,3.843,3.843,0,0,1,1.2,2.665l.013.308a3.667,3.667,0,0,1-3.429,3.864l-5.461.122-.125,0Zm-7.7-1.181a3.452,3.452,0,0,1-2.359-.944,3.848,3.848,0,0,1-1.2-2.665l-.011-.311A3.666,3.666,0,0,1,117.024,57l5.461-.118a3.524,3.524,0,0,1,2.472.943,3.848,3.848,0,0,1,1.2,2.665l.009.311a.923.923,0,0,1-.894.952.9.9,0,0,1-.948-.894l-.011-.309a1.982,1.982,0,0,0-.614-1.377,1.569,1.569,0,0,0-1.161-.447l-5.461.12a1.819,1.819,0,0,0-1.637,1.957l.009.311a1.977,1.977,0,0,0,.615,1.377,1.544,1.544,0,0,0,1.159.447l2.275-.084a.953.953,0,0,1,.953.887.923.923,0,0,1-.887.955l-2.275.084A.977.977,0,0,1,117.167,64.78Z" transform="translate(-75.804 -8.312)" fill="#3b6aff"/>
  </g>
</svg>
