<svg id="icon-open-control" xmlns="http://www.w3.org/2000/svg" width="82" height="82" viewBox="0 0 82 82">
  <circle id="Oval" cx="41" cy="41" r="41" fill="rgba(255,255,255,0.99)"/>
  <path id="路径_5363" data-name="路径 5363" d="M111.133,82.708a12.735,12.735,0,0,1,6.867,2l1.285-2.007a15.035,15.035,0,0,0-3.832-1.75,8.939,8.939,0,1,0-8.174-.13,14.933,14.933,0,0,0-2.037.7A15.116,15.116,0,0,0,96,95.459v.011a2.258,2.258,0,0,0,2.26,2.253h7.511V95.339H98.383A12.766,12.766,0,0,1,111.133,82.708Zm-6.2-9.771a6.548,6.548,0,1,1,1.918,4.636A6.524,6.524,0,0,1,104.937,72.937Z" transform="translate(-70 -39.502)" fill="#1f59db"/>
  <path id="路径_5364" data-name="路径 5364" d="M435.066,644.171H426.59a5.362,5.362,0,1,0,0,2.383H430.3v3.787h2.383v-3.787h2.383Zm-13.7,4.171a2.979,2.979,0,1,1,2.979-2.979A2.983,2.983,0,0,1,421.362,648.341Z" transform="translate(-378.084 -594.053)" fill="#1f59db"/>
</svg>
