<svg xmlns="http://www.w3.org/2000/svg" width="82" height="82" viewBox="0 0 82 82">
  <g id="icon-open-contact-gray" transform="translate(0 0.094)">
    <circle id="Oval" cx="41" cy="41" r="41" transform="translate(0 -0.094)" fill="#ededed"/>
    <path id="路径_5046" data-name="路径 5046" d="M31.863,6.4H7.966a5.254,5.254,0,0,0-5.154,5.389v2.577H1.406A1.173,1.173,0,0,0,0,15.537c0,.7.7,1.007,1.406,1.007H2.811V23.5H1.406A1.233,1.233,0,0,0,0,24.909c0,.7.7,1.068,1.406,1.068H2.811v7.132H1.406A1.173,1.173,0,0,0,0,34.28c0,.7.7.956,1.406.956H2.811v3.026A5.3,5.3,0,0,0,8.2,43.652H32.1a5.3,5.3,0,0,0,5.389-5.389V11.554A5.626,5.626,0,0,0,31.863,6.4Zm3.079,31.863c0,1.406-.937,2.894-2.343,2.894H7.966a2.894,2.894,0,0,1-2.577-2.894V35.236H6.794c.7,0,1.406-.254,1.406-.956a1.512,1.512,0,0,0-1.406-1.406H5.389v-6.9H6.794c.7,0,1.406-.365,1.406-1.068A1.512,1.512,0,0,0,6.794,23.5H5.389V16.544H6.794c.7,0,1.406-.3,1.406-1.007a1.512,1.512,0,0,0-1.406-1.406H5.389V11.554A3.179,3.179,0,0,1,8.2,8.583H32.6c1.406,0,2.343,1.566,2.343,2.971Z" transform="translate(22 15.733)" fill="#696969"/>
    <path id="路径_5047" data-name="路径 5047" d="M334.366,237.12a7.9,7.9,0,0,0-7.966,7.966h2.577a5.389,5.389,0,0,1,10.777,0h2.577A8.05,8.05,0,0,0,334.366,237.12Zm0-2.577a5.4,5.4,0,0,0,4.686-2.577,5.516,5.516,0,0,0,0-5.389A5.4,5.4,0,0,0,334.366,224a5.3,5.3,0,0,0-5.389,5.389A5.576,5.576,0,0,0,334.366,234.543Zm0-7.966a2.577,2.577,0,1,1-2.577,2.577A2.769,2.769,0,0,1,334.366,226.577Z" transform="translate(-292.451 -193.901)" fill="#696969"/>
  </g>
</svg>
