<svg id="icon-open-phoneinfo-gray" xmlns="http://www.w3.org/2000/svg" width="82" height="82" viewBox="0 0 82 82">
  <circle id="Oval" cx="41" cy="41" r="41" fill="#ededed"/>
  <path id="路径_5039" data-name="路径 5039" d="M454.788,814.222a1.868,1.868,0,1,0,1.868,1.868,1.87,1.87,0,0,0-1.868-1.868" transform="translate(-412.188 -761.325)" fill="#696969"/>
  <path id="路径_5040" data-name="路径 5040" d="M194.859.626H174.017a3.019,3.019,0,0,0-3.179,2.819V34.461a3.019,3.019,0,0,0,3.179,2.819h20.842a3.019,3.019,0,0,0,3.179-2.819V3.445A3.018,3.018,0,0,0,194.859.626ZM174.017,2.5h20.842a1.006,1.006,0,0,1,1.059.939V26.681H172.957V3.445A1.007,1.007,0,0,1,174.017,2.5Zm20.842,32.9H174.017a1.006,1.006,0,0,1-1.059-.939V28.723h22.962v5.738A1.006,1.006,0,0,1,194.859,35.4Z" transform="translate(-141.837 22.872)" fill="#696969"/>
  <path id="路径_5041" data-name="路径 5041" d="M245.222,109.511a1.055,1.055,0,0,1,1.082,1.023V133.6H222.862V110.535a1.055,1.055,0,0,1,1.082-1.023h21.278Z" transform="translate(-191.982 -84.047)" fill="none"/>
  <path id="路径_5042" data-name="路径 5042" d="M454.353,814.222a1.432,1.432,0,1,0,1.432,1.432,1.433,1.433,0,0,0-1.432-1.432" transform="translate(-418.911 -783.207)" fill="#696969"/>
  <path id="路径_5043" data-name="路径 5043" d="M454.353,814.222a1.432,1.432,0,1,0,1.432,1.432,1.433,1.433,0,0,0-1.432-1.432" transform="translate(-418.911 -778.648)" fill="#696969"/>
  <path id="路径_5044" data-name="路径 5044" d="M454.353,814.222a1.432,1.432,0,1,0,1.432,1.432,1.433,1.433,0,0,0-1.432-1.432" transform="translate(-418.911 -774.089)" fill="#696969"/>
  <rect id="矩形_1370" data-name="矩形 1370" width="10.699" height="2.177" rx="1.089" transform="translate(41.242 31.674)" fill="#696969"/>
  <rect id="矩形_1370-2" data-name="矩形 1370" width="10.699" height="2.177" rx="1.089" transform="translate(41.242 36.233)" fill="#696969"/>
  <rect id="矩形_1370-3" data-name="矩形 1370" width="10.699" height="2.177" rx="1.089" transform="translate(41.242 40.792)" fill="#696969"/>
</svg>
