<svg xmlns="http://www.w3.org/2000/svg" width="82" height="82" viewBox="0 0 82 82">
  <g id="icon-open-legal-gray2" transform="translate(0.23)">
    <circle id="Oval" cx="41" cy="41" r="41" transform="translate(-0.23)" fill="#f0f0f0"/>
    <g id="组_30016" data-name="组 30016" transform="translate(27.155 24.229)">
      <path id="路径_12967" data-name="路径 12967" d="M94.057,99.481v-1.9c0-5.5,3.479-12.159,10.981-12.159h2.494c6.992,0,10.982,6.655,10.982,12.159v1.9h2.25V97.665c0-5.553-3.949-12.431-9.123-13.9a9.257,9.257,0,1,0-10.764-.068c-5.222,1.384-9.07,8.323-9.07,13.965v1.816ZM99.27,76.227a7.035,7.035,0,1,1,7.035,7.013,7.024,7.024,0,0,1-7.035-7.013Z" transform="translate(-91.807 -67)" fill="#3b6aff"/>
      <path id="路径_12968" data-name="路径 12968" d="M433.067,590.272a54.126,54.126,0,0,0-1.976-7.709,5.97,5.97,0,0,0,1.317-2.63.308.308,0,0,0-.254-.359,9.034,9.034,0,0,0-3.838,0,.308.308,0,0,0-.254.359,5.967,5.967,0,0,0,1.315,2.63,54.039,54.039,0,0,0-1.978,7.705.3.3,0,0,0,.073.232,10.7,10.7,0,0,0,2.566,1.949.332.332,0,0,0,.165.043.36.36,0,0,0,.094-.014.328.328,0,0,0,.106-.035.322.322,0,0,0,.067-.05,8.154,8.154,0,0,0,2.535-1.906A.292.292,0,0,0,433.067,590.272Z" transform="translate(-415.755 -560.012)" fill="#3b6aff"/>
    </g>
  </g>
</svg>
