<svg xmlns="http://www.w3.org/2000/svg" width="82" height="82" viewBox="0 0 82 82">
  <g id="icon-open-otherinfo-gray2" transform="translate(0.467)">
    <circle id="Oval" cx="41" cy="41" r="41" transform="translate(-0.467)" fill="#f0f0f0"/>
    <path id="icon-open-otherinfo" d="M31.064,31.21V29.359h8.309a.645.645,0,0,0,.644-.646V2.5a.644.644,0,0,0-.644-.645H19.986V0H39.373a2.5,2.5,0,0,1,2.494,2.5V28.714a2.5,2.5,0,0,1-2.494,2.5Zm-6.407-.251v-.095a11.32,11.32,0,0,0-22.64,0v.095H0v-.095A13.332,13.332,0,0,1,9.729,18.04a9.264,9.264,0,1,1,7.214,0,13.335,13.335,0,0,1,9.729,12.825v.095ZM13.337,2.267a7.247,7.247,0,1,0,7.248,7.248,7.256,7.256,0,0,0-7.248-7.248ZM27.312,19.785V17.7H37.06v2.085Zm-3.415-6.3V11.4H37.063v2.082Zm0-5.91V5.492H37.063V7.575Zm0,0" transform="translate(19.725 27.476)" fill="#3b6aff"/>
  </g>
</svg>
