<svg xmlns="http://www.w3.org/2000/svg" width="84" height="82" viewBox="0 0 84 82">
  <g fill="none" fill-rule="evenodd">
    <ellipse cx="42" cy="41" fill="#FFF" rx="42" ry="41"/>
    <g fill="#BABABA" fill-rule="nonzero" transform="translate(17 19)">
      <path d="M35.4475344,25.1871397 C38.5407249,23.2906755 40.4140509,20.010233 40.4168514,16.4852056 L40.4168514,10.3363648 C40.4168514,4.63652278 35.6000754,0 29.6783548,0 C26.5975858,0.00252837813 23.6672883,1.27992407 21.6367051,3.50557192 C19.8976131,5.38887351 18.9368425,7.81886675 18.9359468,10.3363648 L18.9359468,16.4852056 C18.9359468,19.9569617 20.7292816,23.0285641 23.4652417,24.9034627 C16.8551308,26.0005978 10.5853038,28.6288374 10.2919557,28.7547073 C8.51035477,29.455446 7.17073171,31.3810683 7.17073171,33.2353017 L7.17073171,40.6559925 C7.46689025,42.5694149 9.16483364,44 11.1739557,44 L46.191898,44 C47.9441641,44 49.510643,42.8991076 50.0914723,41.259041 L50.195122,40.9659707 L50.195122,33.2353017 C50.195122,31.3679177 48.8496319,29.4385381 47.1227894,28.7734939 C46.8177073,28.6438666 41.4611707,26.4007515 35.4475344,25.1871397 Z"/>
      <path d="M13.2716073,25.4542676 C15.3216168,24.7927933 16.2931675,24.4222901 16.2931675,24.4222901 C16.2931675,24.4222901 17.6210784,23.8170703 17.2703449,22.6046908 C16.4488406,20.9868916 15.8636595,19.7337762 15.8636595,15.006466 L15.8636595,8.86309664 C15.8636595,8.86309664 16.2162687,5.87385375 17.3284879,5.5906419 C17.4185157,5.49171173 17.4335204,5.34622619 17.3941332,5.18328239 C17.1016744,4.46647492 16.4227272,4.00038124 15.6704748,4 C11.3765023,4.00641869 7.89825814,7.60724211 7.89619374,12.0482601 L7.89619374,17.1557724 C7.89619374,19.1401952 8.6201678,20.9364566 9.77552536,22.340877 C6.09938766,23.5105808 2.88651833,25.3533976 2.29758606,25.7025629 C0.958421615,26.3582177 0,27.9275217 0,29.4890665 L0,35.0601928 C0,36.1315187 0.839725975,37 1.87558046,37 C2.82346746,36.9931285 3.61417292,36.24893 3.70989815,35.2735716 C3.71740047,35.2017987 3.75116092,35.1358453 3.75116092,35.0601928 L3.75116092,34.1717611 C3.90120736,32.3347637 4.56703842,29.0002351 7.32601728,27.4386903 C7.74802288,27.2447096 8.19816219,27.0546085 8.65767941,26.8664472 C10.2018543,26.4176622 11.7399763,25.946891 13.2716073,25.4542676"/>
    </g>
  </g>
</svg>
