<svg xmlns="http://www.w3.org/2000/svg" width="84" height="82" viewBox="0 0 84 82">
  <g fill="none" fill-rule="evenodd">
    <ellipse cx="42" cy="41" fill="#FFF" rx="42" ry="41"/>
    <g fill="#BABABA" fill-rule="nonzero" transform="translate(24 22)">
      <path d="M25.8905455,17.9709091 L16.9101818,27.7890909 C16.5992727,28.1278182 16.1607273,28.3209091 15.7009091,28.3209091 L15.6927273,28.3209091 C15.2300566,28.3177379 14.7902616,28.1192358 14.4818182,27.7743636 L10.098,22.8652727 C9.70864544,22.4291489 9.58153629,21.8184356 9.76455336,21.2631828 C9.94757042,20.7079299 10.412909,20.2924936 10.9852807,20.1733646 C11.5576523,20.0542356 12.1501,20.2495125 12.5394545,20.6856364 L15.7156364,24.2447273 L23.4736364,15.7618182 C24.0906793,15.1280177 25.0994643,15.0986083 25.7523825,15.6953853 C26.4053008,16.2921623 26.4664645,17.2995208 25.8905455,17.9709091 M29,2.00163636 C28.9967273,2.00163636 29,3.05054545 29,3.65272727 L29,6.89272727 C29.0063445,8.70218365 27.8094403,9.99008387 26,10 L10,10 C8.18992033,9.99188303 6.99456505,8.70281699 7,6.89272727 L7,3.65272727 C7,3.04727273 7,2.55636364 7,2.00163636 L3.25963636,2.00163636 C1.46077463,2.0034386 0.00270551039,3.46077576 0,5.25963636 L0,34.7403636 C0,36.5387273 1.46127273,38 3.25963636,38 L32.7436364,38 C34.54122,37.996396 35.9972991,36.5395852 36,34.742 L36,5.25963636 C36,3.46290909 34.5272727,2 32.7207273,2 L29,2.00163636 Z"/>
      <path d="M25.7007561,1.16492797 C25.3251338,0.447075264 24.6272152,0.0029162152 23.8702746,0 L12.1329089,0 C11.3481894,0 10.6685237,0.469448584 10.2992439,1.16318927 C10.1054482,1.52077856 10.0021727,1.928221 10,2.34376552 L10,4.65275708 C10,5.94808743 10.9550338,7 12.1329089,7 L23.8702746,7 C25.0449662,7 26,5.94808743 26,4.65275708 L26,2.34376552 C26,1.90909091 25.8869877,1.51440636 25.7007561,1.16492797"/>
    </g>
  </g>
</svg>
