<svg xmlns="http://www.w3.org/2000/svg" xmlns:xlink="http://www.w3.org/1999/xlink" width="84" height="84" viewBox="0 0 84 84">
  <defs>
    <linearGradient id="linear-gradient" x1="0.5" y1="-0.128" x2="0.5" y2="1.13" gradientUnits="objectBoundingBox">
      <stop offset="0" stop-color="#ffce47"/>
      <stop offset="1" stop-color="#da9c53"/>
    </linearGradient>
  </defs>
  <g id="icon-biz-gpqq" transform="translate(-120 -5742)">
    <path id="路径_12969" data-name="路径 12969" d="M42,0A42,42,0,1,1,0,42,42,42,0,0,1,42,0Z" transform="translate(120 5742)" fill="url(#linear-gradient)"/>
    <rect id="矩形_12171" data-name="矩形 12171" width="48" height="48" transform="translate(138 5760)" fill="rgba(255,255,255,0)"/>
    <g id="组_31295" data-name="组 31295" transform="translate(3.975 8.666)">
      <path id="路径_12973" data-name="路径 12973" d="M16.471,0H37.956a1.766,1.766,0,0,1,1.766,1.766v26.26a1.766,1.766,0,0,1-1.766,1.766H1.766A1.766,1.766,0,0,1,0,28.026V16.446" transform="translate(177.722 5790.42) rotate(180)" fill="none" stroke="#fff" stroke-linecap="round" stroke-width="2"/>
      <line id="直线_362" data-name="直线 362" x2="39.146" transform="translate(138.141 5769.399)" fill="none" stroke="#fff" stroke-width="2"/>
      <g id="椭圆_784" data-name="椭圆 784" transform="translate(164.986 5777.334)" fill="none" stroke="#fff" stroke-width="2">
        <circle cx="8.881" cy="8.881" r="8.881" stroke="none"/>
        <circle cx="8.881" cy="8.881" r="7.881" fill="none"/>
      </g>
      <g id="组_30026" data-name="组 30026" transform="translate(170.503 5782.774)">
        <line id="直线_363" data-name="直线 363" x2="6.879" transform="translate(0.001 3.44)" fill="none" stroke="#fff" stroke-linecap="round" stroke-width="2"/>
        <line id="直线_364" data-name="直线 364" y2="6.879" transform="translate(3.44 0)" fill="none" stroke="#fff" stroke-linecap="round" stroke-width="2"/>
      </g>
      <g id="组_30027" data-name="组 30027" transform="translate(139.64 5769.559)">
        <path id="路径_17525" data-name="路径 17525" d="M5.726-1.89q.294.252.588.539t.616.609L5.894.392a8.453,8.453,0,0,0-.707-.833Q4.8-.84,4.41-1.232l.658-.658h-1.9l.9.714q-.2.308-.469.665T3.01.2Q2.7.56,2.387.889a8.075,8.075,0,0,1-.595.567L.658.266q.266-.21.553-.483t.567-.567q.28-.294.532-.581t.434-.525H.63V-3.36H1.89V-8.428H1.148V-9.884H1.89v-1.162l1.512.084v1.078H5.138v-1.162l1.526.084v1.078h.714v1.456H6.664V-3.36h.644v1.47ZM12.46-10.7V-.546a3.34,3.34,0,0,1-.091.854,1.258,1.258,0,0,1-.28.539,1.084,1.084,0,0,1-.476.294,3.5,3.5,0,0,1-.679.133l-.714.07-.476-1.5.6-.056a.608.608,0,0,0,.511-.245,1.685,1.685,0,0,0,.133-.805V-2.534H9.268A9.65,9.65,0,0,1,9.1-1.379a7.328,7.328,0,0,1-.287,1,6.375,6.375,0,0,1-.441.945q-.266.469-.616,1L6.272.77A9.113,9.113,0,0,0,7.133-.553a5.481,5.481,0,0,0,.476-1.33,9.708,9.708,0,0,0,.2-1.673q.042-.952.042-2.38V-10.7ZM9.352-8.918v1.6H10.99v-1.6Zm-5.95.49v.742H5.138v-.742Zm0,2.912H5.138v-.742H3.4ZM10.99-4.13V-5.768H9.352v1.162q0,.238-.014.476ZM3.4-3.36H5.138v-.728H3.4Z" transform="translate(0 15)" fill="#fff"/>
      </g>
      <line id="直线_365" data-name="直线 365" x2="9.801" transform="translate(156.111 5774.684)" fill="none" stroke="#fff" stroke-linecap="round" stroke-width="2"/>
      <line id="直线_366" data-name="直线 366" x2="5.801" transform="translate(156.111 5779.56)" fill="none" stroke="#fff" stroke-linecap="round" stroke-width="2"/>
      <line id="直线_367" data-name="直线 367" x2="3.801" transform="translate(156.111 5784.437)" fill="none" stroke="#fff" stroke-linecap="round" stroke-width="2"/>
      <rect id="矩形_12386" data-name="矩形 12386" width="4" height="4" rx="1" transform="translate(142.025 5763.334)" fill="#fff"/>
      <rect id="矩形_12387" data-name="矩形 12387" width="4" height="4" rx="1" transform="translate(149.025 5763.334)" fill="#fff"/>
      <rect id="矩形_12388" data-name="矩形 12388" width="4" height="4" rx="1" transform="translate(156.025 5763.334)" fill="#fff"/>
    </g>
  </g>
</svg>
