<svg xmlns="http://www.w3.org/2000/svg" xmlns:xlink="http://www.w3.org/1999/xlink" width="84" height="84" viewBox="0 0 84 84">
  <defs>
    <linearGradient id="linear-gradient" x1="0.5" y1="-0.128" x2="0.5" y2="1.13" gradientUnits="objectBoundingBox">
      <stop offset="0" stop-color="#ffce47"/>
      <stop offset="1" stop-color="#da9c53"/>
    </linearGradient>
  </defs>
  <g id="icon-biz-kcb" transform="translate(-120 -5742)">
    <path id="路径_12969" data-name="路径 12969" d="M42,0A42,42,0,1,1,0,42,42,42,0,0,1,42,0Z" transform="translate(120 5742)" fill="url(#linear-gradient)"/>
    <rect id="矩形_12171" data-name="矩形 12171" width="48" height="48" transform="translate(138 5760)" fill="rgba(255,255,255,0)"/>
    <g id="组_30030" data-name="组 30030" transform="translate(1.045 7.682)">
      <path id="路径_12973" data-name="路径 12973" d="M16.471,0H37.956a1.766,1.766,0,0,1,1.766,1.766v26.26a1.766,1.766,0,0,1-1.766,1.766H1.766A1.766,1.766,0,0,1,0,28.026V16.446" transform="translate(177.722 5790.42) rotate(180)" fill="none" stroke="#fff" stroke-linecap="round" stroke-width="2"/>
      <path id="路径_12976" data-name="路径 12976" d="M-.055,1.207S3.157-2.4,7.164-1.99s4.413,4.2,8.689,4.063,4.791-4.656,8.9-4.063S29.752,1.558,33.3,2.073,39.7-1.99,39.7-1.99" transform="translate(138.141 5768.181)" fill="none" stroke="#fff" stroke-width="2"/>
      <g id="椭圆_784" data-name="椭圆 784" transform="translate(163.428 5777.172)" fill="none" stroke="#fff" stroke-width="2">
        <circle cx="10.241" cy="10.241" r="10.241" stroke="none"/>
        <circle cx="10.241" cy="10.241" r="9.241" fill="none"/>
      </g>
      <g id="组_30026" data-name="组 30026" transform="translate(169.79 5783.446)">
        <line id="直线_363" data-name="直线 363" x2="7.933" transform="translate(0 3.967)" fill="none" stroke="#fff" stroke-linecap="round" stroke-width="2"/>
        <line id="直线_364" data-name="直线 364" y2="7.933" transform="translate(3.967 0)" fill="none" stroke="#fff" stroke-linecap="round" stroke-width="2"/>
      </g>
      <g id="组_30027" data-name="组 30027" transform="translate(140.528 5769.559)">
        <text id="科" transform="translate(0 15)" fill="#fff" font-size="14" font-family="AlibabaPuHuiTi-Medium, Alibaba PuHuiTi" font-weight="500"><tspan x="0" y="0">科</tspan></text>
      </g>
      <line id="直线_365" data-name="直线 365" x2="15.344" transform="translate(156.111 5774.684)" fill="none" stroke="#fff" stroke-linecap="round" stroke-width="2"/>
      <line id="直线_366" data-name="直线 366" x2="5.801" transform="translate(156.111 5779.56)" fill="none" stroke="#fff" stroke-linecap="round" stroke-width="2"/>
      <line id="直线_367" data-name="直线 367" x2="3.801" transform="translate(156.111 5784.437)" fill="none" stroke="#fff" stroke-linecap="round" stroke-width="2"/>
    </g>
  </g>
</svg>
