<svg xmlns="http://www.w3.org/2000/svg" xmlns:xlink="http://www.w3.org/1999/xlink" width="84" height="84" viewBox="0 0 84 84"><defs><style>.a{fill:url(#a);}.b{fill:rgba(255,255,255,0);}.c{fill:none;stroke-linecap:round;stroke-width:2px;}.c,.e{stroke:#fff;}.d,.e{fill:#fff;}.e{stroke-width:0.5px;}</style><linearGradient id="a" x1="0.5" y1="-0.069" x2="0.5" y2="1.075" gradientUnits="objectBoundingBox"><stop offset="0" stop-color="#20ceff"/><stop offset="1" stop-color="#208bff"/></linearGradient></defs><g transform="translate(-120 -5742)"><path class="a" d="M42,0A42,42,0,1,1,0,42,42,42,0,0,1,42,0Z" transform="translate(120 5742)"/><rect class="b" width="48" height="48" transform="translate(138 5760)"/><g transform="translate(1.453 6.342)"><path class="c" d="M38.988,12.143l2.185,5.336a1.747,1.747,0,0,1,0,1.734l-9.485,16.6a1.747,1.747,0,0,1-1.517.88H11.232a1.747,1.747,0,0,1-1.517-.88L.23,19.213a1.747,1.747,0,0,1,0-1.734L9.715.88A1.747,1.747,0,0,1,11.232,0H23.541" transform="translate(176.941 5756.467) rotate(90)"/><g transform="translate(151.09 5761.479)"><path class="d" d="M13.44-4.26H7.3A16.07,16.07,0,0,1,7.14-2.535,9.977,9.977,0,0,1,6.8-1.08,9.845,9.845,0,0,1,6.255.285q-.33.675-.81,1.455L3.72.69A12.763,12.763,0,0,0,4.665-.8,6.643,6.643,0,0,0,5.22-2.235a9.4,9.4,0,0,0,.263-1.68q.068-.93.068-2.22V-10.38H8.6l-.375-1.5,2.01-.09.315,1.59h2.9ZM4.26-8.34a7.308,7.308,0,0,0-.548-.517Q3.375-9.15,3-9.442T2.257-9.99q-.367-.255-.637-.42l1.065-1.515q.24.15.585.382t.7.5q.36.27.69.54t.57.48ZM3.495-4.845Q3.24-5.1,2.88-5.415t-.743-.622q-.383-.308-.765-.585T.69-7.08l1.1-1.53q.285.18.66.435t.75.54q.375.285.72.57t.6.525Zm8.115-3.72H7.35v2.49h4.26ZM4.575-3.615q-.06.21-.188.585T4.1-2.2q-.165.45-.353.952t-.375.967Q3.18.18,3.015.577T2.73,1.23L.885.57Q1,.315,1.178-.1t.367-.885q.195-.473.4-.975t.375-.952q.173-.45.3-.81t.188-.54l.81.3Z" transform="translate(0 16)"/></g><path class="c" d="M152.023,5771.759l5.517-5.3,5.517,5.3,14.526-10.318" transform="translate(-5.298 15.577)"/><g transform="matrix(0.966, 0.259, -0.259, 0.966, 168.655, 5775.591)"><path class="c" d="M4.193,0H0"/><path class="c" d="M4.035,0H0" transform="translate(4.192 4.036) rotate(-90)"/></g><g transform="translate(-1.186 -1)"><path class="e" d="M138.409,146.148c-2.825,0-4.3,1.117-4.3,2.22V154.3c0,1.1,1.478,2.22,4.3,2.22,2.8,0,4.278-1.1,4.3-2.2h0v-5.954c0-1.1-1.477-2.22-4.3-2.22Zm0,1.169c2.089,0,3.166.737,3.166,1.051s-1.077,1.052-3.166,1.052-3.165-.738-3.165-1.052,1.077-1.052,3.165-1.052Zm0,8.034c-2.089,0-3.165-.737-3.165-1.052v-1.416a7.789,7.789,0,0,0,6.331,0V154.3c0,.313-1.078,1.051-3.167,1.051Zm0-2.966c-2.089,0-3.165-.738-3.165-1.052v-1.416a7.78,7.78,0,0,0,6.331,0v1.416c0,.313-1.078,1.051-3.167,1.051Z" transform="translate(38.704 5641.473)"/><path class="e" d="M136.994,144.065v.571h.972v-2.161c0-1.764-2.807-2.712-5.448-2.712s-5.45.952-5.45,2.712v7.995c0,1.764,2.116,2.713,4.757,2.713V152.17c-2.774,0-3.786-.99-3.786-1.7v-2.4a6.011,6.011,0,0,0,3.786,1.12v-1.015c-2.774,0-3.786-.991-3.786-1.7v-2.406a10.4,10.4,0,0,0,3.9.908c.039,0,.31.008.581,0a10.574,10.574,0,0,0,4.476-.909Zm-4.478-3.291c2.774,0,4.478.99,4.478,1.7s-1.7,1.7-4.478,1.7-4.477-.99-4.477-1.7,1.7-1.7,4.476-1.7Z" transform="translate(41.729 5643.912)"/></g></g></g></svg>