<svg xmlns="http://www.w3.org/2000/svg" xmlns:xlink="http://www.w3.org/1999/xlink" width="84" height="84" viewBox="0 0 84 84">
  <defs>
    <linearGradient id="linear-gradient" x1="0.5" y1="-0.069" x2="0.5" y2="1.075" gradientUnits="objectBoundingBox">
      <stop offset="0" stop-color="#20ceff"/>
      <stop offset="1" stop-color="#208bff"/>
    </linearGradient>
    <clipPath id="clip-path">
      <path id="路径_10983" data-name="路径 10983" d="M26.732-5.182l3.243,3.243a1,1,0,0,1,0,1.414,1,1,0,0,1-1.414,0L25.318-3.768a1,1,0,0,1,0-1.414A1,1,0,0,1,26.732-5.182Z" fill="none" clip-rule="evenodd"/>
    </clipPath>
  </defs>
  <g id="icon-biz-zdcx" transform="translate(-1122 -1182)">
    <g id="组_30024" data-name="组 30024" transform="translate(1002 -4560)">
      <path id="路径_12969" data-name="路径 12969" d="M42,0A42,42,0,1,1,0,42,42,42,0,0,1,42,0Z" transform="translate(120 5742)" fill="url(#linear-gradient)"/>
      <rect id="矩形_12172" data-name="矩形 12172" width="48" height="48" transform="translate(138 5760)" fill="rgba(255,255,255,0)"/>
      <g id="组_31066" data-name="组 31066" transform="translate(-2.283 0.548)">
        <path id="路径_12973" data-name="路径 12973" d="M8.973-10.355h21.27A1.653,1.653,0,0,1,31.9-8.7V24.644A1.653,1.653,0,0,1,30.243,26.3H.653A1.653,1.653,0,0,1-1,24.644V6.376" transform="translate(177.722 5791.42) rotate(180)" fill="none" stroke="#fff" stroke-linecap="round" stroke-width="2"/>
        <path id="路径_13028" data-name="路径 13028" d="M0,0H20.424" transform="translate(151.76 5785.063)" fill="none" stroke="#fff" stroke-linecap="round" stroke-width="2"/>
        <line id="直线_367" data-name="直线 367" x2="11.795" transform="translate(151.76 5790.004)" fill="none" stroke="#fff" stroke-linecap="round" stroke-width="2"/>
        <line id="直线_437" data-name="直线 437" x2="11.795" transform="translate(151.76 5794.941)" fill="none" stroke="#fff" stroke-linecap="round" stroke-width="2"/>
        <text id="中登" transform="translate(150.185 5779.45)" fill="#fff" font-size="11" font-family="AlibabaPuHuiTi-Bold, Alibaba PuHuiTi" font-weight="700"><tspan x="0" y="0">中登</tspan></text>
        <g id="组_20792" data-name="组 20792" transform="translate(151.283 5800.158)">
          <g id="组_20790" data-name="组 20790" transform="translate(19.611 -11.389)">
            <path id="路径_10981" data-name="路径 10981" d="M5.519,11.037A5.519,5.519,0,1,0,0,5.519,5.519,5.519,0,0,0,5.519,11.037Z" fill="none" stroke="#fff" stroke-width="2"/>
          </g>
          <g id="组_20791" data-name="组 20791" transform="translate(3 3)" clip-path="url(#clip-path)">
            <path id="路径_10982" data-name="路径 10982" d="M25.025-13.96,37.753-1.232,29.268,7.253,16.54-5.475Z" fill="#fff"/>
          </g>
        </g>
      </g>
    </g>
  </g>
</svg>
