<svg xmlns="http://www.w3.org/2000/svg" xmlns:xlink="http://www.w3.org/1999/xlink" width="84" height="84" viewBox="0 0 84 84"><defs><style>.a{opacity:0.795;fill:url(#a);}.b{fill:rgba(255,255,255,0);}.c,.d,.e{fill:none;}.c,.d{stroke:#fff;stroke-width:2px;}.c{stroke-linecap:round;}.f{fill:#fff;}.g{fill:rgba(255,255,255,0.35);}.h{stroke:none;}</style><linearGradient id="a" x1="0.5" y1="1" x2="0.5" gradientUnits="objectBoundingBox"><stop offset="0" stop-color="#4141d7"/><stop offset="1" stop-color="#2073ff"/></linearGradient></defs><g transform="translate(-120 -5742)"><path class="a" d="M42,0A42,42,0,1,1,0,42,42,42,0,0,1,42,0Z" transform="translate(120 5742)"/><rect class="b" width="48" height="48" transform="translate(138 5760)"/><g transform="translate(-0.283 2.046)"><path class="c" d="M16.471-10.355H32.3A1.766,1.766,0,0,1,34.067-8.59V27.026A1.766,1.766,0,0,1,32.3,28.791H1.766A1.766,1.766,0,0,1,0,27.026V16.446" transform="translate(177.722 5791.42) rotate(180)"/><g class="d" transform="translate(164.428 5778.172)"><circle class="h" cx="9.241" cy="9.241" r="9.241"/><circle class="e" cx="9.241" cy="9.241" r="8.241"/></g><path class="c" d="M0,0H9.648" transform="translate(150.76 5788.77)"/><line class="c" x2="13.023" transform="translate(150.76 5793.855)"/><g transform="translate(-1.835 -2)"><path class="e" d="M169.07,5806.274l6.433-4.02,6.433,4.02v-11.517s-3.913,1.942-6.433,1.942-6.433-1.942-6.433-1.942Z"/><path class="f" d="M179.936,5802.666v-4.9a10.934,10.934,0,0,1-8.866,0v4.9l3.373-2.108,1.06-.662,1.06.662,3.373,2.108m2,3.608-6.433-4.02-6.433,4.02v-11.517s3.913,1.942,6.433,1.942,6.433-1.942,6.433-1.942Z"/></g><g transform="translate(169.789 5783.446)"><line class="c" x2="7.933" transform="translate(0 3.967)"/><line class="c" y2="7.933" transform="translate(3.967)"/></g><g transform="translate(48.93 5702.427)"><path class="f" d="M107.749,81.018c-3.843,0-7.749-5.241-7.749-8.168V66.537h.425a10.9,10.9,0,0,0,7.076-2.159l.248-.179.248.179a10.9,10.9,0,0,0,7.076,2.159h.425V72.85C115.5,75.777,111.593,81.018,107.749,81.018Zm-6.9-13.635V72.85c0,2.544,3.655,7.318,6.9,7.318s6.9-4.774,6.9-7.318V67.383a11.592,11.592,0,0,1-6.9-2.14,11.592,11.592,0,0,1-6.9,2.14Z"/><path class="f" d="M298.693,290.892c-.2.271-.448.577-.745.914l-.348-1.112a11.339,11.339,0,0,0,2.006-3.993l.973.457a11.929,11.929,0,0,1-.863,2.124v6.736h-1.023Zm1.659-2.931h2.85c-.114-.284-.251-.59-.417-.914l.992-.269a7.494,7.494,0,0,1,.448,1.182H306.9v.975h-6.543Zm5.929,4.38v3.654h-1v-.5H302.03v.5h-1.014v-3.654Zm-5.035-2.88h4.817v.924h-4.817Zm0,1.4h4.817v.933h-4.817Zm.785,3.654h3.248V293.3H302.03Z" transform="translate(-194.533 -218.967)"/></g></g><g transform="translate(136 5808.469)"><path class="g" d="M13946.475,22306.434a15,15,0,0,1,13.523-8.5h26a15,15,0,0,1,13.232,7.928,42.007,42.007,0,0,1-52.755.572Z" transform="translate(-13946.475 -22297.934)"/><path class="f" d="M-8.685-1.4q-.4-.77-.9-1.639A20.58,20.58,0,0,1-10.792-1.37q-.682.854-1.568,1.821L-13.875-.823a27.3,27.3,0,0,0,1.793-2.059,18.6,18.6,0,0,0,1.387-2.031q-.615-.981-1.207-1.856T-12.975-8.3l1.44-.924q.375.518.81,1.163t.915,1.373A13.645,13.645,0,0,0-9-9.508h-3.93v-1.779h5.7v1.779a23.581,23.581,0,0,1-.54,2.521A13.74,13.74,0,0,1-8.58-4.8q.375.588.713,1.163T-7.23-2.56Zm5.79-2.213A12.425,12.425,0,0,0,.375-.683L-.93.8a15.455,15.455,0,0,1-1.7-1.394A14.511,14.511,0,0,1-4.02-2.112,15.79,15.79,0,0,1-7.74.9L-9.165-.585A18.724,18.724,0,0,0-6.787-2.133,11.382,11.382,0,0,0-5.07-3.765,13.222,13.222,0,0,1-6.112-6.286,19.05,19.05,0,0,1-6.72-9.144l1.68-.28A20.024,20.024,0,0,0-4.62-7.3a11.166,11.166,0,0,0,.66,1.87A11.6,11.6,0,0,0-3.2-7.323a18.5,18.5,0,0,0,.517-2.213H-6.87v-1.751H-.855v1.751a21.148,21.148,0,0,1-.787,3.243A12.805,12.805,0,0,1-2.895-3.611Zm12.915.462a11.609,11.609,0,0,0,1.545.889,18.558,18.558,0,0,0,1.935.791L12.63.115q-.855-.35-1.575-.7T9.72-1.313a10.612,10.612,0,0,1-1.132-.8,9.086,9.086,0,0,1-.967-.91v1.863a2.854,2.854,0,0,1-.1.812A1.132,1.132,0,0,1,7.2.178a1.352,1.352,0,0,1-.593.294A5.684,5.684,0,0,1,5.7.606L4.635.676,4.1-.963l.975-.056a.913.913,0,0,0,.668-.224,1.036,1.036,0,0,0,.157-.644v-.826q-1.125.672-2.43,1.373T.915-.039L.03-1.58q.855-.364,1.717-.791t1.7-.875q-.21-.182-.495-.42T2.37-4.129q-.3-.224-.585-.42t-.48-.322l.645-.812H.54v-1.5H9.75v-.7H2.025v-1.5H9.75v-.686H1.62V-11.6h9.915v4.412H13.14v1.5H11.58l.765.939q-.48.322-1.1.756T10.02-3.148ZM5.895-3.527V-5.684H3.015q.42.28.87.609t.765.609L3.81-3.457l.818-.462q.4-.224.773-.462ZM8.67-4.3q.51-.322,1.042-.686t.968-.7H7.665A6.574,6.574,0,0,0,8.67-4.3Z" transform="translate(26.521 14.443)"/></g></g></svg>