<svg xmlns="http://www.w3.org/2000/svg" xmlns:xlink="http://www.w3.org/1999/xlink" width="84" height="84" viewBox="0 0 84 84">
  <defs>
    <linearGradient id="linear-gradient" x1="0.5" y1="-0.069" x2="0.5" y2="1.075" gradientUnits="objectBoundingBox">
      <stop offset="0" stop-color="#20ceff"/>
      <stop offset="1" stop-color="#208bff"/>
    </linearGradient>
  </defs>
  <g id="icon-biz-edit" transform="translate(-1122 -1182)">
    <g id="组_30024" data-name="组 30024" transform="translate(1002 -4560)">
      <path id="路径_12969" data-name="路径 12969" d="M42,0A42,42,0,1,1,0,42,42,42,0,0,1,42,0Z" transform="translate(120 5742)" fill="url(#linear-gradient)"/>
      <rect id="矩形_12172" data-name="矩形 12172" width="48" height="48" transform="translate(138 5760)" fill="rgba(255,255,255,0)"/>
    </g>
    <g id="组_30598" data-name="组 30598" transform="translate(1.441 1.466)">
      <path id="路径_13638" data-name="路径 13638" d="M28.752,0H3.775A2.746,2.746,0,0,0,1,2.715V33.484A2.746,2.746,0,0,0,3.775,36.2H30.6a2.746,2.746,0,0,0,2.775-2.715V11.825" transform="translate(1145 1205)" fill="none" stroke="#fff" stroke-linecap="round" stroke-width="2"/>
      <line id="直线_392" data-name="直线 392" x1="15.726" y2="15.726" transform="translate(1165.862 1206.388)" fill="none" stroke="#fff" stroke-linecap="round" stroke-width="2"/>
      <line id="直线_393" data-name="直线 393" x2="9.251" transform="translate(1152.013 1224.889)" fill="none" stroke="#fff" stroke-linecap="round" stroke-width="2"/>
      <line id="直线_395" data-name="直线 395" x2="9.251" transform="translate(1152.013 1216.563)" fill="none" stroke="#fff" stroke-linecap="round" stroke-width="2"/>
      <line id="直线_394" data-name="直线 394" x2="18.501" transform="translate(1152.013 1233.214)" fill="none" stroke="#fff" stroke-linecap="round" stroke-width="2"/>
    </g>
  </g>
</svg>
