<svg xmlns="http://www.w3.org/2000/svg" xmlns:xlink="http://www.w3.org/1999/xlink" width="84" height="84" viewBox="0 0 84 84">
  <defs>
    <linearGradient id="linear-gradient" x1="0.5" y1="0.126" x2="0.5" y2="1" gradientUnits="objectBoundingBox">
      <stop offset="0" stop-color="#ffc6a7"/>
      <stop offset="1" stop-color="#ff574d"/>
    </linearGradient>
  </defs>
  <g id="icon-biz-czqd" transform="translate(-120 -5742)">
    <path id="路径_12969" data-name="路径 12969" d="M42,0A42,42,0,1,1,0,42,42,42,0,0,1,42,0Z" transform="translate(120 5742)" opacity="0.802" fill="url(#linear-gradient)"/>
    <rect id="矩形_12170" data-name="矩形 12170" width="48" height="48" transform="translate(138 5760)" fill="rgba(255,255,255,0)"/>
    <g id="矩形_12332" data-name="矩形 12332" transform="translate(140 5767)" fill="none" stroke="#fff" stroke-width="2">
      <rect width="45" height="35" rx="2" stroke="none"/>
      <rect x="1" y="1" width="43" height="33" rx="1" fill="none"/>
    </g>
    <g id="组_31056" data-name="组 31056" transform="translate(-6.997 0.479)">
      <path id="路径_13000" data-name="路径 13000" d="M0,0S5.741,5.7,6.651,6.634" transform="translate(164.73 5782.226) rotate(-45)" fill="none" stroke="#fff" stroke-linecap="round" stroke-width="2"/>
      <path id="路径_13016" data-name="路径 13016" d="M0,0S5.741,5.7,6.651,6.634" transform="translate(174.123 5785.817) rotate(135)" fill="none" stroke="#fff" stroke-linecap="round" stroke-width="2"/>
      <path id="路径_13001" data-name="路径 13001" d="M165.1,5781.442l3.466-3.466" transform="translate(-0.352 0.804)" fill="none" stroke="#fff" stroke-linecap="round" stroke-width="2"/>
      <path id="路径_13015" data-name="路径 13015" d="M168.561,5777.974l-3.466,3.466" transform="translate(5.546 7.823)" fill="none" stroke="#fff" stroke-linecap="round" stroke-width="2"/>
    </g>
    <rect id="矩形_12333" data-name="矩形 12333" width="8" height="8" rx="1" transform="translate(147 5775)" fill="#fff"/>
    <rect id="矩形_12334" data-name="矩形 12334" width="8" height="8" rx="1" transform="translate(147 5786)" fill="#fff"/>
    <g id="矩形_12335" data-name="矩形 12335" transform="translate(170 5775)" fill="none" stroke="#fff" stroke-width="2">
      <rect width="9" height="5" rx="1" stroke="none"/>
      <rect x="1" y="1" width="7" height="3" fill="none"/>
    </g>
    <g id="矩形_12336" data-name="矩形 12336" transform="translate(170 5782)" fill="none" stroke="#fff" stroke-width="2">
      <rect width="9" height="5" rx="1" stroke="none"/>
      <rect x="1" y="1" width="7" height="3" fill="none"/>
    </g>
    <g id="矩形_12337" data-name="矩形 12337" transform="translate(170 5789)" fill="none" stroke="#fff" stroke-width="2">
      <rect width="9" height="5" rx="1" stroke="none"/>
      <rect x="1" y="1" width="7" height="3" fill="none"/>
    </g>
  </g>
</svg>
