<svg xmlns="http://www.w3.org/2000/svg" xmlns:xlink="http://www.w3.org/1999/xlink" width="84" height="84" viewBox="0 0 84 84"><defs><style>.a{fill:url(#a);}.b{fill:rgba(255,255,255,0);}.c,.d,.e,.h{fill:none;}.c,.d,.e{stroke:#fff;}.c,.e{stroke-linecap:round;}.c{stroke-width:2px;}.d{stroke-width:3px;}.e{stroke-width:1.5px;}.f{fill:#fff;}.g{stroke:none;}</style><linearGradient id="a" x1="0.5" y1="-0.069" x2="0.5" y2="1.075" gradientUnits="objectBoundingBox"><stop offset="0" stop-color="#20ceff"/><stop offset="1" stop-color="#208bff"/></linearGradient></defs><g transform="translate(-120 -5742)"><path class="a" d="M42,0A42,42,0,1,1,0,42,42,42,0,0,1,42,0Z" transform="translate(120 5742)"/><rect class="b" width="48" height="48" transform="translate(138 5760)"/><g transform="translate(0.002)"><g transform="translate(140.535 5769.461)"><g class="c" transform="translate(0.463 -0.461)"><rect class="g" width="43" height="31" rx="2"/><rect class="h" x="1" y="1" width="41" height="29" rx="1"/></g><line class="d" x2="41.367" transform="translate(0.596 9.727)"/><g transform="translate(6.761 5.027)"><line class="e" x2="2.829"/><line class="e" x2="2.829" transform="translate(7.073)"/></g><g transform="translate(21.279 5.027)"><line class="e" x2="2.829"/><line class="e" x2="2.829" transform="translate(7.073)"/></g><g transform="translate(5.463 24.041)"><path class="f" d="M169.279,5779.035h6.857v2.719h-6.857Z" transform="translate(-143.663 -5779.035)"/><path class="f" d="M169.279,5779.035h3.207v2.719h-3.207Z" transform="translate(-161.858 -5779.035)"/><path class="f" d="M169.279,5779.035h3.207v2.719h-3.207Z" transform="translate(-154.017 -5779.035)"/><path class="f" d="M169.279,5779.035h3.207v2.719h-3.207Z" transform="translate(-147.542 -5779.035)"/><path class="f" d="M169.279,5779.035h1.6v2.719h-1.6Z" transform="translate(-169.279 -5779.035)"/><path class="f" d="M169.279,5779.035h1.6v2.719h-1.6Z" transform="translate(-167.068 -5779.035)"/><path class="f" d="M169.279,5779.035h2.393v2.719h-2.393Z" transform="translate(-164.857 -5779.035)"/><path class="f" d="M169.279,5779.035h2.393v2.719h-2.393Z" transform="translate(-157.017 -5779.035)"/><path class="f" d="M169.279,5779.035h1.6v2.719h-1.6Z" transform="translate(-157.818 -5779.035)"/><path class="f" d="M169.279,5779.035h1.6v2.719h-1.6Z" transform="translate(-149.978 -5779.035)"/></g><path class="f" d="M20.516,11a4.2,4.2,0,0,0-2.6.882,4.274,4.274,0,0,0-2.6-.882,4.326,4.326,0,0,0,0,8.651,4.274,4.274,0,0,0,2.6-.882,4.2,4.2,0,0,0,2.6.882,4.326,4.326,0,1,0,0-8.651ZM12.73,15.326a2.6,2.6,0,1,1,2.6,2.6A2.6,2.6,0,0,1,12.73,15.326Zm7.786,2.6a2.6,2.6,0,0,1-1.453-.467,4.135,4.135,0,0,0,0-4.256,2.6,2.6,0,1,1,1.453,4.724Z" transform="translate(-5.537 2.438)"/><line class="c" x2="6.879" transform="translate(28.553 17.865)"/><line class="c" y2="6.879" transform="translate(31.994 14.426)"/></g></g></g></svg>