<svg xmlns="http://www.w3.org/2000/svg" xmlns:xlink="http://www.w3.org/1999/xlink" width="84" height="84" viewBox="0 0 84 84"><defs><style>.a{fill:url(#a);}.b{fill:rgba(255,255,255,0);}.c,.d,.e,.h{fill:none;}.c,.d{stroke:#fff;stroke-width:2px;}.c,.e{stroke-linecap:round;}.f{fill:#fff;}.g,.i{stroke:none;}.i{fill:#fff;}</style><linearGradient id="a" x1="0.5" y1="-0.128" x2="0.5" y2="1.13" gradientUnits="objectBoundingBox"><stop offset="0" stop-color="#ffce47"/><stop offset="1" stop-color="#da9c53"/></linearGradient></defs><g transform="translate(-120 -5742)"><path class="a" d="M42,0A42,42,0,1,1,0,42,42,42,0,0,1,42,0Z" transform="translate(120 5742)"/><rect class="b" width="48" height="48" transform="translate(138 5760)"/><g transform="translate(-0.283 2.046)"><path class="c" d="M16.471-10.355H32.3A1.766,1.766,0,0,1,34.067-8.59V27.026A1.766,1.766,0,0,1,32.3,28.791H1.766A1.766,1.766,0,0,1,0,27.026V16.446" transform="translate(177.722 5791.42) rotate(180)"/><g class="d" transform="translate(164.428 5778.172)"><circle class="g" cx="9.241" cy="9.241" r="9.241"/><circle class="h" cx="9.241" cy="9.241" r="8.241"/></g><path class="c" d="M0,0H9.648" transform="translate(150.76 5788.77)"/><line class="c" x2="13.023" transform="translate(150.76 5793.855)"/><g class="e" transform="translate(-1.835 -2)"><path class="g" d="M169.07,5806.274l6.433-4.02,6.433,4.02v-11.517s-3.913,1.942-6.433,1.942-6.433-1.942-6.433-1.942Z"/><path class="i" d="M 179.9364624023438 5802.666015625 L 179.9364624023438 5797.76123046875 C 178.5541229248047 5798.2509765625 176.9043579101562 5798.7001953125 175.5033874511719 5798.7001953125 C 174.1024169921875 5798.7001953125 172.4526672363281 5798.2509765625 171.0703125 5797.76123046875 L 171.0703125 5802.666015625 L 174.4435119628906 5800.55810546875 L 175.5033874511719 5799.89599609375 L 176.5632629394531 5800.55810546875 L 179.9364624023438 5802.666015625 M 181.9364624023438 5806.2744140625 L 175.5033874511719 5802.25439453125 L 169.0703125 5806.2744140625 L 169.0703125 5794.7578125 C 169.0703125 5794.7578125 172.9837799072266 5796.7001953125 175.5033874511719 5796.7001953125 C 178.0229949951172 5796.7001953125 181.9364624023438 5794.7578125 181.9364624023438 5794.7578125 L 181.9364624023438 5806.2744140625 Z"/></g><g transform="translate(173.756 5781.803) rotate(45)"><line class="c" x2="7.933" transform="translate(0 3.967)"/><line class="c" y2="7.933" transform="translate(3.967 0)"/></g><g transform="translate(48.93 5702.427)"><path class="f" d="M108.63,82.93c-4.28,0-8.63-5.836-8.63-9.1V66.8h.473a12.144,12.144,0,0,0,7.88-2.4l.276-.2.276.2a12.144,12.144,0,0,0,7.88,2.4h.473v7.03C117.26,77.094,112.91,82.93,108.63,82.93Zm-7.3-14.783v5.686c0,2.833,3.9,7.669,7.3,7.669s7.362-4.836,7.362-7.669V68.146a11.828,11.828,0,0,1-7.362-2.383A11.612,11.612,0,0,1,101.334,68.146Z" transform="translate(0)"/><path class="f" d="M298.817,291.368c-.222.3-.5.643-.83,1.017l-.387-1.239a12.629,12.629,0,0,0,2.234-4.447l1.083.509a13.283,13.283,0,0,1-.961,2.366v7.5h-1.139Zm1.847-3.264h3.174c-.127-.316-.28-.657-.465-1.017l1.1-.3a8.346,8.346,0,0,1,.5,1.317h2.974v1.086h-7.287Zm6.6,4.878v4.07H306.15V296.5h-3.617v.553H301.4v-4.07Zm-5.608-3.208h5.364v1.03H301.66Zm0,1.56h5.364v1.039H301.66Zm.874,4.07h3.617v-1.348h-3.617Z" transform="translate(-194.185 -218.565)"/></g></g></g></svg>