<svg xmlns="http://www.w3.org/2000/svg" xmlns:xlink="http://www.w3.org/1999/xlink" width="84" height="84" viewBox="0 0 84 84"><defs><style>.a{fill:url(#a);}.b{fill:rgba(255,255,255,0);}.c,.d,.f{fill:none;}.c,.f{stroke:#fff;stroke-width:2px;}.e{fill:#fff;}.f{stroke-linecap:round;}.g{fill:rgba(255,255,255,0.35);}.h{stroke:none;}</style><linearGradient id="a" x1="0.5" y1="-0.128" x2="0.5" y2="1.13" gradientUnits="objectBoundingBox"><stop offset="0" stop-color="#ffce47"/><stop offset="1" stop-color="#da9c53"/></linearGradient></defs><g transform="translate(-120 -5742)"><path class="a" d="M42,0A42,42,0,1,1,0,42,42,42,0,0,1,42,0Z" transform="translate(120 5742)"/><rect class="b" width="48" height="48" transform="translate(138 5760)"/><g transform="translate(1)"><g transform="translate(-6.283 0.047)"><g class="c" transform="translate(162.723 5774.467)"><circle class="h" cx="10.946" cy="10.946" r="10.946"/><circle class="d" cx="10.946" cy="10.946" r="9.946"/></g><g transform="matrix(-0.934, 0.358, -0.358, -0.934, 186.056, 5804.42)"><path class="d" d="M0,0,4.182,3.626,8.365,0l.348,12.853s-2,.03-3.87.208A19.412,19.412,0,0,0,.714,14.084Z"/><path class="e" d="M6.48,4.281l-.987.856L4.182,6.273,2.872,5.137l-.637-.553.347,6.85a15.1,15.1,0,0,1,2.072-.365c.688-.065,1.387-.111,2.006-.144L6.48,4.281M0,0,4.182,3.626,8.365,0l.348,12.853s-2,.03-3.87.208A19.412,19.412,0,0,0,.714,14.084Z"/></g><g transform="matrix(0.927, 0.375, -0.375, 0.927, 166.463, 5791.246)"><path class="d" d="M0,14.11l4.183-3.632L8.365,14.11,8.713,1.235S6.942,1.107,5.071.93A27.6,27.6,0,0,1,.714,0Z"/><path class="e" d="M6.48,9.824l.182-6.744c-.54-.045-1.153-.1-1.78-.159a20.254,20.254,0,0,1-2.294-.378L2.235,9.52l.636-.553L4.183,7.828,5.494,8.967l.986.856M8.365,14.11,4.183,10.477,0,14.11.714,0A27.6,27.6,0,0,0,5.071.93c1.87.178,3.642.3,3.642.3Z"/></g><path class="e" d="M13.16-2.142q-.014.2-.042.441t-.049.483q-.021.238-.042.434t-.035.28a5.069,5.069,0,0,1-.168.84.987.987,0,0,1-.3.476,1.218,1.218,0,0,1-.532.238,6.9,6.9,0,0,1-.861.112,5.248,5.248,0,0,1-.574.028A4.865,4.865,0,0,1,10,1.162a3.31,3.31,0,0,1-.7-.119A1.29,1.29,0,0,1,8.771.749,1.275,1.275,0,0,1,8.442.217,2.677,2.677,0,0,1,8.33-.63V-5.474a14.082,14.082,0,0,1-.336,1.925,9.277,9.277,0,0,1-.616,1.715A10.474,10.474,0,0,1,6.412-.21,15.874,15.874,0,0,1,5.026,1.442L3.92.546v.84H2.226V-4.956q-.168.252-.357.5l-.385.5L.392-5.348a11.4,11.4,0,0,0,.847-1.19q.441-.7.84-1.5a17.034,17.034,0,0,0,.714-1.638,11.945,11.945,0,0,0,.483-1.6l1.694.49Q4.732-10,4.466-9.3T3.92-7.952V-.084A12.275,12.275,0,0,0,5.138-1.54a7.5,7.5,0,0,0,.8-1.449,8.538,8.538,0,0,0,.476-1.6,16.882,16.882,0,0,0,.25-1.921H4.4V-8.232H6.762v-2.842L8.526-11,8.47-8.232h2.114l-.364-.455q-.2-.245-.392-.476T9.436-9.6q-.2-.21-.35-.35l1.148-1.022q.2.168.441.406t.5.5q.252.259.476.525t.378.49l-.77.826h1.386V-6.51H8.414a1.02,1.02,0,0,0-.014.168,1.02,1.02,0,0,1-.014.168l1.652.07v5.012a1.536,1.536,0,0,0,.021.287.351.351,0,0,0,.077.168.316.316,0,0,0,.154.091,1.446,1.446,0,0,0,.266.042,1.282,1.282,0,0,0,.378,0,.57.57,0,0,0,.35-.119.93.93,0,0,0,.126-.455q.042-.336.077-.742t.063-.812Z" transform="translate(166.668 5790.412)"/></g><g transform="translate(3.189 8.666)"><path class="f" d="M28.471,0h9.485a1.766,1.766,0,0,1,1.766,1.766v26.26a1.766,1.766,0,0,1-1.766,1.766H1.766A1.766,1.766,0,0,1,0,28.026V3.446" transform="translate(177.722 5790.42) rotate(180)"/><line class="f" x2="9.199" transform="translate(144.111 5769.613)"/><line class="f" x2="5.801" transform="translate(144.111 5775.523)"/><line class="f" x2="8.199" transform="translate(144.111 5781.436)"/></g></g><g transform="translate(136 5808.469)"><path class="g" d="M13946.475,22306.434a15,15,0,0,1,13.523-8.5h26a15,15,0,0,1,13.232,7.928,42.007,42.007,0,0,1-52.755.572Z" transform="translate(-13946.475 -22297.934)"/><path class="e" d="M-8.685-1.4q-.4-.77-.9-1.639A20.58,20.58,0,0,1-10.792-1.37q-.682.854-1.568,1.821L-13.875-.823a27.3,27.3,0,0,0,1.793-2.059,18.6,18.6,0,0,0,1.387-2.031q-.615-.981-1.207-1.856T-12.975-8.3l1.44-.924q.375.518.81,1.163t.915,1.373A13.645,13.645,0,0,0-9-9.508h-3.93v-1.779h5.7v1.779a23.581,23.581,0,0,1-.54,2.521A13.74,13.74,0,0,1-8.58-4.8q.375.588.713,1.163T-7.23-2.56Zm5.79-2.213A12.425,12.425,0,0,0,.375-.683L-.93.8a15.455,15.455,0,0,1-1.7-1.394A14.511,14.511,0,0,1-4.02-2.112,15.79,15.79,0,0,1-7.74.9L-9.165-.585A18.724,18.724,0,0,0-6.787-2.133,11.382,11.382,0,0,0-5.07-3.765,13.222,13.222,0,0,1-6.112-6.286,19.05,19.05,0,0,1-6.72-9.144l1.68-.28A20.024,20.024,0,0,0-4.62-7.3a11.166,11.166,0,0,0,.66,1.87A11.6,11.6,0,0,0-3.2-7.323a18.5,18.5,0,0,0,.517-2.213H-6.87v-1.751H-.855v1.751a21.148,21.148,0,0,1-.787,3.243A12.805,12.805,0,0,1-2.895-3.611Zm12.915.462a11.609,11.609,0,0,0,1.545.889,18.558,18.558,0,0,0,1.935.791L12.63.115q-.855-.35-1.575-.7T9.72-1.313a10.612,10.612,0,0,1-1.132-.8,9.086,9.086,0,0,1-.967-.91v1.863a2.854,2.854,0,0,1-.1.812A1.132,1.132,0,0,1,7.2.178a1.352,1.352,0,0,1-.593.294A5.684,5.684,0,0,1,5.7.606L4.635.676,4.1-.963l.975-.056a.913.913,0,0,0,.668-.224,1.036,1.036,0,0,0,.157-.644v-.826q-1.125.672-2.43,1.373T.915-.039L.03-1.58q.855-.364,1.717-.791t1.7-.875q-.21-.182-.495-.42T2.37-4.129q-.3-.224-.585-.42t-.48-.322l.645-.812H.54v-1.5H9.75v-.7H2.025v-1.5H9.75v-.686H1.62V-11.6h9.915v4.412H13.14v1.5H11.58l.765.939q-.48.322-1.1.756T10.02-3.148ZM5.895-3.527V-5.684H3.015q.42.28.87.609t.765.609L3.81-3.457l.818-.462q.4-.224.773-.462ZM8.67-4.3q.51-.322,1.042-.686t.968-.7H7.665A6.574,6.574,0,0,0,8.67-4.3Z" transform="translate(26.521 14.443)"/></g></g></svg>