<svg xmlns="http://www.w3.org/2000/svg" xmlns:xlink="http://www.w3.org/1999/xlink" width="84" height="84" viewBox="0 0 84 84"><defs><style>.a{opacity:0.802;fill:url(#a);}.b{fill:rgba(255,255,255,0);}.c{fill:#fff;}</style><linearGradient id="a" x1="0.5" y1="0.126" x2="0.5" y2="1" gradientUnits="objectBoundingBox"><stop offset="0" stop-color="#ffc6a7"/><stop offset="1" stop-color="#ff574d"/></linearGradient></defs><g transform="translate(-120 -5742)"><path class="a" d="M42,0A42,42,0,1,1,0,42,42,42,0,0,1,42,0Z" transform="translate(120 5742)"/><rect class="b" width="48" height="48" transform="translate(138 5760)"/><g transform="translate(145.537 5765.081)"><path class="c" d="M690.937,689.954a1.167,1.167,0,0,1-.827-.316l-10.526-10.016a1.191,1.191,0,0,1,0-1.7,1.215,1.215,0,0,1,1.7,0l10.526,9.991a1.191,1.191,0,0,1,0,1.7A1.24,1.24,0,0,1,690.937,689.954Z" transform="translate(-656.839 -656.471)"/><path class="c" d="M197.782,25.045a9.654,9.654,0,1,1,9.584-9.663A9.679,9.679,0,0,1,197.782,25.045Zm0-16.478a6.694,6.694,0,0,0-6.338,3.929,6.976,6.976,0,0,0,1.526,7.906,6.338,6.338,0,0,0,7.178,1.317,7.07,7.07,0,0,0,4.564-6.336,6.665,6.665,0,0,0-6.93-6.815Z" transform="translate(-181.928 -5.753)"/><path class="c" d="M30.394,510.545H10.24v-2.463A15.922,15.922,0,0,1,26.117,492.16a1.12,1.12,0,0,1,1.12,1.12,1.527,1.527,0,0,1-1.391,1.281c-7.63.938-12.666,5.716-12.7,13.275v.246H30.3c.737-.009,1.12.748,1.12,1.366a1.12,1.12,0,0,1-1.12,1.12Z" transform="translate(-10.24 -475.141)"/><path class="c" d="M214.093,51.664a1.191,1.191,0,0,1-.826-.34,1.167,1.167,0,0,1,0-1.677L223.306,39.12a1.215,1.215,0,1,1,1.75,1.653L215.065,51.3a1.24,1.24,0,0,1-.972.365Z" transform="translate(-190.254 -17.914)"/></g></g></svg>