<svg xmlns="http://www.w3.org/2000/svg" xmlns:xlink="http://www.w3.org/1999/xlink" width="84" height="84" viewBox="0 0 84 84">
  <defs>
    <linearGradient id="linear-gradient" x1="0.5" y1="-0.069" x2="0.5" y2="1.075" gradientUnits="objectBoundingBox">
      <stop offset="0" stop-color="#20ceff"/>
      <stop offset="1" stop-color="#208bff"/>
    </linearGradient>
  </defs>
  <g id="icon-biz-kzh" transform="translate(-1122 -1182)">
    <g id="组_30024" data-name="组 30024" transform="translate(1002 -4560)">
      <path id="路径_12969" data-name="路径 12969" d="M42,0A42,42,0,1,1,0,42,42,42,0,0,1,42,0Z" transform="translate(120 5742)" fill="url(#linear-gradient)"/>
      <rect id="矩形_12172" data-name="矩形 12172" width="48" height="48" transform="translate(138 5760)" fill="rgba(255,255,255,0)"/>
    </g>
    <g id="组_30041" data-name="组 30041" transform="translate(0 -4560)">
      <path id="路径_12992" data-name="路径 12992" d="M35.145,1h2.812a1.766,1.766,0,0,1,1.766,1.766v25.26a1.766,1.766,0,0,1-1.766,1.766H1.766A1.766,1.766,0,0,1,0,28.026V24.038" transform="translate(1182.293 5796.844) rotate(180)" fill="none" stroke="#fff" stroke-linecap="round" stroke-width="2"/>
      <g id="路径_12995" data-name="路径 12995" transform="translate(1146.43 5772.005)" fill="none" stroke-linecap="round">
        <path d="M2,0H37a2.068,2.068,0,0,1,2,2.13V9.8s-5.479.323-5.479,5.828S39,21.544,39,21.544v7.211a2.068,2.068,0,0,1-2,2.13H2a2.068,2.068,0,0,1-2-2.13V21.544a5.917,5.917,0,0,0,5.02-5.92A5.784,5.784,0,0,0,0,9.8V2.13A2.068,2.068,0,0,1,2,0Z" stroke="none"/>
        <path d="M 2.037933349609375 2.000001907348633 C 2.023185729980469 2.018848419189453 2 2.05967903137207 2 2.129981994628906 L 2 8.27838134765625 C 2.490371704101562 8.46558952331543 3.040271759033203 8.724081039428711 3.591861724853516 9.078943252563477 C 4.582908630371094 9.716533660888672 5.377490997314453 10.53018188476562 5.953529357910156 11.49731254577637 C 6.660869598388672 12.68489265441895 7.019529342651367 14.07344245910645 7.019529342651367 15.62439250946045 C 7.019529342651367 17.17196273803711 6.662498474121094 18.56258392333984 5.958351135253906 19.75762176513672 C 5.386451721191406 20.72823333740234 4.597450256347656 21.55051422119141 3.61328125 22.20161247253418 C 3.053543090820312 22.57192039489746 2.495464324951172 22.84248352050781 2 23.03870391845703 L 2 28.75478363037109 C 2 28.82508659362793 2.023185729980469 28.86591720581055 2.037933349609375 28.88476181030273 L 36.96206665039062 28.88476181030273 C 36.97681427001953 28.86591720581055 37 28.82508659362793 37 28.75478363037109 L 37 23.1472339630127 C 36.46649169921875 22.97551155090332 35.86484527587891 22.73012542724609 35.25975799560547 22.38032150268555 C 34.18141937255859 21.75692367553711 33.31568908691406 20.9359130859375 32.68661880493164 19.94009399414062 C 31.91349029541016 18.71622276306152 31.52148056030273 17.26421356201172 31.52148056030273 15.62439250946045 C 31.52148056030273 13.98111343383789 31.91522026062012 12.53119277954102 32.69176864624023 11.31488227844238 C 33.32511901855469 10.32285308837891 34.19649124145508 9.510951995849609 35.28166961669922 8.9017333984375 C 35.87849426269531 8.566677093505859 36.47176742553711 8.332784652709961 37 8.169729232788086 L 37 2.129981994628906 C 37 2.05967903137207 36.97681427001953 2.018848419189453 36.96206665039062 2.000001907348633 L 2.037933349609375 2.000001907348633 M 2 1.9073486328125e-06 L 37 1.9073486328125e-06 C 38.10456848144531 1.9073486328125e-06 39 0.9536228179931641 39 2.129981994628906 L 39 9.796052932739258 C 39 9.796052932739258 33.52148056030273 10.11900329589844 33.52148056030273 15.62439250946045 C 33.52148056030273 21.1297721862793 39 21.54424285888672 39 21.54424285888672 L 39 28.75478363037109 C 39 29.93114280700684 38.10456848144531 30.88476371765137 37 30.88476371765137 L 2 30.88476371765137 C 0.8954315185546875 30.88476371765137 0 29.93114280700684 0 28.75478363037109 L 0 21.54424285888672 C 0 21.54424285888672 5.01953125 20.8224925994873 5.01953125 15.62439250946045 C 5.01953125 10.42628288269043 0 9.796052932739258 0 9.796052932739258 L 0 2.129981994628906 C 0 0.9536228179931641 0.8954315185546875 1.9073486328125e-06 2 1.9073486328125e-06 Z" stroke="none" fill="#fff"/>
      </g>
      <g id="组_30040" data-name="组 30040" transform="translate(0.111 0.115)">
        <path id="路径_12997" data-name="路径 12997" d="M0,0c3.02,0,6.87,3.773,6.87,8.115A9.168,9.168,0,0,1,0,16.856c-.082.032,6.194,0,6.194,0" transform="translate(1174.035 5788.857) rotate(90)" fill="none" stroke="#fff" stroke-linecap="round" stroke-width="1.5"/>
        <path id="路径_12998" data-name="路径 12998" d="M0,0c3.271,0,6.87,3.773,6.87,8.115A9.168,9.168,0,0,1,0,16.856c-.082.032,6.194,0,6.194,0" transform="translate(1157.166 5784.871) rotate(-90)" fill="none" stroke="#fff" stroke-linecap="round" stroke-width="1.5"/>
        <g id="组_30039" data-name="组 30039" transform="translate(1160.17 5778.691)">
          <text id="债" transform="translate(-1 12)" fill="#fff" font-size="12" font-family="AlibabaPuHuiTi-Medium, Alibaba PuHuiTi" font-weight="500"><tspan x="0" y="0">债</tspan></text>
        </g>
      </g>
    </g>
  </g>
</svg>
