<svg xmlns="http://www.w3.org/2000/svg" xmlns:xlink="http://www.w3.org/1999/xlink" width="84" height="84" viewBox="0 0 84 84">
  <defs>
    <linearGradient id="linear-gradient" x1="0.5" y1="1" x2="0.5" gradientUnits="objectBoundingBox">
      <stop offset="0" stop-color="#4141d7"/>
      <stop offset="1" stop-color="#2073ff"/>
    </linearGradient>
  </defs>
  <g id="icon-biz-xyyz" transform="translate(-120 -5742)">
    <path id="路径_12969" data-name="路径 12969" d="M42,0A42,42,0,1,1,0,42,42,42,0,0,1,42,0Z" transform="translate(120 5742)" opacity="0.795" fill="url(#linear-gradient)"/>
    <rect id="矩形_12170" data-name="矩形 12170" width="48" height="48" transform="translate(138 5760)" fill="rgba(255,255,255,0)"/>
    <g id="组_30029" data-name="组 30029" transform="translate(-0.283 2.046)">
      <path id="路径_12973" data-name="路径 12973" d="M16.471-10.355H32.3A1.766,1.766,0,0,1,34.067-8.59V27.026A1.766,1.766,0,0,1,32.3,28.791H1.766A1.766,1.766,0,0,1,0,27.026V16.446" transform="translate(177.722 5791.42) rotate(180)" fill="none" stroke="#fff" stroke-linecap="round" stroke-width="2"/>
      <g id="椭圆_784" data-name="椭圆 784" transform="translate(164.428 5778.172)" fill="none" stroke="#fff" stroke-width="2">
        <circle cx="9.241" cy="9.241" r="9.241" stroke="none"/>
        <circle cx="9.241" cy="9.241" r="8.241" fill="none"/>
      </g>
      <path id="路径_13028" data-name="路径 13028" d="M0,0H9.648" transform="translate(150.76 5788.77)" fill="none" stroke="#fff" stroke-linecap="round" stroke-width="2"/>
      <line id="直线_367" data-name="直线 367" x2="13.023" transform="translate(150.76 5793.855)" fill="none" stroke="#fff" stroke-linecap="round" stroke-width="2"/>
      <g id="路径_12975" data-name="路径 12975" transform="translate(-1.835 -2)" fill="none" stroke-linecap="round">
        <path d="M169.07,5806.274l6.433-4.02,6.433,4.02v-11.517s-3.913,1.942-6.433,1.942-6.433-1.942-6.433-1.942Z" stroke="none"/>
        <path d="M 179.9364624023438 5802.666015625 L 179.9364624023438 5797.76123046875 C 178.5541229248047 5798.2509765625 176.9043579101562 5798.7001953125 175.5033874511719 5798.7001953125 C 174.1024169921875 5798.7001953125 172.4526672363281 5798.2509765625 171.0703125 5797.76123046875 L 171.0703125 5802.666015625 L 174.4435119628906 5800.55810546875 L 175.5033874511719 5799.89599609375 L 176.5632629394531 5800.55810546875 L 179.9364624023438 5802.666015625 M 181.9364624023438 5806.2744140625 L 175.5033874511719 5802.25439453125 L 169.0703125 5806.2744140625 L 169.0703125 5794.7578125 C 169.0703125 5794.7578125 172.9837799072266 5796.7001953125 175.5033874511719 5796.7001953125 C 178.0229949951172 5796.7001953125 181.9364624023438 5794.7578125 181.9364624023438 5794.7578125 L 181.9364624023438 5806.2744140625 Z" stroke="none" fill="#fff"/>
      </g>
      <g id="组_31474" data-name="组 31474" transform="translate(169.789 5783.446)">
        <line id="直线_363" data-name="直线 363" x2="7.933" transform="translate(0 3.967)" fill="none" stroke="#fff" stroke-linecap="round" stroke-width="2"/>
        <line id="直线_364" data-name="直线 364" y2="7.933" transform="translate(3.967 0)" fill="none" stroke="#fff" stroke-linecap="round" stroke-width="2"/>
      </g>
      <g id="组_31475" data-name="组 31475" transform="translate(48.93 5702.427)">
        <path id="路径_17526" data-name="路径 17526" d="M107.749,81.018c-3.843,0-7.749-5.241-7.749-8.168V66.537h.425a10.9,10.9,0,0,0,7.076-2.159l.248-.179.248.179a10.9,10.9,0,0,0,7.076,2.159h.425V72.85C115.5,75.777,111.593,81.018,107.749,81.018Zm-6.9-13.635V72.85c0,2.544,3.655,7.318,6.9,7.318s6.9-4.774,6.9-7.318V67.383a11.592,11.592,0,0,1-6.9-2.14A11.592,11.592,0,0,1,100.85,67.383Z" fill="#fff"/>
        <path id="路径_17527" data-name="路径 17527" d="M298.693,290.892c-.2.271-.448.577-.745.914l-.348-1.112a11.339,11.339,0,0,0,2.006-3.993l.973.457a11.928,11.928,0,0,1-.863,2.124v6.736h-1.023Zm1.659-2.931h2.85c-.114-.284-.251-.59-.417-.914l.992-.269a7.5,7.5,0,0,1,.448,1.182h2.671v.975h-6.543Zm5.929,4.38v3.654h-1v-.5H302.03v.5h-1.014v-3.654Zm-5.035-2.88h4.817v.924h-4.817Zm0,1.4h4.817v.933h-4.817Zm.785,3.654h3.248V293.3H302.03Z" transform="translate(-194.533 -218.967)" fill="#fff"/>
      </g>
    </g>
  </g>
</svg>
