<svg xmlns="http://www.w3.org/2000/svg" xmlns:xlink="http://www.w3.org/1999/xlink" width="84" height="84" viewBox="0 0 84 84">
  <defs>
    <linearGradient id="linear-gradient" x1="0.5" y1="1" x2="0.5" gradientUnits="objectBoundingBox">
      <stop offset="0" stop-color="#4141d7"/>
      <stop offset="1" stop-color="#2073ff"/>
    </linearGradient>
  </defs>
  <g id="icon-biz-tszl-open" transform="translate(-120 -5742)">
    <path id="路径_12969" data-name="路径 12969" d="M42,0A42,42,0,1,1,0,42,42,42,0,0,1,42,0Z" transform="translate(120 5742)" opacity="0.795" fill="url(#linear-gradient)"/>
    <rect id="矩形_12171" data-name="矩形 12171" width="48" height="48" transform="translate(138 5760)" fill="rgba(255,255,255,0)"/>
    <g id="组_30030" data-name="组 30030" transform="translate(3.045 7.682)">
      <path id="路径_12973" data-name="路径 12973" d="M16.471,0H37.956a1.766,1.766,0,0,1,1.766,1.766v26.26a1.766,1.766,0,0,1-1.766,1.766H1.766A1.766,1.766,0,0,1,0,28.026V16.446" transform="translate(177.722 5790.42) rotate(180)" fill="none" stroke="#fff" stroke-linecap="round" stroke-width="2"/>
      <g id="椭圆_784" data-name="椭圆 784" transform="translate(163.428 5777.172)" fill="none" stroke="#fff" stroke-width="2">
        <circle cx="10.241" cy="10.241" r="10.241" stroke="none"/>
        <circle cx="10.241" cy="10.241" r="9.241" fill="none"/>
      </g>
      <g id="组_30026" data-name="组 30026" transform="translate(169.79 5783.446)">
        <line id="直线_363" data-name="直线 363" x2="7.933" transform="translate(0 3.967)" fill="none" stroke="#fff" stroke-linecap="round" stroke-width="2"/>
        <line id="直线_364" data-name="直线 364" y2="7.933" transform="translate(3.967 0)" fill="none" stroke="#fff" stroke-linecap="round" stroke-width="2"/>
      </g>
      <path id="路径_17561" data-name="路径 17561" d="M149.264,5771.18h15.653l3.933-6.271,3.586,4.324,4.723-7.828" transform="translate(-5.367 6.345)" fill="none" stroke="#fff" stroke-linecap="round" stroke-width="2"/>
      <path id="路径_17860" data-name="路径 17860" d="M214.357,369.393a.553.553,0,0,1-.557-.557v-2.2a.557.557,0,1,1,1.114,0v2.2A.558.558,0,0,1,214.357,369.393Zm5.306,0a.553.553,0,0,1-.557-.557v-2.2a.557.557,0,1,1,1.114,0v2.2A.564.564,0,0,1,219.662,369.393Zm5.3,0a.553.553,0,0,1-.557-.557v-2.2a.557.557,0,1,1,1.114,0v2.2A.558.558,0,0,1,224.96,369.393Zm5.29,0a.553.553,0,0,1-.557-.557v-2.2a.557.557,0,1,1,1.114,0v2.2A.558.558,0,0,1,230.25,369.393Zm-16.418-7.19h16.943v2.007H213.832Z" transform="translate(-70.321 5418.026)" fill="#fff"/>
    </g>
    <path id="路径_17859" data-name="路径 17859" d="M-4.7-9.083q-.167-.268-.424-.642t-.545-.741q-.288-.367-.561-.692a3.621,3.621,0,0,0-.485-.494l1.3-1.115a5.406,5.406,0,0,1,.545.487q.3.3.606.657t.576.706a7.44,7.44,0,0,1,.454.649ZM1-1.981q1.318.028,2.712-.007t2.575-.12L5.877-.372q-.47.028-1.113.049t-1.3.028Q2.8-.287,2.219-.287T1.287-.3Q.2-.344-.614-.372A9.286,9.286,0,0,1-2.1-.534,5.54,5.54,0,0,1-3.387-.958,6.319,6.319,0,0,1-4.7-1.826a8.232,8.232,0,0,1-.636.713q-.333.332-.864.826L-7.424-1.515q.53-.494,1.03-.967t.864-.882V-6.838H-6.863V-8.575h3.09V-2.97a4.959,4.959,0,0,0,.674.4,6.019,6.019,0,0,0,.659.268l-.439-.96a.822.822,0,0,0,.311-.374,1.082,1.082,0,0,0,.053-.3v-8.485H4.726v5.464a1.5,1.5,0,0,1,.114-.12.633.633,0,0,0,.083-.092l.864,1.144q-.5.353-1.023.664t-1.038.579q.53.325,1.06.657t1,.657L4.938-2.165q-.318-.226-.7-.487L3.423-3.2Q3-3.492,2.552-3.774l-.871-.551L2.014-3.1q-.3.113-.7.254t-.841.275L-.417-2.3q-.447.134-.841.233.485.042,1.03.049T1-1.981ZM-.819-10.9v.706H3.059V-10.9ZM3.059-7.982v-.734H-.819v.734ZM-.819-3.831Q-.3-3.958.226-4.113t1.166-.381Q.863-4.819.4-5.08T-.41-5.5L.3-6.429H-.819Zm1.636-2.6q.3.155.757.4t.985.551a8.421,8.421,0,0,0,.788-.452q.394-.254.727-.494Z" transform="translate(153.385 5783.376)" fill="#fff"/>
  </g>
</svg>
