<svg xmlns="http://www.w3.org/2000/svg" xmlns:xlink="http://www.w3.org/1999/xlink" width="84" height="84" viewBox="0 0 84 84">
  <defs>
    <linearGradient id="linear-gradient" x1="0.5" y1="-0.069" x2="0.5" y2="1.075" gradientUnits="objectBoundingBox">
      <stop offset="0" stop-color="#20ceff"/>
      <stop offset="1" stop-color="#208bff"/>
    </linearGradient>
  </defs>
  <g id="icon-biz-sdxgl" transform="translate(-1122 -1182)">
    <g id="组_30024" data-name="组 30024" transform="translate(1002 -4560)">
      <path id="路径_12969" data-name="路径 12969" d="M42,0A42,42,0,1,1,0,42,42,42,0,0,1,42,0Z" transform="translate(120 5742)" fill="url(#linear-gradient)"/>
      <rect id="矩形_12172" data-name="矩形 12172" width="48" height="48" transform="translate(138 5760)" fill="rgba(255,255,255,0)"/>
      <g id="icon-v0009" transform="translate(134 5752)">
        <rect id="Rectangle" width="56" height="56" fill="none"/>
        <path id="路径_13672" data-name="路径 13672" d="M46.9,16.567c.828,1.744.018,18.524-.993,22.182S30.462,53.473,28.578,53.473s-16.332-10.546-17.3-14.724S8.7,18.1,10,16.567,16.312,13.243,28.578,8.3C43.19,14.51,46.075,14.822,46.9,16.567Z" transform="translate(-0.537 1.242)" fill="none" stroke="#fff" stroke-linecap="round" stroke-width="2"/>
        <g id="组_31062" data-name="组 31062" transform="translate(201.882 -128.134)">
          <g id="组_4002" data-name="组 4002" transform="translate(-182.041 146.583)">
            <path id="路径_13619" data-name="路径 13619" d="M19.375,17.709a4.3,4.3,0,0,1-3.249,1.31,4.941,4.941,0,0,1-.567,0,5.979,5.979,0,0,0-3.92,1.7A6.939,6.939,0,0,0,9.625,25.2s-.247.852-.968.852-.886-.852-.886-.852a8.116,8.116,0,0,1,4.61-7.32,4.869,4.869,0,1,1,7-.167ZM13.006,14.5a2.911,2.911,0,0,0,2.641,2.923q.239-.007.478,0A3.055,3.055,0,0,0,18.8,14.5a2.818,2.818,0,0,0-2.863-2.983A2.93,2.93,0,0,0,13.006,14.5Z" transform="translate(-7.771 -9.629)" fill="#fff"/>
            <g id="组_31063" data-name="组 31063" transform="translate(9.317 9.062)">
              <path id="路径_13000" data-name="路径 13000" d="M3.113,0S5.176,2.012,5.646,2.533a2.1,2.1,0,0,1,.5,1.383A2.178,2.178,0,0,1,3.963,6.094a2.231,2.231,0,0,1-1.281-.415C2.18,5.352,0,3.113,0,3.113" transform="translate(0 4.342) rotate(-45)" fill="none" stroke="#fff" stroke-linecap="round" stroke-width="1.5"/>
              <path id="路径_13001" data-name="路径 13001" d="M165.1,5778.258l1.848-1.825" transform="translate(-163.347 -5776.11)" fill="none" stroke="#fff" stroke-linecap="round" stroke-width="1.5"/>
              <path id="路径_13002" data-name="路径 13002" d="M165.1,5775.975l1.74,1.661" transform="translate(-163.347 -5773.828)" fill="none" stroke="#fff" stroke-linecap="round" stroke-width="1.5"/>
            </g>
          </g>
        </g>
        <path id="路径_13673" data-name="路径 13673" d="M0,0H13.406" transform="translate(21.457 38.55)" fill="none" stroke="#fff" stroke-linecap="round" stroke-width="2"/>
        <path id="路径_13674" data-name="路径 13674" d="M0,0H8.512" transform="translate(23.457 43.15)" fill="none" stroke="#fff" stroke-linecap="round" stroke-width="2"/>
      </g>
    </g>
  </g>
</svg>
