<svg xmlns="http://www.w3.org/2000/svg" xmlns:xlink="http://www.w3.org/1999/xlink" width="84" height="84" viewBox="0 0 84 84">
  <defs>
    <linearGradient id="linear-gradient" x1="0.5" y1="1" x2="0.5" gradientUnits="objectBoundingBox">
      <stop offset="0" stop-color="#4141d7"/>
      <stop offset="1" stop-color="#2073ff"/>
    </linearGradient>
  </defs>
  <g id="icon-biz-xysz" transform="translate(-120 -5742)">
    <circle id="椭圆_783" data-name="椭圆 783" cx="42" cy="42" r="42" transform="translate(120 5742)" opacity="0.795" fill="url(#linear-gradient)"/>
    <rect id="矩形_12169" data-name="矩形 12169" width="48" height="48" transform="translate(138 5760)" fill="rgba(255,255,255,0)"/>
    <g id="组_30028" data-name="组 30028" transform="translate(2.588 7.681)">
      <g id="组_30069" data-name="组 30069" transform="translate(-1 -2)">
        <path id="路径_12973" data-name="路径 12973" d="M8,.787V-6.072a3.707,3.707,0,0,1,.844-1.887,3.689,3.689,0,0,1,1.945-1L37.956-9a1.766,1.766,0,0,1,1.766,1.766v35.26a1.766,1.766,0,0,1-1.766,1.766H9.766A1.766,1.766,0,0,1,8,28.026V14.682" transform="translate(183.42 5789.109) rotate(180)" fill="none" stroke="#fff" stroke-linecap="round" stroke-width="2"/>
        <line id="直线_365" data-name="直线 365" x2="17.801" transform="translate(151.111 5778.713)" fill="none" stroke="#fff" stroke-linecap="round" stroke-width="2"/>
        <line id="直线_366" data-name="直线 366" x2="12.801" transform="translate(151.111 5784.589)" fill="none" stroke="#fff" stroke-linecap="round" stroke-width="2"/>
        <line id="直线_367" data-name="直线 367" x2="12.801" transform="translate(151.111 5790.466)" fill="none" stroke="#fff" stroke-linecap="round" stroke-width="2"/>
        <g id="路径_13021" data-name="路径 13021" transform="translate(-18.708 -36.439)" fill="none" stroke-linecap="round">
          <path d="M169.07,5810.37l7.149-4.467,7.149,4.467v-15.611h-14.3Z" stroke="none"/>
          <path d="M 181.3691558837891 5806.76171875 L 181.3691558837891 5796.75830078125 L 176.2197418212891 5796.75830078125 L 171.0703277587891 5796.75830078125 L 171.0703277587891 5806.76171875 L 175.1599273681641 5804.2060546875 L 176.2197418212891 5803.5439453125 L 177.2795562744141 5804.2060546875 L 181.3691558837891 5806.76171875 M 183.3691558837891 5810.36962890625 L 176.2197418212891 5805.90234375 L 169.0703277587891 5810.36962890625 L 169.0703277587891 5794.75830078125 C 169.0703277587891 5794.75830078125 173.4195709228516 5794.75830078125 176.2197418212891 5794.75830078125 C 179.0199127197266 5794.75830078125 183.3691558837891 5794.75830078125 183.3691558837891 5794.75830078125 L 183.3691558837891 5810.36962890625 Z" stroke="none" fill="#fff"/>
        </g>
        <g id="组_30068" data-name="组 30068" transform="translate(-0.445 4.928)">
          <path id="路径_13022" data-name="路径 13022" d="M182.127,5769.146l-13.269,13.269" fill="none" stroke="#fff" stroke-linecap="round" stroke-width="2"/>
          <path id="路径_13023" data-name="路径 13023" d="M168.193,5781.828l1.377,1.42-.635.273s-.909.245-1.1,0,0-1.043,0-1.043Z" transform="translate(-0.152)" fill="#fff"/>
        </g>
      </g>
    </g>
  </g>
</svg>
