<svg xmlns="http://www.w3.org/2000/svg" xmlns:xlink="http://www.w3.org/1999/xlink" width="84" height="84" viewBox="0 0 84 84"><defs><style>.a{fill:url(#a);}.b{fill:rgba(255,255,255,0);}.c,.d{fill:none;stroke:#fff;stroke-width:2px;}.d{stroke-linecap:round;}.e{fill:#fff;}</style><linearGradient id="a" x1="0.5" y1="-0.069" x2="0.5" y2="1.075" gradientUnits="objectBoundingBox"><stop offset="0" stop-color="#20ceff"/><stop offset="1" stop-color="#208bff"/></linearGradient></defs><g transform="translate(-120 -5742)"><path class="a" d="M42,0A42,42,0,1,1,0,42,42,42,0,0,1,42,0Z" transform="translate(120 5742)"/><rect class="b" width="48" height="48" transform="translate(138 5760)"/><g transform="translate(135 5751.553)"><path class="c" d="M8,0A8,8,0,1,1,0,8,8,8,0,0,1,8,0Z" transform="translate(31.643 38)"/><path class="d" d="M34.183,33h7.882" transform="translate(1.643 13)"/><path class="d" d="M34.183,33h7.882" transform="translate(72.766 7.877) rotate(90)"/><path class="e" d="M14300.2,9499.466h-20.556a1.1,1.1,0,0,1-.868-1.032,1.136,1.136,0,0,1,.868-1.054h3.128v-25.211a4.172,4.172,0,0,1,4.168-4.169h14.6a4.172,4.172,0,0,1,4.168,4.168l.035,6.456h8.343a4,4,0,0,1,4.059,4.076v5.89a8.854,8.854,0,0,0-1.625-.5v-5.735a2.088,2.088,0,0,0-2.086-2.086h-8.706v10.581a12.742,12.742,0,0,0-1.77,1.937l.021-20.992h-.021a2.086,2.086,0,0,0-2.082-2.086h-15.134a2.088,2.088,0,0,0-2.086,2.085l-.021,25.581h16.226A16.12,16.12,0,0,0,14300.2,9499.466Zm1.655-6.174h-6.551l.022-1.817h6.551l-.022,1.816Zm-8.655,0h-6.5l.022-1.817h6.5l-.022,1.816Zm21.232-5.4h-6.621l0-1.688h6.621l0,1.688Zm-12.577.2h-6.551l.022-1.828h6.551l-.022,1.827Zm-8.655,0h-6.5l.022-1.828h6.5l-.022,1.827Z" transform="translate(-14273.008 -9453.106)"/><path class="e" d="M12.348-7.633v1.2H3.89v-1.2H7.255v-.449h-2.6V-9.243h2.6v-.435H4.511v-1.187H7.255V-11.9l1.57.066v.963h2.942v1.187H8.825v.435h2.56v1.161H8.825v.449Zm-7.9-3.879q-.211.752-.435,1.432T3.521-8.755v8.6H2V-5.931q-.224.343-.475.673L.315-6.354a10.627,10.627,0,0,0,.732-1.1q.376-.64.732-1.372t.653-1.5a12.986,12.986,0,0,0,.482-1.491Zm5.5,9.09q.554.264,1.082.534l.937.482L11.358.006q-.317-.185-.745-.429T9.729-.918q-.455-.251-.9-.488t-.8-.422a2.691,2.691,0,0,1-.548.548,5.1,5.1,0,0,1-.765.468A10.436,10.436,0,0,1,5.691-.37q-.574.218-1.3.468L3.811-1.38A14.705,14.705,0,0,0,5.625-1.96a3.778,3.778,0,0,0,1.016-.581,1.527,1.527,0,0,0,.468-.653,3.9,3.9,0,0,0,.172-.785q.013-.092.02-.218t.007-.218l1.385.092q0,.132-.007.251t-.02.224q-.026.211-.053.4t-.053.356q.264.132.574.277t.64.317V-4.718H6.265v2.335H4.788V-5.971h6.452v3.549Z" transform="translate(14.598 31.139)"/></g></g></svg>