<svg xmlns="http://www.w3.org/2000/svg" xmlns:xlink="http://www.w3.org/1999/xlink" width="84" height="84" viewBox="0 0 84 84">
  <defs>
    <linearGradient id="linear-gradient" x1="0.5" y1="0.126" x2="0.5" y2="1" gradientUnits="objectBoundingBox">
      <stop offset="0" stop-color="#ffc6a7"/>
      <stop offset="1" stop-color="#ff574d"/>
    </linearGradient>
  </defs>
  <g id="双录-融资行权权限开通" transform="translate(-120 -5742)">
    <path id="路径_12969" data-name="路径 12969" d="M42,0A42,42,0,1,1,0,42,42,42,0,0,1,42,0Z" transform="translate(120 5742)" opacity="0.802" fill="url(#linear-gradient)"/>
    <rect id="矩形_12171" data-name="矩形 12171" width="48" height="48" transform="translate(138 5760)" fill="rgba(255,255,255,0)"/>
    <g id="组_31295" data-name="组 31295" transform="translate(3.975 8.666)">
      <path id="路径_12973" data-name="路径 12973" d="M16.471,0H37.956a1.766,1.766,0,0,1,1.766,1.766v26.26a1.766,1.766,0,0,1-1.766,1.766H1.766A1.766,1.766,0,0,1,0,28.026V16.446" transform="translate(177.722 5790.42) rotate(180)" fill="none" stroke="#fff" stroke-linecap="round" stroke-width="2"/>
      <line id="直线_362" data-name="直线 362" x2="39.146" transform="translate(138.141 5769.399)" fill="none" stroke="#fff" stroke-width="2"/>
      <g id="椭圆_784" data-name="椭圆 784" transform="translate(164.986 5777.334)" fill="none" stroke="#fff" stroke-width="2">
        <circle cx="8.881" cy="8.881" r="8.881" stroke="none"/>
        <circle cx="8.881" cy="8.881" r="7.881" fill="none"/>
      </g>
      <g id="组_30026" data-name="组 30026" transform="translate(170.503 5782.774)">
        <line id="直线_363" data-name="直线 363" x2="6.879" transform="translate(0.001 3.44)" fill="none" stroke="#fff" stroke-linecap="round" stroke-width="2"/>
        <line id="直线_364" data-name="直线 364" y2="6.879" transform="translate(3.44)" fill="none" stroke="#fff" stroke-linecap="round" stroke-width="2"/>
      </g>
      <line id="直线_365" data-name="直线 365" x2="9.801" transform="translate(156.111 5774.684)" fill="none" stroke="#fff" stroke-linecap="round" stroke-width="2"/>
      <line id="直线_366" data-name="直线 366" x2="5.801" transform="translate(156.111 5779.56)" fill="none" stroke="#fff" stroke-linecap="round" stroke-width="2"/>
      <line id="直线_367" data-name="直线 367" x2="3.801" transform="translate(156.111 5784.437)" fill="none" stroke="#fff" stroke-linecap="round" stroke-width="2"/>
      <rect id="矩形_12386" data-name="矩形 12386" width="4" height="4" rx="1" transform="translate(142.025 5763.334)" fill="#fff"/>
      <rect id="矩形_12387" data-name="矩形 12387" width="4" height="4" rx="1" transform="translate(149.025 5763.334)" fill="#fff"/>
      <rect id="矩形_12388" data-name="矩形 12388" width="4" height="4" rx="1" transform="translate(156.025 5763.334)" fill="#fff"/>
      <path id="债" d="M10.272,1.08q-.024-.168-.066-.36T10.1.312q-.216.012-.546.042L8.844.42,8.052.492q-.408.036-.768.072L6.642.63,6.228.672,6.108-.7,7.86-.816V-2.844H6.348V-7.836H7.86V-9.5l1.164.06v1.608h1.608v4.992H9.024V-.912q.2-.024.378-.036l.342-.024q-.108-.348-.2-.642t-.18-.5l1.1-.324q.108.252.24.648t.27.834q.138.438.252.864t.186.726ZM.636-9.12H6.048v1.164H.636ZM5.652-7.572v2.628H1.2V-7.572ZM7.86-4.116V-6.552H7.428v2.436ZM9.024-6.552v2.436h.432V-6.552Zm-4.572.084H2.4v.432H4.452ZM.768-4.572H6.012v4.44A1.41,1.41,0,0,1,5.778.78a1.109,1.109,0,0,1-.75.336l-.492.06L4.164.012,4.5-.048a.678.678,0,0,0,.324-.126.45.45,0,0,0,.108-.354V-3.456H2.88l.54.972-.7.348h.624q.18-.324.336-.678t.252-.618l.936.4q-.192.408-.468.9h.288v1.092H3.948V.792H2.88V-1.044H2.172V-2.136h.372q-.1-.192-.24-.462t-.24-.426l.756-.432H1.944V1.116H.768Z" transform="translate(141.307 5784.061)" fill="#fff"/>
    </g>
    <g id="icon-meun-shuanglu" transform="translate(136 5808.469)">
      <path id="交叉_1" data-name="交叉 1" d="M13946.475,22306.434a15,15,0,0,1,13.523-8.5h26a15,15,0,0,1,13.232,7.928,42.007,42.007,0,0,1-52.755.572Z" transform="translate(-13946.475 -22297.934)" fill="rgba(255,255,255,0.35)"/>
      <path id="路径_17893" data-name="路径 17893" d="M-8.685-1.4q-.4-.77-.9-1.639A20.58,20.58,0,0,1-10.792-1.37q-.682.854-1.568,1.821L-13.875-.823a27.3,27.3,0,0,0,1.793-2.059,18.6,18.6,0,0,0,1.387-2.031q-.615-.981-1.207-1.856T-12.975-8.3l1.44-.924q.375.518.81,1.163t.915,1.373A13.645,13.645,0,0,0-9-9.508h-3.93v-1.779h5.7v1.779a23.581,23.581,0,0,1-.54,2.521A13.74,13.74,0,0,1-8.58-4.8q.375.588.713,1.163T-7.23-2.56Zm5.79-2.213A12.425,12.425,0,0,0,.375-.683L-.93.8a15.455,15.455,0,0,1-1.7-1.394A14.511,14.511,0,0,1-4.02-2.112,15.79,15.79,0,0,1-7.74.9L-9.165-.585A18.724,18.724,0,0,0-6.787-2.133,11.382,11.382,0,0,0-5.07-3.765,13.222,13.222,0,0,1-6.112-6.286,19.05,19.05,0,0,1-6.72-9.144l1.68-.28A20.024,20.024,0,0,0-4.62-7.3a11.166,11.166,0,0,0,.66,1.87A11.6,11.6,0,0,0-3.2-7.323a18.5,18.5,0,0,0,.517-2.213H-6.87v-1.751H-.855v1.751a21.148,21.148,0,0,1-.787,3.243A12.805,12.805,0,0,1-2.895-3.611Zm12.915.462a11.609,11.609,0,0,0,1.545.889,18.558,18.558,0,0,0,1.935.791L12.63.115q-.855-.35-1.575-.7T9.72-1.313a10.612,10.612,0,0,1-1.132-.8,9.086,9.086,0,0,1-.967-.91v1.863a2.854,2.854,0,0,1-.1.812A1.132,1.132,0,0,1,7.2.178a1.352,1.352,0,0,1-.593.294A5.684,5.684,0,0,1,5.7.606L4.635.676,4.1-.963l.975-.056a.913.913,0,0,0,.668-.224,1.036,1.036,0,0,0,.157-.644v-.826q-1.125.672-2.43,1.373T.915-.039L.03-1.58q.855-.364,1.717-.791t1.7-.875q-.21-.182-.495-.42T2.37-4.129q-.3-.224-.585-.42t-.48-.322l.645-.812H.54v-1.5H9.75v-.7H2.025v-1.5H9.75v-.686H1.62V-11.6h9.915v4.412H13.14v1.5H11.58l.765.939q-.48.322-1.1.756T10.02-3.148ZM5.895-3.527V-5.684H3.015q.42.28.87.609t.765.609L3.81-3.457l.818-.462q.4-.224.773-.462ZM8.67-4.3q.51-.322,1.042-.686t.968-.7H7.665A6.574,6.574,0,0,0,8.67-4.3Z" transform="translate(26.521 14.443)" fill="#fff"/>
    </g>
  </g>
</svg>
