<svg xmlns="http://www.w3.org/2000/svg" xmlns:xlink="http://www.w3.org/1999/xlink" width="84" height="84" viewBox="0 0 84 84">
  <defs>
    <linearGradient id="linear-gradient" x1="0.5" y1="0.126" x2="0.5" y2="1" gradientUnits="objectBoundingBox">
      <stop offset="0" stop-color="#ffc6a7"/>
      <stop offset="1" stop-color="#ff574d"/>
    </linearGradient>
  </defs>
  <g id="icon-biz-glgx" transform="translate(-120 -5742)">
    <path id="路径_12969" data-name="路径 12969" d="M42,0A42,42,0,1,1,0,42,42,42,0,0,1,42,0Z" transform="translate(120 5742)" opacity="0.802" fill="url(#linear-gradient)"/>
    <rect id="矩形_12170" data-name="矩形 12170" width="48" height="48" transform="translate(138 5760)" fill="rgba(255,255,255,0)"/>
    <g id="组_30072" data-name="组 30072" transform="translate(1)">
      <g id="组_30071" data-name="组 30071" transform="translate(3.189 8.666)">
        <path id="路径_12973" data-name="路径 12973" d="M15.969,0H37.956a1.766,1.766,0,0,1,1.766,1.766v26.26a1.766,1.766,0,0,1-1.766,1.766H1.766A1.766,1.766,0,0,1,0,28.026v-16.7" transform="translate(177.722 5790.42) rotate(180)" fill="none" stroke="#fff" stroke-linecap="round" stroke-width="2"/>
        <line id="直线_365" data-name="直线 365" x2="4" transform="translate(168.311 5770.252)" fill="none" stroke="#fff" stroke-linecap="round" stroke-width="2"/>
        <line id="直线_366" data-name="直线 366" x2="14.648" transform="translate(157.662 5776.162)" fill="none" stroke="#fff" stroke-linecap="round" stroke-width="2"/>
        <line id="直线_367" data-name="直线 367" x2="10.648" transform="translate(157.662 5782.075)" fill="none" stroke="#fff" stroke-linecap="round" stroke-width="2"/>
        <g id="椭圆_804" data-name="椭圆 804" transform="translate(144.811 5768.974)" fill="none" stroke="#fff" stroke-width="2">
          <circle cx="4" cy="4" r="4" stroke="none"/>
          <circle cx="4" cy="4" r="3" fill="none"/>
        </g>
        <path id="路径_13668" data-name="路径 13668" d="M7,0A4.947,4.947,0,0,1,7,9.895" transform="translate(143.696 5788.091) rotate(-90)" fill="none" stroke="#fff" stroke-linecap="round" stroke-width="2"/>
        <g id="组_31059" data-name="组 31059">
          <path id="路径_13670" data-name="路径 13670" d="M4.683,6.18A3.412,3.412,0,0,0,5.935,3.418,3.188,3.188,0,0,0,2.711.082,3.742,3.742,0,0,0,0,1.179" transform="translate(171.787 5782.688)" fill="none" stroke="#fff" stroke-linecap="round" stroke-width="1.5"/>
          <path id="路径_13671" data-name="路径 13671" d="M4.683,6.18A3.412,3.412,0,0,0,5.935,3.418,3.188,3.188,0,0,0,2.711.082,3.742,3.742,0,0,0,0,1.179" transform="translate(172.534 5793.95) rotate(180)" fill="none" stroke="#fff" stroke-linecap="round" stroke-width="1.5"/>
          <line id="直线_434" data-name="直线 434" x1="4.444" y2="3.986" transform="translate(170.311 5786.144)" fill="none" stroke="#fff" stroke-linecap="round" stroke-width="1.5"/>
        </g>
        <g id="组_31060" data-name="组 31060" transform="translate(157.861 5768.422)">
          <path id="路径_10945" data-name="路径 10945" d="M0,1.87,2.842,4.552,7.607,0" transform="translate(0 -1)" fill="none" stroke="#fff" stroke-linecap="round" stroke-linejoin="round" stroke-width="2"/>
        </g>
      </g>
    </g>
  </g>
</svg>
