<svg xmlns="http://www.w3.org/2000/svg" xmlns:xlink="http://www.w3.org/1999/xlink" width="84" height="84" viewBox="0 0 84 84"><defs><style>.a{opacity:0.795;fill:url(#a);}.b{fill:rgba(255,255,255,0);}.c,.d,.g{fill:none;}.c,.d{stroke:#fff;stroke-width:2px;}.c{stroke-linecap:round;}.e{fill:#fff;}.f{stroke:none;}</style><linearGradient id="a" x1="0.5" y1="1" x2="0.5" gradientUnits="objectBoundingBox"><stop offset="0" stop-color="#4141d7"/><stop offset="1" stop-color="#2073ff"/></linearGradient></defs><g transform="translate(-120 -5742)"><circle class="a" cx="42" cy="42" r="42" transform="translate(120 5742)"/><rect class="b" width="48" height="48" transform="translate(138 5760)"/><g transform="translate(1.588 7.681)"><path class="c" d="M16.471,0H37.956a1.766,1.766,0,0,1,1.766,1.766v26.26a1.766,1.766,0,0,1-1.766,1.766H1.766A1.766,1.766,0,0,1,0,28.026V16.446" transform="translate(177.722 5790.42) rotate(180)"/><line class="d" x2="39.146" transform="translate(138.141 5769.399)"/><g class="d" transform="translate(164.986 5777.334)"><circle class="f" cx="8.881" cy="8.881" r="8.881"/><circle class="g" cx="8.881" cy="8.881" r="7.881"/></g><g transform="translate(170.503 5782.774)"><line class="c" x2="6.879" transform="translate(0.001 3.44)"/><line class="c" y2="6.879" transform="translate(3.44 0)"/></g><line class="c" x2="9.801" transform="translate(156.111 5774.684)"/><line class="c" x2="5.801" transform="translate(156.111 5779.56)"/><line class="c" x2="3.801" transform="translate(156.111 5784.437)"/><g class="d" transform="translate(142.91 5772.318)"><circle class="f" cx="4" cy="4" r="4"/><circle class="g" cx="4" cy="4" r="3"/></g><path class="c" d="M7,0A4.947,4.947,0,0,1,7,9.895" transform="translate(141.963 5791.436) rotate(-90)"/><rect class="e" width="3" height="3" rx="0.5" transform="translate(141.746 5763.479)"/><rect class="e" width="3" height="3" rx="0.5" transform="translate(147.746 5763.479)"/><rect class="e" width="3" height="3" rx="0.5" transform="translate(153.746 5763.479)"/></g></g></svg>