<svg xmlns="http://www.w3.org/2000/svg" xmlns:xlink="http://www.w3.org/1999/xlink" width="84" height="84" viewBox="0 0 84 84"><defs><style>.a{opacity:0.795;fill:url(#a);}.b{fill:rgba(255,255,255,0);}.c,.d,.g{fill:none;}.c,.d{stroke:#fff;stroke-width:2px;}.c{stroke-linecap:round;}.e{fill:#fff;}.f{stroke:none;}</style><linearGradient id="a" x1="0.5" y1="1" x2="0.5" gradientUnits="objectBoundingBox"><stop offset="0" stop-color="#4141d7"/><stop offset="1" stop-color="#2073ff"/></linearGradient></defs><g transform="translate(-120 -5742)"><path class="a" d="M42,0A42,42,0,1,1,0,42,42,42,0,0,1,42,0Z" transform="translate(120 5742)"/><rect class="b" width="48" height="48" transform="translate(138 5760)"/><g transform="translate(1)"><g transform="translate(3.189 8.666)"><path class="c" d="M17.969,0H37.956a1.766,1.766,0,0,1,1.766,1.766v26.26a1.766,1.766,0,0,1-1.766,1.766H1.766A1.766,1.766,0,0,1,0,28.026v-12.7" transform="translate(177.722 5790.42) rotate(180)"/><line class="c" x2="5.648" transform="translate(157.662 5776.162)"/><line class="c" x2="2.648" transform="translate(157.662 5782.076)"/><g class="d" transform="translate(144.811 5768.974)"><circle class="f" cx="4" cy="4" r="4"/><circle class="g" cx="4" cy="4" r="3"/></g><path class="c" d="M7,0A4.947,4.947,0,0,1,7,9.895" transform="translate(143.696 5788.091) rotate(-90)"/><path class="e" d="M6.052,4.539,3.026,1.513s-.874-.433-1.421.114-.092,1.4-.092,1.4L4.539,6.052ZM7.565,0a.742.742,0,0,1,.756-.746A.744.744,0,0,1,9.078,0V3.026a.713.713,0,0,1-.757.657.711.711,0,0,1-.756-.657Zm6.052,7.565h3.026s.868.044.868.754-.868.759-.868.759H13.617a.757.757,0,1,1,0-1.513ZM15.13,3.026a1.161,1.161,0,0,0,0-1.513,1.161,1.161,0,0,0-1.513,0L10.591,4.539,12.1,6.052ZM0,7.565H3.026s.64.216.64.754-.64.759-.64.759H0s-.715-.131-.715-.759S0,7.565,0,7.565Zm7.565,6.052s.059-.759.756-.759.757.759.757.759v3.026a.757.757,0,1,1-1.513,0Zm-6.052,0s-.558.955,0,1.513,1.513,0,1.513,0L6.052,12.1,4.539,10.591,1.513,13.617Zm16.364,1.233L8.84,5.814a1.138,1.138,0,0,0-1.606,0l-1.42,1.42a1.138,1.138,0,0,0,0,1.606l9.037,9.037a1.138,1.138,0,0,0,1.606,0l1.42-1.42a1.138,1.138,0,0,0,0-1.606Zm-6.53-1.989L6.808,8.319,8.321,6.806l4.539,4.539-1.513,1.513Z" transform="translate(162.688 5777.211)"/><path class="e" d="M-4.86-1.175l2.641-3.186v-.058H-4.666V-5.4H-.714v.961L-3.4-1.224v.058H-.529v1.01H-4.86Z" transform="translate(158.826 5772.611)"/><path class="e" d="M-4.86.434l3.647-4.4v-.08H-4.592V-5.4H.866v1.328L-2.849.367v.08H1.121V1.842H-4.86Z" transform="translate(164.306 5769.055)"/></g></g></g></svg>