<svg xmlns="http://www.w3.org/2000/svg" xmlns:xlink="http://www.w3.org/1999/xlink" width="84" height="84" viewBox="0 0 84 84">
  <defs>
    <linearGradient id="linear-gradient" x1="0.5" y1="0.126" x2="0.5" y2="1" gradientUnits="objectBoundingBox">
      <stop offset="0" stop-color="#ffc6a7"/>
      <stop offset="1" stop-color="#ff574d"/>
    </linearGradient>
  </defs>
  <g id="icon-biz-zytz" transform="translate(-120 -5742)">
    <path id="路径_12969" data-name="路径 12969" d="M42,0A42,42,0,1,1,0,42,42,42,0,0,1,42,0Z" transform="translate(120 5742)" opacity="0.802" fill="url(#linear-gradient)"/>
    <rect id="矩形_12170" data-name="矩形 12170" width="48" height="48" transform="translate(138 5760)" fill="rgba(255,255,255,0)"/>
    <g id="组_30072" data-name="组 30072" transform="translate(1)">
      <g id="组_30029" data-name="组 30029" transform="translate(-6.283 0.047)">
        <g id="椭圆_784" data-name="椭圆 784" transform="translate(162.723 5774.467)" fill="none" stroke="#fff" stroke-width="2">
          <circle cx="10.946" cy="10.946" r="10.946" stroke="none"/>
          <circle cx="10.946" cy="10.946" r="9.946" fill="none"/>
        </g>
        <g id="路径_13026" data-name="路径 13026" transform="translate(186.056 5804.42) rotate(159)" fill="none" stroke-linecap="round">
          <path d="M0,0,4.182,3.626,8.365,0l.348,12.853s-2,.03-3.87.208A19.412,19.412,0,0,0,.714,14.084Z" stroke="none"/>
          <path d="M 6.479960918426514 4.280621528625488 L 5.492552757263184 5.136675834655762 L 4.182432651519775 6.272515773773193 L 2.872313022613525 5.136675834655762 L 2.234979629516602 4.584127426147461 L 2.582174301147461 11.43405151367188 C 3.245569705963135 11.27379703521729 3.966590881347656 11.13397693634033 4.653782844543457 11.06881618499756 C 5.341679573059082 11.00358963012695 6.041075229644775 10.95750999450684 6.659802436828613 10.92516899108887 L 6.479960918426514 4.280621528625488 M 3.24249267578125e-05 -0.000484466552734375 L 4.182432651519775 3.62552547454834 L 8.364822387695312 -0.000484466552734375 L 8.712693214416504 12.8521556854248 C 8.712693214416504 12.8521556854248 6.712943077087402 12.88253593444824 4.842573165893555 13.05988597869873 C 2.972192764282227 13.23723602294922 0.713932991027832 14.08429622650146 0.713932991027832 14.08429622650146 L 3.24249267578125e-05 -0.000484466552734375 Z" stroke="none" fill="#fff"/>
        </g>
        <g id="路径_13027" data-name="路径 13027" transform="translate(166.463 5791.246) rotate(22)" fill="none" stroke-linecap="round">
          <path d="M0,14.11l4.183-3.632L8.365,14.11,8.713,1.235S6.942,1.107,5.071.93A27.6,27.6,0,0,1,.714,0Z" stroke="none"/>
          <path d="M 6.480148315429688 9.823830604553223 L 6.662247180938721 3.079415798187256 C 6.12199592590332 3.034122228622437 5.509162902832031 2.980391025543213 4.881924152374268 2.920803070068359 C 4.140922069549561 2.850408315658569 3.328048706054688 2.703283309936523 2.587605476379395 2.542726278305054 L 2.234703540802002 9.520028114318848 L 2.871114253997803 8.96733283996582 L 4.182514190673828 7.828433036804199 L 5.493924140930176 8.96733283996582 L 6.480148315429688 9.823830604553223 M 8.365154266357422 14.10983276367188 L 4.182514190673828 10.47737312316895 L 4.290924152883235e-06 14.10970306396484 L 0.71364426612854 0.0001731662050588056 C 0.71364426612854 0.0001731662050588056 3.200604200363159 0.7520731687545776 5.071064472198486 0.92976313829422 C 6.941534519195557 1.107463121414185 8.712784767150879 1.2346031665802 8.712784767150879 1.2346031665802 L 8.365154266357422 14.10983276367188 Z" stroke="none" fill="#fff"/>
        </g>
        <g id="组_30073" data-name="组 30073" transform="translate(4.74 -16.082)">
          <line id="直线_371" data-name="直线 371" x2="3.077" y2="2.532" transform="translate(165.053 5802.3)" fill="none" stroke="#fff" stroke-linecap="round" stroke-width="2"/>
          <line id="直线_372" data-name="直线 372" x1="6.676" y2="6.676" transform="translate(168.13 5798.158)" fill="none" stroke="#fff" stroke-linecap="round" stroke-width="2"/>
        </g>
      </g>
      <g id="组_30071" data-name="组 30071" transform="translate(3.189 8.666)">
        <path id="路径_12973" data-name="路径 12973" d="M28.471,0h9.485a1.766,1.766,0,0,1,1.766,1.766v26.26a1.766,1.766,0,0,1-1.766,1.766H1.766A1.766,1.766,0,0,1,0,28.026V3.446" transform="translate(177.722 5790.42) rotate(180)" fill="none" stroke="#fff" stroke-linecap="round" stroke-width="2"/>
        <line id="直线_365" data-name="直线 365" x2="9.199" transform="translate(144.111 5769.613)" fill="none" stroke="#fff" stroke-linecap="round" stroke-width="2"/>
        <line id="直线_366" data-name="直线 366" x2="5.801" transform="translate(144.111 5775.523)" fill="none" stroke="#fff" stroke-linecap="round" stroke-width="2"/>
        <line id="直线_367" data-name="直线 367" x2="8.199" transform="translate(144.111 5781.436)" fill="none" stroke="#fff" stroke-linecap="round" stroke-width="2"/>
      </g>
    </g>
  </g>
</svg>
