<svg xmlns="http://www.w3.org/2000/svg" xmlns:xlink="http://www.w3.org/1999/xlink" width="84" height="84" viewBox="0 0 84 84"><defs><style>.a{fill:url(#a);}.b{fill:rgba(255,255,255,0);}.c,.d,.g{fill:none;}.c,.d{stroke:#fff;stroke-width:2px;}.c{stroke-linecap:round;}.e{fill:#fff;}.f{stroke:none;}</style><linearGradient id="a" x1="0.5" y1="-0.069" x2="0.5" y2="1.075" gradientUnits="objectBoundingBox"><stop offset="0" stop-color="#20ceff"/><stop offset="1" stop-color="#208bff"/></linearGradient></defs><g transform="translate(-120 -5742)"><circle class="a" cx="42" cy="42" r="42" transform="translate(120 5742)"/><rect class="b" width="48" height="48" transform="translate(138 5760)"/><g transform="translate(1.588 7.681)"><path class="c" d="M16.471,0H37.956a1.766,1.766,0,0,1,1.766,1.766v26.26a1.766,1.766,0,0,1-1.766,1.766H1.766A1.766,1.766,0,0,1,0,28.026V16.446" transform="translate(177.722 5790.42) rotate(180)"/><line class="d" x2="39.146" transform="translate(138.141 5769.399)"/><g class="d" transform="translate(164.986 5777.334)"><circle class="f" cx="8.881" cy="8.881" r="8.881"/><circle class="g" cx="8.881" cy="8.881" r="7.881"/></g><g transform="translate(170.503 5782.774)"><line class="c" x2="6.879" transform="translate(0.001 3.44)"/><line class="c" y2="6.879" transform="translate(3.44 0)"/></g><rect class="e" width="3" height="3" rx="0.5" transform="translate(142.714 5763.479)"/><rect class="e" width="3" height="3" rx="0.5" transform="translate(148.714 5763.479)"/><rect class="e" width="3" height="3" rx="0.5" transform="translate(154.714 5763.479)"/><path class="e" d="M.77-6.94h2.5L5.626.328h.065V-6.94H7.3V3.23H5.043L2.453-4.507H2.389V3.23H.77Zm10.7,10.316a3.6,3.6,0,0,1-1.214-.19,1.934,1.934,0,0,1-.9-.659,3.363,3.363,0,0,1-.556-1.26A8.548,8.548,0,0,1,8.615-.727,8.548,8.548,0,0,1,8.809-2.72a3.363,3.363,0,0,1,.556-1.26,1.934,1.934,0,0,1,.9-.659,3.6,3.6,0,0,1,1.214-.19,3.554,3.554,0,0,1,1.209.19,1.938,1.938,0,0,1,.89.659,3.363,3.363,0,0,1,.556,1.26,8.548,8.548,0,0,1,.194,1.993,8.548,8.548,0,0,1-.194,1.993,3.363,3.363,0,0,1-.556,1.26,1.938,1.938,0,0,1-.89.659A3.554,3.554,0,0,1,11.475,3.376Zm0-1.612a1.371,1.371,0,0,0,.6-.117.86.86,0,0,0,.388-.4,2.35,2.35,0,0,0,.205-.769,10.13,10.13,0,0,0,.059-1.2,9.3,9.3,0,0,0-.065-1.2,2.521,2.521,0,0,0-.21-.777.9.9,0,0,0-.383-.418,1.268,1.268,0,0,0-.593-.125,1.3,1.3,0,0,0-.6.125.9.9,0,0,0-.388.418,2.434,2.434,0,0,0-.205.777,10.13,10.13,0,0,0-.059,1.2,9.294,9.294,0,0,0,.065,1.2,2.431,2.431,0,0,0,.21.769.867.867,0,0,0,.383.4A1.335,1.335,0,0,0,11.475,1.764Zm4.683,1.553a2.3,2.3,0,0,1-.5-.044.45.45,0,0,1-.286-.19.931.931,0,0,1-.129-.4,5.5,5.5,0,0,1-.032-.674,5.688,5.688,0,0,1,.032-.681.886.886,0,0,1,.129-.4.46.46,0,0,1,.286-.183,2.3,2.3,0,0,1,.5-.044,2.234,2.234,0,0,1,.491.044.483.483,0,0,1,.291.183.842.842,0,0,1,.135.4,5.688,5.688,0,0,1,.032.681,5.5,5.5,0,0,1-.032.674.884.884,0,0,1-.135.4.472.472,0,0,1-.291.19A2.234,2.234,0,0,1,16.158,3.318Z" transform="translate(140.706 5781.181) scale(1 0.866)"/><rect class="e" width="4" height="6" rx="1" transform="translate(158.412 5775.318)"/><rect class="e" width="4" height="6" rx="1" transform="translate(163.412 5775.318)"/></g></g></svg>