<svg xmlns="http://www.w3.org/2000/svg" xmlns:xlink="http://www.w3.org/1999/xlink" width="84" height="84" viewBox="0 0 84 84"><defs><style>.a{opacity:0.795;fill:url(#a);}.b{fill:rgba(255,255,255,0);}.c,.e,.f,.i{fill:none;}.c,.d,.e,.f{stroke:#fff;}.c,.f{stroke-linecap:round;}.c{stroke-width:2px;}.d,.g{fill:#fff;}.d{stroke-width:0.5px;}.e,.f{stroke-width:1.5px;}.h{stroke:none;}</style><linearGradient id="a" x1="0.5" y1="1" x2="0.5" gradientUnits="objectBoundingBox"><stop offset="0" stop-color="#4141d7"/><stop offset="1" stop-color="#2073ff"/></linearGradient></defs><g transform="translate(-120 -5742)"><circle class="a" cx="42" cy="42" r="42" transform="translate(120 5742)"/><rect class="b" width="48" height="48" transform="translate(138 5760)"/><g transform="translate(-0.412 9.582)"><path class="c" d="M13.33-2H29.956A1.766,1.766,0,0,1,31.722-.234v32.26a1.766,1.766,0,0,1-1.766,1.766H1.766A1.766,1.766,0,0,1,0,32.026V14.787" transform="translate(177.722 5790.42) rotate(180)"/><path class="c" d="M0,0H8.922" transform="translate(161.913 5767.012) rotate(90)"/><g transform="translate(-0.753 -4.689)"><path class="d" d="M138.7,146.148c-3.019,0-4.6,1.193-4.6,2.372v6.335c0,1.178,1.579,2.372,4.6,2.372,3,0,4.571-1.177,4.6-2.348h0v-6.361c0-1.178-1.578-2.371-4.6-2.371Zm0,1.249c2.232,0,3.382.788,3.382,1.123s-1.151,1.124-3.382,1.124-3.381-.789-3.381-1.124,1.151-1.124,3.381-1.124Zm0,8.583c-2.232,0-3.381-.788-3.381-1.124v-1.513a8.322,8.322,0,0,0,6.764,0v1.513c0,.335-1.152,1.123-3.383,1.123Zm0-3.169c-2.232,0-3.381-.788-3.381-1.124v-1.513a8.313,8.313,0,0,0,6.764,0v1.513c0,.335-1.152,1.123-3.383,1.123Z" transform="translate(38.979 5641.742)"/><path class="d" d="M137.672,144.359v.61h1.039V142.66c0-1.884-3-2.9-5.821-2.9s-5.823,1.017-5.823,2.9V151.2c0,1.884,2.261,2.9,5.083,2.9v-1.082c-2.964,0-4.045-1.058-4.045-1.816v-2.567a6.422,6.422,0,0,0,4.045,1.2v-1.085c-2.964,0-4.045-1.058-4.045-1.816V144.36a11.112,11.112,0,0,0,4.164.971c.041.005.331.008.621,0a11.3,11.3,0,0,0,4.782-.971Zm-4.784-3.516c2.963,0,4.784,1.058,4.784,1.815s-1.82,1.816-4.784,1.816-4.783-1.058-4.783-1.816,1.82-1.816,4.782-1.816Z" transform="translate(41.729 5643.912)"/></g><g transform="translate(150.564 5765.611)"><g class="e" transform="translate(0.807 0)"><ellipse class="h" cx="3.408" cy="3.407" rx="3.408" ry="3.407"/><ellipse class="i" cx="3.408" cy="3.407" rx="2.658" ry="2.657"/></g><path class="f" d="M0,0A4.214,4.214,0,0,1,4.214,4.215,4.214,4.214,0,0,1,0,8.429" transform="translate(0 10.322) rotate(-90)"/></g><g transform="translate(164.911 5765.611)"><g class="e" transform="translate(0.807 0)"><ellipse class="h" cx="3.408" cy="3.407" rx="3.408" ry="3.407"/><ellipse class="i" cx="3.408" cy="3.407" rx="2.658" ry="2.657"/></g><path class="f" d="M0,0A4.214,4.214,0,0,1,4.214,4.215,4.214,4.214,0,0,1,0,8.429" transform="translate(0 10.322) rotate(-90)"/></g><g transform="translate(156.543 5763.779) rotate(-53)"><path class="f" d="M7,7A7,7,0,0,0,0,0" transform="translate(0 0)"/><path class="g" d="M2.459.43a.5.5,0,0,1,.753,0L4.945,2.411a.5.5,0,0,1-.376.829H1.1a.5.5,0,0,1-.376-.829Z" transform="translate(9.83 10.126) rotate(180)"/></g><line class="c" x2="13.197" transform="translate(151.715 5781.221)"/><line class="c" x2="11.197" transform="translate(151.715 5786.633)"/></g></g></svg>