<svg xmlns="http://www.w3.org/2000/svg" xmlns:xlink="http://www.w3.org/1999/xlink" width="84" height="84" viewBox="0 0 84 84"><defs><style>.a{fill:url(#a);}.b{fill:rgba(255,255,255,0);}.c,.d,.g{fill:none;}.c,.d{stroke:#fff;stroke-width:2px;}.c{stroke-linecap:round;}.e{fill:#fff;}.f{stroke:none;}</style><linearGradient id="a" x1="0.5" y1="-0.069" x2="0.5" y2="1.075" gradientUnits="objectBoundingBox"><stop offset="0" stop-color="#20ceff"/><stop offset="1" stop-color="#208bff"/></linearGradient></defs><g transform="translate(-120 -5742)"><path class="a" d="M42,0A42,42,0,1,1,0,42,42,42,0,0,1,42,0Z" transform="translate(120 5742)"/><rect class="b" width="48" height="48" transform="translate(138 5760)"/><g transform="translate(-0.283 2.046)"><path class="c" d="M16.471-10.355H32.3A1.766,1.766,0,0,1,34.067-8.59V27.026A1.766,1.766,0,0,1,32.3,28.791H1.766A1.766,1.766,0,0,1,0,27.026V7.6" transform="translate(177.722 5791.42) rotate(180)"/><g class="d" transform="translate(165.428 5786.172)"><circle class="f" cx="9.241" cy="9.241" r="9.241"/><circle class="g" cx="9.241" cy="9.241" r="8.241"/></g><path class="c" d="M0,0H9.648" transform="translate(150.76 5789.77)"/><line class="c" x2="13.023" transform="translate(150.76 5794.855)"/><g transform="translate(170.702 5791.446)"><line class="c" x2="7.933" transform="translate(0 3.967)"/><line class="c" y2="7.933" transform="translate(3.967 0)"/></g><g transform="translate(48.93 5702.427)"><path class="e" d="M108.644,84.511c-4.287,0-8.644-6.329-8.644-9.865V67.023h.474a11.55,11.55,0,0,0,7.893-2.607l.277-.216.277.216a11.55,11.55,0,0,0,7.893,2.607h.474v7.623C117.288,78.182,112.931,84.511,108.644,84.511Zm-7.085-15.887v6.023c0,3.072,3.467,8.335,7.085,8.335s7.079-5.262,7.079-8.335V68.623a10.405,10.405,0,0,1-7.079-2.584A10.424,10.424,0,0,1,101.559,68.623Z" transform="translate(3.714)"/><path class="e" d="M298.773,291.2c-.214.291-.481.619-.8.981l-.373-1.194a12.173,12.173,0,0,0,2.154-4.286l1.044.49a12.808,12.808,0,0,1-.927,2.28V296.7h-1.1Zm1.781-3.146h3.059c-.122-.3-.27-.633-.448-.981l1.065-.289a8.052,8.052,0,0,1,.481,1.269h2.867V289.1h-7.024Zm6.365,4.7v3.923h-1.077v-.533h-3.486v.533h-1.089v-3.923Zm-5.405-3.092h5.171v.992h-5.171Zm0,1.5h5.171v1h-5.171Zm.842,3.923h3.486v-1.3h-3.486Z" transform="translate(-190.273 -217.605)"/></g></g></g></svg>