<svg xmlns="http://www.w3.org/2000/svg" xmlns:xlink="http://www.w3.org/1999/xlink" width="84" height="84" viewBox="0 0 84 84"><defs><style>.a{opacity:0.802;fill:url(#a);}.b{fill:rgba(255,255,255,0);}.c,.e{fill:none;stroke:#fff;stroke-linecap:round;stroke-linejoin:round;stroke-miterlimit:10;}.c{stroke-width:2px;}.d{fill:#fff;}.e{stroke-width:1.5px;}</style><linearGradient id="a" x1="0.5" y1="0.126" x2="0.5" y2="1" gradientUnits="objectBoundingBox"><stop offset="0" stop-color="#ffc6a7"/><stop offset="1" stop-color="#ff574d"/></linearGradient></defs><g transform="translate(-120 -5742)"><circle class="a" cx="42" cy="42" r="42" transform="translate(120 5742)"/><rect class="b" width="48" height="48" transform="translate(138 5760)"/><g transform="translate(138.969 5765.703)"><g transform="translate(1.811 5.209)"><path class="c" d="M20.233,6H4.805A2.813,2.813,0,0,0,2,8.805V31.246a2.813,2.813,0,0,0,2.805,2.805H38.467a2.813,2.813,0,0,0,2.805-2.805V21.428" transform="translate(-1.779 -4.841)"/><line class="c" x2="4" transform="translate(17.176 18.211)"/><line class="c" x2="4" transform="translate(17.176 21.211)"/><line class="c" x2="2.545" transform="translate(26.176 21.211)"/><line class="c" x2="0.721" transform="translate(33 21.211)"/><line class="c" x2="17.5" transform="translate(1 7.211)"/><g transform="translate(9.213 11.842)"><path class="d" d="M7.621-3.6H9.745v1.4H6.938V-.946H9.745v1.4H6.938V3.6H4.408V.458H1.6v-1.4H4.408V-2.2H1.6V-3.6H3.743L.989-8.389.512-9.219H3.392l2.271,4.58h.129l2.345-4.58h2.807Z" transform="translate(-5.737 8.801)"/></g><g transform="translate(19.271 -4.949)"><g transform="translate(2 2)"><path class="e" d="M6.09,0A6.09,6.09,0,1,1,0,6.09V4.263" transform="translate(-0.097 10.618) rotate(-45)"/><path class="e" d="M4.2,2.08,2.121,0,0,2.121" transform="translate(1.418 15.133) rotate(-45)"/><path class="e" d="M0,0A9.5,9.5,0,0,1,9.467,9.467,9.494,9.494,0,0,1,0,18.934" transform="translate(1.548 3.933) rotate(-45)"/></g></g></g></g></g></svg>