<svg xmlns="http://www.w3.org/2000/svg" xmlns:xlink="http://www.w3.org/1999/xlink" width="84" height="84" viewBox="0 0 84 84"><defs><style>.a{opacity:0.802;fill:url(#a);}.b{fill:rgba(255,255,255,0);}.c,.d{fill:none;stroke:#fff;stroke-linecap:round;stroke-width:2px;}.c{stroke-linejoin:round;stroke-miterlimit:10;}.e{fill:#fff;}</style><linearGradient id="a" x1="0.5" y1="0.126" x2="0.5" y2="1" gradientUnits="objectBoundingBox"><stop offset="0" stop-color="#ffc6a7"/><stop offset="1" stop-color="#ff574d"/></linearGradient></defs><g transform="translate(-120 -5742)"><path class="a" d="M42,0A42,42,0,1,1,0,42,42,42,0,0,1,42,0Z" transform="translate(120 5742)"/><rect class="b" width="48" height="48" transform="translate(138 5760)"/><g transform="translate(1.045 8.682)"><g transform="translate(142.955 5760.318)"><g transform="translate(0 0)"><g transform="translate(0)"><g transform="translate(0)"><path class="c" d="M18.067,30.588H1V8.689H38V15" transform="translate(-0.996 -0.551)"/><rect class="c" width="37" height="10" transform="translate(0)"/><line class="c" x2="2" transform="translate(4 4)"/><path class="d" d="M1.8-.008h0" transform="translate(31.837 4.239)"/><path class="d" d="M1.8-.008h0" transform="translate(28.664 4.239)"/><path class="d" d="M1.8-.008h0" transform="translate(25.49 4.239)"/><line class="c" x2="2" transform="translate(10 4)"/><line class="c" x2="2" transform="translate(16 4)"/><path class="e" d="M.693-6.212H2.921a5.479,5.479,0,0,1,1.2.109,1.878,1.878,0,0,1,.757.333,1.2,1.2,0,0,1,.4.557,2.409,2.409,0,0,1,.114.781,1.617,1.617,0,0,1-.209.857,1.217,1.217,0,0,1-.752.5v.038A1.424,1.424,0,0,1,5.586-1.509a2.634,2.634,0,0,1-.114.8,1.3,1.3,0,0,1-.4.6A1.9,1.9,0,0,1,4.32.267,4.7,4.7,0,0,1,3.121.4H.693ZM2.626-3.489a4.7,4.7,0,0,0,.6-.033,1.234,1.234,0,0,0,.414-.119.539.539,0,0,0,.238-.238.9.9,0,0,0,.076-.4.923.923,0,0,0-.076-.409.545.545,0,0,0-.233-.238,1.076,1.076,0,0,0-.414-.109q-.257-.024-.609-.024H2.14v1.571ZM2.806-.766A4.361,4.361,0,0,0,3.439-.8a1.124,1.124,0,0,0,.4-.129.49.49,0,0,0,.214-.252A1.191,1.191,0,0,0,4.12-1.6a1.1,1.1,0,0,0-.062-.39.546.546,0,0,0-.209-.262,1.021,1.021,0,0,0-.4-.143,3.974,3.974,0,0,0-.638-.043H2.14V-.766ZM8.975-4.831a4.618,4.618,0,0,1,1.09.109,1.907,1.907,0,0,1,.714.319,1.182,1.182,0,0,1,.39.519,2,2,0,0,1,.119.719V.4H10.051L9.918-.2a1.286,1.286,0,0,1-.581.49A2.4,2.4,0,0,1,8.28.49,1.961,1.961,0,0,1,6.967.1,1.481,1.481,0,0,1,6.519-1.08a1.4,1.4,0,0,1,.538-1.257A2.829,2.829,0,0,1,8.633-2.7H9.908v-.133a1.543,1.543,0,0,0-.043-.39A.487.487,0,0,0,9.7-3.484a.81.81,0,0,0-.333-.148,2.581,2.581,0,0,0-.552-.048q-.276,0-.552.024t-.543.071V-4.755q.3-.038.638-.057T8.975-4.831ZM8.633-.566a1.8,1.8,0,0,0,.809-.167.991.991,0,0,0,.466-.433v-.6H8.842a1.616,1.616,0,0,0-.738.124.535.535,0,0,0-.224.514.5.5,0,0,0,.176.433A1,1,0,0,0,8.633-.566ZM15.7-4.841a2.566,2.566,0,0,1,.8.109,1.221,1.221,0,0,1,.528.328,1.272,1.272,0,0,1,.286.538,2.9,2.9,0,0,1,.086.747V.4H16.02V-2.756a2.233,2.233,0,0,0-.038-.443.7.7,0,0,0-.129-.3.513.513,0,0,0-.252-.167,1.39,1.39,0,0,0-.419-.052,1.448,1.448,0,0,0-.7.152.861.861,0,0,0-.39.552V.4h-1.38V-4.746h1.38v.619a1.268,1.268,0,0,1,.628-.538A2.516,2.516,0,0,1,15.7-4.841ZM23.455.4H21.77l-1.39-2.19h-.238V.4h-1.38V-6.84h1.38v3.989h.3L21.78-4.746h1.6l-1.828,2.4Z" transform="translate(2.052 19.702)"/><line class="d" x2="9.227" transform="translate(3.996 22.86)"/></g><g transform="translate(22.213 16.924)"><circle class="c" cx="9" cy="9" r="9" transform="translate(-0.213 0.076)"/><path class="e" d="M5.806-5.038H7.387v1.045H5.3v.935h2.09v1.045H5.3V.325H3.413V-2.013H1.323V-3.058h2.09v-.935H1.323V-5.038h1.6L.867-8.6.512-9.219H2.657l1.691,3.41h.1l1.746-3.41h2.09Z" transform="translate(4.595 13.437)"/></g></g></g></g></g></g></svg>