<svg xmlns="http://www.w3.org/2000/svg" xmlns:xlink="http://www.w3.org/1999/xlink" width="84" height="84" viewBox="0 0 84 84">
  <defs>
    <linearGradient id="linear-gradient" x1="0.5" y1="1" x2="0.5" gradientUnits="objectBoundingBox">
      <stop offset="0" stop-color="#4141d7"/>
      <stop offset="1" stop-color="#2073ff"/>
    </linearGradient>
  </defs>
  <g id="icon-biz-lwjts" transform="translate(-120 -5742)">
    <circle id="椭圆_783" data-name="椭圆 783" cx="42" cy="42" r="42" transform="translate(120 5742)" opacity="0.795" fill="url(#linear-gradient)"/>
    <rect id="矩形_12169" data-name="矩形 12169" width="48" height="48" transform="translate(138 5760)" fill="rgba(255,255,255,0)"/>
    <g id="组_30055" data-name="组 30055" transform="translate(-0.412 9.582)">
      <path id="路径_12973" data-name="路径 12973" d="M15.471-2H29.956A1.766,1.766,0,0,1,31.722-.234v32.26a1.766,1.766,0,0,1-1.766,1.766H1.766A1.766,1.766,0,0,1,0,32.026V11.446" transform="translate(177.722 5790.42) rotate(180)" fill="none" stroke="#fff" stroke-linecap="round" stroke-width="2"/>
      <path id="路径_13004" data-name="路径 13004" d="M0,0H13.406" transform="translate(151.111 5778.693)" fill="none" stroke="#fff" stroke-linecap="round" stroke-width="2"/>
      <line id="直线_366" data-name="直线 366" x2="10.801" transform="translate(151.111 5784.568)" fill="none" stroke="#fff" stroke-linecap="round" stroke-width="2"/>
      <g id="组_30042" data-name="组 30042" transform="translate(2.757 3.763)">
        <path id="路径_13000" data-name="路径 13000" d="M0,0S8.448,8.409,9.794,9.777" transform="translate(164.73 5782.226) rotate(-45)" fill="none" stroke="#fff" stroke-linecap="round" stroke-width="2"/>
        <path id="路径_13016" data-name="路径 13016" d="M0,0S8.448,8.409,9.794,9.777" transform="translate(178.567 5787.229) rotate(135)" fill="none" stroke="#fff" stroke-linecap="round" stroke-width="2"/>
        <path id="路径_13001" data-name="路径 13001" d="M165.1,5781.442l3.466-3.466" transform="translate(-0.352 0.804)" fill="none" stroke="#fff" stroke-linecap="round" stroke-width="2"/>
        <path id="路径_13015" data-name="路径 13015" d="M168.561,5777.974l-3.466,3.466" transform="translate(9.991 9.235)" fill="none" stroke="#fff" stroke-linecap="round" stroke-width="2"/>
      </g>
      <path id="路径_13003" data-name="路径 13003" d="M150.023,5769.978l5.387-3.609,5.78,3.609,9.057-7.537" transform="translate(1.889 3.914)" fill="none" stroke="#fff" stroke-linecap="round" stroke-width="2"/>
      <g id="组_30056" data-name="组 30056" transform="translate(-12.242 -16.759)">
        <path id="路径_13000-2" data-name="路径 13000" d="M4.046,0S6.728,2.616,7.339,3.293a2.729,2.729,0,0,1,.644,1.8A2.832,2.832,0,0,1,5.151,7.922a2.9,2.9,0,0,1-1.665-.54C2.833,6.957,0,4.046,0,4.046" transform="translate(160.913 5781.658) rotate(-45)" fill="none" stroke="#fff" stroke-linecap="round" stroke-width="1.5"/>
        <path id="路径_13001-2" data-name="路径 13001" d="M165.1,5778.806l2.4-2.372" transform="translate(-1.909)" fill="none" stroke="#fff" stroke-linecap="round" stroke-width="1.5"/>
        <path id="路径_13002" data-name="路径 13002" d="M165.1,5775.975l2.262,2.16" transform="translate(-1.909 2.83)" fill="none" stroke="#fff" stroke-linecap="round" stroke-width="1.5"/>
      </g>
    </g>
  </g>
</svg>
