<svg xmlns="http://www.w3.org/2000/svg" xmlns:xlink="http://www.w3.org/1999/xlink" width="84" height="84" viewBox="0 0 84 84"><defs><style>.a{opacity:0.795;fill:url(#a);}.b{fill:rgba(255,255,255,0);}.c,.d{fill:none;stroke:#fff;stroke-linecap:round;}.c{stroke-width:2px;}.d{stroke-width:1.5px;}.e{fill:rgba(255,255,255,0.35);}.f{fill:#fff;}</style><linearGradient id="a" x1="0.5" y1="1" x2="0.5" gradientUnits="objectBoundingBox"><stop offset="0" stop-color="#4141d7"/><stop offset="1" stop-color="#2073ff"/></linearGradient></defs><g transform="translate(-120 -5742)"><circle class="a" cx="42" cy="42" r="42" transform="translate(120 5742)"/><rect class="b" width="48" height="48" transform="translate(138 5760)"/><g transform="translate(-0.412 9.582)"><path class="c" d="M15.471-2H29.956A1.766,1.766,0,0,1,31.722-.234v32.26a1.766,1.766,0,0,1-1.766,1.766H1.766A1.766,1.766,0,0,1,0,32.026V11.446" transform="translate(177.722 5790.42) rotate(180)"/><path class="c" d="M0,0H13.406" transform="translate(151.111 5778.693)"/><line class="c" x2="10.801" transform="translate(151.111 5784.568)"/><g transform="translate(2.757 3.763)"><path class="c" d="M0,0S8.448,8.409,9.794,9.777" transform="translate(164.73 5782.226) rotate(-45)"/><path class="c" d="M0,0S8.448,8.409,9.794,9.777" transform="translate(178.567 5787.229) rotate(135)"/><path class="c" d="M165.1,5781.442l3.466-3.466" transform="translate(-0.352 0.804)"/><path class="c" d="M168.561,5777.974l-3.466,3.466" transform="translate(9.991 9.235)"/></g><path class="c" d="M150.023,5769.978l5.387-3.609,5.78,3.609,9.057-7.537" transform="translate(1.889 3.914)"/><g transform="translate(-12.242 -16.759)"><path class="d" d="M4.046,0S6.728,2.616,7.339,3.293a2.729,2.729,0,0,1,.644,1.8A2.832,2.832,0,0,1,5.151,7.922a2.9,2.9,0,0,1-1.665-.54C2.833,6.957,0,4.046,0,4.046" transform="translate(160.913 5781.658) rotate(-45)"/><path class="d" d="M165.1,5778.806l2.4-2.372" transform="translate(-1.909)"/><path class="d" d="M165.1,5775.975l2.262,2.16" transform="translate(-1.909 2.83)"/></g></g><g transform="translate(136 5808.469)"><path class="e" d="M13946.475,22306.434a15,15,0,0,1,13.523-8.5h26a15,15,0,0,1,13.232,7.928,42.007,42.007,0,0,1-52.755.572Z" transform="translate(-13946.475 -22297.934)"/><path class="f" d="M-8.685-1.4q-.4-.77-.9-1.639A20.58,20.58,0,0,1-10.792-1.37q-.682.854-1.568,1.821L-13.875-.823a27.3,27.3,0,0,0,1.793-2.059,18.6,18.6,0,0,0,1.387-2.031q-.615-.981-1.207-1.856T-12.975-8.3l1.44-.924q.375.518.81,1.163t.915,1.373A13.645,13.645,0,0,0-9-9.508h-3.93v-1.779h5.7v1.779a23.581,23.581,0,0,1-.54,2.521A13.74,13.74,0,0,1-8.58-4.8q.375.588.713,1.163T-7.23-2.56Zm5.79-2.213A12.425,12.425,0,0,0,.375-.683L-.93.8a15.455,15.455,0,0,1-1.7-1.394A14.511,14.511,0,0,1-4.02-2.112,15.79,15.79,0,0,1-7.74.9L-9.165-.585A18.724,18.724,0,0,0-6.787-2.133,11.382,11.382,0,0,0-5.07-3.765,13.222,13.222,0,0,1-6.112-6.286,19.05,19.05,0,0,1-6.72-9.144l1.68-.28A20.024,20.024,0,0,0-4.62-7.3a11.166,11.166,0,0,0,.66,1.87A11.6,11.6,0,0,0-3.2-7.323a18.5,18.5,0,0,0,.517-2.213H-6.87v-1.751H-.855v1.751a21.148,21.148,0,0,1-.787,3.243A12.805,12.805,0,0,1-2.895-3.611Zm12.915.462a11.609,11.609,0,0,0,1.545.889,18.558,18.558,0,0,0,1.935.791L12.63.115q-.855-.35-1.575-.7T9.72-1.313a10.612,10.612,0,0,1-1.132-.8,9.086,9.086,0,0,1-.967-.91v1.863a2.854,2.854,0,0,1-.1.812A1.132,1.132,0,0,1,7.2.178a1.352,1.352,0,0,1-.593.294A5.684,5.684,0,0,1,5.7.606L4.635.676,4.1-.963l.975-.056a.913.913,0,0,0,.668-.224,1.036,1.036,0,0,0,.157-.644v-.826q-1.125.672-2.43,1.373T.915-.039L.03-1.58q.855-.364,1.717-.791t1.7-.875q-.21-.182-.495-.42T2.37-4.129q-.3-.224-.585-.42t-.48-.322l.645-.812H.54v-1.5H9.75v-.7H2.025v-1.5H9.75v-.686H1.62V-11.6h9.915v4.412H13.14v1.5H11.58l.765.939q-.48.322-1.1.756T10.02-3.148ZM5.895-3.527V-5.684H3.015q.42.28.87.609t.765.609L3.81-3.457l.818-.462q.4-.224.773-.462ZM8.67-4.3q.51-.322,1.042-.686t.968-.7H7.665A6.574,6.574,0,0,0,8.67-4.3Z" transform="translate(26.521 14.443)"/></g></g></svg>