<svg xmlns="http://www.w3.org/2000/svg" xmlns:xlink="http://www.w3.org/1999/xlink" width="84" height="84" viewBox="0 0 84 84"><defs><style>.a{opacity:0.795;fill:url(#a);}.b{fill:rgba(255,255,255,0);}.c{fill:#fff;}</style><linearGradient id="a" x1="0.5" y1="1" x2="0.5" gradientUnits="objectBoundingBox"><stop offset="0" stop-color="#4141d7"/><stop offset="1" stop-color="#2073ff"/></linearGradient></defs><g transform="translate(-120 -5742)"><path class="a" d="M42,0A42,42,0,1,1,0,42,42,42,0,0,1,42,0Z" transform="translate(120 5742)"/><rect class="b" width="48" height="48" transform="translate(138 5760)"/><g transform="translate(-3.692 5499.514)"><path class="c" d="M306.648,421.123H271.313a1.113,1.113,0,0,1-1.113-1.113v-7.57h1.722V419.4h34.117V399.022h-6.967V397.3h7.576a1.113,1.113,0,0,1,1.113,1.113v21.6A1.113,1.113,0,0,1,306.648,421.123Z" transform="translate(-119.378 -119.472)"/><path class="c" d="M179.608,293.829H143.947a.947.947,0,0,1-.947-.947V270.947a.947.947,0,0,1,.947-.947h35.661a.947.947,0,0,1,.947.947V292.87a.946.946,0,0,1-.947.959ZM144.722,292.1h34.111V271.722H144.722Z" transform="translate(0)"/><path class="c" d="M240.244,356.848H230.7a.43.43,0,1,1,0-.861h9.545a.43.43,0,1,1,0,.861Zm0,3.253H230.7a.43.43,0,1,1,0-.861h9.545a.43.43,0,1,1,0,.861Zm-7.012,17.771H221.721a.43.43,0,1,1,0-.861h11.512a.43.43,0,1,1,0,.861Zm14.334,0H236.049a.43.43,0,1,1,0-.861H247.56a.428.428,0,0,1,.43.43A.419.419,0,0,1,247.567,377.872Zm-33.336-7.791a.428.428,0,0,1-.43-.43V366.4a.43.43,0,1,1,.861,0v3.247A.432.432,0,0,1,214.23,370.081Zm4.1,0a.428.428,0,0,1-.43-.43V366.4a.43.43,0,1,1,.861,0v3.247A.436.436,0,0,1,218.332,370.081Zm4.1,0a.428.428,0,0,1-.43-.43V366.4a.43.43,0,1,1,.861,0v3.247A.432.432,0,0,1,222.428,370.081Zm4.089,0a.428.428,0,0,1-.43-.43V366.4a.43.43,0,1,1,.861,0v3.247A.432.432,0,0,1,226.517,370.081ZM213.825,362.2h13.1v2.325h-13.1Z" transform="translate(-66.446 -80.71)"/><path class="c" d="M4.993-7.094H3.3v5.2H1.9v-5.2H.216V-8.328H4.993Zm4.09,3.608H6.467l-.556,1.6H4.445l2.4-6.437H8.74l2.384,6.437H9.63ZM8.675-4.655,7.84-7.094H7.729L6.875-4.655Z" transform="translate(147.138 282.045)"/><g transform="translate(164.45 280.373)"><path class="c" d="M497.575,576.63a3.3,3.3,0,0,0-1.424.321l2.232,2.232-.325,1.144-1.234.414-2.236-2.236a3.316,3.316,0,0,0,4.638,4.315l2.9,2.9a.937.937,0,1,0,1.325-1.325l-2.932-2.932a3.317,3.317,0,0,0-2.947-4.836Z" transform="translate(-494.26 -576.63)"/></g></g></g></svg>