<svg xmlns="http://www.w3.org/2000/svg" xmlns:xlink="http://www.w3.org/1999/xlink" width="84" height="84" viewBox="0 0 84 84">
  <defs>
    <linearGradient id="linear-gradient" x1="0.5" y1="0.126" x2="0.5" y2="1" gradientUnits="objectBoundingBox">
      <stop offset="0" stop-color="#ffc6a7"/>
      <stop offset="1" stop-color="#ff574d"/>
    </linearGradient>
  </defs>
  <g id="双录-信用账户北交所交易权限开通" transform="translate(-120 -5742)">
    <path id="路径_12969" data-name="路径 12969" d="M42,0A42,42,0,1,1,0,42,42,42,0,0,1,42,0Z" transform="translate(120 5742)" opacity="0.802" fill="url(#linear-gradient)"/>
    <rect id="矩形_12170" data-name="矩形 12170" width="48" height="48" transform="translate(138 5760)" fill="rgba(255,255,255,0)"/>
    <g id="组_30029" data-name="组 30029" transform="translate(-0.283 2.046)">
      <path id="路径_12973" data-name="路径 12973" d="M16.471-10.355H32.3A1.766,1.766,0,0,1,34.067-8.59V27.026A1.766,1.766,0,0,1,32.3,28.791H1.766A1.766,1.766,0,0,1,0,27.026V16.446" transform="translate(177.722 5791.42) rotate(180)" fill="none" stroke="#fff" stroke-linecap="round" stroke-width="2"/>
      <g id="椭圆_784" data-name="椭圆 784" transform="translate(164.428 5778.172)" fill="none" stroke="#fff" stroke-width="2">
        <circle cx="9.241" cy="9.241" r="9.241" stroke="none"/>
        <circle cx="9.241" cy="9.241" r="8.241" fill="none"/>
      </g>
      <path id="路径_13028" data-name="路径 13028" d="M0,0H9.648" transform="translate(150.76 5788.77)" fill="none" stroke="#fff" stroke-linecap="round" stroke-width="2"/>
      <line id="直线_367" data-name="直线 367" x2="13.023" transform="translate(150.76 5793.855)" fill="none" stroke="#fff" stroke-linecap="round" stroke-width="2"/>
      <g id="路径_12975" data-name="路径 12975" transform="translate(-1.835 -2)">
        <path id="路径_17872" data-name="路径 17872" d="M169.07,5806.274l6.433-4.02,6.433,4.02v-11.517s-3.913,1.942-6.433,1.942-6.433-1.942-6.433-1.942Z" fill="none"/>
        <path id="路径_17873" data-name="路径 17873" d="M179.936,5802.666v-4.9a10.934,10.934,0,0,1-8.866,0v4.9l3.373-2.108,1.06-.662,1.06.662,3.373,2.108m2,3.608-6.433-4.02-6.433,4.02v-11.517s3.913,1.942,6.433,1.942,6.433-1.942,6.433-1.942Z" fill="#fff"/>
      </g>
      <g id="组_31474" data-name="组 31474" transform="translate(169.789 5783.446)">
        <line id="直线_363" data-name="直线 363" x2="7.933" transform="translate(0 3.967)" fill="none" stroke="#fff" stroke-linecap="round" stroke-width="2"/>
        <line id="直线_364" data-name="直线 364" y2="7.933" transform="translate(3.967)" fill="none" stroke="#fff" stroke-linecap="round" stroke-width="2"/>
      </g>
      <g id="组_31475" data-name="组 31475" transform="translate(48.93 5702.427)">
        <path id="路径_17526" data-name="路径 17526" d="M107.749,81.018c-3.843,0-7.749-5.241-7.749-8.168V66.537h.425a10.9,10.9,0,0,0,7.076-2.159l.248-.179.248.179a10.9,10.9,0,0,0,7.076,2.159h.425V72.85C115.5,75.777,111.593,81.018,107.749,81.018Zm-6.9-13.635V72.85c0,2.544,3.655,7.318,6.9,7.318s6.9-4.774,6.9-7.318V67.383a11.592,11.592,0,0,1-6.9-2.14,11.592,11.592,0,0,1-6.9,2.14Z" fill="#fff"/>
        <path id="京" d="M9.129-7.671H.787v-.958H4.5q-.049-.24-.109-.469T4.27-9.5L5.28-9.66q.069.208.134.474t.143.557H9.129ZM5.587-3.639v2.26a1.761,1.761,0,0,1-.059.505.643.643,0,0,1-.2.312.976.976,0,0,1-.391.182A3.967,3.967,0,0,1,4.3-.286l-.584.052L3.429-1.306l.564-.042a1.826,1.826,0,0,0,.292-.036.487.487,0,0,0,.178-.073.217.217,0,0,0,.084-.13,1.039,1.039,0,0,0,.02-.229V-3.639H1.806V-6.858H8.09v3.219ZM2.816-4.587H7.071v-1.3H2.816Zm.762,1.844a6.31,6.31,0,0,1-.525.589q-.307.307-.648.615t-.683.594Q1.381-.66,1.1-.421L.48-1.338q.267-.2.594-.448t.653-.526q.327-.276.619-.568a5.109,5.109,0,0,0,.5-.573Zm3.3-.708q.247.187.594.458t.7.562q.351.292.678.573t.544.49L8.8-.411a7.078,7.078,0,0,0-.534-.542q-.327-.3-.683-.609t-.7-.589q-.341-.281-.589-.469Z" transform="translate(102.869 77.201)" fill="#fff"/>
      </g>
    </g>
    <g id="icon-meun-shuanglu" transform="translate(136 5808.469)">
      <path id="交叉_1" data-name="交叉 1" d="M13946.475,22306.434a15,15,0,0,1,13.523-8.5h26a15,15,0,0,1,13.232,7.928,42.007,42.007,0,0,1-52.755.572Z" transform="translate(-13946.475 -22297.934)" fill="rgba(255,255,255,0.35)"/>
      <path id="路径_17893" data-name="路径 17893" d="M-8.685-1.4q-.4-.77-.9-1.639A20.58,20.58,0,0,1-10.792-1.37q-.682.854-1.568,1.821L-13.875-.823a27.3,27.3,0,0,0,1.793-2.059,18.6,18.6,0,0,0,1.387-2.031q-.615-.981-1.207-1.856T-12.975-8.3l1.44-.924q.375.518.81,1.163t.915,1.373A13.645,13.645,0,0,0-9-9.508h-3.93v-1.779h5.7v1.779a23.581,23.581,0,0,1-.54,2.521A13.74,13.74,0,0,1-8.58-4.8q.375.588.713,1.163T-7.23-2.56Zm5.79-2.213A12.425,12.425,0,0,0,.375-.683L-.93.8a15.455,15.455,0,0,1-1.7-1.394A14.511,14.511,0,0,1-4.02-2.112,15.79,15.79,0,0,1-7.74.9L-9.165-.585A18.724,18.724,0,0,0-6.787-2.133,11.382,11.382,0,0,0-5.07-3.765,13.222,13.222,0,0,1-6.112-6.286,19.05,19.05,0,0,1-6.72-9.144l1.68-.28A20.024,20.024,0,0,0-4.62-7.3a11.166,11.166,0,0,0,.66,1.87A11.6,11.6,0,0,0-3.2-7.323a18.5,18.5,0,0,0,.517-2.213H-6.87v-1.751H-.855v1.751a21.148,21.148,0,0,1-.787,3.243A12.805,12.805,0,0,1-2.895-3.611Zm12.915.462a11.609,11.609,0,0,0,1.545.889,18.558,18.558,0,0,0,1.935.791L12.63.115q-.855-.35-1.575-.7T9.72-1.313a10.612,10.612,0,0,1-1.132-.8,9.086,9.086,0,0,1-.967-.91v1.863a2.854,2.854,0,0,1-.1.812A1.132,1.132,0,0,1,7.2.178a1.352,1.352,0,0,1-.593.294A5.684,5.684,0,0,1,5.7.606L4.635.676,4.1-.963l.975-.056a.913.913,0,0,0,.668-.224,1.036,1.036,0,0,0,.157-.644v-.826q-1.125.672-2.43,1.373T.915-.039L.03-1.58q.855-.364,1.717-.791t1.7-.875q-.21-.182-.495-.42T2.37-4.129q-.3-.224-.585-.42t-.48-.322l.645-.812H.54v-1.5H9.75v-.7H2.025v-1.5H9.75v-.686H1.62V-11.6h9.915v4.412H13.14v1.5H11.58l.765.939q-.48.322-1.1.756T10.02-3.148ZM5.895-3.527V-5.684H3.015q.42.28.87.609t.765.609L3.81-3.457l.818-.462q.4-.224.773-.462ZM8.67-4.3q.51-.322,1.042-.686t.968-.7H7.665A6.574,6.574,0,0,0,8.67-4.3Z" transform="translate(26.521 14.443)" fill="#fff"/>
    </g>
  </g>
</svg>
