<svg xmlns="http://www.w3.org/2000/svg" xmlns:xlink="http://www.w3.org/1999/xlink" width="84" height="84" viewBox="0 0 84 84"><defs><style>.a{fill:url(#a);}.b{fill:rgba(255,255,255,0);}.c,.d,.f,.h{fill:none;}.c,.f{stroke:#fff;stroke-width:2px;}.d,.f{stroke-linecap:round;}.e{fill:#fff;}.g,.i{stroke:none;}.i{fill:#fff;}</style><linearGradient id="a" x1="0.5" y1="-0.128" x2="0.5" y2="1.13" gradientUnits="objectBoundingBox"><stop offset="0" stop-color="#ffce47"/><stop offset="1" stop-color="#da9c53"/></linearGradient></defs><g transform="translate(-120 -5742)"><path class="a" d="M42,0A42,42,0,1,1,0,42,42,42,0,0,1,42,0Z" transform="translate(120 5742)"/><rect class="b" width="48" height="48" transform="translate(138 5760)"/><g transform="translate(1)"><g transform="translate(-6.283 0.047)"><g class="c" transform="translate(162.723 5774.467)"><circle class="g" cx="10.946" cy="10.946" r="10.946"/><circle class="h" cx="10.946" cy="10.946" r="9.946"/></g><g class="d" transform="translate(186.056 5804.42) rotate(159)"><path class="g" d="M0,0,4.182,3.626,8.365,0l.348,12.853s-2,.03-3.87.208A19.412,19.412,0,0,0,.714,14.084Z"/><path class="i" d="M 6.479960918426514 4.280621528625488 L 5.492552757263184 5.136675834655762 L 4.182432651519775 6.272515773773193 L 2.872313022613525 5.136675834655762 L 2.234979629516602 4.584127426147461 L 2.582174301147461 11.43405151367188 C 3.245569705963135 11.27379703521729 3.966590881347656 11.13397693634033 4.653782844543457 11.06881618499756 C 5.341679573059082 11.00358963012695 6.041075229644775 10.95750999450684 6.659802436828613 10.92516899108887 L 6.479960918426514 4.280621528625488 M 3.24249267578125e-05 -0.000484466552734375 L 4.182432651519775 3.62552547454834 L 8.364822387695312 -0.000484466552734375 L 8.712693214416504 12.8521556854248 C 8.712693214416504 12.8521556854248 6.712943077087402 12.88253593444824 4.842573165893555 13.05988597869873 C 2.972192764282227 13.23723602294922 0.713932991027832 14.08429622650146 0.713932991027832 14.08429622650146 L 3.24249267578125e-05 -0.000484466552734375 Z"/></g><g class="d" transform="translate(166.463 5791.246) rotate(22)"><path class="g" d="M0,14.11l4.183-3.632L8.365,14.11,8.713,1.235S6.942,1.107,5.071.93A27.6,27.6,0,0,1,.714,0Z"/><path class="i" d="M 6.480148315429688 9.823830604553223 L 6.662247180938721 3.079415798187256 C 6.12199592590332 3.034122228622437 5.509162902832031 2.980391025543213 4.881924152374268 2.920803070068359 C 4.140922069549561 2.850408315658569 3.328048706054688 2.703283309936523 2.587605476379395 2.542726278305054 L 2.234703540802002 9.520028114318848 L 2.871114253997803 8.96733283996582 L 4.182514190673828 7.828433036804199 L 5.493924140930176 8.96733283996582 L 6.480148315429688 9.823830604553223 M 8.365154266357422 14.10983276367188 L 4.182514190673828 10.47737312316895 L 4.290924152883235e-06 14.10970306396484 L 0.71364426612854 0.0001731662050588056 C 0.71364426612854 0.0001731662050588056 3.200604200363159 0.7520731687545776 5.071064472198486 0.92976313829422 C 6.941534519195557 1.107463121414185 8.712784767150879 1.2346031665802 8.712784767150879 1.2346031665802 L 8.365154266357422 14.10983276367188 Z"/></g><path class="e" d="M13.16-2.142q-.014.2-.042.441t-.049.483q-.021.238-.042.434t-.035.28a5.069,5.069,0,0,1-.168.84.987.987,0,0,1-.3.476,1.218,1.218,0,0,1-.532.238,6.9,6.9,0,0,1-.861.112,5.248,5.248,0,0,1-.574.028A4.865,4.865,0,0,1,10,1.162a3.31,3.31,0,0,1-.7-.119A1.29,1.29,0,0,1,8.771.749,1.275,1.275,0,0,1,8.442.217,2.677,2.677,0,0,1,8.33-.63V-5.474a14.082,14.082,0,0,1-.336,1.925,9.277,9.277,0,0,1-.616,1.715A10.474,10.474,0,0,1,6.412-.21,15.874,15.874,0,0,1,5.026,1.442L3.92.546v.84H2.226V-4.956q-.168.252-.357.5l-.385.5L.392-5.348a11.4,11.4,0,0,0,.847-1.19q.441-.7.84-1.5a17.034,17.034,0,0,0,.714-1.638,11.945,11.945,0,0,0,.483-1.6l1.694.49Q4.732-10,4.466-9.3T3.92-7.952V-.084A12.275,12.275,0,0,0,5.138-1.54a7.5,7.5,0,0,0,.8-1.449,8.538,8.538,0,0,0,.476-1.6A16.882,16.882,0,0,0,6.664-6.51H4.4V-8.232H6.762v-2.842L8.526-11,8.47-8.232h2.114l-.364-.455q-.2-.245-.392-.476T9.436-9.6q-.2-.21-.35-.35l1.148-1.022q.2.168.441.406t.5.5q.252.259.476.525t.378.49l-.77.826h1.386V-6.51H8.414a1.02,1.02,0,0,0-.014.168,1.02,1.02,0,0,1-.014.168l1.652.07v5.012a1.536,1.536,0,0,0,.021.287.351.351,0,0,0,.077.168.316.316,0,0,0,.154.091,1.446,1.446,0,0,0,.266.042,1.282,1.282,0,0,0,.378,0,.57.57,0,0,0,.35-.119.93.93,0,0,0,.126-.455q.042-.336.077-.742t.063-.812Z" transform="translate(166.668 5790.412)"/></g><g transform="translate(3.189 8.666)"><path class="f" d="M28.471,0h9.485a1.766,1.766,0,0,1,1.766,1.766v26.26a1.766,1.766,0,0,1-1.766,1.766H1.766A1.766,1.766,0,0,1,0,28.026V3.446" transform="translate(177.722 5790.42) rotate(180)"/><line class="f" x2="9.199" transform="translate(144.111 5769.613)"/><line class="f" x2="5.801" transform="translate(144.111 5775.523)"/><line class="f" x2="8.199" transform="translate(144.111 5781.436)"/></g></g></g></svg>