<svg xmlns="http://www.w3.org/2000/svg" xmlns:xlink="http://www.w3.org/1999/xlink" width="84" height="84" viewBox="0 0 84 84">
  <defs>
    <linearGradient id="linear-gradient" x1="0.5" y1="-0.128" x2="0.5" y2="1.13" gradientUnits="objectBoundingBox">
      <stop offset="0" stop-color="#ffce47"/>
      <stop offset="1" stop-color="#da9c53"/>
    </linearGradient>
  </defs>
  <g id="双录-行权融资征信" transform="translate(-120 -5742)">
    <path id="路径_12969" data-name="路径 12969" d="M42,0A42,42,0,1,1,0,42,42,42,0,0,1,42,0Z" transform="translate(120 5742)" fill="url(#linear-gradient)"/>
    <rect id="矩形_12170" data-name="矩形 12170" width="48" height="48" transform="translate(138 5760)" fill="rgba(255,255,255,0)"/>
    <g id="icon-meun-shuanglu" transform="translate(136 5808.469)">
      <path id="交叉_1" data-name="交叉 1" d="M13946.475,22306.434a15,15,0,0,1,13.523-8.5h26a15,15,0,0,1,13.232,7.928,42.007,42.007,0,0,1-52.755.572Z" transform="translate(-13946.475 -22297.934)" fill="rgba(255,255,255,0.35)"/>
      <path id="路径_17893" data-name="路径 17893" d="M-8.685-1.4q-.4-.77-.9-1.639A20.58,20.58,0,0,1-10.792-1.37q-.682.854-1.568,1.821L-13.875-.823a27.3,27.3,0,0,0,1.793-2.059,18.6,18.6,0,0,0,1.387-2.031q-.615-.981-1.207-1.856T-12.975-8.3l1.44-.924q.375.518.81,1.163t.915,1.373A13.645,13.645,0,0,0-9-9.508h-3.93v-1.779h5.7v1.779a23.581,23.581,0,0,1-.54,2.521A13.74,13.74,0,0,1-8.58-4.8q.375.588.713,1.163T-7.23-2.56Zm5.79-2.213A12.425,12.425,0,0,0,.375-.683L-.93.8a15.455,15.455,0,0,1-1.7-1.394A14.511,14.511,0,0,1-4.02-2.112,15.79,15.79,0,0,1-7.74.9L-9.165-.585A18.724,18.724,0,0,0-6.787-2.133,11.382,11.382,0,0,0-5.07-3.765,13.222,13.222,0,0,1-6.112-6.286,19.05,19.05,0,0,1-6.72-9.144l1.68-.28A20.024,20.024,0,0,0-4.62-7.3a11.166,11.166,0,0,0,.66,1.87A11.6,11.6,0,0,0-3.2-7.323a18.5,18.5,0,0,0,.517-2.213H-6.87v-1.751H-.855v1.751a21.148,21.148,0,0,1-.787,3.243A12.805,12.805,0,0,1-2.895-3.611Zm12.915.462a11.609,11.609,0,0,0,1.545.889,18.558,18.558,0,0,0,1.935.791L12.63.115q-.855-.35-1.575-.7T9.72-1.313a10.612,10.612,0,0,1-1.132-.8,9.086,9.086,0,0,1-.967-.91v1.863a2.854,2.854,0,0,1-.1.812A1.132,1.132,0,0,1,7.2.178a1.352,1.352,0,0,1-.593.294A5.684,5.684,0,0,1,5.7.606L4.635.676,4.1-.963l.975-.056a.913.913,0,0,0,.668-.224,1.036,1.036,0,0,0,.157-.644v-.826q-1.125.672-2.43,1.373T.915-.039L.03-1.58q.855-.364,1.717-.791t1.7-.875q-.21-.182-.495-.42T2.37-4.129q-.3-.224-.585-.42t-.48-.322l.645-.812H.54v-1.5H9.75v-.7H2.025v-1.5H9.75v-.686H1.62V-11.6h9.915v4.412H13.14v1.5H11.58l.765.939q-.48.322-1.1.756T10.02-3.148ZM5.895-3.527V-5.684H3.015q.42.28.87.609t.765.609L3.81-3.457l.818-.462q.4-.224.773-.462ZM8.67-4.3q.51-.322,1.042-.686t.968-.7H7.665A6.574,6.574,0,0,0,8.67-4.3Z" transform="translate(26.521 14.443)" fill="#fff"/>
    </g>
    <g id="组_32346" data-name="组 32346" transform="translate(54.085 5602.996)">
      <path id="路径_17895" data-name="路径 17895" d="M201.659,406.017l-1.014-.868a12.234,12.234,0,0,1-2.783,2.691q.336.722.58,1.29A24.3,24.3,0,0,0,201.659,406.017Zm-.952,2.3a15.053,15.053,0,0,1-3.027,3.495,5.18,5.18,0,0,1,.241.627,4.513,4.513,0,0,1,.241.627,9.663,9.663,0,0,0,1.205-1.06v4.461h1.205v-5.849q.58-.722,1.207-1.578Zm6.041,3.013h2.158v-1.146h-2.158v-3.17H209.1v-1.193h-7.007v1.193h3.317v7.827h-1.738v-5.91h-1.242v5.91h-1.06v1.1h7.921v-1.1h-2.544Z" transform="translate(-84.828 -222.911)" fill="#fff"/>
      <path id="路径_17896" data-name="路径 17896" d="M125.729,179.676V167.7a4.5,4.5,0,0,0-4.463-4.5H91.346a4.5,4.5,0,0,0-4.5,4.5v22.695a4.5,4.5,0,0,0,4.5,4.5h19.327a10.735,10.735,0,0,0,7.6,3.883c.109.008.219.012.328.017.126,0,.248.018.374.018.213,0,.42-.02.63-.032.13-.008.261-.008.393-.02a10.794,10.794,0,0,0,1.248-.193c.04-.009.084-.011.124-.02.1-.023.179-.06.273-.083.317-.083.629-.176.934-.287.121-.041.244-.084.363-.132a10.75,10.75,0,0,0,2.418-1.35l.006,0a10.738,10.738,0,0,0,.362-17.012ZM88.658,167.7a2.688,2.688,0,0,1,2.69-2.688h29.921a2.69,2.69,0,0,1,2.691,2.688v1.471h-35.3Zm2.688,25.323a2.688,2.688,0,0,1-2.69-2.641v-19.4h35.267v7.52a10.756,10.756,0,0,0-14.441,14.608Zm27.532,3.851a8.924,8.924,0,1,1,8.924-8.924A8.924,8.924,0,0,1,118.877,196.872Z" fill="#fff"/>
      <line id="直线_365" data-name="直线 365" x2="8.801" transform="translate(103.366 175.348)" fill="none" stroke="#fff" stroke-linecap="round" stroke-width="2"/>
      <line id="直线_366" data-name="直线 366" x2="5.55" transform="translate(103.366 181.003)" fill="none" stroke="#fff" stroke-linecap="round" stroke-width="2"/>
      <line id="直线_367" data-name="直线 367" x2="2.928" transform="translate(103.367 186.659)" fill="none" stroke="#fff" stroke-linecap="round" stroke-width="2"/>
      <path id="路径_17897" data-name="路径 17897" d="M123.126,67.8a1.183,1.183,0,0,1,.806-.238,1.11,1.11,0,0,1,.715.6l2.885,4.621,1.406-2.284c.471-.756.937-1.519,1.408-2.281a2.053,2.053,0,0,1,.392-.485.722.722,0,0,1,.368-.182.686.686,0,0,1,.379.056,3.793,3.793,0,0,1,.4.211c.314.194.486.4.51.61a1.437,1.437,0,0,1-.268.825l-2.277,3.619h1.46c.708,0,1.064.343,1.064,1.02s-.355,1-1.064,1h-2.676v.926h2.676c.708,0,1.064.343,1.064,1.02s-.355,1-1.064,1h-2.676v2.11a1.5,1.5,0,0,1-.209.944,1.216,1.216,0,0,1-.907.24,1.273,1.273,0,0,1-.872-.24,1.243,1.243,0,0,1-.27-.944V77.849h-2.637c-.7,0-1.061-.336-1.061-1a.907.907,0,0,1,1.029-1.02h2.676V74.9h-2.635c-.706,0-1.061-.334-1.061-1a.906.906,0,0,1,1.026-1.017h1.5q-.581-.9-1.159-1.809L122.9,69.26a1.081,1.081,0,0,1-.233-.836,1.051,1.051,0,0,1,.462-.623Z" transform="translate(-32.069 106.657)" fill="#fff"/>
    </g>
  </g>
</svg>
