<svg xmlns="http://www.w3.org/2000/svg" xmlns:xlink="http://www.w3.org/1999/xlink" width="84" height="84" viewBox="0 0 84 84">
  <defs>
    <linearGradient id="linear-gradient" x1="0.5" y1="-0.128" x2="0.5" y2="1.13" gradientUnits="objectBoundingBox">
      <stop offset="0" stop-color="#ffce47"/>
      <stop offset="1" stop-color="#da9c53"/>
    </linearGradient>
    <clipPath id="clip-path">
      <path id="路径_10983" data-name="路径 10983" d="M26.732-5.182l3.243,3.243a1,1,0,0,1,0,1.414,1,1,0,0,1-1.414,0L25.318-3.768a1,1,0,0,1,0-1.414A1,1,0,0,1,26.732-5.182Z" fill="none" clip-rule="evenodd"/>
    </clipPath>
  </defs>
  <g id="icon-biz-yycx" transform="translate(-1122 -1182)">
    <g id="组_30024" data-name="组 30024" transform="translate(1002 -4560)">
      <path id="路径_12969" data-name="路径 12969" d="M42,0A42,42,0,1,1,0,42,42,42,0,0,1,42,0Z" transform="translate(120 5742)" fill="url(#linear-gradient)"/>
      <rect id="矩形_12172" data-name="矩形 12172" width="48" height="48" transform="translate(138 5760)" fill="rgba(255,255,255,0)"/>
      <g id="组_31066" data-name="组 31066" transform="translate(-0.283 0.548)">
        <path id="路径_12973" data-name="路径 12973" d="M8.973-9.355h21.27A1.653,1.653,0,0,1,31.9-7.7V24.644A1.653,1.653,0,0,1,30.243,26.3H1.653A1.653,1.653,0,0,1,0,24.644V6.376" transform="translate(177.722 5791.42) rotate(180)" fill="none" stroke="#fff" stroke-linecap="round" stroke-width="2"/>
        <g id="组_20792" data-name="组 20792" transform="translate(151.283 5800.158)">
          <g id="组_20790" data-name="组 20790" transform="translate(19.611 -11.389)">
            <path id="路径_10981" data-name="路径 10981" d="M5.519,11.037A5.519,5.519,0,1,0,0,5.519,5.519,5.519,0,0,0,5.519,11.037Z" fill="none" stroke="#fff" stroke-width="2"/>
          </g>
          <g id="组_20791" data-name="组 20791" transform="translate(3 3)" clip-path="url(#clip-path)">
            <path id="路径_10982" data-name="路径 10982" d="M25.025-13.96,37.753-1.232,29.268,7.253,16.54-5.475Z" fill="#fff"/>
          </g>
        </g>
        <path id="路径_17864" data-name="路径 17864" d="M92.1,93.358H88.759a2.21,2.21,0,0,0-2.228,2.228v3.342a2.21,2.21,0,0,0,2.228,2.228H92.1a2.21,2.21,0,0,0,2.228-2.228V95.587A2.252,2.252,0,0,0,92.1,93.358Zm16.272.983H97.083a.721.721,0,0,0,0,1.442h11.292a.721.721,0,0,0,0-1.442Zm0,4.457H97.083a.721.721,0,0,0,0,1.442h11.292a.721.721,0,0,0,0-1.442Zm-16.4,4.012H88.628a2.21,2.21,0,0,0-2.228,2.228v3.342a2.21,2.21,0,0,0,2.228,2.228h3.342a2.21,2.21,0,0,0,2.228-2.228v-3.342A2.21,2.21,0,0,0,91.971,102.81Zm16.4.918H97.083a.721.721,0,0,0,0,1.442h11.292a.721.721,0,0,0,0-1.442Zm-2,4.457H97.083a.721.721,0,0,0,0,1.442h9.292a.721.721,0,0,0,0-1.442Z" transform="translate(64.203 5676.539)" fill="#fff"/>
        <path id="路径_17865" data-name="路径 17865" d="M92.018,103.07H88.676a2.21,2.21,0,0,0-2.228,2.228v3.342a2.21,2.21,0,0,0,2.228,2.228h3.342a2.21,2.21,0,0,0,2.228-2.228V105.3A2.21,2.21,0,0,0,92.018,103.07Zm-3.342,6.292a.727.727,0,0,1-.721-.721V105.3a.727.727,0,0,1,.721-.721h3.342a.727.727,0,0,1,.721.721v3.342a.727.727,0,0,1-.721.721H88.676Zm14.746-5.374H97.13a.721.721,0,0,0,0,1.442h6.292a.721.721,0,0,0,0-1.442Zm0,4.457H97.13a.721.721,0,0,0,0,1.442h6.292a.721.721,0,0,0,0-1.442Z" transform="translate(64.199 5685.759)" fill="#fff"/>
      </g>
    </g>
  </g>
</svg>
