<svg xmlns="http://www.w3.org/2000/svg" xmlns:xlink="http://www.w3.org/1999/xlink" width="84" height="84" viewBox="0 0 84 84"><defs><style>.a{opacity:0.802;fill:url(#a);}.b{fill:rgba(255,255,255,0);}.c,.d{fill:#fff;}.d,.e,.f,.g{stroke:#fff;}.d{stroke-width:0.5px;}.e,.f,.g,.i{fill:none;}.e,.g{stroke-linecap:round;}.e,.f{stroke-width:2px;}.g{stroke-width:2.5px;}.h{stroke:none;}</style><linearGradient id="a" x1="0.5" y1="0.126" x2="0.5" y2="1" gradientUnits="objectBoundingBox"><stop offset="0" stop-color="#ffc6a7"/><stop offset="1" stop-color="#ff574d"/></linearGradient></defs><g transform="translate(-120 -5742)"><path class="a" d="M42,0A42,42,0,1,1,0,42,42,42,0,0,1,42,0Z" transform="translate(120 5742)"/><rect class="b" width="48" height="48" transform="translate(138 5760)"/><g transform="translate(138.609 5760.848)"><g transform="translate(2.785 3.407)"><path class="c" d="M9.942,19.885A9.942,9.942,0,1,0,0,9.942a9.942,9.942,0,0,0,9.942,9.942Zm0-18.1A8.143,8.143,0,1,1,4.167,4.167,8.143,8.143,0,0,1,9.942,1.782Z" transform="translate(0 0.407)"/><g transform="translate(24.307 20.315)"><path class="d" d="M139.87,146.148c-3.784,0-5.762,1.5-5.762,2.974v7.942c0,1.477,1.98,2.974,5.762,2.974,3.756,0,5.731-1.476,5.762-2.943h0V149.12c0-1.477-1.978-2.973-5.763-2.973Zm0,1.566c2.8,0,4.241.987,4.241,1.408s-1.443,1.41-4.241,1.41-4.239-.989-4.239-1.41,1.443-1.409,4.239-1.409Zm0,10.761c-2.8,0-4.239-.987-4.239-1.409v-1.9a10.433,10.433,0,0,0,8.48,0v1.9c0,.42-1.444,1.408-4.242,1.408Zm0-3.974c-2.8,0-4.239-.989-4.239-1.409v-1.9a10.422,10.422,0,0,0,8.48,0v1.9c0,.42-1.444,1.408-4.242,1.408Z" transform="translate(-128.729 -140.863)"/><path class="d" d="M140.363,145.526v.765h1.3v-2.9c0-2.362-3.76-3.633-7.3-3.633s-7.3,1.275-7.3,3.633V154.1c0,2.362,2.835,3.634,6.372,3.634v-1.357c-3.716,0-5.072-1.326-5.072-2.277v-3.219a8.051,8.051,0,0,0,5.072,1.5v-1.36c-3.716,0-5.072-1.327-5.072-2.277v-3.223a13.932,13.932,0,0,0,5.221,1.217c.052.006.415.01.779,0a14.164,14.164,0,0,0,5.995-1.217Zm-6-4.408c3.715,0,6,1.326,6,2.276s-2.282,2.277-6,2.277-6-1.326-6-2.277,2.282-2.277,6-2.277Z" transform="translate(-127.068 -139.763)"/></g><path class="c" d="M6.232-4.7H7.94v1.129H5.682v1.01H7.94v1.129H5.682V1.092H3.646V-1.434H1.388V-2.563H3.646v-1.01H1.388V-4.7H3.112L.9-8.551.512-9.219H2.829L4.657-5.534h.1L6.648-9.219H8.906Z" transform="translate(5.235 14.376)"/><g transform="translate(2.284)"><path class="e" d="M0,12.1S10.735,1.4,12.1,0" transform="translate(28.882 17.111) rotate(-135)"/><path class="e" d="M170.291,5783.17l-5.2-5.195" transform="translate(-132.646 -5774.567)"/><g class="f" transform="translate(30.077 11.855)"><rect class="h" width="7.503" height="4.287" rx="1"/><rect class="i" x="1" y="1" width="5.503" height="2.287"/></g><g class="f" transform="translate(0.067 23.645)"><rect class="h" width="7.503" height="4.287" rx="1"/><rect class="i" x="1" y="1" width="5.503" height="2.287"/></g><path class="e" d="M0,11.919S10.554,1.4,11.919,0" transform="translate(8.636 22.635) rotate(45)"/><path class="e" d="M165.1,5777.976l5.2,5.195" transform="translate(-165.096 -5746.959)"/><path class="g" d="M148.168,5771.215h5.277l5.616-11.7h6.762" transform="translate(-138.072 -5745.735)"/></g></g></g></g></svg>