<svg xmlns="http://www.w3.org/2000/svg" xmlns:xlink="http://www.w3.org/1999/xlink" width="84" height="84" viewBox="0 0 84 84">
  <defs>
    <linearGradient id="linear-gradient" x1="0.5" y1="-0.069" x2="0.5" y2="1.075" gradientUnits="objectBoundingBox">
      <stop offset="0" stop-color="#20ceff"/>
      <stop offset="1" stop-color="#208bff"/>
    </linearGradient>
  </defs>
  <g id="icon-biz-smjj" transform="translate(-120 -5742)">
    <path id="路径_12969" data-name="路径 12969" d="M42,0A42,42,0,1,1,0,42,42,42,0,0,1,42,0Z" transform="translate(120 5742)" fill="url(#linear-gradient)"/>
    <rect id="矩形_12172" data-name="矩形 12172" width="48" height="48" transform="translate(138 5760)" fill="rgba(255,255,255,0)"/>
    <g id="组_30061" data-name="组 30061" transform="translate(1.453 6.342)">
      <g id="椭圆_784" data-name="椭圆 784" transform="translate(166.022 5782.808)" fill="none" stroke="#fff" stroke-width="2">
        <circle cx="8.763" cy="8.763" r="8.763" stroke="none"/>
        <circle cx="8.763" cy="8.763" r="7.763" fill="none"/>
      </g>
      <path id="路径_13017" data-name="路径 13017" d="M38.988,12.143l2.185,5.336a1.747,1.747,0,0,1,0,1.734l-9.485,16.6a1.747,1.747,0,0,1-1.517.88H11.232a1.747,1.747,0,0,1-1.517-.88L.23,19.213a1.747,1.747,0,0,1,0-1.734L9.715.88A1.747,1.747,0,0,1,11.232,0H23.541" transform="translate(176.941 5756.467) rotate(90)" fill="none" stroke="#fff" stroke-linecap="round" stroke-width="2"/>
      <g id="组_30058" data-name="组 30058" transform="translate(151.09 5761.479)">
        <text id="私" transform="translate(0 16)" fill="#fff" font-size="15" font-family="AlibabaPuHuiTi-Medium, Alibaba PuHuiTi" font-weight="500"><tspan x="0" y="0">私</tspan></text>
      </g>
      <path id="路径_13018" data-name="路径 13018" d="M152.023,5771.759l5.517-5.3,5.517,5.3,14.526-10.318" transform="translate(-5.298 15.577)" fill="none" stroke="#fff" stroke-linecap="round" stroke-width="2"/>
      <g id="组_30059" data-name="组 30059" transform="matrix(0.966, 0.259, -0.259, 0.966, 168.655, 5775.591)">
        <path id="路径_13019" data-name="路径 13019" d="M4.193,0H0" fill="none" stroke="#fff" stroke-linecap="round" stroke-width="2"/>
        <path id="路径_13020" data-name="路径 13020" d="M4.035,0H0" transform="translate(4.192 4.036) rotate(-90)" fill="none" stroke="#fff" stroke-linecap="round" stroke-width="2"/>
      </g>
      <g id="组_30062" data-name="组 30062" transform="translate(5.994 -9.032)">
        <line id="直线_371" data-name="直线 371" x2="2.253" y2="1.854" transform="translate(165.053 5801.191)" fill="none" stroke="#fff" stroke-linecap="round" stroke-width="2"/>
        <line id="直线_372" data-name="直线 372" x1="4.889" y2="4.889" transform="translate(167.306 5798.158)" fill="none" stroke="#fff" stroke-linecap="round" stroke-width="2"/>
      </g>
    </g>
  </g>
</svg>
