<svg xmlns="http://www.w3.org/2000/svg" xmlns:xlink="http://www.w3.org/1999/xlink" width="84" height="84" viewBox="0 0 84 84">
  <defs>
    <linearGradient id="linear-gradient" x1="0.5" y1="1" x2="0.5" gradientUnits="objectBoundingBox">
      <stop offset="0" stop-color="#4141d7"/>
      <stop offset="1" stop-color="#2073ff"/>
    </linearGradient>
  </defs>
  <g id="icon-biz-tszlq" transform="translate(-120 -5742)">
    <circle id="椭圆_783" data-name="椭圆 783" cx="42" cy="42" r="42" transform="translate(120 5742)" opacity="0.795" fill="url(#linear-gradient)"/>
    <rect id="矩形_12169" data-name="矩形 12169" width="48" height="48" transform="translate(138 5760)" fill="rgba(255,255,255,0)"/>
    <g id="组_30143" data-name="组 30143" transform="translate(-1001 4559.223)">
      <g id="组_30111" data-name="组 30111" transform="translate(1001.588 -4550.418)">
        <path id="路径_12973" data-name="路径 12973" d="M14.471-3H30.956a1.766,1.766,0,0,1,1.766,1.766v34.26a1.766,1.766,0,0,1-1.766,1.766H1.766A1.766,1.766,0,0,1,0,33.026V11.446" transform="translate(177.722 5790.42) rotate(180)" fill="none" stroke="#fff" stroke-linecap="round" stroke-width="2"/>
        <path id="路径_13004" data-name="路径 13004" d="M0,0H6.557" transform="translate(165.58 5763.693)" fill="none" stroke="#fff" stroke-linecap="round" stroke-width="2"/>
        <line id="直线_366" data-name="直线 366" x2="6.557" transform="translate(165.58 5767.568)" fill="none" stroke="#fff" stroke-linecap="round" stroke-width="2"/>
        <path id="路径_13003" data-name="路径 13003" d="M150.023,5769.978l5.387-3.609,5.78,3.609,9.057-7.537" transform="translate(1.889 13.546)" fill="none" stroke="#fff" stroke-linecap="round" stroke-width="2"/>
        <text id="退" transform="translate(150.024 5772.987)" fill="#fff" font-size="14" font-family="AlibabaPuHuiTi-Bold, Alibaba PuHuiTi" font-weight="700"><tspan x="0" y="0">退</tspan></text>
      </g>
      <g id="椭圆_791" data-name="椭圆 791" transform="translate(1166.574 1230.016)" fill="none" stroke="#fff" stroke-width="2">
        <circle cx="8.881" cy="8.881" r="8.881" stroke="none"/>
        <circle cx="8.881" cy="8.881" r="7.881" fill="none"/>
      </g>
      <g id="组_30113" data-name="组 30113" transform="translate(1172.09 1235.455)">
        <line id="直线_363" data-name="直线 363" x2="6.879" transform="translate(0.001 3.44)" fill="none" stroke="#fff" stroke-linecap="round" stroke-width="2"/>
        <line id="直线_364" data-name="直线 364" y2="6.879" transform="translate(3.44 0)" fill="none" stroke="#fff" stroke-linecap="round" stroke-width="2"/>
      </g>
    </g>
  </g>
</svg>
