<svg xmlns="http://www.w3.org/2000/svg" xmlns:xlink="http://www.w3.org/1999/xlink" width="84" height="84" viewBox="0 0 84 84"><defs><style>.a{opacity:0.795;fill:url(#a);}.b{fill:rgba(255,255,255,0);}.c,.d,.f,.h{fill:none;}.c,.d,.e,.f{stroke:#fff;}.c,.d{stroke-linecap:round;}.c,.d,.f{stroke-width:2px;}.d{stroke-linejoin:round;}.e{fill:#fff;stroke-width:0.5px;}.g{stroke:none;}</style><linearGradient id="a" x1="0.5" y1="1" x2="0.5" gradientUnits="objectBoundingBox"><stop offset="0" stop-color="#4141d7"/><stop offset="1" stop-color="#2073ff"/></linearGradient></defs><g transform="translate(-120 -5742)"><circle class="a" cx="42" cy="42" r="42" transform="translate(120 5742)"/><rect class="b" width="48" height="48" transform="translate(138 5760)"/><g transform="translate(-1001 4559.223)"><g transform="translate(1001.588 -4550.418)"><path class="c" d="M13.693-3h14.6a1.671,1.671,0,0,1,1.671,1.671V30.089a1.671,1.671,0,0,1-1.671,1.671H1.671A1.671,1.671,0,0,1,0,30.089V10.67" transform="translate(176.843 5789.404) rotate(180)"/><path class="c" d="M0,0H6.205" transform="translate(166.19 5765.352)"/><line class="c" x2="6.205" transform="translate(166.19 5769.806)"/><line class="c" x2="6.205" transform="translate(166.19 5774.261)"/><path class="d" d="M150.023,5769.978l5-4.548,6.163,4.548,7.831-7.011" transform="translate(2.146 14.544)"/><g transform="translate(-16.626 -20.239)"><path class="e" d="M137.876,146.148c-2.475,0-3.768.978-3.768,1.945v5.194c0,.966,1.295,1.945,3.768,1.945,2.456,0,3.748-.965,3.768-1.925h0v-5.216c0-.966-1.293-1.944-3.769-1.944Zm0,1.024c1.83,0,2.773.646,2.773.921s-.943.922-2.773.922-2.772-.647-2.772-.922.943-.922,2.772-.922Zm0,7.037c-1.83,0-2.772-.646-2.772-.922v-1.24a6.823,6.823,0,0,0,5.545,0v1.24c0,.274-.944.921-2.774.921Zm0-2.6c-1.83,0-2.772-.646-2.772-.922v-1.24a6.815,6.815,0,0,0,5.545,0v1.24c0,.274-.944.921-2.774.921Z" transform="translate(38.206 5640.983)"/><path class="e" d="M135.762,143.532v.5h.852v-1.893c0-1.545-2.459-2.376-4.772-2.376s-4.774.834-4.774,2.376v7c0,1.545,1.854,2.376,4.167,2.376v-.887c-2.43,0-3.317-.867-3.317-1.489v-2.1a5.265,5.265,0,0,0,3.317.981v-.889c-2.43,0-3.317-.868-3.317-1.489v-2.108a9.111,9.111,0,0,0,3.414.8c.034,0,.271.007.509,0a9.262,9.262,0,0,0,3.92-.8Zm-3.922-2.883c2.43,0,3.922.867,3.922,1.488s-1.493,1.489-3.922,1.489-3.922-.867-3.922-1.489,1.493-1.489,3.921-1.489Z" transform="translate(41.729 5643.912)"/></g></g><g class="f" transform="translate(1166.574 1230.016)"><circle class="g" cx="8.881" cy="8.881" r="8.881"/><circle class="h" cx="8.881" cy="8.881" r="7.881"/></g><g transform="translate(1172.09 1235.455)"><line class="c" x2="6.879" transform="translate(0.001 3.44)"/><line class="c" y2="6.879" transform="translate(3.44 0)"/></g></g></g></svg>