<svg xmlns="http://www.w3.org/2000/svg" xmlns:xlink="http://www.w3.org/1999/xlink" width="84" height="84" viewBox="0 0 84 84"><defs><style>.a{opacity:0.802;fill:url(#a);}.b{fill:rgba(255,255,255,0);}.c,.e,.g{fill:none;}.c,.e{stroke:#fff;stroke-width:2px;}.c{stroke-linecap:round;}.d{fill:#fff;font-size:15px;font-family:AlibabaPuHuiTi-Bold, Alibaba PuHuiTi;font-weight:700;}.f{stroke:none;}</style><linearGradient id="a" x1="0.5" y1="0.126" x2="0.5" y2="1" gradientUnits="objectBoundingBox"><stop offset="0" stop-color="#ffc6a7"/><stop offset="1" stop-color="#ff574d"/></linearGradient></defs><g transform="translate(-120 -5742)"><path class="a" d="M42,0A42,42,0,1,1,0,42,42,42,0,0,1,42,0Z" transform="translate(120 5742)"/><rect class="b" width="48" height="48" transform="translate(138 5760)"/><g transform="translate(1.726 6.342)"><path class="c" d="M38.988,12.143l2.185,5.336a1.747,1.747,0,0,1,0,1.734l-9.485,16.6a1.747,1.747,0,0,1-1.517.88H11.232a1.747,1.747,0,0,1-1.517-.88L.23,19.213a1.747,1.747,0,0,1,0-1.734L9.715.88A1.747,1.747,0,0,1,11.232,0H23.541" transform="translate(176.941 5756.467) rotate(90)"/><g transform="translate(151.09 5761.479)"><text class="d" transform="translate(0 16)"><tspan x="0" y="0">基</tspan></text></g><path class="c" d="M152.023,5771.759l5.517-5.3,5.517,5.3,14.526-10.318" transform="translate(-5.298 15.577)"/><g transform="matrix(0.966, 0.259, -0.259, 0.966, 168.655, 5775.591)"><path class="c" d="M4.193,0H0"/><path class="c" d="M4.035,0H0" transform="translate(4.192 4.036) rotate(-90)"/></g><g class="e" transform="translate(166.09 5781.674)"><circle class="f" cx="8.881" cy="8.881" r="8.881"/><circle class="g" cx="8.881" cy="8.881" r="7.881"/></g><g transform="translate(171.605 5787.113)"><line class="c" x2="6.879" transform="translate(1.008 1.008) rotate(45)"/><line class="c" y2="6.879" transform="translate(5.873 1.008) rotate(45)"/></g></g></g></svg>