<svg xmlns="http://www.w3.org/2000/svg" xmlns:xlink="http://www.w3.org/1999/xlink" width="84" height="84" viewBox="0 0 84 84"><defs><style>.a{fill:url(#a);}.b{fill:rgba(255,255,255,0);}.c,.d,.f,.h{fill:none;}.c,.d,.f{stroke:#fff;stroke-width:2px;}.c,.f{stroke-linecap:round;}.e{fill:#fff;}.f{stroke-linejoin:round;}.g{stroke:none;}</style><linearGradient id="a" x1="0.5" y1="-0.128" x2="0.5" y2="1.13" gradientUnits="objectBoundingBox"><stop offset="0" stop-color="#ffce47"/><stop offset="1" stop-color="#da9c53"/></linearGradient></defs><g transform="translate(-120 -5742)"><path class="a" d="M42,0A42,42,0,1,1,0,42,42,42,0,0,1,42,0Z" transform="translate(120 5742)"/><rect class="b" width="48" height="48" transform="translate(138 5760)"/><g transform="translate(3.975 8.666)"><path class="c" d="M16.471,0H37.956a1.766,1.766,0,0,1,1.766,1.766v26.26a1.766,1.766,0,0,1-1.766,1.766H1.766A1.766,1.766,0,0,1,0,28.026V16.446" transform="translate(177.722 5790.42) rotate(180)"/><line class="d" x2="39.146" transform="translate(138.141 5769.399)"/><g class="d" transform="translate(164.986 5777.334)"><circle class="g" cx="8.881" cy="8.881" r="8.881"/><circle class="h" cx="8.881" cy="8.881" r="7.881"/></g><g transform="translate(170.503 5782.774)"><line class="c" x2="6.879" transform="translate(0.001 3.44)"/><line class="c" y2="6.879" transform="translate(3.44 0)"/></g><g transform="translate(139.64 5769.559)"><path class="e" d="M5.726-1.89q.294.252.588.539t.616.609L5.894.392a8.453,8.453,0,0,0-.707-.833Q4.8-.84,4.41-1.232l.658-.658h-1.9l.9.714q-.2.308-.469.665T3.01.2Q2.7.56,2.387.889a8.075,8.075,0,0,1-.595.567L.658.266q.266-.21.553-.483t.567-.567q.28-.294.532-.581t.434-.525H.63V-3.36H1.89V-8.428H1.148V-9.884H1.89v-1.162l1.512.084v1.078H5.138v-1.162l1.526.084v1.078h.714v1.456H6.664V-3.36h.644v1.47ZM12.46-10.7V-.546a3.34,3.34,0,0,1-.091.854,1.258,1.258,0,0,1-.28.539,1.084,1.084,0,0,1-.476.294,3.5,3.5,0,0,1-.679.133l-.714.07-.476-1.5.6-.056a.608.608,0,0,0,.511-.245,1.685,1.685,0,0,0,.133-.805V-2.534H9.268A9.65,9.65,0,0,1,9.1-1.379a7.328,7.328,0,0,1-.287,1,6.375,6.375,0,0,1-.441.945q-.266.469-.616,1L6.272.77A9.113,9.113,0,0,0,7.133-.553a5.481,5.481,0,0,0,.476-1.33,9.708,9.708,0,0,0,.2-1.673q.042-.952.042-2.38V-10.7ZM9.352-8.918v1.6H10.99v-1.6Zm-5.95.49v.742H5.138v-.742Zm0,2.912H5.138v-.742H3.4ZM10.99-4.13V-5.768H9.352v1.162q0,.238-.014.476ZM3.4-3.36H5.138v-.728H3.4Z" transform="translate(0 15)"/></g><rect class="e" width="18" height="3" rx="1" transform="translate(149.025 5763.334)"/><path class="f" d="M151.281,5773.438l3.953-5.637,3.025,4.99,4.861-7.242" transform="translate(2.182 11.449)"/><g transform="translate(162.6 5775.833) rotate(-9)"><path class="c" d="M4.193,0H0"/><path class="c" d="M4.035,0H0" transform="translate(4.192 4.036) rotate(-90)"/></g></g></g></svg>