<svg xmlns="http://www.w3.org/2000/svg" xmlns:xlink="http://www.w3.org/1999/xlink" width="84" height="84" viewBox="0 0 84 84"><defs><style>.a{fill:url(#a);}.b{fill:rgba(255,255,255,0);}.c,.e,.g{fill:none;}.c,.e{stroke:#fff;stroke-width:2px;}.d{fill:#fff;}.e{stroke-linecap:round;}.f{stroke:none;}</style><linearGradient id="a" x1="0.5" y1="-0.128" x2="0.5" y2="1.13" gradientUnits="objectBoundingBox"><stop offset="0" stop-color="#ffce47"/><stop offset="1" stop-color="#da9c53"/></linearGradient></defs><g transform="translate(-120 -5742)"><path class="a" d="M42,0A42,42,0,1,1,0,42,42,42,0,0,1,42,0Z" transform="translate(120 5742)"/><rect class="b" width="48" height="48" transform="translate(138 5760)"/><g transform="translate(3.045 7.682)"><g class="c" transform="translate(163.428 5777.172)"><circle class="f" cx="10.241" cy="10.241" r="10.241"/><circle class="g" cx="10.241" cy="10.241" r="9.241"/></g><g transform="translate(169.076 5785.796)"><path class="d" d="M4.811,10l2-.279L7.44,9.1l5.431-5.288L11.191,2.08,5.718,7.411l-.583.583Z" transform="translate(-4.899 -3.473)"/><path class="d" d="M10.365,5.387l1.229-1.151L9.881,2.477,8.608,3.629Z" transform="translate(-1.665 -5.73)"/></g></g><g transform="translate(3.045 7.682)"><path class="e" d="M16.471,0H37.956a1.766,1.766,0,0,1,1.766,1.766v26.26a1.766,1.766,0,0,1-1.766,1.766H1.766A1.766,1.766,0,0,1,0,28.026V16.446" transform="translate(177.722 5790.42) rotate(180)"/><line class="e" x2="14.559" transform="translate(143.896 5780.561)"/><line class="e" x2="14.559" transform="translate(143.896 5784.436)"/><g transform="translate(143.057 5764.099)"><path class="d" d="M7.213-2.23H3.169L2.308.237H.042L3.757-9.716H6.682L10.368.237H8.059ZM6.582-4.037,5.291-7.809H5.119L3.8-4.037ZM11.5-9.716h2.18V.237H11.5Z" transform="translate(-0.042 9.716)"/></g><path class="e" d="M149.264,5771.18h15.653l3.933-6.271,3.586,4.324,4.723-7.828" transform="translate(-5.367 5.345)"/></g></g></svg>