<svg xmlns="http://www.w3.org/2000/svg" xmlns:xlink="http://www.w3.org/1999/xlink" width="84" height="84" viewBox="0 0 84 84"><defs><style>.a{opacity:0.802;fill:url(#a);}.b{fill:rgba(255,255,255,0);}.c,.d,.g{fill:none;}.c,.d{stroke:#fff;stroke-width:2px;}.c{stroke-linecap:round;}.e{fill:#fff;}.f{stroke:none;}</style><linearGradient id="a" x1="0.5" y1="0.126" x2="0.5" y2="1" gradientUnits="objectBoundingBox"><stop offset="0" stop-color="#ffc6a7"/><stop offset="1" stop-color="#ff574d"/></linearGradient></defs><g transform="translate(-120 -5742)"><circle class="a" cx="42" cy="42" r="42" transform="translate(120 5742)"/><rect class="b" width="48" height="48" transform="translate(138 5760)"/><g transform="translate(3.252 8.681)"><path class="c" d="M16.471,0H37.956a1.766,1.766,0,0,1,1.766,1.766v26.26a1.766,1.766,0,0,1-1.766,1.766H1.766A1.766,1.766,0,0,1,0,28.026V16.446" transform="translate(177.722 5790.42) rotate(180)"/><line class="d" x2="39.146" transform="translate(138.141 5769.399)"/><g class="d" transform="translate(164.986 5777.334)"><circle class="f" cx="8.881" cy="8.881" r="8.881"/><circle class="g" cx="8.881" cy="8.881" r="7.881"/></g><g transform="translate(169.077 5786.215) rotate(-45)"><line class="c" y2="13.435" transform="translate(2.991 -3.226)"/></g><g class="d" transform="translate(142.91 5772.318)"><circle class="f" cx="4" cy="4" r="4"/><circle class="g" cx="4" cy="4" r="3"/></g><path class="c" d="M7,0A4.947,4.947,0,0,1,7,9.895" transform="translate(141.963 5791.436) rotate(-90)"/><rect class="e" width="3" height="3" rx="0.5" transform="translate(141.746 5763.479)"/><rect class="e" width="3" height="3" rx="0.5" transform="translate(147.746 5763.479)"/><rect class="e" width="3" height="3" rx="0.5" transform="translate(153.746 5763.479)"/><path class="e" d="M.77-6.94H2.8L4.7-1.06h.052V-6.94h1.3V1.287H4.227l-2.1-6.259H2.079V1.287H.77ZM9.43,1.406a2.913,2.913,0,0,1-.982-.154A1.565,1.565,0,0,1,7.723.718,2.721,2.721,0,0,1,7.274-.3a6.915,6.915,0,0,1-.157-1.612,6.915,6.915,0,0,1,.157-1.612,2.721,2.721,0,0,1,.45-1.02,1.565,1.565,0,0,1,.725-.533,2.913,2.913,0,0,1,.982-.154,2.875,2.875,0,0,1,.978.154,1.568,1.568,0,0,1,.72.533,2.721,2.721,0,0,1,.45,1.02,6.915,6.915,0,0,1,.157,1.612A6.915,6.915,0,0,1,11.578-.3a2.721,2.721,0,0,1-.45,1.02,1.568,1.568,0,0,1-.72.533A2.875,2.875,0,0,1,9.43,1.406Zm0-1.3A1.109,1.109,0,0,0,9.915.007a.7.7,0,0,0,.314-.326,1.9,1.9,0,0,0,.166-.622,8.2,8.2,0,0,0,.048-.972,7.519,7.519,0,0,0-.052-.972,2.04,2.04,0,0,0-.17-.628.732.732,0,0,0-.31-.338,1.026,1.026,0,0,0-.48-.1,1.053,1.053,0,0,0-.485.1.725.725,0,0,0-.314.338,1.969,1.969,0,0,0-.166.628,8.2,8.2,0,0,0-.048.972,7.519,7.519,0,0,0,.052.972,1.967,1.967,0,0,0,.17.622.7.7,0,0,0,.31.326A1.08,1.08,0,0,0,9.43.1Zm3.789,1.257a1.858,1.858,0,0,1-.406-.036.364.364,0,0,1-.231-.154.753.753,0,0,1-.1-.32A4.448,4.448,0,0,1,12.451.3a4.6,4.6,0,0,1,.026-.551.717.717,0,0,1,.1-.32.372.372,0,0,1,.231-.148,1.858,1.858,0,0,1,.406-.036,1.807,1.807,0,0,1,.4.036.391.391,0,0,1,.236.148.681.681,0,0,1,.109.32A4.6,4.6,0,0,1,13.987.3a4.448,4.448,0,0,1-.026.545.715.715,0,0,1-.109.32.382.382,0,0,1-.236.154A1.807,1.807,0,0,1,13.219,1.359Z" transform="translate(153.338 5779.084) scale(1 0.866)"/></g></g></svg>