<svg xmlns="http://www.w3.org/2000/svg" xmlns:xlink="http://www.w3.org/1999/xlink" width="84" height="84" viewBox="0 0 84 84">
  <defs>
    <linearGradient id="linear-gradient" x1="0.5" y1="1" x2="0.5" gradientUnits="objectBoundingBox">
      <stop offset="0" stop-color="#4141d7"/>
      <stop offset="1" stop-color="#2073ff"/>
    </linearGradient>
  </defs>
  <g id="icon-biz-onemerge" transform="translate(-120 -5742)">
    <circle id="椭圆_783" data-name="椭圆 783" cx="42" cy="42" r="42" transform="translate(120 5742)" opacity="0.795" fill="url(#linear-gradient)"/>
    <rect id="矩形_12169" data-name="矩形 12169" width="48" height="48" transform="translate(138 5760)" fill="rgba(255,255,255,0)"/>
    <g id="组_30599" data-name="组 30599" transform="translate(-9.088 -8)">
      <g id="组_30048" data-name="组 30048" transform="translate(151.089 5778.435)">
        <g id="路径_13640" data-name="路径 13640" transform="translate(0 0)" fill="none" stroke-linecap="round">
          <path d="M2-1H31.637a2,2,0,0,1,2,2V22.219a2,2,0,0,1-2,2H2a2,2,0,0,1-2-2V1A2,2,0,0,1,2-1Z" stroke="none"/>
          <path d="M 2 0.9999980926513672 L 2 22.21895790100098 L 31.6374397277832 22.21895790100098 L 31.6374397277832 0.9999980926513672 L 2 0.9999980926513672 M 2 -1.000001907348633 L 31.6374397277832 -1.000001907348633 C 32.74200820922852 -1.000001907348633 33.6374397277832 -0.1045722961425781 33.6374397277832 0.9999980926513672 L 33.6374397277832 22.21895790100098 C 33.6374397277832 23.32352828979492 32.74200820922852 24.21895790100098 31.6374397277832 24.21895790100098 L 2 24.21895790100098 C 0.8954315185546875 24.21895790100098 0 23.32352828979492 0 22.21895790100098 L 0 0.9999980926513672 C 0 -0.1045722961425781 0.8954315185546875 -1.000001907348633 2 -1.000001907348633 Z" stroke="none" fill="#fff"/>
        </g>
        <path id="路径_13642" data-name="路径 13642" d="M0-1H32.18" transform="translate(0.104 8.658)" fill="none" stroke="#fff" stroke-width="3"/>
        <g id="组_30047" data-name="组 30047" transform="translate(14.875 13.859)">
          <line id="直线_369" data-name="直线 369" x2="8.066" transform="translate(0 0)" fill="none" stroke="#fff" stroke-linecap="round" stroke-width="1.5"/>
        </g>
        <g id="组_30601" data-name="组 30601" transform="translate(14.875 17.859)">
          <line id="直线_369-2" data-name="直线 369" x2="13.545" transform="translate(0 0)" fill="none" stroke="#fff" stroke-linecap="round" stroke-width="1.5"/>
        </g>
        <rect id="矩形_12252" data-name="矩形 12252" width="7" height="7" rx="1" transform="translate(5 12.564)" fill="#fff"/>
        <line id="直线_396" data-name="直线 396" x2="2.19" transform="translate(5.216 3.857)" fill="none" stroke="#fff" stroke-linecap="round" stroke-width="1.5"/>
        <line id="直线_397" data-name="直线 397" x2="2.19" transform="translate(10.905 3.857)" fill="none" stroke="#fff" stroke-linecap="round" stroke-width="1.5"/>
        <line id="直线_398" data-name="直线 398" x2="2.19" transform="translate(16.595 3.857)" fill="none" stroke="#fff" stroke-linecap="round" stroke-width="1.5"/>
      </g>
      <g id="组_30054" data-name="组 30054" transform="translate(155.271 5785.345)">
        <path id="路径_13639" data-name="路径 13639" d="M30-1h1.637a2,2,0,0,1,2,2V21.219a2,2,0,0,1-2,2H3a2,2,0,0,1-2-2V17" transform="translate(0 0)" fill="none" stroke="#fff" stroke-linecap="round" stroke-width="2"/>
      </g>
    </g>
    <g id="组_30600" data-name="组 30600" transform="matrix(0.966, -0.259, 0.259, 0.966, 55.152, 5751.527)">
      <g id="组_30052" data-name="组 30052" transform="translate(108.086 44.921)">
        <path id="路径_13014" data-name="路径 13014" d="M9.776,9.776A9.776,9.776,0,0,0,0,0" transform="translate(0 0)" fill="none" stroke="#fff" stroke-linecap="round" stroke-width="2"/>
        <path id="多边形_20" data-name="多边形 20" d="M3.209.86a1,1,0,0,1,1.505,0L6.473,2.87A1,1,0,0,1,5.72,4.528H2.2A1,1,0,0,1,1.451,2.87Z" transform="translate(13.76 14.174) rotate(180)" fill="#fff"/>
      </g>
    </g>
  </g>
</svg>
