<svg xmlns="http://www.w3.org/2000/svg" xmlns:xlink="http://www.w3.org/1999/xlink" width="84" height="84" viewBox="0 0 84 84"><defs><style>.a{opacity:0.795;fill:url(#a);}.b{fill:rgba(255,255,255,0);}.c,.d,.g{fill:none;}.c,.d{stroke:#fff;stroke-width:2px;}.d{stroke-linecap:round;}.e{fill:#fff;}.f{stroke:none;}</style><linearGradient id="a" x1="0.5" y1="1" x2="0.5" gradientUnits="objectBoundingBox"><stop offset="0" stop-color="#4141d7"/><stop offset="1" stop-color="#2073ff"/></linearGradient></defs><g transform="translate(-120 -5742)"><circle class="a" cx="42" cy="42" r="42" transform="translate(120 5742)"/><rect class="b" width="48" height="48" transform="translate(138 5760)"/><g transform="translate(55.664 5749.5)"><g transform="translate(-16.412 -5741.109)"><g transform="translate(102.847 5750.318)"><g class="c" transform="translate(27.141 30.029)"><circle class="f" cx="8.881" cy="8.881" r="8.881"/><circle class="g" cx="8.881" cy="8.881" r="7.881"/></g><g transform="translate(32.656 35.469)"><line class="d" x2="6.879" transform="translate(0.001 3.44)"/><line class="d" y2="6.879" transform="translate(3.44 0)"/></g></g></g><g transform="translate(3.822 4.818)"><path class="d" d="M0,0H18.166" transform="translate(91.064 34.572)"/><path class="d" d="M0,0H13.8" transform="translate(91.064 40.144)"/><g class="c" transform="translate(92.842 8.344)"><rect class="f" width="16.619" height="4.817" rx="2"/><rect class="g" x="1" y="1" width="14.619" height="2.817" rx="1"/></g><rect class="e" width="3" height="3" rx="0.5" transform="translate(102.693 23.354)"/><rect class="e" width="3" height="3" rx="0.5" transform="translate(102.693 27.508)"/><rect class="e" width="3" height="3" rx="0.5" transform="translate(106.847 23.354)"/><rect class="e" width="3" height="3" rx="0.5" transform="translate(106.847 27.508)"/><rect class="e" width="3" height="3" rx="0.5" transform="translate(111.002 27.508)"/><path class="d" d="M20.6,37.558H.619A1.549,1.549,0,0,1-1,36.09V3.467A1.549,1.549,0,0,1,.619,2h28.2a1.549,1.549,0,0,1,1.619,1.467V22.951" transform="translate(86.434 8.894)"/><g class="c" transform="translate(92.012 17.295)"><circle class="f" cx="4" cy="4" r="4"/><circle class="g" cx="4" cy="4" r="3"/></g><path class="d" d="M7,0A4.947,4.947,0,0,1,7,9.895" transform="translate(91.064 36.412) rotate(-90)"/></g></g></g></svg>