<svg xmlns="http://www.w3.org/2000/svg" xmlns:xlink="http://www.w3.org/1999/xlink" width="84" height="84" viewBox="0 0 84 84"><defs><style>.a{opacity:0.795;fill:url(#a);}.b{fill:rgba(255,255,255,0);}.c,.d,.h{fill:none;}.c,.d{stroke:#fff;stroke-width:2px;}.c{stroke-linecap:round;}.e{fill:#fff;}.f{fill:rgba(255,255,255,0.35);}.g{stroke:none;}</style><linearGradient id="a" x1="0.5" y1="1" x2="0.5" gradientUnits="objectBoundingBox"><stop offset="0" stop-color="#4141d7"/><stop offset="1" stop-color="#2073ff"/></linearGradient></defs><g transform="translate(-120 -5742)"><path class="a" d="M42,0A42,42,0,1,1,0,42,42,42,0,0,1,42,0Z" transform="translate(120 5742)"/><rect class="b" width="48" height="48" transform="translate(138 5760)"/><g transform="translate(3.045 7.682)"><path class="c" d="M16.471,0H37.956a1.766,1.766,0,0,1,1.766,1.766v26.26a1.766,1.766,0,0,1-1.766,1.766H1.766A1.766,1.766,0,0,1,0,28.026V16.446" transform="translate(177.722 5790.42) rotate(180)"/><g class="d" transform="translate(163.428 5777.172)"><circle class="g" cx="10.241" cy="10.241" r="10.241"/><circle class="h" cx="10.241" cy="10.241" r="9.241"/></g><g transform="translate(169.79 5783.446)"><line class="c" x2="7.933" transform="translate(0 3.967)"/><line class="c" y2="7.933" transform="translate(3.967)"/></g><path class="c" d="M149.264,5771.18h15.653l3.933-6.271,3.586,4.324,4.723-7.828" transform="translate(-5.367 6.345)"/><path class="e" d="M214.357,369.393a.553.553,0,0,1-.557-.557v-2.2a.557.557,0,1,1,1.114,0v2.2a.558.558,0,0,1-.557.557Zm5.306,0a.553.553,0,0,1-.557-.557v-2.2a.557.557,0,0,1,1.114,0v2.2a.564.564,0,0,1-.558.557Zm5.3,0a.553.553,0,0,1-.557-.557v-2.2a.557.557,0,0,1,1.114,0v2.2a.558.558,0,0,1-.56.557Zm5.29,0a.553.553,0,0,1-.557-.557v-2.2a.557.557,0,1,1,1.114,0v2.2a.558.558,0,0,1-.56.557Zm-16.418-7.19h16.943v2.007H213.832Z" transform="translate(-70.321 5418.026)"/></g><path class="e" d="M-4.7-9.083q-.167-.268-.424-.642t-.545-.741q-.288-.367-.561-.692a3.621,3.621,0,0,0-.485-.494l1.3-1.115a5.406,5.406,0,0,1,.545.487q.3.3.606.657t.576.706a7.44,7.44,0,0,1,.454.649ZM1-1.981q1.318.028,2.712-.007t2.575-.12L5.877-.372q-.47.028-1.113.049T3.464-.3Q2.8-.287,2.219-.287T1.287-.3Q.2-.344-.614-.372A9.286,9.286,0,0,1-2.1-.534,5.54,5.54,0,0,1-3.387-.958,6.319,6.319,0,0,1-4.7-1.826a8.232,8.232,0,0,1-.636.713q-.333.332-.864.826L-7.424-1.515q.53-.494,1.03-.967t.864-.882V-6.838H-6.863V-8.575h3.09v5.6a4.959,4.959,0,0,0,.674.4A6.019,6.019,0,0,0-2.44-2.3l-.439-.96a.822.822,0,0,0,.311-.374,1.082,1.082,0,0,0,.053-.3v-8.485H4.726v5.464a1.5,1.5,0,0,1,.114-.12.633.633,0,0,0,.083-.092l.864,1.144q-.5.353-1.023.664t-1.038.579q.53.325,1.06.657t1,.657l-.848,1.3q-.318-.226-.7-.487L3.423-3.2Q3-3.492,2.552-3.774l-.871-.551L2.014-3.1q-.3.113-.7.254t-.841.275l-.89.271q-.447.134-.841.233.485.042,1.03.049T1-1.981ZM-.819-10.9v.706H3.059V-10.9ZM3.059-7.982v-.734H-.819v.734ZM-.819-3.831Q-.3-3.958.226-4.113t1.166-.381Q.863-4.819.4-5.08T-.41-5.5L.3-6.429H-.819Zm1.636-2.6q.3.155.757.4t.985.551a8.421,8.421,0,0,0,.788-.452q.394-.254.727-.494Z" transform="translate(153.385 5783.376)"/><g transform="translate(136 5808.469)"><path class="f" d="M13946.475,22306.434a15,15,0,0,1,13.523-8.5h26a15,15,0,0,1,13.232,7.928,42.007,42.007,0,0,1-52.755.572Z" transform="translate(-13946.475 -22297.934)"/><path class="e" d="M-8.685-1.4q-.4-.77-.9-1.639A20.58,20.58,0,0,1-10.792-1.37q-.682.854-1.568,1.821L-13.875-.823a27.3,27.3,0,0,0,1.793-2.059,18.6,18.6,0,0,0,1.387-2.031q-.615-.981-1.207-1.856T-12.975-8.3l1.44-.924q.375.518.81,1.163t.915,1.373A13.645,13.645,0,0,0-9-9.508h-3.93v-1.779h5.7v1.779a23.581,23.581,0,0,1-.54,2.521A13.74,13.74,0,0,1-8.58-4.8q.375.588.713,1.163T-7.23-2.56Zm5.79-2.213A12.425,12.425,0,0,0,.375-.683L-.93.8a15.455,15.455,0,0,1-1.7-1.394A14.511,14.511,0,0,1-4.02-2.112,15.79,15.79,0,0,1-7.74.9L-9.165-.585A18.724,18.724,0,0,0-6.787-2.133,11.382,11.382,0,0,0-5.07-3.765,13.222,13.222,0,0,1-6.112-6.286,19.05,19.05,0,0,1-6.72-9.144l1.68-.28A20.024,20.024,0,0,0-4.62-7.3a11.166,11.166,0,0,0,.66,1.87A11.6,11.6,0,0,0-3.2-7.323a18.5,18.5,0,0,0,.517-2.213H-6.87v-1.751H-.855v1.751a21.148,21.148,0,0,1-.787,3.243A12.805,12.805,0,0,1-2.895-3.611Zm12.915.462a11.609,11.609,0,0,0,1.545.889,18.558,18.558,0,0,0,1.935.791L12.63.115q-.855-.35-1.575-.7T9.72-1.313a10.612,10.612,0,0,1-1.132-.8,9.086,9.086,0,0,1-.967-.91v1.863a2.854,2.854,0,0,1-.1.812A1.132,1.132,0,0,1,7.2.178a1.352,1.352,0,0,1-.593.294A5.684,5.684,0,0,1,5.7.606L4.635.676,4.1-.963l.975-.056a.913.913,0,0,0,.668-.224,1.036,1.036,0,0,0,.157-.644v-.826q-1.125.672-2.43,1.373T.915-.039L.03-1.58q.855-.364,1.717-.791t1.7-.875q-.21-.182-.495-.42T2.37-4.129q-.3-.224-.585-.42t-.48-.322l.645-.812H.54v-1.5H9.75v-.7H2.025v-1.5H9.75v-.686H1.62V-11.6h9.915v4.412H13.14v1.5H11.58l.765.939q-.48.322-1.1.756T10.02-3.148ZM5.895-3.527V-5.684H3.015q.42.28.87.609t.765.609L3.81-3.457l.818-.462q.4-.224.773-.462ZM8.67-4.3q.51-.322,1.042-.686t.968-.7H7.665A6.574,6.574,0,0,0,8.67-4.3Z" transform="translate(26.521 14.443)"/></g></g></svg>