<svg xmlns="http://www.w3.org/2000/svg" xmlns:xlink="http://www.w3.org/1999/xlink" width="84" height="84" viewBox="0 0 84 84"><defs><style>.a{opacity:0.795;fill:url(#a);}.b{fill:rgba(255,255,255,0);}.c,.d,.e,.h{fill:none;}.c,.d,.e{stroke:#fff;}.c,.e{stroke-linecap:round;}.c,.d{stroke-width:2px;}.e{stroke-linejoin:round;stroke-width:1.5px;}.f{fill:#fff;}.g{stroke:none;}</style><linearGradient id="a" x1="0.5" y1="1" x2="0.5" gradientUnits="objectBoundingBox"><stop offset="0" stop-color="#4141d7"/><stop offset="1" stop-color="#2073ff"/></linearGradient></defs><g transform="translate(-120 -5742)"><circle class="a" cx="42" cy="42" r="42" transform="translate(120 5742)"/><rect class="b" width="48" height="48" transform="translate(138 5760)"/><g transform="translate(-1001 4559.223)"><g transform="translate(1001.588 -4550.418)"><path class="c" d="M13.693-3h14.6a1.671,1.671,0,0,1,1.671,1.671V30.089a1.671,1.671,0,0,1-1.671,1.671H1.671A1.671,1.671,0,0,1,0,30.089V10.67" transform="translate(176.843 5789.404) rotate(180)"/><line class="c" x2="20.4" transform="translate(151.512 5776.262)"/><line class="c" x2="12.4" transform="translate(151.512 5780.809)"/><path class="d" d="M150.512,5758.736v13.094l4.611-4.611,4.611,4.611v-13.094Z" transform="translate(1 -1)"/><path class="e" d="M150.93,5786.309h.969l.707.559,1.145-.559h1.094l.57.936h.527l1.129-1.408.967.822,1.746.209.541-.559.543.35,1.178-.35h1.117" transform="translate(0.582)"/><g class="d" transform="translate(164.412 5765.195)"><rect class="g" width="8" height="8" rx="1"/><rect class="h" x="1" y="1" width="6" height="6"/></g></g><g class="d" transform="translate(1165.574 1229.016)"><circle class="g" cx="9.381" cy="9.381" r="9.381"/><circle class="h" cx="9.381" cy="9.381" r="8.381"/></g><g transform="translate(1170.534 1236.256)"><path class="f" d="M4.811,10l2-.279L7.44,9.1l5.431-5.288L11.191,2.08,5.718,7.411l-.583.583Z" transform="translate(-4.899 -3.473)"/><path class="f" d="M10.365,5.387l1.229-1.151L9.881,2.477,8.608,3.629Z" transform="translate(-1.665 -5.73)"/></g></g></g></svg>