<svg xmlns="http://www.w3.org/2000/svg" xmlns:xlink="http://www.w3.org/1999/xlink" width="84" height="84" viewBox="0 0 84 84"><defs><style>.a{fill:url(#a);}.b{fill:rgba(255,255,255,0);}.c,.d,.h{fill:none;}.c,.d{stroke:#fff;stroke-width:2px;}.c{stroke-linecap:round;}.e{fill:#fff;}.f{fill:rgba(255,255,255,0.35);}.g{stroke:none;}</style><linearGradient id="a" x1="0.5" y1="-0.128" x2="0.5" y2="1.13" gradientUnits="objectBoundingBox"><stop offset="0" stop-color="#ffce47"/><stop offset="1" stop-color="#da9c53"/></linearGradient></defs><g transform="translate(-120 -5742)"><path class="a" d="M42,0A42,42,0,1,1,0,42,42,42,0,0,1,42,0Z" transform="translate(120 5742)"/><rect class="b" width="48" height="48" transform="translate(138 5760)"/><g transform="translate(3.975 8.666)"><path class="c" d="M16.471,0H37.956a1.766,1.766,0,0,1,1.766,1.766v26.26a1.766,1.766,0,0,1-1.766,1.766H1.766A1.766,1.766,0,0,1,0,28.026V16.446" transform="translate(177.722 5790.42) rotate(180)"/><line class="d" x2="39.146" transform="translate(138.141 5769.399)"/><g class="d" transform="translate(164.986 5777.334)"><circle class="g" cx="8.881" cy="8.881" r="8.881"/><circle class="h" cx="8.881" cy="8.881" r="7.881"/></g><g transform="translate(170.503 5782.774)"><line class="c" x2="6.879" transform="translate(0.001 3.44)"/><line class="c" y2="6.879" transform="translate(3.44)"/></g><g transform="translate(139.64 5769.559)"><path class="e" d="M5.726-1.89q.294.252.588.539t.616.609L5.894.392a8.453,8.453,0,0,0-.707-.833Q4.8-.84,4.41-1.232l.658-.658h-1.9l.9.714q-.2.308-.469.665T3.01.2Q2.7.56,2.387.889a8.075,8.075,0,0,1-.595.567L.658.266q.266-.21.553-.483t.567-.567q.28-.294.532-.581t.434-.525H.63V-3.36H1.89V-8.428H1.148V-9.884H1.89v-1.162l1.512.084v1.078H5.138v-1.162l1.526.084v1.078h.714v1.456H6.664V-3.36h.644v1.47ZM12.46-10.7V-.546a3.34,3.34,0,0,1-.091.854,1.258,1.258,0,0,1-.28.539,1.084,1.084,0,0,1-.476.294,3.5,3.5,0,0,1-.679.133l-.714.07-.476-1.5.6-.056a.608.608,0,0,0,.511-.245,1.685,1.685,0,0,0,.133-.805V-2.534H9.268A9.65,9.65,0,0,1,9.1-1.379a7.328,7.328,0,0,1-.287,1,6.375,6.375,0,0,1-.441.945q-.266.469-.616,1L6.272.77A9.113,9.113,0,0,0,7.133-.553a5.481,5.481,0,0,0,.476-1.33,9.708,9.708,0,0,0,.2-1.673q.042-.952.042-2.38V-10.7ZM9.352-8.918v1.6H10.99v-1.6Zm-5.95.49v.742H5.138v-.742Zm0,2.912H5.138v-.742H3.4ZM10.99-4.13V-5.768H9.352v1.162q0,.238-.014.476ZM3.4-3.36H5.138v-.728H3.4Z" transform="translate(0 15)"/></g><line class="c" x2="9.801" transform="translate(156.111 5774.684)"/><line class="c" x2="5.801" transform="translate(156.111 5779.56)"/><line class="c" x2="3.801" transform="translate(156.111 5784.437)"/><rect class="e" width="4" height="4" rx="1" transform="translate(142.025 5763.334)"/><rect class="e" width="4" height="4" rx="1" transform="translate(149.025 5763.334)"/><rect class="e" width="4" height="4" rx="1" transform="translate(156.025 5763.334)"/></g><g transform="translate(136 5808.469)"><path class="f" d="M13946.475,22306.434a15,15,0,0,1,13.523-8.5h26a15,15,0,0,1,13.232,7.928,42.007,42.007,0,0,1-52.755.572Z" transform="translate(-13946.475 -22297.934)"/><path class="e" d="M-8.685-1.4q-.4-.77-.9-1.639A20.58,20.58,0,0,1-10.792-1.37q-.682.854-1.568,1.821L-13.875-.823a27.3,27.3,0,0,0,1.793-2.059,18.6,18.6,0,0,0,1.387-2.031q-.615-.981-1.207-1.856T-12.975-8.3l1.44-.924q.375.518.81,1.163t.915,1.373A13.645,13.645,0,0,0-9-9.508h-3.93v-1.779h5.7v1.779a23.581,23.581,0,0,1-.54,2.521A13.74,13.74,0,0,1-8.58-4.8q.375.588.713,1.163T-7.23-2.56Zm5.79-2.213A12.425,12.425,0,0,0,.375-.683L-.93.8a15.455,15.455,0,0,1-1.7-1.394A14.511,14.511,0,0,1-4.02-2.112,15.79,15.79,0,0,1-7.74.9L-9.165-.585A18.724,18.724,0,0,0-6.787-2.133,11.382,11.382,0,0,0-5.07-3.765,13.222,13.222,0,0,1-6.112-6.286,19.05,19.05,0,0,1-6.72-9.144l1.68-.28A20.024,20.024,0,0,0-4.62-7.3a11.166,11.166,0,0,0,.66,1.87A11.6,11.6,0,0,0-3.2-7.323a18.5,18.5,0,0,0,.517-2.213H-6.87v-1.751H-.855v1.751a21.148,21.148,0,0,1-.787,3.243A12.805,12.805,0,0,1-2.895-3.611Zm12.915.462a11.609,11.609,0,0,0,1.545.889,18.558,18.558,0,0,0,1.935.791L12.63.115q-.855-.35-1.575-.7T9.72-1.313a10.612,10.612,0,0,1-1.132-.8,9.086,9.086,0,0,1-.967-.91v1.863a2.854,2.854,0,0,1-.1.812A1.132,1.132,0,0,1,7.2.178a1.352,1.352,0,0,1-.593.294A5.684,5.684,0,0,1,5.7.606L4.635.676,4.1-.963l.975-.056a.913.913,0,0,0,.668-.224,1.036,1.036,0,0,0,.157-.644v-.826q-1.125.672-2.43,1.373T.915-.039L.03-1.58q.855-.364,1.717-.791t1.7-.875q-.21-.182-.495-.42T2.37-4.129q-.3-.224-.585-.42t-.48-.322l.645-.812H.54v-1.5H9.75v-.7H2.025v-1.5H9.75v-.686H1.62V-11.6h9.915v4.412H13.14v1.5H11.58l.765.939q-.48.322-1.1.756T10.02-3.148ZM5.895-3.527V-5.684H3.015q.42.28.87.609t.765.609L3.81-3.457l.818-.462q.4-.224.773-.462ZM8.67-4.3q.51-.322,1.042-.686t.968-.7H7.665A6.574,6.574,0,0,0,8.67-4.3Z" transform="translate(26.521 14.443)"/></g></g></svg>