<svg xmlns="http://www.w3.org/2000/svg" xmlns:xlink="http://www.w3.org/1999/xlink" width="84" height="84" viewBox="0 0 84 84"><defs><style>.a{fill:url(#a);}.b{fill:rgba(255,255,255,0);}.c,.e,.g{fill:none;}.c,.e{stroke:#fff;stroke-width:2px;}.c{stroke-linecap:round;}.d{fill:#fff;}.f{stroke:none;}</style><linearGradient id="a" x1="0.5" y1="-0.069" x2="0.5" y2="1.075" gradientUnits="objectBoundingBox"><stop offset="0" stop-color="#20ceff"/><stop offset="1" stop-color="#208bff"/></linearGradient></defs><g transform="translate(-1122 -1182)"><g transform="translate(1002 -4560)"><path class="a" d="M42,0A42,42,0,1,1,0,42,42,42,0,0,1,42,0Z" transform="translate(120 5742)"/><rect class="b" width="48" height="48" transform="translate(138 5760)"/></g><g transform="translate(0 -4560)"><path class="c" d="M35.145,1h2.812a1.766,1.766,0,0,1,1.766,1.766v25.26a1.766,1.766,0,0,1-1.766,1.766H1.766A1.766,1.766,0,0,1,0,28.026V24.038" transform="translate(1182.293 5796.844) rotate(180)"/><path class="c" d="M24.619,30.885H2a2.068,2.068,0,0,1-2-2.13V21.089s5.479-.323,5.479-5.828S0,9.341,0,9.341V2.13A2.068,2.068,0,0,1,2,0H37a2.068,2.068,0,0,1,2,2.13V9.341s-4.832.669-4.848,6.556" transform="translate(1146.43 5772.004)"/><g transform="translate(-0.769 -0.094)"><g transform="translate(1157.597 5779.122)"><path class="d" d="M16.957-6V-4.34H5.26V-6H9.913v-.62H6.319V-8.227H9.913v-.6h-3.8v-1.642h3.8V-11.9l2.171.091v1.332h4.069v1.642H12.085v.6h3.54v1.606h-3.54V-6ZM6.027-11.366q-.292,1.04-.6,1.98T4.749-7.552v11.9h-2.1V-3.647q-.31.474-.657.931L.315-4.231A14.7,14.7,0,0,0,1.328-5.755q.52-.885,1.013-1.9t.9-2.071a17.96,17.96,0,0,0,.666-2.062ZM13.636,1.207q.766.365,1.5.739l1.3.666-.839,1.953q-.438-.255-1.031-.593t-1.223-.684q-.63-.347-1.25-.675t-1.113-.584a3.722,3.722,0,0,1-.757.757,7.054,7.054,0,0,1-1.058.648,14.433,14.433,0,0,1-1.405.611q-.794.3-1.8.648l-.8-2.044a20.338,20.338,0,0,0,2.509-.8,5.226,5.226,0,0,0,1.405-.8,2.112,2.112,0,0,0,.648-.9A5.4,5.4,0,0,0,9.95-.946q.018-.128.027-.3t.009-.3l1.916.128q0,.182-.009.347t-.027.31q-.036.292-.073.547T11.72.276q.365.182.794.383T13.4,1.1V-1.968H8.545v3.23H6.5V-3.7h8.923V1.207Z" transform="translate(-0.446 11.765)"/><path class="d" d="M22971.17,16800.373h-4a2,2,0,0,1-2-2v-7a2,2,0,0,1,2-2h10v5A6.01,6.01,0,0,1,22971.17,16800.373Zm.375-4.111v2.658h.9v-2.52a7.817,7.817,0,0,0,1.051,1.107,10.178,10.178,0,0,0,1.365.986l.508-.889a12.655,12.655,0,0,1-1.545-.945,5.317,5.317,0,0,1-1.113-1.1h2.186v-.865h-2.451v-.969l-.9-.033v1h-2.354v.865h1.984a5.352,5.352,0,0,1-.484.582,6.388,6.388,0,0,1-.564.531,6.914,6.914,0,0,1-.7.514c-.25.166-.547.342-.881.523l.512.832c.287-.191.549-.379.8-.572.275-.217.479-.387.656-.553a7.839,7.839,0,0,0,.549-.561c.191-.219.344-.406.477-.59Zm-3.553-.9c-.059.23-.121.465-.2.736-.025.092-.051.182-.078.275-.059.2-.117.408-.182.617l-.078.244c-.066.211-.135.426-.205.633-.09.262-.178.492-.26.686l.883.283c.1-.26.188-.521.277-.795s.184-.553.271-.832c.068-.225.145-.48.242-.83l.035-.133.018-.072c.051-.2.1-.389.137-.572Zm-.646-2.658-.535.707c.146.107.273.209.387.311l.02.018.09.072c.113.092.232.189.346.291.141.119.3.262.443.4.105.094.207.191.313.293l.057.053.52-.83-.078-.072-.031-.025c-.072-.064-.152-.135-.242-.209l-.068-.059-.031-.025c-.107-.09-.219-.182-.334-.273-.145-.117-.285-.227-.422-.332l-.031-.025C22967.58,16792.871,22967.453,16792.779,22967.346,16792.707Zm3.842-.584a8.6,8.6,0,0,1-.963.846c-.371.283-.719.527-1.062.75l.508.773c.4-.275.756-.545,1.09-.824.377-.311.7-.592.975-.859Zm1.5.018-.461.7c.119.07.264.168.443.291l.041.025c.184.125.373.26.582.416l.33.242.006.006c.088.063.172.125.258.186l.076.063.094.074c.121.1.225.18.316.26l.455-.785c-.111-.1-.26-.219-.455-.363-.254-.184-.432-.307-.59-.414-.133-.09-.264-.176-.391-.26l-.072-.049-.137-.09C22972.99,16792.314,22972.826,16792.219,22972.686,16792.141Zm-2.588-.416h3.84v.945h.877v-1.816h-5.594v.975h0v.83h.877v-.934Zm-2.457-1.148-.547.732c.086.068.2.152.363.277.055.041.109.086.166.131l.129.105c.047.037.094.078.143.115.125.105.289.244.438.381.092.082.174.158.25.227.031.031.063.059.092.088l.027.025.518-.83c-.111-.1-.238-.211-.367-.318l-.164-.137-.262-.215c-.137-.111-.281-.219-.428-.322-.105-.078-.2-.148-.283-.207l-.014-.012Z" transform="translate(-22976 -16796.9)"/></g></g><g transform="translate(1006.727 8.342)"><g class="e" transform="translate(166.09 5781.674)"><circle class="f" cx="8.881" cy="8.881" r="8.881"/><circle class="g" cx="8.881" cy="8.881" r="7.881"/></g></g><g transform="translate(-0.3)"><rect class="d" width="2" height="7.23" transform="translate(1179 5795.385)"/><rect class="d" width="2" height="7.23" transform="translate(1183 5795.385)"/></g></g></g></svg>