<svg xmlns="http://www.w3.org/2000/svg" xmlns:xlink="http://www.w3.org/1999/xlink" width="84" height="84" viewBox="0 0 84 84"><defs><style>.a{fill:url(#a);}.b{fill:rgba(255,255,255,0);}.c,.e{fill:#fff;}.d{fill:none;stroke-linecap:round;stroke-width:1.5px;}.d,.e{stroke:#fff;}.e{stroke-width:0.5px;}</style><linearGradient id="a" x1="0.5" y1="-0.128" x2="0.5" y2="1.13" gradientUnits="objectBoundingBox"><stop offset="0" stop-color="#ffce47"/><stop offset="1" stop-color="#da9c53"/></linearGradient></defs><g transform="translate(-120 -5742)"><path class="a" d="M42,0A42,42,0,1,1,0,42,42,42,0,0,1,42,0Z" transform="translate(120 5742)"/><rect class="b" width="48" height="48" transform="translate(138 5760)"/><g transform="translate(117.439 5707.4)"><path class="c" d="M174.609,514.071H164.2a1.1,1.1,0,1,1,0-2.2h9.142a5.257,5.257,0,0,0-1.339-2.16,4.762,4.762,0,0,0-3.26-1.509h-5.869a1.1,1.1,0,0,1-.912-.486,10.178,10.178,0,0,0-7.891-3.916H152.6a1.1,1.1,0,1,1,0-2.2h1.467a12.567,12.567,0,0,1,9.363,4.4h5.31a7.379,7.379,0,0,1,6.969,6.969,1.1,1.1,0,0,1-1.1,1.1Z" transform="translate(-122.131 -427.459)"/><path class="c" d="M165.921,675.818a7.409,7.409,0,0,1-3.31-.779,0,0,0,0,1,0,0L152.092,669.7a1.1,1.1,0,0,1,1-1.962l10.5,5.332a5.2,5.2,0,0,0,4.255.179l19.854-8.061c-.573-.587-1.784-1.284-4.3-1.284l-8.932,1.632a1.1,1.1,0,1,1,0-2.2L183.4,661.7a8.18,8.18,0,0,1,5.672,1.756,4,4,0,0,1,1.279,2.077,1.1,1.1,0,0,1-.669,1.224l-21.009,8.528h0A7.341,7.341,0,0,1,165.921,675.818ZM188.2,665.964Z" transform="translate(-122.123 -580.218)"/><path class="c" d="M637.959,258.517a6.459,6.459,0,1,1,6.459-6.459A6.467,6.467,0,0,1,637.959,258.517Zm0-11.159a4.829,4.829,0,0,0-4.6,4.7,4.931,4.931,0,0,0,4.6,4.811,5.022,5.022,0,0,0,4.7-4.811A4.92,4.92,0,0,0,637.959,247.358Z" transform="translate(-577.922 -178.486)"/><path class="c" d="M30.469,458.875H24.6a1.1,1.1,0,0,1-1.1-1.1V438.7a1.1,1.1,0,0,1,1.1-1.1h5.869a1.1,1.1,0,0,1,1.1,1.1v19.074A1.1,1.1,0,0,1,30.469,458.875Zm-4.769-2.2h3.668V439.8H25.7Z" transform="translate(0 -366.393)"/><line class="d" x2="5.909" transform="translate(57.95 71.485) rotate(45)"/><g transform="translate(-132.462 -5727.554)"><path class="e" d="M140.3,146.148c-4.068,0-6.193,1.608-6.193,3.2v8.537c0,1.588,2.128,3.2,6.193,3.2,4.037,0,6.16-1.586,6.193-3.164h0v-8.572c0-1.588-2.126-3.2-6.195-3.2Zm0,1.683c3.007,0,4.558,1.061,4.558,1.514s-1.551,1.515-4.558,1.515-4.557-1.063-4.557-1.515,1.551-1.515,4.557-1.515Zm0,11.566c-3.007,0-4.557-1.061-4.557-1.515v-2.039a11.214,11.214,0,0,0,9.114,0v2.039c0,.451-1.552,1.514-4.559,1.514Zm0-4.271c-3.007,0-4.557-1.063-4.557-1.515v-2.039a11.2,11.2,0,0,0,9.114,0v2.039c0,.451-1.552,1.514-4.559,1.514Z" transform="translate(40.47 5643.207)"/><path class="e" d="M141.358,145.957v.822h1.4v-3.112c0-2.539-4.041-3.9-7.844-3.9s-7.847,1.37-7.847,3.9v11.51c0,2.539,3.047,3.906,6.849,3.906v-1.458c-3.994,0-5.451-1.425-5.451-2.447v-3.46a8.654,8.654,0,0,0,5.451,1.613v-1.462c-3.994,0-5.451-1.426-5.451-2.447v-3.464a14.973,14.973,0,0,0,5.612,1.308c.056.007.446.011.837,0a15.223,15.223,0,0,0,6.444-1.308Zm-6.446-4.738c3.993,0,6.446,1.425,6.446,2.446s-2.453,2.447-6.446,2.447-6.445-1.425-6.445-2.447,2.453-2.447,6.444-2.447Z" transform="translate(41.729 5643.912)"/></g><line class="d" y2="5.909" transform="translate(62.127 71.485) rotate(45)"/></g></g></svg>