<svg xmlns="http://www.w3.org/2000/svg" xmlns:xlink="http://www.w3.org/1999/xlink" width="84" height="84" viewBox="0 0 84 84">
  <defs>
    <linearGradient id="linear-gradient" x1="0.5" y1="-0.069" x2="0.5" y2="1.075" gradientUnits="objectBoundingBox">
      <stop offset="0" stop-color="#20ceff"/>
      <stop offset="1" stop-color="#208bff"/>
    </linearGradient>
  </defs>
  <g id="icon-biz-fxjs" transform="translate(-1122 -1182)">
    <g id="组_30024" data-name="组 30024" transform="translate(1002 -4560)">
      <path id="路径_12969" data-name="路径 12969" d="M42,0A42,42,0,1,1,0,42,42,42,0,0,1,42,0Z" transform="translate(120 5742)" fill="url(#linear-gradient)"/>
      <rect id="矩形_12172" data-name="矩形 12172" width="48" height="48" transform="translate(138 5760)" fill="rgba(255,255,255,0)"/>
    </g>
    <g id="组_30142" data-name="组 30142">
      <g id="组_30111" data-name="组 30111" transform="translate(1001.588 -4550.418)">
        <path id="路径_12973" data-name="路径 12973" d="M14.471-3H30.956a1.766,1.766,0,0,1,1.766,1.766v34.26a1.766,1.766,0,0,1-1.766,1.766H1.766A1.766,1.766,0,0,1,0,33.026V11.446" transform="translate(177.722 5790.42) rotate(180)" fill="none" stroke="#fff" stroke-linecap="round" stroke-width="2"/>
        <path id="路径_13004" data-name="路径 13004" d="M0,0H13.406" transform="translate(151.111 5778.693)" fill="none" stroke="#fff" stroke-linecap="round" stroke-width="2"/>
        <line id="直线_366" data-name="直线 366" x2="10.801" transform="translate(151.111 5784.568)" fill="none" stroke="#fff" stroke-linecap="round" stroke-width="2"/>
        <path id="路径_13003" data-name="路径 13003" d="M150.023,5769.978l5.387-3.609,5.78,3.609,9.057-7.537" transform="translate(1.889 4.546)" fill="none" stroke="#fff" stroke-linecap="round" stroke-width="2"/>
        <g id="组_30112" data-name="组 30112" transform="translate(1.758 3.16)">
          <text id="_ST" data-name="*ST" transform="translate(147.861 5765.658)" fill="#fff" font-size="11" font-family="AlibabaPuHuiTi-Bold, Alibaba PuHuiTi" font-weight="700"><tspan x="0" y="0">*ST</tspan></text>
        </g>
      </g>
      <g id="椭圆_791" data-name="椭圆 791" transform="translate(1166.574 1230.016)" fill="none" stroke="#fff" stroke-width="2">
        <circle cx="8.881" cy="8.881" r="8.881" stroke="none"/>
        <circle cx="8.881" cy="8.881" r="7.881" fill="none"/>
      </g>
      <g id="组_30113" data-name="组 30113" transform="translate(1172.09 1235.455)">
        <line id="直线_363" data-name="直线 363" x2="6.879" transform="translate(0.001 3.44)" fill="none" stroke="#fff" stroke-linecap="round" stroke-width="2"/>
        <line id="直线_364" data-name="直线 364" y2="6.879" transform="translate(3.44 0)" fill="none" stroke="#fff" stroke-linecap="round" stroke-width="2"/>
      </g>
    </g>
  </g>
</svg>
