<svg xmlns="http://www.w3.org/2000/svg" xmlns:xlink="http://www.w3.org/1999/xlink" width="84" height="84" viewBox="0 0 84 84"><defs><style>.a{fill:url(#a);}.b{fill:rgba(255,255,255,0);}.c,.d,.g{fill:none;}.c,.d{stroke:#fff;stroke-width:2px;}.d{stroke-linecap:round;}.e{fill:#fff;}.f{stroke:none;}</style><linearGradient id="a" x1="0.5" y1="-0.128" x2="0.5" y2="1.13" gradientUnits="objectBoundingBox"><stop offset="0" stop-color="#ffce47"/><stop offset="1" stop-color="#da9c53"/></linearGradient></defs><g transform="translate(-120 -5742)"><path class="a" d="M42,0A42,42,0,1,1,0,42,42,42,0,0,1,42,0Z" transform="translate(120 5742)"/><rect class="b" width="48" height="48" transform="translate(138 5760)"/><g transform="translate(1.453 6.342)"><g class="c" transform="translate(166.022 5782.808)"><circle class="f" cx="8.763" cy="8.763" r="8.763"/><circle class="g" cx="8.763" cy="8.763" r="7.763"/></g><path class="d" d="M38.988,12.143l2.185,5.336a1.747,1.747,0,0,1,0,1.734l-9.485,16.6a1.747,1.747,0,0,1-1.517.88H11.232a1.747,1.747,0,0,1-1.517-.88L.23,19.213a1.747,1.747,0,0,1,0-1.734L9.715.88A1.747,1.747,0,0,1,11.232,0H23.541" transform="translate(176.941 5756.467) rotate(90)"/><g transform="translate(151.09 5761.479)"><path class="e" d="M6.053-2.321q-.142-.269-.364-.6T5.23-3.6V2.062H3.363V-3.08q-.411.728-.854,1.408a13.356,13.356,0,0,1-.9,1.234L.42-2.147A22.607,22.607,0,0,0,1.8-4.014,22.421,22.421,0,0,0,3.047-6.1H1.116v-1.93H3.363v-1.25q-.538.079-1.036.158T1.4-9l-.19-1.851q.6-.079,1.337-.2t1.5-.261q.759-.142,1.5-.3t1.337-.316l.332,1.867q-.411.111-.918.214t-1.06.229v1.582H7.4V-6.1H5.23v.9l.554-.4.348.467q.206.277.419.578t.419.593q.206.293.364.514ZM12.92,1.9,12.556.717q-.443.047-.965.111T10.523.962q-.546.071-1.084.134t-.981.127q-.411.047-.839.111t-.839.158L6.132-.39a2.636,2.636,0,0,0,.364-.2.614.614,0,0,0,.2-.222,1.411,1.411,0,0,0,.119-.34q.047-.206.142-.538.269-.854.6-2.041t.68-2.54q.348-1.353.68-2.8t.6-2.84l1.93.4q-.285,1.377-.633,2.9T10.1-5.636q-.364,1.448-.72,2.729T8.743-.754Q9.391-.8,10.27-.913t1.7-.222q-.19-.6-.4-1.21t-.388-1.171q-.182-.562-.348-1.044t-.293-.831l1.725-.617q.285.791.617,1.709t.665,1.867q.332.949.641,1.875t.546,1.7Z" transform="translate(-0.372 15.636)"/></g><path class="d" d="M152.023,5771.759l5.517-5.3,5.517,5.3,14.526-10.318" transform="translate(-5.298 15.577)"/><g transform="matrix(0.966, 0.259, -0.259, 0.966, 168.655, 5775.591)"><path class="d" d="M4.193,0H0"/><path class="d" d="M4.035,0H0" transform="translate(4.192 4.036) rotate(-90)"/></g><path class="e" d="M5.517-5.267H7.012v.988H5.036v.884H7.012v.988H5.036V-.2H3.255v-2.21H1.279v-.988H3.255v-.884H1.279v-.988H2.787L.848-8.635.512-9.219H2.54l1.6,3.224H4.23L5.881-9.219H7.857Z" transform="translate(170.547 5796.658)"/></g></g></svg>