<svg xmlns="http://www.w3.org/2000/svg" xmlns:xlink="http://www.w3.org/1999/xlink" width="84" height="84" viewBox="0 0 84 84">
  <defs>
    <linearGradient id="linear-gradient" x1="0.5" y1="1" x2="0.5" gradientUnits="objectBoundingBox">
      <stop offset="0" stop-color="#4141d7"/>
      <stop offset="1" stop-color="#2073ff"/>
    </linearGradient>
  </defs>
  <g id="双录-股票质押回购交易权限开通" transform="translate(-120 -5742)">
    <path id="路径_12969" data-name="路径 12969" d="M42,0A42,42,0,1,1,0,42,42,42,0,0,1,42,0Z" transform="translate(120 5742)" opacity="0.795" fill="url(#linear-gradient)"/>
    <rect id="矩形_12171" data-name="矩形 12171" width="48" height="48" transform="translate(138 5760)" fill="rgba(255,255,255,0)"/>
    <g id="组_30030" data-name="组 30030" transform="translate(3.045 7.682)">
      <path id="路径_12973" data-name="路径 12973" d="M16.471,0H37.956a1.766,1.766,0,0,1,1.766,1.766v26.26a1.766,1.766,0,0,1-1.766,1.766H1.766A1.766,1.766,0,0,1,0,28.026V16.446" transform="translate(177.722 5790.42) rotate(180)" fill="none" stroke="#fff" stroke-linecap="round" stroke-width="2"/>
      <g id="椭圆_784" data-name="椭圆 784" transform="translate(163.428 5777.172)" fill="none" stroke="#fff" stroke-width="2">
        <circle cx="10.241" cy="10.241" r="10.241" stroke="none"/>
        <circle cx="10.241" cy="10.241" r="9.241" fill="none"/>
      </g>
      <g id="组_30026" data-name="组 30026" transform="translate(169.79 5783.446)">
        <line id="直线_363" data-name="直线 363" x2="7.933" transform="translate(0 3.967)" fill="none" stroke="#fff" stroke-linecap="round" stroke-width="2"/>
        <line id="直线_364" data-name="直线 364" y2="7.933" transform="translate(3.967 0)" fill="none" stroke="#fff" stroke-linecap="round" stroke-width="2"/>
      </g>
      <path id="路径_17561" data-name="路径 17561" d="M149.264,5771.18H166.37l4.3-6.271,3.919,4.324,5.161-7.828" transform="translate(-5.367 6.345)" fill="none" stroke="#fff" stroke-linecap="round" stroke-width="2"/>
      <path id="路径_17860" data-name="路径 17860" d="M228.062,371.435a.894.894,0,0,1-.9-.9V366.98a.9.9,0,1,1,1.8,0v3.555A.9.9,0,0,1,228.062,371.435Zm3.757,0a.894.894,0,0,1-.9-.9V366.98a.9.9,0,1,1,1.8,0v3.555A.911.911,0,0,1,231.819,371.435Z" transform="translate(-70.321 5414.669)" fill="#fff"/>
      <path id="路径_17898" data-name="路径 17898" d="M2.7-5q0,1.045-.072,1.815a9.527,9.527,0,0,1-.228,1.4,7.114,7.114,0,0,1-.4,1.174A11.5,11.5,0,0,1,1.411.534L.242-.117q.362-.61.605-1.1a5.366,5.366,0,0,0,.383-1,6.738,6.738,0,0,0,.2-1.153q.057-.636.057-1.557v-3.3q.807-.01,1.779-.057T5.227-8.4q.993-.067,1.944-.15t1.717-.165L9.126-7.5q-.662.072-1.515.14t-1.732.129q-.879.062-1.712.1T2.7-7.068Zm3.93-.4v.558H8.847v3.268H7.627v-2.1H4.358v2.12h-1.2V-4.844H5.393V-5.4H2.838V-6.53H5.393V-7.15L6.634-7.1v.569H9.468V-5.4ZM9.106.617Q8.847.462,8.454.265T7.621-.143q-.44-.212-.884-.414T5.93-.914A3.482,3.482,0,0,1,4.71-.06,14.344,14.344,0,0,1,2.745.617L2.3-.552Q3.21-.79,3.784-1a3.586,3.586,0,0,0,.91-.465,1.521,1.521,0,0,0,.486-.584,2.673,2.673,0,0,0,.2-.817,2.526,2.526,0,0,0,.026-.305q.005-.171.016-.274l1.21.052q-.01.083-.016.2t-.026.378a5.243,5.243,0,0,1-.124.858q.372.155.812.346t.869.383q.429.191.807.367t.636.31ZM13.046-7.15h.776v1.272h-.776v1.107q.176-.062.346-.129t.315-.119l.031.579.052.693q-.155.062-.346.129t-.4.15v2.7A3.226,3.226,0,0,1,13-.19a.637.637,0,0,1-.165.341.7.7,0,0,1-.346.176,5.411,5.411,0,0,1-.574.093l-.652.072L10.916-.738,11.484-.8a.507.507,0,0,0,.3-.093.439.439,0,0,0,.072-.3V-3.034q-.31.114-.584.207l-.481.165-.228-1.262,1.293-.434v-1.52h-.931V-7.15h.931v-1.52l1.189.052Zm6.4,5.182h-2.11V.472H16.2V-1.969H14.07V-8.36h5.378ZM15.208-7.15V-5.8H16.2V-7.15Zm3.1,0h-.972V-5.8h.972ZM16.2-3.179V-4.585h-.993v1.407Zm2.11,0V-4.585h-.972v1.407Z" transform="translate(142.202 5773.559)" fill="#fff"/>
      <path id="路径_17899" data-name="路径 17899" d="M20.086.39a.39.39,0,0,0-.622-.314L15.29,3.166A.39.39,0,0,0,15.3,3.8l4.174,2.948a.39.39,0,0,0,.615-.319V4.521q.586-.065,3.412-.065c2.826,0,3.75,1.305,3.961,1.527Q27.145,2.357,23.5,2.378H20.086V.39Z" transform="translate(127.315 5780.018)" fill="#fff"/>
    </g>
    <g id="icon-meun-shuanglu" transform="translate(136 5808.469)">
      <path id="交叉_1" data-name="交叉 1" d="M13946.475,22306.434a15,15,0,0,1,13.523-8.5h26a15,15,0,0,1,13.232,7.928,42.007,42.007,0,0,1-52.755.572Z" transform="translate(-13946.475 -22297.934)" fill="rgba(255,255,255,0.35)"/>
      <path id="路径_17893" data-name="路径 17893" d="M-8.685-1.4q-.4-.77-.9-1.639A20.58,20.58,0,0,1-10.792-1.37q-.682.854-1.568,1.821L-13.875-.823a27.3,27.3,0,0,0,1.793-2.059,18.6,18.6,0,0,0,1.387-2.031q-.615-.981-1.207-1.856T-12.975-8.3l1.44-.924q.375.518.81,1.163t.915,1.373A13.645,13.645,0,0,0-9-9.508h-3.93v-1.779h5.7v1.779a23.581,23.581,0,0,1-.54,2.521A13.74,13.74,0,0,1-8.58-4.8q.375.588.713,1.163T-7.23-2.56Zm5.79-2.213A12.425,12.425,0,0,0,.375-.683L-.93.8a15.455,15.455,0,0,1-1.7-1.394A14.511,14.511,0,0,1-4.02-2.112,15.79,15.79,0,0,1-7.74.9L-9.165-.585A18.724,18.724,0,0,0-6.787-2.133,11.382,11.382,0,0,0-5.07-3.765,13.222,13.222,0,0,1-6.112-6.286,19.05,19.05,0,0,1-6.72-9.144l1.68-.28A20.024,20.024,0,0,0-4.62-7.3a11.166,11.166,0,0,0,.66,1.87A11.6,11.6,0,0,0-3.2-7.323a18.5,18.5,0,0,0,.517-2.213H-6.87v-1.751H-.855v1.751a21.148,21.148,0,0,1-.787,3.243A12.805,12.805,0,0,1-2.895-3.611Zm12.915.462a11.609,11.609,0,0,0,1.545.889,18.558,18.558,0,0,0,1.935.791L12.63.115q-.855-.35-1.575-.7T9.72-1.313a10.612,10.612,0,0,1-1.132-.8,9.086,9.086,0,0,1-.967-.91v1.863a2.854,2.854,0,0,1-.1.812A1.132,1.132,0,0,1,7.2.178a1.352,1.352,0,0,1-.593.294A5.684,5.684,0,0,1,5.7.606L4.635.676,4.1-.963l.975-.056a.913.913,0,0,0,.668-.224,1.036,1.036,0,0,0,.157-.644v-.826q-1.125.672-2.43,1.373T.915-.039L.03-1.58q.855-.364,1.717-.791t1.7-.875q-.21-.182-.495-.42T2.37-4.129q-.3-.224-.585-.42t-.48-.322l.645-.812H.54v-1.5H9.75v-.7H2.025v-1.5H9.75v-.686H1.62V-11.6h9.915v4.412H13.14v1.5H11.58l.765.939q-.48.322-1.1.756T10.02-3.148ZM5.895-3.527V-5.684H3.015q.42.28.87.609t.765.609L3.81-3.457l.818-.462q.4-.224.773-.462ZM8.67-4.3q.51-.322,1.042-.686t.968-.7H7.665A6.574,6.574,0,0,0,8.67-4.3Z" transform="translate(26.521 14.443)" fill="#fff"/>
    </g>
  </g>
</svg>
