<svg xmlns="http://www.w3.org/2000/svg" xmlns:xlink="http://www.w3.org/1999/xlink" width="109" height="109" viewBox="0 0 109 109"><defs><style>.a,.c{fill:#fff;}.a{stroke:rgba(0,0,0,0);stroke-miterlimit:10;}.b{fill:url(#c);}.d{filter:url(#a);}</style><filter id="a" x="0" y="0" width="109" height="109" filterUnits="userSpaceOnUse"><feOffset dy="4" input="SourceAlpha"/><feGaussianBlur stdDeviation="6" result="b"/><feFlood flood-opacity="0.051"/><feComposite operator="in" in2="b"/><feComposite in="SourceGraphic"/></filter><linearGradient id="c" x1="0.5" x2="0.5" y2="1" gradientUnits="objectBoundingBox"><stop offset="0" stop-color="#a184ff"/><stop offset="1" stop-color="#6e79ff"/></linearGradient></defs><g transform="translate(24.955 20.5)"><g class="d" transform="matrix(1, 0, 0, 1, -24.96, -20.5)"><circle class="a" cx="36" cy="36" r="36" transform="translate(18.5 14.5)"/></g><circle class="b" cx="30" cy="30" r="30" transform="translate(-0.455 0)"/><g transform="translate(15.044 15.469)"><path class="c" d="M661.9,648.681l.788,4.117a.217.217,0,0,1-.017.118l-.018.022-1.4,1.344a.135.135,0,0,1-.188.026l-.03-.026-1.4-1.344a.16.16,0,0,1-.035-.118v-.026l.788-4.117H661.9Zm.162-1.881c.109,0,.149.07.149.175l-.258,1.238h-1.623l-.258-1.238a.157.157,0,0,1,.149-.175Z" transform="translate(-636.341 -626.374)"/><path class="c" d="M16.121,29.061H3.193A3.214,3.214,0,0,1,0,25.832V3.225A3.213,3.213,0,0,1,3.193,0H22.4a3.217,3.217,0,0,1,3.2,3.225V9.768A5.612,5.612,0,0,1,27.93,19.975a8.752,8.752,0,0,1,4.114,3.248A8.875,8.875,0,0,1,33.6,28.255a.8.8,0,0,1-.793.76.815.815,0,0,1-.8-.76,7.233,7.233,0,0,0-7.2-7.269c-.093,0-.185,0-.278,0a6.829,6.829,0,0,0-4.69,1.859,6.983,6.983,0,0,0-2.189,4.606,1.545,1.545,0,0,1-1.529,1.614ZM3.2,1.612A1.617,1.617,0,0,0,1.6,3.225V25.832a1.611,1.611,0,0,0,1.6,1.616H16.076a8.834,8.834,0,0,1,5.594-7.473,5.626,5.626,0,0,1-2.331-5.922A5.576,5.576,0,0,1,24,9.762V3.225a1.6,1.6,0,0,0-.466-1.139A1.622,1.622,0,0,0,22.4,1.612ZM24.8,11.29a4.039,4.039,0,1,0,4,4.037A4.025,4.025,0,0,0,24.8,11.29Z" transform="translate(0 0)"/><path class="c" d="M259.5,343.264H246.432a.932.932,0,1,1,0-1.864H259.5a.932.932,0,1,1,0,1.864Zm-3.733,5.6h-9.333a.932.932,0,1,1,0-1.864h9.333a.932.932,0,1,1,0,1.864Zm-3.733,5.6h-5.6a.932.932,0,1,1,0-1.864h5.6a.932.932,0,1,1,0,1.864Z" transform="translate(-240.361 -334.338)"/></g></g></svg>