<svg xmlns="http://www.w3.org/2000/svg" xmlns:xlink="http://www.w3.org/1999/xlink" width="84" height="84" viewBox="0 0 84 84"><defs><style>.a{fill:url(#a);}.b{fill:rgba(255,255,255,0);}.c{fill:none;stroke:#fff;stroke-linecap:round;stroke-linejoin:round;stroke-miterlimit:10;stroke-width:2px;}.d{fill:#fff;}</style><linearGradient id="a" x1="0.5" y1="-0.128" x2="0.5" y2="1.13" gradientUnits="objectBoundingBox"><stop offset="0" stop-color="#ffce47"/><stop offset="1" stop-color="#da9c53"/></linearGradient></defs><g transform="translate(-120 -5742)"><path class="a" d="M42,0A42,42,0,1,1,0,42,42,42,0,0,1,42,0Z" transform="translate(120 5742)"/><rect class="b" width="48" height="48" transform="translate(138 5760)"/><g transform="translate(140.189 5764.874)"><g transform="translate(1.811 5.209)"><path class="c" d="M20.805,17.221h0A2.813,2.813,0,0,1,18,14.415V8.805A2.813,2.813,0,0,1,20.805,6h0A2.813,2.813,0,0,1,23.61,8.805v5.61A2.813,2.813,0,0,1,20.805,17.221Z" transform="translate(4.663 -4.841)"/><g transform="translate(30.745 0)"><circle class="d" cx="2.401" cy="2.401" r="2.401" transform="translate(0.451 0.211)"/></g><g transform="translate(36.223 9.348)"><circle class="d" cx="2.5" cy="2.5" r="2.5" transform="translate(-0.223 -0.137)"/></g><line class="c" x1="7" y2="12" transform="translate(33 1.211)"/><path class="c" d="M20.233,6H4.805A2.813,2.813,0,0,0,2,8.805V31.246a2.813,2.813,0,0,0,2.805,2.805H38.467a2.813,2.813,0,0,0,2.805-2.805V21.428" transform="translate(-1.779 -4.841)"/><line class="c" x2="4" transform="translate(17.271 21.211)"/><line class="c" x2="4" transform="translate(25.271 21.211)"/><line class="c" x2="2" transform="translate(33 21.211)"/><line class="c" x2="17.5" transform="translate(1 7.211)"/><g transform="translate(9.213 11.842)"><path class="d" d="M7.621-3.6H9.745v1.4H6.938V-.946H9.745v1.4H6.938V3.6H4.408V.458H1.6v-1.4H4.408V-2.2H1.6V-3.6H3.743L.989-8.389.512-9.219H3.392l2.271,4.58h.129l2.345-4.58h2.807Z" transform="translate(-5.737 8.801)"/></g></g></g></g></svg>