<svg xmlns="http://www.w3.org/2000/svg" xmlns:xlink="http://www.w3.org/1999/xlink" width="121" height="120" viewBox="0 0 121 120"><defs><style>.a{fill:#fff;stroke:#707070;}.b{stroke:#fff;stroke-width:6px;fill:url(#a);}.c{clip-path:url(#b);}.d{fill:#282723;}.e{fill:#2975d9;}.f{fill:#e2c59c;}.g{fill:#e9d6b8;}.h{fill:#5dcfca;}.i{fill:#2c7eea;}.j{fill:#cdd5d7;}.k{fill:#e5e8ec;}.l{fill:#f7f8fc;}.m{fill:#30363d;}.n{fill:#484f59;}.o{fill:none;stroke:#fa0000;stroke-width:4px;}</style><linearGradient id="a" x1="-0.027" y1="-0.037" x2="1.027" y2="1.023" gradientUnits="objectBoundingBox"><stop offset="0" stop-color="#4d6fff"/><stop offset="1" stop-color="#38d9ff"/></linearGradient><clipPath id="b"><ellipse class="a" cx="54.5" cy="54" rx="54.5" ry="54" transform="translate(-2 21)"/></clipPath></defs><g transform="translate(3.445 2.613)"><ellipse class="b" cx="57.5" cy="57" rx="57.5" ry="57" transform="translate(-0.445 0.387)"/><g transform="translate(3.555 -15.613)"><g class="c" transform="translate(1 -2)"><g transform="translate(-8.398 54.42)"><path class="d" d="M169.7,290.148a12.264,12.264,0,0,0-5.387-2.834,11.918,11.918,0,1,0,8.923,14.84A14.392,14.392,0,0,1,169.7,290.148Z" transform="translate(-133.548 -274.477)"/><path class="e" d="M182.425,326.145c-.131-1.455,1.078-2.58,3.25-2.806,10.976-1.122,26.629,2.89,26.629,2.89s1.665,2.14.079,3.726c-1.907,1.9-9.331,4.225-24.576,2.775C183.381,332.3,182.647,328.6,182.425,326.145Z" transform="translate(-153.503 -296.316)"/><path class="f" d="M297.38,261.555s1.189-2.109,2.3-2.632c.765-.361,4.654-1.463,4.654-1.463a4.729,4.729,0,0,1-2.406,1.689A16.1,16.1,0,0,0,297.38,261.555Z" transform="translate(-224.585 -251)"/><path class="f" d="M300.634,256.915c.614-1.4,2.172-2.232,4.233-2.775a3.486,3.486,0,0,0,2.442-1.74,23.9,23.9,0,0,0-4.253,1.336c-.828.317-1.657.678-2.45,1.05C297.975,256.015,299.057,260.506,300.634,256.915Z" transform="translate(-225.572 -247.946)"/><path class="g" d="M292.613,266.936c1.07-.083,2.5-1.51,3.151-1.356a7.135,7.135,0,0,1,2.775,1.225c.087-2.247-3.068-2.707-4-3.718S289.854,267.146,292.613,266.936Z" transform="translate(-221.106 -254.316)"/><path class="g" d="M271.288,273.432c1.586-3.67,3.345-7.928,5.026-9.533,2.378-2.3,4.634-2.438,5.549-4.55a6.823,6.823,0,0,1,.4-.65c.345-.575.63-1.288.793-1.5s.836-.9.476-.741c-3.171,1.348-6.6,3.171-7.115,3.837-1.046,1.36-6.509,9.145-7.928,12.454C266.872,276.477,269.128,278.4,271.288,273.432Z" transform="translate(-206.813 -250.38)"/><path class="g" d="M301.451,253.283s-.753-.345-.519-.943a11.873,11.873,0,0,1,2.454-3c.626-.567,4.015-2.775,4.015-2.775a4.7,4.7,0,0,1-1.8,2.327A20.4,20.4,0,0,0,301.451,253.283Z" transform="translate(-226.702 -244.421)"/><path class="g" d="M259.734,285.483c.614,2.687.138,4.3,1.565,4.543,5.109-6.088,9.031-20.6,9.031-20.6Z" transform="translate(-201.648 -258.226)"/><path class="e" d="M260.3,294.631c-1.367-2.133-2.9-2.2-5.018-3.171-3.452,4.416-7.571,11.162-10.8,16.057-1.189,1.823.892,3.567,2.244,4.114,2.287.928,5.747-3.544,8.15-7.27C257.071,300.965,259.726,297.62,260.3,294.631Z" transform="translate(-190.754 -277.193)"/><path class="d" d="M127.638,281.786a15.982,15.982,0,0,0-2.592-.4,14.33,14.33,0,0,1-15.558,13.584,14.764,14.764,0,1,0,18.15-13.188Z" transform="translate(-109.474 -271.114)"/><path class="d" d="M170.089,265.916c.543,6.255-3.774,11.741-9.632,12.248s-11.051-4.158-11.6-10.413,3.777-11.745,9.64-12.248S169.55,259.641,170.089,265.916Z" transform="translate(-133.219 -255.466)"/><path class="g" d="M145.28,304.908s5.859,9.339,11.872,10.171,8.72-.666,9.359-3.1.468-7.083-.983-8.15a15.252,15.252,0,0,1-4.237-4.218c-1.118-1.7-1.11-4.994-.654-7.579s2.458-2.929.333-3.936-1.379-2.259-3.369-1.744-3.238-.147-3.072,1.792c.305,3.54,1.027,8.479-.753,10.928C151.8,301.8,149.719,302.748,145.28,304.908Z" transform="translate(-131.087 -274.04)"/><path class="g" d="M174.612,266.165c-.174-.032-.357-.055-.535-.075-.19,2.117-1.633,4.725-4.031,6.885a15.459,15.459,0,0,1-1.8,1.387l.17,1.95a5.5,5.5,0,0,0,10.952-.955l-.4-4.4A11.724,11.724,0,0,1,174.612,266.165Z" transform="translate(-144.952 -261.879)"/><path class="h" d="M164.359,341.11q-1.752-6.438-3.46-12.913a14.386,14.386,0,0,0-.927-2.537c.127,10.375-13.081,6.019-12.8,1.672-1.982,2.353-7.721,4.92-7.706,5.355.21,4.74.832,9.451,1.078,14.183a7.493,7.493,0,0,0,2.64,5.016,5.093,5.093,0,0,0-.087,1.17l-.059,2.32c.087,1.9-3.028,8.678-1.784,8.653l18.079-.606c1.241-.025,2.541-4.055,2.454-5.948l1.1-9.435a3.965,3.965,0,0,0-.056-.481C164.022,345.788,164.961,343.271,164.359,341.11Z" transform="translate(-127.58 -297.836)"/><path class="i" d="M146.872,323.21s-7.206-.083-8.756,3.322c-2.073,4.519-1.07,9.077-.365,12.109.817,3.528,1,8.177,2.188,12.716,1.443,5.518-2.775,10.853-1.9,9.87.174-.2,7.04-.741,10.532-2.672s.844-8.031.4-10.056c-1-4.574,2.3-13.98,1.34-17.623A32.32,32.32,0,0,0,146.872,323.21Z" transform="translate(-126.016 -296.357)"/><path class="i" d="M194.048,330.552a14.32,14.32,0,0,0-2.458-4.665c-1.019-1.467-4.705-3.128-4.11-2.989.083.024,4.075,1.748,3.734,14.971-.059,2.255-1.605,7.611-2.378,11.126s-1.586,10.028-1.586,10.028,3.718.817,3.881,1.371a28.91,28.91,0,0,1,.349-9.7C194.5,338.789,195.408,336.727,194.048,330.552Z" transform="translate(-156.421 -296.164)"/><path class="e" d="M141.4,336.815c-.1-1.5.749-5.43,3.738-4.939,13.081,2.148,37.656,9.838,37.656,9.838s1.645,2.711-.793,3.714c-3.1,1.268-12.506,2.886-33.561-1.05C142.339,343.24,141.554,339.351,141.4,336.815Z" transform="translate(-128.74 -301.563)"/><path class="g" d="M270.327,344.194s6.136-.832,6.683-1.074.662-.674,1.586-1.637,1.118-1.1,1.871-1.807a10.125,10.125,0,0,1,.868-.793s.341.48.115.832-.848.92-1.015,1.189.547-.5,1.879-1.3a21.8,21.8,0,0,1,3.365-1.645c.4-.147.452-.159.468-.143.111.155.2.305.067.44s-.622.432-.575.432a8.141,8.141,0,0,0,1.253-.341c.155-.063.373-.159.511-.2.293-.083.4.274.067.674a.663.663,0,0,1-.044.4c-.048.067-.079.115-.131.178s-.143.135-.2.2a7.885,7.885,0,0,1-.721.694,8.861,8.861,0,0,0-1.05.741,5.185,5.185,0,0,1,.888-.3.432.432,0,0,1-.111.488c-.254.155-.63.4-1.7.967a9.866,9.866,0,0,0-2.775,1.871,3.375,3.375,0,0,1-2.775,1.134c-3.916.115-10.131,2.8-11.281,2.854S270.327,344.194,270.327,344.194Z" transform="translate(-204.775 -305.168)"/><path class="e" d="M236.743,356.211c.864-2.378,0-3.635-.523-5.918-5.6-.067-14.111.186-19.958.591-2.18.151-6.033,4.134-5.652,5.549.642,2.378,10.7,1.72,15.11,1.375C229.751,357.492,234.012,357.575,236.743,356.211Z" transform="translate(-170.506 -312.699)"/></g></g></g><g transform="translate(52.055 36.767) rotate(-9)"><path class="j" d="M226.012,273.825l-1.8.663a7.152,7.152,0,0,1-2.39-6.464l1.8-.664Q224.818,270.592,226.012,273.825Z" transform="translate(-221.634 -249.996)"/><path class="k" d="M225.285,271.419q-.749-2.029-1.5-4.059l-1.951.722a7.745,7.745,0,0,0,.623,4.384Z" transform="translate(-221.748 -250.528)"/><path class="k" d="M275.252,309.316a.317.317,0,0,1-.1.436l-4.538,2.835a.315.315,0,0,1-.434-.1l-4.784-7.653a.315.315,0,0,1,.1-.434l4.538-2.835a.313.313,0,0,1,.434.1Z" transform="translate(-256.957 -277.979)"/><path class="l" d="M275.647,309.614l-4.967-7.941a.326.326,0,0,0-.451-.1l-4.711,2.943a.322.322,0,0,0-.134.368l3.828-2.391a.327.327,0,0,1,.451.1l4.967,7.943a.388.388,0,0,1,.029.085l.885-.552A.329.329,0,0,0,275.647,309.614Z" transform="translate(-257.55 -278.403)"/><path class="j" d="M266.78,304.726a.326.326,0,0,1,.105-.452l3.874-2.426-.111-.175a.326.326,0,0,0-.452-.105l-4.724,2.951a.328.328,0,0,0-.1.452l4.98,7.966a.328.328,0,0,0,.452.1l.843-.528Z" transform="translate(-257.066 -278.399)"/><path class="j" d="M258.941,266.761a.763.763,0,0,1-.028,1.08L251.89,274.5a.763.763,0,0,1-1.08-.029l-3.243-3.416a.763.763,0,0,1,.028-1.08l7.018-6.663a.767.767,0,0,1,1.082.028Z" transform="translate(-242.851 -247.052)"/><path class="m" d="M232.376,270.2l-2.391.883a9.519,9.519,0,0,1-3.179-8.6l2.391-.885Z" transform="translate(-225.995 -245.827)"/><path class="n" d="M234.792,269.233l-1.124.414a24.905,24.905,0,0,1-3.618-9.792l1.122-.416Z" transform="translate(-228.727 -244.065)"/><path class="m" d="M248.058,248.952l-10.5,3.881a24.916,24.916,0,0,1-3.62-9.793l10.5-3.879Z" transform="translate(-231.902 -227.515)"/><path class="n" d="M244.38,239.169l-.109.039-.418.155-.2.074-.384.142-.221.083-.511.184-1.039.388-.752.278-3.41,1.262-1.137.419-.506.184-1.746.644a25.017,25.017,0,0,0,2.356,7.566l10.886-4.025q-1.372-3.708-2.745-7.42Z" transform="translate(-231.91 -227.499)"/><path class="m" d="M295.393,306.884,293.615,305l-.589.4a.354.354,0,0,0-.094.493l1.542,2.28.9-.856A.3.3,0,0,0,295.393,306.884Z" transform="translate(-280.762 -280.515)"/><path class="n" d="M296.069,304.94l-.158.106a.29.29,0,0,0,.017.29l1.242,1.836.348-.326a.251.251,0,0,0,.011-.353Z" transform="translate(-282.473 -280.852)"/><path class="k" d="M300.432,190.575a62.489,62.489,0,0,0-4.718-10.015c-2.042,3.943-6.9,8.077-13.374,11.131v.024a22.316,22.316,0,0,0,3.609,9.767v.016h.024c6.9-1.88,13.263-1.9,17.374-.238A62.5,62.5,0,0,0,300.432,190.575Z" transform="translate(-270.582 -179.646)"/><path class="l" d="M299.546,202.653c-.213-.561-.435-1.116-.659-1.662a20.914,20.914,0,0,0-2.667-4.451c-2.359,2.672-7.207,5.838-13.369,8.638a23.039,23.039,0,0,0,1.077,3.9c.257.7.533,1.341.8,1.914,6.573-2.093,12.4-3,15.985-2.575a21.227,21.227,0,0,0-1.167-5.763Z" transform="translate(-271.105 -192.161)"/><path class="n" d="M349.973,190.365c2.176,5.886,5.622,10.036,7.695,9.271s1.99-6.16-.184-12.047-5.62-10.038-7.695-9.273S347.8,184.479,349.973,190.365Z" transform="translate(-325.213 -177.79)"/><path class="m" d="M354.723,189.148c2.182,5.9,5.463,10.13,7.33,9.44s1.61-6.035-.572-11.938-5.463-10.13-7.33-9.438S352.541,183.246,354.723,189.148Z" transform="translate(-328.495 -176.961)"/><path class="j" d="M355.484,190.461c2.114,5.715,5.29,9.808,7.1,9.139s1.56-5.842-.552-11.557-5.29-9.81-7.1-9.14S353.371,184.748,355.484,190.461Z" transform="translate(-329.65 -178.283)"/><line class="o" x2="28.996" y2="27.879" transform="translate(1.957 0.431)"/></g></g></svg>