<svg xmlns="http://www.w3.org/2000/svg" xmlns:xlink="http://www.w3.org/1999/xlink" width="121" height="120" viewBox="0 0 121 120"><defs><style>.a{fill:#fff;stroke:#707070;}.b{stroke:#fff;stroke-width:6px;fill:url(#a);}.c{clip-path:url(#b);}.d{fill:#2975d9;}.e{fill:#282723;}.f{fill:url(#c);}.g{fill:url(#d);}.h{fill:#2c7eea;}.i{fill:#15100c;}.j{fill:#5dcfca;}.k{fill:#80bdff;opacity:0.52;}</style><linearGradient id="a" x1="-0.027" y1="-0.037" x2="1.027" y2="1.023" gradientUnits="objectBoundingBox"><stop offset="0" stop-color="#4d6fff"/><stop offset="1" stop-color="#38d9ff"/></linearGradient><clipPath id="b"><ellipse class="a" cx="53.5" cy="54" rx="53.5" ry="54" transform="translate(0.31 -0.303)"/></clipPath><linearGradient id="c" x1="0.001" y1="0.5" x2="1" y2="0.5" gradientUnits="objectBoundingBox"><stop offset="0" stop-color="#7febff"/><stop offset="0.07" stop-color="#9cecf5"/><stop offset="0.17" stop-color="#baeceb"/><stop offset="0.27" stop-color="#d3ede3"/><stop offset="0.39" stop-color="#e7eddc"/><stop offset="0.52" stop-color="#f5eed7"/><stop offset="0.69" stop-color="#fdeed5"/><stop offset="1" stop-color="#ffeed4"/></linearGradient><linearGradient id="d" x1="0.001" y1="0.5" x2="1.001" y2="0.5" xlink:href="#c"/></defs><g transform="translate(3.445 1.613)"><ellipse class="b" cx="57.5" cy="57" rx="57.5" ry="57" transform="translate(-0.445 1.387)"/><g class="c" transform="translate(4.244 4.69)"><g transform="translate(14.466 12.755)"><path class="d" d="M1189.248,331.819c-1.462-.279-5.432.063-5.322,3.062.472,13.154,4.964,38.265,4.964,38.265s2.464,1.965,3.753-.33c1.635-2.893,4.4-11.94,3.168-33.144C1195.45,333.548,1191.724,332.29,1189.248,331.819Z" transform="translate(-1145.29 -283.405)"/><path class="d" d="M1192.208,428.912c-2.448.554-3.577-.46-5.758-1.25.633-5.5,1.965-13.858,3.077-19.557.42-2.126,4.823-5.42,6.163-4.87,2.26.931.354,10.733-.539,15.033C1194.342,422.2,1193.89,426.4,1192.208,428.912Z" transform="translate(-1146.823 -326.764)"/><path class="e" d="M1218.564,280.013a15.361,15.361,0,0,1,2.57-.373,13.759,13.759,0,0,0,.362,2.566,14.449,14.449,0,0,0,15.061,10.9,14.639,14.639,0,1,1-17.993-13.1Z" transform="translate(-1159.463 -251.782)"/><path class="e" d="M1188.778,263.992c-.542,6.2,3.738,11.637,9.551,12.14s10.958-4.123,11.5-10.325-3.745-11.645-9.554-12.144S1189.309,257.8,1188.778,263.992Z" transform="translate(-1148.209 -235.992)"/><path class="f" d="M1212.98,302.966s-5.809,9.26-11.791,10.089-8.646-.664-9.279-3.073-.464-7.023.975-8.077a15.087,15.087,0,0,0,4.2-4.186c1.108-1.686,1.1-4.952.648-7.515s-2.441-2.9-.334-3.9,1.368-2.236,3.344-1.725,3.211-.145,3.046,1.776c-.3,3.506-1.018,8.407.747,10.832C1206.51,299.88,1208.574,300.82,1212.98,302.966Z" transform="translate(-1149.925 -254.705)"/><path class="g" d="M1199.689,264.369c.173-.031.354-.059.531-.079.185,2.1,1.615,4.685,4,6.827a15.311,15.311,0,0,0,1.776,1.376l-.169,1.938a5.451,5.451,0,0,1-10.851-.939l.393-4.366A11.638,11.638,0,0,0,1199.689,264.369Z" transform="translate(-1151.986 -242.464)"/><path class="h" d="M1171.252,491.209A30.692,30.692,0,0,1,1171,487.5c.554-12.651-1.572-25.232,9.719-67.942a66.181,66.181,0,0,1,2.677-7.723c5.082-3.191,9.366-.035,14.7-2.358,1.8,2.225,5.935,6.681,7.786,11.174,10.965,26.549,2,62.785,2.358,76.545A58.713,58.713,0,0,1,1171.252,491.209Z" transform="translate(-1137.446 -330.592)"/><path class="i" d="M1201.88,414.283c0,.2.963.393,2.173.424l13.63.33c1.207.028,2.185-.114,2.193-.322v-.786c0-.2-.967-.393-2.17-.428l-13.634-.326c-1.207-.027-2.189.118-2.193.318Z" transform="translate(-1156.189 -332.832)"/><path class="j" d="M1188.783,338.386q1.737-6.053,3.431-12.14a13.32,13.32,0,0,1,.924-2.386c-.126,9.759,12.97,5.663,12.683,1.572,1.965,2.209,7.66,4.622,7.644,5.035-.208,4.457-.825,8.882-1.073,13.335a6.928,6.928,0,0,1-2.618,4.716,4.375,4.375,0,0,1,.09,1.1l.055,2.177c-.087,1.784,3,8.159,1.772,8.139l-17.926-.582c-1.23,0-2.523-3.812-2.433-5.593l-1.089-8.867a4.333,4.333,0,0,1,.051-.456C1189.121,342.78,1188.186,340.422,1188.783,338.386Z" transform="translate(-1148.127 -278.622)"/><path class="h" d="M1223.733,321.42s7.149-.09,8.705,3.294c2.056,4.48,1.057,9,.362,12-.81,3.5-.99,8.108-2.173,12.608-1.431,5.475,2.751,10.765,1.886,9.786-.173-.2-6.98-.731-10.447-2.649s-.833-7.963-.393-9.971c.99-4.532-2.279-13.862-1.332-17.474A31.9,31.9,0,0,1,1223.733,321.42Z" transform="translate(-1167.289 -277.141)"/><path class="h" d="M1185.986,328.7a14.271,14.271,0,0,1,2.441-4.63c1.006-1.454,4.665-3.1,4.076-2.959-.087.024-4.04,1.729-3.7,14.84.055,2.24,1.572,7.546,2.358,11.032s1.572,9.947,1.572,9.947-3.687.806-3.852,1.36a28.838,28.838,0,0,0-.342-9.621C1185.534,336.844,1184.638,334.816,1185.986,328.7Z" transform="translate(-1146.171 -276.947)"/><path class="d" d="M1233.208,329.88c-1.494.043-5.294,1.234-4.539,4.138,3.3,12.742,13.1,36.292,13.1,36.292s2.83,1.38,3.6-1.132c.971-3.18,1.722-12.608-4.056-33.045C1239.634,330.23,1235.727,329.809,1233.208,329.88Z" transform="translate(-1172.39 -282.272)"/><path class="d" d="M1262.409,422.695c-2.271,1.069-3.588.318-5.9,0-.574-5.522-1.085-13.948-1.215-19.761-.047-2.166,3.537-6.328,4.964-6.08,2.409.421,2.665,10.4,2.72,14.793C1263.042,415.676,1263.513,419.873,1262.409,422.695Z" transform="translate(-1188.613 -322.921)"/><path class="k" d="M1093.84,243.5s18.079,6.426,33.462,5.227l-1.045,46.53s-24.572-1.572-31.894-17.254Z" transform="translate(-1093.84 -235.38)"/><path class="k" d="M1113.456,222.84s-16.9.444-19.616,8.12l.523,34.5s3.29-7.538,18.625-8.7Z" transform="translate(-1093.84 -222.84)"/></g></g></g></svg>