<svg xmlns="http://www.w3.org/2000/svg" width="30.624" height="30.997" viewBox="0 0 30.624 30.997">
  <g id="icon-upscreen-speaker" transform="translate(-1137.799 -284.16)">
    <path id="路径_4911" data-name="路径 4911" d="M62.631,60.1v-.957H59.76a2.868,2.868,0,0,0-2.871,2.88v9.552a2.869,2.869,0,0,0,2.871,2.88h2.871Zm1.914,13.972L72.2,80.2V53.4l-7.656,6.125Zm-1.914-1.531v1.914l8.556,7.13c1.61,1.342,2.928.73,2.928-1.379V53.394c0-2.11-1.311-2.726-2.928-1.379l-8.556,7.13v1.914H60.717a1.9,1.9,0,0,0-1.914,1.9v7.691a1.914,1.914,0,0,0,1.914,1.9ZM77.943,59.609l8.12-8.12,1.353,1.353-8.12,8.12Zm0,14.287,8.12,8.12,1.353-1.353-8.12-8.12Zm0-9.009h9.57V66.8h-9.57V64.887Z" transform="translate(1080.91 232.859)" fill="#1f59db"/>
  </g>
</svg>
