<?xml version="1.0" encoding="UTF-8"?>
<svg width="56px" height="56px" viewBox="0 0 56 56" version="1.1" xmlns="http://www.w3.org/2000/svg" xmlns:xlink="http://www.w3.org/1999/xlink">
    <!-- Generator: Sketch 52.4 (67378) - http://www.bohemiancoding.com/sketch -->
    <title>合约账户开户</title>
    <desc>Created with Sketch.</desc>
    <g id="合约账户开户" stroke="none" stroke-width="1" fill="none" fill-rule="evenodd">
        <g>
            <rect id="矩形" x="0" y="0" width="56" height="56"></rect>
            <g id="分组-14" transform="translate(11.000000, 6.000000)" fill="#FFFFFF">
                <path d="M16.8760226,11.8700792 C16.5988996,11.9545577 16.3047566,12 16,12 C15.7027809,12 15.4156568,11.9567777 15.1445705,11.8762756 L13.760909,15 L12.6671966,15 L14.2465483,11.4344896 C13.4914676,10.8896844 13,10.0022364 13,9 C13,7.34314575 14.3431458,6 16,6 C17.6568542,6 19,7.34314575 19,9 C19,9.99481488 18.5157841,10.8765351 17.7701823,11.4223305 L19.5593625,15.0006909 C20.9126515,15.0322248 22,16.1391305 22,17.5 C22,18.8807119 20.8807119,20 19.5,20 L12.5,20 C11.1192881,20 10,18.8807119 10,17.5 C10,16.1192881 11.1192881,15 12.5,15 L12.6671966,15 L14.2465483,11.4344896 C14.515811,11.6287677 14.8185959,11.7794739 15.1445705,11.8762756 L13.760909,15 L18.440983,15 L16.8760226,11.8700792 Z M12.5,16 C11.6715729,16 11,16.6715729 11,17.5 C11,18.3284271 11.6715729,19 12.5,19 L19.5,19 C20.3284271,19 21,18.3284271 21,17.5 C21,16.6715729 20.3284271,16 19.5,16 L12.5,16 Z M16,7 C14.8954305,7 14,7.8954305 14,9 C14,10.1045695 14.8954305,11 16,11 C17.1045695,11 18,10.1045695 18,9 C18,7.8954305 17.1045695,7 16,7 Z" id="合并形状" fill-rule="nonzero"></path>
                <path d="M32,29.515549 C31.3829884,29.1025345 30.712058,28.7637935 30,28.5121171 L30,4 C30,2.8954305 29.1045695,2 28,2 L4,2 C2.8954305,2 2,2.8954305 2,4 L2,38 C2,39.1045695 2.8954305,40 4,40 L18.5121171,40 C18.7637935,40.712058 19.1025345,41.3829884 19.515549,42 L4,42 C1.790861,42 -1.39403132e-14,40.209139 -1.42108547e-14,38 L-1.42108547e-14,4 C-1.44813962e-14,1.790861 1.790861,-6.3543034e-14 4,-6.39488462e-14 L28,-6.39488462e-14 C30.209139,-6.43546585e-14 32,1.790861 32,4 L32,29.515549 Z" id="合并形状"></path>
                <path d="M27,29 C31.418278,29 35,32.581722 35,37 C35,41.418278 31.418278,45 27,45 C22.581722,45 19,41.418278 19,37 C19,32.581722 22.581722,29 27,29 Z M27,31 C23.6862915,31 21,33.6862915 21,37 C21,40.3137085 23.6862915,43 27,43 C30.3137085,43 33,40.3137085 33,37 C33,33.6862915 30.3137085,31 27,31 Z" id="合并形状"></path>
                <path d="M26,36 L26,34 C26,33.4477153 26.4477153,33 27,33 C27.5522847,33 28,33.4477153 28,34 L28,36 L30,36 C30.5522847,36 31,36.4477153 31,37 C31,37.5522847 30.5522847,38 30,38 L28,38 L28,40 C28,40.5522847 27.5522847,41 27,41 C26.4477153,41 26,40.5522847 26,40 L26,38 L24,38 C23.4477153,38 23,37.5522847 23,37 C23,36.4477153 23.4477153,36 24,36 L26,36 Z" id="合并形状"></path>
                <rect id="矩形" x="6" y="22" width="20" height="2" rx="1"></rect>
                <rect id="矩形-copy-13" x="6" y="27" width="14" height="2" rx="1"></rect>
                <rect id="矩形-copy-13" x="6" y="32" width="10" height="2" rx="1"></rect>
            </g>
        </g>
    </g>
</svg>