<?xml version="1.0" encoding="UTF-8"?>
<svg width="56px" height="56px" viewBox="0 0 56 56" version="1.1" xmlns="http://www.w3.org/2000/svg" xmlns:xlink="http://www.w3.org/1999/xlink">
    <!-- Generator: Sketch 52.4 (67378) - http://www.bohemiancoding.com/sketch -->
    <title>三方存管开户</title>
    <desc>Created with Sketch.</desc>
    <g id="三方存管开户" stroke="none" stroke-width="1" fill="none" fill-rule="evenodd">
        <g>
            <rect id="矩形-copy-18" x="0" y="0" width="56" height="56"></rect>
            <path d="M32.8051414,46.3869213 C32.9320207,45.9465445 33,45.481211 33,45 C33,44.7518211 32.9819185,44.5078654 32.9470009,44.2693783 C34.6176828,43.7623019 36.1998702,42.9985816 37.6448592,42.00118 C38.1077656,41.6816595 38.5541375,41.3397165 38.9823881,40.9769025 C39.3860204,41.5207468 39.8974588,41.9797924 40.4850987,42.3224348 C39.9431807,42.7952071 39.3742588,43.2376439 38.780987,43.6471489 C36.9586401,44.9050213 34.9400902,45.830687 32.8051414,46.3869213 Z M23.1948694,46.386959 C21.3847163,45.9152999 19.6569299,45.1776105 18.059639,44.1952389 C17.3154268,43.7375309 16.6035404,43.2289643 15.9290987,42.6735405 C15.7893441,42.5584483 15.6512643,42.4413991 15.514901,42.3224349 C16.1025409,41.9797926 16.6139793,41.5207471 17.0176116,40.9769028 C17.0782165,41.0282472 17.1391857,41.079175 17.2005149,41.1296815 C17.8042347,41.6268636 18.4413979,42.0820484 19.1073877,42.4916478 C20.3445737,43.2525463 21.6688756,43.8492247 23.0529969,44.2693935 C23.0180808,44.5078757 23,44.7518264 23,45 C23,45.4812247 23.0679832,45.9465711 23.1948694,46.386959 Z M32.804913,9.61228615 C41.0248372,11.7507664 47,19.2275125 47,28 C47,30.077053 46.6655887,32.1042878 46.0265129,34.0196861 C45.4938252,33.6140233 44.877256,33.3128554 44.2073749,33.146752 C44.728175,31.5043149 45,29.7729897 45,28 C45,20.383175 39.9646086,13.85742 32.9471131,11.7298545 C32.9819572,11.4916114 33,11.2479128 33,11 C33,10.5185003 32.9319391,10.0528971 32.804913,9.61228615 Z M9.9735231,34.0196587 C9.33495629,32.1055031 9,30.0781432 9,28 C9,19.2533594 14.9489704,11.7577922 23.1949944,9.61260755 C23.0680278,10.0531236 23,10.5186174 23,11 C23,11.2479647 23.0180503,11.4917134 23.0529087,11.730004 C16.0144738,13.8631333 11,20.4048173 11,28 C11,29.7737569 11.2722556,31.5052237 11.7926862,33.1467368 C11.1227966,33.3128333 10.5062188,33.6139974 9.9735231,34.0196587 Z M27,45 L27,43 C27,42.4477153 27.4477153,42 28,42 C28.5522847,42 29,42.4477153 29,43 L29,45 L31,45 C31.5522847,45 32,45.4477153 32,46 C32,46.5522847 31.5522847,47 31,47 L29,47 L29,49 C29,49.5522847 28.5522847,50 28,50 C27.4477153,50 27,49.5522847 27,49 L27,47 L25,47 C24.4477153,47 24,46.5522847 24,46 C24,45.4477153 24.4477153,45 25,45 L27,45 Z M28,7 C30.209139,7 32,8.790861 32,11 C32,13.209139 30.209139,15 28,15 C25.790861,15 24,13.209139 24,11 C24,8.790861 25.790861,7 28,7 Z M13,34 C15.209139,34 17,35.790861 17,38 C17,40.209139 15.209139,42 13,42 C10.790861,42 9,40.209139 9,38 C9,35.790861 10.790861,34 13,34 Z M43,34 C45.209139,34 47,35.790861 47,38 C47,40.209139 45.209139,42 43,42 C40.790861,42 39,40.209139 39,38 C39,35.790861 40.790861,34 43,34 Z M27.0163935,27.8121754 L22.0557377,27.8121754 L22.0557377,25.874091 L26.042623,25.874091 L22.2131148,21.2466237 L23.6754098,20 L27.9508197,25.1660087 L32.2245902,20 L33.6885246,21.2449616 L29.8557377,25.874091 L34,25.874091 L34,27.8121754 L28.9262295,27.8121754 L28.9262295,29.944733 L33.942623,29.944733 L33.942623,31.8811552 L28.9262295,31.8811552 L28.9262295,36 L27.0163935,36 L27.0163935,31.8828174 L22,31.8828174 L22,29.944733 L27.0163935,29.944733 L27.0163935,27.8121754 Z" id="合并形状" fill="#FFFFFF" fill-rule="nonzero"></path>
        </g>
    </g>
</svg>