<?xml version="1.0" encoding="UTF-8"?>
<svg width="56px" height="56px" viewBox="0 0 56 56" version="1.1" xmlns="http://www.w3.org/2000/svg" xmlns:xlink="http://www.w3.org/1999/xlink">
    <!-- Generator: Sketch 52.6 (67491) - http://www.bohemiancoding.com/sketch -->
    <title>icon-v0005</title>
    <desc>Created with Sketch.</desc>
    <g id="icon-v0005" stroke="none" stroke-width="1" fill="none" fill-rule="evenodd">
        <rect id="Rectangle" x="0" y="0" width="56" height="56"></rect>
        <g id="ic_mmcz密码重置-2" transform="translate(6.639000, 6.956000)" fill="#ffffff">
            <path d="M41.941,13.651 L41.863,13.466 L38.994,14.642 L39.072,14.827 C40.0020858,17.0707924 40.4802204,19.4760779 40.479,21.905 C40.5192361,30.2965517 34.9583861,37.6849194 26.8834497,39.968592 C18.8085133,42.2522645 10.201798,38.8706255 5.84115745,31.7009273 C1.48051693,24.5312291 2.43644019,15.3335532 8.17826467,9.21381381 C13.9200891,3.09407446 23.0382605,1.55459987 30.471,5.45 L28.184,8.6 L38.284,10.073 L34.429,0 L32.308,2.922 C23.7461278,-1.75510901 13.1139215,-0.129807781 6.34034795,6.89156717 C-0.433225622,13.9129421 -1.67562469,24.5966614 3.30596488,32.9850326 C8.28755444,41.3734037 18.2630704,45.3951564 27.6697443,42.8075917 C37.0764182,40.220027 43.5915388,31.6620706 43.582,21.906 C43.5893449,19.0725915 43.0314617,16.2661771 41.941,13.651 Z" id="路径_652"></path>
            <path d="M21.927,9.851 C18.1482103,9.85485844 15.0858584,12.9172103 15.082,16.696 L15.082,18.421 L13.358,18.421 C12.5905528,18.4215515 11.9685515,19.0435528 11.968,19.811 L11.968,30.721 C11.9740371,31.9150322 12.941957,32.8807198 14.136,32.884 L29.718,32.884 C30.9129489,32.8829049 31.8821458,31.9159432 31.886,30.721 L31.886,19.811 C31.8854485,19.0435528 31.2634472,18.4215515 30.496,18.421 L28.768,18.421 L28.768,16.696 C28.764146,12.9187696 25.7042275,9.85706189 21.927,9.851 Z M17.866,18.42 L17.866,16.695 C17.8429953,15.229136 18.6118515,13.8646693 19.8776316,13.125016 C21.1434117,12.3853627 22.7095883,12.3853627 23.9753684,13.125016 C25.2411485,13.8646693 26.0100047,15.229136 25.987,16.695 L25.987,18.42 L17.866,18.42 Z M29.1060339,21.199 L29.106,29.926 C29.1077948,30.016357 29.0381843,30.0921354 28.948,30.098 L14.915,30.098 C14.8710375,30.0964637 14.8291192,30.0790569 14.797,30.049 C14.7651886,30.0159993 14.7475947,29.971835 14.748,29.926 L14.7479931,21.199 L29.1060339,21.199 Z" id="路径_653" fill-rule="nonzero"></path>
            <path d="M20.366,25.02 L20.543,25.02 L20.543,27.536 C20.5657299,28.2889435 21.1840872,28.8867593 21.9373688,28.8840487 C22.6906505,28.8813381 23.3046894,28.2790876 23.322,27.526 L23.322,25.013 L23.504,25.013 C24.2569435,24.9902701 24.8547593,24.3719128 24.8520487,23.6186312 C24.8493381,22.8653495 24.2470876,22.2513106 23.494,22.234 L20.355,22.234 C19.7971725,22.2416797 19.2976455,22.5811973 19.0852108,23.097048 C18.872776,23.6128987 18.9883509,24.2057241 19.379,24.604 C19.6367007,24.8726315 19.9937598,25.0231245 20.366,25.02 Z" id="路径_654"></path>
        </g>
    </g>
</svg>