<?xml version="1.0" encoding="UTF-8"?>
<svg width="56px" height="56px" viewBox="0 0 56 56" version="1.1" xmlns="http://www.w3.org/2000/svg" xmlns:xlink="http://www.w3.org/1999/xlink">
    <!-- Generator: Sketch 52.4 (67378) - http://www.bohemiancoding.com/sketch -->
    <title>产品开户  </title>
    <desc>Created with Sketch.</desc>
    <g id="产品开户--" stroke="none" stroke-width="1" fill="none" fill-rule="evenodd">
        <g id="分组">
            <rect id="矩形" x="0" y="0" width="56" height="56"></rect>
            <path d="M36.3750793,46.1673076 C36.7987178,46.7381832 37.3072015,47.2423278 37.8818823,47.6610934 C34.9106429,49.1574033 31.553721,50 28,50 C15.8497355,50 6,40.1502645 6,28 C6,15.8497355 15.8497355,6 28,6 C40.1502645,6 50,15.8497355 50,28 C50,31.553721 49.1574033,34.9106429 47.6610934,37.8818823 C47.2423278,37.3072015 46.7381832,36.7987178 46.1673076,36.3750793 C47.3437101,33.8274557 48,30.9903702 48,28 C48,16.954305 39.045695,8 28,8 C16.954305,8 8,16.954305 8,28 C8,39.045695 16.954305,48 28,48 C30.9903702,48 33.8274557,47.3437101 36.3750793,46.1673076 Z" id="合并形状-copy-2" fill="#FFFFFF" fill-rule="nonzero"></path>
            <path d="M42,42 L42,39 C42,38.4477153 42.4477153,38 43,38 C43.5522847,38 44,38.4477153 44,39 L44,42 L47,42 C47.5522847,42 48,42.4477153 48,43 C48,43.5522847 47.5522847,44 47,44 L44,44 L44,47 C44,47.5522847 43.5522847,48 43,48 C42.4477153,48 42,47.5522847 42,47 L42,44 L39,44 C38.4477153,44 38,43.5522847 38,43 C38,42.4477153 38.4477153,42 39,42 L42,42 Z" id="合并形状-copy-3" fill="#FFFFFF"></path>
            <g id="分组-17" transform="translate(14.000000, 14.000000)" fill="#FFFFFF" fill-rule="nonzero">
                <path d="M1.69290543,8.10392382 C1.25771461,8.31091113 0.734609437,8.13112931 0.524517318,7.70236988 C0.314425199,7.27361046 0.496903749,6.7582359 0.932094567,6.55124859 L13.6195946,0.516765831 C14.0547854,0.309778521 14.5778906,0.489560344 14.7879827,0.918319771 C14.9980748,1.3470792 14.8155963,1.86245376 14.3804054,2.06944107 L1.69290543,8.10392382 Z" id="直线-12"></path>
                <path d="M1.69290543,14.1384066 C1.25771461,14.3453939 0.734609437,14.1656121 0.524517318,13.7368526 C0.314425199,13.3080932 0.496903749,12.7927187 0.932094567,12.5857313 L13.6195946,6.55124859 C14.0547854,6.34426128 14.5778906,6.5240431 14.7879827,6.95280253 C14.9980748,7.38156196 14.8155963,7.89693651 14.3804054,8.10392382 L1.69290543,14.1384066 Z" id="直线-12" transform="translate(7.656250, 10.344828) scale(1, -1) translate(-7.656250, -10.344828) "></path>
                <path d="M14.3700248,8.10877857 C13.9321125,8.31011753 13.4114488,8.12358327 13.2070898,7.69214264 C13.0027307,7.26070201 13.192063,6.7477328 13.6299752,6.54639384 L26.7549752,0.511911086 C27.1928875,0.310572126 27.7135512,0.497106384 27.9179102,0.928547013 C28.1222693,1.35998764 27.932937,1.87295685 27.4950248,2.07429581 L14.3700248,8.10877857 Z" id="直线-12-copy" transform="translate(20.562500, 4.310345) scale(1, -1) translate(-20.562500, -4.310345) "></path>
                <path d="M14.3700248,14.1432613 C13.9321125,14.3446003 13.4114488,14.158066 13.2070898,13.7266254 C13.0027307,13.2951848 13.192063,12.7822156 13.6299752,12.5808766 L26.7549752,6.54639384 C27.1928875,6.34505488 27.7135512,6.53158914 27.9179102,6.96302977 C28.1222693,7.3944704 27.932937,7.90743961 27.4950248,8.10877857 L14.3700248,14.1432613 Z" id="直线-12-copy"></path>
                <path d="M1.69290543,19.3108204 C1.25771461,19.5178077 0.734609437,19.3380259 0.524517318,18.9092664 C0.314425199,18.480507 0.496903749,17.9651325 0.932094567,17.7581451 L13.6195946,11.7236624 C14.0547854,11.5166751 14.5778906,11.6964569 14.7879827,12.1252163 C14.9980748,12.5539757 14.8155963,13.0693503 14.3804054,13.2763376 L1.69290543,19.3108204 Z" id="直线-12" transform="translate(7.656250, 15.517241) scale(1, -1) translate(-7.656250, -15.517241) "></path>
                <path d="M14.3700248,19.3156751 C13.9321125,19.5170141 13.4114488,19.3304798 13.2070898,18.8990392 C13.0027307,18.4675986 13.192063,17.9546294 13.6299752,17.7532904 L26.7549752,11.7188076 C27.1928875,11.5174687 27.7135512,11.7040029 27.9179102,12.1354436 C28.1222693,12.5668842 27.932937,13.0798534 27.4950248,13.2811924 L14.3700248,19.3156751 Z" id="直线-12-copy"></path>
                <path d="M1.69290543,24.4832342 C1.25771461,24.6902215 0.734609437,24.5104397 0.524517318,24.0816802 C0.314425199,23.6529208 0.496903749,23.1375462 0.932094567,22.9305589 L13.6195946,16.8960762 C14.0547854,16.6890889 14.5778906,16.8688707 14.7879827,17.2976301 C14.9980748,17.7263895 14.8155963,18.2417641 14.3804054,18.4487514 L1.69290543,24.4832342 Z" id="直线-12" transform="translate(7.656250, 20.689655) scale(1, -1) translate(-7.656250, -20.689655) "></path>
                <path d="M14.3700248,24.4880889 C13.9321125,24.6894279 13.4114488,24.5028936 13.2070898,24.071453 C13.0027307,23.6400124 13.192063,23.1270431 13.6299752,22.9257042 L26.7549752,16.8912214 C27.1928875,16.6898825 27.7135512,16.8764167 27.9179102,17.3078574 C28.1222693,17.739298 27.932937,18.2522672 27.4950248,18.4536062 L14.3700248,24.4880889 Z" id="直线-12-copy"></path>
            </g>
        </g>
    </g>
</svg>