<svg xmlns="http://www.w3.org/2000/svg" xmlns:xlink="http://www.w3.org/1999/xlink" width="160" height="160" viewBox="0 0 160 160">
  <defs>
    <linearGradient id="linear-gradient" x1="0.5" y1="0.012" x2="0.5" y2="0.994" gradientUnits="objectBoundingBox">
      <stop offset="0" stop-color="#39c2ff"/>
      <stop offset="1" stop-color="#236ffb" stop-opacity="0"/>
    </linearGradient>
    <linearGradient id="linear-gradient-2" x1="0.085" y1="0.054" x2="0.958" y2="0.992" gradientUnits="objectBoundingBox">
      <stop offset="0" stop-color="#39c2ff"/>
      <stop offset="1" stop-color="#236ffb"/>
    </linearGradient>
    <linearGradient id="linear-gradient-3" x1="0.934" y1="0.041" x2="0.099" y2="0.923" gradientUnits="objectBoundingBox">
      <stop offset="0" stop-color="#236ffb"/>
      <stop offset="1" stop-color="#236ffb" stop-opacity="0"/>
    </linearGradient>
  </defs>
  <g id="icon-Permission_opening" data-name="icon-Permission opening" transform="translate(-2875 -2016)">
    <g id="移动支付_copy_2" data-name="移动支付 copy 2" transform="translate(2907 2046)">
      <g id="分组" transform="translate(37.772)">
        <path id="路径" d="M54.393,68.308H3.662A3.667,3.667,0,0,1,0,64.642V21.432a3.655,3.655,0,0,1,.628-2.05L12.6,1.616A3.669,3.669,0,0,1,15.635,0H42.29a3.657,3.657,0,0,1,3.023,1.594l12.1,17.777a3.675,3.675,0,0,1,.639,2.061v43.2A3.669,3.669,0,0,1,54.393,68.308Z" opacity="0.5" fill="url(#linear-gradient)"/>
        <path id="路径-2" data-name="路径" d="M44.565,15.488H0L9.286,1.312A2.9,2.9,0,0,1,11.713,0h21.15A2.9,2.9,0,0,1,35.29,1.312Z" transform="translate(6.75 4.826)" fill="#fff"/>
        <path id="路径-3" data-name="路径" d="M14.172,13.387H9.719v-3.6h4.453a1.757,1.757,0,0,0,0-3.514H11.615L14.888,3A1.755,1.755,0,0,0,12.406.512L7.921,5,3.521.6A1.755,1.755,0,0,0,1.04,3.083L4.215,6.261H1.755a1.757,1.757,0,0,0,0,3.514H6.209v3.6H1.755a1.757,1.757,0,0,0,0,3.514H6.209v2.874a1.755,1.755,0,1,0,3.511,0V16.912h4.453a1.762,1.762,0,0,0,0-3.525Z" transform="translate(21.064 30.583)" fill="#fff"/>
      </g>
      <path id="路径-4" data-name="路径" d="M47.187,86.681H4.345A4.347,4.347,0,0,1,0,82.332V4.349A4.347,4.347,0,0,1,4.345,0H47.187a4.347,4.347,0,0,1,4.345,4.349V82.332A4.347,4.347,0,0,1,47.187,86.681Z" transform="translate(0 13.21)" fill="url(#linear-gradient-2)"/>
      <rect id="矩形" width="44.749" height="64.403" transform="translate(3.305 23.59)" fill="#aedcff"/>
      <path id="路径-5" data-name="路径" d="M10.337,1.844H.921A.921.921,0,0,1,0,.922H0A.921.921,0,0,1,.921,0h9.416a.921.921,0,0,1,.921.922h0A.921.921,0,0,1,10.337,1.844Z" transform="translate(20.045 17.549)" fill="#aedcff"/>
      <ellipse id="椭圆形" cx="3.597" cy="3.601" rx="3.597" ry="3.601" transform="translate(22.277 90.087)" fill="#aedcff"/>
      <g id="分组-2" data-name="分组" transform="translate(66.799 57.115)">
        <path id="路径-6" data-name="路径" d="M25.094,4.913,4.908,25.13,0,20.217,20.186,0Z" fill="url(#linear-gradient-3)"/>
        <rect id="矩形-2" data-name="矩形" width="6.941" height="6.941" transform="translate(15.252 4.938) rotate(-45)" fill="#236ffb"/>
      </g>
    </g>
    <rect id="矩形_1366" data-name="矩形 1366" width="160" height="160" transform="translate(2875 2016)" fill="none"/>
  </g>
</svg>
