<?xml version="1.0" encoding="UTF-8"?>
<svg width="56px" height="56px" viewBox="0 0 56 56" version="1.1" xmlns="http://www.w3.org/2000/svg" xmlns:xlink="http://www.w3.org/1999/xlink">
    <!-- Generator: Sketch 52.4 (67378) - http://www.bohemiancoding.com/sketch -->
    <title>销售产品双录</title>
    <desc>Created with Sketch.</desc>
    <g id="销售产品双录" stroke="none" stroke-width="1" fill="none" fill-rule="evenodd">
        <g>
            <rect id="矩形-copy-13" x="0" y="0" width="56" height="56"></rect>
            <path d="M48,33.2916805 C47.4002581,32.7548969 46.7281052,32.2973571 46,31.9355196 L46,20.8297552 C46,19.7251857 45.1045695,18.8297552 44,18.8297552 L12,18.8297552 C10.8954305,18.8297552 10,19.7251857 10,20.8297552 L10,40.8297552 C10,41.9343247 10.8954305,42.8297552 12,42.8297552 L33.4538668,42.8297552 C33.688815,43.5396977 34.0097561,44.2104774 34.4043509,44.8297552 L12,44.8297552 C9.790861,44.8297552 8,43.0388942 8,40.8297552 L8,20.8297552 C8,19.0489074 9.16377606,17.539874 10.7722934,17.0216899 L23.0023431,7.80568642 C24.7666399,6.47619338 27.2746522,6.82867152 28.6041452,8.59296837 L30.9706678,11.7334499 L37.9437006,9.8650314 C40.077565,9.29326416 42.2709129,10.5595941 42.8426801,12.6934585 L43.9509975,16.8297552 L44,16.8297552 C46.209139,16.8297552 48,18.6206162 48,20.8297552 L48,33.2916805 Z M28.8870987,12.2917406 L27.0068742,9.79659842 C26.3421277,8.91444999 25.0881216,8.73821092 24.2059731,9.40295744 L15.6741661,15.8321352 L28.8870987,12.2917406 Z M19.6784041,16.8297552 L41.8804451,16.8297552 L40.9108284,13.2110966 C40.6249448,12.1441644 39.5282709,11.5109994 38.4613387,11.7968831 L19.6784041,16.8297552 Z M42,32 C46.418278,32 50,35.581722 50,40 C50,44.418278 46.418278,48 42,48 C37.581722,48 34,44.418278 34,40 C34,35.581722 37.581722,32 42,32 Z M42,34 C38.6862915,34 36,36.6862915 36,40 C36,43.3137085 38.6862915,46 42,46 C45.3137085,46 48,43.3137085 48,40 C48,36.6862915 45.3137085,34 42,34 Z M32.9848485,25.0031111 L29.3318182,31.3824444 L32.2106061,31.3824444 L32.2106061,32.7917778 L28.8560606,32.7917778 L28.8560606,34.7346667 L32.2090909,34.7346667 L32.2090909,36.1611111 L28.8560606,36.1611111 L28.8560606,38.9891111 L27.1318182,38.9891111 L27.1318182,36.1611111 L23.6545455,36.1611111 L23.6545455,34.7346667 L27.1318182,34.7346667 L27.1318182,32.7917778 L23.6545455,32.7917778 L23.6545455,31.3824444 L26.6212121,31.3824444 L23.0030303,25.0031111 L24.9484848,25.0031111 C26.6378788,28.1717778 27.6651515,30.18 28.0287879,31.0308889 L28.0636364,31.0308889 C28.1863636,30.6808889 28.5242424,29.9762222 29.0757576,28.9168889 L31.1439394,25.0031111 L32.9848485,25.0031111 Z M43.9583333,43.1757813 L44.4875,43.7100361 C44.8625,44.0865385 44.5979167,44.7322716 44.0666667,44.7322716 L39.9208333,44.7322716 C39.3916667,44.7322716 39.1145833,44.0760216 39.4875,43.686899 L39.95625,43.2010216 C40.5604167,43.4807692 41.2229167,43.6511418 41.9333333,43.6511418 C42.65625,43.6511418 43.34375,43.4807692 43.9583333,43.1757813 Z M41.9333333,35 C44.1020833,35 45.8625,36.7773438 45.8625,38.9669471 C45.8625,41.1565505 44.1020833,42.9338942 41.9333333,42.9338942 C39.7645833,42.9338942 38.0041667,41.1565505 38.0041667,38.9669471 C38.0041667,36.7773438 39.7645833,35 41.9333333,35 Z M41.9333333,40.7674279 C42.9104167,40.7674279 43.7166667,39.9513221 43.7166667,38.9543269 C43.7166667,37.9573317 42.9208333,37.1538462 41.9333333,37.1538462 C40.9458333,37.1538462 40.15,37.9699519 40.15,38.9669471 C40.15,39.9639423 40.95625,40.7674279 41.9333333,40.7674279 Z" id="合并形状" fill="#FFFFFF"></path>
        </g>
    </g>
</svg>