<svg xmlns="http://www.w3.org/2000/svg" xmlns:xlink="http://www.w3.org/1999/xlink" viewBox="0 0 56 56">
  <defs>
    <style>
      .cls-1 {
        clip-path: url(#clip-ic_jngotkh在境内工作生活的港澳台居民开户_居住证_);
      }

      .cls-2 {
        fill: #ffffff;
      }

      .cls-3 {
        fill: none;
        stroke: #ffffff;
        stroke-linecap: round;
        stroke-width: 2px;
      }
    </style>
    <clipPath id="clip-ic_jngotkh在境内工作生活的港澳台居民开户_居住证_">
      <rect width="56" height="56"/>
    </clipPath>
  </defs>
  <g id="ic_jngotkh在境内工作生活的港澳台居民开户_居住证_" data-name="ic/jngotkh在境内工作生活的港澳台居民开户（居住证）" class="cls-1">
    <g id="港澳台" transform="translate(-93.563 -117.706)">
      <path id="路径_683" data-name="路径 683" class="cls-2" d="M139.335,132.006a2.122,2.122,0,0,0-2.223-2.053h-31.02a2.048,2.048,0,0,0-2.138,2.053v20.51a2.2,2.2,0,0,0,1.878,2.138v-.085h15.212c.085.511.17,1.537.255,2.053H104.464c-1.452-.17-2.564-1.968-2.564-3.42V131.235c0-1.537,1.282-3.335,2.819-3.335h33.073c1.622,0,3.59,1.112,3.59,2.649v15.388a16.3,16.3,0,0,0-2.053-1.282V132.006Z" transform="translate(0)"/>
      <path id="路径_684" data-name="路径 684" class="cls-2" d="M252.965,218.075a9.659,9.659,0,1,0,9.659,9.659A9.649,9.649,0,0,0,252.965,218.075Zm0,17.431a7.777,7.777,0,1,1,7.861-7.776A7.825,7.825,0,0,1,252.965,235.506ZM240.7,211.936a2.828,2.828,0,0,1-3.806.055,2.312,2.312,0,0,0-3.8.21,3.621,3.621,0,0,1,1.477-1.873,4.155,4.155,0,0,1,3.285-.556l.035-.15a4.328,4.328,0,0,0-3.4.576,3.745,3.745,0,0,0-1.477,1.778c1.011-6.2,9.213-5.929,10.641-.26A1.858,1.858,0,0,0,240.7,211.936Zm-1.242-2.474-.616.24-.481-.446.04.656-.576.32.641.165.13.646.356-.556.656.075-.421-.506Zm-6.58,2.959a3.056,3.056,0,0,1,.13-.451c-.025.16-.05.32-.065.486A.281.281,0,0,1,232.88,212.422Zm-.23-.14a2.285,2.285,0,0,0,.235.145l-.015.06A2.965,2.965,0,0,1,232.65,212.282Zm-1.322-1.978a4.107,4.107,0,0,1,.486-3.28l-.13-.085a4.266,4.266,0,0,0-.5,3.4,3.735,3.735,0,0,0,1.257,1.963c-5.638-2.869-2.839-10.581,3.014-10.185a1.85,1.85,0,0,0-.7,2.869,2.8,2.8,0,0,1-1.127,3.625,2.3,2.3,0,0,0-.976,3.655A3.527,3.527,0,0,1,231.328,210.3Zm.786-3.75.125.646.356-.556.656.075-.421-.506.275-.6-.611.24-.486-.446.04.656-.576.32Zm.691,6a2.96,2.96,0,0,1-.371-.245c.135.07.28.135.426.2A.531.531,0,0,0,232.8,212.557Zm-.205.17c.07-.055.14-.11.205-.17a.437.437,0,0,1,.05.035A2.491,2.491,0,0,1,232.6,212.727Zm-2.3.651a4.165,4.165,0,0,1-2.984-1.472l-.12.1a4.294,4.294,0,0,0,3.095,1.527,3.751,3.751,0,0,0,2.243-.571c-4.477,4.421-10.951-.606-8.763-6.024a1.851,1.851,0,0,0,2.519,1.547,2.818,2.818,0,0,1,3.11,2.188,2.305,2.305,0,0,0,3.195,2.053A3.567,3.567,0,0,1,230.3,213.378Zm-2.829-2.929-.616.24-.486-.446.04.656-.576.32.636.165.13.646.356-.556.651.075-.421-.506Zm5.433,2.223a2.949,2.949,0,0,1-.371.29c.115-.115.23-.23.346-.356A.349.349,0,0,0,232.9,212.672Zm.1.24a2.021,2.021,0,0,0-.1-.24c.015-.015.035-.025.05-.04C232.975,212.727,232.99,212.822,233.005,212.912Zm-.09,2.389a4.146,4.146,0,0,1-2.328,2.373l.06.145a4.3,4.3,0,0,0,2.414-2.464,3.7,3.7,0,0,0,.15-2.3c2.834,5.608-3.961,10.19-8.452,6.444a1.857,1.857,0,0,0,2.258-1.913,2.821,2.821,0,0,1,3.049-2.273,2.305,2.305,0,0,0,2.944-2.4A3.647,3.647,0,0,1,232.915,215.3Zm-2.574,1.983-.616.24-.486-.446.04.656-.576.32.641.165.13.646.356-.556.656.075-.421-.506Zm2.7-4.667a3.082,3.082,0,0,1,.165.441c-.075-.145-.15-.29-.235-.436A.331.331,0,0,1,233.045,212.617Zm.265-.02a2.367,2.367,0,0,0-.265.02.283.283,0,0,1-.02-.06,1.873,1.873,0,0,1,.285.04Zm3.791,3.761.155-.01a4.3,4.3,0,0,0-1.6-3.049,3.786,3.786,0,0,0-2.153-.856c6.229-.956,8.507,6.9,3.54,10a1.846,1.846,0,0,0-1.127-2.729,2.8,2.8,0,0,1-1.227-3.59,2.3,2.3,0,0,0-1.377-3.53,3.624,3.624,0,0,1,2.248.821,4.126,4.126,0,0,1,1.542,2.939Zm-.346,1.252.125.646.356-.556.656.075-.421-.506.275-.6-.611.24-.486-.446.04.656-.576.32.641.165Zm-3.72-5.148a2.894,2.894,0,0,1,.466-.015c-.16.025-.32.05-.486.085,0-.025.015-.05.02-.07Zm-.08.005h.02c0,.005-.005.005-.005.01S232.955,212.472,232.955,212.467Zm-.02.08-.01-.075h.02A.387.387,0,0,0,232.935,212.547Zm-1,0,3,0-2.005-.005C232.93,212.547,232.935,212.547,232.93,212.542Zm-.995.005,3,0-3,0,3,0-2,0Zm0,0-.035.07a.026.026,0,0,0-.02-.01C232.9,212.587,232.915,212.567,232.935,212.547Zm-1,0,3,0-3,0,3,0-1.985.075-.015-.075Zm-1.015-.075,3,0-3,0,3,0-1.995,0Zm-1.005,0,3,0-3,0,3,0-3,0,3,0-3,0,3,0-3,0,3,0-3,0,3,0-3,0,3,0-3,0,3,0-3,0,3,0-1.97-.07h0l-.03.07C232.945,212.522,232.955,212.5,232.965,212.477Zm.04.035c0,.005,0,.015.01.02l-.08.015Zm.015.02v.01a0,0,0,0,0,0,0C233.015,212.532,233.015,212.532,233.02,212.532Zm.005.025h-.01s0-.01,0-.015A.018.018,0,0,0,233.025,212.557Zm-.015,0-.07-.01a.3.3,0,0,1,.07.01Zm-.02.045-.015.015c-.015-.025-.025-.045-.04-.07Zm-.015.02h-.005s0-.005.005,0Zm-.02.015c0-.005,0-.01,0-.01h.02C232.965,212.627,232.96,212.632,232.955,212.637Zm-.08-.03a0,0,0,0,0-.005-.005c.005,0,.01,0,.005.005Zm-.02-.015c.005,0,.005-.005.01-.005s0,.01,0,.015,0-.005-.015-.01Zm.01-.01.065-.035a.267.267,0,0,1-.065.035Zm-.01-.05s.005-.015.005-.02c.025.01.045.025.07.035Zm.005-.02.005-.005Zm.01-.025.01.01-.015.015c0-.015,0-.02.005-.025Zm.01,0,.05.05A.237.237,0,0,1,232.88,212.492Zm.065-.03c.005,0,.005.005.01.005h-.01Zm.155-.26c-.025.085-.045.17-.065.255-.02,0-.045.005-.065.005a2.519,2.519,0,0,1,.13-.26Zm0,0" transform="translate(-118.202 -70.491)"/>
      <line id="直线_6" data-name="直线 6" class="cls-3" x2="6" transform="translate(131.974 157.206)"/>
      <line id="直线_7" data-name="直线 7" class="cls-3" y2="6" transform="translate(134.974 154.206)"/>
      <path id="路径_676" data-name="路径 676" class="cls-2" d="M142.676,352.039h-2.335a.961.961,0,0,1-.751-1.051.98.98,0,0,1,.976-.9h8.445a.919.919,0,0,1,.751,1.051,1.043,1.043,0,0,1-.976.9h-6.11Zm5,4.055h-7.181a.984.984,0,0,1-.075-1.952h6.212a.563.563,0,0,1,.375.075,1.129,1.129,0,0,1,.751,1.051,1.036,1.036,0,0,1-.9.9h-.3C144.9,356.094,149.325,356.094,147.673,356.094Z" transform="translate(-12.278 -216.574)"/>
      <path id="路径_721" data-name="路径 721" class="cls-2" d="M145.846,356.169l-5.354-.075a.984.984,0,0,1-.075-1.952h6.212a.563.563,0,0,1,.375.075,1.129,1.129,0,0,1,.751,1.051,1.036,1.036,0,0,1-.9.9h-.3C147.33,356.139,147.5,356.169,145.846,356.169Z" transform="translate(-12.278 -212.574)"/>
    </g>
  </g>
</svg>
