<?xml version="1.0" encoding="UTF-8"?>
<svg width="56px" height="56px" viewBox="0 0 56 56" version="1.1" xmlns="http://www.w3.org/2000/svg" xmlns:xlink="http://www.w3.org/1999/xlink">
    <!-- Generator: Sketch 52.6 (67491) - http://www.bohemiancoding.com/sketch -->
    <title>icon-v0012</title>
    <desc>Created with Sketch.</desc>
    <g id="icon-v0012" stroke="none" stroke-width="1" fill="none" fill-rule="evenodd">
        <rect id="Rectangle" x="0" y="0" width="56" height="56"></rect>
        <g id="ic_xgsj修改手机号码-2" transform="translate(8.355000, 8.646000)">
            <path d="M34.295,31.318 C33.8559213,31.7437344 33.1580787,31.7437344 32.719,31.318 L29.174,27.845 C28.9655553,27.6422355 28.8479627,27.3637966 28.8479627,27.073 C28.8479627,26.7822034 28.9655553,26.5037645 29.174,26.301 C29.6125273,25.874863 30.3104727,25.874863 30.749,26.301 L33.507,29.001 L38.826,23.793 C39.2645273,23.366863 39.9624727,23.366863 40.401,23.793 C40.6096434,23.9954523 40.7273928,24.2737785 40.7273928,24.5645 C40.7273928,24.8552215 40.6096434,25.1335477 40.401,25.336 L34.295,31.317 L34.295,31.318 Z" id="路径_668" fill="#ffffff"></path>
            <path d="M35.055,16.926 C29.375548,16.9778039 24.8085506,21.6148463 24.8431917,27.2944289 C24.8778328,32.9740115 29.5010533,37.5550006 35.1807146,37.5375225 C40.8603759,37.5200444 45.4553149,32.9106882 45.455,27.231 C45.4425635,24.485296 44.3398265,21.8570075 42.3894129,19.9244103 C40.4389994,17.991813 37.8007025,16.9132405 35.055,16.926 Z M35.007,35.826 C30.322974,35.7830154 26.5565674,31.9586128 26.5851583,27.2744768 C26.6137493,22.5903408 30.42656,18.8122 35.1107617,18.8263969 C39.7949635,18.8405938 43.5848028,22.6417768 43.585,27.326 C43.5607586,32.0400237 39.7210366,35.8425929 35.007,35.821 L35.007,35.826 Z" id="路径_669" fill="#ffffff" fill-rule="nonzero"></path>
            <path d="M26.869,35.456 L26.869,36.067 C26.869,36.7297417 26.3317417,37.267 25.669,37.267 L4.238,37.267 C3.5752583,37.267 3.038,36.7297417 3.038,36.067 L3.038,30.879 L24.028,30.879 C23.7502018,30.0359103 23.571335,29.1633897 23.495,28.279 L3.041,28.279 L3.041,3.979 C3.041,3.3162583 3.5782583,2.779 4.241,2.779 L25.67,2.779 C26.3327417,2.779 26.87,3.3162583 26.87,3.979 L26.87,19.094 C27.5871723,18.3852259 28.3940243,17.7733631 29.27,17.274 L29.27,3.974 C29.2672473,1.99006792 27.6599312,0.382304647 25.676,0.379 L4.238,0.379 C2.25211845,0.382309807 0.643997242,1.99311569 0.644,3.979 L0.644,36.072 C0.647303157,38.0555416 2.25445843,39.6626968 4.238,39.666 L25.67,39.666 C27.534,39.634 28.055,39.908 29.264,38.199 L29.264,37.281 C28.38947,36.7797529 27.5842997,36.1662097 26.869,35.456 Z" id="路径_670" fill="#ffffff"></path>
            <path d="M12.573,33.856 C12.5730001,35.1708598 13.638807,36.2368158 14.9536668,36.2369998 C16.2685266,36.2371838 17.3346318,35.1715261 17.3349999,33.8566664 C17.335368,32.5418066 16.2698597,31.4755522 14.955,31.475 C13.6405327,31.4766516 12.5752035,32.5415335 12.573,33.856 Z" id="路径_671" fill="#ffffff"></path>
            <g id="_0.2cnumber_copy_7" transform="translate(6.781000, 8.542000)" stroke="#ffffff" stroke-linecap="round" stroke-width="2">
                <path d="M0.122,1 L8.593,1" id="Path_24"></path>
                <path d="M0,6.939 L13.96,6.939" id="Path_24-2"></path>
                <path d="M0,12.834 L13.96,12.834" id="Path_24-3"></path>
            </g>
        </g>
    </g>
</svg>