<svg xmlns="http://www.w3.org/2000/svg" xmlns:xlink="http://www.w3.org/1999/xlink" viewBox="0 0 56 56">
  <defs>
    <style>
      .cls-1 {
        clip-path: url(#clip-ic_zytzzzx专业投资者注销);
      }

      .cls-2 {
        fill: #ffffff;
      }

      .cls-3 {
        fill: none;
        stroke: #ffffff;
        stroke-linecap: round;
        stroke-width: 2px;
      }
    </style>
    <clipPath id="clip-ic_zytzzzx专业投资者注销">
      <rect width="56" height="56"/>
    </clipPath>
  </defs>
  <g id="ic_zytzzzx专业投资者注销" data-name="ic/zytzzzx专业投资者注销" class="cls-1">
    <g id="ic_zytzz专业投资者开通" data-name="ic/zytzz专业投资者开通" transform="translate(7.365 -42.371)">
      <path id="路径_651" data-name="路径 651" class="cls-2" d="M40.56,74.2V56.5A1.468,1.468,0,0,0,39.123,55H2.436A1.468,1.468,0,0,0,1,56.5V82.856a1.468,1.468,0,0,0,1.436,1.5H24.052a8.817,8.817,0,0,1-.406-1.954H2.935V56.988H38.6l.232,16.3a6.617,6.617,0,0,1,1.728.914Z" transform="translate(0 -1)"/>
      <path id="路径_652" data-name="路径 652" class="cls-2" d="M122.344,208.6h7.046v2.29h-7.046Zm0,5.813h12.21v2.29h-12.21Zm15.243,17.759,3.082,5.339-1.239.716-1.9-.428-.579,1.86-1.239.716-3.027-5.075,1.525-.881,1.851,3.809.58-2.033,2.275.8-2.727-3.81Zm-6.65,3.208-3.038,4.994-1.239-.716-.579-1.86-1.9.428-1.239-.716,2.9-5.072,1.525.881-.851,1.1-1.527,2.357,1.964-.58.592,2.033,1.862-3.728Zm-16.991-10.613h8.283a9.293,9.293,0,0,0,.25-2.779,1.479,1.479,0,0,0-.733-.892q-5.344-2.081-5.478-2.16a.659.659,0,0,1-.237-.279l-.647-1.061-.629-.169a.6.6,0,0,1,.23-.34,1.622,1.622,0,0,0,.449-1.021q.072-.6.146-1.019c.12.019.312.088.586-.291a5.409,5.409,0,0,0,.511-2.212.358.358,0,0,0-.3-.409h-.112c.43-2.441.064-3.616-.508-4.116a.87.87,0,0,0-.633-.138,1.1,1.1,0,0,0-.627-.568,5.249,5.249,0,0,0-3.866.125,3.864,3.864,0,0,0-.852.581c-.572.5-.938,1.675-.508,4.116h-.12a.358.358,0,0,0-.3.409,5.409,5.409,0,0,0,.511,2.212c.28.388.474.307.594.29q.074.415.147,1.02.129.832.449,1.021a.534.534,0,0,1,.242.335l-.647.174-.647,1.061a.659.659,0,0,1-.237.279q-.134.078-5.478,2.16a1.478,1.478,0,0,0-.733.892,8.784,8.784,0,0,0,.189,2.779h8.347l.76-4.019-.491-1.239.912-.773.912.773-.491,1.239Z" transform="translate(-98.597 -147.351)"/>
      <path id="路径_653" data-name="路径 653" class="cls-2" d="M622.541,516.452a6.908,6.908,0,0,0,0-13.816,6.908,6.908,0,1,0,0,13.816Zm0,1.629a8.541,8.541,0,1,1,8.541-8.541A8.541,8.541,0,0,1,622.541,518.082Z" transform="translate(-589.476 -428.874)"/>
      <path id="路径_765" data-name="路径 765" class="cls-3" d="M0,0,4.963,4.963" transform="translate(30.567 78.39)"/>
      <line id="直线_9" data-name="直线 9" class="cls-3" x1="4.963" y2="4.963" transform="translate(30.567 78.39)"/>
    </g>
  </g>
</svg>
