<svg xmlns="http://www.w3.org/2000/svg" xmlns:xlink="http://www.w3.org/1999/xlink" viewBox="0 0 56 56">
  <defs>
    <style>
      .cls-1 {
        clip-path: url(#clip-ic_fgjxxbg非关键信息变更);
      }

      .cls-2 {
        fill: #ffffff;
      }
    </style>
    <clipPath id="clip-ic_fgjxxbg非关键信息变更">
      <rect width="56" height="56"/>
    </clipPath>
  </defs>
  <g id="ic_fgjxxbg非关键信息变更" data-name="ic/fgjxxbg非关键信息变更" class="cls-1">
    <g id="账户_3_" data-name="账户 (3)" transform="translate(-57.764 -108.472)">
      <path id="路径_717" data-name="路径 717" class="cls-2" d="M36.844,0H18.336a1.059,1.059,0,1,0,0,2.117H36.844a3.392,3.392,0,0,1,3.388,3.388V25.013A3.392,3.392,0,0,1,36.844,28.4H5.507a3.392,3.392,0,0,1-3.39-3.387V9.24A1.059,1.059,0,0,0,0,9.24V25.013a5.511,5.511,0,0,0,5.505,5.5H36.842a5.511,5.511,0,0,0,5.507-5.5V5.505A5.512,5.512,0,0,0,36.844,0Z" transform="translate(107.456 149.411) rotate(180)"/>
      <path id="路径_716" data-name="路径 716" class="cls-2" d="M152.487,139.645A1.913,1.913,0,0,0,154.4,141.5h10a1.913,1.913,0,0,0,1.913-1.854,8.06,8.06,0,0,0-3.276-6.386,4.348,4.348,0,1,0-7.275,0A8.063,8.063,0,0,0,152.487,139.645Zm11.654-.321h-9.477a6.268,6.268,0,0,1,2.752-4.59,4.175,4.175,0,0,0,3.974,0A6.275,6.275,0,0,1,164.14,139.324ZM159.4,128.716a2.175,2.175,0,1,1-2.175,2.175A2.175,2.175,0,0,1,159.4,128.716Zm-23.745,9.928a1.086,1.086,0,0,0,0,2.173h8.691a1.086,1.086,0,1,0,0-2.173Zm14.124-4.347a1.086,1.086,0,0,0-1.086-1.086H135.657a1.086,1.086,0,0,0,0,2.173h13.037a1.086,1.086,0,0,0,1.087-1.086Z" transform="translate(-64.225 -1.948)"/>
      <g id="ic_gjzlbg关键资料变更" data-name="ic/gjzlbg关键资料变更" transform="translate(-76.119 16.92)">
        <path id="路径_641" data-name="路径 641" class="cls-2" d="M618.311,772.742,609.2,772.6l-.016.016h-.148v.042h-.005l-.016.016h-.106v.01h-.032v.042h-.058v.084h-.085v.058H608.7v.09h-.042v.122l-.016.016v.032a.1.1,0,0,0-.01.037l-.016.016v.053h-.005l-.005.232v.074l.011.01v.127h.053a.262.262,0,0,0,.016.037c0,.005,0,.005.005.011v.111h.063l.026.032a.165.165,0,0,0,.058.048l2.139,2.181a.743.743,0,1,0,1.067-1.035l-.913-.929,7.166.111a.747.747,0,0,0,.75-.739.767.767,0,0,0-.729-.76Z" transform="translate(-437.359 -638.693)"/>
        <path id="路径_642" data-name="路径 642" class="cls-2" d="M557.588,596.925a8.735,8.735,0,1,0-6.411,14.812h.137a8.742,8.742,0,0,0,8.729-8.6A8.637,8.637,0,0,0,557.588,596.925Zm.972,6.184a7.243,7.243,0,1,1-7.245-7.361h.116A7.261,7.261,0,0,1,558.56,603.109Z" transform="translate(-374.825 -469.788)"/>
        <path id="路径_643" data-name="路径 643" class="cls-2" d="M619.716,677.429l-2.139-2.191a.728.728,0,0,0-1.062-.016.739.739,0,0,0-.01,1.035l.914.945-7.171-.111h-.011a.739.739,0,0,0-.739.729.751.751,0,0,0,.57.745v.053l9.172.143h.005a.185.185,0,0,0,.074-.016l.169.005v-.016h.053v-.016h.027v-.048h.084v-.011h.032v-.1l.005-.005h.106v-.106l.042-.042V678.4l.016-.016v-.026c0-.005.005-.005.005-.01l.016-.016h.048v-.058h.016l.005-.465-.016-.016v-.042l-.016-.016V677.7l-.016-.016v-.106h-.011v-.032h-.063l-.021-.021v-.106Z" transform="translate(-438.21 -546.247)"/>
      </g>
    </g>
  </g>
</svg>
