<?xml version="1.0" encoding="UTF-8"?>
<svg width="56px" height="56px" viewBox="0 0 56 56" version="1.1" xmlns="http://www.w3.org/2000/svg" xmlns:xlink="http://www.w3.org/1999/xlink">
    <!-- Generator: Sketch 52.4 (67378) - http://www.bohemiancoding.com/sketch -->
    <title>客户密码解锁</title>
    <desc>Created with Sketch.</desc>
    <g id="客户密码解锁" stroke="none" stroke-width="1" fill="none" fill-rule="evenodd">
        <g>
            <rect id="矩形" x="0" y="0" width="56" height="56"></rect>
            <path d="M29,18.9035 L32,18.9035 C32.5522847,18.9035 33,19.3512153 33,19.9035 C33,20.4557847 32.5522847,20.9035 32,20.9035 L29,20.9035 L29,28 C29,28.0277444 28.9988701,28.0552249 28.9966539,28.082398 C31.8360134,28.5570967 34,31.0258353 34,34 C34,37.3137085 31.3137085,40 28,40 C24.6862915,40 22,37.3137085 22,34 C22,31.0258353 24.1639866,28.5570967 27.0033461,28.082398 C27.0011299,28.0552249 27,28.0277444 27,28 L27,15.807 C27,15.2547153 27.4477153,14.807 28,14.807 C28.5522847,14.807 29,15.2547153 29,15.807 L29,18.9035 Z M28,30 C25.790861,30 24,31.790861 24,34 C24,36.209139 25.790861,38 28,38 C30.209139,38 32,36.209139 32,34 C32,31.790861 30.209139,30 28,30 Z M37.4463335,10.3669879 C34.6330442,8.85669436 31.4165679,8 28,8 C16.954305,8 8,16.954305 8,28 C8,39.045695 16.954305,48 28,48 C39.045695,48 48,39.045695 48,28 C48,25.8431134 47.658571,23.7659719 47.0268119,21.8196743 C47.690183,21.6599811 48.3139207,21.3985524 48.8805948,21.0528186 C49.6067937,23.236565 50,25.5723634 50,28 C50,40.1502645 40.1502645,50 28,50 C15.8497355,50 6,40.1502645 6,28 C6,15.8497355 15.8497355,6 28,6 C31.9465252,6 35.6503413,7.03916105 38.8527529,8.85878773 L41.2222955,6.31776445 L44.7354862,15.7468413 L35.0843102,12.8999478 L37.4463335,10.3669879 Z" id="合并形状" fill="#FFFFFF" fill-rule="nonzero"></path>
        </g>
    </g>
</svg>