<?xml version="1.0" encoding="UTF-8"?>
<svg width="56px" height="56px" viewBox="0 0 56 56" version="1.1" xmlns="http://www.w3.org/2000/svg" xmlns:xlink="http://www.w3.org/1999/xlink">
    <!-- Generator: Sketch 52.4 (67378) - http://www.bohemiancoding.com/sketch -->
    <title>OTC交易开户</title>
    <desc>Created with Sketch.</desc>
    <g id="OTC交易开户" stroke="none" stroke-width="1" fill="none" fill-rule="evenodd">
        <g id="OTC交易开户-copy">
            <rect id="矩形-copy-23" x="0" y="0" width="56" height="56"></rect>
            <path d="M46,33.515549 C45.3829884,33.1025345 44.712058,32.7637935 44,32.5121171 L44,21 C44,19.8954305 43.1045695,19 42,19 L10,19 C8.8954305,19 8,19.8954305 8,21 L8,41 C8,42.1045695 8.8954305,43 10,43 L32.2230164,43 C32.38215,43.7013005 32.6231798,44.3714959 32.9355196,45 L10,45 C7.790861,45 6,43.209139 6,41 L6,21 C6,18.790861 7.790861,17 10,17 L42,17 C44.209139,17 46,18.790861 46,21 L46,33.515549 Z M41,33 C45.418278,33 49,36.581722 49,41 C49,45.418278 45.418278,49 41,49 C36.581722,49 33,45.418278 33,41 C33,36.581722 36.581722,33 41,33 Z M41,35 C37.6862915,35 35,37.6862915 35,41 C35,44.3137085 37.6862915,47 41,47 C44.3137085,47 47,44.3137085 47,41 C47,37.6862915 44.3137085,35 41,35 Z M40,40 L40,38 C40,37.4477153 40.4477153,37 41,37 C41.5522847,37 42,37.4477153 42,38 L42,40 L44,40 C44.5522847,40 45,40.4477153 45,41 C45,41.5522847 44.5522847,42 44,42 L42,42 L42,44 C42,44.5522847 41.5522847,45 41,45 C40.4477153,45 40,44.5522847 40,44 L40,42 L38,42 C37.4477153,42 37,41.5522847 37,41 C37,40.4477153 37.4477153,40 38,40 L40,40 Z M12,28.4472656 C12,27.0449149 12.3906211,25.9531289 13.171875,25.171875 C13.9531289,24.3906211 15.0410087,24 16.4355469,24 C17.8652415,24 18.966793,24.3837852 19.7402344,25.1513672 C20.5136757,25.9189492 20.9003906,26.9941337 20.9003906,28.3769531 C20.9003906,29.3808644 20.731447,30.2040983 20.3935547,30.8466797 C20.0556624,31.489261 19.567386,31.989256 18.9287109,32.3466797 C18.2900359,32.7041033 17.4941454,32.8828125 16.5410156,32.8828125 C15.5722608,32.8828125 14.770511,32.7285172 14.1357422,32.4199219 C13.5009734,32.1113266 12.9863301,31.6230502 12.5917969,30.9550781 C12.1972637,30.287106 12,29.4511769 12,28.4472656 Z M14.6542969,28.4589844 C14.6542969,29.3261762 14.8154281,29.9492169 15.1376953,30.328125 C15.4599625,30.7070331 15.8984347,30.8964844 16.453125,30.8964844 C17.0234404,30.8964844 17.4648422,30.7109394 17.7773438,30.3398438 C18.0898453,29.9687481 18.2460938,29.3027392 18.2460938,28.3417969 C18.2460938,27.5331991 18.0830094,26.9423847 17.7568359,26.5693359 C17.4306624,26.1962872 16.988284,26.0097656 16.4296875,26.0097656 C15.8945286,26.0097656 15.4648454,26.1992169 15.140625,26.578125 C14.8164046,26.9570331 14.6542969,27.58398 14.6542969,28.4589844 Z M21.7265625,24.1464844 L29.7949219,24.1464844 L29.7949219,26.2675781 L27.0878906,26.2675781 L27.0878906,32.7363281 L24.4335938,32.7363281 L24.4335938,26.2675781 L21.7265625,26.2675781 L21.7265625,24.1464844 Z M36.7148438,29.2265625 L39.0410156,29.9296875 C38.8847648,30.5820345 38.6386736,31.1269509 38.3027344,31.5644531 C37.9667952,32.0019553 37.5498072,32.3320301 37.0517578,32.5546875 C36.5537084,32.7773449 35.9199257,32.8886719 35.1503906,32.8886719 C34.2167922,32.8886719 33.4541045,32.752931 32.8623047,32.4814453 C32.2705049,32.2099596 31.7597678,31.7324253 31.3300781,31.0488281 C30.9003885,30.365231 30.6855469,29.4902397 30.6855469,28.4238281 C30.6855469,27.001946 31.0634728,25.9091835 31.8193359,25.1455078 C32.5751991,24.3818321 33.6445243,24 35.0273438,24 C36.1093804,24 36.9599578,24.2187478 37.5791016,24.65625 C38.1982453,25.0937522 38.6582016,25.7656205 38.9589844,26.671875 L36.6152344,27.1933594 C36.5332027,26.9316393 36.4472661,26.740235 36.3574219,26.6191406 C36.2089836,26.4160146 36.0273448,26.2597662 35.8125,26.1503906 C35.5976552,26.0410151 35.3574232,25.9863281 35.0917969,25.9863281 C34.4902314,25.9863281 34.0292985,26.2285132 33.7089844,26.7128906 C33.4667957,27.0722674 33.3457031,27.6367149 33.3457031,28.40625 C33.3457031,29.3593798 33.4902329,30.0126935 33.7792969,30.3662109 C34.0683608,30.7197283 34.4746068,30.8964844 34.9980469,30.8964844 C35.5058619,30.8964844 35.8896471,30.7539077 36.1494141,30.46875 C36.409181,30.1835923 36.5976557,29.769534 36.7148438,29.2265625 Z M13,37 L29,37 C29.5522847,37 30,37.4477153 30,38 C30,38.5522847 29.5522847,39 29,39 L13,39 C12.4477153,39 12,38.5522847 12,38 C12,37.4477153 12.4477153,37 13,37 Z M36,17 L34,17 C34,13.1340068 30.8659932,10 27,10 L26,10 C22.1340068,10 19,13.1340068 19,17 L17,17 C17,12.0294373 21.0294373,8 26,8 L27,8 C31.9705627,8 36,12.0294373 36,17 Z" id="合并形状" fill="#FFFFFF"></path>
        </g>
    </g>
</svg>