<svg xmlns="http://www.w3.org/2000/svg" xmlns:xlink="http://www.w3.org/1999/xlink" width="160" height="160" viewBox="0 0 160 160">
  <defs>
    <linearGradient id="linear-gradient" x1="0.491" y1="0.094" x2="0.525" y2="0.984" gradientUnits="objectBoundingBox">
      <stop offset="0" stop-color="#39c2ff"/>
      <stop offset="1" stop-color="#236ffb" stop-opacity="0"/>
    </linearGradient>
    <linearGradient id="linear-gradient-2" x1="0.121" y1="0.126" x2="0.869" y2="0.743" gradientUnits="objectBoundingBox">
      <stop offset="0" stop-color="#39c2ff"/>
      <stop offset="1" stop-color="#236ffb"/>
    </linearGradient>
    <linearGradient id="linear-gradient-3" x1="0.934" y1="0.041" x2="0.099" y2="0.923" gradientUnits="objectBoundingBox">
      <stop offset="0" stop-color="#236ffb"/>
      <stop offset="1" stop-color="#236ffb" stop-opacity="0"/>
    </linearGradient>
  </defs>
  <g id="icon-Risk_assessment" data-name="icon-Risk assessment" transform="translate(-2648 -2016)">
    <g id="终身免费售后_copy_2" data-name="终身免费售后 copy 2" transform="translate(2680 2046)">
      <g id="分组" transform="translate(33.123)">
        <path id="路径" d="M63.7,19.284a8,8,0,1,0-12.661,6.5A8.852,8.852,0,0,1,40.61,27.349a11.516,11.516,0,0,1-5.521-6.588c-.346-1.622.525-5.615.57-5.738A8,8,0,0,0,31.827,0a7.906,7.906,0,0,0-5.655,2.349A7.98,7.98,0,0,0,28.318,15.19l.056.112a13.763,13.763,0,0,1,.413,5.481A11.686,11.686,0,0,1,23.2,27.461,8.926,8.926,0,0,1,12.572,25.85a7.982,7.982,0,1,0-6.794,1.141l6.672,27.718a3.073,3.073,0,0,0,2.984,2.349H48.254a3.073,3.073,0,0,0,2.984-2.349l6.683-27.718A8.046,8.046,0,0,0,63.7,19.284Z" transform="translate(0)" opacity="0.5" fill="url(#linear-gradient)"/>
        <path id="路径-2" data-name="路径" d="M20.216,7.1H.38A.377.377,0,0,1,0,6.723V.38A.377.377,0,0,1,.38,0H20.216a.377.377,0,0,1,.38.38V6.723A.377.377,0,0,1,20.216,7.1Z" transform="translate(21.993 40.828)" fill="#236ffb" opacity="0.2"/>
      </g>
      <path id="路径-3" data-name="路径" d="M65.989,16.969a5.008,5.008,0,0,0-4.3-4.955C51.741,10.56,44.1,7.808,36.274,1.287l-.19-.157a5,5,0,0,0-6.236-.078h0C23.468,6.074,10.236,9.944,3.755,11.622A5,5,0,0,0,0,16.466V38.4C0,50.873,6.94,62.54,18.54,69.542l11.868,7.17a4.979,4.979,0,0,0,5.163,0l11.868-7.17c11.6-7,18.54-18.658,18.54-31.141V16.969Z" transform="translate(0 22.472)" fill="url(#linear-gradient-2)"/>
      <path id="路径-4" data-name="路径" d="M20.14,23.269,17,26.412a4.442,4.442,0,0,1-6.28,0L7.58,23.269,1.3,16.983a4.452,4.452,0,0,1,0-6.286h0a4.442,4.442,0,0,1,6.28,0l6.28,6.286L29.527,1.3a4.442,4.442,0,0,1,6.28,0h0a4.452,4.452,0,0,1,0,6.286Z" transform="translate(17.14 46.351)" fill="#fff" opacity="0.8"/>
      <g id="分组-2" data-name="分组" transform="translate(67.676 56.387)">
        <path id="路径-5" data-name="路径" d="M26.06,5.1,5.1,26.1,0,21,20.965,0Z" fill="url(#linear-gradient-3)"/>
        <rect id="矩形" width="7.215" height="7.215" transform="translate(15.845 5.125) rotate(-45)" fill="#236ffb"/>
      </g>
    </g>
    <rect id="矩形_1365" data-name="矩形 1365" width="160" height="160" transform="translate(2648 2016)" fill="none"/>
  </g>
</svg>
