<svg xmlns="http://www.w3.org/2000/svg" xmlns:xlink="http://www.w3.org/1999/xlink" viewBox="0 0 56 56">
  <defs>
    <style>
      .cls-1 {
        clip-path: url(#clip-ic_shfxjsgp上海风险警示股票交易权限开通);
      }

      .cls-2 {
        fill: #ffffff;
      }
    </style>
    <clipPath id="clip-ic_shfxjsgp上海风险警示股票交易权限开通">
      <rect width="56" height="56"/>
    </clipPath>
  </defs>
  <g id="ic_shfxjsgp上海风险警示股票交易权限开通" data-name="ic/shfxjsgp上海风险警示股票交易权限开通" class="cls-1">
    <g id="警示" transform="translate(-22.592 86.112) rotate(-90)">
      <path id="路径_700" data-name="路径 700" class="cls-2" d="M61.943,31.6A19.342,19.342,0,0,0,42.6,50.943c0,1.609,1.233,1.514,1.233,1.514a1.222,1.222,0,0,0,1.085-1.3c-1.469-9.822,8.21-17.712,17.024-17.712A17.5,17.5,0,0,1,79.434,51.02c.021,10.594-8.681,17.174-17.491,17.174-5.388-.034-5.691-1.464-5.988-1.62-.734-.641-1.156-.422-1.406-.094s-.312,1.031.406,1.714,2.822,2.083,6.992,2.083a19.338,19.338,0,1,0,0-38.677Z" transform="translate(-1.39 0)"/>
      <path id="沪" class="cls-2" d="M6.294,3.679l1.795-.307q.236.815.425,1.535h2.869v5.987H9.778V10.1H5.621A9.246,9.246,0,0,1,4.039,15.05a13.235,13.235,0,0,0-1.287-1.3,7.388,7.388,0,0,0,1.3-4.534V4.907H6.7Q6.507,4.317,6.294,3.679ZM5.657,6.419V8.591H9.778V6.419ZM1.689,9.784a11.7,11.7,0,0,0,1.547.614q-.9,2.822-1.322,4.475-.838-.319-1.606-.555A43.7,43.7,0,0,0,1.689,9.784ZM1.181,6.572Q2.2,7.3,3.236,8.213L2.2,9.406A22.529,22.529,0,0,0,.178,7.682Zm.177-3.105q.992.708,2.043,1.57L2.374,6.23Q1.536,5.462.414,4.541Z" transform="translate(52.882 56.592) rotate(90)"/>
      <path id="图标_报警灯" class="cls-2" d="M17.435,21.153H5.878l-.273.716h12.04l-.21-.716ZM4.954,20.366H18.339l.984,2.533H4.247l.708-2.533ZM6.993,12.4v6.163h9.288V12.4c0-2.843-1.915-4.429-4.484-4.616h-.108c-2.525.187-4.7,1.782-4.7,4.617ZM11.6,6.551h.085a5.933,5.933,0,0,1,5.933,5.933v7.289H5.671V12.484A5.933,5.933,0,0,1,11.6,6.551Zm3.214,5.542a.3.3,0,1,1-.6,0A2.22,2.22,0,0,0,12,9.875h-.051a.3.3,0,0,1,0-.6H12a2.826,2.826,0,0,1,2.823,2.823ZM3.8,9.737l-2.8-.561a.181.181,0,0,0-.071.354l2.8.561A.18.18,0,0,0,3.8,9.737Zm-.226,1.125L.781,10.3a.967.967,0,1,1,.38-1.9l2.8.561a.967.967,0,1,1-.38,1.9Zm1.13-7.626,1.783,2.23a.181.181,0,0,0,.282-.226L4.991,3.012a.181.181,0,0,0-.283.224ZM4.1,3.728a.967.967,0,0,1,1.51-1.208L7.388,4.749a.967.967,0,0,1-1.51,1.208L4.1,3.728Zm7.838.1L11.927.994V.973a.18.18,0,0,0-.36-.014L11.573,3.8v.021a.181.181,0,0,0,.36.014Zm-.2.956a.967.967,0,0,1-.943-.989L10.78.947a.967.967,0,0,1,1.933.045l.007,2.853a.967.967,0,0,1-.989.944Zm5.069.721a.181.181,0,0,0,.255-.015L18.94,3.352a.181.181,0,0,0-.271-.239L16.784,5.255a.18.18,0,0,0,.016.254Zm-.519.591a.966.966,0,0,1-.087-1.364l1.885-2.142A.967.967,0,0,1,19.53,3.871L17.645,6.013a.967.967,0,0,1-1.364.087ZM22.3,9.677l-2.821.429a.18.18,0,1,0,.054.357l2.821-.429a.181.181,0,0,0-.054-.357Zm.983.033a.967.967,0,0,1-.81,1.1l-2.821.429a.967.967,0,1,1-.291-1.911L22.177,8.9a.967.967,0,0,1,1.1.81Z" transform="translate(73.585 39.388) rotate(90)"/>
    </g>
  </g>
</svg>
