<?xml version="1.0" encoding="UTF-8"?>
<svg width="56px" height="56px" viewBox="0 0 56 56" version="1.1" xmlns="http://www.w3.org/2000/svg" xmlns:xlink="http://www.w3.org/1999/xlink">
    <!-- Generator: Sketch 52.6 (67491) - http://www.bohemiancoding.com/sketch -->
    <title>icon-v0006</title>
    <desc>Created with Sketch.</desc>
    <g id="icon-v0006" stroke="none" stroke-width="1" fill="none" fill-rule="evenodd">
        <rect id="Rectangle" x="0" y="0" width="56" height="56"></rect>
        <g id="ic_bgsfyh变更三方银行-2" transform="translate(7.579000, 11.402000)" fill="#ffffff" fill-rule="nonzero">
            <path d="M14.672,0.877 C18.429,0.877 31.543,0.877 35.3,0.877 C37.133,0.877 38.01,1.846 38.01,3.877 C38.01,8.327 38.01,11.886 38.01,15.849 C38.01,18.307 38.01,21.11 38.01,24.399 C38.01,26.43 37.133,27.436 35.31,27.436 C32.799,27.436 29.251,27.441 25.088,27.442 C17.553,27.442 8.36,27.442 3.331,27.436 C1.502,27.436 0.613,26.444 0.609,24.412 C0.601,16.673 0.601,11.63 0.609,3.89 C0.609,1.854 1.498,0.871 3.319,0.867 C7.103,0.873666667 10.8873333,0.877 14.672,0.877 Z M1.736,14.089 C1.736,17.85 1.736,19.711 1.736,23.37 C1.736,25.776 1.813,26.059 4.285,26.059 L34.369,26.059 C36.869,26.059 36.885,24.812 36.885,23.347 C36.885,19.92 36.885,19.185 36.885,15.758 C36.885,15.508 36.852,14.358 36.835,14.089 L1.736,14.089 Z M1.736,8.089 L36.8890191,8.089 C36.889,7.036 36.889,6.044 36.889,5.052 C36.889,3.452 36.923,1.852 34.119,1.852 L4.462,1.852 C4.279,1.852 4.074,1.833 3.891,1.852 C1.463,2.098 1.791,3.03 1.748,4.514 L1.736,8.089 Z" id="路径_629"></path>
            <path d="M4.938,17.5 L6.895,17.5 C7.25474334,17.4788265 7.60821584,17.6010856 7.878,17.84 C8.11187731,18.0741466 8.23544666,18.3965172 8.218,18.727 C8.22636505,18.9725045 8.16462249,19.2153123 8.04,19.427 C7.85366023,19.3947437 7.66829948,19.4888973 7.58444265,19.6583996 C7.50058582,19.8279019 7.53821035,20.0323717 7.67691169,20.160921 C7.81561303,20.2894703 8.02234798,20.3114744 8.185,20.215 C8.54240287,20.8191679 8.44884406,21.5881556 7.957,22.089 C7.64436795,22.2993165 7.27105458,22.4005541 6.895,22.377 L4.938,22.377 L4.938,17.5 Z M5.593,18.114 L5.593,19.568 L6.721,19.568 C6.9510393,19.5866251 7.18024502,19.5232127 7.368,19.389 C7.51311601,19.2339186 7.58578119,19.0246429 7.568,18.813 C7.58636392,18.6140951 7.51267927,18.4177255 7.368,18.28 C7.18350263,18.1499651 6.95880405,18.0897147 6.734,18.11 L5.594,18.11 L5.593,18.114 Z M5.593,20.177 L5.593,21.763 L6.804,21.763 C7.0294444,21.7730723 7.25330484,21.7208267 7.451,21.612 C7.65032638,21.4734205 7.76201361,21.240169 7.745,20.998 C7.76660474,20.7651209 7.68297648,20.5347764 7.517,20.37 C7.31391075,20.2246714 7.06592448,20.1559438 6.817,20.176 L5.593,20.177 Z M10.293,17.501 L11.035,17.501 L12.685,22.377 L11.985,22.377 L11.585,21.122 L9.744,21.122 L9.344,22.377 L8.644,22.377 L10.293,17.501 Z M9.941,20.508 L11.381,20.508 L10.672,18.308 L10.647,18.308 L9.941,20.508 Z M13.105,17.501 L13.764,17.501 L15.953,21.126 L15.978,21.126 L15.978,17.5 L16.633,17.5 L16.633,22.376 L15.999,22.376 L13.785,18.709 L13.76,18.709 L13.76,22.376 L13.105,22.376 L13.105,17.501 Z M20.205,17.501 L21.034,17.501 L19.139,19.601 L21.312,22.381 L20.433,22.381 L18.691,20.087 L18.131,20.696 L18.131,22.381 L17.476,22.381 L17.476,17.5 L18.131,17.5 L18.131,19.855 L20.205,17.501 Z" id="路径_630"></path>
            <g id="变更" transform="translate(24.705000, 16.355000)">
                <path d="M14.756,14.634 C13.5819426,15.4592348 12.1769023,15.891878 10.742,15.87 C10.5546667,15.87 10.368,15.8606667 10.182,15.842 C10.107,15.834 10.03,15.822 9.955,15.812 C9.809,15.792 9.664,15.775 9.522,15.746 C9.435,15.73 9.349,15.707 9.263,15.687 C9.125,15.654 8.986,15.622 8.85,15.581 C8.785,15.561 8.721,15.537 8.656,15.515 C8.49933333,15.465 8.34466667,15.4083333 8.192,15.345 C8.158,15.331 8.125,15.315 8.092,15.299 C7.90666667,15.219 7.725,15.131 7.547,15.035 C6.97418394,14.720895 6.44892929,14.326954 5.987,13.865 C5.979,13.858 5.973,13.85 5.964,13.841 C5.82066667,13.6976667 5.68433333,13.5476667 5.555,13.391 L5.473,13.291 C4.50125516,12.0796691 3.97208168,10.5729358 3.973,9.02 L5.773,9.02 L2.887,4.69 L0.001,9.02 L1.801,9.02 C1.8004624,10.8473053 2.35876187,12.6310721 3.401,14.132 C3.413,14.152 3.421,14.173 3.435,14.194 C3.535,14.344 3.655,14.481 3.767,14.621 C3.809,14.673 3.849,14.729 3.89,14.781 C4.055,14.981 4.229,15.168 4.41,15.352 L4.46,15.404 C5.0603663,16.0039969 5.74283598,16.515765 6.487,16.924 C6.507,16.935 6.525,16.946 6.547,16.957 C6.761,17.072 6.979,17.176 7.203,17.275 C7.259,17.298 7.313,17.325 7.369,17.349 C7.559,17.428 7.754,17.498 7.951,17.563 C8.045,17.595 8.137,17.626 8.232,17.655 C8.404,17.707 8.58,17.749 8.758,17.791 C8.876,17.819 8.993,17.848 9.113,17.872 C9.163,17.883 9.213,17.897 9.259,17.906 C9.427,17.936 9.595,17.952 9.759,17.972 L9.939,17.996 C10.239,18.025 10.539,18.045 10.839,18.045 C12.685892,18.0445488 14.4874813,17.4731257 15.997,16.409 C16.3137159,16.1866022 16.4877257,15.8121322 16.4534815,15.4266492 C16.4192373,15.0411662 16.1819417,14.7032343 15.8309815,14.5401492 C15.4800214,14.377064 15.0687159,14.4136022 14.752,14.636 L14.756,14.634 Z M19.846,9.02 C19.8460788,7.19799927 19.291495,5.41914537 18.256,3.92 C18.241,3.897 18.233,3.871 18.216,3.849 C18.092,3.671 17.956,3.507 17.821,3.34 C17.805,3.32 17.791,3.3 17.774,3.279 C16.8696012,2.17892752 15.714662,1.31169431 14.406,0.75 C14.369,0.733 14.335,0.716 14.298,0.701 C14.0886667,0.616333333 13.8766667,0.538666667 13.662,0.468 C13.585,0.443 13.51,0.415 13.43,0.391 C13.2426667,0.336333333 13.0536667,0.287333333 12.863,0.244 C12.758,0.22 12.653,0.192 12.546,0.172 C12.493,0.161 12.446,0.146 12.392,0.136 C12.249,0.112 12.105,0.101 11.963,0.083 C11.863,0.071 11.768,0.055 11.663,0.046 C11.425,0.0246666667 11.1863333,0.0123333333 10.947,0.009 C10.905,0.009 10.863,0.003 10.819,0.003 C10.81,0.003 10.804,0.003 10.796,0.003 C8.95307168,0.00214917866 7.15483169,0.570363679 5.647,1.63 C5.19272071,1.98488461 5.09565956,2.63324278 5.42609798,3.10560198 C5.7565364,3.57796117 6.39887501,3.70907295 6.888,3.404 C8.05276479,2.58504384 9.44521903,2.15237217 10.869,2.167 C11.069,2.167 11.274,2.179 11.469,2.197 L11.651,2.22 C11.815,2.239 11.977,2.263 12.136,2.295 C12.205,2.308 12.275,2.327 12.344,2.343 C12.501,2.378 12.657,2.416 12.81,2.461 L12.954,2.51 C13.1273333,2.56666667 13.2983333,2.62933333 13.467,2.698 L13.518,2.72 C16.0364508,3.80243365 17.6700587,6.27878831 17.674,9.02 L15.874,9.02 L18.761,13.35 L21.647,9.02 L19.847,9.02 L19.846,9.02 Z" id="路径_632"></path>
            </g>
        </g>
    </g>
</svg>