<svg xmlns="http://www.w3.org/2000/svg" xmlns:xlink="http://www.w3.org/1999/xlink" viewBox="0 0 56 56">
  <defs>
    <style>
      .cls-1 {
        clip-path: url(#clip-ic_tszlhgtz退市整理期合格投资者权限开通);
      }

      .cls-2 {
        fill: #ffffff;
      }
    </style>
    <clipPath id="clip-ic_tszlhgtz退市整理期合格投资者权限开通">
      <rect width="56" height="56"/>
    </clipPath>
  </defs>
  <g id="ic_tszlhgtz退市整理期合格投资者权限开通" data-name="ic/tszlhgtz退市整理期合格投资者权限开通" class="cls-1">
    <g id="退市整理股权交易权限开通" transform="translate(6.753 -94.744)">
      <path id="路径_696" data-name="路径 696" class="cls-2" d="M34.56,124.054l-2.49-11.205h6.112l1.708,6.66H41.5v-8.24a2.051,2.051,0,0,0-2.049-2.049H4.269a2.051,2.051,0,0,0-2.049,2.049v8.24H3.827l1.708-6.66h6.112l-2.49,11.205,12.7,7.281,12.706-7.281Zm.508,2.287-13.214,7.517L8.648,126.346,5.756,139.361H37.962ZM4.269,107H39.448a4.269,4.269,0,0,1,4.269,4.269v9.008a1.451,1.451,0,0,1-1.452,1.452H39.294a1.452,1.452,0,0,1-1.406-1.091l-.574-2.239-.854-3.33H34.838l5.5,24.746a1.452,1.452,0,0,1-1.417,1.767H4.8a1.452,1.452,0,0,1-1.452-1.452,1.478,1.478,0,0,1,.035-.315l5.5-24.746H7.258L6.4,118.4l-.574,2.239a1.451,1.451,0,0,1-1.406,1.091H1.452A1.451,1.451,0,0,1,0,120.278v-9.008A4.269,4.269,0,0,1,4.269,107Z" transform="translate(0)"/>
      <path id="路径_697" data-name="路径 697" class="cls-2" d="M132.127,285h1.8l-.4,2,1.751-.9.5,1.6-1.951.15,1.5,1.451-1.351,1-.951-1.9-.951,1.9-1.3-1.051,1.451-1.4-1.951-.15.5-1.651,1.751.9Zm4.254,6.976,1.8-.367a1.694,1.694,0,0,0,1.834,1.688q1.211-.037,1.284-.991.037-.66-.844-1.027a9.018,9.018,0,0,0-1.614-.44q-2.238-.477-2.165-2.348.22-2.018,2.972-2.165,2.9-.073,3.375,2.275l-1.8.33a1.322,1.322,0,0,0-1.5-1.174q-1.064.037-1.137.771-.073.66,1.431.991a7.185,7.185,0,0,1,1.908.66,2.351,2.351,0,0,1,1.321,2.055q-.11,2.348-3.192,2.422Q136.968,294.691,136.381,291.976Zm14.212-4.036h-2.6v6.567h-1.871V287.94h-2.642v-1.5h7.118ZM124,304.212l8.112,5.977H124Zm33.13,0-7.685,5.977h7.685Z" transform="translate(-118.706 -170.401)"/>
    </g>
  </g>
</svg>
