<svg xmlns="http://www.w3.org/2000/svg" xmlns:xlink="http://www.w3.org/1999/xlink" width="84" height="84" viewBox="0 0 84 84">
  <defs>
    <linearGradient id="linear-gradient" x1="0.5" y1="-0.128" x2="0.5" y2="1.13" gradientUnits="objectBoundingBox">
      <stop offset="0" stop-color="#ffce47"/>
      <stop offset="1" stop-color="#da9c53"/>
    </linearGradient>
  </defs>
  <g id="icon-biz-jikh" transform="translate(-120 -5742)">
    <path id="路径_12969" data-name="路径 12969" d="M42,0A42,42,0,1,1,0,42,42,42,0,0,1,42,0Z" transform="translate(120 5742)" fill="url(#linear-gradient)"/>
    <rect id="矩形_12171" data-name="矩形 12171" width="48" height="48" transform="translate(138 5760)" fill="rgba(255,255,255,0)"/>
    <g id="组_30030" data-name="组 30030" transform="translate(1.726 6.342)">
      <path id="路径_13017" data-name="路径 13017" d="M38.988,12.143l2.185,5.336a1.747,1.747,0,0,1,0,1.734l-9.485,16.6a1.747,1.747,0,0,1-1.517.88H11.232a1.747,1.747,0,0,1-1.517-.88L.23,19.213a1.747,1.747,0,0,1,0-1.734L9.715.88A1.747,1.747,0,0,1,11.232,0H23.541" transform="translate(176.941 5756.467) rotate(90)" fill="none" stroke="#fff" stroke-linecap="round" stroke-width="2"/>
      <g id="组_30058" data-name="组 30058" transform="translate(151.09 5761.479)">
        <text id="基" transform="translate(0 16)" fill="#fff" font-size="15" font-family="AlibabaPuHuiTi-Bold, Alibaba PuHuiTi" font-weight="700"><tspan x="0" y="0">基</tspan></text>
      </g>
      <path id="路径_13018" data-name="路径 13018" d="M152.023,5771.759l5.517-5.3,5.517,5.3,14.526-10.318" transform="translate(-5.298 15.577)" fill="none" stroke="#fff" stroke-linecap="round" stroke-width="2"/>
      <g id="组_30059" data-name="组 30059" transform="matrix(0.966, 0.259, -0.259, 0.966, 168.655, 5775.591)">
        <path id="路径_13019" data-name="路径 13019" d="M4.193,0H0" fill="none" stroke="#fff" stroke-linecap="round" stroke-width="2"/>
        <path id="路径_13020" data-name="路径 13020" d="M4.035,0H0" transform="translate(4.192 4.036) rotate(-90)" fill="none" stroke="#fff" stroke-linecap="round" stroke-width="2"/>
      </g>
      <g id="椭圆_805" data-name="椭圆 805" transform="translate(166.09 5781.674)" fill="none" stroke="#fff" stroke-width="2">
        <circle cx="8.881" cy="8.881" r="8.881" stroke="none"/>
        <circle cx="8.881" cy="8.881" r="7.881" fill="none"/>
      </g>
      <g id="组_31061" data-name="组 31061" transform="translate(171.605 5787.113)">
        <line id="直线_363" data-name="直线 363" x2="6.879" transform="translate(0.001 3.44)" fill="none" stroke="#fff" stroke-linecap="round" stroke-width="2"/>
        <line id="直线_364" data-name="直线 364" y2="6.879" transform="translate(3.44 0)" fill="none" stroke="#fff" stroke-linecap="round" stroke-width="2"/>
      </g>
    </g>
  </g>
</svg>
