<svg xmlns="http://www.w3.org/2000/svg" width="56" height="56" viewBox="0 0 56 56">
  <g fill="none" fill-rule="evenodd">
    <rect width="56" height="56"/>
    <g fill="#FFF" fill-rule="nonzero" transform="translate(7 8)">
      <path d="M31.6403922,40.9062312 C26.5003302,40.82422 22.3921177,36.6052085 22.4469232,31.4647849 C22.5017287,26.3243613 26.6989605,22.1938996 31.839602,22.2213883 C36.9802436,22.2491525 41.1328389,26.4244872 41.1323922,31.565203 C41.0617264,36.7534724 36.8291277,40.9187383 31.6403922,40.9062312 L31.6403922,40.9062312 Z M31.6403922,24.140203 C27.5476691,24.2320209 24.296453,27.6101559 24.3613554,31.7033944 C24.4262577,35.7966328 27.7829399,39.0699931 31.8765166,39.0320091 C35.9700934,38.9940251 39.2654562,35.658941 39.25442,31.565203 C39.0794438,27.4658933 35.7427941,24.21163 31.6403922,24.139203 L31.6403922,24.140203 Z"/>
      <polygon points="3.845 19.888 1.962 18.683 2.715 17.478 7.16 12.355 13.187 5.198 13.865 5.798 14.618 5.198 19.741 11.298 21.85 14.236 24.11 11.223 29.082 5.196 30.815 6.627 25.915 12.578 21.847 18.078 17.93 12.654 13.862 7.908 8.815 13.859 4.521 18.906"/>
      <path d="M15.5193944,6.62920298 C15.5193944,7.79397152 14.5751608,8.73820298 13.4103922,8.73820298 C12.2456237,8.73820298 11.3013922,7.79397152 11.3013922,6.62920298 C11.3013922,5.46443445 12.2456237,4.52020084 13.4103922,4.52020084 C13.969978,4.51940528 14.506874,4.74134669 14.9025612,5.13703396 C15.2982485,5.53272124 15.5201899,6.06961724 15.5193944,6.62920298"/>
      <path d="M13.4093922 9.79120298C11.6205419 9.79120298 10.1703922 8.34105329 10.1703922 6.55220298 10.1703922 4.76335268 11.6205419 3.31320298 13.4093922 3.31320298 15.1982425 3.31320298 16.6483922 4.76335268 16.6483922 6.55220298 16.6548439 7.41320083 16.3156653 8.24080703 15.7068308 8.84964154 15.0979963 9.45847605 14.2703901 9.79765469 13.4093922 9.79120298zM13.4093922 5.64820298C12.8687055 5.64820298 12.4303922 6.08651621 12.4303922 6.62720298 12.4303922 7.16788975 12.8687055 7.60620298 13.4093922 7.60620298 13.950079 7.60620298 14.3883922 7.16788975 14.3883922 6.62720298 14.3761941 6.09198064 13.9446384 5.66130659 13.4093922 5.65020298L13.4093922 5.64820298zM5.65039222 18.456203C5.65118992 19.0157887 5.42924852 19.5526847 5.03356124 19.948372 4.63787397 20.3440593 4.10097796 20.5660007 3.54139222 20.565203 2.97800064 20.5787713 2.43364863 20.3609336 2.03515511 19.9624401 1.63666158 19.5639466 1.41882391 19.0195946 1.43239222 18.456203 1.43239222 17.2911583 2.37684754 16.346703 3.54189222 16.346703 4.7069369 16.346703 5.65139222 17.2911583 5.65139222 18.456203"/>
      <path d="M3.54039222 21.696203C1.75154192 21.696203.301392222 20.2460533.301392222 18.457203.301392222 16.6683527 1.75154192 15.218203 3.54039222 15.218203 5.32924253 15.218203 6.77939222 16.6683527 6.77939222 18.457203 6.78584393 19.3182008 6.44666529 20.145807 5.83783078 20.7546415 5.22899627 21.3634761 4.40139007 21.7026547 3.54039222 21.696203L3.54039222 21.696203zM3.54039222 17.553203C2.99970545 17.553203 2.56139222 17.9915162 2.56139222 18.532203 2.56139222 19.0728898 2.99970545 19.511203 3.54039222 19.511203 4.08107899 19.511203 4.51939222 19.0728898 4.51939222 18.532203 4.50824952 17.9961995 4.0763957 17.5643457 3.54039222 17.553203zM30.9623944 6.62920298C30.9631899 7.18878872 30.7412485 7.72568473 30.3455612 8.121372 29.949874 8.51705928 29.412978 8.73900068 28.8533922 8.73820513 27.7192854 8.6954268 26.8219582 7.76361622 26.8219582 6.62870298 26.8219582 5.49378975 27.7192854 4.56197916 28.8533922 4.51920084 29.412978 4.51840528 29.949874 4.74034669 30.3455612 5.13603396 30.7412485 5.53172124 30.9631899 6.06861724 30.9623944 6.62820298"/>
      <path d="M28.8533922 9.79120298C27.0645419 9.79120298 25.6143922 8.34105329 25.6143922 6.55220298 25.6143922 4.76335268 27.0645419 3.31320298 28.8533922 3.31320298 30.6422425 3.31320298 32.0923922 4.76335268 32.0923922 6.55220298 32.0988439 7.41320083 31.7596653 8.24080703 31.1508308 8.84964154 30.5419963 9.45847605 29.7143901 9.79765469 28.8533922 9.79120298zM28.8533922 5.64820298C28.3173887 5.65934568 27.8855349 6.09119951 27.8743922 6.62720298 27.9174992 7.13591253 28.3428596 7.52694867 28.8533922 7.52720298 29.1030084 7.53939878 29.3471004 7.4510499 29.5310835 7.28191326 29.7150666 7.11277663 29.8235925 6.87696194 29.8323922 6.62720298 29.8201941 6.09198064 29.3886384 5.66130659 28.8533922 5.65020298L28.8533922 5.64820298zM23.9573922 15.669203C23.9573922 16.8339715 23.0131608 17.778203 21.8483922 17.778203 20.6836237 17.778203 19.7393922 16.8339715 19.7393922 15.669203 19.7393922 14.5044344 20.6836237 13.560203 21.8483922 13.560203 22.9913074 13.6113444 23.9062508 14.5262878 23.9573922 15.669203"/>
      <path d="M21.8473922 18.909203C20.0585419 18.909203 18.6083922 17.4590533 18.6083922 15.670203 18.6083922 13.8813527 20.0585419 12.431203 21.8473922 12.431203 23.6362425 12.431203 25.0863922 13.8813527 25.0863922 15.670203 25.0928439 16.5312008 24.7536653 17.358807 24.1448308 17.9676415 23.5359963 18.5764761 22.7083901 18.9156547 21.8473922 18.909203zM21.8473922 14.766203C21.4514237 14.766203 21.0944448 15.0047287 20.9429142 15.3705559 20.7913836 15.7363831 20.8751426 16.1574685 21.1551347 16.4374605 21.4351267 16.7174526 21.8562121 16.8012116 22.2220393 16.649681 22.5878665 16.4981504 22.8263922 16.1411715 22.8263922 15.745203 22.8345217 15.4831483 22.7339902 15.2293845 22.5486005 15.0439947 22.3632107 14.858605 22.1094469 14.7580735 21.8473922 14.766203L21.8473922 14.766203zM1.50739222 23.354203L6.02739222 23.354203C6.23056298 23.3421241 6.42919012 23.4175709 6.57310721 23.561488 6.71702429 23.7054051 6.79247106 23.9040322 6.78039222 24.107203L6.78039222 28.552203C6.79247106 28.7553737 6.71702429 28.9540009 6.57310721 29.097918 6.42919012 29.2418351 6.23056298 29.3172818 6.02739222 29.305203L1.50739222 29.305203C1.30422146 29.3172818 1.10559433 29.2418351.961677239 29.097918.817760151 28.9540009.742313388 28.7553737.754392222 28.552203L.754392222 24.107203C.742313388 23.9040322.817760151 23.7054051.961677239 23.561488 1.10559433 23.4175709 1.30422146 23.3421241 1.50739222 23.354203zM12.0543922 17.327203L16.5743922 17.327203C16.777563 17.3151241 16.9761901 17.3905709 17.1201072 17.534488 17.2640243 17.6784051 17.3394711 17.8770322 17.3273922 18.080203L17.3273922 28.480203C17.3394711 28.6833737 17.2640243 28.8820009 17.1201072 29.025918 16.9761901 29.1698351 16.777563 29.2452818 16.5743922 29.233203L12.0543922 29.233203C11.8512215 29.2452818 11.6525943 29.1698351 11.5086772 29.025918 11.3647602 28.8820009 11.2893134 28.6833737 11.3013922 28.480203L11.3013922 18.080203C11.2893412 17.8772164 11.364656 17.678763 11.5083463 17.5348816 11.6520367 17.3910002 11.8503898 17.3154218 12.0533922 17.327203L12.0543922 17.327203zM26.9703922 21.847203C24.8430272 22.6864075 23.0453628 24.1931752 21.8473922 26.141203L21.8473922 22.600203C21.8353134 22.3970322 21.9107602 22.1984051 22.0546772 22.054488 22.1985943 21.9105709 22.3972215 21.8351241 22.6003922 21.847203L26.9703922 21.847203zM33.5213922 2.26020298L1.13039222 2.26020298C.512746246 2.24493253.0156626753 1.74784896.000189238425 1.13020298-.00537169706.828778301.111829696.537997263.325008099.32481886.538186501.111640458.828967539-.00556093548 1.13039222.000202983779L33.5213922.000202983779C34.1454739.000203058175 34.6513921.506121269 34.6513921 1.13020298 34.6513921 1.7542847 34.1454739 2.26020298 33.5213922 2.26020298zM19.2083922 33.524203L1.50839222 33.524203C.884310455 33.524203.378392222 33.0182848.378392222 32.394203.378392222 31.7701212.884310455 31.264203 1.50839222 31.264203L19.2083922 31.264203C19.8324739 31.264203 20.338392 31.7701213 20.338392 32.394203 20.338392 33.0182847 19.8324739 33.524203 19.2083922 33.524203L19.2083922 33.524203zM28.6032854 29.6433098L33.5662854 34.6063098C33.9568097 34.9968341 34.5899747 34.9968341 34.980499 34.6063098 35.3710233 34.2157855 35.3710233 33.5826205 34.980499 33.1920962L30.017499 28.2290962C29.6269747 27.8385719 28.9938097 27.8385719 28.6032854 28.2290962 28.2127611 28.6196205 28.2127611 29.2527855 28.6032854 29.6433098z"/>
      <path d="M33.5662854,28.2290962 L28.6032854,33.1920962 C28.2127611,33.5826205 28.2127611,34.2157855 28.6032854,34.6063098 C28.9938097,34.9968341 29.6269747,34.9968341 30.017499,34.6063098 L34.980499,29.6433098 C35.3710233,29.2527855 35.3710233,28.6196205 34.980499,28.2290962 C34.5899747,27.8385719 33.9568097,27.8385719 33.5662854,28.2290962 Z"/>
    </g>
  </g>
</svg>
