<svg xmlns="http://www.w3.org/2000/svg" xmlns:xlink="http://www.w3.org/1999/xlink" viewBox="0 0 56 56">
  <defs>
    <style>
      .cls-1 {
        clip-path: url(#clip-ic_yjjlwgrkh获得中国永久居留权的外国人开户);
      }

      .cls-2, .cls-4 {
        fill: #ffffff;
      }

      .cls-3 {
        fill: none;
        stroke: #ffffff;
        stroke-linecap: round;
        stroke-width: 2px;
      }

      .cls-4 {
        font-size: 12px;
        font-family: SimSun;
      }
    </style>
    <clipPath id="clip-ic_yjjlwgrkh获得中国永久居留权的外国人开户">
      <rect width="56" height="56"/>
    </clipPath>
  </defs>
  <g id="ic_yjjlwgrkh获得中国永久居留权的外国人开户" data-name="ic/yjjlwgrkh获得中国永久居留权的外国人开户" class="cls-1">
    <g id="开户中心" transform="translate(-4.326 -174.285)">
      <path id="路径_675" data-name="路径 675" class="cls-2" d="M13.227,215.486h34.6a5,5,0,0,0,3.755-1.652,3,3,0,0,0,.751-1.352,1.653,1.653,0,0,0,.075-.6v-25.23a1.025,1.025,0,0,1,1.051-1.051,1.074,1.074,0,0,1,1.051,1.051v25.08a4.786,4.786,0,0,1-1.277,3.3,7.679,7.679,0,0,1-3.83,2.253,5.109,5.109,0,0,1-1.5.15H12.326a1.116,1.116,0,0,1-.676-.15.942.942,0,0,1-.451-.826V191.208a5.183,5.183,0,0,1,1.727-4.055,5.408,5.408,0,0,1,3.754-1.5H48.575A.991.991,0,0,1,49.4,186.7a1.043,1.043,0,0,1-.9.976H16.907a3.229,3.229,0,0,0-2.027.6,3.491,3.491,0,0,0-1.5,2.778v.15c-.15.075-.15,24.278-.15,24.278Z"/>
      <path id="路径_676" data-name="路径 676" class="cls-2" d="M148.676,352.039h-8.335a.961.961,0,0,1-.751-1.051.98.98,0,0,1,.976-.9h16.445a.919.919,0,0,1,.751,1.051,1.043,1.043,0,0,1-.976.9h-8.11Zm-3,4.055h-5.181a.984.984,0,0,1-.075-1.952h10.212a.563.563,0,0,1,.375.075,1.129,1.129,0,0,1,.751,1.051,1.036,1.036,0,0,1-.9.9h-.3C148.9,356.094,147.325,356.094,145.673,356.094Zm4.157-11.062a1.039,1.039,0,0,1,.976.826,1.064,1.064,0,0,1-.676,1.126.677.677,0,0,1-.375.075h-.027a.967.967,0,0,1-.976-1.051.994.994,0,0,1,.976-.976Z" transform="translate(-107.061 -147.994)"/>
      <line id="直线_6" data-name="直线 6" class="cls-3" x2="6" transform="translate(33.19 195.785)"/>
      <line id="直线_7" data-name="直线 7" class="cls-3" y2="6" transform="translate(36.19 192.785)"/>
      <path id="路径_681" data-name="路径 681" class="cls-2" d="M147.186,346.061a1.039,1.039,0,0,1,.976.826,1.064,1.064,0,0,1-.676,1.126.677.677,0,0,1-.375.075h-.027a.967.967,0,0,1-.976-1.051.994.994,0,0,1,.976-.976Z" transform="translate(-101.062 -148.994)"/>
      <path id="路径_682" data-name="路径 682" class="cls-2" d="M147.186,346.061a1.039,1.039,0,0,1,.976.826,1.064,1.064,0,0,1-.676,1.126.677.677,0,0,1-.375.075h-.027a.967.967,0,0,1-.976-1.051.994.994,0,0,1,.976-.976Z" transform="translate(-98.062 -148.994)"/>
      <text id="居_留" data-name="居
留" class="cls-4" transform="translate(17.69 199.285)"><tspan x="0" y="0">居</tspan><tspan x="0" y="12">留</tspan></text>
    </g>
  </g>
</svg>
