<?xml version="1.0" encoding="UTF-8"?>
<svg width="57px" height="56px" viewBox="0 0 57 56" version="1.1" xmlns="http://www.w3.org/2000/svg" xmlns:xlink="http://www.w3.org/1999/xlink">
    <!-- Generator: Sketch 52.6 (67491) - http://www.bohemiancoding.com/sketch -->
    <title>icon-v0017</title>
    <desc>Created with Sketch.</desc>
    <g id="icon-v0017" stroke="none" stroke-width="1" fill="none" fill-rule="evenodd">
        <rect id="Rectangle" x="0" y="0" width="56" height="56"></rect>
        <g id="ic_gpgsgf挂牌公司股份转让权限开通-2" transform="translate(9.027000, 6.154000)" fill="#ffffff">
            <path d="M22.215,21.431 C22.1956882,21.8997953 22.326349,22.3625378 22.588,22.752 C22.9386519,23.0934542 23.4106082,23.2815893 23.9,23.275 L23.9,20.006 C23.2158976,19.9375378 22.5683572,19.6643023 22.042,19.222 C21.6573127,18.8251856 21.4517208,18.2882619 21.473,17.736 C21.4457679,17.1543379 21.6633679,16.5878525 22.073,16.174 C22.5822153,15.7401035 23.2270538,15.4978026 23.896,15.489 L23.896,14.452 L24.628,14.452 L24.628,15.486 C25.2729926,15.4987425 25.8916529,15.7441467 26.37,16.177 C26.7398389,16.5924011 26.9316217,17.1365038 26.904,17.692 L26.016,17.692 C25.9855097,17.3177534 25.8507472,16.9595417 25.627,16.658 C25.3564663,16.3975948 24.9923178,16.2573436 24.617,16.269 L24.617,19.23 C24.884,19.306 25.105,19.358 25.279,19.41 C25.4197287,19.4455838 25.5574773,19.4920572 25.691,19.549 C25.7817782,19.5834873 25.8691541,19.6263383 25.952,19.677 C26.028,19.718 26.109,19.777 26.202,19.834 C26.5015735,20.0240925 26.7474014,20.2878239 26.916,20.6 C27.0759098,20.9472716 27.1532622,21.3268458 27.142,21.709 C27.1821437,22.3328488 26.9565608,22.9445743 26.521,23.393 C25.9829934,23.8376745 25.3089383,24.0847104 24.611,24.093 L24.611,25.266 L23.879,25.266 L23.879,24.093 C23.1360446,24.097652 22.4186557,23.8219804 21.87,23.321 C21.4390956,22.7972268 21.2270203,22.1273269 21.278,21.451 L22.207,21.451 L22.207,21.428 L22.215,21.431 Z M22.703,18.586 C23.0418849,18.874147 23.4604166,19.0523718 23.903,19.097 L23.903,16.275 C23.4796996,16.2609974 23.0668748,16.4082561 22.748,16.687 C22.4978204,16.9555546 22.3659551,17.3133203 22.382,17.68 C22.3613377,18.013087 22.4772426,18.3402206 22.703,18.586 Z M25.891,20.74 C25.540897,20.4108439 25.0956712,20.2008317 24.619,20.14 L24.619,23.299 C25.0575154,23.3098799 25.483478,23.1520231 25.809,22.858 C26.0918288,22.5803967 26.2455815,22.1971029 26.233,21.801 C26.250479,21.417197 26.1278677,21.0401229 25.888,20.74 L25.891,20.74 Z" id="路径_662" fill-rule="nonzero"></path>
            <path d="M37.466,39.896 L6.335,39.896 C5.75454873,39.896 5.284,39.4254513 5.284,38.845 L5.284,30.586 L6.91,30.586 L6.91,38.275 L36.892,38.275 L36.892,17.912 L32.545,17.912 L32.545,16.286 L37.466,16.286 C38.0464513,16.286 38.517,16.7565487 38.517,17.337 L38.517,38.845 C38.517,39.4254513 38.0464513,39.896 37.466,39.896 Z" id="路径_663"></path>
            <path d="M32.464,31.395 L0.894,31.395 C0.401619001,31.3917283 0.00327174264,30.993381 0,30.501 L0,9.789 C0.00327174264,9.296619 0.401619001,8.89827174 0.894,8.895 L32.463,8.895 C32.955381,8.89827174 33.3537283,9.296619 33.357,9.789 L33.357,30.489 C33.3604809,30.7280827 33.2679361,30.9585748 33.1000874,31.128867 C32.9322386,31.2991592 32.703108,31.3950253 32.464,31.395 Z M1.626,29.763 L31.732,29.763 L31.732,10.521 L1.626,10.521 L1.626,29.763 Z" id="路径_664" fill-rule="nonzero"></path>
            <path d="M17.17,14.701 L5.57,14.701 C5.34549625,14.701 5.1635,14.5190038 5.1635,14.2945 C5.1635,14.0699962 5.34549625,13.888 5.57,13.888 L17.17,13.888 C17.3945038,13.888 17.5765,14.0699962 17.5765,14.2945 C17.5765,14.5190038 17.3945038,14.701 17.17,14.701 Z M17.17,17.773 L5.57,17.773 C5.34549625,17.773 5.1635,17.5910038 5.1635,17.3665 C5.1635,17.1419962 5.34549625,16.96 5.57,16.96 L17.17,16.96 C17.3945038,16.96 17.5765,17.1419962 17.5765,17.3665 C17.5765,17.5910038 17.3945038,17.773 17.17,17.773 Z M20.362,34.541 L9.492,34.541 C9.26749625,34.541 9.0855,34.3590038 9.0855,34.1345 C9.0855,33.9099962 9.26749625,33.728 9.492,33.728 L20.362,33.728 C20.5865038,33.728 20.7685,33.9099962 20.7685,34.1345 C20.7685,34.3590038 20.5865038,34.541 20.362,34.541 Z M33.897,34.541 L23.017,34.541 C22.7924962,34.541 22.6105,34.3590038 22.6105,34.1345 C22.6105,33.9099962 22.7924962,33.728 23.017,33.728 L33.887,33.728 C33.9951709,33.7263649 34.0993913,33.7686145 34.1758884,33.8451116 C34.2523855,33.9216087 34.2946351,34.0258291 34.293,34.134 C34.2948814,34.2414678 34.2534329,34.3451709 34.1779965,34.4217361 C34.10256,34.4983012 33.9994839,34.5412852 33.892,34.541 L33.897,34.541 Z M5.568,27.188 C5.45965278,27.1896422 5.35527509,27.1472566 5.27874754,27.0705405 C5.20221999,26.9938245 5.16009126,26.8893429 5.162,26.781 L5.162,23.715 C5.162,23.4904962 5.34399625,23.3085 5.5685,23.3085 C5.79300375,23.3085 5.975,23.4904962 5.975,23.715 L5.975,26.781 C5.9744503,27.0055518 5.79255181,27.1874503 5.568,27.188 Z M9.441,27.188 C9.33265278,27.1896422 9.22827509,27.1472566 9.15174754,27.0705405 C9.07521999,26.9938245 9.03309126,26.8893429 9.035,26.781 L9.035,23.715 C9.035,23.4904962 9.21699625,23.3085 9.4415,23.3085 C9.66600375,23.3085 9.848,23.4904962 9.848,23.715 L9.848,26.781 C9.84583156,27.0048755 9.66487555,27.1858316 9.441,27.188 Z M13.308,27.188 C13.1996528,27.1896422 13.0952751,27.1472566 13.0187475,27.0705405 C12.94222,26.9938245 12.9000913,26.8893429 12.902,26.781 L12.902,23.715 C12.902,23.4904962 13.0839962,23.3085 13.3085,23.3085 C13.5330038,23.3085 13.715,23.4904962 13.715,23.715 L13.715,26.781 C13.7144503,27.0055518 13.5325518,27.1874503 13.308,27.188 Z M17.169,27.188 C17.0606528,27.1896422 16.9562751,27.1472566 16.8797475,27.0705405 C16.80322,26.9938245 16.7610913,26.8893429 16.763,26.781 L16.763,23.715 C16.763,23.4904962 16.9449962,23.3085 17.1695,23.3085 C17.3940038,23.3085 17.576,23.4904962 17.576,23.715 L17.576,26.781 C17.5754533,27.0051632 17.3941612,27.1869018 17.17,27.188 L17.169,27.188 Z M5.185,19.75 L17.553,19.75 L17.553,21.945 L5.185,21.945 L5.185,19.75 Z" id="路径_665" fill-rule="nonzero"></path>
            <g id="新建事件单_刷新" transform="translate(34.288000, 10.649000) rotate(-12.006708) translate(-34.288000, -10.649000) translate(23.789323, 2.150071)">
                <path d="M15.3340675,16.337941 C15.164089,16.337941 14.8231319,16.1679625 14.6521535,16.1679625 L10.5636687,12.0784778 C10.4005101,11.9229848 10.3081759,11.7074389 10.3081759,11.482053 C10.3081759,11.2566671 10.4005101,11.0411211 10.5636687,10.8856282 C10.7191617,10.7224696 10.9347077,10.6301353 11.1600936,10.6301353 C11.3854794,10.6301353 11.6010254,10.7224696 11.7565184,10.8856282 L15.3340675,14.4641772 L18.9116167,10.886628 C19.0671692,10.7228305 19.2831516,10.6300841 19.5090414,10.6300841 C19.7349312,10.6300841 19.9509136,10.7228305 20.1064661,10.886628 C20.2696247,11.042121 20.361959,11.257667 20.361959,11.4830529 C20.361959,11.7084387 20.2696247,11.9239847 20.1064661,12.0794777 L16.0169815,16.1689623 C15.6750246,16.1679625 15.5070457,16.337941 15.3340675,16.337941 Z" id="路径_666"></path>
                <path d="M15.505046,15.6570268 L15.164089,15.6570268 C14.9522676,15.6018187 14.7746013,15.4578363 14.6767072,15.2620482 C14.5788132,15.0662601 14.570227,14.8377376 14.6531534,14.6351556 C15.8499653,11.1878494 14.9920912,7.36014328 12.4384325,4.75340096 C9.47419464,1.7702917 4.90632581,1.07985185 1.19284967,3.05361517 C0.761825569,3.18705152 0.292744789,3.0510063 1.25328385e-16,2.70765877 C1.25328385e-16,2.02574471 0.169978579,1.5148091 0.51093561,1.34483052 C4.90043114,-1.01302024 10.3207486,-0.178905612 13.7982611,3.38957283 C16.8029363,6.51081331 17.79167,11.0591431 16.353939,15.1460912 C16.1398123,15.410872 15.8392622,15.5917685 15.505046,15.6570268 Z" id="路径_667"></path>
            </g>
        </g>
    </g>
</svg>