<svg xmlns="http://www.w3.org/2000/svg" xmlns:xlink="http://www.w3.org/1999/xlink" width="160" height="160" viewBox="0 0 160 160">
  <defs>
    <linearGradient id="linear-gradient" x1="0.5" y1="0.047" x2="0.5" y2="1.004" gradientUnits="objectBoundingBox">
      <stop offset="0" stop-color="#39c2ff"/>
      <stop offset="1" stop-color="#236ffb" stop-opacity="0"/>
    </linearGradient>
    <linearGradient id="linear-gradient-2" y1="0.5" x2="1" y2="0.5" gradientUnits="objectBoundingBox">
      <stop offset="0" stop-color="#39c2ff"/>
      <stop offset="1" stop-color="#236ffb"/>
    </linearGradient>
    <linearGradient id="linear-gradient-5" x1="0.935" y1="0.041" x2="0.099" y2="0.924" gradientUnits="objectBoundingBox">
      <stop offset="0" stop-color="#236ffb"/>
      <stop offset="1" stop-color="#236ffb" stop-opacity="0"/>
    </linearGradient>
  </defs>
  <g id="icon-Share_transfer" data-name="icon-Share transfer" transform="translate(-2165 -1773)">
    <g id="大数据高并发_copy_2" data-name="大数据高并发 copy 2" transform="translate(2190 1808)">
      <g id="分组" transform="translate(24.836)" opacity="0.5">
        <path id="路径" d="M71.17,59.386H8.275A8.265,8.265,0,0,1,0,51.139V8.248A8.265,8.265,0,0,1,8.275,0H22.442A4.936,4.936,0,0,1,26.31,1.86l3.646,4.528a4.972,4.972,0,0,0,3.867,1.86H71.157A8.244,8.244,0,0,1,79.432,16.5V51.139a8.239,8.239,0,0,1-8.262,8.248" fill="url(#linear-gradient)"/>
      </g>
      <g id="分组-2" data-name="分组" transform="translate(0 30.691)">
        <path id="路径-2" data-name="路径" d="M79.788,17.572H2.615A2.613,2.613,0,0,1,0,14.966V2.606A2.613,2.613,0,0,1,2.615,0H79.788A2.613,2.613,0,0,1,82.4,2.606V14.954A2.615,2.615,0,0,1,79.788,17.572Z" fill="url(#linear-gradient-2)"/>
        <ellipse id="椭圆形" cx="4.358" cy="4.344" rx="4.358" ry="4.344" transform="translate(5.979 4.442)" fill="#fff" opacity="0.8"/>
        <path id="路径-3" data-name="路径" d="M8.5,4.561,4.576,8.477a2.7,2.7,0,0,1-3.794,0h0a2.675,2.675,0,0,1,0-3.781L4.711.78A2.7,2.7,0,0,1,8.5.78h0A2.675,2.675,0,0,1,8.5,4.561Z" transform="translate(41.904 4.151)" fill="#003677" opacity="0.2"/>
        <path id="路径-4" data-name="路径" d="M8.5,4.561,4.576,8.477a2.7,2.7,0,0,1-3.794,0h0a2.675,2.675,0,0,1,0-3.781L4.711.78A2.7,2.7,0,0,1,8.5.78h0A2.653,2.653,0,0,1,8.5,4.561Z" transform="translate(53.739 4.151)" fill="#003677" opacity="0.2"/>
        <path id="路径-5" data-name="路径" d="M8.5,4.561,4.576,8.477a2.7,2.7,0,0,1-3.794,0h0a2.675,2.675,0,0,1,0-3.781L4.711.78A2.7,2.7,0,0,1,8.5.78h0A2.653,2.653,0,0,1,8.5,4.561Z" transform="translate(65.98 4.151)" fill="#003677" opacity="0.2"/>
        <path id="路径-6" data-name="路径" d="M79.788,17.56H2.615A2.613,2.613,0,0,1,0,14.954V2.606A2.613,2.613,0,0,1,2.615,0H79.788A2.613,2.613,0,0,1,82.4,2.606V14.954A2.605,2.605,0,0,1,79.788,17.56Z" transform="translate(0 20.815)" fill="url(#linear-gradient-2)"/>
        <ellipse id="椭圆形-2" data-name="椭圆形" cx="4.358" cy="4.344" rx="4.358" ry="4.344" transform="translate(5.979 25.245)" fill="#fff" opacity="0.8"/>
        <path id="路径-7" data-name="路径" d="M8.5,4.561,4.576,8.477a2.7,2.7,0,0,1-3.794,0h0a2.675,2.675,0,0,1,0-3.781L4.711.78A2.7,2.7,0,0,1,8.5.78h0A2.675,2.675,0,0,1,8.5,4.561Z" transform="translate(41.904 24.967)" fill="#003677" opacity="0.2"/>
        <path id="路径-8" data-name="路径" d="M8.5,4.561,4.576,8.477a2.7,2.7,0,0,1-3.794,0h0a2.675,2.675,0,0,1,0-3.781L4.711.78A2.7,2.7,0,0,1,8.5.78h0A2.653,2.653,0,0,1,8.5,4.561Z" transform="translate(53.739 24.967)" fill="#003677" opacity="0.2"/>
        <path id="路径-9" data-name="路径" d="M8.5,4.561,4.576,8.477a2.7,2.7,0,0,1-3.794,0h0a2.675,2.675,0,0,1,0-3.781L4.711.78A2.7,2.7,0,0,1,8.5.78h0A2.653,2.653,0,0,1,8.5,4.561Z" transform="translate(65.98 24.967)" fill="#003677" opacity="0.2"/>
        <path id="路径-10" data-name="路径" d="M79.788,17.572H2.615A2.613,2.613,0,0,1,0,14.966V2.606A2.613,2.613,0,0,1,2.615,0H79.788A2.613,2.613,0,0,1,82.4,2.606V14.954A2.615,2.615,0,0,1,79.788,17.572Z" transform="translate(0 41.618)" fill="url(#linear-gradient-2)"/>
        <ellipse id="椭圆形-3" data-name="椭圆形" cx="4.358" cy="4.344" rx="4.358" ry="4.344" transform="translate(5.979 46.06)" fill="#fff" opacity="0.8"/>
        <path id="路径-11" data-name="路径" d="M8.5,4.561,4.576,8.477a2.7,2.7,0,0,1-3.794,0h0a2.675,2.675,0,0,1,0-3.781L4.711.78A2.7,2.7,0,0,1,8.5.78h0A2.675,2.675,0,0,1,8.5,4.561Z" transform="translate(41.904 45.77)" fill="#003677" opacity="0.2"/>
        <path id="路径-12" data-name="路径" d="M8.5,4.561,4.576,8.477a2.7,2.7,0,0,1-3.794,0h0a2.675,2.675,0,0,1,0-3.781L4.711.78A2.7,2.7,0,0,1,8.5.78h0A2.653,2.653,0,0,1,8.5,4.561Z" transform="translate(53.739 45.77)" fill="#003677" opacity="0.2"/>
        <path id="路径-13" data-name="路径" d="M8.5,4.561,4.576,8.477a2.7,2.7,0,0,1-3.794,0h0a2.675,2.675,0,0,1,0-3.781L4.711.78A2.7,2.7,0,0,1,8.5.78h0A2.653,2.653,0,0,1,8.5,4.561Z" transform="translate(65.98 45.77)" fill="#003677" opacity="0.2"/>
      </g>
      <path id="路径-14" data-name="路径" d="M51.256,3.671H1.842A1.836,1.836,0,0,1,0,1.836H0A1.836,1.836,0,0,1,1.842,0h49.4a1.836,1.836,0,0,1,1.842,1.836h0A1.826,1.826,0,0,1,51.256,3.671Z" transform="translate(38.685 19.714)" fill="#236ffb" opacity="0.2"/>
      <path id="路径-15" data-name="路径" d="M51.256,3.671H1.842A1.836,1.836,0,0,1,0,1.836H0A1.836,1.836,0,0,1,1.842,0h49.4a1.836,1.836,0,0,1,1.842,1.836h0A1.818,1.818,0,0,1,51.256,3.671Z" transform="translate(38.685 32.012)" fill="#236ffb" opacity="0.2"/>
      <path id="路径-16" data-name="路径" d="M44.872,3.671H1.842A1.836,1.836,0,0,1,0,1.836H0A1.836,1.836,0,0,1,1.842,0H44.86A1.836,1.836,0,0,1,46.7,1.836h0A1.818,1.818,0,0,1,44.872,3.671Z" transform="translate(38.685 44.323)" fill="#236ffb" opacity="0.2"/>
      <g id="分组-3" data-name="分组" transform="translate(85.399 54.871)">
        <path id="路径-17" data-name="路径" d="M24.37,4.748,4.763,24.291,0,19.543,19.606,0Z" fill="url(#linear-gradient-5)"/>
        <path id="矩形" d="M0,0,6.729.011,6.74,6.74.011,6.729Z" transform="translate(14.817 4.766) rotate(-45)" fill="#236ffb"/>
      </g>
    </g>
    <rect id="矩形_1360" data-name="矩形 1360" width="160" height="160" transform="translate(2165 1773)" fill="none"/>
  </g>
</svg>
