<?xml version="1.0" encoding="UTF-8"?>
<svg width="56px" height="56px" viewBox="0 0 56 56" version="1.1" xmlns="http://www.w3.org/2000/svg" xmlns:xlink="http://www.w3.org/1999/xlink">
    <!-- Generator: Sketch 52.4 (67378) - http://www.bohemiancoding.com/sketch -->
    <title>指定交易</title>
    <desc>Created with Sketch.</desc>
    <g id="指定交易" stroke="none" stroke-width="1" fill="none" fill-rule="evenodd">
        <g>
            <rect id="矩形" x="0" y="0" width="56" height="56"></rect>
            <path d="M21.9570186,20.284456 C22.3575975,20.6837512 22.3857165,21.3572228 22.0200403,21.7938758 L20.2635884,23.8529228 L37.0090135,23.8529228 C37.5576909,23.8529228 38.0024818,24.3335624 38.0024818,24.9264614 C38.0024818,25.5193604 37.5576909,26 37.0090135,26 L17.9955003,26 C17.129196,26 16.6781614,24.8856669 17.2653011,24.1986022 L20.5596419,20.3381574 C20.9329594,19.9091212 21.5564396,19.8851607 21.9570186,20.284456 Z M32.9718673,34.195261 L34.7281946,32.1420786 L17.9933978,32.1420786 C17.4447593,32.1420786 17,31.662558 17,31.0710393 C17,30.4795206 17.4447593,30 17.9933978,30 L36.9961217,30 C37.8623646,30 38.3133672,31.1117388 37.7262691,31.7972039 L34.4321621,35.6475903 C34.1925084,35.9331141 33.8291357,36.0579517 33.4804479,35.9745541 C33.1317601,35.8911564 32.851437,35.6123624 32.7462501,35.2443611 C32.6410632,34.8763598 32.7272059,34.4758042 32.9718673,34.195261 Z M28,8 C16.954305,8 8,16.954305 8,28 C8,39.045695 16.954305,48 28,48 C39.045695,48 48,39.045695 48,28 C48,16.954305 39.045695,8 28,8 Z M28,6 C40.1502645,6 50,15.8497355 50,28 C50,40.1502645 40.1502645,50 28,50 C15.8497355,50 6,40.1502645 6,28 C6,15.8497355 15.8497355,6 28,6 Z" id="合并形状" fill="#FFFFFF"></path>
        </g>
    </g>
</svg>