<svg xmlns="http://www.w3.org/2000/svg" xmlns:xlink="http://www.w3.org/1999/xlink" width="136" height="136" viewBox="0 0 136 136">
  <defs>
    <linearGradient id="linear-gradient" x1="0.758" y1="0.879" x2="0.171" y2="0.155" gradientUnits="objectBoundingBox">
      <stop offset="0" stop-color="#f2f2f2"/>
      <stop offset="1" stop-color="#fff"/>
    </linearGradient>
    <filter id="椭圆_131" x="0" y="0" width="136" height="136" filterUnits="userSpaceOnUse">
      <feOffset dy="3" input="SourceAlpha"/>
      <feGaussianBlur stdDeviation="8" result="blur"/>
      <feFlood flood-color="#868686" flood-opacity="0.271"/>
      <feComposite operator="in" in2="blur"/>
      <feComposite in="SourceGraphic"/>
    </filter>
  </defs>
  <g id="icon-image-scanbtn" transform="translate(24 21)">
    <g transform="matrix(1, 0, 0, 1, -24, -21)" filter="url(#椭圆_131)">
      <circle id="椭圆_131-2" data-name="椭圆 131" cx="44" cy="44" r="44" transform="translate(24 21)" fill="url(#linear-gradient)"/>
    </g>
    <text id="_Content" data-name="↳🖊Content" transform="translate(15.778 66.234)" fill="#3674ea" font-size="13" font-family="PingFangSC-Semibold, PingFang SC" font-weight="600"><tspan x="0" y="0">点击拍摄</tspan></text>
    <g id="icon-takepicture" transform="translate(29.671 22.274)">
      <path id="路径_3153" data-name="路径 3153" d="M16.515,23.028a8.6,8.6,0,0,1-9.3-3.175,8.388,8.388,0,0,1-.129-9.729A8.6,8.6,0,0,1,16.3,6.708a8.487,8.487,0,0,1,6.366,7.415A7.088,7.088,0,0,1,28.3,16.277V6.514a2.667,2.667,0,0,0-2.681-2.655H23.136l-.36-1.612A2.884,2.884,0,0,0,19.952,0H8.417A2.884,2.884,0,0,0,5.6,2.235L5.23,3.857H2.681A2.667,2.667,0,0,0,0,6.51V23.275a2.667,2.667,0,0,0,2.681,2.654H18.452a6.784,6.784,0,0,1-1.936-2.9ZM24.227,6.9a.988.988,0,1,1-1,.988A.993.993,0,0,1,24.227,6.9Z" transform="translate(0 0)" fill="#3674ea"/>
      <path id="路径_3154" data-name="路径 3154" d="M308.776,337.188a6.586,6.586,0,1,0-4.554,6.636v-.193a6.883,6.883,0,0,1,4.557-6.444Zm2.521,1.547a4.976,4.976,0,1,0,5.069,4.975A4.976,4.976,0,0,0,311.3,338.736Zm3.045,4.975a1.015,1.015,0,0,1-1.017,1.016h-1.018v1a1.011,1.011,0,1,1-2.021,0v-1h-1.018a1.017,1.017,0,1,1,0-2.035h1.017v-1a1.011,1.011,0,1,1,2.021,0v1h1.017a1.019,1.019,0,0,1,1.017,1.017Z" transform="translate(-288.05 -322.776)" fill="#3674ea"/>
    </g>
  </g>
</svg>
