<svg xmlns="http://www.w3.org/2000/svg" width="29.429" height="31.89" viewBox="0 0 29.429 31.89">
  <g id="icon-page-err" transform="translate(-42.127 -4.251)">
    <path id="路径_4895" data-name="路径 4895" d="M57.334,35.142H47a4.962,4.962,0,0,1-4.869-4.869V8.12A4.962,4.962,0,0,1,47,3.251H66.687A4.962,4.962,0,0,1,71.556,8.12V20.181a1.177,1.177,0,1,1-2.354,0V8.12a2.614,2.614,0,0,0-2.515-2.515H47A2.614,2.614,0,0,0,44.481,8.12V30.273A2.614,2.614,0,0,0,47,32.787H57.334a1.177,1.177,0,0,1,0,2.354Z" transform="translate(0 1)" fill="#4566ec"/>
    <path id="路径_4896" data-name="路径 4896" d="M241.492,280.991h-9.107a1.177,1.177,0,1,1,0-2.354h9.107a1.177,1.177,0,0,1,0,2.354Zm3.938,6.153H232.139a1.177,1.177,0,1,1,0-2.354H245.43a1.177,1.177,0,1,1,0,2.354Zm1.311,14.5a1.177,1.177,0,0,1-.852-1.989l6.073-6.377a1.177,1.177,0,0,1,1.7,1.624l-6.073,6.377A1.174,1.174,0,0,1,246.742,301.644Z" transform="translate(-182.927 -266.771)" fill="#4566ec"/>
    <path id="路径_4897" data-name="路径 4897" d="M705.024,743.722a1.174,1.174,0,0,1-.853-.365L698.1,736.98a1.177,1.177,0,1,1,1.7-1.624l6.073,6.377a1.177,1.177,0,0,1-.852,1.989Z" transform="translate(-635.137 -708.849)" fill="#4566ec"/>
  </g>
</svg>
