<svg xmlns="http://www.w3.org/2000/svg" width="25.177" height="24.478" viewBox="0 0 25.177 24.478">
  <path id="icon-img-idcardscan" d="M38.7,27.434H14.922a.7.7,0,0,1-.7-.7v-.7a.7.7,0,0,1,.7-.7H38.7a.7.7,0,0,1,.7.7v.7A.7.7,0,0,1,38.7,27.434ZM37.3,17.02a.7.7,0,0,0-.7-.7h-4.9v-2.1H38a1.4,1.4,0,0,1,1.4,1.4v6.294H37.3Zm-20.981,0v4.9h-2.1V15.621a1.4,1.4,0,0,1,1.4-1.4h6.994v2.1H17.02A.7.7,0,0,0,16.32,17.02Zm0,18.883a.7.7,0,0,0,.7.7h5.595v2.1H15.621a1.4,1.4,0,0,1-1.4-1.4V31.007h2.1v4.9Zm20.981,0v-4.9h2.1V37.3A1.4,1.4,0,0,1,38,38.7H31.706V36.6h4.9A.7.7,0,0,0,37.3,35.9Z" transform="translate(-14.222 -14.222)" fill="#3b6aff"/>
</svg>
