<svg xmlns="http://www.w3.org/2000/svg" width="26" height="26" viewBox="0 0 26 26">
  <g id="icon-img-list-fail" transform="translate(-1114.107 -3839.197)">
    <g id="路径_4799" data-name="路径 4799" transform="translate(1114.107 3839.197)" fill="none">
      <path d="M13,13,0,13A13,13,0,1,0,13,0,13,13,0,0,0,0,13Z" stroke="none"/>
      <path d="M 12.99999809265137 24.69999885559082 C 16.12517738342285 24.69999885559082 19.06330871582031 23.48298835754395 21.27314758300781 21.27314758300781 C 23.48298835754395 19.06330871582031 24.69999885559082 16.12517738342285 24.69999885559082 12.99999809265137 C 24.69999885559082 9.874817848205566 23.48298835754395 6.93668794631958 21.27314758300781 4.726848125457764 C 19.06330871582031 2.517008066177368 16.12517738342285 1.299998044967651 12.99999809265137 1.299998044967651 C 9.874817848205566 1.299998044967651 6.93668794631958 2.517008066177368 4.726848125457764 4.726848125457764 C 2.517008066177368 6.93668794631958 1.299998044967651 9.874817848205566 1.299998044967651 12.99999809265137 C 1.299998044967651 16.12517738342285 2.517008066177368 19.06330871582031 4.726848125457764 21.27314758300781 C 6.93668794631958 23.48298835754395 9.874817848205566 24.69999885559082 12.99999809265137 24.69999885559082 M 12.99999809265137 25.99999809265137 C 5.820298194885254 25.99999809265137 -1.9073486328125e-06 20.1796989440918 -1.9073486328125e-06 12.99999809265137 C -1.9073486328125e-06 5.820298194885254 5.820298194885254 -1.9073486328125e-06 12.99999809265137 -1.9073486328125e-06 C 20.1796989440918 -1.9073486328125e-06 25.99999809265137 5.820298194885254 25.99999809265137 12.99999809265137 C 25.99999809265137 20.1796989440918 20.1796989440918 25.99999809265137 12.99999809265137 25.99999809265137 Z" stroke="none" fill="#ff6606"/>
    </g>
    <path id="路径_4800" data-name="路径 4800" d="M438.853,227.556a1.545,1.545,0,0,1,1.518,1.517v.233l-.817,5.951a.534.534,0,0,1-.584.467h-.234c-.234,0-.584-.233-.584-.467l-.817-5.951a1.565,1.565,0,0,1,1.285-1.75Zm0,9.919a1.167,1.167,0,1,1-1.168,1.167A1.1,1.1,0,0,1,438.853,237.475Z" transform="translate(688.253 3618.876)" fill="#ff6606"/>
  </g>
</svg>
