<svg xmlns="http://www.w3.org/2000/svg" width="15.804" height="15.801" viewBox="0 0 15.804 15.801">
  <path id="icon-img-close" d="M778.29,125.394l6.221-6.221a.964.964,0,0,0,0-1.358l-.04-.04a.964.964,0,0,0-1.358,0L776.891,124l-6.221-6.233a.964.964,0,0,0-1.358,0l-.04.04a.947.947,0,0,0,0,1.358l6.221,6.224-6.221,6.221a.964.964,0,0,0,0,1.358l.04.04a.964.964,0,0,0,1.358,0l6.221-6.221,6.221,6.221a.964.964,0,0,0,1.358,0l.04-.04a.964.964,0,0,0,0-1.358Zm0,0" transform="translate(-768.986 -117.492)" fill="#666"/>
</svg>
