<svg id="icon-img-list-finsh" xmlns="http://www.w3.org/2000/svg" width="26" height="26" viewBox="0 0 26 26">
  <path id="路径_13159" data-name="路径 13159" d="M81.128,67.65a13,13,0,1,0,13,13A13,13,0,0,0,81.128,67.65Zm0,24.7a11.7,11.7,0,1,1,11.7-11.7A11.7,11.7,0,0,1,81.128,92.35Z" transform="translate(-68.128 -67.65)" fill="#3b6aff"/>
  <path id="路径_13160" data-name="路径 13160" d="M325.574,365.371l-6.964,6.964-3.507-3.507a.8.8,0,0,0-1.122,1.122l4.057,4.057a.686.686,0,0,0,.551.192.791.791,0,0,0,.628-.229l7.478-7.478a.793.793,0,1,0-1.122-1.122Z" transform="translate(-306.698 -356.487)" fill="#3b6aff"/>
</svg>
