<svg id="pic-image-scanloading" xmlns="http://www.w3.org/2000/svg" width="208.096" height="156.796" viewBox="0 0 208.096 156.796">
  <g id="组_4885" data-name="组 4885">
    <path id="路径_5488" data-name="路径 5488" d="M436.667,402.23c-9.675-12.13-28.161-13.887-39.775-24.166-12.578-11.131-15.848-26.859-26.653-39.716-4.506-5.362-9.641-12.961-15.771-16.47-5.521-3.16-11.478-5.918-18.105-6.453-8.3-.67-17.324,2.384-24.2,8.195-6.769,5.718-11.642,13.991-19.49,17.844-9.855,4.838-20.444,1.374-30.07.67-11.254-.823-22.93,5.691-26.756,16.666a32.24,32.24,0,0,0-.933,15.449c.8,5.246,2.5,10.562,5.83,14.776,3.512,4.451,8.15,7.843,11.233,12.687,3.656,5.744,3.362,13.5,2.16,20.749s-3.21,14.606-2.609,21.7A25.913,25.913,0,0,0,269.1,466.667c12.481,4.06,27.076-1.052,40.343-6.325,11.878-4.721,25.6-10.251,38-9.366,13.078.934,23.859,9.585,36.287,12.46,15.905,3.679,35.212-1.58,47.415-14.768S446.506,414.565,436.667,402.23Z" transform="translate(-234.405 -315.334)" fill="#2a94f4" opacity="0.22"/>
    <g id="组_4862" data-name="组 4862" transform="translate(151.052 21.493)" opacity="0.55">
      <path id="路径_5489" data-name="路径 5489" d="M691.618,414.049l4.649-3.011a46.074,46.074,0,0,0,4.374-7.835c-2.023-.516-6.21,1.618-6.21,1.618,4.143-2.528,5.634-2.832,6.994-3.654,1.188-3.47.742-7.293.772-10.564-4.3,4.107-5.565,4.83-5.565,4.83,2.723-2.2,4.131-4.573,5.552-6.232-.218-8.142-2.815-10.738-2.815-10.738-2.012,1.392-6.127,5.094-7.749,6.459a70.574,70.574,0,0,0-.438,8.63,37.437,37.437,0,0,1-.562-7.768,16.9,16.9,0,0,0-3.51,3.765c-.648,3.907-.121,10.638-.121,10.638a41.733,41.733,0,0,1-1.11-8.975,35.834,35.834,0,0,0-5.256,11.432c.441,3.336,1.245,6.672,1.245,6.672a27.335,27.335,0,0,1-1.678-4.947,124.328,124.328,0,0,0-2.107,14.835l.743,4.612,5.631-2.069a30.2,30.2,0,0,0,10.537-8.972Z" transform="translate(-678.083 -378.464)" fill="#3c8cf8"/>
    </g>
    <g id="组_4863" data-name="组 4863" transform="translate(144.473 44.255)" opacity="0.55">
      <path id="路径_5490" data-name="路径 5490" d="M674.559,473.752l5.5-.63a46.076,46.076,0,0,0,7.4-5.074c-1.583-1.361-6.282-1.311-6.282-1.311,4.835-.422,6.306-.032,7.889-.163,2.607-2.58,3.907-6.2,5.388-9.12-5.682,1.765-7.133,1.852-7.133,1.852,3.419-.763,5.733-2.26,7.743-3.114,3.425-7.39,2.253-10.87,2.253-10.87-2.421.352-7.753,1.838-9.813,2.341a70.59,70.59,0,0,0-4.229,7.536,37.431,37.431,0,0,1,2.95-7.208,16.885,16.885,0,0,0-4.818,1.812c-2.317,3.212-4.838,9.475-4.838,9.475a41.753,41.753,0,0,1,3-8.533,35.836,35.836,0,0,0-9.79,7.9c-1.088,3.184-1.851,6.53-1.851,6.53a27.338,27.338,0,0,1,.7-5.177,124.285,124.285,0,0,0-8.483,12.352l-1.385,4.462,5.964.651a30.2,30.2,0,0,0,13.427-3.351Z" transform="translate(-658.758 -445.322)" fill="#3c8cf8"/>
    </g>
    <g id="组_4864" data-name="组 4864" transform="translate(33.955 21.492)" opacity="0.55">
      <path id="路径_5491" data-name="路径 5491" d="M341.4,412.775a30.2,30.2,0,0,0,10.537,8.972l5.631,2.069.743-4.612a124.255,124.255,0,0,0-2.107-14.835,27.385,27.385,0,0,1-1.678,4.947s.8-3.336,1.245-6.672a35.828,35.828,0,0,0-5.256-11.432,41.751,41.751,0,0,1-1.11,8.975s.527-6.731-.121-10.638a16.906,16.906,0,0,0-3.51-3.765,37.435,37.435,0,0,1-.562,7.768,70.573,70.573,0,0,0-.438-8.63c-1.622-1.366-5.737-5.068-7.749-6.459,0,0-2.6,2.6-2.815,10.738,1.421,1.658,2.829,4.028,5.551,6.232,0,0-1.261-.723-5.565-4.83.03,3.272-.416,7.094.772,10.564,1.36.822,2.851,1.127,6.994,3.654,0,0-4.187-2.134-6.21-1.618a46.073,46.073,0,0,0,4.374,7.835l4.649,3.011Z" transform="translate(-334.141 -378.462)" fill="#3c8cf8"/>
    </g>
    <g id="组_4865" data-name="组 4865" transform="translate(25.949 44.255)" opacity="0.55">
      <path id="路径_5492" data-name="路径 5492" d="M329.989,474.114a30.206,30.206,0,0,0,13.427,3.351l5.964-.651L348,472.353A124.172,124.172,0,0,0,339.512,460a27.368,27.368,0,0,1,.7,5.177s-.763-3.345-1.851-6.53a35.837,35.837,0,0,0-9.79-7.9,41.773,41.773,0,0,1,3,8.533s-2.52-6.263-4.838-9.475a16.914,16.914,0,0,0-4.818-1.812,37.434,37.434,0,0,1,2.95,7.208,70.626,70.626,0,0,0-4.229-7.536c-2.06-.5-7.392-1.988-9.813-2.341,0,0-1.172,3.48,2.253,10.87,2.01.854,4.325,2.351,7.743,3.114,0,0-1.451-.087-7.133-1.852,1.482,2.917,2.781,6.539,5.388,9.12,1.583.131,3.055-.259,7.889.163,0,0-4.7-.05-6.282,1.311a46.057,46.057,0,0,0,7.4,5.074l5.5.63Z" transform="translate(-310.623 -445.323)" fill="#3c8cf8"/>
    </g>
    <ellipse id="椭圆_407" data-name="椭圆 407" cx="104.041" cy="13.958" rx="104.041" ry="13.958" transform="translate(0.014 128.88)" fill="rgba(248,248,248,0.89)"/>
    <g id="组_4873" data-name="组 4873" transform="translate(51.359 21.492)">
      <g id="组_4866" data-name="组 4866" transform="translate(0 0)">
        <path id="路径_5493" data-name="路径 5493" d="M490.651,389.508v88.2a11.161,11.161,0,0,1-11.159,11.162h-83.07a11.164,11.164,0,0,1-11.162-11.162v-88.2a11.164,11.164,0,0,1,11.162-11.045h83.07A11.161,11.161,0,0,1,490.651,389.508Z" transform="translate(-385.261 -378.463)" fill="#fff"/>
      </g>
      <g id="组_4867" data-name="组 4867" transform="translate(0 0)">
        <path id="路径_5494" data-name="路径 5494" d="M490.651,389.508H385.261a11.164,11.164,0,0,1,11.162-11.045h83.07A11.161,11.161,0,0,1,490.651,389.508Z" transform="translate(-385.261 -378.463)" fill="#3c8cf8"/>
      </g>
    </g>
    <g id="组_4875" data-name="组 4875" transform="translate(116.609 110.751)">
      <circle id="椭圆_408" data-name="椭圆 408" cx="1.231" cy="1.231" r="1.231" transform="translate(0 0)" fill="#fff"/>
    </g>
    <g id="组_4876" data-name="组 4876" transform="translate(121.877 110.751)">
      <circle id="椭圆_409" data-name="椭圆 409" cx="1.231" cy="1.231" r="1.231" transform="translate(0 0)" fill="#fff"/>
    </g>
    <g id="组_4877" data-name="组 4877" transform="translate(127.144 110.751)">
      <circle id="椭圆_410" data-name="椭圆 410" cx="1.231" cy="1.231" r="1.231" transform="translate(0 0)" fill="#fff"/>
    </g>
    <g id="组_4878" data-name="组 4878" transform="translate(132.413 110.751)">
      <circle id="椭圆_411" data-name="椭圆 411" cx="1.231" cy="1.231" r="1.231" transform="translate(0 0)" fill="#fff"/>
    </g>
    <rect id="矩形_7828" data-name="矩形 7828" width="12.348" height="12.348" transform="matrix(0.902, 0.431, -0.431, 0.902, 165.571, 115.811)" fill="#2a94f4" opacity="0.22"/>
    <rect id="矩形_7829" data-name="矩形 7829" width="12.348" height="12.348" transform="matrix(0.902, 0.431, -0.431, 0.902, 6.85, 66.838)" fill="#2a94f4" opacity="0.41"/>
    <circle id="椭圆_412" data-name="椭圆 412" cx="5.049" cy="5.049" r="5.049" transform="translate(166.619 91.678)" fill="#2a94f4" opacity="0.22"/>
    <circle id="椭圆_413" data-name="椭圆 413" cx="5.049" cy="5.049" r="5.049" transform="translate(193.218 124.883)" fill="#2a94f4" opacity="0.22"/>
    <circle id="椭圆_414" data-name="椭圆 414" cx="5.049" cy="5.049" r="5.049" transform="translate(27.366 76.712)" fill="#2a94f4" opacity="0.22"/>
    <ellipse id="椭圆_415" data-name="椭圆 415" cx="40.895" cy="1.944" rx="40.895" ry="1.944" transform="translate(66.925 138.951)" fill="#e5e5e5"/>
  </g>
  <g id="组_4861" data-name="组 4861" transform="translate(75.947 54.422)">
    <path id="路径_5485" data-name="路径 5485" d="M107.258,31.539a1.6,1.6,0,0,1,1.972,2.506l-.227.179L74.1,56.891a1.6,1.6,0,0,1-1.972-2.5l.227-.179,34.907-22.669Z" transform="translate(-69.874 -31.277)" fill="#93bffb"/>
    <path id="路径_5486" data-name="路径 5486" d="M83.749,512H38.935a4.8,4.8,0,0,0-4.8,4.8v12.8a4.8,4.8,0,0,0,4.8,4.8H83.749a4.8,4.8,0,0,0,4.8-4.8V516.8A4.8,4.8,0,0,0,83.749,512Zm-44.814,3.2H83.749a1.6,1.6,0,0,1,1.6,1.6v12.8a1.6,1.6,0,0,1-1.6,1.6H38.935a1.6,1.6,0,0,1-1.6-1.6V516.8A1.6,1.6,0,0,1,38.935,515.2Z" transform="translate(-34.133 -489.459)" fill="#3c8cf8"/>
    <path id="路径_5487" data-name="路径 5487" d="M535.946,394.672a1.6,1.6,0,0,1,.288,3.175l-.288.026h-3.2a1.6,1.6,0,0,1-.288-3.175l.288-.026Zm-9.6,0a1.6,1.6,0,0,1,.288,3.175l-.288.026h-3.2a1.6,1.6,0,0,1-.288-3.175l.288-.026Zm-9.6,0a1.6,1.6,0,0,1,.288,3.175l-.288.026h-3.2a1.6,1.6,0,0,1-.288-3.175l.288-.026Zm22.407-19.206a1.6,1.6,0,0,1,.288,3.175l-.288.026H513.539a1.6,1.6,0,0,1-.288-3.175l.288-.026Z" transform="translate(-489.531 -359.328)" fill="#ffd16a"/>
  </g>
  <path id="路径_5495" data-name="路径 5495" d="M16.538,15.5V6.2a1.034,1.034,0,1,0-2.067,0V16.538A1.03,1.03,0,0,0,15.5,17.572h7.24a1.034,1.034,0,0,0,0-2.067ZM15.5,31.009a15.5,15.5,0,1,1,15.5-15.5A15.5,15.5,0,0,1,15.5,31.009Z" transform="translate(118.042 84.103)" fill="#ffa852"/>
</svg>
