<svg xmlns="http://www.w3.org/2000/svg" xmlns:xlink="http://www.w3.org/1999/xlink" width="140" height="140" viewBox="0 0 140 140">
  <defs>
    <path id="men-a" d="M0,70 C0,108.659444 31.3405556,140 70,140 C108.663333,140 140,108.659444 140,70 C140,31.3405556 108.663333,0 70,0 C31.3405556,0 0,31.3405556 0,70 Z"/>
    <linearGradient id="men-c" x1="50%" x2="50%" y1="0%" y2="100%">
      <stop offset="0%" stop-color="#9FBFF3"/>
      <stop offset="100%" stop-color="#508CEE"/>
    </linearGradient>
  </defs>
  <g fill="none" fill-rule="evenodd">
    <mask id="men-b" fill="#fff">
      <use xlink:href="#men-a"/>
    </mask>
    <path stroke="#508CEE" stroke-width="3" d="M1.5,70 C1.5,107.831017 32.1689827,138.5 70,138.5 C107.83355,138.5 138.5,107.832373 138.5,70 C138.5,32.1676266 107.83355,1.5 70,1.5 C32.1689827,1.5 1.5,32.1689827 1.5,70 Z"/>
    <g mask="url(#men-b)">
      <g transform="translate(-7 -7)">
        <rect width="154" height="154" fill="#000" opacity="0"/>
        <path fill="url(#men-c)" fill-rule="nonzero" d="M121.333333,140 C118.792386,143.033967 120.3125,112.106061 117.425,108.240741 C115.5,105.341751 113.575,102.442761 109.725,100.510101 C109.725,98.5774411 109.725,95.6784512 109.725,95.6784512 C109.725,95.6784512 107.8,93.7457912 105.875,88.9141414 C102.9875,87.9478114 102.9875,86.9814815 102.9875,85.0488215 C102.9875,85.0488215 102.025,78.2845118 103.95,78.2845118 C103.95,78.2845118 104.9125,77.3181818 104.9125,76.3518519 C104.9125,73.452862 103.95,69.5875421 104.9125,67.6548822 C104.9125,65.7222222 103.95,61.8569024 107.8,60.8905724 C111.65,59.9242424 109.725,60.8905724 111.65,59.9242424 C112.6125,59.9242424 112.6125,58.9579125 114.5375,58.9579125 L119.35,57.9915825 C121.275,57.9915825 123.2,59.9242424 124.1625,60.8905724 C125.125,60.8905724 123.2,59.9242424 126.0875,60.8905724 C129.9375,61.8569024 128.975,66.6885522 128.975,68.6212121 C128.975,70.5538721 128.975,75.3855219 128.975,77.3181818 C128.975,79.2508418 130.9,78.2845118 130.9,78.2845118 C132.825,77.3181818 131.8625,85.0488215 131.8625,85.0488215 C131.8625,86.9814815 132.825,86.9814815 130.9,88.9141414 C128.975,92.7794613 125.125,95.6784512 125.125,95.6784512 C125.125,95.6784512 125.125,99.543771 125.125,99.543771 C125.125,99.543771 123.2,105.341751 133.7875,106.308081 C144.375,108.240741 145.3375,111.139731 147.2625,113.072391 C153.0375,116.93771 154,128.53367 154,128.53367 C154,128.53367 129.15,130.666667 121.333333,140 Z M85.8472222,154 L80.5,115.5 L74.6666667,115.5 L68.8333333,152.833333 L73.2083333,154 L35.6125,154 C35.6125,154 37.5375,114.038721 39.4625,110.173401 C39.4625,109.207071 42.35,103.409091 55.825,101.476431 C69.3,98.5774411 66.4125,91.8131313 67.375,91.8131313 C67.375,88.9141414 67.375,85.0488215 67.375,85.0488215 C67.375,85.0488215 59.675,83.1161616 57.75,77.3181818 C52.9375,75.3855219 53.9,74.4191919 52.9375,72.486532 C52.9375,72.486532 51.975,62.8232323 54.8625,62.8232323 C54.8625,62.8232323 57.75,62.8232323 57.75,60.8905724 C57.75,57.0252525 57.75,51.2272727 58.7125,48.3282828 C58.7125,46.3956229 60.6375,39.6313131 65.45,38.6649832 C70.2625,37.6986532 68.3375,38.6649832 70.2625,37.6986532 C72.1875,37.6986532 71.225,36.7323232 74.1125,36.7323232 L79.8875,33.8333333 C82.775,33.8333333 84.7,39.6313131 86.625,39.6313131 C88.55,39.6313131 88.55,38.6649832 91.4375,39.6313131 C96.25,41.5639731 96.25,48.3282828 96.25,50.2609428 C96.25,53.1599327 96.25,59.9242424 96.25,61.8569024 C96.25,63.7895623 97.2125,63.7895623 97.2125,63.7895623 C101.0625,63.7895623 100.1,72.486532 100.1,72.486532 C100.1,74.4191919 98.175,74.4191919 95.2875,77.3181818 C93.3625,83.1161616 86.625,86.0151515 86.625,86.0151515 C86.625,86.0151515 86.625,90.8468013 86.625,91.8131313 C86.625,91.8131313 84.7,99.543771 96.25,101.476431 C109.725,103.409091 110.6875,107.274411 112.6125,110.173401 C115.5,112.106061 117.220833,154 114.333333,154 L85.8472222,154 Z M71.1666667,108.5 L74.6666667,113.166667 L80.3633406,113.166667 L84,108.5 L71.1666667,108.5 Z M48.125,88.9141414 C46.2,92.7794613 43.3125,95.6784512 43.3125,95.6784512 C43.3125,95.6784512 43.3125,98.5774411 43.3125,100.510101 C39.4625,102.442761 38.5,105.341751 36.575,108.240741 C33.6875,115.97138 33.6875,140 33.6875,140 C20.2125,140 7.10542736e-15,129.5 7.10542736e-15,129.5 C7.10542736e-15,129.5 7.10542736e-15,117.90404 6.7375,114.038721 C8.6625,112.106061 10.5875,109.207071 20.2125,107.274411 C29.8375,105.341751 28.875,100.510101 28.875,99.543771 C28.875,98.5774411 28.875,95.6784512 28.875,95.6784512 C28.875,95.6784512 25.025,92.7794613 23.1,87.9478114 C21.175,86.9814815 21.175,86.0151515 21.175,84.0824916 C21.175,84.0824916 21.175,78.2845118 23.1,78.2845118 C23.1,78.2845118 24.0625,78.2845118 24.0625,77.3181818 C24.0625,75.3855219 24.0625,70.5538721 24.0625,68.6212121 C24.0625,66.6885522 24.0625,61.8569024 26.95,60.8905724 C29.8375,60.8905724 26.95,60.8905724 28.875,60.8905724 C29.8375,60.8905724 31.7625,57.9915825 33.6875,57.9915825 L38.5,58.9579125 C40.425,58.9579125 40.425,59.9242424 41.3875,59.9242424 C42.35,59.9242424 41.3875,59.9242424 45.2375,60.8905724 C49.0875,60.8905724 48.125,64.7558923 48.125,66.6885522 C48.125,68.6212121 48.125,72.486532 48.125,75.3855219 C48.125,77.3181818 50.05,77.3181818 50.05,77.3181818 C51.975,77.3181818 51.0125,84.0824916 51.0125,84.0824916 C50.05,86.0151515 51.0125,86.9814815 48.125,88.9141414 Z"/>
      </g>
    </g>
  </g>
</svg>
