<?xml version="1.0" encoding="UTF-8"?>
<svg width="84px" height="84px" viewBox="0 0 84 84" version="1.1" xmlns="http://www.w3.org/2000/svg" xmlns:xlink="http://www.w3.org/1999/xlink">
    <title>icon-main-open</title>
    <defs>
        <circle id="path-1" cx="42" cy="42" r="42"></circle>
        <linearGradient x1="-4.85598645%" y1="35.0310912%" x2="102.617658%" y2="63.7970678%" id="linearGradient-3">
            <stop stop-color="#4D6FFF" offset="0%"></stop>
            <stop stop-color="#38D9FF" offset="100%"></stop>
        </linearGradient>
        <rect id="path-4" x="0" y="0" width="415" height="218" rx="8"></rect>
    </defs>
    <g id="控件" stroke="none" stroke-width="1" fill="none" fill-rule="evenodd">
        <g id="icon-main-open">
            <mask id="mask-2" fill="white">
                <use xlink:href="#path-1"></use>
            </mask>
            <use id="蒙版" fill="#000000" opacity="0.452648074" style="mix-blend-mode: soft-light;" xlink:href="#path-1"></use>
            <g id="开权限" mask="url(#mask-2)">
                <g transform="translate(-37.000000, -67.000000)">
                    <mask id="mask-5" fill="white">
                        <use xlink:href="#path-4"></use>
                    </mask>
                    <use id="蒙版" stroke="none" fill="url(#linearGradient-3)" fill-rule="evenodd" xlink:href="#path-4"></use>
                    <circle id="椭圆形" stroke="none" fill="#000000" fill-rule="evenodd" opacity="0.452648074" style="mix-blend-mode: soft-light;" cx="79" cy="109" r="42"></circle>
                    <g id="icon-权限" stroke="none" stroke-width="1" fill="none" fill-rule="evenodd" transform="translate(59.000000, 86.000000)">
                        <rect id="矩形" fill="#FFFFFF" x="20" y="33" width="6" height="2" rx="1"></rect>
                        <path d="M39.9931287,6.51987459 L38.012261,6.488971 C37.9639471,6.488971 33.5298096,6.39626022 28.9453624,4.61415295 C24.2428147,2.78569029 21.2078713,0.85499944 21.1810303,0.829246445 L19.9839205,0 L18.7975472,0.829246445 C18.7707061,0.849848841 15.7449458,2.78053969 11.0477663,4.61415295 C6.46868726,6.39626022 2.02918156,6.488971 1.98623592,6.488971 L0,6.51987459 L0,25.8552234 C0,35.5641026 13.0071612,45.8292464 19.9965643,45.8292464 C26.9913357,45.8292464 39.9984969,35.5641026 39.9984969,25.8552234 C40.0038651,25.8655246 39.9931287,6.51987459 39.9931287,6.51987459 Z" id="形状" stroke="#FFFFFF" stroke-width="2" fill-rule="nonzero"></path>
                        <circle id="椭圆形" stroke="#FFFFFF" stroke-width="2" cx="20" cy="18" r="7"></circle>
                        <rect id="矩形" fill="#FFFFFF" x="19" y="25" width="2" height="13" rx="1"></rect>
                    </g>
                </g>
            </g>
        </g>
    </g>
</svg>