<svg xmlns="http://www.w3.org/2000/svg" width="128.761" height="121.127" viewBox="0 0 128.761 121.127">
  <g id="pic-userbiz-empty" transform="translate(-8.448 -40.96)">
    <path id="路径_5199" data-name="路径 5199" d="M142.592,829.011v1.514h68.247v-20.8h-22.87a10.767,10.767,0,0,1-2.83,7.075,11.409,11.409,0,0,1-7.93,3.817h-.132c-.132,0-.263.066-.461.066a11.434,11.434,0,0,1-11.385-10.694v-.2H142.592Zm0,0" transform="translate(-116.901 -669.951)" fill="#e0eaff"/>
    <path id="路径_5201" data-name="路径 5201" d="M13.18,50.432A2.236,2.236,0,0,0,11.008,52.6a2.382,2.382,0,0,0,1.053,1.909A2.14,2.14,0,0,0,15.286,52.6,2.019,2.019,0,0,0,13.18,50.432Zm0,0" transform="translate(-2.231 -8.254)" fill="#b4ccff"/>
    <path id="路径_5202" data-name="路径 5202" d="M10.949,48.891a2.722,2.722,0,0,1-1.25-.329,2.505,2.505,0,0,1,1.185-4.673,2.5,2.5,0,0,1,2.5,2.5,2.461,2.461,0,0,1-1.25,2.172A1.744,1.744,0,0,1,10.949,48.891Zm0-4.376a1.882,1.882,0,0,0-1.843,1.843,1.772,1.772,0,0,0,.921,1.579,1.843,1.843,0,0,0,1.843,0,1.772,1.772,0,0,0,.921-1.579A1.8,1.8,0,0,0,10.949,44.514Zm82.2-1.25a3.027,3.027,0,1,0,3.027,3.027A3.062,3.062,0,0,0,93.148,43.264Zm0,5.364a2.3,2.3,0,0,1,0-4.607,2.3,2.3,0,1,1,0,4.607Zm0,0" transform="translate(0 -2.008)" fill="#b4ccff"/>
    <path id="路径_5203" data-name="路径 5203" d="M159.853,47.673a3.356,3.356,0,1,1,3.356-3.356A3.371,3.371,0,0,1,159.853,47.673Zm0-6.088a2.7,2.7,0,1,0,2.7,2.7A2.71,2.71,0,0,0,159.853,41.585Zm0,5.364a2.632,2.632,0,0,1,0-5.265,2.64,2.64,0,0,1,2.632,2.632A2.707,2.707,0,0,1,159.853,46.949Zm0-4.64a1.974,1.974,0,1,0,1.974,1.974A2.072,2.072,0,0,0,159.853,42.309Zm1.185,93.157h0a4.7,4.7,0,0,0-.132-1.316v-.132l-.066-.132c-.592-1.843-1.25-3.685-1.843-5.561-.592-1.843-1.25-3.685-1.843-5.561-.921-2.764-1.843-5.627-2.764-8.391s-1.843-5.627-2.764-8.391a3.5,3.5,0,0,0-3.488-2.567H98.878a8.409,8.409,0,0,0-1.711.132A3.513,3.513,0,0,0,95,105.127l-.132-.066-.329.921c-.987,2.9-1.974,5.89-2.962,8.852-.724,2.238-1.448,4.442-2.238,6.68l-4.08,12.241c-.066.263-.132.592-.2.856h-.066V158.6a3.514,3.514,0,0,0,1.053,2.435,3.881,3.881,0,0,0,2.9,1.053h68.05a3.842,3.842,0,0,0,2.764-.987,3.493,3.493,0,0,0,1.119-2.83V135.795A.328.328,0,0,0,161.038,135.466Zm-71.406-2.3L93.054,122.8c.987-2.9,1.974-5.89,2.962-8.852.658-1.909,1.316-3.883,1.974-5.89h.1l.263-.79h49.622c.921,2.764,1.843,5.627,2.764,8.391s1.843,5.627,2.764,8.391c.592,1.843,1.25,3.751,1.843,5.627.461,1.316.856,2.567,1.316,3.883H134.121a4.123,4.123,0,0,0-2.632,1.053,3.512,3.512,0,0,0-1.119,2.764,7.677,7.677,0,0,1-1.843,4.64,7.4,7.4,0,0,1-5.166,2.5,7.847,7.847,0,0,1-4.837-1.448,7.461,7.461,0,0,1-3.027-5.5,3.777,3.777,0,0,0-1.185-3.027,3.938,3.938,0,0,0-2.7-.921H89.434l.2-.461ZM157.221,158.2H88.974V137.539h22.738v.2a11.3,11.3,0,0,0,4.706,8.523,11.562,11.562,0,0,0,6.68,2.172.976.976,0,0,0,.461-.066h.132a11.15,11.15,0,0,0,7.93-3.817,10.969,10.969,0,0,0,2.83-7.075h22.87V158.2Zm39.948-76.441s-1.579,5.232-4.64,5.956c0,0,3.817,1.579,4.64,5.364,0,0,.592-5.561,5.035-5.693C202.2,87.292,197.366,84.791,197.168,81.763Zm4.837-8.523s-.592,1.974-1.777,2.238a3.372,3.372,0,0,1,1.777,2.04s.2-2.106,1.909-2.106C203.848,75.347,202.071,74.36,202.006,73.241ZM112.534,52.082s-1.119,3.949-3.488,4.574a5.991,5.991,0,0,1,3.488,4.08s.461-4.212,3.751-4.278C116.384,56.393,112.7,54.386,112.534,52.082Zm30.405,15.334,9.576,4.311L168.31,59.322,156.3,72.286,168.31,76.3l6.68-24.186Zm13.294,7.8-.658,7.4,4.146-5.429-3.488-1.974Zm0,0" transform="translate(-66.705)" fill="#b4ccff"/>
    <path id="路径_5204" data-name="路径 5204" d="M304.756,338.087c-2.435,1.316-4.212,2.106-4.212,2.106l.395,1.053a28.388,28.388,0,0,0,4.376-2.172Zm5.43-3.62a42.289,42.289,0,0,1-3.488,2.5.576.576,0,1,0,.592.987c1.25-.79,2.5-1.711,3.62-2.567a.546.546,0,0,0,.2-.526.615.615,0,0,0-.329-.461C310.515,334.336,310.317,334.336,310.185,334.468Zm6.186-5.956a.547.547,0,0,0-.79.132,25.312,25.312,0,0,1-3.291,3.817.558.558,0,1,0,.79.79,24.1,24.1,0,0,0,3.422-4.014.435.435,0,0,0,.066-.395c.066-.066-.066-.2-.2-.329Zm2.665-12.34a.5.5,0,0,0,.329.461.64.64,0,0,0,.592-.066.546.546,0,0,0,.2-.526,8.408,8.408,0,0,0-2.7-5.824.6.6,0,0,0-.79.066.542.542,0,0,0,.066.79C318.05,312.059,318.84,313.869,319.037,316.172Zm-9.312-5.759a.5.5,0,0,0,.263-.066,7.523,7.523,0,0,1,4.771-.461.583.583,0,0,0,.329-1.119,8.383,8.383,0,0,0-5.5.461.577.577,0,0,0-.329.658A.469.469,0,0,0,309.725,310.414Zm-3.126,5.824a3.273,3.273,0,0,1-.066-1.382l.527-1.777a5.475,5.475,0,0,1,.856-1.185.558.558,0,0,0-.79-.79,6.059,6.059,0,0,0-1.645,5.561.528.528,0,0,0,.658.395A.878.878,0,0,0,306.6,316.238Zm.132,2.04a.546.546,0,0,0-.132.79,12.184,12.184,0,0,0,2.369,2.567c.329.263.724.592,1.053.856a.566.566,0,0,0,.658-.921l-.987-.856a12.03,12.03,0,0,1-2.172-2.369A.494.494,0,0,0,306.73,318.278Zm9.049,6.548a.519.519,0,0,0,.526-.526.632.632,0,0,0-.461-.592,11.011,11.011,0,0,1-3.356-1.053.545.545,0,0,0-.461.987,12.685,12.685,0,0,0,3.685,1.185Zm4.311-1.448c-.2.066-.461.132-.658.2a22.328,22.328,0,0,0,.79-4.08.936.936,0,0,0-.132-.395.469.469,0,0,0-.395-.2.538.538,0,0,0-.592.526,17.031,17.031,0,0,1-.921,4.376,2.239,2.239,0,0,0-.658.066.519.519,0,0,0-.527.526.538.538,0,0,0,.592.527h.2c-.2.526-.461,1.053-.724,1.645a.553.553,0,0,0,.263.724.529.529,0,0,0,.724-.2,13.593,13.593,0,0,0,.987-2.238,10.517,10.517,0,0,0,1.382-.329.528.528,0,0,0,.395-.658.516.516,0,0,0-.724-.494ZM326.9,319.4a21.045,21.045,0,0,1-3.949,2.83.576.576,0,1,0,.592.987,25.709,25.709,0,0,0,4.146-2.962.747.747,0,0,0,.2-.526c-.066-.2-.2-.395-.395-.395A.475.475,0,0,0,326.9,319.4Zm5.857-5.726a.935.935,0,0,0-.395-.132.569.569,0,0,0-.395.2,31.657,31.657,0,0,1-2.962,3.488.542.542,0,0,0,.066.79.6.6,0,0,0,.79,0,43.92,43.92,0,0,0,3.027-3.62.935.935,0,0,0,.132-.395C332.956,313.934,332.891,313.8,332.759,313.671Zm4.706-7.338a.835.835,0,0,0-.395-.066.657.657,0,0,0-.329.263c-.856,1.645-1.909,3.159-2.9,4.706a.64.64,0,0,0-.066.592.5.5,0,0,0,.461.329.6.6,0,0,0,.526-.263c.987-1.579,2.04-3.159,2.962-4.837a.835.835,0,0,0,.066-.395A.541.541,0,0,0,337.464,306.333Zm3.62-7.4a.556.556,0,0,0-.461,0,.541.541,0,0,0-.329.329s-.724,1.777-2.04,4.278a.545.545,0,0,0,.987.461c1.316-2.567,2.106-4.278,2.106-4.344A.5.5,0,0,0,341.084,298.929Zm0,0" transform="translate(-254.55 -224.767)" fill="#b4ccff"/>
  </g>
</svg>
