<?xml version="1.0" encoding="UTF-8"?>
<svg width="348px" height="56px" viewBox="0 0 348 56" version="1.1" xmlns="http://www.w3.org/2000/svg" xmlns:xlink="http://www.w3.org/1999/xlink">
    <title>logo</title>
    <g id="控件" stroke="none" stroke-width="1" fill="none" fill-rule="evenodd">
        <g id="logo">
            <path d="M274.086518,31.6722 L279.568563,33.4162 C278.730086,36.4742 277.332624,38.7452 275.376176,40.2362 C273.420727,41.7292 270.954207,42.4612 267.941677,42.4612 C264.230417,42.4612 261.174966,41.1842 258.783309,38.6412 C256.391652,36.1052 255.19782,32.6252 255.19782,28.2172 C255.19782,23.5542 256.399637,19.9292 258.79928,17.3442 C261.205909,14.7672 264.367169,13.4732 268.290045,13.4732 C271.70684,13.4732 274.494777,14.4902 276.634891,16.5172 C277.894603,17.7182 278.851865,19.4312 279.492701,21.6842 L273.896863,23.0132 C273.564466,21.5652 272.875717,20.4192 271.828619,19.5732 C270.778526,18.7302 269.504839,18.3162 268.00656,18.3162 C265.923343,18.3162 264.24539,19.0612 262.953735,20.5482 C261.662081,22.0432 261.017252,24.4612 261.017252,27.7952 C261.017252,31.3422 261.647108,33.8632 262.915804,35.3652 C264.197477,36.8652 265.849477,37.6282 267.893764,37.6282 C269.386054,37.6282 270.673716,37.1432 271.756749,36.1922 C272.838784,35.2302 273.619367,33.7322 274.086518,31.6722 Z" id="Fill-1" fill="#FFFFFF"></path>
            <path d="M298.048005,31.6722 L298.048005,26.9562 L310.221897,26.9562 L310.221897,38.1142 C309.04204,39.2712 307.325158,40.2752 305.086224,41.1532 C302.837308,42.0262 300.564435,42.4612 298.261617,42.4612 C295.33593,42.4612 292.784563,41.8432 290.598533,40.6212 C288.429472,39.3852 286.793443,37.6282 285.703422,35.3402 C284.609409,33.0492 284.061404,30.5562 284.061404,27.8692 C284.061404,24.9582 284.675289,22.3582 285.89208,20.0932 C287.109868,17.8292 288.900616,16.0902 291.253344,14.8752 C293.041097,13.9432 295.286021,13.4732 297.950182,13.4732 C301.423874,13.4732 304.135949,14.2042 306.086407,15.6642 C308.041856,17.1252 309.304563,19.1352 309.86255,21.7102 L304.249743,22.7752 C303.852464,21.3912 303.118796,20.3032 302.025781,19.5142 C300.94175,18.7152 299.580222,18.3162 297.950182,18.3162 C295.483662,18.3162 293.523222,19.0982 292.06487,20.6712 C290.611509,22.2332 289.883831,24.5602 289.883831,27.6502 C289.883831,30.9682 290.618497,33.4682 292.094816,35.1232 C293.573131,36.7922 295.496638,37.6282 297.893286,37.6282 C299.083125,37.6282 300.262982,37.3842 301.456815,36.9212 C302.643659,36.4602 303.660812,35.8992 304.520251,35.2302 L304.520251,31.6722 L298.048005,31.6722 Z" id="Fill-2" fill="#FFFFFF"></path>
            <path d="M315.366555,32.8592 L320.865569,32.3242 C321.191976,34.1762 321.863756,35.5342 322.875918,36.4042 C323.887082,37.2582 325.246613,37.7032 326.963495,37.7032 C328.788181,37.7032 330.156696,37.3102 331.087007,36.5452 C332.01033,35.7742 332.462509,34.8702 332.462509,33.8422 C332.462509,33.1682 332.26886,32.6082 331.881564,32.1472 C331.500256,31.6902 330.816498,31.2752 329.848256,30.9302 C329.193445,30.7012 327.687181,30.2922 325.326468,29.7022 C322.297967,28.9522 320.169832,28.0302 318.952044,26.9362 C317.238156,25.3912 316.382709,23.5152 316.382709,21.2902 C316.382709,19.8602 316.780986,18.5362 317.591514,17.2972 C318.399048,16.0532 319.565929,15.1022 321.081177,14.4492 C322.604411,13.8002 324.435086,13.4732 326.580191,13.4732 C330.096805,13.4732 332.749987,14.2522 334.511787,15.7802 C336.298543,17.3382 337.222864,19.3922 337.309706,21.9642 L331.670946,22.2142 C331.420401,20.7772 330.907333,19.7302 330.106787,19.1002 C329.315224,18.4772 328.12239,18.1562 326.53128,18.1562 C324.887265,18.1562 323.604595,18.5002 322.680273,19.1732 C322.078366,19.6052 321.779908,20.1872 321.779908,20.9102 C321.779908,21.5772 322.060399,22.1472 322.620382,22.6142 C323.332089,23.2152 325.06095,23.8412 327.812952,24.4832 C330.55098,25.1392 332.593271,25.8142 333.911877,26.5052 C335.218504,27.1922 336.252626,28.1452 337.001266,29.3552 C337.74292,30.5562 338.113247,32.0542 338.113247,33.8242 C338.113247,35.4252 337.669054,36.9272 336.778671,38.3302 C335.887289,39.7342 334.623584,40.7722 332.993544,41.4532 C331.370492,42.1352 329.343173,42.4772 326.909593,42.4772 C323.372017,42.4772 320.657946,41.6562 318.765382,40.0242 C316.867828,38.3882 315.730893,36.0002 315.366555,32.8592 Z" id="Fill-3" fill="#FFFFFF"></path>
            <g id="编组-15" transform="translate(8.400003, 7.795182)" fill="#FFFFFF">
                <path d="M44.8186072,6.66401841 C44.8186072,6.66401841 42.0256791,-0.742981588 30.8549649,0.0610184118 C28.760768,0.214018412 26.8841758,0.595018412 23.815748,1.59301841 C8.5095438,6.56301841 -9.26517765,28.8180184 5.58685135,38.7080184 C5.58685135,38.7080184 11.0599124,42.2790184 19.0244489,38.8740184 C26.9889855,35.4670184 29.5623124,24.8900184 26.6595837,22.5640184 C24.0293601,20.4540184 20.767284,22.8140184 17.4493094,22.9800184 C15.7084707,23.0660184 10.8123619,22.8140184 14.6274338,15.0010184 C17.6130121,8.89001841 26.4689299,1.89301841 36.754252,2.30901841 C42.8941021,2.55901841 44.8186072,6.66401841 44.8186072,6.66401841 Z" id="Fill-4"></path>
                <path d="M19.3518544,40.3590184 C19.3518544,40.3590184 39.1069794,36.0500184 45.3416574,18.7410184 C45.6660683,17.8420184 45.9785009,16.6690184 46.1741456,15.7160184 C47.2072695,10.7160184 45.2867571,2.48301841 35.7410918,3.93301841 C25.344971,5.51701841 20.5197335,13.4320184 20.6035813,16.7650184 C20.6974109,20.4300184 23.453406,20.1150184 26.5088574,19.4300184 C30.9128598,18.4430184 34.8267523,21.1970184 33.7447172,26.6130184 C32.6626822,32.0300184 26.1794556,37.6990184 19.3518544,40.3590184 Z" id="Fill-5"></path>
            </g>
            <path d="M79.9201208,28.6032 L86.5061607,28.6032 L86.5061607,23.3212 L79.9201208,23.3212 L79.9201208,28.6032 Z M69.5090272,28.6032 L75.9473353,28.6032 L75.9473353,23.3212 L69.5090272,23.3212 L69.5090272,28.6032 Z M65.6250804,32.7462 L65.713919,29.2102 L65.713919,22.5962 L65.6250804,19.6082 L68.6975009,19.7272 L75.9473353,19.7272 L75.9473353,17.8772 L75.8305474,14.2222 L80.0389051,14.2222 L79.9201208,17.8772 L79.9201208,19.7272 L87.3486308,19.7272 L90.5238647,19.6082 L90.4220495,22.5962 L90.4220495,29.2102 L90.5238647,32.7902 L86.4632387,32.7902 L86.5061607,32.2872 L79.9201208,32.2872 L79.9201208,38.2942 L80.0389051,41.7572 L75.8305474,41.7572 L75.9473353,38.2942 L75.9473353,32.2872 L69.5090272,32.2872 L69.5828931,32.7462 L65.6250804,32.7462 Z" id="Fill-6" fill="#FFFFFF"></path>
            <path d="M113.030992,33.0282 C112.853315,32.7802 112.647688,32.5042 112.41012,32.1982 C112.174547,31.8932 111.553675,31.3112 110.550497,30.4532 C111.082531,30.1272 111.627541,29.6882 112.18952,29.1362 L110.180169,29.1362 L110.180169,33.0282 L113.030992,33.0282 Z M100.065537,32.9532 L102.649844,33.0282 L106.709472,33.0282 L106.709472,29.1362 L103.711915,29.1362 L101.201474,29.2102 L101.201474,26.0582 L103.711915,26.1182 L106.709472,26.1182 L106.709472,23.2782 L102.959282,23.2782 L100.448841,23.3662 L100.448841,20.1842 L102.959282,20.2592 L113.813571,20.2592 L116.531635,20.1842 L116.531635,23.4102 L113.991248,23.2782 L110.180169,23.2782 L110.180169,26.1182 L113.813571,26.1182 L115.689165,26.0582 L115.689165,29.2542 L113.504133,29.1362 C113.798598,29.4822 114.030178,29.7332 114.197873,29.8902 L115.217022,30.8672 L115.925735,31.5772 C115.502504,32.0112 115.049327,32.4942 114.566204,33.0282 L116.752234,32.9532 L116.752234,36.0462 L114.036167,35.9712 L102.619898,35.9712 L100.065537,36.0462 L100.065537,32.9532 Z M99.5774236,37.7322 L117.23935,37.7322 L117.23935,18.5872 L99.5774236,18.5872 L99.5774236,37.7322 Z M96.0478332,15.3322 L98.9715239,15.4352 L117.949061,15.4352 L120.843804,15.3322 L120.739993,18.4682 L120.739993,38.0872 L120.843804,41.4452 L117.23935,41.4452 L117.23935,40.8392 L99.5774236,40.8392 L99.5774236,41.2382 L96.0478332,41.2382 L96.1356737,37.8802 L96.1356737,18.4682 L96.0478332,15.3322 Z" id="Fill-7" fill="#FFFFFF"></path>
            <path d="M140.559002,26.1332 L147.352665,26.1332 L147.352665,23.5142 L140.559002,23.5142 L140.559002,26.1332 Z M140.559002,20.4962 L147.352665,20.4962 L147.352665,17.8622 L140.559002,17.8622 L140.559002,20.4962 Z M137.383768,14.6512 L139.791396,14.7262 L148.031432,14.7262 L150.661656,14.6512 L150.585793,17.1962 L150.585793,27.0352 L150.661656,29.0482 L148.903848,28.9732 L146.156836,28.9732 C146.205747,29.4272 146.25965,29.8262 146.318543,30.1722 C146.377436,30.5172 146.451302,30.8032 146.54014,31.0292 L146.894497,32.0502 C147.613192,31.5272 148.234064,31.0622 148.756116,30.6522 C149.27717,30.2432 149.843142,29.7182 150.454033,29.0762 C151.023998,30.0232 151.448227,30.5912 151.723727,30.7792 L152.66901,31.5182 C151.595959,32.4262 150.104667,33.5402 148.194137,34.8612 C148.509564,35.3552 148.853938,35.8532 149.228259,36.3562 C149.601581,36.8592 150.101673,37.3422 150.727536,37.8052 C151.352401,38.2702 152.073092,38.6632 152.890608,38.9902 C152.62509,39.3552 152.245779,39.8652 151.753673,40.5212 C151.261566,41.1762 150.872273,41.7272 150.585793,42.1712 C149.985883,41.7362 149.176353,41.1032 148.158202,40.2692 C147.138054,39.4362 146.14386,38.0602 145.173622,36.1422 C144.204382,34.2232 143.572529,32.4552 143.276068,30.8372 L142.906738,28.9732 L140.559002,28.9732 L140.559002,36.6522 C141.917535,35.7842 143.104379,34.9262 144.11754,34.0782 C144.11754,34.7092 144.113547,35.2712 144.103565,35.7642 C144.093583,36.2572 144.098574,36.5432 144.11754,36.6222 L144.281242,37.6572 C141.858642,39.3552 139.904191,40.8732 138.41789,42.2152 C137.984677,41.0222 137.654277,40.2322 137.427688,39.8482 L136.748921,38.6942 C137.043386,38.4572 137.241027,38.2472 137.339848,38.0642 C137.43767,37.8832 137.486581,37.6142 137.486581,37.2592 L137.486581,16.9882 L137.383768,14.6512 Z M130.486294,14.3562 L131.860798,14.5772 C131.663156,15.2382 131.54537,15.6232 131.506441,15.7322 L131.048273,17.0192 L134.297373,17.0192 L136.586216,16.9452 L136.586216,20.1402 L134.681675,20.0672 L129.748633,20.0672 C129.325402,20.9342 128.867234,21.8072 128.375127,22.6852 L134.459079,22.6852 L136.261805,22.6262 L136.261805,25.7782 L134.459079,25.7042 L132.347913,25.7042 L132.347913,28.4252 L134.400186,28.4252 L136.586216,28.3672 L136.586216,31.6962 L134.459079,31.6362 L132.347913,31.6362 L132.347913,36.0152 C133.627589,35.2662 134.489025,34.7142 134.93222,34.3582 L136.085126,33.4562 C136.045199,34.0882 136.010262,34.6942 135.981315,35.2762 C135.951369,35.8582 135.951369,36.2482 135.981315,36.4452 L136.085126,37.3912 C133.49483,39.0282 131.367693,40.4932 129.704713,41.7852 C129.595911,41.3522 129.473134,40.8992 129.335384,40.4252 C129.197634,39.9512 129.029938,39.5022 128.833295,39.0782 L128.227396,37.7912 C128.522859,37.6032 128.739466,37.4182 128.877216,37.2362 C129.014966,37.0532 129.08384,36.7412 129.08384,36.2972 L129.08384,31.6362 L127.179299,31.6362 L124.845537,31.6962 L124.845537,28.3672 L127.488737,28.4252 L129.08384,28.4252 L129.08384,25.7042 L128.227396,25.7042 L126.780024,25.7782 L126.780024,25.0522 C126.28692,25.6542 125.78583,26.1972 125.27376,26.6792 C125.184921,26.2862 125.106064,25.9402 125.038187,25.6442 C124.968314,25.3492 124.638912,24.3032 124.047985,22.5072 C124.323485,22.3002 124.684829,22.0042 125.134013,21.6202 C125.581201,21.2352 126.100259,20.3832 126.691185,19.0602 C127.283111,17.7382 127.725308,16.3532 128.020771,14.9042 L128.271316,13.6902 C129.364331,14.0842 130.10299,14.3062 130.486294,14.3562 Z" id="Fill-8" fill="#FFFFFF"></path>
            <path d="M167.881385,30.7342 L171.322137,30.7342 L171.322137,25.1412 L167.881385,25.1412 L167.881385,30.7342 Z M164.603338,33.9142 L164.705153,30.6902 L164.705153,24.9642 L164.603338,22.0192 L167.453163,22.1232 L171.662518,22.1232 L174.630129,22.0192 L174.527316,24.9642 L174.527316,30.6902 L174.630129,33.9142 L171.662518,33.8122 L167.453163,33.8122 L164.603338,33.9142 Z M182.471889,15.8642 L182.471889,19.1202 L180.079234,19.0462 L180.079234,38.1172 C180.079234,38.7082 180.028326,39.2012 179.924515,39.5962 C179.821702,39.9902 179.597109,40.3852 179.252735,40.7792 C178.90836,41.1752 178.248558,41.4582 177.274327,41.6302 C176.299098,41.8022 175.10327,41.9292 173.684846,42.0082 C173.390381,40.5192 173.128856,39.5272 172.902267,39.0332 L172.415152,37.9392 C173.05499,38.0772 173.773685,38.1702 174.571236,38.2202 C175.535485,38.2992 176.141385,38.2022 176.387937,37.9312 C176.633491,37.6602 176.757266,37.3122 176.757266,36.8882 L176.757266,19.0462 L167.704706,19.0462 L164.14517,19.1492 L164.14517,15.8212 L167.704706,15.9392 L179.091028,15.9392 L182.471889,15.8642 Z M157.174828,16.6342 C157.469293,16.3082 157.727824,16.0112 157.949421,15.7392 C158.171019,15.4672 158.576283,14.8492 159.168208,13.8822 C160.792259,14.8792 162.353424,15.9152 163.848708,16.9882 C163.710958,17.2362 163.613136,17.4132 163.554243,17.5212 L162.358415,19.5042 L161.989085,20.1402 C160.79725,19.0462 159.193163,17.8772 157.174828,16.6342 Z M154.841066,38.6502 C155.914117,37.4252 156.792522,36.1592 157.47628,34.8472 C158.161037,33.5352 158.725013,32.3642 159.168208,31.3332 C159.610405,30.3022 159.905868,29.5312 160.0536,29.0172 L160.407956,27.8342 C160.704418,28.0912 160.949972,28.2932 161.147613,28.4412 C161.343258,28.5882 162.130828,29.1062 163.509324,29.9942 C163.292718,30.4882 162.938361,31.3062 162.447253,32.4492 C161.954149,33.5942 161.45206,34.7362 160.93999,35.8752 C160.428918,37.0152 159.803055,38.2152 159.064396,39.4782 L158.031273,41.2672 C156.987169,40.2812 155.924099,39.4082 154.841066,38.6502 Z M154.781175,24.0472 C154.988798,23.8292 155.232355,23.5632 155.512846,23.2472 C155.793337,22.9322 156.239526,22.2422 156.849419,21.1762 C159.153235,22.6852 160.738356,23.7562 161.604783,24.3872 C161.40814,24.6632 160.708411,25.7042 159.507592,27.5092 C158.29679,26.3452 156.721651,25.1912 154.781175,24.0472 Z" id="Fill-9" fill="#FFFFFF"></path>
            <path d="M196.472464,37.6142 L196.472464,26.0442 L196.354678,22.6852 L199.854323,22.6852 L199.736537,26.0442 L199.736537,37.6142 L202.320844,37.6142 L202.320844,19.2092 L198.127459,19.2092 L194.55295,19.3112 L194.55295,15.8792 L198.127459,15.9832 L208.685286,15.9832 L212.083115,15.8792 L212.083115,19.3112 L208.685286,19.2092 L205.791541,19.2092 L205.791541,25.6892 L209.704435,25.6892 L211.713786,25.6002 L211.713786,28.9882 L209.704435,28.9002 L205.850434,28.9002 L205.850434,37.6142 L209.291185,37.6142 L212.74691,37.4952 L212.74691,41.0012 L209.291185,40.8992 L196.605223,40.8992 L193.134526,41.0012 L193.134526,37.4952 L196.472464,37.6142 Z M187.81818,16.1612 C188.84232,15.3622 189.747676,14.5622 190.536244,13.7642 C190.949494,14.2172 191.258932,14.5582 191.466555,14.7852 L193.415016,17.0922 L194.242514,18.0392 C192.578535,19.6672 191.687154,20.5402 191.569368,20.6582 C191.273905,20.2352 190.887606,19.6892 190.409474,19.0242 C189.932341,18.3582 189.068909,17.4042 187.81818,16.1612 Z M192.115376,25.2892 L192.115376,33.8702 C193.179444,32.9732 193.913112,32.2782 194.316379,31.7842 L195.142879,30.7932 C195.15286,31.2572 195.172824,31.7842 195.201772,32.3762 C195.231717,32.9672 195.285619,33.6092 195.365474,34.3002 L195.467289,35.3502 C195.093967,35.6752 194.695691,36.0232 194.271461,36.3932 C193.849228,36.7622 193.590697,36.9892 193.495869,37.0732 C193.403038,37.1572 192.892964,37.7032 191.967645,38.7082 L190.682978,40.0402 L189.796587,40.9722 C189.147766,39.3452 188.531884,37.9442 187.951937,36.7702 C188.344225,36.4252 188.578799,36.0502 188.651666,35.6452 C188.726531,35.2422 188.768454,34.8472 188.778436,34.4622 L188.793409,25.3342 L187.21228,25.3342 L185.130062,25.4072 L185.130062,22.0042 L187.21228,22.0782 L190.108022,22.0782 L192.219188,22.0042 L192.115376,25.2892 Z" id="Fill-10" fill="#FFFFFF"></path>
            <path d="M224.635321,29.8322 L234.161022,29.8322 C233.667918,29.2192 233.388425,28.8492 233.318552,28.7222 L232.507026,27.4642 L226.806378,27.4642 C226.127611,28.2732 225.402927,29.0622 224.635321,29.8322 Z M218.823874,29.9572 C219.566526,29.6262 220.264259,29.1752 220.914079,28.6032 L222.25664,27.4642 L218.964619,27.4642 L215.848278,27.5382 L215.848278,24.0622 L218.964619,24.1352 L224.929786,24.1352 C225.156375,23.6322 225.354016,23.1442 225.521711,22.6712 L220.662535,22.6712 L218.432585,22.7442 L218.432585,19.4152 L220.618615,19.4892 L222.390398,19.4892 C222.075969,18.9572 221.800469,18.5042 221.563898,18.1282 C221.327328,17.7542 220.78132,16.9942 219.924875,15.8502 C221.204551,15.1002 221.888309,14.6862 221.977148,14.6072 L222.611995,14.1042 C223.33069,15.0612 224.202108,16.2492 225.226248,17.6692 C224.44866,18.2912 223.690037,18.8972 222.951379,19.4892 L226.673619,19.4892 C226.969083,17.6752 227.136778,16.5312 227.174709,16.0572 L227.352387,13.8232 C227.795582,13.9122 228.144947,13.9742 228.401482,14.0082 C228.657018,14.0422 229.55339,14.1042 231.088602,14.1932 C230.881977,15.5052 230.764191,16.2702 230.734245,16.4862 L230.232157,19.4892 L234.722004,19.4892 C234.122093,19.1142 233.441329,18.7252 232.684703,18.3212 C232.98915,17.9562 233.279623,17.5712 233.555123,17.1662 C233.830622,16.7622 234.269825,15.7322 234.869735,14.0742 C236.582625,14.9042 237.714569,15.4312 238.266567,15.6582 C237.30132,17.3942 236.769286,18.3362 236.671463,18.4832 L236.006671,19.4892 L237.410122,19.4892 L239.787804,19.4152 L239.787804,22.7442 L237.483988,22.6712 L229.36074,22.6712 C229.174079,23.1542 228.972445,23.6422 228.755838,24.1352 L239.389527,24.1352 L242.224379,24.0622 L242.224379,27.5382 L239.462395,27.4642 L236.597598,27.4642 C237.010847,27.9382 237.437073,28.3862 237.875277,28.8112 C238.312483,29.2352 238.963302,29.6712 239.824737,30.1192 C240.686173,30.5692 241.826103,30.9902 243.243529,31.3852 C242.997975,31.8092 242.764399,32.2342 242.541803,32.6572 C242.320205,33.0822 242.012764,33.8552 241.619478,34.9802 C239.68,34.0822 238.394335,33.4172 237.764479,32.9822 L236.745329,32.3022 C236.716382,34.0182 236.69542,35.4542 236.686436,36.6072 C236.676454,37.7612 236.503768,38.6942 236.169375,39.4042 C235.834982,40.1142 235.280989,40.6712 234.507393,41.0762 C233.735795,41.4792 232.33434,41.7572 230.306023,41.9042 C230.060469,40.7592 229.858835,39.9862 229.701121,39.5812 L229.214006,38.2942 C230.749218,38.2942 231.689511,38.2152 232.033885,38.0572 C232.379258,37.9002 232.654758,37.6532 232.862381,37.3182 C233.068007,36.9832 233.171819,36.4052 233.171819,35.5872 L233.171819,33.0562 L228.829704,33.0562 C228.633061,33.8362 228.425438,34.5882 228.208831,35.3132 C227.993223,36.0382 227.606924,36.8052 227.049936,37.6142 C226.493946,38.4222 225.681421,39.1492 224.613361,39.7952 C223.5453,40.4422 222.705825,40.9062 222.094934,41.1862 C221.485042,41.4672 220.54974,41.8252 219.28903,42.2592 C219.171244,41.8842 219.060445,41.5622 218.957631,41.2902 C218.85382,41.0182 218.452549,40.1922 217.753818,38.8122 C220.559722,38.2302 222.417349,37.4902 223.328694,36.5922 C224.23904,35.6962 224.812998,34.7622 225.04857,33.7972 L225.241221,33.0562 L224.192126,33.0562 L222.568075,33.1162 L222.568075,31.6072 C221.898291,32.0902 221.24348,32.5382 220.603642,32.9532 C219.962806,33.3672 218.796923,33.9202 217.102999,34.6102 C216.41425,33.1702 216.029948,32.3812 215.952089,32.2432 L215.331217,31.1622 C216.916338,30.6902 218.080225,30.2872 218.823874,29.9572 Z" id="Fill-11" fill="#FFFFFF"></path>
            <line x1="248.976118" y1="8.7272" x2="248.976118" y2="46.3582" id="Stroke-12" stroke="#FFFFFF" stroke-width="1.5449"></line>
        </g>
    </g>
</svg>