<?xml version="1.0" encoding="UTF-8"?>
<svg width="438px" height="377px" viewBox="0 0 438 377" version="1.1" xmlns="http://www.w3.org/2000/svg" xmlns:xlink="http://www.w3.org/1999/xlink">
    <!-- Generator: Sketch 52.4 (67378) - http://www.bohemiancoding.com/sketch -->
    <title>分组 4</title>
    <desc>Created with Sketch.</desc>
    <defs>
        <linearGradient x1="50%" y1="0%" x2="50%" y2="96.1232736%" id="linearGradient-1">
            <stop stop-color="#96B2FF" stop-opacity="0" offset="0%"></stop>
            <stop stop-color="#5794FC" stop-opacity="0.349156476" offset="100%"></stop>
        </linearGradient>
        <polygon id="path-2" points="0 0.0284858029 14.9310222 0.0284858029 14.9310222 21.3172101 0 21.3172101"></polygon>
        <polygon id="path-4" points="0.340422041 0.0444117734 14.2602667 0.0444117734 14.2602667 28.3865439 0.340422041 28.3865439"></polygon>
    </defs>
    <g id="Page-1" stroke="none" stroke-width="1" fill="none" fill-rule="evenodd">
        <g id="画板">
            <g id="分组-4">
                <g id="分组-3" transform="translate(248.500000, 185.500000) rotate(-270.000000) translate(-248.500000, -185.500000) translate(63.000000, 63.000000)">
                    <g id="分组-2">
                        <rect id="矩形" fill="#101D8F" transform="translate(348.500000, 122.500000) rotate(-90.000000) translate(-348.500000, -122.500000) " x="226" y="100" width="245" height="45" rx="10"></rect>
                        <rect id="矩形" fill="#FFFFFF" opacity="0.533970424" transform="translate(176.271575, 122.728425) rotate(-90.000000) translate(-176.271575, -122.728425) " x="57.2715749" y="-27.2715749" width="238" height="300"></rect>
                        <rect id="矩形" fill="#E2EDFF" x="49" y="27" width="8" height="191" rx="4"></rect>
                        <rect id="矩形-copy-4" fill="#E2EDFF" x="66" y="73" width="8" height="145" rx="4"></rect>
                        <rect id="矩形-copy-5" fill="#E2EDFF" x="84" y="105" width="8" height="113" rx="4"></rect>
                        <path d="M69,-59 L294,-59 C299.522847,-59 304,-54.5228475 304,-49 L304,294 C304,299.522847 299.522847,304 294,304 L69,304 C63.4771525,304 59,299.522847 59,294 L59,-49 C59,-54.5228475 63.4771525,-59 69,-59 Z M164,-48 C162.895431,-48 162,-47.1045695 162,-46 L162,-45 C162,-43.8954305 162.895431,-43 164,-43 L199,-43 C200.104569,-43 201,-43.8954305 201,-45 L201,-46 C201,-47.1045695 200.104569,-48 199,-48 L164,-48 Z M68,-32 C65.790861,-32 64,-30.209139 64,-28 L64,263 C64,265.209139 65.790861,267 68,267 L296,267 C298.209139,267 300,265.209139 300,263 L300,-28 C300,-30.209139 298.209139,-32 296,-32 L68,-32 Z" id="合并形状" fill="#E2EDFF" transform="translate(181.500000, 122.500000) rotate(-90.000000) translate(-181.500000, -122.500000) "></path>
                        <rect id="矩形" fill="#FFFFFF" transform="translate(345.000000, 122.500000) rotate(-90.000000) translate(-345.000000, -122.500000) " x="328.5" y="114.5" width="33" height="16" rx="8"></rect>
                    </g>
                </g>
                <g id="分组-3" transform="translate(0.000000, 132.000000)">
                    <g id="分组-2">
                        <rect id="矩形" fill="#101D8F" transform="translate(344.500000, 122.500000) rotate(-90.000000) translate(-344.500000, -122.500000) " x="222" y="96" width="245" height="53" rx="10"></rect>
                        <rect id="矩形" fill="#FFFFFF" transform="translate(176.271575, 122.728425) rotate(-90.000000) translate(-176.271575, -122.728425) " x="57.2715749" y="-27.2715749" width="238" height="300"></rect>
                        <path d="M69,-59 L294,-59 C299.522847,-59 304,-54.5228475 304,-49 L304,294 C304,299.522847 299.522847,304 294,304 L69,304 C63.4771525,304 59,299.522847 59,294 L59,-49 C59,-54.5228475 63.4771525,-59 69,-59 Z M164,-48 C162.895431,-48 162,-47.1045695 162,-46 L162,-45 C162,-43.8954305 162.895431,-43 164,-43 L199,-43 C200.104569,-43 201,-43.8954305 201,-45 L201,-46 C201,-47.1045695 200.104569,-48 199,-48 L164,-48 Z M68,-32 C65.790861,-32 64,-30.209139 64,-28 L64,263 C64,265.209139 65.790861,267 68,267 L296,267 C298.209139,267 300,265.209139 300,263 L300,-28 C300,-30.209139 298.209139,-32 296,-32 L68,-32 Z" id="合并形状" fill="#5794FC" transform="translate(181.500000, 122.500000) rotate(-90.000000) translate(-181.500000, -122.500000) "></path>
                        <rect id="矩形" fill="#FFFFFF" transform="translate(345.000000, 122.500000) rotate(-90.000000) translate(-345.000000, -122.500000) " x="328.5" y="114.5" width="33" height="16" rx="8"></rect>
                        <g id="分组" transform="translate(111.000000, 33.000000)">
                            <path d="M68.3173247,60 L68.9036312,60 C74.3242782,60 78.9368865,63.9489574 79.7722316,69.3048526 L81.0199708,77.3048526 C81.9561749,83.3074149 77.8490801,88.9323964 71.8465178,89.8686004 C71.285705,89.956069 70.7189633,90 70.1513704,90 L67.3737161,90 C61.2985838,90 56.3737161,85.0751322 56.3737161,79 C56.3737161,78.5693781 56.3990027,78.1391278 56.4494453,77.7114705 L57.3930539,69.7114705 C58.046302,64.1731739 62.7406355,60 68.3173247,60 Z" id="矩形" fill="#FCE4C6"></path>
                            <path d="M48.0633964,26.8851663 C42.8506942,33.714052 40.9990123,40.1053221 42.5083506,46.0589766 C44.772358,54.9894584 52.0007337,63.2386724 59.1876735,69.5063136 C65.5603004,71.7410797 78.6836534,77.0698505 88.6273356,59.0118596 C93.2064921,50.8583216 94.8585151,46.5406939 93.5834047,46.0589766 L85.4476648,16 L48.0633964,26.8851663 Z" id="路径-11" fill="#FFEFDB"></path>
                            <path d="M42.9192162,37.9097052 L42.9192162,37.9097052 C45.6565852,37.9175154 47.8737327,40.1346278 47.8815862,42.8719967 L47.8993981,49.0804347 C47.9071937,51.7976426 45.7107811,54.0066944 42.9935733,54.01449 C42.9841891,54.0145169 42.9748048,54.014517 42.9654206,54.0144902 L42.9654206,54.0144902 C40.2280515,54.00668 38.0109041,51.7895676 38.0030506,49.0521987 L37.9852387,42.8437607 C37.9774431,40.1265529 40.1738557,37.9175011 42.8910635,37.9097054 C42.9004477,37.9096785 42.909832,37.9096784 42.9192162,37.9097052 Z" id="矩形" fill="#FFEFDB" transform="translate(42.942318, 45.962098) rotate(-23.000000) translate(-42.942318, -45.962098) "></path>
                            <path d="M94.262396,37.9097052 L94.262396,37.9097052 C96.999765,37.9175154 99.2169125,40.1346278 99.2247659,42.8719967 L99.2425778,49.0804347 C99.2503735,51.7976426 97.0539609,54.0066944 94.336753,54.01449 C94.3273688,54.0145169 94.3179845,54.014517 94.3086003,54.0144902 L94.3086003,54.0144902 C91.5712313,54.00668 89.3540838,51.7895676 89.3462304,49.0521987 L89.3284185,42.8437607 C89.3206228,40.1265529 91.5170354,37.9175011 94.2342433,37.9097054 C94.2436275,37.9096785 94.2530117,37.9096784 94.262396,37.9097052 Z" id="矩形-copy" fill="#FFEFDB" transform="translate(94.285498, 45.962098) scale(-1, 1) rotate(-23.000000) translate(-94.285498, -45.962098) "></path>
                            <path d="M82.0765061,5.03576008 C78.7271354,1.25233157e-13 71.0378,-1.25894002 59.0084998,1.25894002 C40.9645494,5.03576008 38.033067,18.7593175 43.4261412,46 C48.1997566,43.6493102 41.7692185,32.528416 58.1386563,27.7816113 C67.9653709,27.7816113 70.2182248,19.1012628 79.6525246,20.2285349 C94.0318961,21.9466766 83.3949324,39.3062665 94.4079137,46 C100.282348,18.6905067 96.1718785,5.03576008 82.0765061,5.03576008 Z" id="路径-10" fill="#8F5320"></path>
                            <path d="M68.0231031,87.3090397 C74.3450901,86.6399397 79.5520729,82.9557658 80.7058179,78.1776826 C80.3638872,78.1776826 106.609383,82.7164583 112.030326,85.2926144 C118.053381,90.9009784 126.043273,104.051737 136,124.744891 L116.547678,142 L110.223385,135.208261 L110.223385,142 L65.9533369,142 L25.776615,142 L25.776615,135.208261 L19.4523224,142 L0,124.744891 C10.2028906,104.049767 18.0329671,91.1048239 23.4902296,85.9100605 C29.8205455,80.9885656 55.4248198,78 55.4248198,78 C56.5811737,82.7888874 61.7020862,86.6244865 68.0231031,87.3090397 Z" id="合并形状" fill="#FFFFFF"></path>
                        </g>
                        <path d="M113.3,58.5333333 L111,58.5333333 L111,30.0666667 C111,25.0592849 115.11898,21 120.2,21 L150.1,21 L150.1,23.2666667 L120.2,23.2666667 C116.389235,23.2666667 113.3,26.3111304 113.3,30.0666667 L113.3,58.5333333 Z M113.3,117.466667 L113.3,147.933333 C113.3,151.68887 116.389235,154.733333 120.2,154.733333 L150.1,154.733333 L150.1,157 L120.2,157 C115.11898,157 111,152.940715 111,147.933333 L111,117.466667 L113.3,117.466667 Z M209.9,154.733333 L239.8,154.733333 C243.610765,154.733333 246.7,151.68887 246.7,147.933333 L246.7,117.466667 L249,117.466667 L249,147.933333 C249,152.940715 244.88102,157 239.8,157 L209.9,157 L209.9,154.733333 Z M246.7,58.5333333 L246.7,30.0666667 C246.7,26.3111304 243.610765,23.2666667 239.8,23.2666667 L209.9,23.2666667 L209.9,21 L239.8,21 C244.88102,21 249,25.0592849 249,30.0666667 L249,58.5333333 L246.7,58.5333333 Z" id="合并形状" fill="#5794FC" fill-rule="nonzero"></path>
                        <rect id="矩形" fill="#F6F9FF" x="70" y="193" width="221" height="36" rx="18"></rect>
                        <rect id="矩形" fill="url(#linearGradient-1)" x="113" y="27" width="134" height="76"></rect>
                        <polygon id="直线-8" fill="#5983F8" fill-rule="nonzero" points="113 103 113 102 247.4 102 247.4 103"></polygon>
                        <g id="tongguo" transform="translate(116.000000, 202.000000)">
                            <path d="M8.98800781,0.00585556604 C4.02723747,0.00585556604 0.00585556604,4.02723747 0.00585556604,8.98800781 C0.00585556604,13.9494444 4.02723747,17.9941444 8.98800781,17.9941444 C13.9494444,17.9941444 17.9941444,13.9494444 17.9941444,8.98800781 C17.9941444,4.02723747 13.9494444,0.00585556604 8.98800781,0.00585556604 Z" id="路径" fill="#00B100"></path>
                            <path d="M14.2579102,6.54826285 L7.90204815,12.9614209 C7.80344545,13.0610221 7.6691108,13.1170622 7.52895772,13.1170622 C7.38880463,13.1170622 7.25446999,13.0610221 7.15586728,12.9614209 L3.9246376,9.67489394 C3.73619532,9.46608248 3.74438988,9.14624096 3.94327768,8.94735315 C4.14216549,8.74846535 4.46200701,8.7402708 4.67081847,8.92871308 L7.52629277,11.7841874 L13.5063995,5.80408068 C13.7126097,5.59841047 14.0463701,5.59841047 14.2525804,5.80408068 C14.3532698,5.90135253 14.410574,6.03505505 14.4115766,6.17505212 C14.4125793,6.31504918 14.3571961,6.44955877 14.2579102,6.54826285 Z" id="路径" fill="#FFFFFF"></path>
                        </g>
                        <g id="times-circle-warn" transform="translate(229.000000, 202.000000)" fill="#E74C3C" fill-rule="nonzero">
                            <path d="M9.29986363,8.37368183 L6.51722727,5.59063637 C6.26370496,5.33719467 5.85274958,5.33719467 5.59922727,5.59063637 L5.59104546,5.59922727 C5.3374091,5.85286363 5.3374091,6.2635909 5.59104546,6.51722727 L8.37368183,9.29986363 L5.5894091,12.0841364 C5.33577273,12.3377727 5.33577273,12.7485 5.5894091,13.0021364 L5.5984091,13.0099091 C5.85204546,13.2635455 6.26318183,13.2635455 6.5164091,13.0099091 L9.29986363,10.2264545 L12.0829091,13.0090909 C12.3365455,13.2627273 12.7472727,13.2627273 13.0009091,13.0090909 L13.0090909,13.0009091 C13.2627273,12.7472727 13.2627273,12.3361364 13.0090909,12.0829091 L10.2264545,9.29986363 L13.0103182,6.516 C13.2639545,6.26236363 13.2639545,5.85163637 13.0103182,5.598 L13.0013182,5.58981817 C12.7477959,5.33637648 12.3368405,5.33637648 12.0833182,5.58981817 L9.29986363,8.37368183 Z M9,18 C4.02954546,18 0,13.9704545 0,9 C0,4.02954546 4.02954546,0 9,0 C13.9704545,0 18,4.02954546 18,9 C18,13.9704545 13.9704545,18 9,18 Z" id="形状"></path>
                        </g>
                    </g>
                </g>
                <g id="分组-51" transform="translate(366.000000, 162.000000)">
                    <path d="M40.9230327,191.293094 L41.5978771,196.101057 L41.4794771,200.23843 C41.4794771,200.23843 41.5978771,203.193494 44.086766,204.966603 C46.5756549,206.739713 53.9239216,209.81322 50.8423216,204.13927 C47.7607216,198.465321 47.0496105,195.746435 46.9312105,191.136351 C46.8128105,186.526267 40.9230327,191.293094 40.9230327,191.293094" id="Fill-1" fill="#E9989E" transform="translate(46.253933, 198.266313) rotate(-7.000000) translate(-46.253933, -198.266313) "></path>
                    <path d="M23.6198143,149.597689 L19.4288809,152.066921 L15.5536809,153.548177 C15.5536809,153.548177 12.8639032,154.792545 12.1791032,157.765694 C11.4943032,160.739198 11.4736809,168.686274 15.5412365,163.668375 C19.6091476,158.650121 21.8523476,156.950419 26.0742143,155.069859 C30.2957254,153.188945 23.6198143,149.597689 23.6198143,149.597689" id="Fill-3" fill="#E9989E" transform="translate(19.653954, 157.444566) rotate(-7.000000) translate(-19.653954, -157.444566) "></path>
                    <path d="M47.0532479,89.2164593 C47.0532479,89.2164593 46.5554702,93.3538324 51.8888035,101.864757 C57.2221368,110.375681 73.5776924,123.49669 70.0221368,129.170639 C66.4665813,134.844589 26.1704035,149.502174 20.244359,153.994169 C14.3186702,158.485809 12.4221368,148.320219 18.8221368,146.665199 C25.2221368,145.010179 38.2592924,127.752152 50.3481813,127.279086 C50.3481813,127.279086 31.4916479,119.713938 26.6976924,104.701732 C21.9037368,89.6891702 19.9126257,85.9067735 19.9126257,85.9067735 L47.0532479,89.2164593 Z" id="Fill-5" fill="#020687" transform="translate(42.675807, 120.518472) rotate(-7.000000) translate(-42.675807, -120.518472) "></path>
                    <path d="M22.2754952,86.9810356 C22.2754952,86.9810356 17.6653618,103.645071 25.8328285,113.649662 C25.8328285,113.649662 33.1928285,136.187299 34.3345174,142.450276 C35.4758507,148.712898 29.8698063,142.991783 29.7638507,158.217827 C29.6582507,173.443516 34.2993174,189.825982 33.826784,192.142372 C33.3542507,194.459116 37.4477618,196.447836 40.0621618,193.117936 C40.0621618,193.117936 42.0180729,155.299644 46.7498063,147.043693 C51.4815396,138.787741 46.6321174,111.87017 47.9729174,108.787442 C53.6785174,95.6696255 48.1204729,86.4771179 48.1204729,86.4771179 C48.1204729,86.4771179 38.5901618,87.6374406 22.2754952,86.9810356" id="Fill-7" fill="#374ABE" transform="translate(35.763368, 140.680487) rotate(-7.000000) translate(-35.763368, -140.680487) "></path>
                    <path d="M38.7257746,37.0755909 C38.7257746,37.0755909 35.5257746,42.1583858 37.3035524,45.5865152 C39.0813301,49.0146446 44.4146635,56.1070816 40.3851524,66.0364934 L39.7924413,68.2823135 C39.7924413,68.2823135 44.888619,68.6369354 51.7629301,64.3814732 C51.7629301,64.3814732 56.4146635,62.6970194 56.8591079,60.7465993 C57.3035524,58.7961791 57.7479968,57.820969 58.1924413,57.820969 C58.6368857,57.820969 58.9924413,60.2146665 58.9924413,60.2146665 C58.9924413,60.2146665 62.7257746,54.2747505 63.0813301,54.6293724 C63.4368857,54.9839942 64.770219,54.363406 61.8368857,59.8600446 C61.8368857,59.8600446 63.6146635,59.5940783 62.0146635,62.2537421 C62.0146635,62.2537421 63.7924413,63.0516413 61.3924413,64.4701287 C61.3924413,64.4701287 60.5924413,65.9772715 56.6813301,64.7360951 C56.6813301,64.7360951 50.6962635,70.7646665 38.9629301,75.2566614 L38.1330635,76.2020833 C38.1330635,76.2020833 36.9479968,81.2852329 38.488619,85.4222514 L39.9108413,89.3230917 C39.9108413,89.3230917 34.5775079,99.1344144 12.770219,86.013406 C12.770219,86.013406 22.6073746,81.6398547 22.370219,78.3298144 C22.1330635,75.0201287 17.1552857,54.8066833 17.1552857,54.8066833 L26.1629301,39.321411 L35.051819,31.5197304 L38.7257746,37.0755909 Z" id="Fill-9" fill="#E9989E" transform="translate(38.231442, 62.183218) rotate(-7.000000) translate(-38.231442, -62.183218) "></path>
                    <path d="M30.3394206,32.5491884 C30.3394206,32.5491884 30.7838651,34.9723194 34.3394206,38.341227 C37.8949762,41.7101346 39.0505317,41.7101346 41.2727539,38.6958489 C43.4949762,35.6815631 42.0727539,36.1248405 43.4949762,35.6815631 C44.9171984,35.2382858 45.0949762,35.5042522 44.9171984,33.2878657 C44.7394206,31.0714791 46.6949762,27.4366052 46.2505317,25.1315631 C45.8060873,22.8265211 49.7171984,16.1773615 41.2727539,18.9256808 C32.8283095,21.6740001 28.2060873,23.6244203 28.2060873,23.6244203 L30.3394206,32.5491884 Z" id="Fill-11" fill="#FFB0B6" transform="translate(37.490879, 29.592554) rotate(-7.000000) translate(-37.490879, -29.592554) "></path>
                    <path d="M35.7240954,40.1028132 C35.7240954,40.1028132 39.6352065,41.0780232 38.6574288,43.3830653 C37.679651,45.6881073 38.2129843,46.6633174 38.2129843,46.6633174 C38.2129843,46.6633174 44.7907621,58.2771829 41.7685399,64.7490316 C38.7463177,71.2208804 40.6129843,77.4267627 38.5685399,76.9834854 C38.5685399,76.9834854 39.5463177,79.4658384 36.079651,79.4658384 C32.6129843,79.4658384 22.5685399,82.2141577 22.3018732,77.6927291 L21.679651,76.8061745 C21.679651,76.8061745 18.5685399,65.014998 18.9240954,61.4687795 C19.279651,57.9225611 20.7018732,47.8158384 20.7018732,47.8158384 L34.0352065,42.6738216 L35.7240954,40.1028132 Z" id="Fill-13" fill="#CADFFD" transform="translate(30.729238, 60.198005) rotate(-7.000000) translate(-30.729238, -60.198005) "></path>
                    <path d="M29.7725004,55.1199 C29.7725004,55.1199 14.8391671,73.3237033 27.1652115,77.3429874 L33.9207671,77.9337874 C33.9207671,77.9337874 32.1013893,79.677463 22.9220115,79.8253403 C22.9220115,79.8253403 22.2937449,79.7512244 22.1515227,78.2884092 L21.5293004,77.4018546 C21.5293004,77.4018546 20.2318782,73.9886193 18.7652115,63.8818966 C17.2985449,53.7751739 29.7725004,55.1199 29.7725004,55.1199" id="Fill-15" fill="#A6CDEB" transform="translate(26.283042, 67.442919) rotate(-7.000000) translate(-26.283042, -67.442919) "></path>
                    <polygon id="路径-3" fill="#D8D8D8" transform="translate(18.989309, 113.027106) rotate(-3.000000) translate(-18.989309, -113.027106) " points="19.2713602 111.357797 16.6849148 113.944243 16 115.73639 17.6356801 115.151498 21.9786186 111.357797 20.698847 110.317823"></polygon>
                    <path d="M32.7669017,49.5965361 C34.1891239,52.078889 34.3669017,54.5612419 26.3669017,60.0578806 C18.3669017,65.5545192 17.1224572,69.4553596 12.500235,71.9377125 C12.500235,71.9377125 14.4557906,75.7498974 14.2780128,83.6402335 C14.100235,91.5305697 15.9669017,102.701158 19.3446794,102.967124 C22.7224572,103.233091 23.4335683,108.641074 21.4780128,107.222586 C19.5224572,105.804099 20.2335683,107.399897 22.100235,108.197797 C23.9669017,108.995696 20.9446794,112.098637 19.4335683,110.946116 C19.4335683,110.946116 19.4335683,112.63057 17.1224572,111.300738 C17.1224572,111.300738 17.0335683,112.453259 14.6335683,110.591494 C14.6335683,110.591494 13.300235,111.566704 15.6113461,103.765023 C15.6113461,103.765023 8.05579055,93.0377125 5.56690167,73.7994772 C5.56690167,73.7994772 4.85579055,72.2036789 6.27801278,70.873847 C7.700235,69.544015 17.300235,55.536452 18.5446794,53.4973764 C19.7891239,51.4583008 24.4113461,46.8482167 27.6113461,46.4049394 C27.6113461,46.4049394 31.3446794,47.1141831 32.7669017,49.5965361 Z" id="Fill-17" fill="#E9989E" transform="translate(19.456711, 79.108484) rotate(-7.000000) translate(-19.456711, -79.108484) "></path>
                    <path d="M22.5504784,26.2046386 C22.5504784,26.2046386 19.1727006,29.7508571 16.417145,35.6021176 C13.6615895,41.4533781 13.7504784,42.3399327 8.77270059,44.2903529 C3.79492281,46.240773 0.950478363,52.2693445 4.77270059,56.2588403 C8.59492281,60.2483361 11.9727006,59.3617815 17.7504784,51.5601008 C17.7504784,51.5601008 17.8393673,47.0386722 21.3949228,46.7727058 C24.9504784,46.5067394 33.46042,48.1979851 32.66042,38.1799179 C32.3442274,34.8357596 30.3727006,30.5781899 31.7949228,30.5781899 C31.7949228,30.5781899 30.5504784,27.8004369 31.9727006,26.0865495 C33.3949228,24.3723075 34.5799895,25.5546167 34.2838117,26.4411714 C33.9876339,27.327726 34.2838117,29.1008352 34.2838117,29.1008352 L36.8911006,26.4411714 C36.8911006,26.4411714 41.0393673,27.8004369 44.535545,24.3134403 C44.535545,24.3134403 46.017145,26.5000386 45.0688784,28.0958369 C45.0688784,28.0958369 48.2688784,29.8689462 50.3431895,26.2046386 C52.417145,22.540331 45.1282561,15.7432941 45.1282561,15.7432941 C45.1282561,15.7432941 29.6615895,2.79959658 22.5504784,26.2046386 Z" id="Fill-19" fill="#510000" transform="translate(26.858665, 35.377965) rotate(-7.000000) translate(-26.858665, -35.377965) "></path>
                    <path d="M21.3207708,18.1489612 C21.3207708,18.1489612 19.8985486,7.86492761 29.4985486,4.67333098 C39.0985486,1.48173434 45.3207708,9.63803686 45.1429931,11.765768 C45.1429931,11.765768 64.0468153,8.98801501 59.1874375,13.4796553 C54.3280597,17.9716503 16.7579264,30.6199478 10.0023708,24.5913764 C10.0023708,24.5913764 8.69854863,22.6998234 21.3207708,18.1489612" id="Fill-21" fill="#FFC23F" transform="translate(34.975113, 15.065632) rotate(-7.000000) translate(-34.975113, -15.065632) "></path>
                    <path d="M28.7738002,5.24832455 C28.7738002,5.24832455 21.6626891,9.59244219 23.9738002,17.2168119 C26.2849113,24.8411817 36.951578,20.0537867 42.7293558,17.3941229 C42.7293558,17.3941229 29.8404669,26.3483245 21.6626891,20.8516859 C21.6626891,20.8516859 16.4182446,10.5676523 28.7738002,5.24832455" id="Fill-23" fill="#E7AE34" transform="translate(31.643223, 13.942373) rotate(-7.000000) translate(-31.643223, -13.942373) "></path>
                    <path d="M42.4627922,195.746605 C42.4627922,195.746605 43.777281,202.774146 47.0715033,205.285932 C50.366081,207.798074 51.828481,203.700773 51.828481,203.700773 C51.828481,203.700773 57.4771922,209.702038 58.3042144,210.890376 C59.130881,212.078714 60.5175477,215.273148 51.6674144,214.430211 C44.7739033,213.773452 43.8256366,209.636079 43.8256366,209.636079 L42.4034144,205.085217 L42.0478588,212.236521 L40.4478588,212.05921 L40.3888366,203.666729 C40.3888366,203.666729 39.4405699,197.224314 42.4627922,195.746605" id="Fill-25" fill="#303030" transform="translate(49.582764, 205.158323) rotate(-7.000000) translate(-49.582764, -205.158323) "></path>
                    <g id="分组" transform="translate(12.360905, 163.295958) rotate(-7.000000) translate(-12.360905, -163.295958) translate(4.894238, 152.479992)">
                        <mask id="mask-3" fill="white">
                            <use xlink:href="#path-2"></use>
                        </mask>
                        <g id="Clip-28"></g>
                        <path d="M14.9310222,0.718109244 C14.9310222,0.718109244 9.31217778,4.47390924 8.35644444,8.25914286 C7.40071111,12.0436672 11.5077333,11.7812471 11.5077333,11.7812471 C11.5077333,11.7812471 8.39626667,18.9024084 7.67128889,20.0602487 C6.94631111,21.2184437 4.6864,23.6082403 2.12071111,15.6409513 C0.122488889,9.43506891 3.36551111,7.07328739 3.36551111,7.07328739 L6.79128889,4.14730252 L0.442133333,6.50518319 L-0.000177777778,5.05548908 L7.27342222,1.87665882 C7.27342222,1.87665882 12.52,-1.34437143 14.9310222,0.718109244" id="Fill-27" fill="#303030" mask="url(#mask-3)"></path>
                    </g>
                    <g id="分组" transform="translate(63.731838, 44.582477) rotate(-7.000000) translate(-63.731838, -44.582477) translate(56.231838, 30.082477)">
                        <mask id="mask-5" fill="white">
                            <use xlink:href="#path-4"></use>
                        </mask>
                        <g id="Clip-30"></g>
                        <path d="M0.752533333,28.3212711 C0.397333333,28.1574358 0.2416,27.7336627 0.405866667,27.3797501 L12.9043556,0.45544084 C13.0686222,0.101173613 13.4935111,-0.0541507563 13.8483556,0.109684538 C14.2032,0.273519832 14.3592889,0.697292941 14.1950222,1.05156017 L1.69653333,27.9755148 C1.53226667,28.329782 1.10737778,28.4851064 0.752533333,28.3212711" id="Fill-29" fill="#101D8F" mask="url(#mask-5)"></path>
                    </g>
                    <path d="M23.6335071,106.41821 L26.5643125,103.295105 C27.7538804,102.954925 28.3486644,103.281631 28.3486644,104.275224 C28.3486644,104.275224 25.3076231,107.502197 25.3076231,107.502197 C24.3162606,107.502197 23.7582219,107.140868 23.6335071,106.41821 Z" id="路径-2" fill="#D8D8D8"></path>
                </g>
            </g>
        </g>
    </g>
</svg>