<svg id="icon-bank-rmb-small" xmlns="http://www.w3.org/2000/svg" width="72" height="72" viewBox="0 0 72 72">
  <g id="ic_phone" data-name="ic/phone" transform="translate(0)">
    <g id="Group-2">
      <circle id="Oval" cx="36" cy="36" r="36" fill="rgba(255,255,255,0.17)"/>
    </g>
    <g id="组_4407" data-name="组 4407" transform="translate(-77.091 -77.287)">
      <path id="路径_5229" data-name="路径 5229" d="M375.376,293.687a1.3,1.3,0,1,0,0-2.6h-1.618l1.858-1.878a1.3,1.3,0,1,0-1.85-1.833l-3.077,3.11-3.077-3.11a1.3,1.3,0,1,0-1.85,1.833l1.858,1.878H366a1.3,1.3,0,1,0,0,2.6h3.386v2.045H366a1.3,1.3,0,1,0,0,2.6h3.386v3.431a1.3,1.3,0,0,0,2.6,0v-3.431h3.386a1.3,1.3,0,1,0,0-2.6h-3.386v-2.045Z" transform="translate(-257.872 -183.319)" fill="#fff"/>
      <path id="路径_5230" data-name="路径 5230" d="M123.878,112.418a1.3,1.3,0,0,0,0,2.6h2.012l-10.485,11.143-5.139-5.22-6.724,6.228a1.3,1.3,0,1,0,1.768,1.907l4.87-4.513,5.265,5.35,11.765-12.505v.943a1.3,1.3,0,1,0,2.6,0v-5.935ZM112.816,98.5a14.319,14.319,0,0,1,13.375,9.2,1.3,1.3,0,1,0,2.431-.927,16.919,16.919,0,1,0-28.287,17.461,1.3,1.3,0,1,0,1.919-1.756A14.314,14.314,0,0,1,112.816,98.5Z" transform="translate(0 0)" fill="#fff"/>
    </g>
  </g>
</svg>
