<svg xmlns="http://www.w3.org/2000/svg" width="140" height="140" viewBox="0 0 140 140">
  <g id="icon-bank-_" data-name="icon-bank-$" transform="translate(6 6)">
    <g id="Group-2">
      <circle id="Oval" cx="70" cy="70" r="70" transform="translate(-6 -6)" fill="#d9f0ee"/>
    </g>
    <g id="组_4406" data-name="组 4406" transform="translate(-40.1 -153.258)">
      <path id="路径_5227" data-name="路径 5227" d="M394.9,294.575h.327a9.331,9.331,0,0,1,5.4,2.616,7.238,7.238,0,0,1,1.8,4.905,7.832,7.832,0,0,1-1.962,5.4,7.261,7.261,0,0,1-5.559,2.289v3.27h-1.8v-3.107c-2.452-.327-4.251-.981-5.559-2.289a8.108,8.108,0,0,1-2.126-5.4l3.107-.491a8.939,8.939,0,0,0,1.472,3.924,4.487,4.487,0,0,0,2.943,1.635V297.191a9.87,9.87,0,0,1-5.4-2.616,6.423,6.423,0,0,1-1.8-4.578,6.97,6.97,0,0,1,7.194-7.194v-1.635h1.8v1.471a7.409,7.409,0,0,1,4.742,1.962,8.027,8.027,0,0,1,2.126,4.415l-3.27.49a6.21,6.21,0,0,0-1.145-2.78,4.5,4.5,0,0,0-2.453-1.308v9.157Zm-1.8-.491v-8.666a4.262,4.262,0,0,0-2.943,1.472,4.637,4.637,0,0,0-1.145,2.78,3.846,3.846,0,0,0,.981,2.78A6.313,6.313,0,0,0,393.1,294.084Zm1.8,13.081a4.764,4.764,0,0,0,4.251-4.905,3.847,3.847,0,0,0-.981-2.78,7.472,7.472,0,0,0-3.27-1.8Zm0,0" transform="translate(-289.983 -79.293)" fill="#47b2aa"/>
      <path id="路径_5228" data-name="路径 5228" d="M130.094,199.421v8.666a11.307,11.307,0,0,0,0,18.64v8.666H77.77v-8.5a11.406,11.406,0,0,0,0-18.967v-8.5h52.323m3.27-3.27H74.5v13.735a8.115,8.115,0,0,1,0,15.043v13.735h58.864V224.929a8.09,8.09,0,0,1-4.905-7.521,8.262,8.262,0,0,1,4.905-7.522Zm0,0" fill="#47b2aa"/>
    </g>
  </g>
</svg>
