<svg xmlns="http://www.w3.org/2000/svg" width="140" height="140" viewBox="0 0 140 140">
  <g id="icon-bank-rmb" transform="translate(6 6)">
    <g id="Group-2">
      <circle id="Oval" cx="70" cy="70" r="70" transform="translate(-6 -6)" fill="#ffe2cc"/>
    </g>
    <g id="组_4407" data-name="组 4407" transform="translate(-57.658 -58.558)">
      <path id="路径_5229" data-name="路径 5229" d="M381.264,297.383a2.018,2.018,0,1,0,0-4.037h-2.51l2.883-2.914a2.02,2.02,0,0,0-2.87-2.845l-4.775,4.825-4.775-4.825a2.02,2.02,0,1,0-2.87,2.845l2.883,2.914h-2.51a2.018,2.018,0,0,0,0,4.037h5.254v3.173h-5.254a2.018,2.018,0,0,0,0,4.037h5.254v5.324a2.018,2.018,0,0,0,4.037,0v-5.324h5.254a2.018,2.018,0,1,0,0-4.037H376.01v-3.173Z" transform="translate(-251.845 -179.034)" fill="#fa250a"/>
      <path id="路径_5230" data-name="路径 5230" d="M139.309,121.528a2.018,2.018,0,0,0,0,4.037h3.122l-16.267,17.289-7.973-8.1-10.433,9.663a2.017,2.017,0,0,0,2.744,2.958l7.557-7,8.168,8.3,18.254-19.4v1.463a2.018,2.018,0,1,0,4.037,0v-9.209ZM122.146,99.937A22.217,22.217,0,0,1,142.9,114.211a2.018,2.018,0,1,0,3.772-1.438,26.25,26.25,0,1,0-43.888,27.091,2.018,2.018,0,0,0,2.977-2.725,22.209,22.209,0,0,1,16.387-37.2Z" transform="translate(0 0)" fill="#fa250a"/>
    </g>
  </g>
</svg>
