<svg id="icon-bank-hk_-small" data-name="icon-bank-hk$-small" xmlns="http://www.w3.org/2000/svg" width="72" height="72" viewBox="0 0 72 72">
  <g id="ic_phone" data-name="ic/phone" transform="translate(0)">
    <g id="Group-2">
      <circle id="Oval" cx="36" cy="36" r="36" fill="rgba(255,255,255,0.17)"/>
    </g>
    <g id="组_4403" data-name="组 4403" transform="translate(16.413 16.32)">
      <path id="路径_5224" data-name="路径 5224" d="M26.943,28.595h-.009a4.382,4.382,0,0,1,7.334-1.219,5.327,5.327,0,0,0,7.752-.166,3.219,3.219,0,0,1,5.05-.195,10.209,10.209,0,0,0-20.127,1.567h0Zm-.01.01v0l0,.008,0,0Zm.011-.024a4.382,4.382,0,0,1,3.439,6.59,5.327,5.327,0,0,0,2.552,7.351,3.219,3.219,0,0,1,1.749,4.73,10.209,10.209,0,0,0-7.741-18.658v-.013Zm0,.013-.01.01a4.382,4.382,0,0,1-5.2,5.3A5.327,5.327,0,0,0,15.555,38.6a3.219,3.219,0,0,1-3.966,3.121A10.209,10.209,0,0,0,26.943,28.595Zm-.011.006,0-.007h0Zm-.137.008-.028-.028a4.382,4.382,0,0,1-6.656-3.315,5.312,5.312,0,0,0-6.367-4.425,3.219,3.219,0,0,1-4.163-2.775A10.209,10.209,0,0,0,26.8,28.61Zm.028-.166V28.5a4.382,4.382,0,0,1,1.1-7.352,5.327,5.327,0,0,0,2.247-7.477,3.219,3.219,0,0,1,1.386-4.854,10.209,10.209,0,0,0-4.73,19.626Z" transform="translate(-8.78 -8.78)" fill="#fff"/>
      <path id="路径_5225" data-name="路径 5225" d="M284.963,305.912l-.065.005v0l-.006-.028c-3.709,3.088-8.882,1.189-10.814-1.374l.221-.182c2.187,2.726,7.118,4.154,10.487,1.261-4.03-2.538-3.813-8.065-1.984-10.687l.195.168c-1.913,2.826-1.767,7.917,1.9,10.27,1.209-4.626,6.484-6.128,9.544-5.188l-.069.277c-3.345-.957-8.228.818-9.239,5.174l-.114-.016-.016.049.135-.008.02-.01,0,.008c4.728-.231,7.8,4.3,7.8,7.472h-.292c-.122-3.371-3.137-7.33-7.395-7.206,1.688,4.374-1.687,8.708-4.689,9.74l-.113-.277C283.686,314.182,286.551,310.021,284.963,305.912Zm-.87-10.952v0l-.693-3.122,2.4,2.122-3.189-.318,2.76-1.624Zm13.9,6.792-3.191-.306,2.76-1.623-1.275,2.927-.694-3.12,2.4,2.122Zm-23.456,1.5-3.176-.305,2.747-1.623-1.277,2.927-.693-3.122,2.4,2.124Zm17.312,10.587,2.4,2.121-3.191-.305,2.76-1.636-1.277,2.94Zm-12.332.967h0l-1.277,2.927-.693-3.122,2.4,2.122-3.191-.305,2.762-1.622Z" transform="translate(-266.566 -285.848)" fill="#386ee6"/>
    </g>
  </g>
</svg>
