<svg id="icon-bank-_-small" data-name="icon-bank-$-small" xmlns="http://www.w3.org/2000/svg" width="72" height="72" viewBox="0 0 72 72">
  <g id="ic_phone" data-name="ic/phone" transform="translate(0)">
    <g id="Group-2">
      <circle id="Oval" cx="36" cy="36" r="36" fill="rgba(255,255,255,0.17)"/>
    </g>
    <g id="组_4434" data-name="组 4434" transform="translate(-56.384 -172.946)">
      <path id="路径_5227" data-name="路径 5227" d="M391.138,289.263h.2a5.634,5.634,0,0,1,3.258,1.58,4.37,4.37,0,0,1,1.086,2.962,4.729,4.729,0,0,1-1.185,3.258,4.384,4.384,0,0,1-3.357,1.382v1.975h-1.086v-1.876a5.532,5.532,0,0,1-3.357-1.382,4.9,4.9,0,0,1-1.284-3.258l1.876-.3a5.4,5.4,0,0,0,.889,2.37,2.709,2.709,0,0,0,1.777.987v-6.121a5.96,5.96,0,0,1-3.258-1.58,3.878,3.878,0,0,1-1.086-2.765,4.208,4.208,0,0,1,4.344-4.344v-.987h1.086v.888a4.474,4.474,0,0,1,2.863,1.185,4.847,4.847,0,0,1,1.283,2.666l-1.975.3a3.75,3.75,0,0,0-.691-1.678,2.717,2.717,0,0,0-1.481-.79v5.529Zm-1.086-.3v-5.233a2.573,2.573,0,0,0-1.777.889,2.8,2.8,0,0,0-.691,1.678,2.322,2.322,0,0,0,.592,1.678A3.812,3.812,0,0,0,390.052,288.967Zm1.086,7.9a2.876,2.876,0,0,0,2.567-2.962,2.323,2.323,0,0,0-.592-1.678,4.512,4.512,0,0,0-1.975-1.086Zm0,0" transform="translate(-298.275 -81.56)" fill="#fff"/>
      <path id="路径_5228" data-name="路径 5228" d="M108.068,198.126v5.233a6.827,6.827,0,0,0,0,11.255v5.233H76.475v-5.134a6.887,6.887,0,0,0,0-11.453v-5.134h31.594m1.975-1.975H74.5v8.293a4.9,4.9,0,0,1,0,9.083v8.293h35.543v-8.293a4.885,4.885,0,0,1-2.962-4.541,4.989,4.989,0,0,1,2.962-4.542Zm0,0" fill="#fff"/>
    </g>
  </g>
</svg>
