<svg xmlns="http://www.w3.org/2000/svg" width="140" height="140" viewBox="0 0 140 140">
  <g id="icon-bank-hk_" data-name="icon-bank-hk$" transform="translate(6 6)">
    <g id="Group-2">
      <circle id="Oval" cx="70" cy="70" r="70" transform="translate(-6 -6)" fill="#dbeaff"/>
    </g>
    <g id="组_4403" data-name="组 4403" transform="translate(37.118 37.441)">
      <path id="路径_5224" data-name="路径 5224" d="M34.486,36.823h-.013A6.2,6.2,0,0,1,44.853,35.1a7.54,7.54,0,0,0,10.972-.235,4.556,4.556,0,0,1,7.147-.276A14.448,14.448,0,0,0,34.487,36.8h0Zm-.015.015v-.006l-.005.012.006-.006Zm.016-.034a6.2,6.2,0,0,1,4.867,9.326,7.54,7.54,0,0,0,3.612,10.4,4.556,4.556,0,0,1,2.475,6.694A14.449,14.449,0,0,0,34.486,36.823V36.8Zm0,.019-.015.015a6.2,6.2,0,0,1-7.366,7.506,7.54,7.54,0,0,0-8.737,6.633A4.556,4.556,0,0,1,12.755,55.4,14.449,14.449,0,0,0,34.486,36.823Zm-.016.009,0-.009h-.006Zm-.193.012-.04-.039a6.2,6.2,0,0,1-9.421-4.691,7.518,7.518,0,0,0-9.01-6.262,4.556,4.556,0,0,1-5.892-3.927A14.449,14.449,0,0,0,34.276,36.845Zm.04-.234v.08a6.2,6.2,0,0,1,1.553-10.4A7.54,7.54,0,0,0,39.05,15.7a4.556,4.556,0,0,1,1.961-6.869A14.449,14.449,0,0,0,34.317,36.61Z" transform="translate(-8.78 -8.78)" fill="#629bf7"/>
      <path id="路径_5225" data-name="路径 5225" d="M290.612,311.755l-.092.007v0l-.009-.039c-5.249,4.371-12.57,1.683-15.3-1.944l.313-.257c3.094,3.858,10.074,5.88,14.842,1.784-5.7-3.592-5.4-11.415-2.808-15.125l.276.238c-2.708,4-2.5,11.2,2.688,14.534,1.712-6.547,9.177-8.672,13.507-7.342l-.1.392c-4.733-1.354-11.645,1.158-13.076,7.322l-.161-.022-.023.069.192-.012.029-.014.006.012c6.692-.327,11.033,6.082,11.033,10.575h-.413c-.173-4.77-4.44-10.374-10.465-10.2,2.389,6.191-2.387,12.323-6.636,13.785l-.159-.392C288.805,323.46,292.86,317.571,290.612,311.755Zm-1.231-15.5v0l-.981-4.418,3.4,3-4.513-.45,3.906-2.3Zm19.669,9.613-4.516-.433,3.906-2.3-1.8,4.142-.982-4.415,3.395,3Zm-33.2,2.122-4.495-.432,3.888-2.3L273.44,309.4l-.98-4.418,3.395,3.005Zm24.5,14.983,3.4,3-4.516-.432,3.906-2.316-1.807,4.161ZM282.9,324.341h0l-1.808,4.142-.981-4.418,3.4,3-4.516-.432,3.909-2.3Z" transform="translate(-264.576 -283.36)" fill="#fff"/>
    </g>
  </g>
</svg>
