<svg xmlns="http://www.w3.org/2000/svg" xmlns:xlink="http://www.w3.org/1999/xlink" width="172.481" height="150.973" viewBox="0 0 172.481 150.973">
  <defs>
    <linearGradient id="linear-gradient" x1="-0.027" y1="-0.037" x2="1.027" y2="1.023" gradientUnits="objectBoundingBox">
      <stop offset="0" stop-color="#4d6fff"/>
      <stop offset="1" stop-color="#38d9ff"/>
    </linearGradient>
    <filter id="路径_12702" x="11.706" y="0" width="129.048" height="150.973" filterUnits="userSpaceOnUse">
      <feOffset dy="4" input="SourceAlpha"/>
      <feGaussianBlur stdDeviation="8" result="blur"/>
      <feFlood flood-opacity="0.059"/>
      <feComposite operator="in" in2="blur"/>
      <feComposite in="SourceGraphic"/>
    </filter>
    <filter id="路径_12773" x="21.759" y="76.111" width="109.22" height="65.777" filterUnits="userSpaceOnUse">
      <feOffset dy="4" input="SourceAlpha"/>
      <feGaussianBlur stdDeviation="8" result="blur-2"/>
      <feFlood flood-opacity="0.059"/>
      <feComposite operator="in" in2="blur-2"/>
      <feComposite in="SourceGraphic"/>
    </filter>
    <filter id="路径_12773-2" x="21.759" y="53.322" width="109.22" height="65.777" filterUnits="userSpaceOnUse">
      <feOffset dy="4" input="SourceAlpha"/>
      <feGaussianBlur stdDeviation="8" result="blur-3"/>
      <feFlood flood-opacity="0.059"/>
      <feComposite operator="in" in2="blur-3"/>
      <feComposite in="SourceGraphic"/>
    </filter>
  </defs>
  <g id="pic-check-welldone" transform="translate(-93.566 -62.115)">
    <g id="组_29401" data-name="组 29401" transform="translate(105.086 80.904)">
      <g id="Page-1" transform="translate(0 0)">
        <g id="空白页">
          <g id="暂无相关搜索" transform="translate(0 0)">
            <g id="分组">
              <g id="背景_线" data-name="背景/线">
                <g id="_-" data-name="-">
                  <g id="编组">
                    <path id="Path-2" d="M-1.9,113.227a1.239,1.239,0,0,1-1.239-1.239A1.239,1.239,0,0,1-1.9,110.749H116.529a1.239,1.239,0,1,1,0,2.478Zm124.621,0a1.239,1.239,0,1,1,0-2.478H126.6a1.239,1.239,0,1,1,0,2.478Zm13.94,0a1.239,1.239,0,0,1,0-2.478h13.94a1.239,1.239,0,0,1,0,2.478ZM43.729,124.844a1.239,1.239,0,1,1,0-2.478H54.572a1.239,1.239,0,1,1,0,2.478Zm17.813,0a1.239,1.239,0,0,1,0-2.478h47.242a1.239,1.239,0,1,1,0,2.478Zm81.508-43.06a1.239,1.239,0,1,1,2.478,0v4.647a1.239,1.239,0,0,1-1.239,1.239h-4.647a1.239,1.239,0,0,1,0-2.478h3.408Zm2.478,9.294a1.239,1.239,0,1,1-2.478,0V86.431a1.239,1.239,0,0,1,1.239-1.239h4.647a1.239,1.239,0,1,1,0,2.478h-3.408Zm-150-46.468a1.239,1.239,0,0,1,2.478,0v4.647A1.239,1.239,0,0,1-3.23,50.5H-7.877a1.239,1.239,0,1,1,0-2.478H-4.47ZM127.836,5.421h4.182a1.239,1.239,0,1,1,0,2.478h-4.182v4.182a1.239,1.239,0,0,1-2.478,0V7.9h-4.182a1.239,1.239,0,1,1,0-2.478h4.182V1.239a1.239,1.239,0,0,1,2.478,0ZM-1.991,53.9a1.239,1.239,0,1,1-2.478,0V49.256A1.239,1.239,0,0,1-3.23,48.017H1.416a1.239,1.239,0,1,1,0,2.478H-1.991Z" transform="translate(9.116)" fill="#add0ff"/>
                    <path id="Path复制" d="M15.343,89.961a.774.774,0,0,1,1.1,1.1L14.8,92.7a.774.774,0,0,1-1.1,0l-1.643-1.643a.774.774,0,0,1,1.1-1.1l1.1,1.1Zm-2.191,4.381a.774.774,0,1,1-1.1-1.1L13.7,91.6a.774.774,0,0,1,1.1,0l1.643,1.643a.774.774,0,1,1-1.1,1.1l-1.1-1.1ZM29.017,8.885a.774.774,0,1,1,1.1,1.1L28.47,11.623a.774.774,0,0,1-1.1,0L25.732,9.981a.774.774,0,0,1,1.1-1.1l1.1,1.1Zm-2.191,4.381a.774.774,0,0,1-1.1-1.1l1.643-1.643a.774.774,0,0,1,1.1,0l1.643,1.643a.774.774,0,0,1-1.1,1.1l-1.1-1.1Z" transform="translate(22.467 4.745)" fill="#add0ff"/>
                  </g>
                </g>
              </g>
            </g>
          </g>
        </g>
      </g>
      <g id="发布" transform="translate(81.797 19.477)">
        <g id="组_29400" data-name="组 29400">
          <g id="Group" transform="translate(0 0)">
            <g id="Path" transform="translate(0)">
              <path id="蒙版" d="M52.437.584H4.79C2.255.584.2,1.866.2,3.447V75.694H57.027V.584Z" transform="translate(-0.2 -0.584)" fill="#d9f5ff"/>
              <rect id="矩形" width="31.513" height="3.327" transform="translate(12.485 53.583)" fill="#fff" opacity="0.997"/>
              <rect id="矩形-2" data-name="矩形" width="31.513" height="3.327" transform="translate(12.485 42.255)" fill="#fff" opacity="0.997"/>
              <rect id="矩形-3" data-name="矩形" width="31.513" height="3.327" transform="translate(12.485 30.227)" fill="#fff" opacity="0.997"/>
              <rect id="矩形-4" data-name="矩形" width="31.513" height="3.327" transform="translate(12.485 18.205)" fill="#fff" opacity="0.997"/>
            </g>
          </g>
        </g>
      </g>
    </g>
    <g id="组_29793" data-name="组 29793" transform="translate(131.23 80.904)">
      <g transform="matrix(1, 0, 0, 1, -37.66, -18.79)" filter="url(#路径_12702)">
        <path id="路径_12702-2" data-name="路径 12702" d="M277.748,159.483a3.385,3.385,0,0,0-3.55-3.183H200.25a3.385,3.385,0,0,0-3.55,3.183v96.608a3.385,3.385,0,0,0,3.55,3.183H274.2a3.385,3.385,0,0,0,3.55-3.183V159.483Z" transform="translate(-160.99 -136.3)" fill-rule="evenodd" fill="url(#linear-gradient)"/>
      </g>
      <g id="Group-2" data-name="Group" transform="translate(15.457 8.764)">
        <circle id="Oval" cx="16.439" cy="16.439" r="16.439" transform="translate(0 23.366) rotate(-45.292)" fill="#fff" opacity="0.9"/>
        <path id="路径_12783" data-name="路径 12783" d="M82.166,160.278a.928.928,0,0,1,0,1.312L71.027,172.729a.928.928,0,0,1-1.312,0l-5.106-5.105a.928.928,0,1,1,1.313-1.313l4.449,4.449,10.482-10.483a.928.928,0,0,1,1.313,0Z" transform="translate(-49.757 -142.813)" fill="#4a7dff"/>
      </g>
      <g id="组_29794" data-name="组 29794" transform="translate(8.094 77.321)">
        <g transform="matrix(1, 0, 0, 1, -45.76, -96.11)" filter="url(#路径_12773)">
          <path id="路径_12773-3" data-name="路径 12773" d="M281.72,221.8H220.5v17.777h61.22Z" transform="translate(-174.74 -125.69)" fill="#7bc2ff" fill-rule="evenodd"/>
        </g>
        <path id="路径_12774" data-name="路径 12774" d="M296.515,255.7H275.3v2.975h21.215Z" transform="translate(-258.238 -246.02)" fill="#fff" fill-rule="evenodd" opacity="0.597"/>
        <path id="路径_12775" data-name="路径 12775" d="M313.936,240H275.3v3.041h38.636Z" transform="translate(-258.238 -235.993)" fill="#fff" fill-rule="evenodd" opacity="0.597"/>
        <path id="路径_12776" data-name="路径 12776" d="M374.974,267.8H363.9v2.769h11.074Z" transform="translate(-319.276 -255.146)" fill="#ff9f4d" fill-rule="evenodd"/>
        <path id="路径_12777" data-name="路径 12777" d="M240.924,240a4.324,4.324,0,1,1-4.324,4.324A4.315,4.315,0,0,1,240.924,240Z" transform="translate(-231.576 -235.993)" fill="#fff" fill-rule="evenodd" opacity="0.597"/>
      </g>
      <g id="组_29795" data-name="组 29795" transform="translate(8.094 54.533)">
        <g transform="matrix(1, 0, 0, 1, -45.76, -73.32)" filter="url(#路径_12773-2)">
          <path id="路径_12773-4" data-name="路径 12773" d="M281.72,221.8H220.5v17.777h61.22Z" transform="translate(-174.74 -148.48)" fill="#7bc2ff" fill-rule="evenodd"/>
        </g>
        <path id="路径_12774-2" data-name="路径 12774" d="M296.515,255.7H275.3v2.987h21.215Z" transform="translate(-258.238 -246.033)" fill="#fff" fill-rule="evenodd" opacity="0.436"/>
        <path id="路径_12775-2" data-name="路径 12775" d="M313.936,240H275.3v3.086h38.636Z" transform="translate(-258.238 -235.993)" fill="#fff" fill-rule="evenodd" opacity="0.436"/>
        <path id="路径_12776-2" data-name="路径 12776" d="M374.974,267.8H363.9v2.769h11.074Z" transform="translate(-319.276 -255.146)" fill="#ff9f4d" fill-rule="evenodd"/>
        <path id="路径_12777-2" data-name="路径 12777" d="M240.924,240a4.324,4.324,0,1,1-4.324,4.324A4.315,4.315,0,0,1,240.924,240Z" transform="translate(-231.576 -235.993)" fill="#fff" fill-rule="evenodd" opacity="0.436"/>
      </g>
      <path id="矩形_12147" data-name="矩形 12147" d="M2,0H79.048a2,2,0,0,1,2,2V8.765a0,0,0,0,1,0,0H0a0,0,0,0,1,0,0V2A2,2,0,0,1,2,0Z" transform="translate(-1.959 0)" fill="#4980ff"/>
    </g>
    <circle id="椭圆_779" data-name="椭圆 779" cx="4.029" cy="4.029" r="4.029" transform="translate(94.566 95.846)" fill="none" stroke="#fc9d2f" stroke-width="2"/>
  </g>
</svg>
