<svg xmlns="http://www.w3.org/2000/svg" width="29.912" height="28" viewBox="0 0 29.912 28">
  <g id="查询" transform="translate(0 0)">
    <path id="路径_680" data-name="路径 680" d="M55.293,8.062A10.24,10.24,0,0,1,67.4.212a10.115,10.115,0,0,1,7.952,11.952,10.24,10.24,0,0,1-12.106,7.85A10.115,10.115,0,0,1,55.293,8.062ZM66.809,2.721a7.593,7.593,0,0,0-8.975,5.824,7.5,7.5,0,0,0,5.9,8.86,7.593,7.593,0,0,0,8.976-5.822,7.5,7.5,0,0,0-5.9-8.862ZM47.132,25.231H74.24a1.384,1.384,0,1,1,0,2.768H47.132a1.384,1.384,0,1,1,0-2.768Zm0-10.361h5.609a1.384,1.384,0,1,1,0,2.768H47.132a1.384,1.384,0,1,1,0-2.768Zm0-11.179h5.609a1.384,1.384,0,1,1,0,2.769H47.132a1.384,1.384,0,1,1,0-2.768Z" transform="translate(-45.73 0)" fill="#6e6e6e"/>
    <path id="路径_681" data-name="路径 681" d="M800.984,530.11l3.989,6.909-2.3,1.33-3.989-6.909Z" transform="translate(-776.973 -513.404)" fill="#6e6e6e"/>
  </g>
</svg>
