<?xml version="1.0" encoding="UTF-8"?>
<svg width="84px" height="84px" viewBox="0 0 84 84" version="1.1" xmlns="http://www.w3.org/2000/svg" xmlns:xlink="http://www.w3.org/1999/xlink">
    <title>icon-main-reset-psw</title>
    <defs>
        <linearGradient x1="50%" y1="-12.8069196%" x2="50%" y2="112.983631%" id="linearGradient-1">
            <stop stop-color="#FFCE47" stop-opacity="0.7" offset="0%"></stop>
            <stop stop-color="#DA9C53" stop-opacity="0.952961101" offset="100%"></stop>
        </linearGradient>
    </defs>
    <g id="控件" stroke="none" stroke-width="1" fill="none" fill-rule="evenodd">
        <g id="icon-main-reset-psw">
            <circle id="椭圆形" fill="url(#linearGradient-1)" cx="42" cy="42" r="42"></circle>
            <g id="编组-19" transform="translate(19.000000, 19.000000)">
                <rect id="矩形" stroke="#FFFFFF" stroke-width="2" x="12" y="20" width="22" height="15" rx="2"></rect>
                <rect id="矩形" fill="#FFFFFF" x="22" y="25" width="2" height="5" rx="1"></rect>
                <path d="M18,20.0932617 L18,20.0932617 L18,14 C18,11.2385763 20.2385763,9 23,9 C25.7614237,9 28,11.2385763 28,14 L28,20.1547852 L28,20.1547852" id="路径" stroke="#FFFFFF" stroke-width="2"></path>
                <path d="M38.5678711,0 L40.0084434,7.5171041 C35.8017449,2.89859152 29.7393736,0 23,0 C10.2974508,0 0,10.2974508 0,23 C0,35.7025492 10.2974508,46 23,46 C35.7025492,46 46,35.7025492 46,23 C46,21.3507774 45.8264173,19.7420973 45.496525,18.1912327" id="路径" stroke="#FFFFFF" stroke-width="2" stroke-linecap="round" stroke-linejoin="round"></path>
            </g>
        </g>
    </g>
</svg>