<?xml version="1.0" encoding="UTF-8"?>
<svg width="286px" height="80px" viewBox="0 0 286 80" version="1.1" xmlns="http://www.w3.org/2000/svg" xmlns:xlink="http://www.w3.org/1999/xlink">
    <!-- Generator: Sketch 52.6 (67491) - http://www.bohemiancoding.com/sketch -->
    <title>客服</title>
    <desc>Created with Sketch.</desc>
    <g id="00节点模版" stroke="none" stroke-width="1" fill="none" fill-rule="evenodd">
        <g id="00首页-copy" transform="translate(-994.000000, 0.000000)">
            <g id="客服" transform="translate(994.000000, 0.000000)">
                <path d="M0,0 L286,0 L286,0 C286,44.18278 250.18278,80 206,80 L0,80 L0,0 Z" id="Rectangle-6-Copy" fill-opacity="0.25" fill="#001633" fill-rule="nonzero" transform="translate(143.000000, 40.000000) scale(-1, 1) translate(-143.000000, -40.000000) "></path>
                <g id="客服-(1)-copy" transform="translate(91.000000, 9.000000)" fill="#FFFFFF">
                    <path d="M25.9851731,51 L137,51 C140.865993,51 144,47.8659932 144,44 L144,29 C144,25.1340068 140.865993,22 137,22 L115.540365,22 L115.540365,21 L137,21 C141.418278,21 145,24.581722 145,29 L145,44 C145,48.418278 141.418278,52 137,52 L23,52 L25.9851731,51 Z M25.9851731,51 L137,51 C140.865993,51 144,47.8659932 144,44 L144,29 C144,25.1340068 140.865993,22 137,22 L115.540365,22 L115.540365,21 L137,21 C141.418278,21 145,24.581722 145,29 L145,44 C145,48.418278 141.418278,52 137,52 L23,52 L25.9851731,51 Z" id="Rectangle-9" fill-rule="nonzero"></path>
                    <text id="95536" font-family="MyanmarMN-Bold, Myanmar MN" font-size="30" font-weight="bold">
                        <tspan x="50" y="47">95536</tspan>
                    </text>
                    <text id="客户热线" font-family="PingFangSC-Regular, PingFang SC" font-size="12" font-weight="normal" line-spacing="33" letter-spacing="1.285714">
                        <tspan x="49" y="13">客户热</tspan>
                        <tspan x="88.857142" y="13" letter-spacing="1.186813">线</tspan>
                    </text>
                    <path d="M24.4633205,44.5384615 C21.2507136,46.8745567 19.1677595,45.0560975 18.3474903,44.5384615 C18.5061644,44.4280421 17.8330887,44.4406648 17.1243243,44.5384615 C17.0137325,45.2952448 17.0262347,45.9763842 17.1243243,46.7948718 C18.1769722,47.0932043 19.6046554,47.9230769 20.7938224,47.9230769 C22.5509424,47.9230769 23.8950019,47.5378383 25.6864865,46.7948718 C25.7386143,46.1014865 25.8242812,45.4255821 25.6864865,44.5384615 C25.0999805,44.485823 24.4269049,44.4001546 24.4633205,44.5384615 Z M13.1286486,32.6923077 C12.754041,32.6923077 11.987027,33.6012308 11.987027,35.4 L11.987027,36.7538462 C11.987027,38.5525539 12.7540411,39.4615385 13.1286486,39.4615385 C14.6448778,39.4615385 15.4118919,38.5525539 15.4118919,36.7538462 L15.4118919,35.4 C15.4118919,33.6012923 14.6448778,32.6923077 13.1286486,32.6923077 Z M29.6821622,32.6923077 C28.165933,32.6923077 27.3989189,33.6012308 27.3989189,35.4 L27.3989189,36.7538462 C27.3989189,38.5525539 28.165933,39.4615385 29.6821622,39.4615385 C30.0567697,39.4615385 30.8237838,38.5525539 30.8237838,36.7538462 L30.8237838,35.4 C30.8237838,33.6012923 30.0567697,32.6923077 29.6821622,32.6923077 Z M40.3644788,28.5555556 C40.4324835,17.891027 31.5414452,9.00000005 22.0169884,9 C11.2694196,8.99999995 2.37838137,17.891027 2.44633205,28.5555556 C1.07032566,28.027027 0,29.0972433 0,31 L0,38.3333333 C0,40.0377838 1.07032566,41.1081081 2.44633205,40.7777778 L3.66949807,40.7777778 C4.87562776,41.1081081 5.94595342,40.0377838 6.11583012,38.3333333 L6.11583012,33.4444444 C15.2774246,33.4684865 21.7668923,26.7152433 24.4633205,22.4444444 C26.9217097,24.1708649 32.1591758,28.3064865 36.6949807,28.5555556 C37.0106413,29.4820541 36.8649114,29.927027 36.6949807,31 L36.6949807,38.3333333 C36.8649114,39.2977838 37.0749657,39.8138919 37.9181467,40.7777778 C36.8292357,44.5913514 33.0330688,48.134973 25.6864865,50.5555556 C25.8975462,50.0039459 25.2043561,49.4324324 24.4633205,49.3333333 L18.3474903,49.3333333 C17.4513733,49.4324324 16.6486696,50.2351351 17.1243243,51.7777778 C16.6486697,52.1972973 17.4513734,53 18.3474903,53 L24.4633205,53 C25.0371127,53 25.608735,52.634054 25.6864865,51.7777778 C33.3598259,49.3917297 37.5936151,45.6579459 37.9181467,40.7777778 C38.73713,41.0554595 38.9832925,41.1081081 39.1413127,40.7777778 L40.3644788,40.7777778 C41.7404852,41.1081081 42.8108108,40.0377838 42.8108108,38.3333333 L42.8108108,31 C42.8108649,29.0972432 41.7405392,28.027027 40.3644788,28.5555556 Z" id="Shape" fill-rule="nonzero"></path>
                </g>
            </g>
        </g>
    </g>
</svg>