<?xml version="1.0" encoding="UTF-8"?>
<svg width="56px" height="56px" viewBox="0 0 56 56" version="1.1" xmlns="http://www.w3.org/2000/svg" xmlns:xlink="http://www.w3.org/1999/xlink">
    <!-- Generator: Sketch 52.4 (67378) - http://www.bohemiancoding.com/sketch -->
    <title>已完成</title>
    <desc>Created with Sketch.</desc>
    <g id="已完成" stroke="none" stroke-width="1" fill="none" fill-rule="evenodd">
        <g id="分组">
            <rect id="矩形-copy-2" x="0" y="0" width="56" height="56"></rect>
            <path d="M19,5 C19.5522847,5 20,5.44771525 20,6 L20,10 C20,10.5522847 19.5522847,11 19,11 C18.4477153,11 18,10.5522847 18,10 L18,6 C18,5.44771525 18.4477153,5 19,5 Z M33,5 C33.5522847,5 34,5.44771525 34,6 L34,10 C34,10.5522847 33.5522847,11 33,11 C32.4477153,11 32,10.5522847 32,10 L32,6 C32,5.44771525 32.4477153,5 33,5 Z M44,34.7917852 C42.8081794,34.2821295 41.4958607,34 40.1176471,34 L39.8823529,34 C34.4244801,34 30,38.4244801 30,43.8823529 L30,44.1176471 C30,46.3212936 30.7212724,48.356478 31.940617,50 L11.2941176,50 C9.47482671,50 8,48.5251733 8,46.7058824 L8,11.2941176 C8,9.47482671 9.47482671,8 11.2941176,8 L16,8 L16,10 C16,11.6568542 17.3431458,13 19,13 C20.6568542,13 22,11.6568542 22,10 L22,8 L30,8 L30,10 C30,11.6568542 31.3431458,13 33,13 C34.6568542,13 36,11.6568542 36,10 L36,8 L40.7058824,8 C42.5251733,8 44,9.47482671 44,11.2941176 L44,34.7917852 Z M15,33 C14.4477153,33 14,33.4477153 14,34 C14,34.5522847 14.4477153,35 15,35 L26,35 C26.5522847,35 27,34.5522847 27,34 C27,33.4477153 26.5522847,33 26,33 L15,33 Z M15,26 C14.4477153,26 14,26.4477153 14,27 C14,27.5522847 14.4477153,28 15,28 L31,28 C31.5522847,28 32,27.5522847 32,27 C32,26.4477153 31.5522847,26 31,26 L15,26 Z M15,19 C14.4477153,19 14,19.4477153 14,20 C14,20.5522847 14.4477153,21 15,21 L37,21 C37.5522847,21 38,20.5522847 38,20 C38,19.4477153 37.5522847,19 37,19 L15,19 Z M40,52 C35.581722,52 32,48.418278 32,44 C32,39.581722 35.581722,36 40,36 C44.418278,36 48,39.581722 48,44 C48,48.418278 44.418278,52 40,52 Z M44.4242091,40.2928932 C44.7846931,39.9023689 45.3691531,39.9023689 45.729637,40.2928932 C46.090121,40.6834175 46.090121,41.3165825 45.729637,41.7071068 L39.2680986,48.7071068 C38.9076146,49.0976311 38.3231546,49.0976311 37.9626707,48.7071068 L34.270363,44.7071068 C33.909879,44.3165825 33.909879,43.6834175 34.270363,43.2928932 C34.6308469,42.9023689 35.2153069,42.9023689 35.5757909,43.2928932 L38.6153846,46.5857864 L44.4242091,40.2928932 Z" id="合并形状-copy" fill="#FFFFFF"></path>
        </g>
    </g>
</svg>