<?xml version="1.0" encoding="UTF-8"?>
<svg width="56px" height="56px" viewBox="0 0 56 56" version="1.1" xmlns="http://www.w3.org/2000/svg" xmlns:xlink="http://www.w3.org/1999/xlink">
    <!-- Generator: Sketch 52.4 (67378) - http://www.bohemiancoding.com/sketch -->
    <title>审核中</title>
    <desc>Created with Sketch.</desc>
    <g id="审核中" stroke="none" stroke-width="1" fill="none" fill-rule="evenodd">
        <g id="分组">
            <rect id="矩形-copy-2" x="0" y="0" width="56" height="56"></rect>
            <path d="M19,5 C19.5522847,5 20,5.44771525 20,6 L20,10 C20,10.5522847 19.5522847,11 19,11 C18.4477153,11 18,10.5522847 18,10 L18,6 C18,5.44771525 18.4477153,5 19,5 Z M33,5 C33.5522847,5 34,5.44771525 34,6 L34,10 C34,10.5522847 33.5522847,11 33,11 C32.4477153,11 32,10.5522847 32,10 L32,6 C32,5.44771525 32.4477153,5 33,5 Z M44,37.3426657 C42.3500445,35.3036669 39.8272661,34 37,34 C32.0294373,34 28,38.0294373 28,43 C28,45.8272661 29.3036669,48.3500445 31.3426657,50 L11.2941176,50 C9.47482671,50 8,48.5251733 8,46.7058824 L8,11.2941176 C8,9.47482671 9.47482671,8 11.2941176,8 L16,8 L16,10 C16,11.6568542 17.3431458,13 19,13 C20.6568542,13 22,11.6568542 22,10 L22,8 L30,8 L30,10 C30,11.6568542 31.3431458,13 33,13 C34.6568542,13 36,11.6568542 36,10 L36,8 L40.7058824,8 C42.5251733,8 44,9.47482671 44,11.2941176 L44,37.3426657 Z M15,33 C14.4477153,33 14,33.4477153 14,34 C14,34.5522847 14.4477153,35 15,35 L26,35 C26.5522847,35 27,34.5522847 27,34 C27,33.4477153 26.5522847,33 26,33 L15,33 Z M15,26 C14.4477153,26 14,26.4477153 14,27 C14,27.5522847 14.4477153,28 15,28 L31,28 C31.5522847,28 32,27.5522847 32,27 C32,26.4477153 31.5522847,26 31,26 L15,26 Z M15,19 C14.4477153,19 14,19.4477153 14,20 C14,20.5522847 14.4477153,21 15,21 L37,21 C37.5522847,21 38,20.5522847 38,20 C38,19.4477153 37.5522847,19 37,19 L15,19 Z M42.5969091,47.2047933 L46.7116834,51.3195675 C47.0961055,51.7039897 47.0961055,52.3272612 46.7116834,52.7116834 C46.3272612,53.0961055 45.7039897,53.0961055 45.3195675,52.7116834 L41.2047933,48.5969091 C40.0340484,49.4778535 38.5780011,50 37,50 C33.1340068,50 30,46.8659932 30,43 C30,39.1340068 33.1340068,36 37,36 C40.8659932,36 44,39.1340068 44,43 C44,44.5780011 43.4778535,46.0340484 42.5969091,47.2047933 Z M36.4117647,48.1764706 C39.5955239,48.1764706 42.1764706,45.5955239 42.1764706,42.4117647 C42.1764706,41.956942 41.8077639,41.5882353 41.3529412,41.5882353 C40.8981184,41.5882353 40.5294118,41.956942 40.5294118,42.4117647 C40.5294118,44.6858784 38.6858784,46.5294118 36.4117647,46.5294118 C35.956942,46.5294118 35.5882353,46.8981184 35.5882353,47.3529412 C35.5882353,47.8077639 35.956942,48.1764706 36.4117647,48.1764706 Z" id="合并形状" fill="#FFFFFF"></path>
        </g>
    </g>
</svg>