<?xml version="1.0" encoding="UTF-8"?>
<svg width="80px" height="80px" viewBox="0 0 80 80" version="1.1" xmlns="http://www.w3.org/2000/svg" xmlns:xlink="http://www.w3.org/1999/xlink">
    <!-- Generator: Sketch 52.6 (67491) - http://www.bohemiancoding.com/sketch -->
    <title>icon-zhcx</title>
    <desc>Created with Sketch.</desc>
    <defs>
        <path d="M57,20 C58.3719927,20 60,21.6279927 60,23 L60,45 C60,47.4625885 58.3719927,49.0909465 57,49 L42,49 L42,57 L51.5,57 C52.3284271,57 53,57.6715729 53,58.5 C53,59.3284271 52.3284271,60 51.5,60 L28.5,60 C27.6715729,60 27,59.3284271 27,58.5 C27,57.6715729 27.6715729,57 28.5,57 L38,57 L38,49 L23,49 C21.6283734,49.0909008 20,47.4625428 20,45 L20,23 C20,21.6279927 21.6283734,20 23,20 L57,20 Z M28,27 C27.4477153,27 27,27.4477153 27,28 C27,28.5522847 27.4477153,29 28,29 L52,29 C52.5522847,29 53,28.5522847 53,28 C53,27.4477153 52.5522847,27 52,27 L28,27 Z M28,33 C27.4477153,33 27,33.4477153 27,34 C27,34.5522847 27.4477153,35 28,35 L48,35 C48.5522847,35 49,34.5522847 49,34 C49,33.4477153 48.5522847,33 48,33 L28,33 Z M28,39 C27.4477153,39 27,39.4477153 27,40 C27,40.5522847 27.4477153,41 28,41 L42,41 C42.5522847,41 43,40.5522847 43,40 C43,39.4477153 42.5522847,39 42,39 L28,39 Z" id="path-1"></path>
    </defs>
    <g id="icon-zhcx" stroke="none" stroke-width="1" fill="none" fill-rule="evenodd">
        <g id="ic/w/tv_w">
            <mask id="mask-2" fill="white">
                <use xlink:href="#path-1"></use>
            </mask>
            <use id="Combined-Shape" fill="#000000" fill-rule="nonzero" xlink:href="#path-1"></use>
            <g id="Fill/Color/White/Opacity_100%" mask="url(#mask-2)" fill="#FFFFFF" fill-rule="evenodd">
                <rect id="Fill/Color/White/Opacity-100%" x="0" y="0" width="80" height="80"></rect>
            </g>
        </g>
    </g>
</svg>