<svg id="icon-index-refresh" xmlns="http://www.w3.org/2000/svg" width="27.86" height="27.86" viewBox="0 0 27.86 27.86">
  <path id="路径_17544" data-name="路径 17544" d="M24.865,5.883a1.1,1.1,0,0,1-1.033,1.1l-.064,0H19.38a1.1,1.1,0,0,1-.064-2.2l.064,0H21.2A11.615,11.615,0,0,0,13.9,2.206a11.734,11.734,0,0,0-11.7,11.766,11.894,11.894,0,0,0,.257,2.464A1.1,1.1,0,1,1,.3,16.9,14.1,14.1,0,0,1,0,13.972,13.881,13.881,0,0,1,22.671,3.138V1.47A1.1,1.1,0,0,1,23.7.369l.064,0a1.1,1.1,0,0,1,1.1,1.038l0,.065Z" transform="translate(0 0)" fill="#3b6aff"/>
  <path id="路径_17545" data-name="路径 17545" d="M127.319,351.625a13.881,13.881,0,0,1-22.725,10.791v1.711a1.1,1.1,0,0,1-1.033,1.1l-.064,0a1.1,1.1,0,0,1-1.1-1.038l0-.065v-4.412a1.1,1.1,0,0,1,1.033-1.1l.064,0h4.388a1.1,1.1,0,0,1,.064,2.2l-.064,0h-1.768a11.614,11.614,0,0,0,7.306,2.574,11.734,11.734,0,0,0,11.7-11.766,11.882,11.882,0,0,0-.257-2.464,1.1,1.1,0,1,1,2.146-.46A14.1,14.1,0,0,1,127.319,351.625Z" transform="translate(-99.458 -337.737)" fill="#3b6aff"/>
</svg>
