<?xml version="1.0" encoding="UTF-8"?>
<svg width="80px" height="80px" viewBox="0 0 80 80" version="1.1" xmlns="http://www.w3.org/2000/svg" xmlns:xlink="http://www.w3.org/1999/xlink">
    <!-- Generator: Sketch 52.6 (67491) - http://www.bohemiancoding.com/sketch -->
    <title>icon-zhyw</title>
    <desc>Created with Sketch.</desc>
    <defs>
        <path d="M61.7333174,22 L19.2666826,22 C17.4972275,22 16,23.424512 16,25.1079766 L16,54.892069 C16,56.5755335 17.4972275,58 19.2666826,58 L61.7333174,58 C63.5027725,58 65,56.575488 65,54.892069 L65,25.1079766 C65,23.424512 63.5027725,22.0000455 61.7333174,22.0000455 L61.7333174,22 Z M51.5,30 C54.2631396,30 56.5,32.2368141 56.5,35 C56.5,37.7631859 54.2631396,40 51.4999537,40 C48.7368141,40 46.5,37.7631396 46.5,34.9999537 C46.5,32.2367678 48.7368141,30 51.5,30 Z M33.8474847,46.7727101 C33.8488045,47.0986192 33.7235544,47.4115721 33.4995664,47.6420266 C33.2755785,47.8724811 32.9714071,48.0013473 32.6546431,47.9999894 L23.2445203,47.9999894 C22.9277563,48.0013473 22.6235849,47.8724811 22.399597,47.6420266 C22.175609,47.4115721 22.0503589,47.0986192 22.0516787,46.7727101 L22.0516787,46.2272899 C22.0503589,45.9013808 22.175609,45.5884279 22.399597,45.3579734 C22.6235849,45.1275189 22.9277563,44.9986527 23.2445203,45.0000106 L32.7872535,45.0000106 C33.1040175,44.9986527 33.4081889,45.1275189 33.6321769,45.3579734 C33.8561648,45.5884279 33.981415,45.9013808 33.9800952,46.2272899 L33.9800952,46.7727101 L33.8474847,46.7727101 Z M36.8958941,39.636368 C36.8958941,40.454576 36.233168,41 35.5704886,41 L23.376991,41 C22.5817943,41 22.0516321,40.318184 22.0516321,39.636368 L22.0516321,39.363632 C22.0516321,38.545424 22.7143115,38 23.376991,38 L35.5705352,38 C36.3657319,38 36.8958941,38.681816 36.8958941,39.363632 L36.8958941,39.636368 Z M38.3538168,34 L23.5095548,34 C22.7143115,34 22.0515855,33.3181949 22.0515855,32.4999521 C22.0515855,31.6818051 22.7143115,31 23.5095548,31 L38.3538168,31 C39.1490135,31 39.811693,31.6818051 39.811693,32.5 C39.811693,33.3181949 39.1490135,34 38.3538168,34 Z M59.5207535,48.9253663 C59.5220685,49.2107373 59.3972735,49.4847636 59.1740996,49.6865531 C58.9509257,49.8883425 58.6478597,50.0011797 58.3322468,49.9999907 L44.5984953,49.9999907 C44.2828824,50.0011797 43.9798164,49.8883425 43.7566425,49.6865531 C43.5334686,49.4847636 43.4086736,49.2107373 43.4099886,48.9253663 L43.4099886,45.2238731 C43.4099886,43.4328605 44.9946487,42 46.9755086,42 L56.0874084,42 C58.0682219,42 59.6529284,43.4328605 59.6529284,45.2238731 L59.6529284,48.9253663 L59.5207535,48.9253663 Z" id="path-1"></path>
        <filter x="-5.1%" y="-6.9%" width="110.2%" height="113.9%" filterUnits="objectBoundingBox" id="filter-3">
            <feGaussianBlur stdDeviation="1.5" in="SourceAlpha" result="shadowBlurInner1"></feGaussianBlur>
            <feOffset dx="0" dy="2" in="shadowBlurInner1" result="shadowOffsetInner1"></feOffset>
            <feComposite in="shadowOffsetInner1" in2="SourceAlpha" operator="arithmetic" k2="-1" k3="1" result="shadowInnerInner1"></feComposite>
            <feColorMatrix values="0 0 0 0 0   0 0 0 0 0.0862745098   0 0 0 0 0.2  0 0 0 0.25 0" type="matrix" in="shadowInnerInner1"></feColorMatrix>
        </filter>
    </defs>
    <g id="icon-zhyw" stroke="none" stroke-width="1" fill="none" fill-rule="evenodd">
        <g id="ic/w/card_w-2">
            <mask id="mask-2" fill="white">
                <use xlink:href="#path-1"></use>
            </mask>
            <g id="Shape" fill="black" fill-opacity="1">
                <use filter="url(#filter-3)" xlink:href="#path-1"></use>
            </g>
            <g id="Fill/Color/White/Opacity_100%" mask="url(#mask-2)" fill="#FFFFFF" fill-rule="evenodd">
                <rect id="Fill/Color/White/Opacity-100%" x="0" y="0" width="80" height="80"></rect>
            </g>
        </g>
    </g>
</svg>