<?xml version="1.0" encoding="UTF-8"?>
<svg width="80px" height="80px" viewBox="0 0 80 80" version="1.1" xmlns="http://www.w3.org/2000/svg" xmlns:xlink="http://www.w3.org/1999/xlink">
    <!-- Generator: Sketch 51 (57462) - http://www.bohemiancoding.com/sketch -->
    <title>ic/w/user_remove_w</title>
    <desc>Created with Sketch.</desc>
    <defs>
        <path d="M56.4142136,50.5857864 L53.5857864,47.7573593 L52.1715729,49.1715729 L55,52 L52.1715729,54.8284271 L53.5857864,56.2426407 L56.4142136,53.4142136 L59.2426407,56.2426407 L60.6568542,54.8284271 L57.8284271,52 L60.6568542,49.1715729 L59.2426407,47.7573593 L56.4142136,50.5857864 Z M47.7471812,41.9550655 C44.8485445,44.3393248 43,47.953787 43,52 C43,55.0170569 44.0277783,57.7940633 45.7523156,60 L23.4426818,60 C21.9374545,60 20.5903182,59.0125514 20.0908182,57.5406622 L20,57.2756546 L20,48.3280675 C20,46.6502489 21.1570909,44.916728 22.6942727,44.2972517 C22.9145909,44.1976628 27.3747727,42.2463969 32.4454545,41.1475438 C30.2641364,39.4460939 28.8514091,36.7943302 28.8514091,33.8117291 L28.8514091,28.2853928 C28.8514091,23.1658515 32.9954091,19 38.0896364,19 C40.0546835,19.0010425 41.9673584,19.6359926 43.5454545,20.8111664 C45.9162994,22.559065 47.3194173,25.3329284 47.3261818,28.2853928 L47.3261818,33.8117291 C47.3247256,35.7694439 46.7027287,37.6759298 45.5501818,39.255356 C45.0792727,39.9052153 44.5360455,40.5010604 43.9154545,41.0091322 C45.2443874,41.2744576 46.5426366,41.6055639 47.7471812,41.9550655 Z M49.3431458,59.0710678 C45.4379028,55.1658249 45.4379028,48.8341751 49.3431458,44.9289322 C53.2483887,41.0236893 59.5800385,41.0236893 63.4852814,44.9289322 C67.3905243,48.8341751 67.3905243,55.1658249 63.4852814,59.0710678 C59.5800385,62.9763107 53.2483887,62.9763107 49.3431458,59.0710678 Z" id="path-1"></path>
    </defs>
    <g id="ic/w/user_remove_w" stroke="none" stroke-width="1" fill="none" fill-rule="evenodd">
        <mask id="mask-2" fill="white">
            <use xlink:href="#path-1"></use>
        </mask>
        <g id="Combined-Shape" fill-rule="nonzero"></g>
        <g id="Fill/Color/White/Opacity_100%" mask="url(#mask-2)" fill="#FFFFFF">
            <g transform="translate(-0.000000, 0.000000)" id="Fill/Color/White/Opacity-100%">
                <rect x="0" y="0" width="82" height="82"></rect>
            </g>
        </g>
    </g>
</svg>