<?xml version="1.0" encoding="UTF-8"?>
<svg width="286px" height="80px" viewBox="0 0 286 80" version="1.1" xmlns="http://www.w3.org/2000/svg" xmlns:xlink="http://www.w3.org/1999/xlink">
    <!-- Generator: Sketch 52.4 (67378) - http://www.bohemiancoding.com/sketch -->
    <title>contactNumber</title>
    <desc>Created with Sketch.</desc>
    <defs>
        <path d="M1.42089844,28.296875 C2.37793447,28.2089839 3.31298372,27.9672871 4.22607422,27.5717773 C5.13916472,27.1762676 5.9887656,26.6757843 6.77490234,26.0703125 C7.56103909,25.4648407 8.25927429,24.7714883 8.86962891,23.9902344 C9.47998352,23.2089805 9.96093574,22.3935589 10.3125,21.5439453 C9.87304468,21.7294931 9.38720969,21.875976 8.85498047,21.9833984 C8.32275125,22.0908208 7.73437822,22.1445312 7.08984375,22.1445312 C6.13280771,22.1445312 5.27588269,21.9711931 4.51904297,21.6245117 C3.76220325,21.2778303 3.11523706,20.8188505 2.578125,20.2475586 C2.04101294,19.6762667 1.63086079,19.019535 1.34765625,18.2773438 C1.06445171,17.5351525 0.922851562,16.7685586 0.922851562,15.9775391 C0.922851562,15.020503 1.11816211,14.1220745 1.50878906,13.2822266 C1.89941602,12.4423786 2.43407864,11.7099641 3.11279297,11.0849609 C3.7915073,10.4599578 4.58739778,9.96679868 5.50048828,9.60546875 C6.41357878,9.24413882 7.38769014,9.06347656 8.42285156,9.06347656 C9.45801299,9.06347656 10.4272416,9.26855264 11.3305664,9.67871094 C12.2338912,10.0888692 13.0224576,10.6479457 13.6962891,11.355957 C14.3701206,12.0639684 14.8999004,12.8915968 15.2856445,13.8388672 C15.6713886,14.7861375 15.8642578,15.8017524 15.8642578,16.8857422 C15.8642578,18.0380917 15.6909197,19.1489204 15.3442383,20.2182617 C14.9975569,21.287603 14.5117219,22.2885696 13.8867188,23.2211914 C13.2617156,24.1538133 12.50977,25.0009728 11.6308594,25.7626953 C10.7519487,26.5244179 9.77783738,27.1787082 8.70849609,27.7255859 C7.63915481,28.2724637 6.48926396,28.6948227 5.25878906,28.9926758 C4.02831416,29.2905288 2.74903008,29.4394531 1.42089844,29.4394531 L1.42089844,28.296875 Z M8.5546875,20.1816406 C8.73046963,20.1816406 8.91845603,20.1572268 9.11865234,20.1083984 C9.31884866,20.0595701 9.52148335,19.9936528 9.7265625,19.9106445 C9.93164165,19.8276363 10.131835,19.7324224 10.3271484,19.625 C10.5224619,19.5175776 10.7031242,19.4003913 10.8691406,19.2734375 C10.9375003,18.8828105 10.9936521,18.4458032 11.0375977,17.9624023 C11.0815432,17.4790015 11.1035156,17.002932 11.1035156,16.5341797 C11.1035156,15.7431601 11.02295,14.9960973 10.8618164,14.2929688 C10.7006828,13.5898402 10.4760757,12.974612 10.1879883,12.4472656 C9.8999009,11.9199192 9.56543159,11.5024429 9.18457031,11.1948242 C8.80370903,10.8872055 8.39355688,10.7333984 7.95410156,10.7333984 C7.52441191,10.7333984 7.15332187,10.8505848 6.84082031,11.0849609 C6.52831875,11.3193371 6.27197366,11.6269512 6.07177734,12.0078125 C5.87158103,12.3886738 5.72509812,12.8232397 5.63232422,13.3115234 C5.53955032,13.7998071 5.49316406,14.2929663 5.49316406,14.7910156 C5.49316406,15.5722695 5.55175723,16.2924772 5.66894531,16.9516602 C5.7861334,17.6108431 5.96923704,18.1796851 6.21826172,18.6582031 C6.4672864,19.1367211 6.78466604,19.5102526 7.17041016,19.7788086 C7.55615427,20.0473646 8.01757544,20.1816406 8.5546875,20.1816406 Z M30.4248047,12.5644531 L24.3310547,12.5644531 L23.3349609,14.4101562 C24.4287164,14.5175787 25.4833934,14.7763651 26.4990234,15.1865234 C27.5146535,15.5966817 28.4106406,16.1337857 29.1870117,16.7978516 C29.9633828,17.4619174 30.5859352,18.2407182 31.0546875,19.1342773 C31.5234398,20.0278365 31.7578125,21.0165961 31.7578125,22.1005859 C31.7578125,22.7744174 31.6503917,23.423825 31.4355469,24.0488281 C31.2207021,24.6738312 30.9155293,25.2597629 30.5200195,25.8066406 C30.1245097,26.3535184 29.6484403,26.8491189 29.0917969,27.293457 C28.5351535,27.7377952 27.9174839,28.1186508 27.2387695,28.4360352 C26.5600552,28.7534196 25.830082,28.9999991 25.0488281,29.1757812 C24.2675742,29.3515634 23.4521527,29.4394531 22.6025391,29.4394531 C21.9580046,29.4394531 21.3696316,29.3784186 20.8374023,29.2563477 C20.3051731,29.1342767 19.8486347,28.9707042 19.4677734,28.765625 C19.0869122,28.5605458 18.791505,28.3237318 18.581543,28.0551758 C18.371581,27.7866198 18.2666016,27.5058608 18.2666016,27.2128906 C18.2666016,26.9785145 18.3251947,26.7758798 18.4423828,26.6049805 C18.5595709,26.4340812 18.7182607,26.292481 18.918457,26.1801758 C19.1186533,26.0678705 19.3457019,25.9824222 19.5996094,25.9238281 C19.8535169,25.8652341 20.1171861,25.8359375 20.390625,25.8359375 C20.8203146,25.8359375 21.1962875,25.9067376 21.5185547,26.0483398 C21.8408219,26.1899421 22.1508774,26.3486319 22.4487305,26.5244141 C22.7465835,26.7001962 23.0493149,26.858886 23.3569336,27.0004883 C23.6645523,27.1420906 24.0136699,27.2128906 24.4042969,27.2128906 C24.9121119,27.2128906 25.38574,27.1005871 25.8251953,26.8759766 C26.2646506,26.6513661 26.650389,26.3486347 26.9824219,25.9677734 C27.3144548,25.5869122 27.5756826,25.1401393 27.7661133,24.6274414 C27.9565439,24.1147435 28.0517578,23.5654326 28.0517578,22.9794922 C28.0517578,22.1591756 27.8271507,21.4169955 27.3779297,20.7529297 C26.9287087,20.0888639 26.2890667,19.5224633 25.4589844,19.0537109 C24.6289021,18.5849586 23.6279355,18.2236341 22.4560547,17.9697266 C21.2841738,17.715819 19.9804759,17.5888672 18.5449219,17.5888672 L22.96875,9.50292969 L31.9775391,9.50292969 L30.4248047,12.5644531 Z M47.1679688,12.5644531 L41.0742188,12.5644531 L40.078125,14.4101562 C41.1718805,14.5175787 42.2265574,14.7763651 43.2421875,15.1865234 C44.2578176,15.5966817 45.1538047,16.1337857 45.9301758,16.7978516 C46.7065469,17.4619174 47.3290992,18.2407182 47.7978516,19.1342773 C48.2666039,20.0278365 48.5009766,21.0165961 48.5009766,22.1005859 C48.5009766,22.7744174 48.3935558,23.423825 48.1787109,24.0488281 C47.9638661,24.6738312 47.6586934,25.2597629 47.2631836,25.8066406 C46.8676738,26.3535184 46.3916043,26.8491189 45.8349609,27.293457 C45.2783175,27.7377952 44.6606479,28.1186508 43.9819336,28.4360352 C43.3032193,28.7534196 42.5732461,28.9999991 41.7919922,29.1757812 C41.0107383,29.3515634 40.1953167,29.4394531 39.3457031,29.4394531 C38.7011687,29.4394531 38.1127956,29.3784186 37.5805664,29.2563477 C37.0483372,29.1342767 36.5917988,28.9707042 36.2109375,28.765625 C35.8300762,28.5605458 35.534669,28.3237318 35.324707,28.0551758 C35.114745,27.7866198 35.0097656,27.5058608 35.0097656,27.2128906 C35.0097656,26.9785145 35.0683588,26.7758798 35.1855469,26.6049805 C35.302735,26.4340812 35.4614248,26.292481 35.6616211,26.1801758 C35.8618174,26.0678705 36.0888659,25.9824222 36.3427734,25.9238281 C36.596681,25.8652341 36.8603502,25.8359375 37.1337891,25.8359375 C37.5634787,25.8359375 37.9394515,25.9067376 38.2617188,26.0483398 C38.583986,26.1899421 38.8940415,26.3486319 39.1918945,26.5244141 C39.4897476,26.7001962 39.7924789,26.858886 40.1000977,27.0004883 C40.4077164,27.1420906 40.756834,27.2128906 41.1474609,27.2128906 C41.655276,27.2128906 42.1289041,27.1005871 42.5683594,26.8759766 C43.0078147,26.6513661 43.393553,26.3486347 43.7255859,25.9677734 C44.0576188,25.5869122 44.3188467,25.1401393 44.5092773,24.6274414 C44.699708,24.1147435 44.7949219,23.5654326 44.7949219,22.9794922 C44.7949219,22.1591756 44.5703147,21.4169955 44.1210938,20.7529297 C43.6718728,20.0888639 43.0322307,19.5224633 42.2021484,19.0537109 C41.3720662,18.5849586 40.3710996,18.2236341 39.1992188,17.9697266 C38.0273379,17.715819 36.72364,17.5888672 35.2880859,17.5888672 L39.7119141,9.50292969 L48.7207031,9.50292969 L47.1679688,12.5644531 Z M55.0341797,18.5556641 C55.7470739,18.4873043 56.4013642,18.3359387 56.9970703,18.1015625 C57.5927764,17.8671863 58.1030252,17.5717791 58.527832,17.215332 C58.9526388,16.8588849 59.2822254,16.4414086 59.5166016,15.9628906 C59.7509777,15.4843726 59.8681641,14.9619169 59.8681641,14.3955078 C59.8681641,14.0341779 59.8071295,13.6948258 59.6850586,13.3774414 C59.5629877,13.060057 59.3872082,12.7841809 59.1577148,12.5498047 C58.9282215,12.3154285 58.6572281,12.1298835 58.3447266,11.9931641 C58.032225,11.8564446 57.6855488,11.7880859 57.3046875,11.7880859 C57.0312486,11.7880859 56.7309587,11.8564446 56.4038086,11.9931641 C56.0766585,12.1298835 55.7519547,12.3178699 55.4296875,12.5571289 C55.1074203,12.7963879 54.7973648,13.0747054 54.4995117,13.3920898 C54.2016587,13.7094742 53.9453136,14.0488263 53.7304688,14.4101562 L51.9873047,13.6191406 C52.2216809,12.9843718 52.529295,12.391116 52.9101562,11.8393555 C53.2910175,11.2875949 53.7475559,10.8066427 54.2797852,10.3964844 C54.8120144,9.98632607 55.4174771,9.66162229 56.0961914,9.42236328 C56.7749057,9.18310427 57.5341755,9.06347656 58.3740234,9.06347656 C59.1748087,9.06347656 59.9243129,9.17333875 60.6225586,9.39306641 C61.3208043,9.61279407 61.9311497,9.91552542 62.4536133,10.3012695 C62.9760768,10.6870136 63.386229,11.1435521 63.684082,11.6708984 C63.9819351,12.1982448 64.1308594,12.7744109 64.1308594,13.3994141 C64.1308594,13.6728529 64.0649421,13.9780257 63.9331055,14.3149414 C63.8012689,14.6518572 63.6157239,14.9985334 63.3764648,15.3549805 C63.1372058,15.7114276 62.8540055,16.0654279 62.5268555,16.4169922 C62.1997054,16.7685564 61.8408223,17.0957016 61.4501953,17.3984375 C61.9775417,17.6328137 62.4707008,17.935545 62.9296875,18.3066406 C63.3886742,18.6777362 63.784178,19.0878884 64.1162109,19.5371094 C64.4482438,19.9863304 64.7094717,20.4599584 64.8999023,20.9580078 C65.090333,21.4560572 65.1855469,21.9540991 65.1855469,22.4521484 C65.1855469,23.6240293 64.9462915,24.6469683 64.4677734,25.5209961 C63.9892554,26.3950239 63.3325237,27.1225557 62.4975586,27.7036133 C61.6625935,28.2846709 60.6787166,28.7192368 59.5458984,29.0073242 C58.4130803,29.2954116 57.1875066,29.4394531 55.8691406,29.4394531 C54.570306,29.4394531 53.5546912,29.2636736 52.8222656,28.9121094 C52.0898401,28.5605451 51.7236328,28.0966826 51.7236328,27.5205078 C51.7236328,27.2470689 51.801757,27.0200204 51.9580078,26.8393555 C52.1142586,26.6586905 52.3071278,26.5122076 52.5366211,26.3999023 C52.7661144,26.2875971 53.0175768,26.2070315 53.2910156,26.1582031 C53.5644545,26.1093748 53.8183582,26.0849609 54.0527344,26.0849609 C54.5507837,26.0849609 54.9853497,26.155761 55.3564453,26.2973633 C55.7275409,26.4389656 56.0644516,26.595214 56.3671875,26.7661133 C56.6699234,26.9370126 56.9506823,27.093261 57.2094727,27.2348633 C57.468263,27.3764656 57.7294909,27.4472656 57.9931641,27.4472656 C58.5205104,27.4472656 58.9868144,27.3496104 59.3920898,27.1542969 C59.7973653,26.9589834 60.1391588,26.6977555 60.4174805,26.3706055 C60.6958022,26.0434554 60.905761,25.6674826 61.0473633,25.2426758 C61.1889656,24.817869 61.2597656,24.3759789 61.2597656,23.9169922 C61.2597656,23.3212861 61.1352552,22.7695338 60.8862305,22.2617188 C60.6372058,21.7539037 60.2563502,21.314455 59.7436523,20.9433594 C59.2309545,20.5722638 58.5839883,20.2792979 57.8027344,20.0644531 C57.0214805,19.8496083 56.0986381,19.7421875 55.0341797,19.7421875 L55.0341797,18.5556641 Z M75.1025391,9.06347656 C76.0693408,9.06347656 76.9580038,9.17822151 77.7685547,9.40771484 C78.5791056,9.63720818 79.2773408,9.95458782 79.8632812,10.3598633 C80.4492217,10.7651387 80.9082015,11.2485323 81.2402344,11.8100586 C81.5722673,12.3715848 81.7382812,12.9794889 81.7382812,13.6337891 C81.7382812,14.0048847 81.6284191,14.4028299 81.4086914,14.8276367 C81.1889637,15.2524435 80.8935565,15.6723612 80.5224609,16.0874023 C80.1513653,16.5024435 79.7167994,16.8979473 79.21875,17.2739258 C78.7207006,17.6499042 78.1884794,17.974608 77.6220703,18.2480469 C78.4033242,18.7460962 79.0820284,19.2612278 79.6582031,19.793457 C80.2343779,20.3256863 80.7128887,20.8505833 81.09375,21.3681641 C81.4746113,21.8857448 81.7578116,22.3813453 81.9433594,22.8549805 C82.1289072,23.3286156 82.2216797,23.7509747 82.2216797,24.1220703 C82.2216797,24.8447302 82.0410174,25.5283171 81.6796875,26.1728516 C81.3183576,26.817386 80.8276398,27.3813452 80.2075195,27.8647461 C79.5873992,28.3481469 78.8647502,28.7314439 78.0395508,29.0146484 C77.2143513,29.297853 76.3378953,29.4394531 75.4101562,29.4394531 C74.4238232,29.4394531 73.5131878,29.3125013 72.6782227,29.0585938 C71.8432575,28.8046862 71.1206085,28.4555686 70.5102539,28.0112305 C69.8998993,27.5668923 69.4238298,27.0419952 69.0820312,26.4365234 C68.7402327,25.8310517 68.5693359,25.1718786 68.5693359,24.4589844 C68.5693359,23.8925753 68.6669912,23.3652368 68.8623047,22.8769531 C69.0576182,22.3886694 69.3310529,21.9296896 69.6826172,21.5 C70.0341814,21.0703104 70.4565405,20.6601582 70.949707,20.2695312 C71.4428736,19.8789043 71.9921845,19.493166 72.5976562,19.1123047 C71.8945277,18.6044896 71.3037133,18.1455099 70.8251953,17.7353516 C70.3466773,17.3251933 69.960939,16.9223653 69.6679688,16.5268555 C69.3749985,16.1313457 69.1650397,15.7236349 69.0380859,15.3037109 C68.9111322,14.883787 68.8476562,14.4150417 68.8476562,13.8974609 C68.8476562,13.2333951 69.0112288,12.6084014 69.3383789,12.0224609 C69.665529,11.4365205 70.1123019,10.9238303 70.6787109,10.484375 C71.24512,10.0449197 71.9091759,9.69824346 72.6708984,9.44433594 C73.432621,9.19042842 74.2431598,9.06347656 75.1025391,9.06347656 Z M72.7587891,13.1064453 C72.7587891,13.5068379 72.8466788,13.8876935 73.0224609,14.2490234 C73.1982431,14.6103534 73.4301743,14.9521468 73.7182617,15.2744141 C74.0063491,15.5966813 74.3334943,15.9042954 74.699707,16.1972656 C75.0659198,16.4902358 75.4394512,16.7685534 75.8203125,17.0322266 C76.1328141,16.7587877 76.413573,16.4755874 76.6625977,16.1826172 C76.9116223,15.889647 77.1240226,15.5795915 77.2998047,15.2524414 C77.4755868,14.9252913 77.6098628,14.5761737 77.7026367,14.2050781 C77.7954106,13.8339825 77.8417969,13.4335959 77.8417969,13.0039062 C77.8417969,12.681639 77.7807623,12.3837904 77.6586914,12.1103516 C77.5366205,11.8369127 77.3583996,11.5976573 77.1240234,11.3925781 C76.8896473,11.187499 76.6088884,11.0263678 76.2817383,10.9091797 C75.9545882,10.7919916 75.5859396,10.7333984 75.1757812,10.7333984 C74.8144513,10.7333984 74.4848648,10.7993157 74.1870117,10.9311523 C73.8891587,11.0629889 73.635255,11.2387684 73.425293,11.4584961 C73.215331,11.6782238 73.0517584,11.9321275 72.9345703,12.2202148 C72.8173822,12.5083022 72.7587891,12.8037094 72.7587891,13.1064453 Z M74.2089844,20.3720703 C73.9160142,20.6748062 73.6694346,20.9946272 73.4692383,21.331543 C73.269042,21.6684587 73.103028,22.0053694 72.9711914,22.3422852 C72.8393548,22.6792009 72.7441409,23.0112288 72.6855469,23.3383789 C72.6269528,23.665529 72.5976562,23.9658189 72.5976562,24.2392578 C72.5976562,24.7275415 72.6733391,25.1865213 72.824707,25.6162109 C72.976075,26.0459006 73.181151,26.4218734 73.4399414,26.7441406 C73.6987318,27.0664079 74.0014631,27.3203116 74.3481445,27.5058594 C74.694826,27.6914072 75.0683574,27.7841797 75.46875,27.7841797 C75.8789083,27.7841797 76.2622052,27.7207038 76.6186523,27.59375 C76.9750994,27.4667962 77.2900377,27.2983409 77.5634766,27.0883789 C77.8369154,26.8784169 78.051757,26.6318374 78.2080078,26.3486328 C78.3642586,26.0654283 78.4423828,25.7626969 78.4423828,25.4404297 C78.4423828,25.1767565 78.3935552,24.8959976 78.2958984,24.5981445 C78.1982417,24.3002915 78.0688485,24.0122084 77.9077148,23.7338867 C77.7465812,23.455565 77.5585948,23.1918958 77.34375,22.9428711 C77.1289052,22.6938464 76.904298,22.4814462 76.6699219,22.3056641 L74.2089844,20.3720703 Z" id="path-1"></path>
    </defs>
    <g id="Page-1" stroke="none" stroke-width="1" fill="none" fill-rule="evenodd">
        <g id="contactNumber">
            <path d="M0,0 L286,0 C286,44.18278 250.18278,80 206,80 L0,80 L0,0 Z" id="Rectangle-6-Copy" fill-opacity="0.25" fill="#001633" transform="translate(143.000000, 40.000000) scale(-1, 1) translate(-143.000000, -40.000000) "></path>
            <g id="客服-(1)-copy" transform="translate(91.000000, 9.000000)">
                <path d="M25.9851731,51 L137,51 C140.865993,51 144,47.8659932 144,44 L144,29 C144,25.1340068 140.865993,22 137,22 L115.540365,22 L115.540365,21 L137,21 C141.418278,21 145,24.581722 145,29 L145,44 C145,48.418278 141.418278,52 137,52 L23,52 L25.9851731,51 Z M25.9851731,51 L137,51 C140.865993,51 144,47.8659932 144,44 L144,29 C144,25.1340068 140.865993,22 137,22 L115.540365,22 L115.540365,21 L137,21 C141.418278,21 145,24.581722 145,29 L145,44 C145,48.418278 141.418278,52 137,52 L23,52 L25.9851731,51 Z" id="Rectangle-9" fill="#FFFFFF" fill-rule="nonzero"></path>
                <g id="95536" transform="translate(50.000000, 18.000000)">
                    <g id="95538">
                        <use fill="#000000" xlink:href="#path-1"></use>
                        <use fill="#FFFFFF" xlink:href="#path-1"></use>
                    </g>
                </g>
                <g id="客户热线" transform="translate(49.000000, 0.000000)" fill="#FFFFFF" font-family="PingFangSC-Regular, PingFang SC" font-size="12" font-weight="normal">
                    <text id="客户热">
                        <tspan x="0" y="13">客户热</tspan>
                    </text>
                    <text id="线">
                        <tspan x="39.857142" y="13">线</tspan>
                    </text>
                </g>
                <path d="M24.4633205,44.5384615 C21.2507136,46.8745567 19.1677595,45.0560975 18.3474903,44.5384615 C18.5061644,44.4280421 17.8330887,44.4406648 17.1243243,44.5384615 C17.0137325,45.2952448 17.0262347,45.9763842 17.1243243,46.7948718 C18.1769722,47.0932043 19.6046554,47.9230769 20.7938224,47.9230769 C22.5509424,47.9230769 23.8950019,47.5378383 25.6864865,46.7948718 C25.7386143,46.1014865 25.8242812,45.4255821 25.6864865,44.5384615 C25.0999805,44.485823 24.4269049,44.4001546 24.4633205,44.5384615 Z M13.1286486,32.6923077 C12.754041,32.6923077 11.987027,33.6012308 11.987027,35.4 L11.987027,36.7538462 C11.987027,38.5525539 12.7540411,39.4615385 13.1286486,39.4615385 C14.6448778,39.4615385 15.4118919,38.5525539 15.4118919,36.7538462 L15.4118919,35.4 C15.4118919,33.6012923 14.6448778,32.6923077 13.1286486,32.6923077 Z M29.6821622,32.6923077 C28.165933,32.6923077 27.3989189,33.6012308 27.3989189,35.4 L27.3989189,36.7538462 C27.3989189,38.5525539 28.165933,39.4615385 29.6821622,39.4615385 C30.0567697,39.4615385 30.8237838,38.5525539 30.8237838,36.7538462 L30.8237838,35.4 C30.8237838,33.6012923 30.0567697,32.6923077 29.6821622,32.6923077 Z M40.3644788,28.5555556 C40.4324835,17.891027 31.5414452,9.00000005 22.0169884,9 C11.2694196,8.99999995 2.37838137,17.891027 2.44633205,28.5555556 C1.07032566,28.027027 0,29.0972433 0,31 L0,38.3333333 C0,40.0377838 1.07032566,41.1081081 2.44633205,40.7777778 L3.66949807,40.7777778 C4.87562776,41.1081081 5.94595342,40.0377838 6.11583012,38.3333333 L6.11583012,33.4444444 C15.2774246,33.4684865 21.7668923,26.7152433 24.4633205,22.4444444 C26.9217097,24.1708649 32.1591758,28.3064865 36.6949807,28.5555556 C37.0106413,29.4820541 36.8649114,29.927027 36.6949807,31 L36.6949807,38.3333333 C36.8649114,39.2977838 37.0749657,39.8138919 37.9181467,40.7777778 C36.8292357,44.5913514 33.0330688,48.134973 25.6864865,50.5555556 C25.8975462,50.0039459 25.2043561,49.4324324 24.4633205,49.3333333 L18.3474903,49.3333333 C17.4513733,49.4324324 16.6486696,50.2351351 17.1243243,51.7777778 C16.6486697,52.1972973 17.4513734,53 18.3474903,53 L24.4633205,53 C25.0371127,53 25.608735,52.634054 25.6864865,51.7777778 C33.3598259,49.3917297 37.5936151,45.6579459 37.9181467,40.7777778 C38.73713,41.0554595 38.9832925,41.1081081 39.1413127,40.7777778 L40.3644788,40.7777778 C41.7404852,41.1081081 42.8108108,40.0377838 42.8108108,38.3333333 L42.8108108,31 C42.8108649,29.0972432 41.7405392,28.027027 40.3644788,28.5555556 Z" id="Shape" fill="#FFFFFF" fill-rule="nonzero"></path>
            </g>
        </g>
    </g>
</svg>