<svg xmlns="http://www.w3.org/2000/svg" xmlns:xlink="http://www.w3.org/1999/xlink" width="234.74" height="294.76" viewBox="0 0 234.74 294.76">
  <defs>
    <linearGradient id="linear-gradient" x1="-0.027" y1="-0.037" x2="1.027" y2="1.023" gradientUnits="objectBoundingBox">
      <stop offset="0" stop-color="#6c5cff"/>
      <stop offset="1" stop-color="#ff7ec3"/>
    </linearGradient>
  </defs>
  <g id="icon-upscreen-video-load" transform="translate(-103.654 -2.276)">
    <path id="路径_13134" data-name="路径 13134" d="M331.867,253.242c-7-16.945-15.64-31.408-32.122-46.542a117.37,117.37,0,1,0-157.443,0c-16.482,15.135-25.1,29.6-32.122,46.542-8.453,20.406-4.131,30.786.984,35.9,6.122,6.125,13.528,8.643,22.63,7.706,7.2-.744,15.025-3.568,24.088-6.842,16.889-6.1,32.912-9.691,63.141-9.691s46.253,3.592,63.141,9.691c9.063,3.274,16.889,6.1,24.088,6.842a35.215,35.215,0,0,0,3.6.19,25.763,25.763,0,0,0,19.026-7.9c5.115-5.108,9.436-15.492.984-35.9ZM127.618,159.1a101.435,101.435,0,1,1,165.1,32.237q-2.618,2.618-5.4,5.022a100.838,100.838,0,0,1-26.828,16.709q-3.868,1.634-7.836,2.938-2.561.844-5.165,1.547a102.429,102.429,0,0,1-52.9,0q-2.6-.707-5.165-1.547-3.968-1.3-7.836-2.938a100.839,100.839,0,0,1-26.842-16.729q-2.774-2.4-5.408-5A101.072,101.072,0,0,1,127.618,159.1Zm116.236,75.69a26.675,26.675,0,0,1-45.661,0A118.467,118.467,0,0,0,243.855,234.788ZM319.567,277.8c-5.385,5.385-11.734,3.711-29.966-2.874-17.109-6.179-35.546-10.641-68.576-10.641s-51.468,4.463-68.576,10.641c-18.232,6.585-24.581,8.259-29.966,2.874-1.467-1.464-2-7.589,2.487-18.456,6-14.5,13.719-28.043,30.148-42.595a116.663,116.663,0,0,0,36.325,16.482,32.01,32.01,0,0,0,59.165,0,116.664,116.664,0,0,0,36.325-16.482c16.428,14.551,24.139,28.09,30.148,42.595,4.5,10.887,3.955,17.015,2.487,18.476ZM221.024,66.3A53.35,53.35,0,1,1,183.3,81.921,53.35,53.35,0,0,1,221.024,66.3Zm0-8a61.353,61.353,0,1,0,61.353,61.353,61.353,61.353,0,0,0-61.353-61.353Z" transform="translate(0)" fill="url(#linear-gradient)"/>
    <path id="路径_13135" data-name="路径 13135" d="M465.858,305.9a38.386,38.386,0,1,0,19.673,19.673A44.824,44.824,0,0,0,465.858,305.9Z" transform="translate(-229.353 -221.404)" fill="#fafbff"/>
    <path id="路径_13137" data-name="路径 13137" d="M465.5,308.125c-.134-.808-.462-.938-1.421-1.483-17.965-10.226-37.472-2.228-46.226,10.569a33.549,33.549,0,0,0,2.619,41.135c.289.332.75.763,1.219.656s.511-.1.819-.76c16.128-34.675,34.151-41.74,42.105-48.367A1.8,1.8,0,0,0,465.5,308.125Z" transform="translate(-225.918 -217.199)" opacity="0.211" fill="url(#linear-gradient)"/>
    <path id="路径_13136" data-name="路径 13136" d="M352.16,234.667a53.493,53.493,0,1,1-53.493,53.493A53.492,53.492,0,0,1,352.16,234.667Zm0,26.746a26.746,26.746,0,1,0,26.746,26.746A26.747,26.747,0,0,0,352.16,261.413Z" transform="translate(-131.135 -168.534)" opacity="0.47" fill="url(#linear-gradient)"/>
    <circle id="椭圆_793" data-name="椭圆 793" cx="10.774" cy="10.774" r="10.774" transform="translate(209.782 28.1)" fill="#ff6767"/>
  </g>
</svg>
