<svg xmlns="http://www.w3.org/2000/svg" viewBox="0 0 36 36">
  <defs>
    <style>
      .cls-1 {
        fill: #009c96;
      }
    </style>
  </defs>
  <path id="农业银行" class="cls-1" d="M258.332,101.4a.763.763,0,0,1-.771-.642,37.272,37.272,0,0,1,0-3.79V91.638c0-.193-.064-1.285.064-1.285h3.92a16.259,16.259,0,0,1,.064,2.57V99.6c0,.257.129.771,0,.964a1.191,1.191,0,0,1-.129.45c-.193.385-.836.321-1.157.321-.707.064-1.285.064-1.992.064Zm5.72-10.664a17.974,17.974,0,0,1,13.432,16.51A18,18,0,1,1,255.119,90.8V100.7c0,1.092-.064,1.67,1.157,1.67.643,0,1.285-.064,1.928,0,1.093.064.9,1.028.9,1.927v4.111c-.386-.771-1.8-.45-2.442-.45h-2.314a.781.781,0,0,1-.771-.771V95.493a14.229,14.229,0,0,0-8.291,12.912,14.487,14.487,0,0,0,12.34,14.2v-7.516c0-.321.129-.707-.257-.707H255.44c-.578,0-1.735.193-1.864-.642a10.372,10.372,0,0,1,0-1.413v-4.24a.637.637,0,0,0,.514.707,15.153,15.153,0,0,0,2.956,0c.643,0,1.992-.321,2.185.578a7.826,7.826,0,0,1,0,1.735v2.827c0,.257,0,.257.193.385a2.143,2.143,0,0,0,.643,0v-3.662c0-.642-.257-1.927.771-1.927a23.7,23.7,0,0,1,3.021,0c.643,0,1.864.257,1.8-.771v3.79a5.627,5.627,0,0,0,0,1.8c.578,1.285-3.406.642-3.792.771-.257.064-.129-.064-.193.257-.064.128,0,.385,0,.514v7.452a14.354,14.354,0,0,0,3.985-27.174v10.279a5.2,5.2,0,0,0,0,1.413c0,.385-.193.771-.643.771a17.189,17.189,0,0,1-3.149,0c-.643,0-1.542-.257-1.864.45v-3.662c0-.642-.321-2.12.514-2.313.771-.257,3.406.514,3.535-.642a49.183,49.183,0,0,0,0-5.332V90.739Z" transform="translate(-241.518 -90.353)"/>
</svg>
