<svg xmlns="http://www.w3.org/2000/svg" width="41.041" height="41.028" viewBox="0 0 41.041 41.028">
  <path id="icon-bank-BJBANK-big北京银行" d="M20.352.358l-.525.026L19.3.409l-.513.037-.5.063-.5.064-.5.075-.5.088-.487.1-.488.113-.476.125-.476.137-.463.151-.464.149-.463.176-.451.188-.45.188-.451.212-.437.212-.438.226-.426.25-.426.25-.425.264-.413.275-.413.287-.4.3-.4.313-.4.325-.4.339-.377.338-.388.363-.376.363-.377.376-.351.388-.35.376-.339.4-.324.389-.3.4-.3.4-.288.413-.287.413-.264.426-.25.426-.238.426-.238.438-.212.438-.2.45-.2.451-.188.45-.162.464-.164.462-.15.464-.137.476-.124.476-.113.487-.1.489-.087.488-.076.5-.062.5-.051.514-.049.513-.026.513L.371,20.3l-.012.525.012.525.012.526.026.513.05.514.049.513.063.5.076.5.087.488.1.488.113.488.125.488.137.476.151.464.163.475.162.45.188.464.2.451.2.45.212.438.238.438.238.437.25.427.263.425.287.426.289.413.3.4.3.413.325.388.338.4.35.389.351.388.377.377.376.363.388.362.376.351.4.325.4.326.4.312.4.3.415.288.413.276.425.263.426.25.426.25.438.226.438.226.451.2.45.2.45.174.463.175.464.164.463.136.476.139.476.124.488.113.487.1.5.088.5.075.5.075.5.049.513.039.526.025.525.025h.526l.739-.012.726-.025.713-.064.714-.075.7-.1.677-.125.687-.15.664-.162.65-.2.652-.213.638-.238.626-.25.614-.287.614-.3.6-.325.589-.339.4-.249.388-.25.376-.251L33,37.5l.351-.25.325-.263.313-.263.3-.264.275-.275.276-.263.25-.277.238-.275.226-.287.212-.276.188-.287.187-.288.164-.287.15-.288.137-.287.125-.3.113-.3.087-.3.088-.3.062-.313.051-.3.037-.313.013-.313.012-.314-.012-.325-.013-.312-.038-.326-.049-.324L37,29.067l-.063-.276-.075-.25-.075-.263-.1-.25-.1-.238-.113-.238-.125-.237-.137-.226-.137-.226-.162-.226-.164-.212-.174-.2-.175-.2-.2-.2-.2-.2-.212-.188-.226-.174-.238-.176-.238-.174-.25-.164-.262-.161-.277-.152-.287-.162-.287-.137-.3-.139-.313-.136-.326-.125-.339-.125-.338-.126-.351-.113-.362-.113-.939-.324.3-.176.287-.188.276-.187.25-.2.237-.213.226-.211.2-.226.187-.238.175-.238.151-.25.15-.263.113-.264L32.122,20l.087-.275.062-.288.064-.3.026-.35.012-.326-.012-.339-.026-.338-.063-.325-.087-.325-.1-.313-.125-.326-.15-.313-.176-.313-.2-.313-.226-.3-.25-.3-.276-.3-.3-.288-.313-.288-.351-.3-.35-.287L29,13.228l-.376-.249-.388-.239-.4-.226-.415-.2-.425-.2-.438-.176-.45-.174-.464-.15-.476-.139-.487-.125-.5-.125-.514-.1-.526-.087-.6-.087-.6-.075-.626-.064-.626-.049-.639-.051-.65-.038-.652-.024-.675-.012-.677-.012-.688.012h-.7l-.714.025-.725.037-.739.038-.739.037-.751.064v6.473l.6-.076.6-.075.6-.05.613-.05.6-.037L15.971,17l.614-.012h1.239l.613.026.626.025.626.05.626.05.626.062.639.076.639.075.513.088.488.1.45.113.426.113.388.137.363.139.339.15.3.162.137.075.125.088.124.1.113.088.113.1.088.1.1.1.076.1.075.113.075.113.063.113.051.125.036.113.038.125.026.125.025.137v.226l-.025.113-.026.125-.1.275-.137.313-.087.125-.1.125-.113.113-.136.087-.139.088-.15.074-.164.064-.174.051-.188.036L25,21.918l-.212.012h-.476l-.249-.012L23.8,21.88l-.287-.037-.752-.087-.739-.076-.739-.062-.725-.051-.714-.037-.714-.026-.713-.012-.7-.012-.688.012-.689.012-.688.026-.676.037-.664.051-.663.062-.652.076-.65.087v6.6l.913-.1.89-.1.876-.075L15.9,28.1l.839-.037.838-.038.815-.012h.8l.789.025.776.026.752.049.739.075.726.076.713.1.689.113.675.123.539.1.5.125.476.125.438.137.413.164.376.162.175.087.162.087.163.087.15.1.137.1.139.1.125.113.113.1.113.113.1.113.087.113.088.124.075.125.063.125.062.126.038.137.051.125.025.137.025.137.026.15v.113l.012.125-.012.125V32.2l-.026.125-.025.113-.038.125-.038.113-.049.125-.063.113-.063.125-.076.125-.162.25-.2.25-.125.15-.15.139-.151.137-.163.125-.162.125-.175.125-.175.113-.188.113-.189.113-.2.1-.213.1-.213.1-.225.088-.238.087-.238.075-.25.076-.25.075-.263.062-.263.064-.287.049-.577.1-.6.088-.638.062-.677.051-.7.025H20.527l-.387-.012-.388-.026-.389-.025-.374-.038-.376-.05-.364-.049-.376-.063-.362-.076-.363-.087-.352-.088-.349-.1-.352-.1-.35-.125-.339-.125-.338-.125-.339-.15-.338-.151-.326-.15-.325-.174-.313-.176-.313-.187-.313-.189-.313-.2-.3-.213-.3-.226-.3-.225-.3-.238L11,32.384l-.287-.25-.276-.264L10.15,31.6l-.264-.275-.263-.287-.264-.288-.25-.288-.238-.288-.225-.3-.226-.3-.212-.3-.2-.313-.2-.3-.187-.326-.176-.312-.162-.325-.163-.326-.15-.325L6.818,26.7l-.137-.325-.125-.351-.113-.339-.113-.35-.1-.35-.087-.351-.088-.363-.075-.363-.063-.363-.063-.374-.038-.377-.05-.376-.026-.376-.024-.388L5.7,21.266v-.776l.012-.389.024-.388.026-.376.051-.376.037-.376.062-.363.064-.376.075-.35.088-.363.087-.351.1-.363.113-.338.113-.352.125-.337.137-.339.151-.339.15-.325.163-.325.162-.325.176-.326.187-.313.2-.313.2-.3.212-.313.226-.3.226-.3.237-.288L9.36,11l.264-.288.263-.288.264-.275.287-.276.288-.263.287-.25.288-.251.3-.236.3-.227.3-.226.3-.212.313-.2.313-.2.313-.187.326-.175.325-.174.326-.164.325-.15.339-.137.338-.139.339-.125.349-.125.339-.1.363-.1.35-.1.364-.075.362-.075.363-.063.364-.062.376-.051.388-.037.376-.026.388-.025.388-.012.389-.012L21.3,5.7l.388.012.388.025.376.026.377.037.376.051.362.062.363.063.363.075.363.075.351.1.35.1.351.1.339.125.35.125.326.139.338.137.325.15.325.164.326.174.313.174.325.188.3.2.314.2.3.213.3.225.287.226.3.237.288.251.276.25.287.263.275.276.264.275.263.275.263.287.25.288.238.288.226.3.226.3.212.3.2.313.188.313.188.313.188.326.163.312.162.339.151.325.151.339.137.339.125.338.113.35.113.351.1.351.088.35.087.363.075.363.063.363.05.376.05.376.037.376.038.376.025.388.012.389v.388l-.075,1.653.325.2.326.188.325.212.313.213.3.226.3.226.3.226.287.249.287.25.289.251.263.262.276.264.262.287.251.276.25.3.249.3.189-.687.162-.689.139-.7.113-.688.05-.351.036-.363.039-.35.037-.351.012-.363.026-.363v-.363l.012-.363-.012-.525-.013-.513-.037-.513-.038-.514-.05-.513-.062-.5-.076-.5-.1-.488-.1-.489-.113-.487-.113-.476-.137-.476-.15-.463-.163-.463-.174-.464-.175-.451-.2-.45-.2-.45-.226-.438-.226-.438-.237-.426-.251-.426-.275-.426-.276-.413-.287-.413-.3-.4-.313-.4-.313-.388-.339-.4-.349-.377-.352-.388-.376-.376-.376-.363L34.6,5.654l-.388-.339-.389-.339-.4-.324-.4-.313-.413-.3L32.2,3.751l-.413-.275-.426-.264-.426-.25-.438-.25-.438-.226-.438-.212-.451-.212-.449-.188-.464-.188-.463-.176-.464-.149-.464-.151-.475-.137L25.911.947,25.423.834l-.488-.1L24.447.647l-.5-.075-.5-.064-.5-.062L22.431.409,21.918.384,21.4.358Z" transform="translate(-0.358 -0.358)" fill="#da251d"/>
</svg>
