<svg xmlns="http://www.w3.org/2000/svg" viewBox="0 0 35.38 36">
  <defs>
    <style>
      .cls-1 {
        fill: #b81c22;
      }
    </style>
  </defs>
  <g id="中国银行" transform="translate(0)">
    <path id="路径_641" data-name="路径 641" class="cls-1" d="M290.525,239.693a17.787,17.787,0,0,0-4.081-10.665,17.579,17.579,0,0,0-13.811-6.527c-8.161-.318-13.34,6.049-13.183,6.208a17.859,17.859,0,0,0-3.924,8.118,18.867,18.867,0,0,0,1.726,12.1A17.468,17.468,0,0,0,266.2,257.2c4.081,1.91,10.2,1.592,14.125-.318a18.308,18.308,0,0,0,8.318-8.278A18.76,18.76,0,0,0,290.525,239.693Zm-19.618,14.645a14.072,14.072,0,0,1-11.771-16.714c1.256-5.571,4.238-7.8,4.865-8.278.628-.637,4.394-3.024,7.063-2.865v6.686h-2.825a4.252,4.252,0,0,0-3.924,4.457v6.049s.157,3.82,3.924,4.139h2.668Zm-2.04-10.347s-.628.159-.785-.637v-5.89s0-.637.471-.637h8.161s.628-.159.785.637V243.2s.157.955-.471.8Zm15.695,4.3a14.764,14.764,0,0,1-9.888,6.049v-6.527h3.139a4.4,4.4,0,0,0,3.453-4.139v-7a4.347,4.347,0,0,0-4.238-3.661h-2.354v-6.527a13.154,13.154,0,0,1,7.376,3.5,14.292,14.292,0,0,1,4.551,7.8A15.414,15.414,0,0,1,284.561,248.289Z" transform="translate(-255.161 -222.487)"/>
  </g>
</svg>
