<svg xmlns="http://www.w3.org/2000/svg" viewBox="0 0 36 36">
  <defs>
    <style>
      .cls-1 {
        fill: #d20e15;
      }
    </style>
  </defs>
  <path id="东莞银行" class="cls-1" d="M181.94,177.1a8.33,8.33,0,0,0-3.112,6.255c.147,5.263,3.989,8.085,7.025,8.171v-5.549h5.654V181.65a13.211,13.211,0,0,1,10.516,7.615q.013-.3.014-.6a13.413,13.413,0,0,0-12.408-13.355v-4.644a18.027,18.027,0,0,1,0,36v-4.642a13.282,13.282,0,0,0,6.744-2.429,7.682,7.682,0,0,0,2.18-5.316c-.15-5.252-3.975-8.073-7.01-8.169v5.425h-5.673v4.453a13.219,13.219,0,0,1-10.57-7.728c0,.134-.007.27-.007.4a13.414,13.414,0,0,0,12.408,13.36v4.642a18.027,18.027,0,0,1,0-36v4.644a13.234,13.234,0,0,0-5.763,1.793" transform="translate(-170.667 -170.667)"/>
</svg>
