<svg id="icon-bank-ICBC-big工商银行" xmlns="http://www.w3.org/2000/svg" width="42.213" height="42.213" viewBox="0 0 42.213 42.213">
  <g id="中国工商银行">
    <path id="路径_646" data-name="路径 646" d="M715.776,440.066h6.352v3.328h-6.352v9.913h10.33v-3.328h-7.12v-3.256h6.352v-9.986h-6.352v-3.329h7.12V430.08h-10.33Z" transform="translate(-705.889 -420.587)" fill="#c6000b"/>
    <path id="路径_647" data-name="路径 647" d="M666.191,360.448a21.107,21.107,0,1,0,21.142,21.071A21.068,21.068,0,0,0,666.191,360.448Zm.071,38.939a17.868,17.868,0,1,1,17.868-17.868A17.879,17.879,0,0,1,666.262,399.386Z" transform="translate(-645.12 -360.448)" fill="#c6000b"/>
    <path id="路径_648" data-name="路径 648" d="M803.328,433.409h7.12v3.329H804.1v9.987h6.352v3.329h-7.12v3.184h10.33v-9.987h-6.352v-3.329h6.352V430.08h-10.33Z" transform="translate(-781.189 -420.587)" fill="#c6000b"/>
  </g>
</svg>
