<svg xmlns="http://www.w3.org/2000/svg" width="41.04" height="42.213" viewBox="0 0 41.04 42.213">
  <path id="icon-bank-GCB-big广州银行" d="M20.729,42.213c-.361,0-.79-.019-1.206-.053a7.088,7.088,0,0,1-.881-.113l-.415-.027h-.008l-.4-.025c-.233-.058-.493-.108-.745-.157h0c-.328-.064-.667-.13-.944-.212l-.283-.024-.024,0-.307-.026c-.419-.167-.864-.328-1.295-.483h0c-.639-.23-1.3-.468-1.878-.73-.616-.28-1.221-.587-1.8-.915s-1.139-.683-1.673-1.057-1.055-.777-1.546-1.2-.969-.87-1.417-1.335-.881-.961-1.284-1.471-.791-1.051-1.149-1.6-.7-1.139-1.011-1.736-.605-1.226-.87-1.866a11.943,11.943,0,0,1-.466-1.453h0c-.077-.28-.156-.569-.25-.868-.136-.431-.274-.968-.4-1.552C.345,24.655.229,23.969.148,23.32a12.741,12.741,0,0,1,.018-3.955l.1-1.424c.1-.43.19-.863.277-1.281h0c.11-.532.214-1.035.34-1.536a11.223,11.223,0,0,1,.459-1.455c.3-.747.627-1.472.974-2.155s.724-1.342,1.12-1.963A21.159,21.159,0,0,1,4.708,7.769,20.2,20.2,0,0,1,7.72,4.716a21.717,21.717,0,0,1,1.749-1.29c.6-.4,1.249-.787,1.916-1.145s1.362-.694,2.088-1.009A8.933,8.933,0,0,1,14.82.823c.465-.12.933-.216,1.428-.318.431-.088.877-.18,1.319-.288A5.074,5.074,0,0,1,18.387.11c.18-.014.35-.027.511-.051a1.059,1.059,0,0,1,.159-.01c.08,0,.166.006.249.011h0c.083.006.169.011.248.011A.586.586,0,0,0,19.87.006C20.048,0,20.227,0,20.4,0a21.757,21.757,0,0,1,3.04.209A19.328,19.328,0,0,1,26.166.8a18.128,18.128,0,0,1,2.422.9,17.893,17.893,0,0,1,2.133,1.157,22.515,22.515,0,0,1,5.22,4.377c.356.416.7.855,1.021,1.306s.636.936.93,1.433.581,1.03.85,1.58.532,1.138.782,1.749c.173.424.342.911.518,1.49.156.516.3,1.059.446,1.584h0l0,.007.109.4.112.729.2,1.276a9.6,9.6,0,0,1,.131,1.584,8.258,8.258,0,0,1-.08,1.581v.844a5.5,5.5,0,0,0-.094.827,5.4,5.4,0,0,1-.111.914c-.077.322-.151.644-.222.955a23.046,23.046,0,0,1-1.058,3.687c-.288.694-.609,1.375-.954,2.024a21.8,21.8,0,0,1-1.124,1.876A20.918,20.918,0,0,1,36.105,34.8a20.375,20.375,0,0,1-3.056,2.976,20.944,20.944,0,0,1-1.757,1.243,21.812,21.812,0,0,1-1.9,1.073c-.657.328-1.345.631-2.046.9a16.025,16.025,0,0,1-2.608.678c-.483.1-.983.2-1.486.324a4.089,4.089,0,0,1-.871.084,4.135,4.135,0,0,0-.818.074A4.125,4.125,0,0,1,20.729,42.213ZM19.3,5.42a.833.833,0,0,0-.193.019A11.208,11.208,0,0,1,18,5.626a7.881,7.881,0,0,0-1.452.288,17.662,17.662,0,0,0-5.221,2.637c-2.565,1.955-4.337,4.7-5.579,8.651a6.026,6.026,0,0,0-.213,1.4,8.7,8.7,0,0,1-.145,1.189,9.911,9.911,0,0,0,.154,3.851c.081.328.127.633.172.928h0a6.864,6.864,0,0,0,.237,1.129A15.959,15.959,0,0,0,7.116,28.41,21.563,21.563,0,0,0,8.61,30.759a11.516,11.516,0,0,0,1.843,2.11,25.639,25.639,0,0,0,3.173,2.215,10.41,10.41,0,0,0,1.405.612h0c.281.106.571.216.846.337a2.893,2.893,0,0,0,.766.19,4.218,4.218,0,0,1,.616.126,9.157,9.157,0,0,0,1.505.314,12.976,12.976,0,0,0,1.63.1,13.954,13.954,0,0,0,5.719-1.151l.23-.053.23-.053A16.546,16.546,0,0,0,28.622,34.4a16.289,16.289,0,0,0,6.244-7.912,12.241,12.241,0,0,0,.577-2.316c.073-.4.148-.808.241-1.218a7.845,7.845,0,0,0,.055-2.317c-.026-.349-.051-.679-.055-1.007l-.05-.017a.057.057,0,0,1-.03-.016l-.023-.019a8.61,8.61,0,0,1-1.346.076c-.312,0-.642-.006-.933-.011h-.021c-.308-.006-.6-.011-.87-.011H28.143l-2.028,0c-.156,0-.672-.588-.979-.939-.089-.1-.159-.181-.2-.221-.3-.307-.607-.612-.906-.907h0c-.309-.305-.629-.621-.936-.938-.162-.168-.318-.359-.468-.544a4.65,4.65,0,0,0-.914-.933,1.62,1.62,0,0,0-.519-.225,2.486,2.486,0,0,0-.612-.073,2.228,2.228,0,0,0-1.172.3,3.606,3.606,0,0,0-.617.531c-.2.21-.4.443-.6.669h0c-.185.216-.36.421-.527.593-.235.242-.523.5-.827.778a16.314,16.314,0,0,0-1.469,1.449,3.939,3.939,0,0,0-.929,1.677,2.094,2.094,0,0,0,.795,1.874l.024.025c.471.486.944.986,1.4,1.47h0c.461.488.938.993,1.413,1.483.133.138.262.289.4.449a4.609,4.609,0,0,0,.882.87,1.871,1.871,0,0,0,.547.231,2.717,2.717,0,0,0,.687.091,1.814,1.814,0,0,0,.66-.111,2.053,2.053,0,0,0,.619-.4,6.883,6.883,0,0,0,.524-.546h0c.1-.112.194-.218.29-.316.441-.455.9-.9,1.349-1.334h0c.314-.3.638-.618.953-.932.066-.066.178-.2.309-.354h0a4.321,4.321,0,0,1,.663-.7H31.54v.105a1.532,1.532,0,0,0-.138.64,2.435,2.435,0,0,1-.067.468,18.9,18.9,0,0,1-.717,2.11,9.886,9.886,0,0,1-1.133,1.976,11.4,11.4,0,0,1-1.567,1.725,11.6,11.6,0,0,1-4,2.365,9.369,9.369,0,0,1-1.195.288c-.213.041-.433.084-.648.134a5.912,5.912,0,0,1-1.331.136,10.715,10.715,0,0,1-1.842-.175,11.029,11.029,0,0,1-1.535-.383c-.435-.147-.855-.31-1.251-.486a12.378,12.378,0,0,1-1.14-.578,11.032,11.032,0,0,1-1.033-.673,10.227,10.227,0,0,1-1.759-1.645,10.832,10.832,0,0,1-.734-.979,12.028,12.028,0,0,1-.643-1.087c-.2-.378-.385-.781-.555-1.2a13.019,13.019,0,0,1-.711-2.4,9.451,9.451,0,0,1-.169-1.45A5.936,5.936,0,0,1,9.48,20.1v-.475c.057-.26.107-.523.155-.778a9.876,9.876,0,0,1,.459-1.807c.162-.41.341-.807.532-1.182a12.421,12.421,0,0,1,.619-1.082,11.368,11.368,0,0,1,.709-.984,10.729,10.729,0,0,1,1.693-1.68,11.242,11.242,0,0,1,.988-.7,12.215,12.215,0,0,1,1.084-.607c.375-.186.773-.36,1.183-.517A11,11,0,0,1,18.639,9.8c.346-.069.694-.122,1.034-.158a10.093,10.093,0,0,1,1.073-.06,6.911,6.911,0,0,1,1.631.179c.458.112.944.233,1.405.37a9.672,9.672,0,0,1,2.594,1.17,11.588,11.588,0,0,1,2.271,1.889,10.216,10.216,0,0,1,.9,1.108,13.227,13.227,0,0,1,.921,1.582c.022.043.059.145.1.263a2.136,2.136,0,0,0,.205.476h4.35v-.106a2.353,2.353,0,0,1-.3-.818,3.886,3.886,0,0,0-.16-.553,16.91,16.91,0,0,0-1.331-2.637,15.307,15.307,0,0,0-5.216-5.061,16.291,16.291,0,0,0-8.142-2.06.5.5,0,0,1-.26.054c-.065,0-.132,0-.2-.01h0C19.438,5.425,19.366,5.42,19.3,5.42Z" fill="#b81b22"/>
</svg>
