<svg xmlns="http://www.w3.org/2000/svg" viewBox="0 0 38.749 33.213">
  <defs>
    <style>
      .cls-1 {
        fill: #bf0017;
      }

      .cls-2 {
        fill: #730000;
      }

      .cls-3 {
        fill: #e60020;
      }

      .cls-4 {
        fill: #fff;
      }
    </style>
  </defs>
  <g id="广发银行" transform="translate(-197.27 -118.964)">
    <path id="路径_664" data-name="路径 664" class="cls-1" d="M216.781,133.262c-.775-1.421-1.421-2.972-2.067-4.393-1.1-2.778-2.2-5.556-3.1-8.4a78.015,78.015,0,0,1-14.342,24.68,77.871,77.871,0,0,1,13.7-2,79.3,79.3,0,0,0,5.814-9.885" transform="translate(0 -1.441)"/>
    <path id="路径_665" data-name="路径 665" class="cls-2" d="M332.012,644.518c-1.864,0-3.793,0-5.657.129a90.983,90.983,0,0,1-8.614,10.854,69.823,69.823,0,0,1,14.271-1.227,85.634,85.634,0,0,1,14.271,1.227,90.39,90.39,0,0,1-8.614-10.789,55.157,55.157,0,0,0-5.657-.194" transform="translate(-115.302 -503.324)"/>
    <path id="路径_666" data-name="路径 666" class="cls-3" d="M197.271,649.6l5.039,8.722a90.47,90.47,0,0,0,8.657-10.789,89.906,89.906,0,0,0-13.7,2.067" transform="translate(-0.001 -506.207)"/>
    <path id="路径_667" data-name="路径 667" class="cls-4" d="M516.518,429.961a64.667,64.667,0,0,0,5.685-9.82,97.286,97.286,0,0,0,5.685,9.82c-1.874-.129-3.812-.129-5.685-.129a42.892,42.892,0,0,0-5.685.129" transform="translate(-305.623 -288.429)"/>
    <path id="路径_668" data-name="路径 668" class="cls-3" d="M652.763,120.471a90.017,90.017,0,0,1-3.166,8.463,45.7,45.7,0,0,1-2.067,4.393,97.335,97.335,0,0,0,5.685,9.82,85.286,85.286,0,0,1,13.7,2,84.115,84.115,0,0,1-14.148-24.68" transform="translate(-431.086 -1.442)"/>
    <path id="路径_669" data-name="路径 669" class="cls-2" d="M539.627,131.821c.775-1.421,1.421-2.972,2.067-4.393,1.1-2.843,2.2-5.621,3.166-8.463H534.588a90,90,0,0,0,3.166,8.463,23.638,23.638,0,0,0,1.874,4.393" transform="translate(-322.919 0)"/>
    <path id="路径_670" data-name="路径 670" class="cls-1" d="M793.222,661.266l5.039-8.722a72.92,72.92,0,0,0-13.7-2,120.955,120.955,0,0,0,8.657,10.725" transform="translate(-562.242 -509.089)"/>
  </g>
</svg>
