<svg xmlns="http://www.w3.org/2000/svg" viewBox="0 0 46.001 22">
  <defs>
    <style>
      .cls-1 {
        fill: #e7a602;
      }

      .cls-2 {
        fill: #6d1687;
      }
    </style>
  </defs>
  <g id="光大银行" transform="translate(-91.859 -245.459)">
    <path id="路径_658" data-name="路径 658" class="cls-1" d="M91.919,245.459h11.714a4.441,4.441,0,0,1,1.026.727h-2.174v.606h2.9a7.687,7.687,0,0,1,.6.727h-3.5v.606h3.925a2.629,2.629,0,0,1,.3.727H95.059v.606h11.895a2.727,2.727,0,0,1,.06.727H95.059v.606h11.955c0,.182-.06.485-.06.727H95.059v.606h11.714a6.324,6.324,0,0,1-.3.727H95v.606h11.11c-.181.242-.3.485-.483.727H95.059v.606h10.083a8.211,8.211,0,0,1-.725.727h-3.079v.606H105.2a4.482,4.482,0,0,1,.785.727h-4.649v.606h5.132a7.565,7.565,0,0,1,.483.727H95.059v.606H107.2c.121.182.181.485.3.727H95.059v.606h12.619c.06.242.06.485.121.727H95.059v.606H107.8a2.961,2.961,0,0,1-.06.727H95.059v.606h12.68c-.06.182-.121.485-.181.667h-12.5v.606h12.2c-.121.182-.242.485-.423.727h-4.287v.606h3.925c-.181.182-.423.485-.664.727h-3.26v.606h2.536c-.362.242-.725.485-1.147.727H91.859V248.611l.06-3.152Z" transform="translate(0 0)"/>
    <path id="路径_659" data-name="路径 659" class="cls-2" d="M505.817,422.024v5.615a2.6,2.6,0,0,0,.181,1.208.729.729,0,0,0,.423.423v.483h-2.9a6.766,6.766,0,0,1-.242-1.268,5.622,5.622,0,0,1-1.147,1.026,7.1,7.1,0,0,1-.664.3V428a2.237,2.237,0,0,0,1.087-.483,1.962,1.962,0,0,0,.664-1.509v-1.328a5.38,5.38,0,0,1-.6.3,10.474,10.474,0,0,1-1.208.241v-1.811l.845-.121a2.449,2.449,0,0,0,.6-.181.839.839,0,0,0,.3-.6,1.01,1.01,0,0,0-.6-1.026,2.838,2.838,0,0,0-1.147-.181h-.06v-2.415h.362a6.12,6.12,0,0,1,2.536.483A3.036,3.036,0,0,1,505.817,422.024Zm-4.408,7.789a5.144,5.144,0,0,1-1.389.181,2.9,2.9,0,0,1-3.079-3.079,3.029,3.029,0,0,1,.785-2.294,3.681,3.681,0,0,1,2.174-1.026l1.57-.181v1.811l-.06.06a2.6,2.6,0,0,0-1.208.362,1.471,1.471,0,0,0-.121,2.174,1.113,1.113,0,0,0,.785.242c.181,0,.423-.06.6-.06Zm0-8.574a1.73,1.73,0,0,0-1.268.483,1.8,1.8,0,0,0-.362.966h-2.536a3.644,3.644,0,0,1,1.57-3.019,5.243,5.243,0,0,1,2.536-.6Zm14.551,1.268v7.245H513.3v-6.4a3.67,3.67,0,0,0-.181-1.328,1.558,1.558,0,0,0-1.509-.725,2,2,0,0,0-1.51.6,2.382,2.382,0,0,0-.6,1.751v5.977h-2.657V419.186h2.536v1.57a3.793,3.793,0,0,1,1.389-1.389,3.681,3.681,0,0,1,1.691-.423,3.243,3.243,0,0,1,3.5,3.562Zm3.8,3.925v3.321h-2.657V415.624h2.657v7.668l3.381-3.985h3.26l-3.562,4.045,3.683,6.4h-3.2l-2.415-4.468Z" transform="translate(-388.668 -163.26)"/>
  </g>
</svg>
