<svg xmlns="http://www.w3.org/2000/svg" viewBox="0 0 38.515 36">
  <defs>
    <style>
      .cls-1 {
        fill: #e2301f;
      }
    </style>
  </defs>
  <path id="华夏银行" class="cls-1" d="M225.788,95.754a18.037,18.037,0,0,1,12.048-4.165c.128.128.513,1.538,1.089,1.794s2.627-.384,3.653,1.025c.449.9-.192,1.218.385,1.858,3.845,2.179,4.55-.513,6.088,1.987.641,2.115-2.627,1.73-3.461,4.165a6.967,6.967,0,0,0-1.41-1.089,11.381,11.381,0,0,0-9.164-1.41,11.656,11.656,0,0,0-8.4,14.355,11.782,11.782,0,0,0,14.483,8.267,15.24,15.24,0,0,0,5.511-2.948c1.154-.833,2.115-2.243,3.076-2.756a4.6,4.6,0,0,0-.833,1.41s.32.128.9-.449a6.171,6.171,0,0,0,1.025-1.666,3.934,3.934,0,0,1-.9,2.756,13.543,13.543,0,0,1-1.282,1.538c.192-.064.577-.385,1.153-.7a8.027,8.027,0,0,0,1.089-1.474,9.932,9.932,0,0,1-1.666,3.717,14.762,14.762,0,0,1-3.14,3.2,9.452,9.452,0,0,1-3.525,1.794,18.219,18.219,0,0,1-22.237-12.689,20.959,20.959,0,0,1-.449-7.241,8.033,8.033,0,0,1-3.845,1.089,3.663,3.663,0,0,1-3.653-3.717c0-1.858,2.179-4.358,2.179-4.294a1.923,1.923,0,0,0,1.858,2.179c4.037-.384,6.024-3.525,9.164-6.152l.256-.385Zm8.779,10.83h8.779a1.752,1.752,0,0,1,1.794,1.794v5.447a1.752,1.752,0,0,1-1.794,1.794h-8.779a1.752,1.752,0,0,1-1.794-1.794v-5.447a1.88,1.88,0,0,1,1.794-1.794Z" transform="translate(-212.33 -91.576)"/>
</svg>
