<svg xmlns="http://www.w3.org/2000/svg" viewBox="0 0 36 36">
  <defs>
    <style>
      .cls-1 {
        fill: #c6000b;
      }
    </style>
  </defs>
  <g id="中国工商银行" transform="translate(0 0)">
    <path id="路径_646" data-name="路径 646" class="cls-1" d="M715.776,438.6h5.417v2.839h-5.417v8.454h8.81V447.05h-6.072v-2.777h5.417v-8.516h-5.417v-2.839h6.072V430.08h-8.81Z" transform="translate(-707.344 -421.984)"/>
    <path id="路径_647" data-name="路径 647" class="cls-1" d="M663.09,360.448a18,18,0,1,0,18.03,17.97A17.968,17.968,0,0,0,663.09,360.448Zm.061,33.207a15.238,15.238,0,1,1,15.238-15.238A15.247,15.247,0,0,1,663.15,393.655Z" transform="translate(-645.12 -360.448)"/>
    <path id="路径_648" data-name="路径 648" class="cls-1" d="M803.328,432.919H809.4v2.839h-5.417v8.517H809.4v2.839h-6.072v2.715h8.81v-8.517h-5.417v-2.839h5.417V430.08h-8.81Z" transform="translate(-784.448 -421.984)"/>
  </g>
</svg>
