<svg id="icon-bank-JSBANK-big江苏银行" xmlns="http://www.w3.org/2000/svg" width="42.214" height="42.213" viewBox="0 0 42.214 42.213">
  <path id="路径_660" data-name="路径 660" d="M376.462,370.447a17.29,17.29,0,0,0-6.268,1.043,6.135,6.135,0,0,1,5.21,6.036c0,5.44-6.57,9.985-14.65,9.985a19.469,19.469,0,0,1-6.872-1.192,48.368,48.368,0,0,0,15.4,12,45.084,45.084,0,0,0,21.22-20.865c-.151-.149-.151-.447-.3-.745-2.416-3.651-7.627-6.259-13.744-6.259Z" transform="translate(-348.294 -356.103)" fill="#d4ab44"/>
  <path id="路径_661" data-name="路径 661" d="M254.836,118a20.21,20.21,0,0,0,6.117-.894,5.883,5.883,0,0,1-4.908-5.738v-.149c0-5.44,6.57-9.985,14.65-9.985a19.47,19.47,0,0,1,6.872,1.192,46.574,46.574,0,0,0-15.4-12.072,44.127,44.127,0,0,0-21.219,20.716c1.812,4.1,7.476,6.93,13.895,6.93Z" transform="translate(-240.941 -90.353)" fill="#005bac"/>
</svg>
