<svg xmlns="http://www.w3.org/2000/svg" viewBox="0 0 34.698 36">
  <defs>
    <style>
      .cls-1 {
        fill: #004f9c;
      }
    </style>
  </defs>
  <path id="建设银行" class="cls-1" d="M289.6,108.876a1.229,1.229,0,0,1,.642.064c.257.128.193.193.193.321A17.22,17.22,0,1,1,270.39,91.788a6.336,6.336,0,0,1,5.525,1.863l10.343,10.214-3.6,3.6s-.514.385-.835.321a1.458,1.458,0,0,1-.642-.45l-7.709-7.645a.31.31,0,0,0-.45,0l-8.737,8.673a.311.311,0,0,0,0,.45l8.8,8.608a.31.31,0,0,0,.45,0l8.287-8.094a5.209,5.209,0,0,1,.514-.385,2.95,2.95,0,0,1,.642-.064H289.6ZM278.677,93.33c-2.57-2.891-4.947-2.955-4.947-2.955a10.44,10.44,0,0,1,11.114,2.7l5.525,5.525s.385.321.321.514a6.81,6.81,0,0,1-.321.771l-2.57,2.441-9.122-8.994Z" transform="translate(-256 -89.771)"/>
</svg>
