<svg xmlns="http://www.w3.org/2000/svg" viewBox="0 0 33.158 36">
  <defs>
    <style>
      .cls-1 {
        fill: #1d2088;
      }
    </style>
  </defs>
  <path id="交通银行-07" class="cls-1" d="M168.426,95.51c-2.113.069-4.067.136-6.18.2-1.338,5.692-12.4,4.155-11.172-3.068.619-4.279,6.4-6.147,9.99-2.917a5.81,5.81,0,0,1,1.428,3.531c1.773-.068,4.163-.136,5.935-.2.09-9.2-10.365-13.876-18.2-9.409-7.516,4.282-6.648,17.327,1.227,20.659v.2c-4.294-.084-9-3.411-10.03-7.364l.058-21.222c3.408-2.318,7.176-5.1,10.583-7.415l.409.2a120.75,120.75,0,0,0,.1,12.324c2.136-2.073,3.575-4.239,7.262-4.961a12.4,12.4,0,0,1,6.085.307c10.771,3.69,11.441,17.608,2.3,22.4-.2,0-.649.4-.988.47,0-.068.213-.363.375-.674l.818-3.068Z" transform="translate(-141.42 -68.51)"/>
</svg>
