<svg xmlns="http://www.w3.org/2000/svg" viewBox="0 0 40 30">
  <defs>
    <style>
      .cls-1 {
        fill: #1d2088;
      }

      .cls-2 {
        fill: #5aa572;
      }
    </style>
  </defs>
  <g id="民生银行" transform="translate(-180.706 -151.056)">
    <path id="路径_662" data-name="路径 662" class="cls-1" d="M218.936,268.853c-3.475-4.559-13.333-5.635-13.333-5.635l3.918-2.406L200.8,256l-8.72,4.369,7.014,3.926c11.374-.19,14.66,5.888,14.66,5.888,2.844,8.927-13.523,9.561-13.523,9.561-9.479,1.013-13.839-7.218-13.839-7.218l-5.687.19c6.761,13.486,31.026,7.6,31.026,7.6,12.7-3.862,7.2-11.46,7.2-11.46ZM200.8,263.218l-3.918-1.963,3.728-2.6,3.918,2.153-3.728,2.406Z" transform="translate(0 -100.537)"/>
    <path id="路径_663" data-name="路径 663" class="cls-2" d="M208.657,151.163c-6.382-.444-18.831.19-20.347,7.8-1.327,6.084,7.9,9.57,14.407,10.2-1.327.887-2.654,1.521-3.918,2.408,3.033,1.711,5.877,3.486,8.72,5.007l7.9-4.563-7.9-4.119a22.971,22.971,0,0,0-3.918.19c-4.36,0-10.742-4.753-8.973-9.126,3.286-9.316,24.9-8.049,27.109,1.331h6.13c-2.844-7.161-13.08-8.682-19.21-9.126Zm-.885,18.442,3.918,2.155-4.171,2.155-3.728-2.155Z" transform="translate(-7.161)"/>
  </g>
</svg>
