<svg xmlns="http://www.w3.org/2000/svg" width="40.001" height="39.025" viewBox="0 0 40.001 39.025">
  <path id="icon-bank-BONJ-big南京银行" d="M68.828,57.044C67.507,53.944,64.083,52,60.392,52a9.3,9.3,0,0,0-9.438,9.152A5.71,5.71,0,0,0,51.09,62.7c.171.609.33.725.77.342a13.175,13.175,0,0,1,8.656-3.363,12.8,12.8,0,0,1,3.044.365c.467.112.463.126.873-.125a25.651,25.651,0,0,1,4.08-1.958c.358-.14.525-.425.314-.919m-20.45,2.781c-3.359.3-6.268,2.956-7.405,6.465a9.3,9.3,0,0,0,5.787,11.8,5.752,5.752,0,0,0,1.515.35c.632.026.791-.089.565-.624a13.176,13.176,0,0,1-.525-9.273A12.883,12.883,0,0,1,49.6,65.764c.251-.408.262-.4.149-.868a25.976,25.976,0,0,1-.6-4.487C49.129,60.027,48.91,59.777,48.378,59.825ZM44.7,80.136c-.754,3.286.877,6.872,3.862,9.041a9.3,9.3,0,0,0,13.015-1.856,5.81,5.81,0,0,0,.8-1.334c.219-.593.159-.779-.422-.728a13.184,13.184,0,0,1-8.98-2.368,12.855,12.855,0,0,1-2.249-2.084c-.31-.366-.3-.374-.778-.411a25.786,25.786,0,0,1-4.454-.815C45.124,79.484,44.82,79.614,44.7,80.136Zm18.183,9.773c2.891,1.733,6.8,1.292,9.79-.876A9.3,9.3,0,0,0,74.929,76.08a5.823,5.823,0,0,0-1.02-1.174c-.5-.392-.694-.393-.823.174a13.185,13.185,0,0,1-5.029,7.81,12.806,12.806,0,0,1-2.677,1.5c-.441.181-.447.168-.63.614A25.858,25.858,0,0,1,62.6,88.982c-.2.321-.175.651.286.927ZM77.794,75.638c2.541-2.214,3.331-6.074,2.191-9.583a9.3,9.3,0,0,0-11.621-6.148,5.705,5.705,0,0,0-1.432.608c-.527.351-.587.537-.089.836a13.173,13.173,0,0,1,5.874,7.195,12.859,12.859,0,0,1,.6,3.008c.036.479.02.479.386.79a25.912,25.912,0,0,1,3.126,3.277C77.068,75.917,77.39,75.99,77.794,75.638Zm-17.481,7.4A10.253,10.253,0,0,1,56,82.09a.356.356,0,0,1-.26-.337V73.983c0-.647.469-.773.889-.353q1.742,1.742,3.484,3.481c.239.239.195.213.436-.021l8.688-8.469c.223-.215.676-.226.8.091a11.452,11.452,0,0,1,.827,4.052A10.49,10.49,0,0,1,60.313,83.037Zm.2-20.823a10.239,10.239,0,0,1,4.315.947.359.359,0,0,1,.262.338v7.768c0,.648-.469.775-.891.353q-1.741-1.74-3.483-3.481c-.2-.2-.216-.2-.413,0C57.429,70.995,54.5,73.8,51.6,76.63c-.225.214-.676.225-.8-.091a11.452,11.452,0,0,1-.827-4.053A10.489,10.489,0,0,1,60.516,62.214Z" transform="translate(-40.494 -52)" fill="#d70812"/>
</svg>
