<svg xmlns="http://www.w3.org/2000/svg" viewBox="0 0 36 36">
  <defs>
    <style>
      .cls-1 {
        fill: #f2943a;
      }

      .cls-2 {
        fill: #fed966;
      }
    </style>
  </defs>
  <g id="宁波银行" transform="translate(-240.942 -88.847)">
    <path id="路径_673" data-name="路径 673" class="cls-1" d="M245.127,199.867a13.969,13.969,0,0,1-3.928-1.929,18.406,18.406,0,0,0,3.284,7.843v-.193a24.364,24.364,0,0,1,.644-5.721Zm10.174-.321a15.806,15.806,0,0,1-7.341.964,22.848,22.848,0,0,0-.322,8.614,17.97,17.97,0,0,0,9.08,3.857,15.475,15.475,0,0,1-1.417-13.435Zm-6.5-8.1a6.515,6.515,0,0,1-5.667-4.95,17.976,17.976,0,0,0-2.189,7.907,13.688,13.688,0,0,0,4.894,2.957,28.242,28.242,0,0,1,2.962-5.914Zm2.383-3.021a24.667,24.667,0,0,1,1.867-1.8,3.927,3.927,0,0,0-1.224-4.886,3.836,3.836,0,0,0-5.023.386,3.9,3.9,0,0,0-.451,5.014,3.788,3.788,0,0,0,4.83,1.286ZM273.267,206.1a4,4,0,0,0-1.674-4.629,3.9,3.9,0,1,0-.451,6.878,14.164,14.164,0,0,0,2.125-2.25Z" transform="translate(0 -88.26)"/>
    <path id="路径_674" data-name="路径 674" class="cls-1" d="M444.658,95a17.266,17.266,0,0,0-6.2-2.7,15.647,15.647,0,0,1,1.455,3.337A17.254,17.254,0,0,1,444.658,95Zm-4.113,3.4a15.814,15.814,0,0,1-.823,6.867,14.9,14.9,0,0,1,12.276.578,18.167,18.167,0,0,0-3.86-7.829,21.489,21.489,0,0,0-7.593.385Zm11.833,10.782a12.27,12.27,0,0,0-15.566.963c-.316.321-.633.706-.949.963a12.726,12.726,0,0,0-.063,16.557,16.7,16.7,0,0,0,7.15-2.054,6.557,6.557,0,0,1,.759-12.578,6.488,6.488,0,0,1,7.277,3.722,18.626,18.626,0,0,0,1.392-7v-.578Zm-17.464-.9a12.887,12.887,0,0,0,3.1-8.279v-.834a22.121,22.121,0,0,0-7.72,4.813,3.334,3.334,0,0,1-.7.642,22.064,22.064,0,0,0-4.936,7.958c.316,0,.633.064.949.064a12.233,12.233,0,0,0,8.353-3.273,8.27,8.27,0,0,1,.949-1.091Zm-3.037-9.306a22.394,22.394,0,0,1,5.568-2.7,13.072,13.072,0,0,0-2.4-4.428h-.38a17.57,17.57,0,0,0-7.214,1.54,6.489,6.489,0,0,1,4.429,5.583Z" transform="translate(-175.437 -2.885)"/>
    <path id="路径_675" data-name="路径 675" class="cls-2" d="M260.1,108.227l.964-.963a12.619,12.619,0,0,1,15.815-.963,29.473,29.473,0,0,0-.386-3.337,15.113,15.113,0,0,0-12.472-.578,14.7,14.7,0,0,0,.836-6.866,21.888,21.888,0,0,1,7.65-.385,22.054,22.054,0,0,0-3.407-3.08,30.888,30.888,0,0,0-4.822.578A17.057,17.057,0,0,0,262.8,89.3a21.308,21.308,0,0,0-3.536-.449,13.009,13.009,0,0,1,2.443,4.428,23.109,23.109,0,0,0-5.657,2.759,6.674,6.674,0,0,0-4.5-5.647,19.235,19.235,0,0,0-8.422,7.893,6.5,6.5,0,0,0,5.657,4.941,24.956,24.956,0,0,0-2.957,5.84,11.911,11.911,0,0,1-4.886-2.888v.706a20.146,20.146,0,0,0,.193,2.824,15.248,15.248,0,0,0,3.986,1.925,24.318,24.318,0,0,0-.643,5.711v.193a17.547,17.547,0,0,0,3.214,3.337,22.755,22.755,0,0,1,.321-8.6,15.781,15.781,0,0,0,7.329-.963,15.447,15.447,0,0,0,1.414,13.412c.771.064,1.479.128,2.25.128a7,7,0,0,0,1.157-.064,12.5,12.5,0,0,1-.064-16.556ZM245.634,96.74a3.8,3.8,0,0,1,2.507-3.594,3.941,3.941,0,0,1,4.95,5.39,24.622,24.622,0,0,0-1.864,1.8,3.853,3.853,0,0,1-3.729-.257,4.1,4.1,0,0,1-1.864-3.337Zm4.05,12.963a4.875,4.875,0,0,1-.964-.064,22.91,22.91,0,0,1,5.014-7.957c.257-.193.45-.449.707-.642a22.368,22.368,0,0,1,7.843-4.749v.834a12.2,12.2,0,0,1-3.15,8.278c-.321.321-.643.642-.964,1.027a12.305,12.305,0,0,1-8.486,3.273Z" transform="translate(0 0)"/>
    <path id="路径_676" data-name="路径 676" class="cls-2" d="M762.407,585.788a6.435,6.435,0,0,0-2.088,12.529,16.725,16.725,0,0,0,3.67-2.594,3.859,3.859,0,0,1-4.682-1.266,3.742,3.742,0,0,1,.316-4.809,3.842,3.842,0,0,1,4.809-.7,3.78,3.78,0,0,1,1.645,4.556,16.271,16.271,0,0,0,2.278-3.923,6.471,6.471,0,0,0-5.948-3.8Z" transform="translate(-492.806 -475.558)"/>
  </g>
</svg>
