<svg xmlns="http://www.w3.org/2000/svg" viewBox="0 0 53.794 30">
  <defs>
    <style>
      .cls-1 {
        fill: #ec681b;
      }
    </style>
  </defs>
  <path id="平安银行" class="cls-1" d="M142.518,216.244a2.159,2.159,0,0,1-2.123,2.22H94.175a2.159,2.159,0,0,1-2.123-2.22V201.137a2.159,2.159,0,0,1,2.123-2.22h46.22a2.159,2.159,0,0,1,2.123,2.22v15.107ZM115.2,209.228h-.991v.43h-.991v-.931h1.7v-.788h-1.7v-.716H115.2v-.931h-5.309v.931h1.982v.644h-1.7v.859h1.7v.931h-1.982v.931H115.2v-1.36Zm-9.7-3.723h-2.973v-.931a.153.153,0,0,0-.142-.143h-1.2a.153.153,0,0,0-.142.143v.931H98.068a.973.973,0,0,0-.991,1v3.365a.973.973,0,0,0,.991,1h2.973v1.432a.153.153,0,0,0,.142.143h1.2a.153.153,0,0,0,.142-.143v-1.432H105.5a.973.973,0,0,0,.991-1v-3.365a.973.973,0,0,0-.991-1Zm-4.53,4.368H98.422v-3.15h2.548Zm4.105,0h-2.548v-3.15h2.548Zm23.5-3.222h.779a.153.153,0,0,0,.142-.143v-.5H136.5v.5a.153.153,0,0,0,.142.143h.779a.153.153,0,0,0,.142-.143v-.573a.9.9,0,0,0-.92-.931H133.6v-.43a.153.153,0,0,0-.142-.143h-1.132a.153.153,0,0,0-.142.143V205h-2.9a.942.942,0,0,0-.92.931v.573C128.433,206.578,128.5,206.65,128.574,206.65Zm-3.044-.072c-.142,0-.283.072-.283.143l-1.132,2.291c0,.072,0,.143.071.143h1.132c.142,0,.283-.072.283-.143l1.132-2.291c0-.072,0-.143-.071-.143Zm-9.343-1.933h-7.361a.973.973,0,0,0-.991,1v5.585a.973.973,0,0,0,.991,1h7.361a.973.973,0,0,0,.991-1v-5.585A1.018,1.018,0,0,0,116.188,204.645Zm-.354,6.659H109.11v-5.585h6.724V211.3Zm21.73-3.866h-1.486v-.644a.153.153,0,0,0-.142-.143h-.991c-.071,0-.212.072-.212.143v.644h-3.327v-.644a.153.153,0,0,0-.142-.143h-.991a.153.153,0,0,0-.142.143v.644h-1.557a.153.153,0,0,0-.142.143v.788a.153.153,0,0,0,.142.143h1.416v.43a1.6,1.6,0,0,0,.92,1.432c.283.143.566.286.92.43a4.784,4.784,0,0,1-1.628.358h-1.416c-.071,0-.212.072-.212.143v.788c0,.072.071.143.212.143h1.345a5.2,5.2,0,0,0,1.77-.358c.212-.072.637-.286,1.132-.5a10.99,10.99,0,0,0,1.2.5,5.2,5.2,0,0,0,1.77.358h1.345a.153.153,0,0,0,.142-.143V211.3a.153.153,0,0,0-.142-.143h-1.416a3.361,3.361,0,0,1-1.628-.358,5.308,5.308,0,0,1,.92-.43,1.6,1.6,0,0,0,.92-1.432v-.43h1.486a.153.153,0,0,0,.142-.143v-.788c-.071-.072-.071-.143-.212-.143Zm-2.831,1.432a.832.832,0,0,1-.425.788l-1.274.644c-.425-.215-.92-.43-1.274-.644a.774.774,0,0,1-.425-.788v-.358h3.4Zm-14.3.358h1.132c.071,0,.142-.072.071-.143l-1.132-2.291c0-.072-.142-.143-.283-.143H119.09c-.071,0-.142.072-.071.143l1.132,2.291A.493.493,0,0,0,120.435,209.228Zm6.936.573H123.62v-3.866h3.4a.153.153,0,0,0,.142-.143V205a.153.153,0,0,0-.142-.143h-8.281a.153.153,0,0,0-.142.143v.788a.153.153,0,0,0,.142.143H122.2V209.8h-3.681a.153.153,0,0,0-.142.143v.788a.153.153,0,0,0,.142.143H122.2v1.5a.153.153,0,0,0,.142.143h1.132a.153.153,0,0,0,.142-.143v-1.5H127.3a.153.153,0,0,0,.142-.143v-.788c.071-.072,0-.143-.071-.143Zm16.775-9.021v23.055l-.071.43-.071.358-.142.358-.142.358-.212.358-.283.143-.283.286-.212.215-.283.215-.283.215-.283.143-.354.143-.354.072-.425.143h-47L93.4,227.2l-.354-.072-.354-.143-.283-.143-.354-.286-.283-.215-.283-.286-.212-.215-.212-.286-.212-.358-.142-.358-.142-.358-.071-.358-.142-.43V200.636l.071-.43.071-.358.142-.358.142-.358.212-.358.283-.143.283-.286.212-.215.283-.215.283-.215.283-.143.354-.143.354-.072.354-.072h47l.354.072.354.072.354.143.283.143.283.215.283.215.283.286.283.286.212.286.212.358.142.358.142.358.071.358.212.358Zm-.566,22.554v-22.2a3.317,3.317,0,0,0-3.185-3.365H94.175a3.27,3.27,0,0,0-3.185,3.365v22.124a3.27,3.27,0,0,0,3.185,3.365h46.22a3.252,3.252,0,0,0,3.185-3.294Zm-12.316-1.146h1.84l-.354-.215-.142-.072-.142-.143-.142-.143-.071-.072-.142.215-.142.072-.142.072-.142.072Zm1.628-.716h-.283V221.4a.251.251,0,0,0,.071-.143c0-.072.071-.143.142-.215h-.708v.143l.071.143.142.143.142.143.283.215.212.072.212.072.283.072v.215l-.071.143h-.142l-.283-.143.071.143v1.146l-.071.072.425.215.142.143v.072l-.142.072h-.142l-.142-.072-.142-.072-.142-.072-.142-.072-.142-.072-.142-.072-.283.072-.212-.072v-.215l.071-.072h.354c.071.072.212.072.283.143l.212.072v-.931h-.92v.215l-.071.358-.071.286-.212.143-.212.215-.283.143-.283.143-.354.072h-.5v-.143h.5l-.212-.43v-1.432h.566l-.071-.072v-.215l-.142.072c-.071.072-.212.072-.283.143l-.283.143h-.142v-.072c.071,0,.142-.072.283-.143l.212-.143.212-.143.212-.143.212-.072v-.143h-.142c-.071,0-.142-.072-.212-.072l-.212-.072a.258.258,0,0,1-.212-.072h-.071l-.141-.43v-.143h.142l.637.215.142.143v.143l.142-.143.142-.143.071-.143v-.072l.071-.143h.142l.071.143v.215h1.77v.286l.212-.143-.071.143-.071.143-.071.143-.212.072-.212-.072Zm-1.7.072-.212.286.212-.072.212-.072.142-.072.142-.072.071-.143.071-.143.071-.143v-.072h-.425c-.071.072-.071.143-.142.215l-.071.072-.071.072h-.071Zm.637,2,.071-.072V223.4l-.071.072Zm-.212-.931-.92.143v1l-.142.143.425-.143.212-.143.142-.143.142-.215.071-.215v-.286Zm-3.185-.573-.283-.143v-1.074h-.991v.716l-.071.143-.071.072-.071.072-.142.143h1.628Zm-.566.931.142-.072.071-.072.071-.072.071-.072.071-.143h-1.274l.142.215.142.215.071.072.142.143.071.072.071.072.212-.143v-.215Zm-1.486-.859-.071-.143v.072l.212-.143.142-.215v-1h1.486v.931h.425v.143h-.566l.283.143v.215l.283.644-.071.143-.071.143-.071.143-.071.143-.071.143-.142.143.212.072.142.072.142.072h.566v.143h-.5l-.212-.072-.142-.072-.142-.072-.142-.072-.142-.072-.071-.072-.283.143-.142.072-.142.072-.142.072-.142.072-.354.43h-.283l-.071-.143-.071.143h-.708v-.143l.071-.143h.212l.142.072v-.859l-.142.072c-.071,0-.071,0-.142.072h-.142v-.143c.071,0,.071-.072.142-.072l.142-.072.142-.072v-.931h-.354v-.215h.354v-.788h.212v.716h.354v.358h-.5v.716c.071,0,.142-.072.212-.143l.212-.716Zm-.283,1.933.142-.072.283-.072.283-.072.142-.072.283-.143-.142-.143c-.071,0-.071-.072-.142-.143l-.142-.358-.142-.215v-.072l.071-.286-.283.143a1.545,1.545,0,0,1-.354.215Zm-9.98-2.363h-1.2v.43h1.2Zm-1.2-.788v.358h1.2V220.9Zm.708,2.649-.142-.215-.142-.286-.071-.286-.071-.215h-.283v1.36l.142-.143.071-.072.071-.072.142-.072Zm-1.132-.931-.142.072h-.566v1.074l.142-.143.212-.215.142-.072.212.072Zm0-.859v-.143l.071-.143v-.5h-.779l-.142.358h.779l.071.143-.071.286h-.5v.43h.566l.142.072v-.5Zm1.84.788h-.779l.071.143.071.215.071.215.142-.143a2.417,2.417,0,0,0,.425-.43Zm.283.215-.071.072-.142.143-.283.286.071.072.142.143.212.143.212.143.142.143v.215l-.142.072h-.212l-.283-.143-.212-.143-.283-.215-.142-.143v.215l-.071.072-.212.215-.142.072-.142.072H114.7l-.071-.072v-.43l-.142.143-.212.215-.142.143-.142.072h-.212v-1.432H113v-.215h.425v-.43h-.071l-.071.072-.142.072H113v-.072l.071-.143.071-.143.071-.143.071-.143.071-.143.071-.143.071-.143v-.215h.212v.286h.779l.071-.143h1.84V222.4l-.142.072.212.072.142.215Zm2.477-2.291h2.053v.143h-2.123v-.143Zm-.92,0,.142-.143h.142l.142.143v.143l-.212.215-.142.286-.142.215-.142.215-.142.072-.142-.072v-.072l.142-.215.142-.215.142-.215Zm-.354,2.363-.071.072-.142-.072-.071-.143.071-.143.212-.215.142-.215.071-.143.071-.143.071-.143.071-.143.142-.143h.142l.142.143a.652.652,0,0,1-.071.358l-.142.215v2.148h-.142v-1.575l-.5.143Zm.849-1.146v-.072h2.477v.143h-.354v2.148l-.071.072h-1.062l-.212-.072-.142-.072v-.215l.071-.143h.212l.354.072h.5v-1.862h-1.769Zm-12.953-.788v2h.354v-.215l-.071-.215V222.4c0-.072-.071-.143-.071-.286v-.358l.142-.788h-.354Zm2.76.859-.071.072h-.779l.142.215.071.286.071.286a3.133,3.133,0,0,1,.071.358,1.231,1.231,0,0,0,.071.5l.142-.573v-.215l.071-.43V221.9l.071-.072.142-.072.071.072v1l-.071.215-.071.215-.142.358a.223.223,0,0,1-.071.143h.637v.215h-2.265v-.143h.708l-.142-.143-.071-.286-.142-.43-.142-.358a.55.55,0,0,1-.142-.358v-.072h.212l-.071-.072.071.143.142.358.071.143.071.143v.143a.265.265,0,0,0,.071.215v.215l-.142.143h.708v-.286l-.142.072h-.071v-.358a.918.918,0,0,0-.071-.43l-.142-.43v-.143l.142-.143h-.5v-.143l-.142.072h-.071l-.142-.072v.286l.142.286.071.215c0,.072.071.143.071.215v.716h-1.133v.859h-.142v-3.652h.92l.142-.143v.43l-.071.43.283-.215.142-.072.142-.072.071-.072.071-.072a.988.988,0,0,0,.212-.286l.071-.072h.354l.142.215.142.143.142.072.142.072.142.072.142.072.142.072.142.072.142.143v.072l-.142.143h-.354l-.283-.143v.215Zm-1.416-.358h1.2c-.071,0-.142-.072-.283-.143-.071,0-.071-.072-.142-.143l-.071-.072-.071-.072-.071-.143-.071.072-.142.143-.071.143-.071.072-.212.143Zm-5.167.072v.072h1.84v-.716h-1.84Zm-.637,1.074v1.146l.283-.143.212-.143.212-.143.142-.143.142-.143.142-.143.142-.143h-1.132Zm.212-1.862-.142.5c0,.072-.071.215-.071.286v1l.071-.072H102.6v-.358h-.991v-1.36Zm1.84,2.22.071.072.142.143.212.143.212.143.212.143.283.143.071.143v.215l-.142.143h-.142l-.212-.143-.212-.143-.212-.215-.142-.143-.142-.143-.212-.072-.142-.143v1h-.142v-1.074l-.212.215-.142.143-.142.143-.425.072-.212.143-.212.143h-.142l-.142-.072v.286h-.212v-2l-.354.072-.142-.072v-.215l.071-.143.071-.143.071-.143.071-.143.071-.143.071-.215.071-.215v-.358h.071l.142.072.071.143.071-.072h2.407V221.9h-1.062v.358h1.345v.215h-1.2l.5.43Zm20.314-.573v.215h-.5v-.43h.5Zm-12.387,0v.215h-.5v-.43h.5Z" transform="translate(-90.352 -197.271)"/>
</svg>
