<svg xmlns="http://www.w3.org/2000/svg" viewBox="0 0 34.688 30">
  <defs>
    <style>
      .cls-1 {
        fill: #074195;
      }
    </style>
  </defs>
  <path id="浦发银行" class="cls-1" d="M188.352,101.885l.105-.107a7.459,7.459,0,0,1,5.834-1.554,6.888,6.888,0,0,0-6.78-4.662,7.054,7.054,0,0,0-5.518,2.733,7.628,7.628,0,0,0-1.577,4.073,9.662,9.662,0,0,1-2.891,6.538,6.887,6.887,0,0,1-5.939,1.608,7.025,7.025,0,0,0,6.99,4.662,7.127,7.127,0,0,0,4.993-2.251,8.149,8.149,0,0,0,1.945-4.823,9.556,9.556,0,0,1,2.838-6.216m11.983-6.913a1.8,1.8,0,0,0-.631-1.34l-3.732-2.947s-.736-.643-.736.322v12.057a7.394,7.394,0,0,1-2.47,5.519,8.153,8.153,0,0,1-6.622,1.983,7.9,7.9,0,0,0,7.148,4.662c4.2,0,7.043-3.8,7.043-7.341V94.973m-27.119,7.181a8.153,8.153,0,0,1,6.622-1.983,7.9,7.9,0,0,0-7.148-4.662c-4.2,0-7.043,3.8-7.043,7.341v13.129a1.638,1.638,0,0,0,.631,1.34l3.732,2.947s.736.643.736-.322V107.673a7.31,7.31,0,0,1,2.47-5.519" transform="translate(-165.647 -90.476)"/>
</svg>
