<svg xmlns="http://www.w3.org/2000/svg" viewBox="0 0 36 36">
  <defs>
    <style>
      .cls-1 {
        fill: #fccf00;
      }

      .cls-2 {
        fill: #293c8f;
      }
    </style>
  </defs>
  <g id="上海银行" transform="translate(-243.953 -93.365)">
    <path id="路径_671" data-name="路径 671" class="cls-1" d="M262.5,108.419a63.611,63.611,0,0,1,12.26,1.071,29.574,29.574,0,0,1,5.189,1.386l-18.1-17.511-17.9,17.448a33.146,33.146,0,0,1,5.968-1.386,65.6,65.6,0,0,1,12.584-1.008Z"/>
    <path id="路径_672" data-name="路径 672" class="cls-2" d="M492.2,529.506l17.448-17.448a68.312,68.312,0,0,0-10.015.126,51.3,51.3,0,0,0-9.26,1.26c-1.575.5-2.331,1.134-2.2,1.953a1.354,1.354,0,0,0,.378.819l.441.378c.63.441.945.63,1.071.756a1.827,1.827,0,0,1,.63,1.827c-.252.945-2.2,2.016-5.8,3.024Z" transform="translate(-229.821 -400.142)"/>
  </g>
</svg>
