<svg xmlns="http://www.w3.org/2000/svg" viewBox="0 0 45 30">
  <defs>
    <style>
      .cls-1 {
        fill: #004187;
      }
    </style>
  </defs>
  <path id="兴业银行" class="cls-1" d="M135.353,165.338c0-6-7.816-10.937-17.467-10.937-7.757,0-14.27,3.187-16.579,7.5a3.317,3.317,0,0,0-.355,1.312,3.259,3.259,0,0,0,1.658,2.687l8.882,5.375a3.411,3.411,0,0,0,1.6.438,2.814,2.814,0,0,0,1.6-.437l8.349-5.062a1.9,1.9,0,0,0,.947-1.438,1.824,1.824,0,0,0-.888-1.437l-3.138-1.875-6.928,4.188-5.27-3.187c2.013-1.938,5.8-3.187,10.125-3.187,6.454,0,11.724,2.875,11.724,6.438-.178,5.5-7.816,9.687-17.171,9.437s-16.757-5-16.579-10.437c.059-7.25,9.118-13.062,20.191-12.875,1.007,0,1.954.063,2.9.125a25.264,25.264,0,0,0-15.039-.438c-7.934,2.25-13.559,7.688-13.559,13.938,0,8.312,10.066,15.125,22.5,15.125,12.434-.125,22.559-6.875,22.5-15.25Z" transform="translate(-90.353 -150.588)"/>
</svg>
