<svg xmlns="http://www.w3.org/2000/svg" viewBox="0 0 39.086 36">
  <defs>
    <style>
      .cls-1 {
        fill: #128b3e;
      }
    </style>
  </defs>
  <path id="邮储银行" class="cls-1" d="M193.5,195.712l-1.319,5.378h-6.422V204.5h7.817l1.627-5.227h13.778l.772-3.562H193.5Zm-9.83,5.378-2.555,10.994h-4.023V215.5h3.481l-.542,1.894h-2.939v3.562h2.321l-2.321,10.761h8.667V228.15H180.03l.464-1.894h5.264v-3.637h-4.412l.388-1.515h4.023v-3.715h-3.405l.464-1.894h2.941v-3.411h-2.247l.467-1.972h1.781v-3.564h-1.085l.542-2.047h.542V201.09H183.67Zm12.923.078-1.624,5.38h-9.21v3.562h10.99l1.471-5.531h9.6l.774-3.411h-12Zm-2.475,10.916L191.8,222.619h-6.039v3.637h7.507l2.555-10.839h9.752l.7-3.334Zm-8.359,0V215.5h3.327l-.386,1.894h-2.941V221.1h4.258l1.935-9.02h-6.193Zm-13.157,0-1.935,8.862h6.425v-3.562h-3.405l.464-1.894h2.941v-3.411H172.6Zm24.458,5.305-2.477,10.761h-8.824v3.562H196.21l2.477-10.61h5.726l.7-3.715H197.06Z" transform="translate(-170.667 -195.712)"/>
</svg>
