<svg xmlns="http://www.w3.org/2000/svg" viewBox="0 0 35.828 36">
  <defs>
    <style>
      .cls-1 {
        fill: #e50012;
      }
    </style>
  </defs>
  <g id="招商银行_1_" data-name="招商银行 (1)" transform="translate(0 0)">
    <path id="路径_655" data-name="路径 655" class="cls-1" d="M566.089,451.382h7.232c0-.329-.164-.493-.164-.822h-7.4Z" transform="translate(-537.657 -436.592)"/>
    <path id="路径_656" data-name="路径 656" class="cls-1" d="M185.825,268.693l-3.791,5.34h-21.2l-3.791-5.512,9.478-23.254,5,12.4,5.342-12.4,4.308,10.852H189.1a18.132,18.132,0,0,0-35.5,5.168,17.93,17.93,0,0,0,34.81,6.029h-3.1l.517,1.378Z" transform="translate(-153.6 -243.2)"/>
    <path id="路径_657" data-name="路径 657" class="cls-1" d="M255.457,446.869,250.526,435.2l-4.766,11.834,19.065.164-4.766-12Zm11.669-8.218h6.9a1.481,1.481,0,0,0-.164-.822H266.8Zm1.315,3.287h5.588v-.822h-5.917Zm5.588-2.465h-6.574l.329.822h6.246v-.822Zm-4.273,5.588h3.616c0-.329.164-.493.164-.822h-4.109Zm-.658-1.644h4.6c0-.329.164-.493.164-.822h-5.1Z" transform="translate(-238.202 -421.964)"/>
  </g>
</svg>
