<svg xmlns="http://www.w3.org/2000/svg" viewBox="0 0 36.001 36">
  <defs>
    <style>
      .cls-1 {
        fill: #d7000f;
      }
    </style>
  </defs>
  <g id="中信银行" transform="translate(0)">
    <path id="路径_643" data-name="路径 643" class="cls-1" d="M301.467,246.457c2.781,1.029,5.4,3.943,5.4,7.2v25.371c.654,0,1.309.171,1.963.171a7.611,7.611,0,0,0,1.963-.171V253.657c0-3.257,2.617-6.171,5.235-7.2.327-.171.491-.343.491-.686a.95.95,0,0,0-.491-.857,15.969,15.969,0,0,0-14.4,0,.8.8,0,0,0-.491.857C300.976,246.114,301.14,246.286,301.467,246.457Z" transform="translate(-290.831 -243.2)"/>
    <path id="路径_644" data-name="路径 644" class="cls-1" d="M166.8,331.267V307.8a5.787,5.787,0,0,0-3.429-5.521v27.606A11.925,11.925,0,0,0,166.8,331.267Zm12.857-1.38V302.281a5.963,5.963,0,0,0-3.429,5.521v23.465A11.925,11.925,0,0,0,179.657,329.886Zm-22.286-19.324a.37.37,0,0,1,.343.345,2.545,2.545,0,0,0,2.229,1.9,1.305,1.305,0,0,0,.857-.345V299.52a17.608,17.608,0,0,0-7.2,14.321,17.936,17.936,0,0,0,7.029,14.32v-12.94a1.305,1.305,0,0,0-.857-.345,2.545,2.545,0,0,0-2.229,1.9.37.37,0,0,1-.343.345c-.171,0-.171-.173-.343-.173a5.2,5.2,0,0,1,0-6.211c.171,0,.343-.173.514-.173Zm30.857,4.313a2.545,2.545,0,0,0-2.229,1.9.37.37,0,0,1-.343.345c-.171,0-.171-.173-.343-.173a5.987,5.987,0,0,1-.857-3.106,4.837,4.837,0,0,1,1.029-3.106.6.6,0,0,1,.343-.173.37.37,0,0,1,.343.345,2.545,2.545,0,0,0,2.229,1.9,1.29,1.29,0,0,0,1.2-.863,17.768,17.768,0,0,0-6.857-12.25v28.468a17.765,17.765,0,0,0,6.686-11.56v-.69C189.086,315.221,188.743,314.876,188.229,314.876Z" transform="translate(-153.6 -295.921)"/>
  </g>
</svg>
