<?xml version="1.0" encoding="UTF-8"?>
<svg width="82px" height="82px" viewBox="0 0 82 82" version="1.1" xmlns="http://www.w3.org/2000/svg" xmlns:xlink="http://www.w3.org/1999/xlink">
    <!-- Generator: Sketch 49.2 (51160) - http://www.bohemiancoding.com/sketch -->
    <title>ic/card_remove_w</title>
    <desc>Created with Sketch.</desc>
    <defs>
        <filter x="-10.0%" y="-7.8%" width="120.0%" height="124.4%" filterUnits="objectBoundingBox" id="filter-1">
            <feOffset dx="0" dy="2" in="SourceAlpha" result="shadowOffsetOuter1"></feOffset>
            <feGaussianBlur stdDeviation="1.5" in="shadowOffsetOuter1" result="shadowBlurOuter1"></feGaussianBlur>
            <feColorMatrix values="0 0 0 0 0   0 0 0 0 0   0 0 0 0 0  0 0 0 0.239639946 0" type="matrix" in="shadowBlurOuter1" result="shadowMatrixOuter1"></feColorMatrix>
            <feMerge>
                <feMergeNode in="shadowMatrixOuter1"></feMergeNode>
                <feMergeNode in="SourceGraphic"></feMergeNode>
            </feMerge>
        </filter>
    </defs>
    <g id="ic/card_remove_w" stroke="none" stroke-width="1" fill="none" fill-rule="evenodd">
        <g id="Group-11">
            <circle id="Oval" fill="#4A90E2" cx="41" cy="41" r="41"></circle>
            <g id="身份证" filter="url(#filter-1)" transform="translate(17.000000, 23.000000)" fill="#FFFFFF">
                <path d="M49,20.6191444 C46.664211,18.3776081 43.4929843,17 40,17 C32.8202983,17 27,22.8202983 27,30 C27,32.1642539 27.5288699,34.2049837 28.4644221,36.0000016 L3.26668262,36 C1.49722754,36 0,34.5755335 0,32.892069 L0,3.10797655 C0,1.42451202 1.49722754,0 3.26668262,0 L45.7333174,0 L45.7333174,4.55261111e-05 C47.5027725,4.55261111e-05 49,1.42451202 49,3.10797655 L49,20.6191444 Z M17.8474847,24.7727101 L17.9800952,24.7727101 L17.9800952,24.2272899 C17.981415,23.9013808 17.8561648,23.5884279 17.6321769,23.3579734 C17.4081889,23.1275189 17.1040175,22.9986527 16.7872535,23.0000106 L7.24452032,23.0000106 C6.92775628,22.9986527 6.6235849,23.1275189 6.39959696,23.3579734 C6.17560902,23.5884279 6.05035886,23.9013808 6.05167867,24.2272899 L6.05167867,24.7727101 C6.05035886,25.0986192 6.17560902,25.4115721 6.39959696,25.6420266 C6.6235849,25.8724811 6.92775628,26.0013473 7.24452032,25.9999894 L16.6546431,25.9999894 C16.9714071,26.0013473 17.2755785,25.8724811 17.4995664,25.6420266 C17.7235544,25.4115721 17.8488045,25.0986192 17.8474847,24.7727101 Z M21.8916322,17.636368 L21.8916322,17.363632 C21.8916322,16.681816 21.3259073,16 20.4773696,16 L7.46589472,16 C6.7587634,16 6.05163208,16.545424 6.05163208,17.363632 L6.05163208,17.636368 C6.05163208,18.318184 6.61735702,19 7.46589472,19 L20.4773199,19 C21.1844512,19 21.8916322,18.454576 21.8916322,17.636368 Z M27.8596094,12 C28.9234472,12 29.8099995,11.3181949 29.8099995,10.5 C29.8099995,9.68180511 28.9234472,9 27.8596094,9 L8.00051401,9 C6.93661386,9 6.04999924,9.68180511 6.04999924,10.4999521 C6.04999924,11.3181949 6.93661386,12 8.00051401,12 L27.8596094,12 Z" id="Shape" fill-rule="nonzero"></path>
                <g id="Group" transform="translate(40.000000, 30.000000) rotate(45.000000) translate(-40.000000, -30.000000) translate(30.000000, 20.000000)">
                    <path d="M9,9 L5,9 L5,11 L9,11 L9,15 L11,15 L11,11 L15,11 L15,9 L11,9 L11,5 L9,5 L9,9 Z M10,20 C4.4771525,20 0,15.5228475 0,10 C0,4.4771525 4.4771525,0 10,0 C15.5228475,0 20,4.4771525 20,10 C20,15.5228475 15.5228475,20 10,20 Z" id="Combined-Shape"></path>
                </g>
            </g>
        </g>
    </g>
</svg>