<?xml version="1.0" encoding="UTF-8"?>
<svg width="82px" height="82px" viewBox="0 0 82 82" version="1.1" xmlns="http://www.w3.org/2000/svg" xmlns:xlink="http://www.w3.org/1999/xlink">
    <!-- Generator: Sketch 49.2 (51160) - http://www.bohemiancoding.com/sketch -->
    <title>ic/card_remove</title>
    <desc>Created with Sketch.</desc>
    <defs>
        <circle id="path-1" cx="10" cy="10" r="10"></circle>
    </defs>
    <g id="ic/card_remove" stroke="none" stroke-width="1" fill="none" fill-rule="evenodd">
        <g id="Group-11">
            <circle id="Oval" fill="#FFFFFF" cx="41" cy="41" r="41"></circle>
            <g id="身份证" transform="translate(17.000000, 23.000000)" fill="#4A90E2" fill-rule="nonzero">
                <path d="M45.7333174,0 L3.26668262,0 C1.49722754,0 0,1.42451202 0,3.10797655 L0,32.892069 C0,34.5755335 1.49722754,36 3.26668262,36 L45.7333174,36 C47.5027725,36 49,34.575488 49,32.892069 L49,3.10797655 C49,1.42451202 47.5027725,4.55261111e-05 45.7333174,4.55261111e-05 L45.7333174,0 Z M17.8474847,24.7727101 C17.8488045,25.0986192 17.7235544,25.4115721 17.4995664,25.6420266 C17.2755785,25.8724811 16.9714071,26.0013473 16.6546431,25.9999894 L7.24452032,25.9999894 C6.92775628,26.0013473 6.6235849,25.8724811 6.39959696,25.6420266 C6.17560902,25.4115721 6.05035886,25.0986192 6.05167867,24.7727101 L6.05167867,24.2272899 C6.05035886,23.9013808 6.17560902,23.5884279 6.39959696,23.3579734 C6.6235849,23.1275189 6.92775628,22.9986527 7.24452032,23.0000106 L16.7872535,23.0000106 C17.1040175,22.9986527 17.4081889,23.1275189 17.6321769,23.3579734 C17.8561648,23.5884279 17.981415,23.9013808 17.9800952,24.2272899 L17.9800952,24.7727101 L17.8474847,24.7727101 Z M21.8916322,17.636368 C21.8916322,18.454576 21.1844512,19 20.4773199,19 L7.46589472,19 C6.61735702,19 6.05163208,18.318184 6.05163208,17.636368 L6.05163208,17.363632 C6.05163208,16.545424 6.7587634,16 7.46589472,16 L20.4773696,16 C21.3259073,16 21.8916322,16.681816 21.8916322,17.363632 L21.8916322,17.636368 Z M27.8596094,12 L8.00051401,12 C6.93661386,12 6.04999924,11.3181949 6.04999924,10.4999521 C6.04999924,9.68180511 6.93661386,9 8.00051401,9 L27.8596094,9 C28.9234472,9 29.8099995,9.68180511 29.8099995,10.5 C29.8099995,11.3181949 28.9234472,12 27.8596094,12 Z" id="Shape"></path>
            </g>
        </g>
        <g id="Group" transform="translate(56.000000, 53.000000) rotate(45.000000) translate(-56.000000, -53.000000) translate(46.000000, 43.000000)">
            <g id="Oval-2">
                <use fill="#4A90E2" fill-rule="evenodd" xlink:href="#path-1"></use>
                <circle stroke="#FFFFFF" stroke-width="3" cx="10" cy="10" r="11.5"></circle>
            </g>
            <path d="M9,9 L9,5 L11,5 L11,9 L15,9 L15,11 L11,11 L11,15 L9,15 L9,11 L5,11 L5,9 L9,9 Z" id="Combined-Shape" fill="#FFFFFF"></path>
        </g>
    </g>
</svg>