<?xml version="1.0" encoding="UTF-8"?>
<svg width="82px" height="82px" viewBox="0 0 82 82" version="1.1" xmlns="http://www.w3.org/2000/svg" xmlns:xlink="http://www.w3.org/1999/xlink">
    <!-- Generator: Sketch 49.2 (51160) - http://www.bohemiancoding.com/sketch -->
    <title>ic/card</title>
    <desc>Created with Sketch.</desc>
    <defs></defs>
    <g id="ic/card" stroke="none" stroke-width="1" fill="none" fill-rule="evenodd">
        <g id="Group-11">
            <circle id="Oval" fill="#FFFFFF" cx="41" cy="41" r="41"></circle>
            <g id="身份证" transform="translate(17.000000, 23.000000)" fill="#4A90E2" fill-rule="nonzero">
                <path d="M45.7333174,0 L3.26668262,0 C1.49722754,0 0,1.42451202 0,3.10797655 L0,32.892069 C0,34.5755335 1.49722754,36 3.26668262,36 L45.7333174,36 C47.5027725,36 49,34.575488 49,32.892069 L49,3.10797655 C49,1.42451202 47.5027725,4.55261111e-05 45.7333174,4.55261111e-05 L45.7333174,0 Z M35.5,8 C38.2631396,8 40.5,10.2368141 40.5,13 C40.5,15.7631859 38.2631396,18 35.4999537,18 C32.7368141,18 30.5,15.7631396 30.5,12.9999537 C30.5,10.2367678 32.7368141,8 35.5,8 Z M17.8474847,24.7727101 C17.8488045,25.0986192 17.7235544,25.4115721 17.4995664,25.6420266 C17.2755785,25.8724811 16.9714071,26.0013473 16.6546431,25.9999894 L7.24452032,25.9999894 C6.92775628,26.0013473 6.6235849,25.8724811 6.39959696,25.6420266 C6.17560902,25.4115721 6.05035886,25.0986192 6.05167867,24.7727101 L6.05167867,24.2272899 C6.05035886,23.9013808 6.17560902,23.5884279 6.39959696,23.3579734 C6.6235849,23.1275189 6.92775628,22.9986527 7.24452032,23.0000106 L16.7872535,23.0000106 C17.1040175,22.9986527 17.4081889,23.1275189 17.6321769,23.3579734 C17.8561648,23.5884279 17.981415,23.9013808 17.9800952,24.2272899 L17.9800952,24.7727101 L17.8474847,24.7727101 Z M20.8958941,17.636368 C20.8958941,18.454576 20.233168,19 19.5704886,19 L7.37699098,19 C6.58179427,19 6.05163208,18.318184 6.05163208,17.636368 L6.05163208,17.363632 C6.05163208,16.545424 6.71431153,16 7.37699098,16 L19.5705352,16 C20.3657319,16 20.8958941,16.681816 20.8958941,17.363632 L20.8958941,17.636368 Z M22.3538168,12 L7.50955482,12 C6.71431153,12 6.05158548,11.3181949 6.05158548,10.4999521 C6.05158548,9.68180511 6.71431153,9 7.50955482,9 L22.3538168,9 C23.1490135,9 23.811693,9.68180511 23.811693,10.5 C23.811693,11.3181949 23.1490135,12 22.3538168,12 Z M43.5207535,26.9253663 C43.5220685,27.2107373 43.3972735,27.4847636 43.1740996,27.6865531 C42.9509257,27.8883425 42.6478597,28.0011797 42.3322468,27.9999907 L28.5984953,27.9999907 C28.2828824,28.0011797 27.9798164,27.8883425 27.7566425,27.6865531 C27.5334686,27.4847636 27.4086736,27.2107373 27.4099886,26.9253663 L27.4099886,23.2238731 C27.4099886,21.4328605 28.9946487,20 30.9755086,20 L40.0874084,20 C42.0682219,20 43.6529284,21.4328605 43.6529284,23.2238731 L43.6529284,26.9253663 L43.5207535,26.9253663 Z" id="Shape"></path>
            </g>
        </g>
    </g>
</svg>