<?xml version="1.0" encoding="UTF-8"?>
<svg width="82px" height="82px" viewBox="0 0 82 82" version="1.1" xmlns="http://www.w3.org/2000/svg" xmlns:xlink="http://www.w3.org/1999/xlink">
    <!-- Generator: Sketch 49.2 (51160) - http://www.bohemiancoding.com/sketch -->
    <title>ic/chart_up_w</title>
    <desc>Created with Sketch.</desc>
    <defs>
        <filter x="-11.7%" y="-8.5%" width="123.4%" height="126.8%" filterUnits="objectBoundingBox" id="filter-1">
            <feOffset dx="0" dy="2" in="SourceAlpha" result="shadowOffsetOuter1"></feOffset>
            <feGaussianBlur stdDeviation="1.5" in="shadowOffsetOuter1" result="shadowBlurOuter1"></feGaussianBlur>
            <feColorMatrix values="0 0 0 0 0   0 0 0 0 0   0 0 0 0 0  0 0 0 0.239639946 0" type="matrix" in="shadowBlurOuter1" result="shadowMatrixOuter1"></feColorMatrix>
            <feMerge>
                <feMergeNode in="shadowMatrixOuter1"></feMergeNode>
                <feMergeNode in="SourceGraphic"></feMergeNode>
            </feMerge>
        </filter>
    </defs>
    <g id="ic/chart_up_w" stroke="none" stroke-width="1" fill="none" fill-rule="evenodd">
        <circle id="Oval" fill="#4A90E2" cx="41" cy="41" r="41"></circle>
        <g id="Group" filter="url(#filter-1)" transform="translate(20.000000, 22.000000)" fill="#FFFFFF">
            <path d="M24.6300593,26.9905384 C24.2210235,28.2533953 24,29.6008863 24,31 C24,34.0167983 25.0276021,36.7935873 26.7518722,38.9994328 L2.27384695,39 C1.36371745,38.9991676 0.00207595604,38.1902555 0,37.3113758 L0,26.885463 C0,25.1918935 1.40721126,24.3056694 2.330556,25.1547309 L7.47411684,29.0695403 C8.16515704,29.6417669 9.20369202,30.4201263 9.7817192,29.7415038 L15.6768774,22.8197996 C16.2550058,22.1412261 17.297794,21.1831248 17.9943532,21.7495738 L23.067129,26.0204886 C23.451704,26.3329326 24.063713,26.7741415 24.6300593,26.9905384 Z M32.8015614,18.6928846 L38.3937606,12.1757581 C40.0986268,10.2937803 42,10.7353256 42,13.0410752 L42,18.9963267 C40.4608158,18.3544563 38.7718018,18 37,18 C35.5308609,18 34.1186413,18.2437015 32.8015614,18.6928846 Z M25.7322142,20.9292277 C25.2608071,21.4966608 24.5648329,21.8587409 23.8035727,21.9339602 C23.0409333,22.018876 22.2808992,21.7893298 21.6955227,21.3269253 L15.9224714,16.7582269 L10.1240823,23.9499535 C9.66079761,24.5230509 8.97090241,24.8964594 8.2104596,24.9814712 C8.09996398,24.9935197 7.98890644,25 7.87795106,25 C7.2315287,25 6.60007408,24.7897507 6.09423607,24.4001654 L1.03391476,20.5096411 C-0.170860404,19.5840641 -0.348480962,17.9149342 0.636886578,16.782804 C1.62148785,15.6491378 3.39738692,15.4834345 4.60175341,16.4097315 L7.3991878,18.5599387 L13.2221485,11.3366748 C13.6891624,10.7570491 14.3877419,10.3844086 15.1551322,10.303621 C15.9280396,10.2244175 16.6924159,10.4434512 17.2834117,10.9090238 L23.0878799,15.5032593 L30.5874316,6.66409981 L28.4974654,5.03284355 C27.0144845,3.87570429 27.3438769,2.62198476 29.2295564,2.24737617 L40.098637,0.0870884752 C41.9839589,-0.28756812 42.5671387,0.581750386 41.3946489,2.01979809 L25.7323164,20.9290357 L25.7322142,20.9292277 Z" id="Shape" fill-rule="nonzero"></path>
            <path d="M36,30 L32,30 L32,32 L36,32 L36,36 L38,36 L38,32 L42,32 L42,30 L38,30 L38,26 L36,26 L36,30 Z M37,41 C31.4771525,41 27,36.5228475 27,31 C27,25.4771525 31.4771525,21 37,21 C42.5228475,21 47,25.4771525 47,31 C47,36.5228475 42.5228475,41 37,41 Z" id="Combined-Shape"></path>
        </g>
    </g>
</svg>