<?xml version="1.0" encoding="UTF-8"?>
<svg width="82px" height="82px" viewBox="0 0 82 82" version="1.1" xmlns="http://www.w3.org/2000/svg" xmlns:xlink="http://www.w3.org/1999/xlink">
    <!-- Generator: Sketch 49.2 (51160) - http://www.bohemiancoding.com/sketch -->
    <title>ic/chart_up</title>
    <desc>Created with Sketch.</desc>
    <defs>
        <circle id="path-1" cx="10" cy="10" r="10"></circle>
    </defs>
    <g id="ic/chart_up" stroke="none" stroke-width="1" fill="none" fill-rule="evenodd">
        <circle id="Oval" fill="#FFFFFF" cx="41" cy="41" r="41"></circle>
        <path d="M22.273847,61 C21.3637174,60.9991676 20.002076,60.1902555 20,59.3113758 L20,48.885463 C20,47.1918935 21.4072113,46.3056694 22.330556,47.1547309 L27.4741168,51.0695403 C28.165157,51.6417669 29.203692,52.4201263 29.7817192,51.7415038 L35.6768774,44.8197996 C36.2550058,44.1412261 37.297794,43.1831248 37.9943532,43.7495738 L43.067129,48.0204886 C43.7633844,48.5861542 45.2051106,49.573878 45.7716947,48.885463 L58.3937606,34.1757581 C60.0986268,32.2937803 62,32.7353256 62,35.0410752 C62,36.7593218 62,59.3113758 62,59.3113758 C61.9999494,60.1902555 61.216757,60.999951 60.3070325,60.9991187 L22.273847,61 Z M45.7322142,42.9292277 C45.2608071,43.4966608 44.5648329,43.8587409 43.8035727,43.9339602 C43.0409333,44.018876 42.2808992,43.7893298 41.6955227,43.3269253 L35.9224714,38.7582269 L30.1240823,45.9499535 C29.6607976,46.5230509 28.9709024,46.8964594 28.2104596,46.9814712 C28.099964,46.9935197 27.9889064,47 27.8779511,47 C27.2315287,47 26.6000741,46.7897507 26.0942361,46.4001654 L21.0339148,42.5096411 C19.8291396,41.5840641 19.651519,39.9149342 20.6368866,38.782804 C21.6214879,37.6491378 23.3973869,37.4834345 24.6017534,38.4097315 L27.3991878,40.5599387 L33.2221485,33.3366748 C33.6891624,32.7570491 34.3877419,32.3844086 35.1551322,32.303621 C35.9280396,32.2244175 36.6924159,32.4434512 37.2834117,32.9090238 L43.0878799,37.5032593 L50.5874316,28.6640998 L48.4974654,27.0328435 C47.0144845,25.8757043 47.3438769,24.6219848 49.2295564,24.2473762 L60.098637,22.0870885 C61.9839589,21.7124319 62.5671387,22.5817504 61.3946489,24.0197981 L45.7323164,42.9290357 L45.7322142,42.9292277 Z" id="Shape" fill="#2C85E5" fill-rule="nonzero"></path>
        <g id="Group" transform="translate(47.000000, 43.000000)">
            <g id="Oval-2">
                <use fill="#4A90E2" fill-rule="evenodd" xlink:href="#path-1"></use>
                <circle stroke="#FFFFFF" stroke-width="3" cx="10" cy="10" r="11.5"></circle>
            </g>
            <path d="M9,9 L9,5 L11,5 L11,9 L15,9 L15,11 L11,11 L11,15 L9,15 L9,11 L5,11 L5,9 L9,9 Z" id="Combined-Shape" fill="#FFFFFF"></path>
        </g>
    </g>
</svg>