<?xml version="1.0" encoding="UTF-8"?>
<svg width="82px" height="82px" viewBox="0 0 82 82" version="1.1" xmlns="http://www.w3.org/2000/svg" xmlns:xlink="http://www.w3.org/1999/xlink">
    <!-- Generator: Sketch 49.2 (51160) - http://www.bohemiancoding.com/sketch -->
    <title>ic/code_open</title>
    <desc>Created with Sketch.</desc>
    <defs></defs>
    <g id="ic/code_open" stroke="none" stroke-width="1" fill="none" fill-rule="evenodd">
        <circle id="Oval" fill="#FFFFFF" cx="41" cy="41" r="41"></circle>
        <rect id="Rectangle-11" fill="#4A90E2" x="23" y="36" width="36" height="26" rx="4"></rect>
        <path d="M39.8700153,49.7799081 C38.7732202,49.3336308 38,48.257113 38,47 C38,45.3431458 39.3431458,44 41,44 C42.6568542,44 44,45.3431458 44,47 C44,48.257113 43.2267798,49.3336308 42.1299847,49.7799081 L43,55 L39,55 L39.8700153,49.7799081 Z" id="Combined-Shape" fill="#FFFFFF"></path>
        <path d="M32,41 L50,41 L50,29 C50,24.0294373 45.9705627,20 41,20 C36.0294373,20 32,24.0294373 32,29 L32,41 Z" id="Rectangle" stroke="#4A90E2" stroke-width="4"></path>
        <rect id="Rectangle-3" fill="#FFFFFF" x="47" y="32" width="7" height="4"></rect>
    </g>
</svg>