<?xml version="1.0" encoding="UTF-8"?>
<svg width="82px" height="82px" viewBox="0 0 82 82" version="1.1" xmlns="http://www.w3.org/2000/svg" xmlns:xlink="http://www.w3.org/1999/xlink">
    <!-- Generator: Sketch 49.2 (51160) - http://www.bohemiancoding.com/sketch -->
    <title>ic/code_reset_w</title>
    <desc>Created with Sketch.</desc>
    <defs>
        <path d="M30,34 L30,29.9998 C30,23.9248 34.925,18.9998 41,18.9998 C47.075,18.9998 52,23.9248 52,29.9998 L52,34 L55,34 C57.209139,34 59,35.790861 59,38 L59,58 C59,60.209139 57.209139,62 55,62 L27,62 C24.790861,62 23,60.209139 23,58 L23,38 C23,35.790861 24.790861,34 27,34 L30,34 Z M34,34 L48,34 L48,29.9998 C48,26.1338 44.866,22.9998 41,22.9998 C37.134,22.9998 34,26.1338 34,29.9998 L34,34 Z M48.3317873,44.8786933 C47.9851653,44.2792903 47.2184875,44.0754585 46.6239815,44.4209013 C46.0258777,44.7651048 45.8208467,45.5293041 46.1662694,46.1274678 C46.7119062,47.0722935 47.000005,48.152594 47.000005,49.2500037 C47.000005,52.6961161 44.1960287,55.5000324 40.7499563,55.5000324 C37.3039238,55.5000324 34.5000275,52.6961161 34.5000275,49.2500037 C34.5000275,45.8039713 37.3039238,43.000015 40.7499563,43.000015 C40.751895,43.000015 40.7538338,43.0000749 40.7557726,43.0000749 C40.756672,43.7577184 40.7573316,44.3421508 40.7573316,44.4136258 C40.7573316,45.0141681 40.7512355,45.5000225 41.3920524,45.5000225 C41.7168081,45.5000225 42.0085046,45.3731023 42.2184926,45.1703898 L42.2233695,45.1728482 C42.2233695,45.1728482 45.4862971,42.106457 45.6413196,41.9795168 C45.7195504,41.9135783 45.7524497,41.8305705 45.7499912,41.7500212 C45.748732,41.6719303 45.7158927,41.5961979 45.6572296,41.5425117 C45.5375449,41.4301824 42.1940079,38.3026696 42.1940079,38.3026696 L42.1879518,38.3076065 C41.979243,38.1196847 41.6972204,38 41.384697,38 C40.7438601,38 40.7512155,38.4858744 40.7512155,39.0864167 C40.7512155,39.1552534 40.7518751,39.7405852 40.7527745,40.5000475 C40.7518151,40.5000475 40.7508757,40.5000275 40.7499163,40.5000275 C35.9244115,40.5000275 32,44.4257782 32,49.2500037 C32,54.0742693 35.9244315,58 40.7499163,58 C45.5742018,58 49.4999925,54.0742693 49.4999925,49.2500037 C49.5000125,47.7143896 49.0959466,46.2031402 48.3317873,44.8786933 Z" id="path-1"></path>
        <filter x="-15.3%" y="-8.1%" width="130.6%" height="125.6%" filterUnits="objectBoundingBox" id="filter-2">
            <feOffset dx="0" dy="2" in="SourceAlpha" result="shadowOffsetOuter1"></feOffset>
            <feGaussianBlur stdDeviation="1.5" in="shadowOffsetOuter1" result="shadowBlurOuter1"></feGaussianBlur>
            <feColorMatrix values="0 0 0 0 0   0 0 0 0 0   0 0 0 0 0  0 0 0 0.239639946 0" type="matrix" in="shadowBlurOuter1"></feColorMatrix>
        </filter>
    </defs>
    <g id="ic/code_reset_w" stroke="none" stroke-width="1" fill="none" fill-rule="evenodd">
        <circle id="Oval" fill="#4A90E2" cx="41" cy="41" r="41"></circle>
        <g id="Combined-Shape">
            <use fill="black" fill-opacity="1" filter="url(#filter-2)" xlink:href="#path-1"></use>
            <use fill="#FFFFFF" fill-rule="evenodd" xlink:href="#path-1"></use>
        </g>
    </g>
</svg>