<?xml version="1.0" encoding="UTF-8"?>
<svg width="82px" height="82px" viewBox="0 0 82 82" version="1.1" xmlns="http://www.w3.org/2000/svg" xmlns:xlink="http://www.w3.org/1999/xlink">
    <!-- Generator: Sketch 49.2 (51160) - http://www.bohemiancoding.com/sketch -->
    <title>ic/experience</title>
    <desc>Created with Sketch.</desc>
    <defs></defs>
    <g id="ic/experience" stroke="none" stroke-width="1" fill="none" fill-rule="evenodd">
        <g id="ic/金融">
            <g id="Group-11">
                <circle id="Oval" fill="#FFFFFF" cx="41" cy="41" r="41"></circle>
                <g id="dynamic_fill" transform="translate(21.000000, 20.000000)" fill="#4A90E2" fill-rule="nonzero">
                    <path d="M35.4204069,19.2700878 L26.7979064,27.6173888 C26.4275661,27.977967 25.9239993,28.1807116 25.3987538,28.1807116 C24.8735083,28.1807116 24.3699415,27.977967 23.9996012,27.6173888 L17.670761,21.4905427 L9.37083737,29.4450971 C8.99813647,29.8031802 8.4934826,30.0028453 7.96839718,29.9999694 C7.44331176,29.9970934 6.9410239,29.7919131 6.57253217,29.4297704 C5.80377886,28.6779392 5.80998043,27.4652032 6.58638517,26.7207772 L16.2854614,17.4251369 C17.0597528,16.683166 18.307896,16.6865914 19.0778296,17.4328003 L25.3987538,23.5538989 L32.6221017,16.5610945 C33.1219708,16.0771795 33.8505459,15.8881891 34.5333797,16.0653143 C35.2162136,16.2424395 35.7495676,16.7587707 35.9325323,17.419811 C36.1154971,18.0808512 35.920276,18.7861728 35.4204069,19.2700878 M38.1970909,0 L3.80290909,0 C1.7034928,0.00210467957 0.00210467957,1.7034928 0,3.80290909 L0,38.1970909 C0,40.2951818 1.70481818,42 3.80290909,42 L38.1970909,42 C40.2965072,41.9978953 41.9978953,40.2965072 42,38.1970909 L42,3.80290909 C41.996846,1.70392821 40.2960718,0.00315399614 38.1970909,0" id="Shape"></path>
                </g>
            </g>
        </g>
    </g>
</svg>