<?xml version="1.0" encoding="UTF-8"?>
<svg width="82px" height="82px" viewBox="0 0 82 82" version="1.1" xmlns="http://www.w3.org/2000/svg" xmlns:xlink="http://www.w3.org/1999/xlink">
    <!-- Generator: Sketch 49.2 (51160) - http://www.bohemiancoding.com/sketch -->
    <title>ic/file_reset</title>
    <desc>Created with Sketch.</desc>
    <defs></defs>
    <g id="ic/file_reset" stroke="none" stroke-width="1" fill="none" fill-rule="evenodd">
        <circle id="Oval" fill="#FFFFFF" cx="41" cy="41" r="41"></circle>
        <rect id="Rectangle-11" fill="#4A90E2" x="21" y="20" width="40" height="40" rx="4"></rect>
        <rect id="Rectangle" fill="#FFFFFF" x="28" y="27" width="26" height="3"></rect>
        <rect id="Rectangle-Copy" fill="#FFFFFF" x="28" y="36" width="11" height="3"></rect>
        <rect id="Rectangle-Copy-2" fill="#FFFFFF" x="28" y="45" width="6" height="3"></rect>
        <path d="M53.9319262,45.2890937 C53.6150146,44.7410679 52.9140517,44.5547073 52.3705031,44.8705408 C51.8236651,45.1852413 51.6362081,45.8839381 51.9520233,46.4308309 C52.4508914,47.2946719 52.7142962,48.2823757 52.7142962,49.2857221 C52.7142962,52.4364548 50.1506596,55.0000365 46.9999635,55.0000365 C43.8493039,55.0000365 41.2857404,52.4364548 41.2857404,49.2857221 C41.2857404,46.1350625 43.8493039,43.5714442 46.9999635,43.5714442 C47.0061036,44.2642019 47.0067066,44.7985403 47.0067066,44.863889 C47.0067066,45.4129564 47.001133,45.8571663 47.587023,45.8571663 C47.8839427,45.8571663 48.1506367,45.741125 48.3426258,45.5557878 C48.3470847,45.5580355 51.3303341,42.7544766 51.472069,42.638417 C51.5435943,42.5781303 51.5736737,42.5022374 51.571426,42.4285923 C51.5702747,42.3571949 51.5402501,42.2879538 51.4866153,42.2388692 C51.3771892,42.1361681 48.3202398,39.2767266 48.3202398,39.2767266 C48.1238833,39.1094261 47.8660339,39 47.5802981,39 C46.9943898,39 47.0011147,39.4442282 47.0011147,39.9932956 C47.0011147,40.0562321 47.0017178,40.5913928 47.0025401,41.2857587 C42.5880349,41.2857404 39,44.8749997 39,49.2857221 C39,53.6964811 42.5880532,57.2857221 46.9999269,57.2857221 C51.4107041,57.2857221 55,53.6964811 55,49.2857221 C55.0000183,47.8817315 54.6305865,46.5000171 53.9319262,45.2890937 Z" id="Shape" fill="#FFFFFF" fill-rule="nonzero"></path>
    </g>
</svg>