<?xml version="1.0" encoding="UTF-8"?>
<svg width="82px" height="82px" viewBox="0 0 82 82" version="1.1" xmlns="http://www.w3.org/2000/svg" xmlns:xlink="http://www.w3.org/1999/xlink">
    <!-- Generator: Sketch 49.2 (51160) - http://www.bohemiancoding.com/sketch -->
    <title>ic/house_add_w</title>
    <desc>Created with Sketch.</desc>
    <defs>
        <filter x="-11.5%" y="-8.0%" width="122.9%" height="125.0%" filterUnits="objectBoundingBox" id="filter-1">
            <feOffset dx="0" dy="2" in="SourceAlpha" result="shadowOffsetOuter1"></feOffset>
            <feGaussianBlur stdDeviation="1.5" in="shadowOffsetOuter1" result="shadowBlurOuter1"></feGaussianBlur>
            <feColorMatrix values="0 0 0 0 0   0 0 0 0 0   0 0 0 0 0  0 0 0 0.239639946 0" type="matrix" in="shadowBlurOuter1" result="shadowMatrixOuter1"></feColorMatrix>
            <feMerge>
                <feMergeNode in="shadowMatrixOuter1"></feMergeNode>
                <feMergeNode in="SourceGraphic"></feMergeNode>
            </feMerge>
        </filter>
    </defs>
    <g id="ic/house_add_w" stroke="none" stroke-width="1" fill="none" fill-rule="evenodd">
        <circle id="Oval" fill="#4A90E2" cx="41" cy="41" r="41"></circle>
        <g id="Group-2" filter="url(#filter-1)" transform="translate(19.000000, 19.000000)" fill="#FFFFFF">
            <path d="M40,21.1528964 C39.3480602,21.0522295 38.6801295,21 38,21 C30.8202983,21 25,26.8202983 25,34 C25,38.020876 26.8254662,41.6153915 29.692852,44 L9,44 C7.34314575,44 6,42.6568542 6,41 L6,17 L2,17 C1.2873952,17.3430197 0.74754529,16.3017314 1,16 L22,1 C22.6126255,0.973967793 23.4161777,0.973967793 24,1 L45,16 C45.1966735,16.3017314 44.8583357,17.3430197 44,17 L40,17 L40,21.1528964 Z M18,35 L18,32 L11,32 L11,35 L18,35 Z M25,26 L25,23 L11,23 L11,26 L25,26 Z" id="Shape" fill-rule="nonzero"></path>
            <path d="M37,33 L33,33 L33,35 L37,35 L37,39 L39,39 L39,35 L43,35 L43,33 L39,33 L39,29 L37,29 L37,33 Z M38,44 C32.4771525,44 28,39.5228475 28,34 C28,28.4771525 32.4771525,24 38,24 C43.5228475,24 48,28.4771525 48,34 C48,39.5228475 43.5228475,44 38,44 Z" id="Combined-Shape"></path>
        </g>
    </g>
</svg>