<svg id="ic_shield" data-name="ic/shield" xmlns="http://www.w3.org/2000/svg" width="84" height="82" viewBox="0 0 84 82">
  <g id="Group-9">
    <ellipse id="Oval" cx="42" cy="41" rx="42" ry="41" fill="#fff"/>
    <g id="transaction_fill" transform="translate(20.488 19)">
      <path id="Shape" d="M4.8,4.443,15.684.686a17.151,17.151,0,0,1,9.607,0L36.172,4.443a7.537,7.537,0,0,1,4.8,6.623V26.609C40.976,38.791,20.488,46,20.488,46S0,38.791,0,26.609V11.065A7.5,7.5,0,0,1,4.8,4.443Z" fill="#508cee"/>
      <path id="Path" d="M29.2,25.5A1.524,1.524,0,0,1,27.61,27H22.073v5.428a1.585,1.585,0,0,1-3.17,0V27H13.365a1.5,1.5,0,1,1,0-3H18.9V21H13.365a1.5,1.5,0,1,1,0-3H17.9l-4.128-4.326a1.564,1.564,0,0,1,0-2.217,1.6,1.6,0,0,1,2.236,0l4.483,4.883,5.363-4.883a1.6,1.6,0,0,1,2.236,0,1.564,1.564,0,0,1,0,2.217L23.959,18H27.61a1.5,1.5,0,1,1,0,3H22.073v3H27.61A1.528,1.528,0,0,1,29.2,25.5Z" fill="#fff" fill-rule="evenodd"/>
    </g>
  </g>
</svg>
