<svg xmlns="http://www.w3.org/2000/svg" xmlns:xlink="http://www.w3.org/1999/xlink" viewBox="0 0 56 56">
  <defs>
    <style>
      .cls-1 {
        clip-path: url(#clip-ic_gqjlwgrkh境内上市公司股权激励的外国人开户);
      }

      .cls-2 {
        fill: #ffffff;
      }
    </style>
    <clipPath id="clip-ic_gqjlwgrkh境内上市公司股权激励的外国人开户">
      <rect width="56" height="56"/>
    </clipPath>
  </defs>
  <g id="ic_gqjlwgrkh境内上市公司股权激励的外国人开户" data-name="ic/gqjlwgrkh境内上市公司股权激励的外国人开户" class="cls-1">
    <g id="股权抽奖" transform="translate(-67.51 4.054)">
      <g id="基金_2_" data-name="基金 (2)" transform="translate(15.458 -78.986)">
        <path id="路径_743" data-name="路径 743" class="cls-2" d="M78.631,361.3v.254c0,.533-.006,1.068.6,1.068s.641-.458.641-1.068V361.3c-.3.152-.337.311-.641.311C78.777,361.613,78.937,361.453,78.631,361.3Zm6.044-2.566v3.3c0,.533,0,1.07.608,1.07s.65-.459.65-1.07v-3.912l-.675-.458-.584,1.068Zm5.941,1.179v2.778c0,.533-.017,1.066.593,1.066s.652-.456.652-1.066v-2.778c-.3.152-.321.229-.7.229C90.776,360.066,90.922,360.066,90.616,359.915Zm5.965.568c0,.533,0,1.068.608,1.068s.651-.458.651-1.068l-.018-4.338-1.259,1.449.018,2.889h0Z" transform="translate(-7.985 -249.462)"/>
        <path id="路径_744" data-name="路径 744" class="cls-2" d="M92.335,103.5a.947.947,0,0,0-.868-.959l-4.945-.16c-.61.031-.879.188-.879.721s.324.656.857.656L90,103.7l-6.8,4.511-5.314-3.1a1.179,1.179,0,0,0-.614-.138,1.514,1.514,0,0,0-.726.317l-5.279,3.365a.589.589,0,0,0,.075.923c.383.28.816-.087,1.043-.238l4.962-3,5.294,3a1.238,1.238,0,0,0,.567.2.941.941,0,0,0,.635-.162l7.289-4.986-.246,3.151c-.037.563.1.9.631.9s.709-.37.709-.98l.109-3.969Z" transform="translate(0 0)"/>
      </g>
      <path id="路径_690" data-name="路径 690" class="cls-2" d="M113.949,37.075l-4.557-6.39a17.52,17.52,0,1,0-26.606,0l-4.2,6.21a.973.973,0,0,0,.235,1.333L80.291,39.3a.98.98,0,0,0,.747.169l2.791-.509.5,2.929a.977.977,0,0,0,.387.624l1.475,1.072a.99.99,0,0,0,.572.183.9.9,0,0,0,.168-.016.97.97,0,0,0,.638-.414l4.7-6.951a17.627,17.627,0,0,0,7.638,0l5.057,7.131a.97.97,0,0,0,.638.414.9.9,0,0,0,.168.016.989.989,0,0,0,.571-.183l1.475-1.072a.977.977,0,0,0,.387-.624l.5-2.929,2.791.509a.98.98,0,0,0,.746-.169l1.475-1.071A.973.973,0,0,0,113.949,37.075ZM86.518,41.413l-.339-.246-.6-3.509a.972.972,0,0,0-1.134-.793l-3.35.612-.377-.272,3.443-5.085A17.513,17.513,0,0,0,90.3,35.825Zm9.571-6.555a15.574,15.574,0,1,1,15.574-15.574A15.574,15.574,0,0,1,96.089,34.858Zm15.344,2.8-3.35-.612a.972.972,0,0,0-1.134.793l-.6,3.509-.339.246-4.137-5.769a17.514,17.514,0,0,0,6.136-3.705l3.8,5.265Z" transform="translate(0.823 1.486)"/>
      <path id="路径_746" data-name="路径 746" class="cls-2" d="M8.547-10.9v1.953A15.67,15.67,0,0,1,2.078,2.211,22.849,22.849,0,0,0,.516.461,14.684,14.684,0,0,0,4.266-3.3q-.836-.8-1.844-1.68l1.25-1.547Q4.586-5.8,5.32-5.172A13.726,13.726,0,0,0,6.406-8.82H4.07A20.867,20.867,0,0,1,1.188-3.789,21.67,21.67,0,0,0,.109-6.039,18.526,18.526,0,0,0,3.2-13.4l2.172.375q-.25,1.1-.562,2.125Zm3.844,1.891Q14.5-6.648,15.906-4.789l-1.75,1.422q-1.3-1.875-2.594-3.461V2.133H9.375V-13.242h2.188v4.875Z" transform="translate(88.91 23.377)"/>
    </g>
  </g>
</svg>
