<?xml version="1.0" encoding="UTF-8"?>
<svg width="56px" height="56px" viewBox="0 0 56 56" version="1.1" xmlns="http://www.w3.org/2000/svg" xmlns:xlink="http://www.w3.org/1999/xlink">
    <!-- Generator: Sketch 52.6 (67491) - http://www.bohemiancoding.com/sketch -->
    <title>icon-v0003</title>
    <desc>Created with Sketch.</desc>
    <g id="icon-v0003" stroke="none" stroke-width="1" fill="none" fill-rule="evenodd">
        <rect id="Rectangle" x="0" y="0" width="56" height="56"></rect>
        <g id="ic_ztgczd转托管和撤指定-2" transform="translate(5.665000, 9.553000)" fill="#ffffff" fill-rule="nonzero">
            <path d="M22.912,17.115 C18.2446416,17.115 14.461,13.3313584 14.461,8.664 C14.461,3.99664158 18.2446416,0.213 22.912,0.213 C27.5793584,0.213 31.363,3.99664158 31.363,8.664 C31.3585897,13.3295304 27.5775304,17.1105897 22.912,17.115 Z M22.912,1.648 C19.629474,1.64630923 16.7840192,3.91957471 16.0608595,7.12145226 C15.3376999,10.3233298 16.9299303,13.5988681 19.8945505,15.0081258 C22.8591706,16.4173834 26.4045806,15.5840666 28.4310072,13.0017082 C30.4574338,10.4193497 30.4237894,6.77747975 28.35,4.233 L24.35,8.792 L27.444,8.792 L27.444,10.309 L23.816,10.309 L23.816,11.348 L27.416,11.348 L27.416,12.71 L23.816,12.71 L23.816,14.9 L22.193,14.9 L22.193,12.706 L18.55,12.706 L18.55,11.347 L22.188,11.347 L22.188,10.308 L18.575,10.308 L18.575,8.791 L21.735,8.791 L17.664,4.041 L19.709,4.041 L23.031,7.907 L26.356,4.041 L28.183,4.041 C26.8535691,2.52017623 24.9319731,1.64778402 22.912,1.648 Z" id="托管_朴_1_"></path>
            <path d="M23.587,37.083 C22.7763446,37.0861992 21.9805067,36.8657867 21.287,36.446 L11.536,30.792 C11.2687126,30.6179952 10.9548203,30.5294078 10.636,30.538 C8.678,30.538 6.003,33.138 5.977,33.167 L5.611,33.527 L0.518,20.494 L8.208,16.494 C9.38608844,15.9141643 10.6809549,15.6107975 11.994,15.607 C12.207,15.607 12.328,15.617 12.328,15.617 C15.018,16.01 20.897,20.717 21.145,20.917 C22.595,22.108 27.462,22.203 28.921,22.203 C29.293,22.203 29.515,22.196 29.521,22.196 C30.2058704,22.176842 30.8667898,22.4487662 31.3398794,22.9443475 C31.8129689,23.4399288 32.0539246,24.1127569 32.003,24.796 C31.98,26.343 30.916,27.996 29.368,27.996 C28.668,27.983 27.503,27.976 26.231,27.976 C23.688,27.976 20.741,27.996 20.741,27.996 C19.729282,27.7664674 18.7437874,27.4337247 17.8,27.003 C18.818,27.732 19.83,28.372 20.115,28.55 L28.569,28.55 C29.633243,28.5538068 30.6545892,28.1307995 31.4044917,27.3756346 C32.1543941,26.6204697 32.5702489,25.5961904 32.559,24.532 C32.498,21.919 31.368,21.632 30.313,21.567 C29.84,21.537 28.975,21.521 27.738,21.521 C26.351,21.521 25.005,21.541 25.005,21.541 L23.555,21.561 L30.094,17.474 C30.5851569,17.1452374 31.1558285,16.9548984 31.746,16.923 C32.6542759,16.9787574 33.4196214,17.6211445 33.632,18.506 C34.331424,17.576167 35.4002295,16.9959687 36.561,16.916 C36.6730344,16.9153465 36.7848753,16.9253921 36.895,16.946 C38.0973242,17.0239198 39.0749979,17.9445276 39.225,19.14 C40.2074854,18.5709936 41.3356432,18.3035604 42.469,18.371 C43.4676913,18.4588644 44.2998155,19.1724009 44.539,20.146 C44.7456721,20.9778128 44.5103686,21.857463 43.916,22.475 L25.896,36.425 C25.1993451,36.8476068 24.4017753,37.0748918 23.587,37.083 Z M10.575,28.91 C10.8490792,28.9074361 11.1209602,28.9590935 11.375,29.062 L21.861,35.145 C22.3615948,35.4430117 22.9334143,35.6002189 23.516,35.6 C24.097013,35.5956391 24.6666881,35.438737 25.168,35.145 L43.229,21.225 C43.3574203,20.9837793 43.3763504,20.6991005 43.281,20.443 C43.1001597,19.9838801 42.6523315,19.6861263 42.159,19.697 L42.003,19.69 C40.7319149,19.8301561 39.5250723,20.3218969 38.518,21.11 L37.786,21.592 L37.986,20.652 C38.1660396,19.8709861 37.9443224,19.0516453 37.395,18.468 C37.2012539,18.3885796 36.9933623,18.3494511 36.784,18.353 C36.034,18.353 34.812,18.795 33.241,20.903 L32.941,21.312 C33.5483004,22.1528948 33.8668676,23.1678894 33.849,24.205 C34.0312139,27.0239432 32.0030222,29.5040571 29.204,29.885 L19.836,29.885 L19.767,29.849 C19.58,29.749 15.131,27.449 13.611,24.472 L13.083,23.443 L14.052,23.882 C15.998,24.763 19.968,26.452 21.067,26.554 C21.073,26.541 24.06,26.567 26.567,26.567 C27.821,26.567 28.946,26.567 29.508,26.554 C30.2,26.541 30.751,25.581 30.745,24.793 C30.739,24.054 30.278,23.648 29.445,23.648 L28.978,23.648 C26.994,23.648 22.208,23.529 20.678,22.448 C20.597,22.385 14.534,17.566 12.4,17.248 C11.2503165,17.1832047 10.1024028,17.4030325 9.058,17.888 L2.318,21.282 L6.127,31.066 C6.956,30.403 8.998,28.91 10.575,28.91 Z M28.411,20.099 L30.49,20.099 C31.2608693,20.1498302 31.995917,20.4431493 32.59,20.937 L32.613,20.594 C32.6828064,19.9113013 32.5473645,19.2232982 32.224,18.618 C31.967,18.301 31.584,18.275 31.048,18.512 L28.411,20.099 Z M9.182,16.945 C8.95070277,17.0325721 8.72436515,17.1327214 8.504,17.245 L7.104,17.967 L8.75,17.139 C8.897,17.07 9.041,17.004 9.182,16.945 Z" id="托管_朴_1_2"></path>
        </g>
    </g>
</svg>