<svg xmlns="http://www.w3.org/2000/svg" xmlns:xlink="http://www.w3.org/1999/xlink" viewBox="0 0 56 56">
  <defs>
    <style>
      .cls-1 {
        clip-path: url(#clip-ic_szzgd设置主股东);
      }

      .cls-2 {
        fill: #ffffff;
      }

      .cls-3 {
        fill: none;
        stroke: #ffffff;
        stroke-miterlimit: 10;
        stroke-width: 1.5px;
      }
    </style>
    <clipPath id="clip-ic_szzgd设置主股东">
      <rect width="56" height="56"/>
    </clipPath>
  </defs>
  <g id="ic_szzgd设置主股东" data-name="ic/szzgd设置主股东" class="cls-1">
    <g id="设置主股东" transform="translate(9.005 -69.01)">
      <path id="路径_733" data-name="路径 733" class="cls-2" d="M38.862,96.849l0-15.472A1.376,1.376,0,0,0,37.489,80H1.376A1.376,1.376,0,0,0,0,81.376v26.072a1.376,1.376,0,0,0,1.376,1.376H22.15a1.079,1.079,0,0,0,.891-1.034,1.137,1.137,0,0,0-.891-1.071H2.105V82.105H36.76V96.849s.148,1,1.07,1S38.862,96.849,38.862,96.849Z" transform="translate(0 0)"/>
      <path id="路径_734" data-name="路径 734" class="cls-2" d="M.921,250H38.866v4.129H.921Zm19.957,7.735H31.643a1.24,1.24,0,0,1,.841,1.058,1.219,1.219,0,0,1-.841,1.047H20.878s-.941-.219-.941-1.047S20.878,257.735,20.878,257.735Z" transform="translate(0 -164.118)"/>
      <path id="路径_736" data-name="路径 736" class="cls-2" d="M21.862,256.823h4.765a1.24,1.24,0,0,1,.841,1.058,1.219,1.219,0,0,1-.841,1.047H21.862s-.941-.219-.941-1.047S21.862,256.823,21.862,256.823Z" transform="translate(-1 -159.118)"/>
      <path id="路径_735" data-name="路径 735" class="cls-2" d="M.258-.016h4.78V-3.11H1.106v-.816H5.038V-6.375H.688v-.816H10.27v.816H5.962v2.449H9.894v.816H5.962V-.016h4.78V.779H.258ZM4.63-8.782l.795-.408q.655.978.945,1.515l-.849.451Q4.941-8.3,4.63-8.782Z" transform="translate(4.728 102.01)"/>
      <path id="Stroke_5" data-name="Stroke 5" class="cls-3" d="M15.064,6.375l-1.852-.347a5.722,5.722,0,0,0-.443-1.072l1.072-1.567A.4.4,0,0,0,13.8,2.9L12.474,1.58a.4.4,0,0,0-.487-.045L10.419,2.607a5.73,5.73,0,0,0-1.1-.452L8.969.313A.4.4,0,0,0,8.593,0H6.723a.4.4,0,0,0-.377.313L6,2.173a5.735,5.735,0,0,0-1.061.443L3.39,1.557A.4.4,0,0,0,2.9,1.6L1.58,2.924a.4.4,0,0,0-.045.487L2.6,4.968a5.718,5.718,0,0,0-.436,1.059L.312,6.375A.4.4,0,0,0,0,6.751V8.621A.4.4,0,0,0,.312,9l1.852.347a5.657,5.657,0,0,0,.445,1.081l-1.054,1.54a.4.4,0,0,0,.046.488l1.322,1.321a.4.4,0,0,0,.487.046l1.54-1.054A5.74,5.74,0,0,0,6,13.2l.349,1.861a.4.4,0,0,0,.377.312H8.593a.4.4,0,0,0,.377-.312l.345-1.843a5.728,5.728,0,0,0,1.093-.446l1.559,1.067a.4.4,0,0,0,.488-.046l1.321-1.321a.4.4,0,0,0,.045-.487l-1.061-1.55a5.681,5.681,0,0,0,.453-1.094L15.064,9a.4.4,0,0,0,.313-.377V6.751A.4.4,0,0,0,15.064,6.375Z" transform="translate(25.228 99.055)"/>
      <path id="Stroke_9" data-name="Stroke 9" class="cls-3" d="M2.435,4.87A2.435,2.435,0,1,1,4.87,2.435,2.435,2.435,0,0,1,2.435,4.87Z" transform="translate(30.481 104.308)"/>
    </g>
  </g>
</svg>
