<?xml version="1.0" encoding="UTF-8"?>
<svg width="56px" height="56px" viewBox="0 0 56 56" version="1.1" xmlns="http://www.w3.org/2000/svg" xmlns:xlink="http://www.w3.org/1999/xlink">
    <!-- Generator: Sketch 52.6 (67491) - http://www.bohemiancoding.com/sketch -->
    <title>icon-v0013</title>
    <desc>Created with Sketch.</desc>
    <g id="icon-v0013" stroke="none" stroke-width="1" fill="none" fill-rule="evenodd">
        <rect id="Rectangle" x="0" y="0" width="56" height="56"></rect>
        <g id="ic_jgjjzh加挂基金账户-2" transform="translate(6.000000, 8.000000)" fill="#ffffff" fill-rule="nonzero">
            <path d="M36.806,31.475 C36.657,31.475 36.506,31.463 36.36,31.45 C35.2449147,30.7993505 33.9749877,30.4614864 32.684,30.472 C32.3651224,30.4772281 32.0468624,30.5019408 31.731,30.546 C30.506,30.001 29.738,29.271 29.738,28.454 L29.738,27.454 C29.738,25.783 32.906,24.434 36.805,24.434 C40.704,24.434 43.872,25.783 43.872,27.454 L43.872,28.454 C43.872,30.125 40.704,31.474 36.805,31.474 L36.806,31.475 Z M38.644,21.417 C38.644,21.417 37.982,21.126 37.982,20.717 C37.893541,10.9389582 30.0056945,3.0248989 20.228,2.904 C11.065,2.904 2.37,9.767 2.363,20.717 C2.356,31.667 11.188,38.437 20.27,38.44 C21.2398005,38.4550992 22.209326,38.3955904 23.17,38.262 C23.795,38.137 24.264,38.168 24.514,38.44 C24.6824801,38.6930139 24.7748018,38.9890681 24.78,39.293 C24.6996965,39.7645311 24.3097697,40.1215179 23.833,40.16 C22.6580752,40.3826575 21.4648363,40.4944818 20.269,40.494 C12.2580941,40.5182861 5.02272294,35.7106284 1.94145353,28.3159693 C-1.13981589,20.9213102 0.540874223,12.3984322 6.19872321,6.72710535 C11.8565722,1.05577846 20.3754272,-0.645185561 27.7773966,2.41848086 C35.1793661,5.48214728 40.0042256,12.7060589 39.999,20.717 C39.999,21.125 39.974,21.534 39.949,21.955 L38.644,21.417 Z M30.914,31.46 L33.538,31.46 L33.538,34.579 L36.83,34.579 L36.83,37.217 L33.538,37.217 L33.538,40.509 L30.914,40.509 L30.914,37.217 L27.783,37.217 L27.783,34.582 L30.914,34.582 L30.914,31.46 Z M38.835,34.344 C38.568544,33.6314548 38.1505873,32.9852427 37.61,32.45 C41.137,32.314 43.873,31.324 43.873,29.777 L43.873,31.477 C43.873,32.838 41.744,33.977 38.836,34.348 L38.835,34.344 Z M43.872,34.493 C43.872,35.83 41.793,36.956 38.946,37.352 C39.078868,36.9102878 39.1495474,36.4522179 39.156,35.991 C39.14968,35.7789186 39.12492,35.5677892 39.082,35.36 C41.867,35.026 43.872,34.11 43.872,32.786 L43.872,34.494 L43.872,34.493 Z M38.463,38.441 C41.57,38.181 43.872,37.228 43.872,35.805 L43.872,37.505 C43.8468532,37.991874 43.6177935,38.4456373 43.241,38.755 C42.127,39.795 39.664,40.525 36.805,40.525 C36.669,40.525 36.545,40.513 36.405,40.513 C37.1461448,40.0672878 37.7833961,39.4682239 38.274,38.756 C38.336,38.656 38.398,38.546 38.46,38.447 L38.463,38.441 Z" id="加挂基金账户"></path>
            <path d="M24.641,22.151 L29.646,22.151 L29.646,20.775 L25.916,20.775 L25.916,13.682 L29.116,13.682 L29.116,12.306 L25.916,12.306 L25.916,10.019 L24.491,10.019 L24.491,12.306 L16.327,12.306 L16.327,10.019 L14.9,10.019 L14.9,12.306 L11.7,12.306 L11.7,13.682 L14.9,13.682 L14.9,20.775 L11.113,20.775 L11.113,22.151 L15.975,22.151 C14.5369953,23.7829193 12.8194295,25.1452551 10.903,26.174 C11.2598435,26.5981026 11.5904587,27.0435982 11.893,27.508 C13.020115,26.7935416 14.0777454,25.9749578 15.052,25.063 L15.052,26.217 L19.657,26.217 L19.657,28.417 L12.216,28.417 L12.216,29.793 L28.525,29.793 L28.525,28.417 L21.084,28.417 L21.084,26.217 L25.632,26.217 L25.632,25.052 C26.6140706,25.9088431 27.6934807,26.6472455 28.848,27.252 C29.1146667,26.8146667 29.4573333,26.3066667 29.876,25.728 C27.8741743,24.9641971 26.0811349,23.7382282 24.643,22.15 L24.641,22.151 Z M19.655,24.882 L15.24,24.882 C16.1267282,24.0298756 16.9533729,23.1173588 17.714,22.151 L22.957,22.151 C23.6901503,23.143292 24.5224435,24.0583455 25.441,24.882 L21.083,24.882 L21.083,22.828 L19.656,22.828 L19.655,24.882 Z M16.325,19.271 L24.491,19.271 L24.491,20.771 L16.327,20.771 L16.325,19.271 Z M16.325,16.476 L24.491,16.476 L24.491,17.958 L16.327,17.958 L16.327,16.476 L16.325,16.476 Z M16.325,13.681 L24.491,13.681 L24.491,15.163 L16.327,15.163 L16.327,13.681 L16.325,13.681 Z" id="路径_650"></path>
        </g>
    </g>
</svg>