<?xml version="1.0" encoding="UTF-8"?>
<svg width="56px" height="56px" viewBox="0 0 56 56" version="1.1" xmlns="http://www.w3.org/2000/svg" xmlns:xlink="http://www.w3.org/1999/xlink">
    <!-- Generator: Sketch 52.6 (67491) - http://www.bohemiancoding.com/sketch -->
    <title>icon-v0019</title>
    <desc>Created with Sketch.</desc>
    <g id="icon-v0019" stroke="none" stroke-width="1" fill="none" fill-rule="evenodd">
        <rect id="Rectangle" x="0" y="0" width="56" height="56"></rect>
        <path d="M26.676,34.841 C23.1862371,31.9621569 21.8788765,27.2027006 23.4083612,22.9451357 C24.9378459,18.6875708 28.9750435,15.8480898 33.499,15.8480898 C38.0229565,15.8480898 42.0601541,18.6875708 43.5896388,22.9451357 C45.1191235,27.2027006 43.8117629,31.9621569 40.322,34.841 L40.322,50.374 L33.499,44.526 L26.676,50.374 L26.676,34.841 Z M38.376,36.122 C35.3141011,37.6813481 31.6908989,37.6813481 28.629,36.122 L28.629,45.974 L33.503,41.991 L38.377,45.974 L38.377,36.122 L38.376,36.122 Z M47.709,12.181 L9.473,12.181 L9.473,40.8 L23.951,40.8 L23.951,43.139 L8.935,43.139 C8.47217767,43.1064753 8.02803448,42.9435188 7.654,42.669 C7.37104479,42.3426651 7.20495579,41.9313133 7.182,41.5 L7.182,11.512 C7.20371896,11.1204608 7.33695739,10.7432989 7.566,10.425 C7.84386538,10.1777535 8.1951494,10.0284578 8.566,10 L48.166,10 C48.7078657,9.98711206 49.2383136,10.1568836 49.672,10.482 C49.9776772,10.9195255 50.1209272,11.4500813 50.077,11.982 L50.077,41.208 C50.075781,41.7063437 49.9094439,42.1902337 49.604,42.584 C49.1965633,42.9075202 48.7017073,43.1018408 48.183,43.142 L43.056,43.142 L43.056,40.8 L47.713,40.8 L47.713,12.181 L47.709,12.181 Z M13.034,16.947 L24.98,16.947 L24.98,18.9 L13.03,18.9 L13.034,16.947 Z M13.034,22.795 L21.081,22.795 L21.081,24.744 L13.034,24.744 L13.034,22.795 Z M13.034,28.643 L19.134,28.643 L19.134,30.592 L13.034,30.592 L13.034,28.643 Z M33.503,35.343 C38.3475116,35.3424477 42.2743681,31.414845 42.274,26.5703334 C42.2736318,21.7258218 38.3461783,17.798816 33.5016667,17.7990001 C28.6571551,17.7991841 24.73,21.7264884 24.73,26.571 C24.7311035,31.4138514 28.6561489,35.3397921 33.499,35.342 L33.503,35.343 Z M33.503,31.443 C30.8111641,31.443 28.629,29.2608359 28.629,26.569 C28.629,23.8771641 30.8111641,21.695 33.503,21.695 C36.1948359,21.695 38.377,23.8771641 38.377,26.569 C38.3770004,27.8623585 37.8629421,29.1026861 36.9480245,30.0168534 C36.0331069,30.9310208 34.7923581,31.4440614 33.499,31.443 L33.503,31.443 Z M33.503,29.494 C35.1178806,29.494 36.427,28.1848806 36.427,26.57 C36.427,24.9551194 35.1178806,23.646 33.503,23.646 C31.8881194,23.646 30.579,24.9551194 30.579,26.57 C30.5789985,28.1833198 31.8856817,29.491793 33.499,29.494 L33.503,29.494 Z" id="期权开户" fill="#FFFFFF" fill-rule="nonzero"></path>
    </g>
</svg>