<?xml version="1.0" encoding="UTF-8"?>
<svg width="56px" height="56px" viewBox="0 0 56 56" version="1.1" xmlns="http://www.w3.org/2000/svg" xmlns:xlink="http://www.w3.org/1999/xlink">
    <!-- Generator: Sketch 52.4 (67378) - http://www.bohemiancoding.com/sketch -->
    <title>指定交易撤销</title>
    <desc>Created with Sketch.</desc>
    <g id="指定交易撤销" stroke="none" stroke-width="1" fill="none" fill-rule="evenodd">
        <g id="指定交易-撤销">
            <rect id="矩形" x="0" y="0" width="56" height="56"></rect>
            <path d="M34.8392313,46.8000711 C35.128827,47.4209276 35.4871871,48.0032584 35.9045177,48.5372697 C33.4513274,49.4820819 30.7861468,50 28,50 C15.8497355,50 6,40.1502645 6,28 C6,15.8497355 15.8497355,6 28,6 C40.1502645,6 50,15.8497355 50,28 C50,30.7861468 49.4820819,33.4513274 48.5372697,35.9045177 C48.0032584,35.4871871 47.4209276,35.128827 46.8000711,34.8392313 C47.5764933,32.7054637 48,30.4021895 48,28 C48,16.954305 39.045695,8 28,8 C16.954305,8 8,16.954305 8,28 C8,39.045695 16.954305,48 28,48 C30.4021895,48 32.7054637,47.5764933 34.8392313,46.8000711 Z M21.9570186,20.284456 C22.3575975,20.6837512 22.3857165,21.3572228 22.0200403,21.7938758 L20.2635884,23.8529228 L37.0090135,23.8529228 C37.5576909,23.8529228 38.0024818,24.3335624 38.0024818,24.9264614 C38.0024818,25.5193604 37.5576909,26 37.0090135,26 L17.9955003,26 C17.129196,26 16.6781614,24.8856669 17.2653011,24.1986022 L20.5596419,20.3381574 C20.9329594,19.9091212 21.5564396,19.8851607 21.9570186,20.284456 Z M32.9718673,34.195261 L34.7281946,32.1420786 L17.9933978,32.1420786 C17.4447593,32.1420786 17,31.662558 17,31.0710393 C17,30.4795206 17.4447593,30 17.9933978,30 L36.9961217,30 C37.8623646,30 38.3133672,31.1117388 37.7262691,31.7972039 L34.4321621,35.6475903 C34.1925084,35.9331141 33.8291357,36.0579517 33.4804479,35.9745541 C33.1317601,35.8911564 32.851437,35.6123624 32.7462501,35.2443611 C32.6410632,34.8763598 32.7272059,34.4758042 32.9718673,34.195261 Z" id="合并形状" fill="#FFFFFF"></path>
            <path d="M43,35 C47.418278,35 51,38.581722 51,43 C51,47.418278 47.418278,51 43,51 C38.581722,51 35,47.418278 35,43 C35,38.581722 38.581722,35 43,35 Z M43,37 C39.6862915,37 37,39.6862915 37,43 C37,46.3137085 39.6862915,49 43,49 C46.3137085,49 49,46.3137085 49,43 C49,39.6862915 46.3137085,37 43,37 Z" id="合并形状" fill="#FFFFFF"></path>
            <rect id="矩形" fill="#FFFFFF" x="39" y="42" width="8" height="2" rx="1"></rect>
        </g>
    </g>
</svg>