<svg xmlns="http://www.w3.org/2000/svg" width="56" height="56" viewBox="0 0 56 56">
  <g fill="none" fill-rule="evenodd">
    <rect width="56" height="56"/>
    <g transform="translate(10 7)">
      <path fill="#FFF" fill-rule="nonzero" d="M33.836,15.268 L26.957,15.268 C26.577824,15.2172443 26.1954466,15.3351617 25.9107112,15.590654 C25.6259757,15.8461463 25.4674714,16.2135607 25.477,16.596 C25.477,17.361 26.001,17.867 26.957,17.867 L32.85,17.867 L32.85,39.098 L3.272,39.098 L3.272,23.108 C3.272,22.343 2.957,21.724 2.001,21.724 C1.236,21.724 0.760836901,22.152 0.760836901,23.108 L0.760836901,39.935 C0.755009083,40.3425883 0.914280526,40.7352403 1.2025201,41.0234799 C1.49075968,41.3117195 1.88341171,41.4709909 2.291,41.4651631 L33.65,41.4651631 C34.0575883,41.4709909 34.4502403,41.3117195 34.7384799,41.0234799 C35.0267195,40.7352403 35.1859909,40.3425883 35.18,39.935 L35.18,16.989 C35.2356432,16.5823645 35.1249218,16.1704743 34.8728931,15.8465451 C34.6208645,15.5226158 34.2488352,15.3140325 33.841,15.268 L33.836,15.268 Z"/>
      <path fill="#FFF" fill-rule="nonzero" d="M28.87,32.583 L7.836,32.583 C7.32331152,32.4933623 6.80637966,32.7169354 6.5205885,33.1519157 C6.23479734,33.5868959 6.23479734,34.1501041 6.5205885,34.5850843 C6.80637966,35.0200646 7.32331152,35.2436377 7.836,35.154 L28.87,35.154 C29.3826885,35.2436377 29.8996203,35.0200646 30.1854115,34.5850843 C30.4712027,34.1501041 30.4712027,33.5868959 30.1854115,33.1519157 C29.8996203,32.7169354 29.3826885,32.4933623 28.87,32.583 Z M28.87,27.601 L15.308,27.601 C14.7953115,27.5113623 14.2783797,27.7349354 13.9925885,28.1699157 C13.7067973,28.6048959 13.7067973,29.1681041 13.9925885,29.6030843 C14.2783797,30.0380646 14.7953115,30.2616377 15.308,30.172 L28.865,30.172 C29.2386735,30.2055224 29.6102861,30.0886332 29.8974848,29.8472362 C30.1846834,29.6058391 30.3637495,29.2598703 30.3950208,28.886 C30.399,28.083 29.826,27.601 28.87,27.601 Z"/>
      <path d="M6.646,16.96 L5.387,24.516 C5.22788983,25.0927248 5.48950138,25.7027365 6.017,25.985 C6.48926346,26.3731045 7.14269621,26.4548322 7.696,26.195 L14.412,22.627 L21.128,26.195 C21.338,26.405 21.548,26.405 21.967,26.405 C22.386,26.405 22.597,26.195 23.016,26.195 C23.397385,25.7980609 23.6213144,25.2759144 23.646,24.726 L22.177,16.961 L27.634,11.714 C28.0836714,11.2807661 28.2467277,10.6289293 28.054,10.035 C27.9251755,9.43761148 27.4058289,9.00489134 26.795,8.986 L19.239,7.937 L15.881,1.011 C15.715893,0.635810028 15.41619,0.336106961 15.041,0.171 C14.2831989,-0.190970091 13.3744101,0.0816665525 12.941,0.801 L9.583,7.727 L2.027,8.776 C1.16704236,8.96377997 0.61037081,9.79900837 0.768,10.665 C0.774011119,10.9940472 0.928368947,11.3027628 1.188,11.505 L6.645,16.962 L6.646,16.96 Z"/>
      <path fill="#FFF" fill-rule="nonzero" d="M21.497673,24.1259956 L20.2122269,17.3314571 C20.0867081,16.6680069 20.3044281,15.9860172 20.7911377,15.5180178 L25.6513214,10.8447104 L18.9638748,9.91589737 C18.3025513,9.82404804 17.7306747,9.40824795 17.4393845,8.80745792 L14.3609619,2.45816731 L11.3842926,8.59757805 C11.0930023,9.19836807 10.5211258,9.61416721 9.85980225,9.70601749 L3.1526947,10.637558 L8.06061554,15.5454273 C8.51733398,16.0021477 8.72537231,16.6513271 8.61919403,17.2884483 L7.49452209,24.0365009 L13.4735413,20.8601284 C13.7668991,20.7042828 14.0893784,20.6263599 14.4118576,20.6263599 C14.7343292,20.6263599 15.0568085,20.7042828 15.3501663,20.8601284 L21.497673,24.1259956 L21.497673,24.1259956 Z M21.9674454,26.4041672 C21.5476913,26.4041672 21.3378067,26.4041672 21.1279526,26.1942883 L14.4118576,22.626358 L7.69578552,26.1942883 C7.43496704,26.2812252 7.17420197,26.3321495 6.92830658,26.3321419 C6.58058929,26.3321285 6.26264954,26.230278 6.01676178,25.9844074 C5.59701538,25.7745285 5.17726135,25.1448975 5.38713837,24.5152683 L6.64640808,16.9596481 L6.64631653,16.9596481 L1.18953705,11.5028372 C0.979652405,11.2929678 0.769767761,11.0830879 0.769767761,10.6633272 C0.559883118,9.82381725 1.18953705,8.98430729 2.02903748,8.77442741 L9.58466339,7.72503757 L12.9426956,0.799057662 C13.245224,0.345242918 13.7658234,0.000461163931 14.3473358,0.000461163931 C14.5726242,0.000461163931 14.8070602,0.0522156134 15.041481,0.169427648 C15.4612274,0.379307657 15.6711044,0.589177668 15.8809814,1.0089376 L19.2390137,7.93491745 L26.7946167,8.98430729 C27.4242554,8.98430729 27.8439941,9.4040575 28.0538788,10.0336981 C28.2637787,10.6633272 28.0538788,11.2929678 27.63414,11.712718 L22.1773682,16.9596767 L23.6464996,24.7251377 C23.6464996,25.1448975 23.4366455,25.7745285 23.0168304,26.1942883 C22.597084,26.1942883 22.3872147,26.4041672 21.9674454,26.4041672 Z"/>
      <path fill="#FFF" fill-rule="nonzero" d="M11.355,14.14 C10.9395899,13.7827125 10.3254101,13.7827125 9.91,14.14 C9.55224743,14.5258317 9.55224743,15.1221683 9.91,15.508 L12.529,18.127 L12.546,18.143 L12.567,18.163 L12.589,18.182 L12.612,18.201 L12.634,18.219 L12.657,18.237 L12.68,18.254 L12.704,18.271 L12.728,18.287 L12.752,18.302 L12.778,18.317 L12.802,18.33 L12.829,18.344 L12.852,18.355 L12.881,18.368 L12.903,18.378 L12.934,18.39 L12.956,18.398 L12.989,18.409 L13.009,18.415 L13.044,18.425 L13.063,18.43 L13.099,18.438 L13.117,18.438 L13.154,18.444 L13.171,18.444 L13.211,18.444 L13.226,18.444 L13.269,18.444 L13.404,18.444 L13.446,18.444 L13.461,18.444 L13.5,18.444 L13.517,18.444 L13.554,18.438 L13.571,18.438 L13.607,18.43 L13.625,18.425 L13.66,18.416 L13.679,18.41 L13.712,18.399 L13.732,18.392 L13.764,18.38 L13.785,18.371 L13.815,18.358 L13.836,18.348 L13.864,18.334 L13.886,18.322 L13.913,18.307 L13.936,18.293 L13.961,18.277 L13.984,18.261 L14.008,18.244 L14.031,18.227 L14.054,18.21 L14.076,18.191 L14.098,18.172 L14.119,18.152 L14.136,18.137 L19.383,13.018 C19.5795501,12.8273978 19.6904847,12.5652903 19.6904847,12.2915 C19.6904847,12.0177097 19.5795501,11.7556022 19.383,11.565 C19.202603,11.3697322 18.9488432,11.2586908 18.683,11.2586908 C18.4171568,11.2586908 18.163397,11.3697322 17.983,11.565 L13.171,15.958 L11.355,14.14 Z"/>
    </g>
  </g>
</svg>
