<?xml version="1.0" encoding="UTF-8"?>
<svg width="56px" height="56px" viewBox="0 0 56 56" version="1.1" xmlns="http://www.w3.org/2000/svg" xmlns:xlink="http://www.w3.org/1999/xlink">
    <!-- Generator: Sketch 52.4 (67378) - http://www.bohemiancoding.com/sketch -->
    <title>科创板交易权限开通</title>
    <desc>Created with Sketch.</desc>
    <g id="科创板交易权限开通" stroke="none" stroke-width="1" fill="none" fill-rule="evenodd">
        <g>
            <rect id="矩形" x="0" y="0" width="56" height="56"></rect>
            <path d="M45,21 L9,21 L9,36 C9,37.1045695 9.8954305,38 11,38 L33.2230164,38 C33.38215,38.7013005 33.6231798,39.3714959 33.9355196,40 L11,40 C8.790861,40 7,38.209139 7,36 L7,16 C7,13.790861 8.790861,12 11,12 L43,12 C45.209139,12 47,13.790861 47,16 L47,28.515549 C46.3829884,28.1025345 45.712058,27.7637935 45,27.5121171 L45,21 Z M45,18 L45,16 C45,14.8954305 44.1045695,14 43,14 L11,14 C9.8954305,14 9,14.8954305 9,16 L9,18 L45,18 Z M28,24 L38,24 C38.5522847,24 39,24.4477153 39,25 C39,25.5522847 38.5522847,26 38,26 L28,26 C27.4477153,26 27,25.5522847 27,25 C27,24.4477153 27.4477153,24 28,24 Z M28,28 L33,28 C33.5522847,28 34,28.4477153 34,29 C34,29.5522847 33.5522847,30 33,30 L28,30 C27.4477153,30 27,29.5522847 27,29 C27,28.4477153 27.4477153,28 28,28 Z M42,28 C46.418278,28 50,31.581722 50,36 C50,40.418278 46.418278,44 42,44 C37.581722,44 34,40.418278 34,36 C34,31.581722 37.581722,28 42,28 Z M42,30 C38.6862915,30 36,32.6862915 36,36 C36,39.3137085 38.6862915,42 42,42 C45.3137085,42 48,39.3137085 48,36 C48,32.6862915 45.3137085,30 42,30 Z M41,35 L41,33 C41,32.4477153 41.4477153,32 42,32 C42.5522847,32 43,32.4477153 43,33 L43,35 L45,35 C45.5522847,35 46,35.4477153 46,36 C46,36.5522847 45.5522847,37 45,37 L43,37 L43,39 C43,39.5522847 42.5522847,40 42,40 C41.4477153,40 41,39.5522847 41,39 L41,37 L39,37 C38.4477153,37 38,36.5522847 38,36 C38,35.4477153 38.4477153,35 39,35 L41,35 Z M18.4003906,33.2285156 L15.9511719,33.2285156 L13.203125,29.2617188 C13.1328121,29.1601557 13.0527348,29.0019542 12.9628906,28.7871094 L12.9335938,28.7871094 L12.9335938,33.2285156 L11,33.2285156 L11,24.1523438 L12.9335938,24.1523438 L12.9335938,28.4414062 L12.9628906,28.4414062 C13.0488286,28.2539053 13.1347652,28.0917976 13.2207031,27.9550781 L15.8222656,24.1523438 L18.1308594,24.1523438 L14.8847656,28.4824219 L18.4003906,33.2285156 Z M25.7890625,32.9003906 C25.1289029,33.224611 24.2675834,33.3867188 23.2050781,33.3867188 C21.8378838,33.3867188 20.7529337,32.9775432 19.9501953,32.1591797 C19.1474569,31.3408162 18.7460938,30.2500068 18.7460938,28.8867188 C18.7460938,27.4531178 19.1943315,26.280278 20.0908203,25.3681641 C20.9873092,24.4560501 22.1445242,24 23.5625,24 C24.4492232,24 25.1914033,24.1152332 25.7890625,24.3457031 L25.7890625,26.2148438 C25.1757782,25.855467 24.4804726,25.6757812 23.703125,25.6757812 C22.8164018,25.6757812 22.1074245,25.9589815 21.5761719,26.5253906 C21.0449192,27.0917997 20.7792969,27.8320267 20.7792969,28.7460938 C20.7792969,29.6367232 21.0312475,30.3535129 21.5351562,30.8964844 C22.039065,31.4394558 22.7206988,31.7109375 23.5800781,31.7109375 C24.3886759,31.7109375 25.1249967,31.515627 25.7890625,31.125 L25.7890625,32.9003906 Z" id="合并形状" fill="#FFFFFF"></path>
        </g>
    </g>
</svg>