<svg xmlns="http://www.w3.org/2000/svg" xmlns:xlink="http://www.w3.org/1999/xlink" viewBox="0 0 56 56">
  <defs>
    <style>
      .cls-1 {
        clip-path: url(#clip-ic_rzrqxykh融资融券信用开户);
      }

      .cls-2 {
        fill: #ffffff;
      }
    </style>
    <clipPath id="clip-ic_rzrqxykh融资融券信用开户">
      <rect width="56" height="56"/>
    </clipPath>
  </defs>
  <g id="ic_rzrqxykh融资融券信用开户" data-name="ic/rzrqxykh融资融券信用开户" class="cls-1">
    <g id="融资融券_1_" data-name="融资融券 (1)" transform="translate(-5.096 -47.155)">
      <path id="路径_686" data-name="路径 686" class="cls-2" d="M16,59.517H31.049v2.1H16Zm13.859,6.09v6.02a1.19,1.19,0,0,1-1.19,1.19H18.38a1.19,1.19,0,0,1-1.19-1.19v-6.02a1.19,1.19,0,0,1,1.19-1.19H28.669A1.19,1.19,0,0,1,29.859,65.607Zm-2,.572H19.152v4.933h8.707Zm13.175,0h3.7v3.768h2.1v-4.34a1.19,1.19,0,0,0-1.19-1.19h-4.61V59.5H38.842v4.917H34.2a1.19,1.19,0,0,0-1.19,1.19V77.821H35.2V66.179h3.642v7.635h2.192ZM31.4,90.036V76.456a1.19,1.19,0,0,0-1.19-1.19H17.19A1.19,1.19,0,0,0,16,76.456V90.036a1.19,1.19,0,0,0,1.19,1.19H18V77H29.342V89.494H27.689c-.657,0-1.19.164-1.19.821v.91h3.71A1.19,1.19,0,0,0,31.4,90.036Z"/>
      <path id="路径_687" data-name="路径 687" class="cls-2" d="M131.279,619l2.2,4.368h-2.468L131,624.787h2.8v5.307h1.455v-5.307H138l-.033-1.419H135.5L137.72,619h-1.486l-1.752,3.107L132.923,619Z" transform="translate(-110.975 -539.919)"/>
      <path id="路径_688" data-name="路径 688" class="cls-2" d="M515.288,421.551l-3.036,4.246-3.484-3.127-3.62,4.6-.391-.435H502l3.129,3.52,3.754-4.734,3.468,3.223L519.709,419h-7.385Z" transform="translate(-468.991 -346.918)"/>
      <path id="路径_689" data-name="路径 689" class="cls-2" d="M506.034,522.209h12.855v-8.745l-5.34,7.127-3.31-3.306-3.1,3.63-.972,1.141h0Zm7.317-4.389,7.358-9.82v14.839a1.19,1.19,0,0,1-1.19,1.19H504.19a1.19,1.19,0,0,1-1.19-1.19V515.82l3.129,3.474,4-4.692,3.223,3.218Z" transform="translate(-469.956 -432.803)"/>
    </g>
  </g>
</svg>
