<svg xmlns="http://www.w3.org/2000/svg" xmlns:xlink="http://www.w3.org/1999/xlink" viewBox="0 0 56 56">
  <defs>
    <style>
      .cls-1 {
        clip-path: url(#clip-ic_lnrkh老年人账户开户);
      }

      .cls-2 {
        fill: #ffffff;
      }
    </style>
    <clipPath id="clip-ic_lnrkh老年人账户开户">
      <rect width="56" height="56"/>
    </clipPath>
  </defs>
  <g id="ic_lnrkh老年人账户开户" data-name="ic/lnrkh老年人账户开户" class="cls-1">
    <g id="账户_2_" data-name="账户 (2)" transform="translate(6.41 -54.25)">
      <path id="路径_704" data-name="路径 704" class="cls-2" d="M.5-5.923H6V-8.316H2.139V-9.5H6v-2.131H7.188V-9.5h3.8v1.18h-3.8v2.394H9.309a24.474,24.474,0,0,0,3.977-3.984l.928.885a30.836,30.836,0,0,1-2.9,3.1H15.1v1.18h-5.2A29.118,29.118,0,0,1,5.333-1.971V-.438a43.222,43.222,0,0,0,6.721-2.238l.487,1.23A74,74,0,0,1,5.333.791V1.8q0,.836.73.853h5a1.24,1.24,0,0,0,1.353-1.18q.122-.771.243-2.426.608.262,1.277.525-.2,1.689-.335,2.459a2.078,2.078,0,0,1-2.311,1.836H5.865q-1.718,0-1.718-2.017V-1.4Q2.6-.684.8.012.5-.66.178-1.25A35.093,35.093,0,0,0,7.644-4.742H.5Z" transform="translate(3.386 85.538)"/>
      <path id="路径_701" data-name="路径 701" class="cls-2" d="M39.459,64H2.631A2.633,2.633,0,0,0,0,66.631V95.567A2.633,2.633,0,0,0,2.631,98.2H17.1a1.08,1.08,0,0,0,1.215-1.122c0-.728-.488-1.012-1.215-1.012H2.071V65.987H40V78.468c0,.728.333,1.16,1.061,1.16s1.024-.432,1.024-1.16V66.631A2.633,2.633,0,0,0,39.459,64Z"/>
      <path id="路径_702" data-name="路径 702" class="cls-2" d="M188.793,338.368a6.577,6.577,0,1,0-8.393,0,15.29,15.29,0,0,0-3.669,2.422c-.794.906-1.928,1.891-3.108,5.778-.112.671.216,1.031.606,1.031s.762-.362.955-1.031a9.311,9.311,0,0,1,9.412-7.285c5.6-.048,9.246,4.435,9.487,7.285a.856.856,0,0,0,.8.812c.3-.016.661-.168.692-.812a11.853,11.853,0,0,0-3.015-5.778A22.365,22.365,0,0,0,188.793,338.368Zm-4.2-10.006a4.778,4.778,0,0,1,4.946,4.946,4.946,4.946,0,0,1-9.892,0A4.778,4.778,0,0,1,184.6,328.362Zm-1.315-11.214h-12.1a1.315,1.315,0,1,0,0,2.631h12.1a1.315,1.315,0,0,0,0-2.631Zm-3,5.261h-9.1a1.315,1.315,0,1,0,0,2.631h9.1a1.315,1.315,0,0,0,0-2.631Zm-4.1,5.261h-5.006a1.315,1.315,0,1,0,0,2.631h5.006a1.315,1.315,0,0,0,0-2.631Z" transform="translate(-148.424 -244.478)"/>
    </g>
  </g>
</svg>
