<?xml version="1.0" encoding="UTF-8"?>
<svg width="56px" height="56px" viewBox="0 0 56 56" version="1.1" xmlns="http://www.w3.org/2000/svg" xmlns:xlink="http://www.w3.org/1999/xlink">
    <!-- Generator: Sketch 52.6 (67491) - http://www.bohemiancoding.com/sketch -->
    <title>icon-v0002</title>
    <desc>Created with Sketch.</desc>
    <g id="icon-v0002" stroke="none" stroke-width="1" fill="none" fill-rule="evenodd">
        <rect id="Rectangle" x="0" y="0" width="56" height="56"></rect>
        <g id="ic_fjjjqx分级基金权限开通-2" transform="translate(7.184000, 8.184000)" fill="#ffffff">
            <path d="M20.3,1.714 C14.9996284,1.60263752 9.91993928,3.83458333 6.417,7.814 C3.026,11.332 1.836,15.614 1.836,20.297 C1.836,25.452 3.276,30.286 7.813,34.156 C11.107,36.97 16.082,39.127 20.3,39.127 C32.913,37.606 37.544,31.081 38.992,21.203 C38.992,21.203 39.106,20.438 39.509,20.212 C39.912,19.986 40.44,20.358 40.44,20.358 C40.544362,20.6600071 40.5921606,20.9786645 40.581,21.298 C39.511,32.257 32.549,40.379 20.3,40.598 C8.586,40.6 0,32.017 0,20.3 C0,8.583 8.586,0 20.3,0 C23.0621987,0.0622219178 25.7966952,0.565571834 28.4,1.491 L26.568,2.629 C24.5174455,2.10050061 22.4160639,1.79374181 20.3,1.714 Z" id="路径_627"></path>
            <path d="M24.954,21.968 L29.959,21.968 L29.959,20.592 L26.229,20.592 L26.229,13.499 L29.429,13.499 L29.429,12.123 L26.229,12.123 L26.229,9.836 L24.804,9.836 L24.804,12.123 L16.64,12.123 L16.64,9.836 L15.213,9.836 L15.213,12.123 L12.013,12.123 L12.013,13.499 L15.213,13.499 L15.213,20.592 L11.426,20.592 L11.426,21.968 L16.288,21.968 C14.8499953,23.5999193 13.1324295,24.9622551 11.216,25.991 C11.5728435,26.4151026 11.9034587,26.8605982 12.206,27.325 C13.333115,26.6105416 14.3907454,25.7919578 15.365,24.88 L15.365,26.034 L19.97,26.034 L19.97,28.234 L12.529,28.234 L12.529,29.61 L28.838,29.61 L28.838,28.234 L21.397,28.234 L21.397,26.034 L25.945,26.034 L25.945,24.869 C26.9270706,25.7258431 28.0064807,26.4642455 29.161,27.069 C29.4276667,26.6316667 29.7703333,26.1236667 30.189,25.545 C28.1871743,24.7811971 26.3941349,23.5552282 24.956,21.967 L24.954,21.968 Z M19.968,24.699 L15.553,24.699 C16.4397282,23.8468756 17.2663729,22.9343588 18.027,21.968 L23.27,21.968 C24.0031503,22.960292 24.8354435,23.8753455 25.754,24.699 L21.396,24.699 L21.396,22.645 L19.969,22.645 L19.968,24.699 Z M16.638,19.088 L24.804,19.088 L24.804,20.588 L16.64,20.588 L16.638,19.088 Z M16.638,16.293 L24.804,16.293 L24.804,17.775 L16.64,17.775 L16.64,16.293 L16.638,16.293 Z M16.638,13.498 L24.804,13.498 L24.804,14.98 L16.64,14.98 L16.64,13.498 L16.638,13.498 Z" id="路径_628" fill-rule="nonzero"></path>
            <path d="M36.316,2.837 C38.1574299,2.81280443 39.9268991,3.55113892 41.205,4.877 C42.5308611,6.15510086 43.2691956,7.92457012 43.245,9.766 C43.2691956,11.6074299 42.5308611,13.3768991 41.205,14.655 C39.9267277,15.9804932 38.1572806,16.7184565 36.316,16.694 C34.4747194,16.7184565 32.7052723,15.9804932 31.427,14.655 C30.1011389,13.3768991 29.3628044,11.6074299 29.387,9.766 C29.3628044,7.92457012 30.1011389,6.15510086 31.427,4.877 C32.7051009,3.55113892 34.4745701,2.81280443 36.316,2.837 Z M36.316,15.794 C37.9183653,15.8161988 39.4585082,15.1744424 40.571,14.021 C41.7244424,12.9085082 42.3661988,11.3683653 42.344,9.766 C42.3664597,8.16378401 41.7250746,6.62366329 40.572,5.511 C39.4592692,4.35730222 37.9187112,3.71552371 36.316,3.738 C34.713784,3.71554027 33.1736633,4.35692545 32.061,5.51 C30.9073022,6.62273079 30.2655237,8.1632888 30.288,9.766 C30.2658012,11.3683653 30.9075576,12.9085082 32.061,14.021 C33.1734918,15.1744424 34.7136347,15.8161988 36.316,15.794 Z M34.126,13.604 L34.126,12.556 L36.001,12.556 L36.001,6.556 C35.757,6.61466667 35.1026667,6.81 34.038,7.142 L34.038,6.03 L37.187,5.158 L37.187,12.558 L39.016,12.558 L39.016,13.604 L34.126,13.604 Z" id="路径_635" fill-rule="nonzero"></path>
        </g>
    </g>
</svg>