<?xml version="1.0" encoding="UTF-8"?>
<svg width="56px" height="56px" viewBox="0 0 56 56" version="1.1" xmlns="http://www.w3.org/2000/svg" xmlns:xlink="http://www.w3.org/1999/xlink">
    <!-- Generator: Sketch 52.6 (67491) - http://www.bohemiancoding.com/sketch -->
    <title>icon-v0009</title>
    <desc>Created with Sketch.</desc>
    <g id="icon-v0009" stroke="none" stroke-width="1" fill="none" fill-rule="evenodd">
        <rect id="Rectangle" x="0" y="0" width="56" height="56"></rect>
        <g id="ic_gjzlbg关键资料变更-2" transform="translate(8.114000, 6.448000)" fill="#ffffff">
            <path d="M20.806,31.619 C21.1213824,30.7607805 21.5512707,29.9491058 22.084,29.206 L12.79,29.206 C12.7260366,29.2028158 12.6624674,29.1941169 12.6,29.18 C12.5964403,29.1735905 12.5947106,29.1663259 12.595,29.159 L12.595,27.247 C13.5372003,24.8620586 15.5456984,23.0587436 18.018,22.378 L18.134,22.378 C19.4457451,22.8425883 20.8772549,22.8425883 22.189,22.378 L22.231,22.378 C24.087801,22.8723675 25.7074621,24.0126543 26.799,25.594 C27.5896595,25.2988784 28.4145881,25.105331 29.254,25.018 C28.2057369,23.1532832 26.6038634,21.6604377 24.67,20.746 C25.6120667,19.7109792 26.1952587,18.3997616 26.333,17.007 L26.333,16.991 C26.4311334,15.5436685 26.0467566,14.1046295 25.24,12.899 C24.4249514,11.6887564 23.2065221,10.8073621 21.802,10.412 C21.6114536,10.3531162 21.4148813,10.3158815 21.216,10.301 C21.0910583,10.2908871 20.967248,10.2698059 20.846,10.238 L20.762,10.212 L19.745,10.212 L19.682,10.217 L19.677,10.217 C19.614,10.228 19.55,10.233 19.477,10.238 C19.2186054,10.2530642 18.9631992,10.3011209 18.717,10.381 C16.3580071,10.880481 14.5468863,12.7757661 14.155,15.155 C13.6635775,17.1463899 14.2301322,19.2505741 15.655,20.726 C15.6413353,20.732175 15.6273097,20.737518 15.613,20.742 L15.587,20.753 C13.1922407,21.9651475 11.3289166,24.0182579 10.354,26.519 L10.349,26.53 L10.243,26.636 L10.243,29.408 L10.328,29.815 L10.333,29.841 C10.5188794,30.6116343 11.0967453,31.2274927 11.854,31.462 L11.854,31.605 L20.805,31.605 L20.806,31.619 Z M20.162,12.619 C21.7286164,12.598307 23.1521721,13.5271074 23.7643079,14.9693296 C24.3764437,16.4115518 24.0555815,18.0807518 22.9523661,19.1932404 C21.8491507,20.3057289 20.1826949,20.6405515 18.7353995,20.0405089 C17.2881041,19.4404663 16.3474207,18.0247347 16.355,16.458 C16.351653,14.34903 18.0530722,12.6337563 20.162,12.62 L20.162,12.619 Z" id="路径_639" fill-rule="nonzero"></path>
            <path d="M21.783,40.559 C21.572,40.659 21.355,40.744 21.139,40.839 L21.028,40.913 L21.017,40.918 C20.7528134,41.0377356 20.4669994,41.102384 20.177,41.108 C20.054456,41.115849 19.9314582,41.1033465 19.813,41.071 L19.792,41.066 C19.5906565,41.0385014 19.3957002,40.9758852 19.216,40.881 L19.153,40.844 L19.153,40.823 L19.105,40.797 C15.3193379,39.249986 11.992737,36.7595968 9.442,33.563 C7.34162931,30.8495569 5.79653112,27.7488265 4.895,24.438 C3.78886216,20.4601507 3.39379725,16.318232 3.728,12.203 L3.728,12.177 C3.73129025,12.1541465 3.73296108,12.1310891 3.733,12.108 L3.733,12.092 C3.82692917,11.1910269 4.44444163,10.4307098 5.307,10.154 C11.179,8.992 17.975,4.324 18.799,3.664 L18.81,3.659 C19.0507415,3.48806914 19.3138814,3.35111526 19.592,3.252 C19.9387104,3.12173473 20.318235,3.10700273 20.674,3.21 C20.9979326,3.2990703 21.2952115,3.46590346 21.54,3.696 L21.551,3.707 C21.662,3.781 21.82,3.892 22.01,4.019 C23.89,5.329 29.619,9.3 34.873,10.329 C35.7348404,10.4975948 36.3858809,11.2086689 36.478,12.082 L36.478,12.103 C36.478,12.114 36.483,12.14 36.483,12.177 L36.488,12.203 C36.8962648,16.8815383 36.355802,21.5943467 34.899,26.059 C35.6596181,26.4419447 36.3677717,26.9212171 37.006,27.485 C39.0017163,21.9901844 39.7766772,16.1266206 39.277,10.302 C39.2697775,10.2513181 39.2661019,10.2001938 39.266,10.149 L39.266,10.144 C39.1361558,9.24461317 38.4445756,8.52965791 37.55,8.37 C34.1779886,7.63431379 30.9325678,6.40649887 27.918,4.726 C25.8283692,3.61321789 23.7964335,2.39532479 21.83,1.077 L21.809,1.066 C21.719,1.008 21.645,0.955 21.582,0.913 L21.571,0.908 L21.56,0.897 C21.2865337,0.65270404 20.9644848,0.469016869 20.615,0.358 L20.61,0.358 C20.2467279,0.270692546 19.8665842,0.283479198 19.51,0.395 C19.2036596,0.514034471 18.9157834,0.675985869 18.655,0.876 C16.8204249,2.19840874 14.8991009,3.39610419 12.904,4.461 C9.73958826,6.25536106 6.32888926,7.57543601 2.781,8.379 C1.87199296,8.55029785 1.16962889,9.27590044 1.028,10.19 L1.028,10.195 C1.028,10.211 1.023,10.243 1.017,10.306 C0.61,14.488 -0.462,35.737 19.082,43.758 L19.103,43.769 C19.2779598,43.8667358 19.4695356,43.9311595 19.668,43.959 L19.731,43.975 C19.8436269,43.9991697 19.9590167,44.0079165 20.074,44.001 C20.389005,43.996379 20.6998525,43.9283599 20.988,43.801 L21.014,43.79 L21.03,43.79 L21.046,43.779 C21.0654967,43.76811 21.0868686,43.760986 21.109,43.758 L21.125,43.753 C21.9643333,43.4043333 22.7686667,43.0346667 23.538,42.644 C22.8627911,42.0290259 22.2716885,41.327638 21.78,40.558 L21.783,40.559 Z" id="路径_640"></path>
            <path d="M34.952,36.049 L25.841,35.907 L25.825,35.923 L25.677,35.923 L25.677,35.965 L25.672,35.965 L25.656,35.981 L25.55,35.981 L25.55,35.991 L25.518,35.991 L25.518,36.033 L25.46,36.033 L25.46,36.117 L25.375,36.117 L25.375,36.175 L25.341,36.175 L25.341,36.265 L25.299,36.265 L25.299,36.387 L25.283,36.403 L25.283,36.435 C25.2773122,36.4465732 25.2739165,36.4591373 25.273,36.472 L25.257,36.488 L25.257,36.541 L25.252,36.541 L25.247,36.773 L25.247,36.847 L25.258,36.857 L25.258,36.984 L25.311,36.984 C25.3153752,36.9967259 25.3207244,37.0090959 25.327,37.021 C25.327,37.026 25.327,37.026 25.332,37.032 L25.332,37.143 L25.395,37.143 L25.421,37.175 C25.436376,37.1952558 25.456226,37.2116834 25.479,37.223 L27.618,39.404 C27.8028849,39.5946013 28.0754102,39.6720891 28.3329182,39.6072747 C28.5904262,39.5424602 28.7937953,39.3451903 28.8664183,39.0897746 C28.9390413,38.8343589 28.869885,38.5596012 28.685,38.369 L27.772,37.44 L34.938,37.551 C35.3486211,37.5526726 35.6836058,37.222601 35.688,36.812 C35.6847887,36.4055127 35.3650014,36.0721268 34.959,36.052 L34.952,36.049 Z" id="路径_641"></path>
            <path d="M36.763,29.137 C34.0119628,26.2975011 29.6967053,25.659837 26.2419926,27.5823144 C22.7872798,29.5047919 21.0545841,33.5080191 22.0175158,37.3425624 C22.9804476,41.1771057 26.3988888,43.8867777 30.352,43.949 L30.489,43.949 C35.2570976,43.9425385 39.1405541,40.116473 39.218,35.349 C39.2658699,33.0328884 38.3813056,30.7946343 36.763,29.137 Z M37.735,35.321 C37.6700865,39.3049318 34.3995108,42.4883166 30.4152793,42.4455828 C26.4310478,42.402849 23.2295049,39.1500461 23.2500576,35.1656385 C23.2706103,31.1812308 26.5055397,27.961629 30.49,27.96 L30.606,27.96 C34.6037316,28.0322996 37.7907203,31.323003 37.735,35.321 Z" id="路径_642" fill-rule="nonzero"></path>
            <path d="M35.506,33.182 L33.367,30.991 C33.2316024,30.8421695 33.0406466,30.7560119 32.8394654,30.7529809 C32.6382843,30.7499499 32.4448197,30.8303159 32.305,30.975 C32.0202787,31.2596725 32.0158323,31.7198793 32.295,32.01 L33.209,32.955 L26.038,32.844 L26.027,32.844 C25.6227351,32.843963 25.2934704,33.1687721 25.288,33.573 C25.2804748,33.9240489 25.517201,34.2334542 25.858,34.318 L25.858,34.371 L35.03,34.514 L35.035,34.514 C35.0605059,34.513825 35.0857001,34.5083776 35.109,34.498 L35.278,34.503 L35.278,34.487 L35.331,34.487 L35.331,34.471 L35.358,34.471 L35.358,34.423 L35.442,34.423 L35.442,34.412 L35.474,34.412 L35.474,34.312 L35.479,34.307 L35.585,34.307 L35.585,34.201 L35.627,34.159 L35.627,34.153 L35.643,34.137 L35.643,34.111 C35.643,34.106 35.648,34.106 35.648,34.101 L35.664,34.085 L35.712,34.085 L35.712,34.027 L35.728,34.027 L35.733,33.562 L35.717,33.546 L35.717,33.504 L35.701,33.488 L35.701,33.453 L35.685,33.437 L35.685,33.331 L35.674,33.331 L35.674,33.299 L35.611,33.299 L35.59,33.278 L35.59,33.172 L35.506,33.182 Z" id="路径_643"></path>
        </g>
    </g>
</svg>