<?xml version="1.0" encoding="UTF-8"?>
<svg width="56px" height="56px" viewBox="0 0 56 56" version="1.1" xmlns="http://www.w3.org/2000/svg" xmlns:xlink="http://www.w3.org/1999/xlink">
    <!-- Generator: Sketch 52.6 (67491) - http://www.bohemiancoding.com/sketch -->
    <title>icon-v0014</title>
    <desc>Created with Sketch.</desc>
    <g id="icon-v0014" stroke="none" stroke-width="1" fill="none" fill-rule="evenodd">
        <rect id="Rectangle" x="0" y="0" width="56" height="56"></rect>
        <g id="ic_zytzz专业投资者开通-2" transform="translate(8.000000, 12.629000)" fill="#ffffff">
            <path d="M39.56,19.2 L39.56,1.5 C39.5685782,1.11046622 39.421948,0.733501075 39.152411,0.452147253 C38.882874,0.17079343 38.5125433,0.00813340284 38.123,7.10542736e-15 L1.436,7.10542736e-15 C1.04663182,0.00839503839 0.676557301,0.17116967 0.407235443,0.452494731 C0.137913585,0.733819791 -0.00858005302,1.11063586 2.22044605e-16,1.5 L2.22044605e-16,27.856 C-0.00858005302,28.2453641 0.137913585,28.6221802 0.407235443,28.9035053 C0.676557301,29.1848303 1.04663182,29.347605 1.436,29.356 L23.052,29.356 C22.8431504,28.7221316 22.7069448,28.0665999 22.646,27.402 L1.935,27.402 L1.935,1.988 L37.6,1.988 L37.832,18.288 C38.4500747,18.5054344 39.0324282,18.8134616 39.56,19.202 L39.56,19.2 Z" id="路径_651"></path>
            <path d="M22.747,7.249 L29.793,7.249 L29.793,9.539 L22.747,9.539 L22.747,7.249 Z M22.747,13.062 L34.957,13.062 L34.957,15.352 L22.747,15.352 L22.747,13.062 Z M37.99,30.821 L41.072,36.16 L39.833,36.876 L37.933,36.448 L37.354,38.308 L36.115,39.024 L33.033,33.685 L34.558,32.804 L36.465,36.877 L37.045,34.844 L39.32,35.644 L36.464,31.699 L37.99,30.821 Z M31.385,33.683 L28.303,39.022 L27.064,38.306 L26.485,36.446 L24.585,36.874 L23.346,36.158 L26.428,30.819 L27.953,31.7 L26.924,33.065 L25.397,35.422 L27.361,34.842 L27.953,36.875 L29.86,32.802 L31.385,33.683 Z M14.349,23.416 L22.632,23.416 C22.8547167,22.5075273 22.9389998,21.5706361 22.882,20.637 C22.7686012,20.2526415 22.5040879,19.9307508 22.149,19.745 C18.5863333,18.3576667 16.7603333,17.6376667 16.671,17.585 C16.5672363,17.5162489 16.4850656,17.4195162 16.434,17.306 L15.787,16.245 L15.158,16.076 C15.1923082,15.9391502 15.2737438,15.8187673 15.388,15.736 C15.6536549,15.4594442 15.8127331,15.0977098 15.837,14.715 C15.885,14.315 15.9336667,13.9753333 15.983,13.696 C16.103,13.715 16.295,13.784 16.569,13.405 C16.8938939,12.7121172 17.068063,11.9581798 17.08,11.193 C17.0946374,11.0989541 17.0712225,11.0029507 17.0149294,10.9262046 C16.9586364,10.8494584 16.8740996,10.7982876 16.78,10.784 L16.668,10.784 C17.098,8.343 16.732,7.168 16.16,6.668 C15.9746349,6.54222234 15.7478976,6.49279146 15.527,6.53 C15.4020777,6.26465157 15.1763634,6.06017668 14.9,5.962 C13.6424053,5.51002296 12.2597708,5.55472791 11.034,6.087 C10.7253162,6.24172882 10.4387649,6.43713532 10.182,6.668 C9.61,7.168 9.244,8.343 9.674,10.784 L9.554,10.784 C9.45990037,10.7982876 9.37536358,10.8494584 9.31907055,10.9262046 C9.26277752,11.0029507 9.2393626,11.0989541 9.254,11.193 C9.26593703,11.9581798 9.44010612,12.7121172 9.765,13.405 C10.045,13.793 10.239,13.712 10.359,13.695 C10.4083333,13.9716667 10.4573333,14.3116667 10.506,14.715 C10.592,15.2696667 10.7416667,15.61 10.955,15.736 C11.0773584,15.8106616 11.1645637,15.9313797 11.197,16.071 L10.55,16.245 L9.903,17.306 C9.85193444,17.4195162 9.7697637,17.5162489 9.666,17.585 C9.57666667,17.637 7.75066667,18.357 4.188,19.745 C3.83283812,19.9306598 3.56829519,20.2525865 3.455,20.637 C3.36979336,21.5674896 3.43359533,22.5056149 3.644,23.416 L11.991,23.416 L12.751,19.397 L12.26,18.158 L13.172,17.385 L14.084,18.158 L13.593,19.397 L14.349,23.416 Z" id="路径_652" fill-rule="nonzero"></path>
            <path d="M32.065,32.578 C35.8801827,32.5779995 38.9729992,29.4851827 38.9729992,25.67 C38.9729992,21.8548173 35.8801827,18.7620005 32.065,18.762 C29.5970091,18.7619997 27.3164914,20.078657 26.0824958,22.2159998 C24.8485003,24.3533425 24.8485003,26.9866575 26.0824958,29.1240002 C27.3164914,31.261343 29.5970091,32.5780003 32.065,32.578 Z M32.065,34.207 C27.347936,34.207 23.524,30.383064 23.524,25.666 C23.524,20.948936 27.347936,17.125 32.065,17.125 C36.782064,17.125 40.606,20.948936 40.606,25.666 C40.6062652,27.9313873 39.7065296,30.104081 38.1047526,31.7060455 C36.5029756,33.30801 34.3303873,34.208 32.065,34.208 L32.065,34.207 Z" id="路径_653" fill-rule="nonzero"></path>
            <polygon id="路径_654" points="31.02 27.976 36.484 22.539 37.559 23.606 31.02 30.145 30.079 29.204 26.648 25.776 27.734 24.714"></polygon>
        </g>
    </g>
</svg>