<svg xmlns="http://www.w3.org/2000/svg" xmlns:xlink="http://www.w3.org/1999/xlink" viewBox="0 0 56 56">
  <defs>
    <style>
      .cls-1 {
        clip-path: url(#clip-ic_zhcx账户查询);
      }

      .cls-2 {
        fill: #ffffff;
      }
    </style>
    <clipPath id="clip-ic_zhcx账户查询">
      <rect width="56" height="56"/>
    </clipPath>
  </defs>
  <g id="ic_zhcx账户查询" data-name="ic/zhcx账户查询" class="cls-1">
    <g id="ic_vtmywcxVTM业务查询" data-name="ic/vtmywcxVTM业务查询" transform="translate(-120.454 -1299)">
      <path id="查询_1_" data-name="查询 (1)" class="cls-2" d="M45.7,7.817H78v21.53h2.7V7.817A2.7,2.7,0,0,0,78,5.12H45.7a2.7,2.7,0,0,0-2.7,2.7V45.5a2.7,2.7,0,0,0,2.7,2.7H64.537V45.5H45.7ZM82.457,45.678l-6.176-6.089a9.276,9.276,0,1,0-2.022,1.783l6.307,6.22a1.365,1.365,0,0,0,1.914,0A1.386,1.386,0,0,0,82.457,45.678ZM62.406,33.456a6.72,6.72,0,1,1,6.72,6.72A6.724,6.724,0,0,1,62.406,33.456Z" transform="translate(87.27 1300.156)"/>
      <path id="路径_720" data-name="路径 720" class="cls-2" d="M251.019,222.647c.944.449.587.265.587.265s-3.94.672-6.154,2.821h-6.714s-.009.228,0-.323c0-1.84.653-1.752,2.778-2.763.724-.345,3.014-1.359,3.014-1.359a2.151,2.151,0,0,0,0-.906,4.112,4.112,0,0,1-1.16-2.265c-.5-.227-.652-1.188-.7-1.359s.045-.62.382-.646a3,3,0,0,1-.151-.94c0-.076.006-.151.013-.227s-.013-.15-.013-.227c0-1.751,1.505-2.718,3.362-2.718s3.362.966,3.362,2.718c0,.076-.006.151-.013.227s.013.15.013.227a3,3,0,0,1-.151.94c.338.026.423.487.382.646s-.193,1.133-.7,1.359a4.1,4.1,0,0,1-1.16,2.265,1.711,1.711,0,0,0,0,.906S250.295,222.3,251.019,222.647Zm-8.951,6.04h-8.363v2.1h7.817A9.086,9.086,0,0,1,242.068,228.687Zm-.86,4.916h-7.5v2.1h7.5a5.923,5.923,0,0,1-.094-1A7.792,7.792,0,0,1,241.208,233.6Z" transform="translate(-97.164 1099.54)"/>
      <path id="路径_769" data-name="路径 769" class="cls-2" d="M241.993,233.6h-8.288v2.1h9.284A9.249,9.249,0,0,1,241.993,233.6Z" transform="translate(-97.164 1104.54)"/>
    </g>
  </g>
</svg>
