<?xml version="1.0" encoding="UTF-8"?>
<svg width="56px" height="56px" viewBox="0 0 56 56" version="1.1" xmlns="http://www.w3.org/2000/svg" xmlns:xlink="http://www.w3.org/1999/xlink">
    <!-- Generator: Sketch 52.4 (67378) - http://www.bohemiancoding.com/sketch -->
    <title>股东账户开户</title>
    <desc>Created with Sketch.</desc>
    <g id="股东账户开户" stroke="none" stroke-width="1" fill="none" fill-rule="evenodd">
        <g>
            <g>
                <rect id="矩形-copy-23" x="0" y="0" width="56" height="56"></rect>
                <path d="M45,23 L9,23 L9,38 C9,39.1045695 9.8954305,40 11,40 L33.2230164,40 C33.38215,40.7013005 33.6231798,41.3714959 33.9355196,42 L11,42 C8.790861,42 7,40.209139 7,38 L7,18 C7,15.790861 8.790861,14 11,14 L43,14 C45.209139,14 47,15.790861 47,18 L47,30.515549 C46.3829884,30.1025345 45.712058,29.7637935 45,29.5121171 L45,23 Z M45,20 L45,18 C45,16.8954305 44.1045695,16 43,16 L11,16 C9.8954305,16 9,16.8954305 9,18 L9,20 L45,20 Z M27,26 L37,26 C37.5522847,26 38,26.4477153 38,27 C38,27.5522847 37.5522847,28 37,28 L27,28 C26.4477153,28 26,27.5522847 26,27 C26,26.4477153 26.4477153,26 27,26 Z M27,30 L32,30 C32.5522847,30 33,30.4477153 33,31 C33,31.5522847 32.5522847,32 32,32 L27,32 C26.4477153,32 26,31.5522847 26,31 C26,30.4477153 26.4477153,30 27,30 Z M42,30 C46.418278,30 50,33.581722 50,38 C50,42.418278 46.418278,46 42,46 C37.581722,46 34,42.418278 34,38 C34,33.581722 37.581722,30 42,30 Z M42,32 C38.6862915,32 36,34.6862915 36,38 C36,41.3137085 38.6862915,44 42,44 C45.3137085,44 48,41.3137085 48,38 C48,34.6862915 45.3137085,32 42,32 Z M41,37 L41,35 C41,34.4477153 41.4477153,34 42,34 C42.5522847,34 43,34.4477153 43,35 L43,37 L45,37 C45.5522847,37 46,37.4477153 46,38 C46,38.5522847 45.5522847,39 45,39 L43,39 L43,41 C43,41.5522847 42.5522847,42 42,42 C41.4477153,42 41,41.5522847 41,41 L41,39 L39,39 C38.4477153,39 38,38.5522847 38,38 C38,37.4477153 38.4477153,37 39,37 L41,37 Z M20.2876883,33.1990389 L20.2778087,33.189255 L18.4999341,27.4999688 L15.4999283,27.4999688 L13,35.4998974 L16.9999312,39 L20.9998815,35.4998974 L20.2824714,33.2041793 L20.2876883,33.1990389 Z M16.4998156,28.500151 L17.4997411,28.500151 L17.6043084,28.8399339 L15.857869,30.5863735 L16.4998156,28.500151 Z M15.2292418,32.629237 L17.937101,29.9214072 L18.2250243,30.8570763 L14.685308,34.3968307 L15.2292418,32.629237 Z M15.0409173,35.5411354 L18.5779774,32.0040945 L18.8747102,32.9684276 L15.6581935,36.1583666 L15.0409173,35.5411354 Z M16.9999312,37.5000134 L16.4774766,36.9775835 L19.2594616,34.2187126 L19.4998596,34.9999592 L16.9999312,37.5000134 Z M18.4999341,27.0000115 L19.4998595,24 L14.4997162,24 L15.4999092,27.0000115 L18.4999341,27.0000115 Z M20.499785,31.9999669 L23,33.4999917 L21.999807,29.9998701 L19.4998596,28.5001701 L20.499785,31.9999669 Z" id="合并形状" fill="#FFFFFF"></path>
            </g>
        </g>
    </g>
</svg>