<svg xmlns="http://www.w3.org/2000/svg" xmlns:xlink="http://www.w3.org/1999/xlink" viewBox="0 0 56 56">
  <defs>
    <style>
      .cls-1 {
        clip-path: url(#clip-ic_xybq协议补签);
      }

      .cls-2 {
        fill: #ffffff;
      }
    </style>
    <clipPath id="clip-ic_xybq协议补签">
      <rect width="56" height="56"/>
    </clipPath>
  </defs>
  <g id="ic_xybq协议补签" data-name="ic/xybq协议补签" class="cls-1">
    <g id="补签" transform="translate(-37.155 -38.854)">
      <path id="路径_730" data-name="路径 730" class="cls-2" d="M65.254,47.945a20.39,20.39,0,0,1,13.2,5.718,18.514,18.514,0,0,1,4,5.933A18.781,18.781,0,0,1,84.2,66.854a18.562,18.562,0,0,1-5.623,13.2,18.545,18.545,0,0,1-5.843,4.135,19.744,19.744,0,0,1-7.483,1.627,19.356,19.356,0,0,1-7.4-1.627A19.083,19.083,0,0,1,51.9,80.084a20.163,20.163,0,0,1-4.162-6.2,17.4,17.4,0,0,1-1.488-7.028,20.2,20.2,0,0,1,1.6-7.58,19.745,19.745,0,0,1,4.246-6.009,18.594,18.594,0,0,1,5.953-4,18.13,18.13,0,0,1,7.209-1.323Zm0-2.145A21.054,21.054,0,1,0,86.308,66.854,21.055,21.055,0,0,0,65.254,45.8" transform="translate(0 0)"/>
      <path id="路径_731" data-name="路径 731" class="cls-2" d="M212.384,199.5a14.584,14.584,0,1,0,0,29.168c.29,0,.69-.217.725-.459s-.124-.614-.725-.614c-6.842,0-13.554-6.155-13.511-13.511a13.51,13.51,0,0,1,13.511-13.511A13.932,13.932,0,0,1,225.9,214.084c0,.385.05.944.527.941s.546-.556.546-.941A14.6,14.6,0,0,0,212.384,199.5Z" transform="translate(-147.13 -147.225)"/>
      <path id="路径_732" data-name="路径 732" class="cls-2" d="M347.849,337.7l.671-.671-1.354-1.159-.272.333a23.391,23.391,0,0,1-1.942,2.075c-.122-.078-.239-.161-.366-.244v-.76a26.793,26.793,0,0,0,2.3-2.94l.072-.105v-1.481H345.12l.544-.288-.194-.377c-.427-.8-.854-1.564-1.276-2.252l-.2-.327-1.537.749.233.388c.344.577.732,1.281,1.154,2.1h-3.362v1.686h4.288a19.216,19.216,0,0,1-4.682,4.482l-.288.2.144.316a7.29,7.29,0,0,1,.333.876l.178.566.471-.355c.693-.521,1.342-1.048,1.942-1.564v7.228h1.72v-6.185c.976.732,1.786,1.353,2.4,1.847l.322.255,1.137-1.392-.377-.255c-.327-.222-.777-.538-1.331-.932-.161-.116-.305-.216-.433-.305C346.728,338.814,347.239,338.309,347.849,337.7Zm7.328,2.363.288.305,1.32-1.27-.294-.3c-1.176-1.2-2.607-2.6-4.255-4.149l-.283-.266-.538.5V329.6h-1.742v16.57h1.742v-9.93C352.586,337.366,353.851,338.647,355.177,340.062Z" transform="translate(-282.864 -271.504)"/>
    </g>
    <path id="风险测评" class="cls-2" d="M18.268,1.493,17.033.257a.88.88,0,0,0-1.244,0L9.7,6.349,8.017,9.922a.442.442,0,0,0,.4.629.459.459,0,0,0,.19-.043l3.574-1.679,6.091-6.091a.881.881,0,0,0,0-1.245ZM11.7,8.154,9.19,9.335l1.181-2.512,4.412-4.412,1.332,1.332Zm5.991-5.991L16.688,3.169,15.356,1.838,16.362.832a.067.067,0,0,1,.1,0l1.235,1.235a.067.067,0,0,1,0,.1Z" transform="translate(22.735 30.472)"/>
  </g>
</svg>
