<?xml version="1.0" encoding="UTF-8"?>
<svg width="56px" height="56px" viewBox="0 0 56 56" version="1.1" xmlns="http://www.w3.org/2000/svg" xmlns:xlink="http://www.w3.org/1999/xlink">
    <!-- Generator: Sketch 52.6 (67491) - http://www.bohemiancoding.com/sketch -->
    <title>icon-v0007</title>
    <desc>Created with Sketch.</desc>
    <g id="icon-v0007" stroke="none" stroke-width="1" fill="none" fill-rule="evenodd">
        <rect id="Rectangle" x="0" y="0" width="56" height="56"></rect>
        <g id="ic_zqzhgl证券账户关联关系维护-2" transform="translate(7.108000, 10.893000)" fill="#ffffff">
            <path d="M7.888,34.654 L4.732,34.654 C2.40439727,34.7351206 0.448299821,32.921106 0.354,30.594 L0.354,5.052 C0.446696563,2.72370603 2.40327303,0.907906538 4.732,0.989 L35.82,0.989 C38.148727,0.907906538 40.1053034,2.72370603 40.198,5.052 L40.198,16.123 C40.198,16.86 40.013,17.329 39.219,17.329 C38.425,17.329 38.113,16.86 38.113,16.123 L38.113,5.052 C38.113,4.284 36.648,3.062 35.82,3.062 L4.732,3.062 C3.73764052,3.26853136 2.96585634,4.05413265 2.777,5.052 L2.777,30.594 C2.98416805,31.5403972 3.769607,32.2507073 4.732,32.362 L6.332,32.362 L12.552,19.318 L18.139,22.078 L26.086,6.831 C26.467489,6.15600122 27.302885,5.88637836 28.007,6.211 C28.3421925,6.34706707 28.6051224,6.61723439 28.7320397,6.9559972 C28.858957,7.29476001 28.838272,7.67118349 28.675,7.994 L19.428,25.736 L13.712,22.912 L7.888,34.654 Z M30.849,34.654 L13.538,34.654 C12.744,34.654 12.038,34.29 12.038,33.554 C12.0737075,33.1946581 12.2532529,32.8650408 12.5357841,32.6401459 C12.8183154,32.415251 13.1798039,32.3142054 13.538,32.36 L30.846,32.36 C31.1912264,32.3175276 31.5383079,32.4230872 31.8014287,32.6505791 C32.0645496,32.878071 32.2191482,33.2062594 32.227,33.554 C32.227,34.291 31.641,34.654 30.846,34.654 L30.849,34.654 Z" id="路径_633" fill-rule="nonzero"></path>
            <path d="M29.56,13.971 C28.9823794,13.9706066 28.4704255,13.5990466 28.291,13.05 L26.818,8.544 L22.412,10.096 C21.7206325,10.327238 20.9716033,9.96109273 20.7293874,9.2734944 C20.4871714,8.58589607 20.8413451,7.83113242 21.525,7.578 L28.508,5.119 L30.829,12.219 C30.9615224,12.6256051 30.8913829,13.071079 30.6403301,13.4172905 C30.3892773,13.763502 29.9876561,13.9686043 29.56,13.969 L29.56,13.971 Z" id="路径_634"></path>
            <path d="M41.616,33.209 C40.5331464,34.2915145 38.7778536,34.2915145 37.695,33.209 L34.94,30.454 L34.868,30.477 C32.4885501,31.2417147 29.8830273,30.4878276 28.2795512,28.5706852 C26.6760751,26.6535428 26.3946791,23.9557824 27.568,21.749 C27.6463046,21.6015121 27.7898754,21.4998626 27.955,21.475 C28.1201327,21.4519201 28.2866506,21.5065645 28.406,21.623 L31.186,24.402 L32.812,22.776 L30.03,20.03 C29.9132991,19.9112875 29.8594165,19.7444913 29.8846109,19.5799404 C29.9098053,19.4153895 30.0111258,19.2723565 30.158,19.194 C32.3579309,18.0314556 35.0419833,18.3115568 36.9544872,19.9032649 C38.866991,21.4949729 39.6297794,24.0835532 38.886,26.458 L38.864,26.529 L41.619,29.292 C42.6985322,30.3753065 42.6985322,32.1276935 41.619,33.211 L41.616,33.209 Z M28.177,23.109 C27.6044173,24.9716995 28.1469454,26.9977934 29.5737237,28.3251232 C31.000502,29.6524529 33.0604487,30.0474374 34.877,29.342 C35.0716023,29.267624 35.2917457,29.3146297 35.439,29.462 L38.448,32.462 C39.1259042,33.1065725 40.1900958,33.1065725 40.868,32.462 C41.5348377,31.7866247 41.530816,30.6994234 40.859,30.029 L37.859,27.029 C37.7112212,26.8815564 37.664187,26.6608877 37.739,26.466 C38.4444374,24.6494487 38.0494529,22.589502 36.7221232,21.1627237 C35.3947934,19.7359454 33.3686995,19.1934173 31.506,19.766 L31.306,19.826 L33.918,22.447 C34.1231787,22.6533426 34.1231787,22.9866574 33.918,23.193 L31.59,25.521 C31.383884,25.7267274 31.050116,25.7267274 30.844,25.521 L28.223,22.921 L28.177,23.109 Z" id="维护" fill-rule="nonzero"></path>
        </g>
    </g>
</svg>