<?xml version="1.0" encoding="UTF-8"?>
<svg width="56px" height="56px" viewBox="0 0 56 56" version="1.1" xmlns="http://www.w3.org/2000/svg" xmlns:xlink="http://www.w3.org/1999/xlink">
    <!-- Generator: Sketch 52.6 (67491) - http://www.bohemiancoding.com/sketch -->
    <title>icon-v0011</title>
    <desc>Created with Sketch.</desc>
    <g id="icon-v0011" stroke="none" stroke-width="1" fill="none" fill-rule="evenodd">
        <rect id="Rectangle" x="0" y="0" width="56" height="56"></rect>
        <g id="ic_grzlws个人资料完善-2" transform="translate(1.002000, 3.974000)">
            <path d="M38.417,44.428 L12.239,44.428 C11.103137,44.4222302 10.0165922,43.9631805 9.22066685,43.1527974 C8.42474148,42.3424143 7.9853237,41.2477828 8,40.112 L8,8.542 C8.00655234,6.19092657 9.8884254,4.27486992 12.239,4.226 L15.524,4.226 L15.524,6.859 L12.239,6.859 C11.3374149,6.89052246 10.6287422,7.64109145 10.649,8.543 L10.649,40.219 C10.6287422,41.1209085 11.3374149,41.8714775 12.239,41.903 L38.417,41.903 C39.3185851,41.8714775 40.0272578,41.1209085 40.007,40.219 L40.007,39.324 L42.657,36.903 L42.657,40.114 C42.6716763,41.2497828 42.2322585,42.3444143 41.4363331,43.1547974 C40.6404078,43.9651805 39.553863,44.4242302 38.418,44.43 L38.417,44.428 Z M42.656,25.917 L40.006,28.338 L40.006,8.538 C40.0262578,7.63609145 39.3175851,6.88552246 38.416,6.854 L35.131,6.854 L35.131,4.222 L38.416,4.222 C39.551863,4.22776984 40.6384078,4.68681948 41.4343331,5.49720257 C42.2302585,6.30758565 42.6696763,7.40221721 42.655,8.538 L42.655,25.914 L42.656,25.917 Z M21.777,4.225 L28.877,4.225 L28.877,6.859 L21.777,6.859 L21.777,4.225 Z" id="路径_641" fill="#ffffff" fill-rule="nonzero"></path>
            <path d="M18.087,10.16 C17.3883212,10.1508447 16.8241553,9.5866788 16.815,8.888 L16.815,3.271 C16.8241553,2.5723212 17.3883212,2.00815535 18.087,1.999 C18.7693553,2.04541824 19.3125818,2.58864466 19.359,3.271 L19.359,8.888 C19.3732853,9.22953463 19.2438646,9.5614394 19.002152,9.80315201 C18.7604394,10.0448646 18.4285346,10.1742853 18.087,10.16 Z M32.713,10.16 C32.0143212,10.1508447 31.4501553,9.5866788 31.441,8.888 L31.441,3.271 C31.4410001,2.56849388 32.0104939,1.99900021 32.713,1.99900021 C33.4155061,1.99900021 33.9849999,2.56849388 33.985,3.271 L33.985,8.888 C33.9758447,9.5866788 33.4116788,10.1508447 32.713,10.16 Z" id="路径_642" fill="#ffffff" fill-rule="nonzero"></path>
            <path d="M36.109,19.544 L27.571,19.544 C26.8723212,19.5348447 26.3081553,18.9706788 26.299,18.272 C26.3454182,17.5896447 26.8886447,17.0464182 27.571,17 L36.104,17 C36.5825234,16.9620208 37.0418729,17.1958159 37.2927772,17.6050519 C37.5436815,18.0142879 37.5436815,18.5297121 37.2927772,18.9389481 C37.0418729,19.3481841 36.5825234,19.5819792 36.104,19.544 L36.109,19.544 Z" id="路径_644" fill="#ffffff"></path>
            <path d="M36.109,27.124 L27.571,27.124 C26.8723212,27.1148447 26.3081553,26.5506788 26.299,25.852 C26.3454182,25.1696447 26.8886447,24.6264182 27.571,24.58 L36.104,24.58 C36.583802,24.5395974 37.0454895,24.7727226 37.2978206,25.1828097 C37.5501517,25.5928967 37.5501517,26.1101033 37.2978206,26.5201903 C37.0454895,26.9302774 36.583802,27.1634026 36.104,27.123 L36.109,27.124 Z" id="路径_646" fill="#ffffff"></path>
            <path d="M31.134,35.808 L14.471,35.808 C13.7734695,35.7988829 13.2097642,35.236507 13.199,34.539 C13.2454182,33.8566447 13.7886447,33.3134182 14.471,33.267 L31.134,33.267 C31.8365062,33.267 32.406,33.8364938 32.406,34.539 C32.406,35.2415062 31.8365062,35.811 31.134,35.811 L31.134,35.808 Z M37.488,37.398 C37.1245677,37.3969085 36.7783473,37.2430328 36.534,36.974 L30.705,31.145 C30.1781205,30.6181203 30.1781206,29.7638798 30.7050002,29.2370002 C31.2318798,28.7101206 32.0861203,28.7101205 32.613,29.237 L38.442,35.066 C38.6965366,35.318207 38.8397313,35.6616744 38.8397313,36.02 C38.8397313,36.3783256 38.6965366,36.721793 38.442,36.974 C38.2098616,37.2593415 37.8553229,37.4165426 37.488,37.397 L37.488,37.398 Z" id="路径_648" fill="#ffffff" fill-rule="nonzero"></path>
            <path d="M37.733,37.416 C37.3695677,37.4149085 37.0233473,37.2610328 36.779,36.992 C36.5244634,36.739793 36.3812687,36.3963256 36.3812687,36.038 C36.3812687,35.6796744 36.5244634,35.336207 36.779,35.084 L50.239,21.624 C50.7658797,21.0971203 51.6201203,21.0971203 52.147,21.624 C52.6738797,22.1508797 52.6738797,23.0051203 52.147,23.532 L38.581,37.098 C38.3507193,37.3106927 38.0463519,37.4248305 37.733,37.416 Z" id="路径_649" fill="#ffffff"></path>
            <g id="_0.2cnumber_copy_7" transform="translate(0.998000, 0.038000)">
                <g id="Group_3" transform="translate(0.162000, 0.000000)">
                    <polygon id="Clip_2-2" points="0 37.148 27.519 37.148 27.519 0 0 0"></polygon>
                </g>
                <path d="M23.325,28.179 C22.9925612,25.7743045 21.0227575,23.9302226 18.6013891,23.756871 C16.1800206,23.5835195 13.9676084,25.1281867 13.296,27.461 C13.2285241,27.6964052 13.1780607,27.9363571 13.145,28.179" id="Oval_2" stroke="#ffffff" stroke-width="2" stroke-linecap="round"></path>
                <circle id="Oval_6" stroke="#ffffff" stroke-width="2" cx="18.104" cy="20.085" r="2.995"></circle>
            </g>
        </g>
    </g>
</svg>