<svg xmlns="http://www.w3.org/2000/svg" xmlns:xlink="http://www.w3.org/1999/xlink" width="56" height="56" viewBox="0 0 56 56">
  <defs>
    <clipPath id="clip-ic_zjsc增加市场">
      <rect width="56" height="56"/>
    </clipPath>
  </defs>
  <g id="ic_zjsc增加市场" data-name="ic/zjsc增加市场" clip-path="url(#clip-ic_zjsc增加市场)">
    <path id="证券_3_" data-name="证券 (3)" d="M94.616,70.4H61.154a3.3,3.3,0,0,0-3.3,3.3v30.925a3.3,3.3,0,0,0,3.3,3.3H63.59a1.44,1.44,0,0,0,1.115-.531l8.009-9.929,3.656,3.017a1.435,1.435,0,0,0,1.962-.131L89.793,86.867v3.7c.126.783.554,1.111,1.136,1.111s1-.535,1-1.326L91.9,84.658a1.434,1.434,0,0,0,.031-.275v-.012s0,0,0-.007,0,0,0-.007c0-.79-.613-1.188-1.42-1.1l-6.25.067a1.156,1.156,0,0,0-1.21,1.1,1.092,1.092,0,0,0,1.181,1.024h3.784L77.067,98.026l-3.671-3.1a1.433,1.433,0,0,0-2.028.2L63.01,105.455H61.477c-1.3-.026-1.2-.953-1.208-2.068V74.936a2.528,2.528,0,0,1,2.121-2.084H93.378a2.574,2.574,0,0,1,2.163,2.084v28.45c0,.911-1.251,1.65-2.163,1.65H78.511a1.443,1.443,0,1,0,0,2.887H94.616a3.3,3.3,0,0,0,3.3-3.3V73.7A3.3,3.3,0,0,0,94.616,70.4Z" transform="translate(-48.904 -61.39)" fill="#ffffff"/>
    <line id="直线_6" data-name="直线 6" x2="7.797" transform="translate(16.359 19.979)" fill="none" stroke="#ffffff" stroke-linecap="round" stroke-width="2"/>
    <line id="直线_7" data-name="直线 7" y2="7.797" transform="translate(20.258 16.081)" fill="none" stroke="#ffffff" stroke-linecap="round" stroke-width="2"/>
  </g>
</svg>
