<?xml version="1.0" encoding="UTF-8"?>
<svg width="56px" height="56px" viewBox="0 0 56 56" version="1.1" xmlns="http://www.w3.org/2000/svg" xmlns:xlink="http://www.w3.org/1999/xlink">
    <!-- Generator: Sketch 52.4 (67378) - http://www.bohemiancoding.com/sketch -->
    <title>机构开户 </title>
    <desc>Created with Sketch.</desc>
    <g id="机构开户-" stroke="none" stroke-width="1" fill="none" fill-rule="evenodd">
        <g id="分组">
            <rect id="矩形" x="0" y="0" width="56" height="56"></rect>
            <path d="M37.3750793,46.1673076 C37.7987178,46.7381832 38.3072015,47.2423278 38.8818823,47.6610934 C35.9106429,49.1574033 32.553721,50 29,50 C16.8497355,50 7,40.1502645 7,28 C7,15.8497355 16.8497355,6 29,6 C41.1502645,6 51,15.8497355 51,28 C51,31.553721 50.1574033,34.9106429 48.6610934,37.8818823 C48.2423278,37.3072015 47.7381832,36.7987178 47.1673076,36.3750793 C48.3437101,33.8274557 49,30.9903702 49,28 C49,16.954305 40.045695,8 29,8 C17.954305,8 9,16.954305 9,28 C9,39.045695 17.954305,48 29,48 C31.9903702,48 34.8274557,47.3437101 37.3750793,46.1673076 Z" id="合并形状-copy" fill="#FFFFFF" fill-rule="nonzero"></path>
            <path d="M39.9494821,35.9082266 L19.0462491,35.9082266 C18.4691554,35.9082266 18.0026425,36.374986 18.0026425,36.955842 C18.0026425,37.5332406 18.4691554,38 19.0462491,38 L39.9460264,38 C40.5231201,38 40.989633,37.5332406 40.989633,36.955842 C40.9930887,36.3749859 40.5231201,35.9082266 39.9494821,35.9082266 Z M20.3524852,33.1871924 C19.7753915,33.1871924 19.3088786,33.6539518 19.3088786,34.2313504 C19.3088786,34.808749 19.7753915,35.2789658 20.3524852,35.2789658 L38.6397904,35.2789658 C39.2168841,35.2789658 39.6833969,34.808749 39.6833969,34.2313504 C39.6833969,33.6539518 39.2168841,33.1871924 38.6397904,33.1871924 L38.3806165,33.1871924 L38.3806165,23.7793982 L38.6397904,23.7793982 C38.930065,23.7793982 39.1615936,23.5442898 39.1615936,23.2573192 C39.1615936,22.9703486 38.9266094,22.7352402 38.6397904,22.7352402 L20.3524852,22.7352402 C20.0622105,22.7352402 19.8306819,22.9703486 19.8306819,23.2573192 C19.8306819,23.5442898 20.0656662,23.7793982 20.3524852,23.7793982 L20.6151147,23.7793982 L20.6151147,33.1906499 L20.3524852,33.1871924 Z M36.2899477,23.7793982 L36.2899477,33.1906499 L33.1556722,33.1906499 L33.1556722,23.7793982 L36.2899477,23.7793982 Z M31.0650033,23.7793982 L31.0650033,33.1906499 L27.9307279,33.1906499 L27.9307279,23.7793982 L31.0650033,23.7793982 Z M22.7057836,23.7793982 L25.840059,23.7793982 L25.840059,33.1906499 L22.7057836,33.1906499 L22.7057836,23.7793982 Z M19.0462491,21.7913491 L39.9563934,21.7913491 C40.5334871,21.7913491 41,21.3245897 41,20.7471911 C41,20.2873467 40.702814,19.9001093 40.2950472,19.7583527 L29.9246385,15.0907591 C29.6517734,14.969747 29.3405022,14.969747 29.067637,15.0907591 L18.6177484,19.7929275 C18.1685138,19.9969186 17.9197069,20.4844228 18.0233764,20.9650121 C18.1305016,21.4490589 18.5555467,21.7913491 19.0462491,21.7913491 Z" id="形状" fill="#FFFFFF" fill-rule="nonzero"></path>
            <path d="M43,42 L43,39 C43,38.4477153 43.4477153,38 44,38 C44.5522847,38 45,38.4477153 45,39 L45,42 L48,42 C48.5522847,42 49,42.4477153 49,43 C49,43.5522847 48.5522847,44 48,44 L45,44 L45,47 C45,47.5522847 44.5522847,48 44,48 C43.4477153,48 43,47.5522847 43,47 L43,44 L40,44 C39.4477153,44 39,43.5522847 39,43 C39,42.4477153 39.4477153,42 40,42 L43,42 Z" id="合并形状" fill="#FFFFFF"></path>
        </g>
    </g>
</svg>