<svg xmlns="http://www.w3.org/2000/svg" width="24" height="24" viewBox="0 0 24 24">
  <g fill="none" fill-rule="evenodd">
    <rect width="24" height="24"/>
    <path fill="#FFF" fill-rule="nonzero" d="M18.9902875,11.0798819 C18.9902875,10.813197 19.2000105,10.5970063 19.4587169,10.5970063 C19.7174234,10.5970063 19.9271464,10.813197 19.9271464,11.0798819 L19.9271464,21.56794 C19.9271464,22.3679945 19.2979774,23.0165669 18.5218581,23.0165669 L2.41959607,23.0165669 C1.64347676,23.0165669 1.01430774,22.3679945 1.01430774,21.56794 L1.01430774,2.53298364 C1.01430774,1.73292914 1.64347676,1.08435682 2.41959607,1.08435682 L16.6481403,1.08435682 C16.9068467,1.08435682 17.1165697,1.30054759 17.1165697,1.56723242 C17.1165697,1.83391726 16.9068467,2.05010803 16.6481403,2.05010803 L2.41959607,2.05010803 C2.16088963,2.05010803 1.95116663,2.2662988 1.95116663,2.53298364 L1.95116663,21.56794 C1.95116663,21.8346249 2.16088963,22.0508156 2.41959607,22.0508156 L18.5218581,22.0508156 C18.7805645,22.0508156 18.9902875,21.8346249 18.9902875,21.56794 L18.9902875,11.0798819 Z M3.60483412,11 L8.03436769,11 C8.19189764,11 8.31960091,11.2228307 8.31960091,11.4977063 C8.31960091,11.7725819 8.19189764,11.9954126 8.03436769,11.9954126 L3.60483412,11.9954126 C3.44730417,11.9954126 3.31960091,11.7725819 3.31960091,11.4977063 C3.31960091,11.2228307 3.44730417,11 3.60483412,11 Z M11.0248366,8 C11.1873312,8 11.3190591,8.2227281 11.3196009,8.49793522 C11.3196009,8.62995376 11.2885654,8.75655849 11.2333294,8.84986673 C11.1780934,8.94317496 11.1031871,8.99553391 11.0251076,8.99541235 L3.61395878,8.99541235 C3.45138941,8.99541235 3.31960091,8.7725817 3.31960091,8.49770628 C3.31960091,8.22283064 3.45138941,8 3.61395878,8 L11.0248366,8 Z M11.9879911,5 C12.1707975,5 12.3189913,5.2227281 12.3196009,5.49793522 C12.3196009,5.62995376 12.284686,5.75655849 12.2225455,5.84986673 C12.1604049,5.94317496 12.0761354,5.99553391 11.9882959,5.99541235 L3.65075351,5.99541235 C3.46786298,5.99541235 3.31960091,5.7725817 3.31960091,5.49770628 C3.31960091,5.22283064 3.46786298,5 3.65075351,5 L11.9879911,5 Z M11.0248366,14 C11.1873312,14 11.3190591,14.2227281 11.3196009,14.4979352 C11.3196009,14.6299538 11.2885654,14.7565585 11.2333294,14.8498667 C11.1780934,14.943175 11.1031871,14.9955339 11.0251076,14.9954123 L3.61395878,14.9954123 C3.45138941,14.9954123 3.31960091,14.7725817 3.31960091,14.4977063 C3.31960091,14.2228306 3.45138941,14 3.61395878,14 L11.0248366,14 Z M13.9143001,17 C14.1377301,17 14.3188559,17.2227281 14.3196009,17.4979352 C14.3196009,17.6299538 14.2769271,17.7565585 14.2009776,17.8498667 C14.1250281,17.943175 14.022032,17.9955339 13.9146726,17.9954123 L3.72434298,17.9954123 C3.50081011,17.9954123 3.31960091,17.7725817 3.31960091,17.4977063 C3.31960091,17.2228306 3.50081011,17 3.72434298,17 L13.9143001,17 Z M21.6137508,3.70617733 L22.004308,3.22387935 L20.4843378,1.99303174 L20.1083517,2.45733589 L21.6137508,3.70617733 Z M20.9851835,4.48239331 L19.4797844,3.23355186 L13.5244261,10.587807 L13.0189727,12.7659172 L15.0443963,11.8186546 L20.9851835,4.48239331 Z M22.6370273,2.44253615 C23.0567555,2.78242533 23.1137343,3.40777922 22.7642931,3.83930316 L15.8043814,12.4340784 C15.7074877,12.5570988 15.5839654,12.656425 15.4436592,12.7241404 L13.4182356,13.671403 C13.0749198,13.832495 12.6757766,13.7868009 12.3875643,13.5534112 C12.099352,13.3200215 11.9716699,12.9391009 12.0578623,12.5697944 L12.5633156,10.3916842 C12.5972169,10.2388944 12.666107,10.095274 12.7644409,9.97238316 L19.7243527,1.37760794 C20.0737939,0.946084001 20.6973289,0.871799357 21.117057,1.21168854 L22.6370273,2.44253615 Z"/>
  </g>
</svg>
