<svg xmlns="http://www.w3.org/2000/svg" xmlns:xlink="http://www.w3.org/1999/xlink" viewBox="0 0 56 56">
  <defs>
    <style>
      .cls-1 {
        clip-path: url(#clip-ic_cpkh产品开户);
      }

      .cls-2 {
        fill: #ffffff;
      }

      .cls-3, .cls-4 {
        fill: none;
        stroke: #ffffff;
        stroke-width: 2px;
      }

      .cls-4 {
        stroke-linecap: round;
      }
    </style>
    <clipPath id="clip-ic_cpkh产品开户">
      <rect width="56" height="56"/>
    </clipPath>
  </defs>
  <g id="ic_cpkh产品开户" data-name="ic/cpkh产品开户" class="cls-1">
    <g id="组_331" data-name="组 331">
      <path id="基金_1_" data-name="基金 (1)" class="cls-2" d="M141.439,145.374v.745h1.408V143.3c0-2.3-4.064-3.537-7.888-3.537s-7.891,1.241-7.891,3.537v10.427c0,2.3,3.064,3.538,6.888,3.538v-1.321c-4.017,0-5.482-1.291-5.482-2.217v-3.134a9.4,9.4,0,0,0,5.482,1.461V150.73c-4.017,0-5.482-1.292-5.482-2.217v-3.138a15.978,15.978,0,0,0,6.485,1.184A16.772,16.772,0,0,0,141.439,145.374Zm-6.483-4.292c4.016,0,6.483,1.291,6.483,2.216s-2.467,2.217-6.483,2.217-6.482-1.291-6.482-2.217S130.941,141.081,134.955,141.081Zm5.307,5.478c-3.494,0-5.32,1.262-5.32,2.509v6.7c0,1.246,1.828,2.509,5.32,2.509,3.468,0,5.291-1.245,5.32-2.483h0v-6.728C145.582,147.821,143.757,146.559,140.262,146.559Zm0,1.321c2.583,0,3.915.833,3.915,1.188s-1.332,1.189-3.915,1.189-3.914-.834-3.914-1.189,1.332-1.189,3.914-1.189Zm0,9.078c-2.583,0-3.914-.833-3.914-1.189v-1.6a10.467,10.467,0,0,0,7.829,0v1.6C144.177,156.124,142.845,156.958,140.262,156.958Zm0-3.352c-2.583,0-3.914-.834-3.914-1.189v-1.6a10.455,10.455,0,0,0,7.829,0v1.6C144.177,152.772,142.845,153.606,140.262,153.606Zm-2.655,11.38c-9.434.685-18.466-7.1-18.466-16.125a16.424,16.424,0,0,1,32.848,0h.018a.878.878,0,0,0,.9.851.822.822,0,0,0,.859-.851,18.214,18.214,0,0,0-18.206-17.849c-10.425,0-18.173,7.459-18.173,17.849s8.193,18.1,20.215,17.976c0,0,1.281.221,1.28-.905S137.607,164.986,137.607,164.986Z" transform="translate(-109.204 -122.869)"/>
      <path id="Oval_6_Copy" data-name="Oval 6 Copy" class="cls-3" d="M8,0A8,8,0,1,1,0,8,8,8,0,0,1,8,0Z" transform="translate(34.099 33)"/>
      <path id="路径_741" data-name="路径 741" class="cls-4" d="M34.183,33h7.882" transform="translate(4.099 8)"/>
      <path id="路径_742" data-name="路径 742" class="cls-4" d="M34.183,33h7.882" transform="translate(75.222 2.877) rotate(90)"/>
    </g>
  </g>
</svg>
