<svg xmlns="http://www.w3.org/2000/svg" xmlns:xlink="http://www.w3.org/1999/xlink" viewBox="0 0 56 56">
  <defs>
    <style>
      .cls-1 {
        clip-path: url(#clip-ic_wcnkh未成年人账户开户);
      }

      .cls-2 {
        fill: #ffffff;
      }
    </style>
    <clipPath id="clip-ic_wcnkh未成年人账户开户">
      <rect width="56" height="56"/>
    </clipPath>
  </defs>
  <g id="ic_wcnkh未成年人账户开户" data-name="ic/wcnkh未成年人账户开户" class="cls-1">
    <g id="账户_2_" data-name="账户 (2)" transform="translate(6.955 -54.25)">
      <path id="路径_701" data-name="路径 701" class="cls-2" d="M39.459,64H2.631A2.633,2.633,0,0,0,0,66.631V95.567A2.633,2.633,0,0,0,2.631,98.2H17.1a1.08,1.08,0,0,0,1.215-1.122c0-.728-.488-1.012-1.215-1.012H2.071V65.987H40V78.468c0,.728.333,1.16,1.061,1.16s1.024-.432,1.024-1.16V66.631A2.633,2.633,0,0,0,39.459,64Z"/>
      <path id="路径_702" data-name="路径 702" class="cls-2" d="M188.793,338.368a6.577,6.577,0,1,0-8.393,0,15.29,15.29,0,0,0-3.669,2.422c-.794.906-1.928,1.891-3.108,5.778-.112.671.216,1.031.606,1.031s.762-.362.955-1.031a9.311,9.311,0,0,1,9.412-7.285c5.6-.048,9.246,4.435,9.487,7.285a.856.856,0,0,0,.8.812c.3-.016.661-.168.692-.812a11.853,11.853,0,0,0-3.015-5.778A22.365,22.365,0,0,0,188.793,338.368Zm-4.2-10.006a4.778,4.778,0,0,1,4.946,4.946,4.946,4.946,0,0,1-9.892,0A4.778,4.778,0,0,1,184.6,328.362Zm-1.315-11.214h-12.1a1.315,1.315,0,1,0,0,2.631h12.1a1.315,1.315,0,0,0,0-2.631Zm-3,5.261h-9.1a1.315,1.315,0,1,0,0,2.631h9.1a1.315,1.315,0,0,0,0-2.631Zm-4.1,5.261h-5.006a1.315,1.315,0,1,0,0,2.631h5.006a1.315,1.315,0,0,0,0-2.631Z" transform="translate(-149.423 -244.478)"/>
      <path id="路径_703" data-name="路径 703" class="cls-2" d="M14.85.532q-.411.5-.822,1.084A15.16,15.16,0,0,1,8.079-3.365V2.759H6.934V-3.35A20.094,20.094,0,0,1,.971,1.792,12.455,12.455,0,0,0,.178.81a19.18,19.18,0,0,0,6.3-5.025H.413V-5.3H6.934V-8.052H1.279V-9.137H6.934v-2.505H8.079v2.505h5.713v1.084H8.079V-5.3H14.6v1.084H8.49A14.455,14.455,0,0,0,14.85.532Z" transform="translate(3.632 85.77)"/>
    </g>
  </g>
</svg>
