<?xml version="1.0" encoding="UTF-8"?>
<svg width="56px" height="56px" viewBox="0 0 56 56" version="1.1" xmlns="http://www.w3.org/2000/svg" xmlns:xlink="http://www.w3.org/1999/xlink">
    <!-- Generator: Sketch 52.4 (67378) - http://www.bohemiancoding.com/sketch -->
    <title>客户额度激活</title>
    <desc>Created with Sketch.</desc>
    <g id="客户额度激活" stroke="none" stroke-width="1" fill="none" fill-rule="evenodd">
        <g>
            <rect id="矩形-copy-17" x="0" y="0" width="56" height="56"></rect>
            <path d="M32.9848485,21.0031111 L29.3318182,27.3824444 L32.2106061,27.3824444 L32.2106061,28.7917778 L28.8560606,28.7917778 L28.8560606,30.7346667 L32.2090909,30.7346667 L32.2090909,32.1611111 L28.8560606,32.1611111 L28.8560606,34.9891111 L27.1318182,34.9891111 L27.1318182,32.1611111 L23.6545455,32.1611111 L23.6545455,30.7346667 L27.1318182,30.7346667 L27.1318182,28.7917778 L23.6545455,28.7917778 L23.6545455,27.3824444 L26.6212121,27.3824444 L23.0030303,21.0031111 L24.9484848,21.0031111 C26.6378788,24.1717778 27.6651515,26.18 28.0287879,27.0308889 L28.0636364,27.0308889 C28.1863636,26.6808889 28.5242424,25.9762222 29.0757576,24.9168889 L31.1439394,21.0031111 L32.9848485,21.0031111 Z M35,46.7407846 L35,48.8629553 C32.8011144,49.6004242 30.4472202,50 28,50 C15.8497355,50 6,40.1502645 6,28 C6,15.8497355 15.8497355,6 28,6 C40.1502645,6 50,15.8497355 50,28 C50,33.2498835 48.161124,38.0702745 45.0923382,41.8522069 L43.5036299,40.6357552 C46.3143632,37.1912319 48,32.7924667 48,28 C48,16.954305 39.045695,8 28,8 C16.954305,8 8,16.954305 8,28 C8,39.045695 16.954305,48 28,48 C30.4626418,48 32.8213271,47.5549096 35,46.7407846 Z M35,40.1270493 L35,42.3915342 C32.8856081,43.4218868 30.5103168,44 28,44 C19.163444,44 12,36.836556 12,28 C12,19.163444 19.163444,12 28,12 C36.836556,12 44,19.163444 44,28 C44,31.8776447 42.6205949,35.4331121 40.3257159,38.202471 L38.7363679,36.9855295 C40.7735162,34.5540264 42,31.4202435 42,28 C42,20.2680135 35.7319865,14 28,14 C20.2680135,14 14,20.2680135 14,28 C14,35.7319865 20.2680135,42 28,42 C30.5500116,42 32.9407894,41.3182391 35.0000039,40.127047 Z M46.1113321,43.9031352 C45.6574901,43.8896256 45.1836257,43.9031352 44.6897389,43.9436641 C44.2625935,43.9706834 43.7787179,44.0213445 43.238112,44.0956475 C42.6975061,44.1699505 42.146889,44.281405 41.5862607,44.4300109 L43.7687066,48.0776118 C43.9555827,48.4423719 43.9889535,48.8273964 43.8688188,49.2326854 C43.7486842,49.6379744 43.5017408,49.9351863 43.1279886,50.1243212 C42.7675847,50.3269657 42.3871583,50.3641171 41.9867095,50.2357756 C41.5862607,50.1074341 41.2925982,49.8608833 41.1057221,49.4961232 L39.2836801,45.38244 C38.7897933,45.6796519 38.3459625,45.9937509 37.9521879,46.3247369 C37.5584132,46.6557229 37.2213688,46.9630671 36.9410547,47.2467694 C36.6073473,47.5845102 36.3136849,47.922251 36.0600673,48.2599918 L36,36 L46.1113321,43.9031352 Z" id="合并形状" fill="#FFFFFF"></path>
        </g>
    </g>
</svg>