<?xml version="1.0" encoding="UTF-8"?>
<svg width="56px" height="56px" viewBox="0 0 56 56" version="1.1" xmlns="http://www.w3.org/2000/svg" xmlns:xlink="http://www.w3.org/1999/xlink">
    <!-- Generator: Sketch 52.6 (67491) - http://www.bohemiancoding.com/sketch -->
    <title>icon-v0010</title>
    <desc>Created with Sketch.</desc>
    <g id="icon-v0010" stroke="none" stroke-width="1" fill="none" fill-rule="evenodd">
        <rect id="Rectangle" x="0" y="0" width="56" height="56"></rect>
        <g id="ic_fxcp风险测评-2" transform="translate(7.000000, 8.000000)" fill="#ffffff" fill-rule="nonzero">
            <path d="M41.479,39.956 L1.608,39.956 C0.874013567,39.956 0.279,39.3609864 0.279,38.627 C0.279,37.8930136 0.874013567,37.298 1.608,37.298 L41.479,37.298 C42.2129864,37.298 42.808,37.8930136 42.808,38.627 C42.808,39.3609864 42.2129864,39.956 41.479,39.956 Z M41.965,5.356 L37.919,1.312 C36.7934829,0.188235284 34.9705171,0.188235284 33.845,1.312 L13.897,21.26 L8.397,32.96 C8.18819216,33.4064457 8.22098357,33.9284737 8.484017,34.3452805 C8.74705043,34.7620874 9.20414995,35.0163481 9.697,35.02 C9.91238139,35.0182741 10.1248651,34.9701839 10.32,34.879 L22.02,29.379 L41.964,9.436 C43.0893258,8.30956727 43.0893258,6.48443273 41.964,5.358 L41.965,5.356 Z M20.463,27.169 L12.236,31.036 L16.103,22.809 L30.551,8.369 L34.912,12.73 L20.463,27.169 Z M40.079,7.554 L36.789,10.848 L32.429,6.487 L35.722,3.194 C35.763578,3.15148614 35.8205344,3.12752184 35.88,3.12752184 C35.9394656,3.12752184 35.996422,3.15148614 36.038,3.194 L40.079,7.239 C40.1215139,7.28057797 40.1454782,7.33753442 40.1454782,7.397 C40.1454782,7.45646558 40.1215139,7.51342203 40.079,7.555 L40.079,7.554 Z" id="风险测评"></path>
        </g>
    </g>
</svg>