<?xml version="1.0" encoding="UTF-8"?>
<svg width="56px" height="56px" viewBox="0 0 56 56" version="1.1" xmlns="http://www.w3.org/2000/svg" xmlns:xlink="http://www.w3.org/1999/xlink">
    <!-- Generator: Sketch 52.6 (67491) - http://www.bohemiancoding.com/sketch -->
    <title>icon-v0001</title>
    <desc>Created with Sketch.</desc>
    <g id="icon-v0001" stroke="none" stroke-width="1" fill="none" fill-rule="evenodd">
        <rect id="Rectangle" x="0" y="0" width="56" height="56"></rect>
        <g id="ic_cybjy创业板交易权限新开-2" transform="translate(7.462000, 8.428000)">
            <path d="M18.884,29.357 C18.0765065,29.4055958 17.2851129,29.1165651 16.699,28.559 C16.115718,27.8853729 15.8316038,27.0034277 15.912,26.116 L15.912,18.724 C15.9088533,18.7281521 15.9051521,18.7318533 15.901,18.735 C15.5524657,19.0265086 15.1740189,19.280259 14.772,19.492 C14.5239033,18.9062772 14.2358931,18.3382755 13.91,17.792 C13.838,17.666 13.767,17.537 13.699,17.415 C16.1446331,15.7608129 18.0815803,13.4585672 19.293,10.766 L21.464,10.78 L21.409,11.855 L26.184,16.055 L24.972,17.355 L24.801,17.409 C24.801,17.871 24.812,18.357 24.823,18.872 C24.847,19.978 24.873,21.121 24.796,22.187 C24.736,23.987 23.827,24.969 22.167,25.024 L19.226,25.039 L19.252,22.823 C19.268,22.823 20.907,22.839 21.462,22.839 C21.7069464,22.841785 21.9405537,22.7359661 22.1,22.55 C22.816,21.75 22.586,19.55 22.584,19.526 L18.113,19.526 L18.113,26.126 C18.0637936,26.4075905 18.1328924,26.6970095 18.304,26.926 C18.522,27.158 18.917,27.203 19.525,27.203 L22.248,27.203 C23.2919428,27.2524297 24.220217,26.5439876 24.448,25.524 L26.421,26.008 L26.421,26.013 C26.3453364,26.603017 26.1474572,27.1707701 25.84,27.68 C25.1479502,28.795034 23.8987079,29.4390604 22.589,29.356 L19.014,29.356 L18.884,29.357 Z M20.423,13.53 L20.376,13.604 C19.5968854,15.0105756 18.5751509,16.2682773 17.358,17.319 L24.409,17.332 C24.4,17.325 24.171,17.108 23.825,16.778 C22.856,15.857 20.839,13.94 20.425,13.53 L20.423,13.53 Z" id="Fill_88" fill="#ffffff" fill-rule="nonzero"></path>
            <polygon id="Fill_89" fill="#ffffff" points="25.441 22.509 27.398 22.509 27.398 13.702 25.441 13.702"></polygon>
            <path d="M29.429,26.1 C29.478,26.992 29.203,27.2 28.358,27.2 L26.444,27.2 L26.42,29.358 L28.829,29.358 C30.517,29.302 31.404,27.945 31.305,26.104 L31.305,10.766 L29.429,10.766 L29.429,26.1 Z" id="Fill_90" fill="#ffffff"></path>
            <g id="Group_4" transform="translate(0.000000, 0.124000)" stroke="#ffffff" stroke-linecap="round" stroke-width="2">
                <path d="M6.214,29.208 C8.71487839,33.6710594 12.9047196,36.9415893 17.8413937,38.2841766 C22.7780679,39.6267639 28.0472107,38.9287174 32.464,36.347 C41.6825653,30.8687273 44.8117574,19.0143652 39.498,9.7 C34.191,0.376 21.337,-2.707 13.247,2.566 C5.157,7.839 4.437,13.641 3.737,15.445" id="Oval_11"></path>
                <polyline id="Path_18" points="0 10.068 2.582 17.978 8.749 11.968"></polyline>
            </g>
        </g>
    </g>
</svg>