<svg xmlns="http://www.w3.org/2000/svg" xmlns:xlink="http://www.w3.org/1999/xlink" viewBox="0 0 56 56">
  <defs>
    <style>
      .cls-1 {
        clip-path: url(#clip-ic_ggtqxkt港股通权限开通);
      }

      .cls-2 {
        fill: #ffffff;
      }
    </style>
    <clipPath id="clip-ic_ggtqxkt港股通权限开通">
      <rect width="56" height="56"/>
    </clipPath>
  </defs>
  <g id="ic_ggtqxkt港股通权限开通" data-name="ic/ggtqxkt港股通权限开通" class="cls-1">
    <g id="港股通_1_" data-name="港股通 (1)" transform="translate(-31.998 7.946)">
      <path id="路径_737" data-name="路径 737" class="cls-2" d="M627.7,496.9h-10l1.328-.766a.918.918,0,1,0-.918-1.59l-4.136,2.388a.91.91,0,0,0-.447.854l0,.033,0,.033a.914.914,0,0,0,.447.854l4.136,2.388a.918.918,0,1,0,.918-1.59l-1.328-.766h10a.918.918,0,0,0,0-1.837Zm1.325-4.959,0-.033a.913.913,0,0,0-.448-.854l-4.136-2.388a.918.918,0,1,0-.918,1.591l1.327.766h-9.27a.918.918,0,0,0,0,1.837h9.27l-1.328.766a.918.918,0,1,0,.918,1.59l4.136-2.388a.908.908,0,0,0,.447-.854A.174.174,0,0,0,629.026,491.937Z" transform="translate(-546.279 -469.507)"/>
      <path id="路径_738" data-name="路径 738" class="cls-2" d="M77.382,32.532a.92.92,0,0,0-.918.918v4.287H51.116v-1.9H70.035a.918.918,0,1,0,0-1.837H44.5V1.837H69.851V16.184a.919.919,0,0,0,1.837,0V7.678a.848.848,0,0,0,.184.037h2.45v8.837a.919.919,0,0,0,1.837,0V6.8a.919.919,0,0,0-.918-.918H71.872a.894.894,0,0,0-.184.037v-5A.919.919,0,0,0,70.77,0c-.1,0-.476,0-.576,0H44.161a.94.94,0,0,0-.292.057A.9.9,0,0,0,43.585,0a.919.919,0,0,0-.918.918V34.552a.908.908,0,0,0,.489.8.9.9,0,0,0,.8.489h5.327v2.45a.919.919,0,0,0,.918.918c.006,0,.011,0,.016,0a.9.9,0,0,0,.719.371H77.015a.9.9,0,0,0,.8-.489.9.9,0,0,0,.489-.8V33.45a.92.92,0,0,0-.918-.918Z"/>
      <path id="路径_739" data-name="路径 739" class="cls-2" d="M187.874,210.99h3.767v-2.266h-3.767Zm4.62,5.258c0-.106-.015-.171-.046-.2a.256.256,0,0,0-.158-.039h-5.027a.179.179,0,0,0-.13.039.323.323,0,0,0-.037.2v1.582H192.1c.259,0,.389-.137.389-.41v-1.172Zm3.432,3.281a8.052,8.052,0,0,1-.177,1.731,2.253,2.253,0,0,1-.473.985,1.788,1.788,0,0,1-.826.51,8.073,8.073,0,0,1-1.215.252q-.5.064-1.011.08c-.389.013-.795.018-1.215.018s-.84-.008-1.261-.029q-.566-.024-1.132-.069a7.131,7.131,0,0,1-1.42-.215,2.045,2.045,0,0,1-.9-.479,1.779,1.779,0,0,1-.473-.849,5.414,5.414,0,0,1-.139-1.348v-4.279a1.365,1.365,0,0,1,.288-.979,1.272,1.272,0,0,1,.936-.293h5.751a1.238,1.238,0,0,1,.928.293,1.4,1.4,0,0,1,.279.979v1.974a1.57,1.57,0,0,1-.333,1.054,1.226,1.226,0,0,1-.984.391H187.1v1.193a.989.989,0,0,0,.334.743,1.819,1.819,0,0,0,1.113.37c.284.025.633.048,1.049.059q1.233.038,2.467,0a6.277,6.277,0,0,0,.882-.077,5.126,5.126,0,0,0,.8-.187,1.1,1.1,0,0,0,.492-.313,1.021,1.021,0,0,0,.223-.546,5.6,5.6,0,0,0,.028-.909,1.234,1.234,0,0,1,.121-.733.627.627,0,0,1,.584-.264.7.7,0,0,1,.547.215A1.077,1.077,0,0,1,195.926,219.528Zm-.185-12.249a.623.623,0,0,1,.742.721.718.718,0,0,1-.185.558.814.814,0,0,1-.556.166h-2.69v2.266h3.1a.626.626,0,0,1,.742.723.648.648,0,0,1-.742.724h-2.634A12.729,12.729,0,0,0,195,214.127a9.9,9.9,0,0,0,1.428,1.123q.854.606.557,1.232-.2.41-.52.419a1.757,1.757,0,0,1-.928-.438,11.163,11.163,0,0,1-1.725-1.554,24.807,24.807,0,0,1-1.948-2.47h-4.4q-.428.741-.835,1.318a10.5,10.5,0,0,1-.826,1.036,8.459,8.459,0,0,1-.863.83,9.36,9.36,0,0,1-.965.7,1.516,1.516,0,0,1-.732.283.57.57,0,0,1-.511-.342.7.7,0,0,1-.027-.633,1.278,1.278,0,0,1,.454-.519A8.121,8.121,0,0,0,184.6,214a9.243,9.243,0,0,0,1.252-1.563h-2.56a.64.64,0,0,1-.723-.724.772.772,0,0,1,.166-.547.744.744,0,0,1,.557-.177h3.172v-2.266h-2a.813.813,0,0,1-.556-.166.719.719,0,0,1-.186-.558.647.647,0,0,1,.742-.721h2v-1.663c0-.521.241-.78.723-.78.457,0,.687.259.687.78v1.663h3.767V205.6q0-.784.7-.784c.471,0,.706.26.706.784v1.68h2.689Zm-12.393,2.11a.644.644,0,0,1-.565.164,1.052,1.052,0,0,1-.548-.518q-.42-.637-.872-1.25t-.945-1.171a1.21,1.21,0,0,1-.324-.656.708.708,0,0,1,.306-.537.691.691,0,0,1,.492-.2c.155.015.344.158.565.431q.52.606,1.012,1.249t.918,1.309a1.365,1.365,0,0,1,.259.664.71.71,0,0,1-.3.509Zm-.168,8.439q-.292.722-.6,1.435-.256.59-.547,1.163c-.186.367-.381.733-.584,1.106q-.341.615-.7,1.221c-.21.338-.409.529-.594.574a.727.727,0,0,1-.63-.225.537.537,0,0,1-.214-.518,1.935,1.935,0,0,1,.362-.753q.389-.587.7-1.085t.575-1.006a11.6,11.6,0,0,0,.5-1.085q.263-.661.491-1.336c.186-.6.5-.822.928-.665a.616.616,0,0,1,.454.419,1.261,1.261,0,0,1-.14.752Zm-.537-3.476a.579.579,0,0,1-.566.164,1.213,1.213,0,0,1-.547-.459q-.352-.45-.863-1.006-.529-.576-1.086-1.125-.667-.606-.13-1.17a.719.719,0,0,1,.5-.266,1.145,1.145,0,0,1,.612.4q.575.567,1.132,1.173t.891,1.036a1.319,1.319,0,0,1,.324.683A.66.66,0,0,1,182.643,214.352Z" transform="translate(-130.624 -195.892)"/>
    </g>
  </g>
</svg>
