<?xml version="1.0" encoding="UTF-8"?>
<svg width="56px" height="56px" viewBox="0 0 56 56" version="1.1" xmlns="http://www.w3.org/2000/svg" xmlns:xlink="http://www.w3.org/1999/xlink">
    <!-- Generator: Sketch 52.6 (67491) - http://www.bohemiancoding.com/sketch -->
    <title>icon-v0016</title>
    <desc>Created with Sketch.</desc>
    <g id="icon-v0016" stroke="none" stroke-width="1" fill="none" fill-rule="evenodd">
        <rect id="Rectangle" x="0" y="0" width="56" height="56"></rect>
        <g id="ic_lwjts两网及退市公司股份转让权限开通-2" transform="translate(8.000000, 8.000000)" stroke="#ffffff">
            <g id="Group_47" transform="translate(0.000000, 0.223000)">
                <path d="M35.271,35.434 C33.277,35.176 24.206,37.515 21.678,37.704 C19.15,37.893 16.303,35.282 14.448,34.298 C12.593,33.314 6.64,29.478 6.64,29.478 C6.64,29.478 6.34,26.778 9.532,27.491 C12.3445265,28.337166 15.0596377,29.4785183 17.632,30.896 C17.632,30.896 21.169,31.962 23.662,31.23 C25.386,30.721 27.681,29.969 28.583,29.069 C29.424,28.229 29.332,27.382 28.621,27.491 C27.15,27.72 21.485,28.251 19.945,27.775 C18.405,27.299 17.545,25.486 18.21,24.375 C20.4509722,24.151898 22.673684,23.7729811 24.862,23.241 C29.508,22.22 30.662,21.507 32.67,22.389 C35.2097062,23.7238118 37.8465272,24.8650526 40.558,25.803 L40.558,7.095 C40.5582654,5.33980787 39.8610671,3.65644227 38.6198651,2.41542777 C37.378663,1.17441328 35.6951921,0.47746939 33.94,0.478 L6.645,0.478 C2.99053181,0.478 0.028,3.44053181 0.028,7.095 L0.028,34.39 C0.028,38.0444682 2.99053181,41.007 6.645,41.007 L33.94,41.007 C36.7080946,41.0047907 39.1820071,39.2790372 40.14,36.682 C38.471,36.241 36.158,35.548 35.271,35.434 Z" id="Stroke_11_Copy" stroke-width="2" fill-opacity="0" fill="#000000"></path>
                <g id="市" transform="translate(2.838000, 3.478000)" fill="#ffffff" font-family="PingFangSC-Regular, PingFang SC" font-size="20" font-weight="normal">
                    <text>
                        <tspan x="0.925" y="21">市</tspan>
                    </text>
                </g>
            </g>
        </g>
    </g>
</svg>