<?xml version="1.0" encoding="UTF-8"?>
<svg width="56px" height="56px" viewBox="0 0 56 56" version="1.1" xmlns="http://www.w3.org/2000/svg" xmlns:xlink="http://www.w3.org/1999/xlink">
    <!-- Generator: Sketch 52.6 (67491) - http://www.bohemiancoding.com/sketch -->
    <title>icon-v0008</title>
    <desc>Created with Sketch.</desc>
    <g id="icon-v0008" stroke="none" stroke-width="1" fill="none" fill-rule="evenodd">
        <rect id="Rectangle" x="0" y="0" width="56" height="56"></rect>
        <g id="ic_ymthb一码通合并-2" transform="translate(6.546000, 9.060000)" fill="#ffffff">
            <path d="M42.3,13.528 L43.384,13.528 L43.384,7.928 C43.384,4.064 40.954,0.928 37.96,0.928 L0,0.928 L0,13.528 L1.085,13.528 C2.8668879,13.4611695 4.53851986,14.3892546 5.424,15.937 C5.86040255,16.9455337 6.09645311,18.0293285 6.119,19.128 C6.119,22.219 3.481,24.728 1.086,24.728 L0,24.728 L0,30.328 C0,34.192 2.43,37.328 5.424,37.328 L43.389,37.328 L43.389,24.728 L42.3,24.728 C39.2072054,24.728 36.7,22.2207946 36.7,19.128 C36.7,16.0352054 39.2072054,13.528 42.3,13.528 Z M41.22,27.41 L41.22,34.527 L11.806,34.527 L11.806,28.927 C11.8814834,28.2439769 11.4012543,27.6243265 10.721,27.527 C10.0407457,27.6243265 9.56051665,28.2439769 9.636,28.927 L9.636,34.527 L5.424,34.527 C3.624,34.527 2.172,32.645 2.17,30.327 L2.17,27.41 C5.244,26.742 8.289,23.283 8.289,19.128 C8.27925669,16.9074301 7.51434994,14.7562401 6.12,13.028 C5.05847145,11.9118875 3.68015703,11.1482127 2.171,10.84 L2.171,3.727 L9.637,3.727 L9.637,9.327 C9.56151665,10.0100231 10.0417457,10.6296735 10.722,10.727 C11.4022543,10.6296735 11.8824834,10.0100231 11.807,9.327 L11.807,3.727 L37.965,3.727 C39.765,3.727 41.219,5.607 41.219,7.927 L41.219,10.842 C37.3927454,11.76575 34.696957,15.1898168 34.696957,19.126 C34.696957,23.0621832 37.3927454,26.48625 41.219,27.41 L41.22,27.41 Z" id="路径_636" fill-rule="nonzero"></path>
            <path d="M10.592,14.945 C9.93354836,14.9482866 9.40073538,15.4815458 9.398,16.14 L9.398,22.115 C9.38541259,22.5499948 9.6102899,22.9574434 9.98504844,23.1786558 C10.359807,23.3998683 10.825193,23.3998683 11.1999516,23.1786558 C11.5747101,22.9574434 11.7995874,22.5499948 11.787,22.115 L11.787,16.141 C11.7848083,15.4817673 11.2512306,14.9477432 10.592,14.945 Z" id="路径_637"></path>
            <path d="M24.195,7.461 L22.68,7.461 C20.097606,10.786876 16.8842082,13.5703934 13.224,15.652 L14.306,17.888 C15.5014793,17.1498927 16.6500184,16.3383341 17.745,15.458 L17.745,17.232 L29.125,17.232 L29.125,15.506 C30.1944509,16.351543 31.3145353,17.1309935 32.479,17.84 L33.579,15.63 C29.9443405,13.5504471 26.7554958,10.7744803 24.195,7.461 Z M18.288,15.02 C20.2263461,13.4186235 21.9570768,11.5814017 23.44,9.551 C24.9151406,11.5720184 26.62737,13.408804 28.54,15.022 L18.288,15.02 Z M16.388,29.92 L18.379,29.92 L18.379,28.605 L28.506,28.605 L28.506,29.92 L30.497,29.92 L30.497,19.833 L16.383,19.833 L16.388,29.92 Z M18.379,21.996 L28.506,21.996 L28.506,26.422 L18.374,26.422 L18.379,21.996 Z" id="路径_638" fill-rule="nonzero"></path>
        </g>
    </g>
</svg>