<?xml version="1.0" encoding="UTF-8"?>
<svg width="56px" height="56px" viewBox="0 0 56 56" version="1.1" xmlns="http://www.w3.org/2000/svg" xmlns:xlink="http://www.w3.org/1999/xlink">
    <!-- Generator: Sketch 52.4 (67378) - http://www.bohemiancoding.com/sketch -->
    <title>客户征信</title>
    <desc>Created with Sketch.</desc>
    <g id="客户征信" stroke="none" stroke-width="1" fill="none" fill-rule="evenodd">
        <g>
            <rect id="矩形-copy-24" x="0" y="0" width="56" height="56"></rect>
            <g id="分组-16" transform="translate(7.000000, 7.000000)" fill="#FFFFFF">
                <g id="zhengxinbaogao" transform="translate(21.000000, 21.000000) scale(-1, 1) translate(-21.000000, -21.000000) " fill-rule="nonzero">
                    <path d="M34.0040356,31.5089486 L34.0040356,4.56279723 C33.9988863,2.06689319 31.9767113,0.0449633294 29.4812976,0.0395688899 L4.55609535,0.0395688899 C2.06019135,0.0452084953 0.0382614488,2.0671384 0.0328670508,4.56279723 L0.0328670508,9.54773958 C0.0328670508,10.0792667 0.463754942,10.5101547 0.995282108,10.5101547 L3.99999981,10.5101547 L3.99999981,28 C4.00838885,28.5254703 4.47446276,28.9470523 5,28.9470523 C5.52553724,28.9470523 5.95390344,28.5254703 5.96229247,28 L5.96229247,10.5101547 L26,10.5101547 C26.2552908,10.5102197 26.5001479,10.4088514 26.6806888,10.2283565 C26.8612296,10.0478616 26.9626603,9.80303042 26.9626603,9.54773958 L26.9626603,4.56279723 C26.9626603,3.12763403 28.0458892,1.96439909 29.4810524,1.96439905 C30.9162156,1.96439901 31.9568844,3.12763399 31.9568844,4.56279723 L31.9568844,37.4765265 C31.9547961,38.4063304 32.3630998,39.3139923 32.8974421,40.0749246 L13.9472968,40.0749246 C13.4216914,40.083314 13,40.5117899 13,41.0374623 C13,41.5631347 13.4216914,41.9916106 13.9472968,42 L36.6316127,42 C39.1275167,41.9946056 41.1492014,39.9724305 41.1545958,37.4767717 L41.1545958,32.4711185 C41.154596,31.939743 40.7240464,31.5088642 40.1926711,31.5084582 L40.1632469,31.5089486 L34.0040356,31.5089486 Z M24.9578241,4.56279723 L24.9578241,8.58532448 L1.95769721,8.58532448 L1.95769721,4.56279723 C1.96284644,3.12984085 3.12338418,1.96979353 4.55609535,1.96439905 L25.7280014,1.96439905 C25.2145129,2.73276243 24.9459819,3.63872339 24.9578241,4.56279723 Z M36.6024337,40.0078034 C35.1670253,40.0078034 34.0040356,38.7566085 34.0040356,37.3214453 L34.0040356,33.434024 L38.9973665,33.434024 L38.997346,37.2829487 C39.0029857,38.7183571 37.8439191,40.0021638 36.4085107,40.0078034 L36.6024337,40.0078034 L36.6024337,40.036492 L36.6024337,40.0078034 Z" id="形状"></path>
                </g>
                <path d="M38.248,32.872 L34.936,32.872 L34.936,31.66 L41.932,31.66 L41.932,32.872 L39.508,32.872 L39.508,35.716 L41.68,35.716 L41.68,36.88 L39.508,36.88 L39.508,40.54 L42.208,40.54 L42.208,41.764 L34.588,41.764 L34.588,40.54 L35.608,40.54 L35.608,34.492 L36.832,34.492 L36.832,40.54 L38.248,40.54 L38.248,32.872 Z M33.328,31 L34.42,31.516 C33.832,32.836 32.824,34.024 31.384,35.104 L31,33.868 C32.044,33.052 32.824,32.104 33.328,31 Z M33.712,34.12 L34.804,34.624 C34.54,35.2 34.192,35.752 33.772,36.28 L33.772,42.196 L32.548,42.196 L32.548,37.564 C32.212,37.852 31.864,38.128 31.492,38.404 L31.108,37.192 C32.272,36.328 33.136,35.296 33.712,34.12 Z" id="征"></path>
                <rect id="矩形" x="15" y="16" width="18" height="2" rx="1"></rect>
                <rect id="矩形-copy-25" x="15" y="21" width="18" height="2" rx="1"></rect>
                <rect id="矩形-copy-26" x="15" y="26" width="11" height="2" rx="1"></rect>
            </g>
        </g>
    </g>
</svg>