<?xml version="1.0" encoding="UTF-8"?>
<svg width="56px" height="56px" viewBox="0 0 56 56" version="1.1" xmlns="http://www.w3.org/2000/svg" xmlns:xlink="http://www.w3.org/1999/xlink">
    <!-- Generator: Sketch 52.4 (67378) - http://www.bohemiancoding.com/sketch -->
    <title>个人开户</title>
    <desc>Created with Sketch.</desc>
    <g id="个人开户" stroke="none" stroke-width="1" fill="none" fill-rule="evenodd">
        <g id="分组">
            <rect id="矩形" x="0" y="0" width="56" height="56"></rect>
            <path d="M36.3750793,46.1673076 C36.7987178,46.7381832 37.3072015,47.2423278 37.8818823,47.6610934 C34.9106429,49.1574033 31.553721,50 28,50 C15.8497355,50 6,40.1502645 6,28 C6,15.8497355 15.8497355,6 28,6 C40.1502645,6 50,15.8497355 50,28 C50,31.553721 49.1574033,34.9106429 47.6610934,37.8818823 C47.2423278,37.3072015 46.7381832,36.7987178 46.1673076,36.3750793 C47.3437101,33.8274557 48,30.9903702 48,28 C48,16.954305 39.045695,8 28,8 C16.954305,8 8,16.954305 8,28 C8,39.045695 16.954305,48 28,48 C30.9903702,48 33.8274557,47.3437101 36.3750793,46.1673076 Z" id="合并形状" fill="#FFFFFF" fill-rule="nonzero"></path>
            <g id="分组-15" transform="translate(17.000000, 15.000000)">
                <rect id="矩形" stroke="#FFFFFF" stroke-width="2" x="5" y="1" width="11" height="11" rx="5.5"></rect>
                <path d="M22,22 C22,22.5522847 21.5522847,23 21,23 C20.4477153,23 20,22.5522847 20,22 C20,17.0294373 15.9705627,13 11,13 C6.02943725,13 2,17.0294373 2,22 C2,22.5522847 1.55228475,23 1,23 C0.44771525,23 6.76353751e-17,22.5522847 0,22 C0,15.9248678 4.92486775,11 11,11 C17.0751322,11 22,15.9248678 22,22 Z" id="合并形状" fill="#FFFFFF" fill-rule="nonzero"></path>
            </g>
            <path d="M42,42 L42,39 C42,38.4477153 42.4477153,38 43,38 C43.5522847,38 44,38.4477153 44,39 L44,42 L47,42 C47.5522847,42 48,42.4477153 48,43 C48,43.5522847 47.5522847,44 47,44 L44,44 L44,47 C44,47.5522847 43.5522847,48 43,48 C42.4477153,48 42,47.5522847 42,47 L42,44 L39,44 C38.4477153,44 38,43.5522847 38,43 C38,42.4477153 38.4477153,42 39,42 L42,42 Z" id="合并形状" fill="#FFFFFF"></path>
        </g>
    </g>
</svg>