<?xml version="1.0" encoding="UTF-8"?>
<svg width="56px" height="56px" viewBox="0 0 56 56" version="1.1" xmlns="http://www.w3.org/2000/svg" xmlns:xlink="http://www.w3.org/1999/xlink">
    <!-- Generator: Sketch 52.4 (67378) - http://www.bohemiancoding.com/sketch -->
    <title>证券转托管</title>
    <desc>Created with Sketch.</desc>
    <g id="证券转托管" stroke="none" stroke-width="1" fill="none" fill-rule="evenodd">
        <g>
            <g id="分组-15-copy-2">
                <g id="资金账户开户">
                    <rect id="矩形-copy-23" x="0" y="0" width="56" height="56"></rect>
                    <path d="M47,30.515549 C46.3829884,30.1025345 45.712058,29.7637935 45,29.5121171 L45,18 C45,16.8954305 44.1045695,16 43,16 L11,16 C9.8954305,16 9,16.8954305 9,18 L9,38 C9,39.1045695 9.8954305,40 11,40 L33.2230164,40 C33.38215,40.7013005 33.6231798,41.3714959 33.9355196,42 L11,42 C8.790861,42 7,40.209139 7,38 L7,18 C7,15.790861 8.790861,14 11,14 L43,14 C45.209139,14 47,15.790861 47,18 L47,30.515549 Z M14,26 C14.5522847,26 15,26.4477153 15,27 L15,37 C15,37.5522847 14.5522847,38 14,38 C13.4477153,38 13,37.5522847 13,37 L13,27 C13,26.4477153 13.4477153,26 14,26 Z M22,30 C22.5522847,30 23,30.4477153 23,31 L23,37 C23,37.5522847 22.5522847,38 22,38 C21.4477153,38 21,37.5522847 21,37 L21,31 C21,30.4477153 21.4477153,30 22,30 Z M30,27 C30.5522847,27 31,27.4477153 31,28 L31,37 C31,37.5522847 30.5522847,38 30,38 C29.4477153,38 29,37.5522847 29,37 L29,28 C29,27.4477153 29.4477153,27 30,27 Z M39,29.5121171 C38.287942,29.7637935 37.6170116,30.1025345 37,30.515549 L37,23 C37,22.4477153 37.4477153,22 38,22 C38.5522847,22 39,22.4477153 39,23 L39,29.5121171 Z M42,30 C46.418278,30 50,33.581722 50,38 C50,42.418278 46.418278,46 42,46 C37.581722,46 34,42.418278 34,38 C34,33.581722 37.581722,30 42,30 Z M42,32 C38.6862915,32 36,34.6862915 36,38 C36,41.3137085 38.6862915,44 42,44 C45.3137085,44 48,41.3137085 48,38 C48,34.6862915 45.3137085,32 42,32 Z M38.068,39.61375 C38.4803,39.5303864 38.9857,39.4012045 39.2832,39.3655682 C39.8208,39.3006591 42.2645,39.8861136 42.9456,39.9332045 C43.6267,39.9802955 44.3939,39.3273864 44.8937,39.08175 C45.3935,38.8354773 46.9979,37.8752045 46.9979,37.8752045 C46.9979,37.8752045 47.0777,37.1993864 46.2188,37.3788409 C45.3599,37.5582955 44.0369,38.2302955 44.0369,38.2302955 C44.0369,38.2302955 43.0842,38.4969318 42.4122,38.3136591 C41.9474,38.1863864 41.3293,37.9980227 41.0864,37.7733864 C40.8596,37.5633864 40.8848,37.3514773 41.0759,37.3788409 C41.4721,37.4361136 42.9988,37.5691136 43.4132,37.4501136 C43.8283,37.3311136 44.0607,36.8773864 43.8808,36.5986591 C43.8808,36.5986591 43.3404,36.5706591 42.0888,36.3148409 C40.8365,36.0590227 40.5257,35.8814773 39.9846,36.1016591 C39.5268,36.28875 38.4593,36.8792955 37.2154,37.1083864 C36.9116,38.6872045 37.9539,39.6073864 38.068,39.61375 Z" id="合并形状" fill="#FFFFFF"></path>
                </g>
            </g>
            <polyline id="路径-10" stroke="#FFFFFF" stroke-width="2" stroke-linecap="round" stroke-linejoin="round" points="14 22.9980962 21.9846356 26.9790999 29.9846356 23.9207524 38.0926356 19"></polyline>
        </g>
    </g>
</svg>