<?xml version="1.0" encoding="UTF-8"?>
<svg width="82px" height="82px" viewBox="0 0 82 82" version="1.1" xmlns="http://www.w3.org/2000/svg" xmlns:xlink="http://www.w3.org/1999/xlink">
    <!-- Generator: Sketch 49.2 (51160) - http://www.bohemiancoding.com/sketch -->
    <title>ic/people_w</title>
    <desc>Created with Sketch.</desc>
    <defs>
        <path d="M50.6035455,44.1871397 C56.474,45.4007515 61.703,47.6438666 62.0008182,47.7734939 C63.6865455,48.4385381 65,50.3679177 65,52.2353017 L65,59.9659707 L64.8988182,60.259041 C64.3318182,61.8991076 62.8026364,63 61.0920909,63 L26.9079091,63 C24.9466233,62.9996333 23.2891071,61.5694149 23,59.6559925 L23,52.2353017 C23,50.3810683 24.3077273,48.455446 26.0469091,47.7547073 C26.3332727,47.6288374 32.4538182,45.0005978 38.9065455,43.9034627 C36.2357273,42.0285641 34.4850909,38.9569617 34.4850909,35.4852056 L34.4850909,29.3363648 C34.4859653,26.8188667 35.4238604,24.3888735 37.1215455,22.5055719 C39.1037814,20.2799241 41.9643099,19.0025284 44.9717273,19 C50.7524545,19 55.4545455,23.6365228 55.4545455,29.3363648 L55.4545455,35.4852056 C55.4518115,39.010233 53.6230886,42.2906755 50.6035455,44.1871397 Z M28.9556167,44.4542676 C27.460453,44.946891 25.958953,45.4176622 24.4515442,45.8664472 C24.0029679,46.0546085 23.5635461,46.2447096 23.1515883,46.4386903 C20.4582994,48.0002351 19.8083215,51.3347637 19.6618476,53.1717611 L19.6618476,54.0601928 C19.6618476,54.1358453 19.6288909,54.2017987 19.6215672,54.2735716 C19.5281212,55.24893 18.756242,55.9931285 17.8309238,56 C16.8197325,56 16,55.1315187 16,54.0601928 L16,48.4890665 C16,46.9275217 16.9356021,45.3582177 18.2428816,44.7025629 C18.8177917,44.3533976 21.9541641,42.5105808 25.5427748,41.340877 C24.4149257,39.9364566 23.7081891,38.1401952 23.7081891,36.1557724 L23.7081891,31.0482601 C23.7102044,26.6072421 27.1056331,23.0064187 31.2973682,23 C32.0317098,23.0003812 32.6944917,23.4664749 32.9799872,24.1832824 C33.0184366,24.3462262 33.0037892,24.4917117 32.9159048,24.5906419 C31.830167,24.8738538 31.4859534,27.8630966 31.4859534,27.8630966 L31.4859534,34.006466 C31.4859534,38.7337762 32.0572016,39.9868916 32.8591462,41.6046908 C33.2015289,42.8170703 31.9052349,43.4222901 31.9052349,43.4222901 C31.9052349,43.4222901 30.9568164,43.7927933 28.9556167,44.4542676 Z" id="path-1"></path>
        <filter x="-11.2%" y="-8.0%" width="122.4%" height="125.0%" filterUnits="objectBoundingBox" id="filter-2">
            <feOffset dx="0" dy="2" in="SourceAlpha" result="shadowOffsetOuter1"></feOffset>
            <feGaussianBlur stdDeviation="1.5" in="shadowOffsetOuter1" result="shadowBlurOuter1"></feGaussianBlur>
            <feColorMatrix values="0 0 0 0 0   0 0 0 0 0   0 0 0 0 0  0 0 0 0.239639946 0" type="matrix" in="shadowBlurOuter1"></feColorMatrix>
        </filter>
    </defs>
    <g id="ic/people_w" stroke="none" stroke-width="1" fill="none" fill-rule="evenodd">
        <g id="Group-4">
            <circle id="Oval" fill="#4A90E2" cx="41" cy="41" r="41"></circle>
            <g id="Combined-Shape" fill-rule="nonzero">
                <use fill="black" fill-opacity="1" filter="url(#filter-2)" xlink:href="#path-1"></use>
                <use fill="#FFFFFF" fill-rule="evenodd" xlink:href="#path-1"></use>
            </g>
        </g>
    </g>
</svg>