<?xml version="1.0" encoding="UTF-8"?>
<svg width="82px" height="82px" viewBox="0 0 82 82" version="1.1" xmlns="http://www.w3.org/2000/svg" xmlns:xlink="http://www.w3.org/1999/xlink">
    <!-- Generator: Sketch 49.2 (51160) - http://www.bohemiancoding.com/sketch -->
    <title>ic/people</title>
    <desc>Created with Sketch.</desc>
    <defs></defs>
    <g id="ic/people" stroke="none" stroke-width="1" fill="none" fill-rule="evenodd">
        <g id="Group-4">
            <circle id="Oval" fill="#FFFFFF" cx="41" cy="41" r="41"></circle>
            <g id="group_fill" transform="translate(16.000000, 19.000000)" fill="#4A90E2" fill-rule="nonzero">
                <path d="M34.6035455,25.1871397 C37.6230886,23.2906755 39.4518115,20.010233 39.4545455,16.4852056 L39.4545455,10.3363648 C39.4545455,4.63652278 34.7524545,0 28.9717273,0 C25.9643099,0.00252837813 23.1037814,1.27992407 21.1215455,3.50557192 C19.4238604,5.38887351 18.4859653,7.81886675 18.4850909,10.3363648 L18.4850909,16.4852056 C18.4850909,19.9569617 20.2357273,23.0285641 22.9065455,24.9034627 C16.4538182,26.0005978 10.3332727,28.6288374 10.0469091,28.7547073 C8.30772727,29.455446 7,31.3810683 7,33.2353017 L7,40.6559925 C7.28910715,42.5694149 8.94662331,43.9996333 10.9079091,44 L45.0920909,44 C46.8026364,44 48.3318182,42.8991076 48.8988182,41.259041 L49,40.9659707 L49,33.2353017 C49,31.3679177 47.6865455,29.4385381 46.0008182,28.7734939 C45.703,28.6438666 40.474,26.4007515 34.6035455,25.1871397 Z" id="Shape"></path>
                <path d="M12.9556167,25.4542676 C14.9568164,24.7927933 15.9052349,24.4222901 15.9052349,24.4222901 C15.9052349,24.4222901 17.2015289,23.8170703 16.8591462,22.6046908 C16.0572016,20.9868916 15.4859534,19.7337762 15.4859534,15.006466 L15.4859534,8.86309664 C15.4859534,8.86309664 15.830167,5.87385375 16.9159048,5.5906419 C17.0037892,5.49171173 17.0184366,5.34622619 16.9799872,5.18328239 C16.6944917,4.46647492 16.0317098,4.00038124 15.2973682,4 C11.1056331,4.00641869 7.71020438,7.60724211 7.70818913,12.0482601 L7.70818913,17.1557724 C7.70818913,19.1401952 8.41492571,20.9364566 9.54277476,22.340877 C5.95416414,23.5105808 2.8177917,25.3533976 2.24288163,25.7025629 C0.935602053,26.3582177 0,27.9275217 0,29.4890665 L0,35.0601928 C0,36.1315187 0.8197325,37 1.83092378,37 C2.75624204,36.9931285 3.52812119,36.24893 3.62156724,35.2735716 C3.62889094,35.2017987 3.66184757,35.1358453 3.66184757,35.0601928 L3.66184757,34.1717611 C3.80832147,32.3347637 4.45829941,29.0002351 7.1515883,27.4386903 C7.56354615,27.2447096 8.00296786,27.0546085 8.45154418,26.8664472 C9.95895297,26.4176622 11.460453,25.946891 12.9556167,25.4542676" id="Shape"></path>
            </g>
        </g>
    </g>
</svg>