<?xml version="1.0" encoding="UTF-8"?>
<svg width="82px" height="82px" viewBox="0 0 82 82" version="1.1" xmlns="http://www.w3.org/2000/svg" xmlns:xlink="http://www.w3.org/1999/xlink">
    <!-- Generator: Sketch 49.2 (51160) - http://www.bohemiancoding.com/sketch -->
    <title>ic/phone</title>
    <desc>Created with Sketch.</desc>
    <defs></defs>
    <g id="ic/phone" stroke="none" stroke-width="1" fill="none" fill-rule="evenodd">
        <g id="Group-2" fill="#FFFFFF">
            <circle id="Oval" cx="41" cy="41" r="41"></circle>
        </g>
        <path d="M27.9961002,17 L54.0038998,17 C55.6657405,17 57,18.3443165 57,20.002615 L57,61.997385 C57,63.6661074 55.6586002,65 54.0038998,65 L27.9961002,65 C26.3342595,65 25,63.6556835 25,61.997385 L25,20.002615 C25,18.3338926 26.3413998,17 27.9961002,17 Z M29,23 L29,56 L53,56 L53,23 L29,23 Z M39.4904785,20 C39.2195947,20 39,20.2319336 39,20.5 C39,20.7761424 39.2150574,21 39.4904785,21 L42.5095215,21 C42.7804053,21 43,20.7680664 43,20.5 C43,20.2238576 42.7849426,20 42.5095215,20 L39.4904785,20 Z M41,63 C42.1045696,63 43,62.1045696 43,61 C43,59.8954304 42.1045696,59 41,59 C39.8954304,59 39,59.8954304 39,61 C39,62.1045696 39.8954304,63 41,63 Z" id="iPhone-L" fill="#4A90E2"></path>
    </g>
</svg>