<?xml version="1.0" encoding="UTF-8"?>
<svg width="82px" height="82px" viewBox="0 0 82 82" version="1.1" xmlns="http://www.w3.org/2000/svg" xmlns:xlink="http://www.w3.org/1999/xlink">
    <!-- Generator: Sketch 49.2 (51160) - http://www.bohemiancoding.com/sketch -->
    <title>ic/shield</title>
    <desc>Created with Sketch.</desc>
    <defs></defs>
    <g id="ic/shield" stroke="none" stroke-width="1" fill="none" fill-rule="evenodd">
        <g id="Group-9">
            <circle id="Oval" fill="#FFFFFF" cx="41" cy="41" r="41"></circle>
            <g id="transaction_fill" transform="translate(20.000000, 19.000000)">
                <path d="M4.68911738,4.44266501 L15.3108826,0.686415439 C17.8973156,-0.228292346 22.099579,-0.229317803 24.6891174,0.686415439 L35.3108826,4.44266501 C37.8973156,5.3573728 40,8.32367854 40,11.0654092 L40,26.6092888 C40,38.7906944 20,46 20,46 C20,46 0,38.7906944 0,26.6092888 L0,11.0654092 C0,8.29564937 2.09923401,5.35839825 4.68911738,4.44266501 Z" id="Shape" fill="#4A90E2" fill-rule="nonzero"></path>
                <path d="M28.5,25.5 C28.5,26.3665714 27.8,27 26.9529412,27 L21.5470588,27 L21.5470588,32.4282188 C21.5470588,33.2888138 20.8529412,34 20,34 C19.1470588,34 18.4529412,33.2947902 18.4529412,32.4282188 L18.4529412,27 L13.0470588,27 C12.2,27 11.5,26.3665714 11.5,25.5 C11.5,24.6334286 12.1941176,24 13.0470588,24 L18.4529412,24 L18.4529412,21 L13.0470588,21 C12.2,21 11.5,20.3665714 11.5,19.5 C11.5,18.639405 12.1941176,18 13.0470588,18 L17.4705882,18 L13.4411765,13.6744186 C12.8411765,13.0648305 12.8411765,12.0667793 13.4411765,11.4571911 C14.0411765,10.847603 15.0235294,10.847603 15.6235294,11.4571911 L20,16.3398727 L25.2352941,11.4571911 C25.8352941,10.847603 26.8176471,10.847603 27.4176471,11.4571911 C28.0176471,12.0667793 28.0176471,13.0648305 27.4176471,13.6744186 L23.3882353,18 L26.9529412,18 C27.8,18 28.5,18.6334286 28.5,19.5 C28.5,20.360595 27.8058824,21 26.9529412,21 L21.5470588,21 L21.5470588,24 L26.9529412,24 C27.8,24.0059764 28.5,24.6334286 28.5,25.5 Z" id="Path" fill="#FFFFFF"></path>
            </g>
        </g>
    </g>
</svg>