<?xml version="1.0" encoding="UTF-8"?>
<svg width="82px" height="82px" viewBox="0 0 82 82" version="1.1" xmlns="http://www.w3.org/2000/svg" xmlns:xlink="http://www.w3.org/1999/xlink">
    <!-- Generator: Sketch 49.2 (51160) - http://www.bohemiancoding.com/sketch -->
    <title>ic/shield_w</title>
    <desc>Created with Sketch.</desc>
    <defs>
        <path d="M22.3097469,27.2368686 L22.3097469,23.1162399 L28.6505335,23.1162399 C29.7164386,23.1162399 30.5802315,22.3092051 30.5802315,21.3134862 C30.5802315,20.3177673 29.7160883,19.5107325 28.6505335,19.5107325 L23.1083876,19.5107325 L23.1230994,19.4974016 L28.6368725,14.3468721 C29.3906772,13.6427248 29.3906772,12.501391 28.6368725,11.7972438 C27.8830678,11.0930965 26.6612877,11.0930965 25.9078333,11.7972438 L20.3940601,16.9481151 L20.3800489,16.9611042 L20.3660377,16.9481151 L14.8522645,11.7969019 C14.0984598,11.0927547 12.8766797,11.0927547 12.122875,11.7969019 C11.3690703,12.5010492 11.3690703,13.642383 12.122875,14.3465302 L17.6366481,19.4970597 L17.6513599,19.5103907 L12.109214,19.5103907 C11.043309,19.5103907 10.179516,20.3174255 10.179516,21.3131444 C10.179516,22.3088633 11.0436592,23.115898 12.109214,23.115898 L18.4500006,23.115898 L18.4500006,27.2365267 L12.109214,27.2365267 C11.043309,27.2365267 10.179516,28.0435615 10.179516,29.0392804 C10.179516,30.0349993 11.0436592,30.8420341 12.109214,30.8420341 L18.4500006,30.8420341 L18.4500006,32.3867144 C18.4500006,33.3824333 19.3141438,34.1894681 20.3796986,34.1894681 C21.4452534,34.1894681 22.3093966,33.3824333 22.3093966,32.3867144 L22.3093966,30.8420341 L28.6501832,30.8420341 C29.7160883,30.8420341 30.5798812,30.0349993 30.5798812,29.0392804 C30.5798812,28.0435615 29.715738,27.2365267 28.6501832,27.2365267 L22.3097469,27.2365267 L22.3097469,27.2368686 Z M4.76031873,4.44266501 L15.5433689,0.686415439 C18.1690752,-0.228292346 22.4351475,-0.229317803 25.0640064,0.686415439 L35.8470565,4.44266501 C38.4727629,5.3573728 40.6073753,8.32367854 40.6073753,11.0654092 L40.6073753,26.6092888 C40.6073753,38.7906944 20.3036876,46 20.3036876,46 C20.3036876,46 0,38.7906944 0,26.6092888 L0,11.0654092 C0,8.29564937 2.13110958,5.35839825 4.76031873,4.44266501 Z" id="path-1"></path>
        <filter x="-13.5%" y="-7.6%" width="127.1%" height="123.9%" filterUnits="objectBoundingBox" id="filter-2">
            <feOffset dx="0" dy="2" in="SourceAlpha" result="shadowOffsetOuter1"></feOffset>
            <feGaussianBlur stdDeviation="1.5" in="shadowOffsetOuter1" result="shadowBlurOuter1"></feGaussianBlur>
            <feColorMatrix values="0 0 0 0 0   0 0 0 0 0   0 0 0 0 0  0 0 0 0.239639946 0" type="matrix" in="shadowBlurOuter1"></feColorMatrix>
        </filter>
    </defs>
    <g id="ic/shield_w" stroke="none" stroke-width="1" fill="none" fill-rule="evenodd">
        <g id="Group-9">
            <circle id="Oval" fill="#4A90E2" cx="41" cy="41" r="41"></circle>
            <g id="transaction_fill" transform="translate(21.652928, 20.000000)" fill-rule="nonzero">
                <g id="Shape">
                    <use fill="black" fill-opacity="1" filter="url(#filter-2)" xlink:href="#path-1"></use>
                    <use fill="#FFFFFF" fill-rule="evenodd" xlink:href="#path-1"></use>
                </g>
            </g>
        </g>
    </g>
</svg>