<?xml version="1.0" encoding="UTF-8"?>
<svg width="82px" height="82px" viewBox="0 0 82 82" version="1.1" xmlns="http://www.w3.org/2000/svg" xmlns:xlink="http://www.w3.org/1999/xlink">
    <!-- Generator: Sketch 49.2 (51160) - http://www.bohemiancoding.com/sketch -->
    <title>ic/user_list_w</title>
    <desc>Created with Sketch.</desc>
    <defs>
        <path d="M61.3333333,38 L54.6666667,38 C53.7461921,38 53,38.6715729 53,39.5 C53,40.3284271 53.7461921,41 54.6666667,41 L61.3333333,41 C62.2538079,41 63,40.3284271 63,39.5 C63,38.6715729 62.2538079,38 61.3333333,38 M61.3333333,31 L54.6666667,31 C53.7461921,31 53,31.6715729 53,32.5 C53,33.3284271 53.7461921,34 54.6666667,34 L61.3333333,34 C62.2538079,34 63,33.3284271 63,32.5 C63,31.6715729 62.2538079,31 61.3333333,31 M54.6666667,27 C53.7461921,27 53,26.3284271 53,25.5 C53,24.6715729 53.7461921,24 54.6666667,24 L61.3333333,24 C62.2538079,24 63,24.6715729 63,25.5 C63,26.3284271 62.2538079,27 61.3333333,27 L54.6666667,27 Z M44.9154545,44.0091322 C50.2501818,45.0742264 55.0904545,47.1993508 55.3595455,47.319195 C56.1281364,47.6348409 56.8042273,48.2543172 57.2818636,49.0071413 C57.7275455,49.707639 58,50.5246051 58,51.3280675 L57.9714091,57.9954555 C57.7544545,59.6884657 56.3064091,61 54.5573182,61 L24.4426818,61 C22.9374545,61 21.5903182,60.0125514 21.0908182,58.5406622 L21,58.2756546 L21,51.3280675 C21,49.6502489 22.1570909,47.916728 23.6942727,47.2972517 C23.9145909,47.1976628 28.3747727,45.2463969 33.4454545,44.1475438 C31.2641364,42.4460939 29.8514091,39.7943302 29.8514091,36.8117291 L29.8514091,31.2853928 C29.8514091,26.1658515 33.9954091,22 39.0896364,22 C41.0546835,22.0010425 42.9673584,22.6359926 44.5454545,23.8111664 C46.9162994,25.559065 48.3194173,28.3329284 48.3261818,31.2853928 L48.3261818,36.8117291 C48.3247256,38.7694439 47.7027287,40.6759298 46.5501818,42.255356 C46.0792727,42.9052153 45.5360455,43.5010604 44.9154545,44.0091322 Z" id="path-1"></path>
        <filter x="-13.1%" y="-9.0%" width="126.2%" height="128.2%" filterUnits="objectBoundingBox" id="filter-2">
            <feOffset dx="0" dy="2" in="SourceAlpha" result="shadowOffsetOuter1"></feOffset>
            <feGaussianBlur stdDeviation="1.5" in="shadowOffsetOuter1" result="shadowBlurOuter1"></feGaussianBlur>
            <feColorMatrix values="0 0 0 0 0   0 0 0 0 0   0 0 0 0 0  0 0 0 0.239639946 0" type="matrix" in="shadowBlurOuter1"></feColorMatrix>
        </filter>
    </defs>
    <g id="ic/user_list_w" stroke="none" stroke-width="1" fill="none" fill-rule="evenodd">
        <circle id="Oval" fill="#4A90E2" cx="41" cy="41" r="41"></circle>
        <g id="Combined-Shape" fill-rule="nonzero">
            <use fill="black" fill-opacity="1" filter="url(#filter-2)" xlink:href="#path-1"></use>
            <use fill="#FFFFFF" fill-rule="evenodd" xlink:href="#path-1"></use>
        </g>
    </g>
</svg>