<?xml version="1.0" encoding="UTF-8"?>
<svg width="82px" height="82px" viewBox="0 0 82 82" version="1.1" xmlns="http://www.w3.org/2000/svg" xmlns:xlink="http://www.w3.org/1999/xlink">
    <!-- Generator: Sketch 49.2 (51160) - http://www.bohemiancoding.com/sketch -->
    <title>ic/user_add</title>
    <desc>Created with Sketch.</desc>
    <defs>
        <circle id="path-1" cx="10" cy="10" r="10"></circle>
    </defs>
    <g id="ic/user_add" stroke="none" stroke-width="1" fill="none" fill-rule="evenodd">
        <g id="Group-11">
            <circle id="Oval" fill="#FFFFFF" cx="41" cy="41" r="41"></circle>
            <path d="M44.9154545,42.0091322 C45.5360455,41.5010604 46.0792727,40.9052153 46.5501818,40.255356 C47.7027287,38.6759298 48.3247256,36.7694439 48.3261818,34.8117291 L48.3261818,29.2853928 C48.3194173,26.3329284 46.9162994,23.559065 44.5454545,21.8111664 C42.9673584,20.6359926 41.0546835,20.0010425 39.0896364,20 C33.9954091,20 29.8514091,24.1658515 29.8514091,29.2853928 L29.8514091,34.8117291 C29.8514091,37.7943302 31.2641364,40.4460939 33.4454545,42.1475438 C28.3747727,43.2463969 23.9145909,45.1976628 23.6942727,45.2972517 C22.1570909,45.916728 21,47.6502489 21,49.3280675 L21,58.2756546 L21.0908182,58.5406622 C21.5903182,60.0125514 22.9374545,61 24.4426818,61 L54.5573182,61 C56.3064091,61 57.7544545,59.6884657 57.9714091,57.9954555 L58,49.3280675 C58,48.5246051 57.7275455,47.707639 57.2818636,47.0071413 C56.8042273,46.2543172 56.1281364,45.6348409 55.3595455,45.319195 C55.0904545,45.1993508 50.2501818,43.0742264 44.9154545,42.0091322 Z" id="Shape" fill="#4A90E2" fill-rule="nonzero"></path>
            <g id="Group" transform="translate(46.000000, 43.000000)">
                <g id="Oval-2">
                    <use fill="#4A90E2" fill-rule="evenodd" xlink:href="#path-1"></use>
                    <circle stroke="#FFFFFF" stroke-width="3" cx="10" cy="10" r="11.5"></circle>
                </g>
                <path d="M9,9 L9,5 L11,5 L11,9 L15,9 L15,11 L11,11 L11,15 L9,15 L9,11 L5,11 L5,9 L9,9 Z" id="Combined-Shape" fill="#FFFFFF"></path>
            </g>
        </g>
    </g>
</svg>