<svg xmlns="http://www.w3.org/2000/svg" width="30" height="30" viewBox="0 0 30 30">
  <g id="icon-topstep-finish" transform="translate(1.738 1.738)">
    <g id="Ellipse" transform="translate(-1.738 -1.738)" fill="#fff">
      <path d="M 14.99999904632568 29.25 C 11.19368934631348 29.25 7.615199089050293 27.76773834228516 4.923728942871094 25.07626914978027 C 2.232259035110474 22.38479995727539 0.7499990463256836 18.80630874633789 0.7499990463256836 14.99999904632568 C 0.7499990463256836 11.19368934631348 2.232259035110474 7.615199089050293 4.923728942871094 4.923728942871094 C 7.615199089050293 2.232259035110474 11.19368934631348 0.7499990463256836 14.99999904632568 0.7499990463256836 C 18.80630874633789 0.7499990463256836 22.38479995727539 2.232259035110474 25.07626914978027 4.923728942871094 C 27.76773834228516 7.615199089050293 29.25 11.19368934631348 29.25 14.99999904632568 C 29.25 18.80630874633789 27.76773834228516 22.38478851318359 25.07626914978027 25.07626914978027 C 22.38478851318359 27.76773834228516 18.80630874633789 29.25 14.99999904632568 29.25 Z" stroke="none"/>
      <path d="M 14.99999904632568 1.499998092651367 C 11.39401817321777 1.499998092651367 8.003868103027344 2.90424919128418 5.454059600830078 5.454059600830078 C 2.90424919128418 8.003868103027344 1.499998092651367 11.39401817321777 1.499998092651367 14.99999904632568 C 1.499998092651367 18.60597991943359 2.90424919128418 21.99612045288086 5.454059600830078 24.54593849182129 C 8.003868103027344 27.09574890136719 11.39401817321777 28.5 14.99999904632568 28.5 C 18.60597991943359 28.5 21.99612045288086 27.09574890136719 24.54593849182129 24.54593849182129 C 27.09574890136719 21.99612045288086 28.5 18.60597991943359 28.5 14.99999904632568 C 28.5 11.39401817321777 27.09574890136719 8.003868103027344 24.54593849182129 5.454059600830078 C 21.99612045288086 2.90424919128418 18.60597991943359 1.499998092651367 14.99999904632568 1.499998092651367 M 14.99999904632568 -1.9073486328125e-06 C 23.28425979614258 -1.9073486328125e-06 30 6.715728759765625 30 14.99999904632568 C 30 23.28425979614258 23.28425979614258 30 14.99999904632568 30 C 6.715728759765625 30 -1.9073486328125e-06 23.28425979614258 -1.9073486328125e-06 14.99999904632568 C -1.9073486328125e-06 6.715728759765625 6.715728759765625 -1.9073486328125e-06 14.99999904632568 -1.9073486328125e-06 Z" stroke="none" fill="#4565ec"/>
    </g>
    <path id="duigou" d="M164.1,253.4a.7.7,0,0,0-.975.031l-9.168,9.533-4.753-3.89a.7.7,0,0,0-.687-.129.677.677,0,0,0-.45.522.663.663,0,0,0,.249.637l5.254,4.3a.7.7,0,0,0,.947-.055l9.615-10A.66.66,0,0,0,164.1,253.4Z" transform="translate(-143.256 -244.697)" fill="#4565ec"/>
  </g>
</svg>
