<svg xmlns="http://www.w3.org/2000/svg" width="20.301" height="21.346" viewBox="0 0 20.301 21.346">
  <path id="icon-protocol-sign" d="M41.929,21.313H27.335A1.737,1.737,0,0,1,25.6,19.578V1.78A1.785,1.785,0,0,1,27.38,0H42.508a1.785,1.785,0,0,1,1.78,1.78V5.562c0,.578-.044,1.068-.623,1.068s-.534-.578-.534-1.2V2.269c0-.934-.4-1.29-1.29-1.29H27.914a1.172,1.172,0,0,0-1.29,1.29V19.044a1.273,1.273,0,0,0,1.29,1.29H41.885a1.228,1.228,0,0,0,1.246-1.246V16.24c0-.623-.044-1.335.534-1.335s.623.489.623,1.068V18.91a2.261,2.261,0,0,1-2,2.4A.488.488,0,0,1,41.929,21.313ZM44.2,8.1l-4.138,4.227a.618.618,0,0,0-.222.445l-.267,1.246a.306.306,0,0,0,.222.356h.133l1.246-.356a.692.692,0,0,0,.356-.267l4.138-4.227a.889.889,0,0,0,0-1.2L45.4,8.1A.808.808,0,0,0,44.2,8.1ZM30.628,17.175a.632.632,0,0,1-.267-.089.518.518,0,0,1-.222-.712c2.314-4.138,3.2-4,3.515-3.96s.623.178.712.845c.089.534.133,1.023.178,1.557v.311l.4-.445c.8-.845,1.29-1.424,1.913-1.29s.667.712.756.845a1.817,1.817,0,0,1,.044.845l.267-.133a.518.518,0,0,1,.667.356.512.512,0,0,1-.222.623c-.845.4-1.335.578-1.735.267a.909.909,0,0,1-.178-.934,1.235,1.235,0,0,0,0-.8c-.267.267-.534.578-.8.845l-.445.489c-.222.267-.712.756-1.246.578s-.578-.8-.623-1.6a12.5,12.5,0,0,0-.044-1.29,16.374,16.374,0,0,0-2.269,3.248A.388.388,0,0,1,30.628,17.175ZM29.2,4H40.016V5.072H29.2Zm0,2.18H40.016V7.253H29.2Zm0,2.136h8.632V9.388H29.2Z" transform="translate(-25.6)" fill="#1f59db"/>
</svg>
