<svg xmlns="http://www.w3.org/2000/svg" width="24.204" height="23.685" viewBox="0 0 24.204 23.685">
  <path id="icon-image-scan" d="M23.759,12.6H19.035a.847.847,0,1,0,0,1.693h3a1.345,1.345,0,0,1,1.345,1.345v3.055a.863.863,0,0,0,1.727,0V13.945A1.339,1.339,0,0,0,23.759,12.6Zm.5,16.768a.847.847,0,0,0-.847.847v3a1.345,1.345,0,0,1-1.345,1.345H19.013a.863.863,0,1,0,0,1.727h4.746A1.345,1.345,0,0,0,25.1,34.937V30.215A.844.844,0,0,0,24.26,29.368ZM6.969,34.593h-3a1.345,1.345,0,0,1-1.345-1.345V30.194a.863.863,0,1,0-1.727,0V34.94a1.345,1.345,0,0,0,1.345,1.345H6.972a.846.846,0,1,0,0-1.691ZM6.991,12.6H2.245A1.345,1.345,0,0,0,.9,13.945v4.725a.847.847,0,1,0,1.693,0v-3a1.345,1.345,0,0,1,1.345-1.345H6.993a.865.865,0,1,0,0-1.729ZM4.116,19.222V29.693c0,.977.19,1.165,1.117,1.165H17.9c.92,0,1.117-.178,1.117-1.165V19.222c0-.953-.176-1.165-1.117-1.165H5.233C4.308,18.06,4.116,18.226,4.116,19.222Zm13.142,8.92H5.878C7.121,26.254,9.334,23.1,9.9,23.1c.543,0,2.391,2.545,3.226,3.439,0,0,1.072-1.492,1.634-1.492s2.483,3.076,2.5,3.09Zm-3.344-6.594a1.374,1.374,0,1,1,1.373,1.43A1.4,1.4,0,0,1,13.914,21.549ZM11.1,17.358l-2.177-.432c-.723-.142-1.01-.093-1.186.429H11.1Zm10.263,2.028-1.705-.337V29.708a1.946,1.946,0,0,1-.4,1.421,1.791,1.791,0,0,1-1.345.4H16.883l2.187.432c.9.178,1.129.043,1.307-.925l1.874-10.286c.173-.939.038-1.179-.887-1.361Z" transform="translate(-0.9 -12.6)" fill="#1f59db"/>
</svg>
