<svg id="icon-file-mp4" xmlns="http://www.w3.org/2000/svg" width="78.864" height="89.379" viewBox="0 0 78.864 89.379">
  <path id="路径" d="M11.266,0H50.712L78.864,27.931V78.207A11.219,11.219,0,0,1,67.6,89.379H11.266A11.219,11.219,0,0,1,0,78.207V11.172A11.219,11.219,0,0,1,11.266,0Z" fill="#735afa"/>
  <path id="路径-2" data-name="路径" d="M0,0,28.917,27.6H11.567A11.313,11.313,0,0,1,0,16.561Z" transform="translate(49.947)" fill="#a493ff"/>
  <path id="路径_17853" data-name="路径 17853" d="M2-18.044H8.424l2.99,10.166h.156l3.12-10.166h6.24V0h-3.9V-14.2h-.156L13.39-3.406H9.438L6.006-14.2H5.85V0H2Zm22.932,0H31.1a13.876,13.876,0,0,1,3.393.351A5.081,5.081,0,0,1,36.673-16.6a4.105,4.105,0,0,1,1.17,1.9,9.714,9.714,0,0,1,.351,2.8,9.8,9.8,0,0,1-.39,2.977,4.31,4.31,0,0,1-1.248,1.963,5.084,5.084,0,0,1-2.21,1.079,14.083,14.083,0,0,1-3.25.325h-2.21V0H24.934Zm5.642,9.308a8.356,8.356,0,0,0,1.69-.143,2.463,2.463,0,0,0,1.1-.507,1.986,1.986,0,0,0,.611-.949,5.133,5.133,0,0,0,.182-1.495,5.052,5.052,0,0,0-.182-1.456,1.985,1.985,0,0,0-.611-.962,2.577,2.577,0,0,0-1.118-.52,7.718,7.718,0,0,0-1.677-.156h-1.69v6.188Zm23.14,4.888H51.74V0H48.126V-3.848H40.092V-7.54l7.254-10.5H51.74v11h1.976Zm-5.59-3.2v-7.1H47.97L43.29-7.2v.156Z" transform="translate(12.864 56.146)" fill="#fff"/>
</svg>
