<svg xmlns="http://www.w3.org/2000/svg" width="28.872" height="24.353" viewBox="0 0 28.872 24.353"><defs><style>.a{fill:#3b6aff;}</style></defs><g transform="translate(0)"><path class="a" d="M485.865,134.083v13.91a1.083,1.083,0,1,1-2.165,0v-13.91a1.083,1.083,0,1,1,2.165,0Z" transform="translate(-470.347 -131.652)"/><path class="a" d="M121.257,127.217a1.08,1.08,0,0,0,1.534,0l4.327-4.327a1.446,1.446,0,0,1,2.043,0l4.327,4.327a1.082,1.082,0,1,0,1.53-1.53l-5.872-5.865a1.446,1.446,0,0,0-2.043,0l-5.85,5.865A1.086,1.086,0,0,0,121.257,127.217Zm19.149,16.536H115.865a2.167,2.167,0,0,1-2.165-2.165v-9.719a1.1,1.1,0,0,1,1.054-1.108,1.085,1.085,0,0,1,1.112,1.083v8.661a1.081,1.081,0,0,0,1.083,1.083h22.376a1.081,1.081,0,0,0,1.083-1.083v-8.636a1.1,1.1,0,0,1,1.054-1.108,1.085,1.085,0,0,1,1.112,1.083v9.744A2.167,2.167,0,0,1,140.406,143.753Z" transform="translate(-113.7 -119.4)"/></g></svg>