<svg id="icon-node-reject" xmlns="http://www.w3.org/2000/svg" width="24.66" height="24.66" viewBox="0 0 24.66 24.66">
  <path id="路径_4799" data-name="路径 4799" d="M12.33,12.33,0,12.33A12.33,12.33,0,1,0,12.33,0,12.33,12.33,0,0,0,0,12.33Z" transform="translate(0 0)" fill="#ff6606"/>
  <path id="路径_4800" data-name="路径 4800" d="M439.1,227.556a1.812,1.812,0,0,1,1.767,1.791v.276l-.951,7.028a.624.624,0,0,1-.679.551h-.272c-.272,0-.679-.276-.679-.551l-.951-7.028a1.844,1.844,0,0,1,1.495-2.067Zm0,11.713a1.378,1.378,0,1,1-1.359,1.378A1.293,1.293,0,0,1,439.1,239.268Z" transform="translate(-426.773 -222.12)" fill="#fff"/>
</svg>
