<svg xmlns="http://www.w3.org/2000/svg" width="78.864" height="89.379" viewBox="0 0 78.864 89.379"><defs><style>.a{fill:#5b94f9;}.b{fill:#fff;opacity:0.9;}.c{fill:#a5cdff;}</style></defs><path class="a" d="M11.266,0H50.712L78.864,27.931V78.207A11.219,11.219,0,0,1,67.6,89.379H11.266A11.219,11.219,0,0,1,0,78.207V11.172A11.219,11.219,0,0,1,11.266,0Z"/><path class="b" d="M32.922,18.4V0H44.69V3.072H36.644V7.823H43.8v3.06h-7.15V18.4ZM16.4,18.4V0H21.96A8.6,8.6,0,0,1,25.3.638a7.583,7.583,0,0,1,2.608,1.794,8.225,8.225,0,0,1,1.695,2.775,10.2,10.2,0,0,1,.608,3.588v.834a10.218,10.218,0,0,1-.6,3.584,8.017,8.017,0,0,1-1.7,2.767,7.527,7.527,0,0,1-2.626,1.79,8.719,8.719,0,0,1-3.363.631Zm3.723-3.045h1.8a4.026,4.026,0,0,0,3.363-1.486,6.828,6.828,0,0,0,1.155-4.242V8.771A6.792,6.792,0,0,0,25.3,4.518a4.017,4.017,0,0,0-3.34-1.445H20.122ZM3.723,18.4H0V0H7.05A8.429,8.429,0,0,1,9.913.455a6.151,6.151,0,0,1,2.136,1.27,5.41,5.41,0,0,1,1.333,1.934,6.355,6.355,0,0,1,.46,2.432,6.108,6.108,0,0,1-.46,2.415,5.031,5.031,0,0,1-1.333,1.834,6.127,6.127,0,0,1-2.136,1.166,9.267,9.267,0,0,1-2.863.411H3.724V18.4h0Zm0-9.553H7.05a4.164,4.164,0,0,0,1.372-.2,2.493,2.493,0,0,0,.942-.562,2.167,2.167,0,0,0,.541-.865,3.35,3.35,0,0,0,.175-1.1,3.759,3.759,0,0,0-.175-1.143A2.766,2.766,0,0,0,9.365,4a2.612,2.612,0,0,0-.942-.676A3.44,3.44,0,0,0,7.05,3.07H3.724Z" transform="translate(18.402 44.69)"/><path class="c" d="M0,0,28.917,27.6H11.567A11.313,11.313,0,0,1,0,16.561Z" transform="translate(49.947)"/></svg>