<svg xmlns="http://www.w3.org/2000/svg" width="18.929" height="20.385" viewBox="0 0 18.929 20.385"><defs><style>.a{fill:#3e70fe;}</style></defs><g transform="translate(-3.136 -1.568)"><path class="a" d="M18.308,12.2a.889.889,0,0,0-1.036.6,7.745,7.745,0,0,1-7.6,5.885,7.839,7.839,0,0,1-7.858-7.762A7.839,7.839,0,0,1,9.672,3.156a7.7,7.7,0,0,1,5.354,2.132H11.4a.853.853,0,1,0,0,1.706h5.354a.86.86,0,0,0,.864-.853V.853a.864.864,0,0,0-1.727,0V3.838A9.566,9.566,0,0,0,0,10.917a9.561,9.561,0,0,0,9.586,9.467,9.673,9.673,0,0,0,9.327-7.165A.925.925,0,0,0,18.308,12.2Z" transform="translate(3.136 1.568)"/></g></svg>