<svg xmlns="http://www.w3.org/2000/svg" width="78.864" height="89.379" viewBox="0 0 78.864 89.379"><defs><style>.a{fill:#58bfff;}.b{fill:#9dd9ff;}.c{fill:#fff;}</style></defs><path class="a" d="M11.266,0H50.712L78.864,27.931V78.207A11.219,11.219,0,0,1,67.6,89.379H11.266A11.219,11.219,0,0,1,0,78.207V11.172A11.219,11.219,0,0,1,11.266,0Z"/><path class="b" d="M0,0,28.917,27.6H11.567A11.313,11.313,0,0,1,0,16.561Z" transform="translate(49.947)"/><path class="c" d="M-.234,4.888q-.468,0-1.04-.039t-1.014-.091V1.638q.39.052.819.091t.871.039A2.282,2.282,0,0,0,1.469.91a4.36,4.36,0,0,0,.559-2.392V-18.044H5.954V-1.3A6.077,6.077,0,0,1,4.316,3.367,6.43,6.43,0,0,1-.234,4.888ZM9.854-18.044h6.162a13.876,13.876,0,0,1,3.393.351A5.081,5.081,0,0,1,21.593-16.6a4.105,4.105,0,0,1,1.17,1.9,9.714,9.714,0,0,1,.351,2.8,9.8,9.8,0,0,1-.39,2.977,4.31,4.31,0,0,1-1.248,1.963,5.084,5.084,0,0,1-2.21,1.079,14.083,14.083,0,0,1-3.25.325h-2.21V0H9.854ZM15.5-8.736a8.356,8.356,0,0,0,1.69-.143,2.463,2.463,0,0,0,1.1-.507,1.986,1.986,0,0,0,.611-.949,5.133,5.133,0,0,0,.182-1.495,5.052,5.052,0,0,0-.182-1.456,1.985,1.985,0,0,0-.611-.962,2.577,2.577,0,0,0-1.118-.52,7.718,7.718,0,0,0-1.677-.156h-1.69v6.188Zm19.24,9a16.28,16.28,0,0,1-3.731-.39,6.253,6.253,0,0,1-2.8-1.417,6.519,6.519,0,0,1-1.755-2.834,14.755,14.755,0,0,1-.611-4.641,13.357,13.357,0,0,1,.624-4.381,7.018,7.018,0,0,1,1.794-2.873,6.762,6.762,0,0,1,2.834-1.56,13.937,13.937,0,0,1,3.77-.468q.65,0,1.339.052t1.326.13q.637.078,1.209.2a6.617,6.617,0,0,1,.988.273V-14.2a11.806,11.806,0,0,0-2.2-.546,15.454,15.454,0,0,0-2.353-.182,8.191,8.191,0,0,0-2.249.273,3.225,3.225,0,0,0-1.56.962,4.385,4.385,0,0,0-.91,1.82,11.37,11.37,0,0,0-.3,2.847,13.826,13.826,0,0,0,.26,2.951,4.129,4.129,0,0,0,.832,1.82,2.991,2.991,0,0,0,1.5.923A8.4,8.4,0,0,0,35-3.068q.546,0,1.014-.026a5.233,5.233,0,0,0,.91-.13v-3.9H33.852v-3.3h6.734v9.88A15.668,15.668,0,0,1,38,.026,22.158,22.158,0,0,1,34.736.26Z" transform="translate(19.864 54.797)"/></svg>