<svg xmlns="http://www.w3.org/2000/svg" width="78.864" height="89.379" viewBox="0 0 78.864 89.379"><defs><style>.a{fill:#5a79fa;}.b{fill:#95a9ff;}.c{fill:#fff;}</style></defs><path class="a" d="M11.266,0H50.712L78.864,27.931V78.207A11.219,11.219,0,0,1,67.6,89.379H11.266A11.219,11.219,0,0,1,0,78.207V11.172A11.219,11.219,0,0,1,11.266,0Z"/><path class="b" d="M0,0,28.917,27.6H11.567A11.313,11.313,0,0,1,0,16.561Z" transform="translate(49.947)"/><path class="c" d="M8.19-18.044a17.087,17.087,0,0,1,3.6.351,6.228,6.228,0,0,1,2.782,1.339A6.271,6.271,0,0,1,16.354-13.6a14,14,0,0,1,.624,4.576,12.979,12.979,0,0,1-.624,4.355A6.691,6.691,0,0,1,14.573-1.9,6.614,6.614,0,0,1,11.791-.429,14.1,14.1,0,0,1,8.19,0H2V-18.044ZM7.982-3.38a8.056,8.056,0,0,0,2.171-.26,3.277,3.277,0,0,0,1.534-.91,4.058,4.058,0,0,0,.91-1.742,10.527,10.527,0,0,0,.3-2.73,10.737,10.737,0,0,0-.312-2.847,4.062,4.062,0,0,0-.923-1.742,3.146,3.146,0,0,0-1.534-.871,8.781,8.781,0,0,0-2.145-.234H5.954V-3.38ZM28.236.26a13.335,13.335,0,0,1-3.484-.416,5.6,5.6,0,0,1-2.574-1.469,6.777,6.777,0,0,1-1.586-2.847,15.922,15.922,0,0,1-.546-4.55,15.922,15.922,0,0,1,.546-4.55,6.777,6.777,0,0,1,1.586-2.847,5.6,5.6,0,0,1,2.574-1.469,13.335,13.335,0,0,1,3.484-.416,13.447,13.447,0,0,1,3.51.416,5.6,5.6,0,0,1,2.574,1.469,6.671,6.671,0,0,1,1.573,2.847,16.288,16.288,0,0,1,.533,4.55,16.288,16.288,0,0,1-.533,4.55A6.67,6.67,0,0,1,34.32-1.625,5.6,5.6,0,0,1,31.746-.156,13.447,13.447,0,0,1,28.236.26Zm0-3.3a5.646,5.646,0,0,0,2.041-.312,2.5,2.5,0,0,0,1.235-1.014,4.765,4.765,0,0,0,.611-1.846,19.653,19.653,0,0,0,.169-2.808,19.713,19.713,0,0,0-.169-2.795,5.025,5.025,0,0,0-.611-1.885,2.531,2.531,0,0,0-1.235-1.053,5.441,5.441,0,0,0-2.041-.325,5.337,5.337,0,0,0-2.028.325A2.54,2.54,0,0,0,24.986-13.7a5.025,5.025,0,0,0-.611,1.885,19.713,19.713,0,0,0-.169,2.795,19.653,19.653,0,0,0,.169,2.808,4.765,4.765,0,0,0,.611,1.846,2.508,2.508,0,0,0,1.222,1.014A5.538,5.538,0,0,0,28.236-3.042ZM48.2.26a15.275,15.275,0,0,1-3.588-.39A6.247,6.247,0,0,1,41.86-1.547a6.618,6.618,0,0,1-1.768-2.834,14.468,14.468,0,0,1-.624-4.641,13.62,13.62,0,0,1,.611-4.381,7.049,7.049,0,0,1,1.755-2.873,6.583,6.583,0,0,1,2.743-1.56,12.813,12.813,0,0,1,3.6-.468,12.615,12.615,0,0,1,4.212.6V-14.3a11.634,11.634,0,0,0-1.82-.455,12.658,12.658,0,0,0-2.132-.169,6.6,6.6,0,0,0-2.106.3,3.171,3.171,0,0,0-1.456.988,4.434,4.434,0,0,0-.845,1.807,11.96,11.96,0,0,0-.273,2.782,12.69,12.69,0,0,0,.273,2.9,4.22,4.22,0,0,0,.845,1.794,2.993,2.993,0,0,0,1.443.923,7.272,7.272,0,0,0,2.067.26,13.2,13.2,0,0,0,2.145-.169A12.3,12.3,0,0,0,52.6-3.874v3.38a9.457,9.457,0,0,1-1.95.546A13.661,13.661,0,0,1,48.2.26Z" transform="translate(12.864 56.146)"/></svg>