<?xml version="1.0" encoding="UTF-8"?>
<svg width="160px" height="160px" viewBox="0 0 160 160" version="1.1" xmlns="http://www.w3.org/2000/svg" xmlns:xlink="http://www.w3.org/1999/xlink">
    <!-- Generator: Sketch 63.1 (92452) - https://sketch.com -->
    <title>雷达@2x</title>
    <desc>Created with Sketch.</desc>
    <g id="读卡客户识别" stroke="none" stroke-width="1" fill="none" fill-rule="evenodd">
        <g id="5读卡识别" transform="translate(-560.000000, -363.000000)" fill-rule="nonzero">
            <g id="雷达" transform="translate(517.000000, 320.000000)">
                <rect id="矩形" fill="#000000" opacity="0" x="0" y="0" width="246" height="246"></rect>
                <path d="M84.4775137,78.5615093 C84.4775137,85.1114905 89.7855449,90.4212994 96.3333333,90.4212994 C102.881122,90.4212994 108.189153,85.1114905 108.189153,78.5615093 C108.189153,72.011528 102.881122,66.7017191 96.3333333,66.7017191 C89.7855449,66.7017191 84.4775137,72.011528 84.4775137,78.5615093 Z M139.846334,125.982809 L125.955027,125.982809 L125.955027,126.00067 L135.079009,135.127707 C137.507309,132.680732 139.221404,129.519312 139.846334,125.982809 L139.846334,125.982809 Z M168.53956,125.982809 C167.807499,137.413932 162.861623,147.701942 155.255329,155.310784 L139.078563,139.1286 C142.524607,135.681402 144.863631,131.108953 145.542127,125.982809 L168.53956,125.982809 L168.53956,125.982809 Z M197.1078,125.982809 L174.253208,125.982809 C173.521147,139.003572 167.932485,150.702612 159.308448,159.347399 L175.431648,175.475999 C188.198081,162.68743 196.340029,145.272829 197.1078,125.982809 L197.1078,125.982809 Z M202.910724,125.982809 C202.196518,145.469301 194.393818,164.74146 179.538333,179.60192 L179.484767,179.548337 C193.286798,165.741683 202.053677,146.898192 202.821448,125.982809 L202.910724,125.982809 Z M135.079009,110.925876 L125.955027,120.052914 L139.846334,120.052914 C139.221404,116.51641 137.507309,113.35499 135.079009,110.925876 L135.079009,110.925876 Z M155.255329,90.7427997 C162.861623,98.351641 167.807499,108.639652 168.53956,120.052914 L145.542127,120.052914 C144.863631,114.94463 142.524607,110.372181 139.078563,106.924983 L155.255329,90.7427997 L155.255329,90.7427997 Z M175.431648,70.5597232 L159.308448,86.6883233 C167.95034,95.3331101 173.521147,107.03215 174.253208,120.052914 L197.1078,120.052914 C196.340029,100.762894 188.198081,83.348292 175.431648,70.5597232 L175.431648,70.5597232 Z M179.538333,66.4516633 C194.393818,81.3299844 202.196518,100.584282 202.910724,120.052914 L202.803593,120.052914 C202.035822,99.1553918 193.268943,80.3119 179.466912,66.5052467 L179.538333,66.4516633 Z M125.937172,197.159411 L125.937172,174.297165 C138.935721,173.546997 150.6487,167.974325 159.290593,159.347399 L155.237473,155.292923 C147.63118,162.901764 137.346613,167.849297 125.937172,168.581603 L125.937172,145.61219 C131.043745,144.933467 135.614664,142.593659 139.060708,139.1286 L135.061154,135.127707 C132.632853,137.574682 129.472492,139.28935 125.937172,139.896629 L125.937172,125.982809 L122.991072,123.017861 L125.955027,120.052914 L125.955027,106.139094 C129.490347,106.764233 132.650709,108.478902 135.079009,110.925876 L139.078563,106.924983 C135.614664,103.459924 131.0616,101.120116 125.955027,100.441393 L125.955027,77.4362581 C137.364468,78.1685644 147.649035,83.1160973 155.255329,90.7249386 L159.308448,86.6704622 C150.666555,78.0613976 138.971432,72.470864 125.955027,71.7385577 L125.955027,48.8763117 C145.238589,49.6443403 162.647361,57.7890154 175.431648,70.5775843 L179.484767,66.5231078 C165.682736,52.6985934 146.845553,43.9287787 125.955027,43.1607502 L125.955027,43 L120.027118,43 L120.027118,43.1607502 C78.2282111,44.6968073 44.6783841,78.2400089 43.1428412,120.052914 L43,120.052914 L43,125.964948 L43.1428412,125.964948 C44.6783841,167.777852 78.2282111,201.338915 120.027118,202.874972 L120.027118,203 L125.937172,203 L125.937172,202.874972 C146.827698,202.106944 165.664881,193.319268 179.466912,179.512614 L175.413793,175.458138 C162.629506,188.246707 145.238589,196.391382 125.937172,197.159411 Z M120.027118,48.8763117 L120.027118,71.7385577 C115.616895,71.9886135 111.36737,72.8102255 107.314251,74.0962268 C107.885615,75.4715338 108.189153,76.9897299 108.189153,78.5615093 C108.189153,78.9901764 108.171298,79.4188435 108.117732,79.8296495 C111.885169,78.525787 115.884723,77.704175 120.027118,77.4362581 L120.027118,100.459254 C109.813972,101.798839 101.761299,109.836347 100.422163,120.070775 L77.4247294,120.070775 C78.1925008,108.050234 83.6204665,97.2978343 91.9231113,89.5818263 C90.0840308,88.84952 88.4592121,87.6528243 87.2093516,86.1524894 C78.2639214,94.8329984 72.4609977,106.764233 71.7110814,120.052914 L48.8564892,120.052914 C50.3920321,81.4550123 81.4421382,50.3945077 120.027118,48.8763117 L120.027118,48.8763117 Z M120.027118,197.177272 C81.4421382,195.641215 50.3920321,164.58071 48.8564892,125.982809 L71.7110814,125.982809 C73.1930588,152.024336 93.9943087,172.832552 120.027118,174.315026 L120.027118,197.177272 Z M120.027118,168.599464 C97.1903805,167.11699 78.9067068,148.827194 77.4247294,125.982809 L100.422163,125.982809 C101.761299,136.217236 109.813972,144.272605 120.027118,145.61219 L120.027118,168.599464 L120.027118,168.599464 Z M120.027118,139.896629 C112.956478,138.664211 107.385671,133.055816 106.135811,125.964948 L120.027118,125.964948 L120.027118,139.896629 Z M120.044973,120.052914 L106.153666,120.052914 C107.403526,112.979906 112.974333,107.371511 120.044973,106.139094 L120.044973,120.052914 Z M107.314251,74.0962268 C99.6901016,76.5432016 92.8337239,80.7048448 87.2272068,86.1524894 C88.4770673,87.6528243 90.101886,88.84952 91.9409664,89.5818263 C96.5475951,85.2951552 102.046981,81.9551239 108.117732,79.8475106 C108.171298,79.4367046 108.189153,79.0080375 108.189153,78.5793704 C108.189153,76.9897299 107.86776,75.4715338 107.314251,74.0962268 L107.314251,74.0962268 Z M202.982145,120.052914 L202.910724,120.052914 C202.982145,122.017638 202.982145,124.000223 202.910724,125.982809 L202.982145,125.982809 L202.982145,120.052914 L202.982145,120.052914 Z M179.484767,66.5052467 L175.431648,70.5597232 C188.198081,83.348292 196.357884,100.762894 197.1078,120.052914 L174.253208,120.052914 C173.503292,107.050011 167.932485,95.3331101 159.308448,86.6883233 L155.255329,90.7427997 C162.861623,98.351641 167.807499,108.639652 168.53956,120.052914 L145.542127,120.052914 C144.863631,114.94463 142.524607,110.372181 139.078563,106.924983 L135.079009,110.925876 C137.507309,113.35499 139.203549,116.534271 139.828479,120.052914 L125.937172,120.052914 L122.991072,123.017861 L125.955027,125.982809 L125.955027,125.964948 L139.846334,125.964948 C139.221404,129.501451 137.525165,132.680732 135.096864,135.109846 L139.096418,139.110739 C142.542462,135.663541 144.881486,131.091092 145.559982,125.964948 L168.557415,125.964948 C167.825354,137.396071 162.879478,147.684081 155.273184,155.292923 L159.326303,159.347399 C167.968196,150.702612 173.539002,139.003572 174.271063,125.982809 L197.125656,125.982809 C196.357884,145.272829 188.215936,162.705291 175.449503,175.475999 L179.502622,179.530476 C193.304653,165.723822 202.071532,146.88033 202.839304,125.964948 L202.946435,125.964948 C203.017855,124.000223 203.017855,122.017638 202.946435,120.035052 L202.839304,120.035052 C202.053677,99.1553918 193.286798,80.3119 179.484767,66.5052467 L179.484767,66.5052467 Z M149.648812,155.614423 C149.648812,162.164404 154.956843,167.474213 161.504631,167.474213 C168.05242,167.474213 173.360451,162.164404 173.360451,155.614423 C173.360451,149.064442 168.05242,143.754633 161.504631,143.754633 C154.956843,143.754633 149.648812,149.064442 149.648812,155.614423 L149.648812,155.614423 Z" id="形状" fill="#FFFFFF"></path>
            </g>
        </g>
    </g>
</svg>