<?xml version="1.0" encoding="UTF-8"?>
<svg width="24px" height="24px" viewBox="0 0 24 24" version="1.1" xmlns="http://www.w3.org/2000/svg" xmlns:xlink="http://www.w3.org/1999/xlink">
    <!-- Generator: Sketch 52.3 (67297) - http://www.bohemiancoding.com/sketch -->
    <title>Icon/Camera</title>
    <desc>Created with Sketch.</desc>
    <defs>
        <path d="M19.3325,5.76982982 C20.0675,5.76982982 20.6975,6.03980387 21.2175,6.58234785 C21.74,7.12489184 22,7.7738679 22,8.53965965 L22,18.2301702 C22,18.993366 21.74,19.6475339 21.2175,20.187482 C20.695,20.730026 20.07,21 19.3325,21 L4.6675,21 C3.9325,21 3.3025,20.730026 2.7825,20.187482 C2.2625,19.644938 2,18.9959619 2,18.2301702 L2,8.53706374 C2,7.7738679 2.26,7.11970003 2.7825,6.57975195 C3.305,6.03980387 3.93,5.76723392 4.6675,5.76723392 L7.0025,5.76723392 L7.5325,4.29795212 C7.6625,3.94490914 7.9075,3.63859244 8.2575,3.38419383 C8.6075,3.12979521 8.9675,3 9.335,3 L14.6675,3 C15.0375,3 15.395,3.12719931 15.745,3.38419383 C16.095,3.63859244 16.3375,3.94490914 16.47,4.29795212 L17,5.76723392 L19.3375,5.76723392 L19.3375,5.76982982 L19.3325,5.76982982 Z M8.46838156,16.5316184 C9.44640943,17.5096463 10.6254019,18 12,18 C13.3772776,18 14.5535906,17.5096463 15.5316184,16.5316184 C16.5096463,15.5535906 17,14.3745981 17,13 C17,11.6227224 16.5096463,10.4464094 15.5316184,9.46838156 C14.5535906,8.4903537 13.3745981,8 12,8 C10.6254019,8 9.44640943,8.4903537 8.46838156,9.46838156 C7.4903537,10.4464094 7,11.6254019 7,13 C7,14.3745981 7.48767417,15.5535906 8.46838156,16.5316184 Z M9.88073394,10.8807339 C10.4687239,10.292744 11.1743119,10 12,10 C12.8256881,10 13.5337781,10.292744 14.1192661,10.8807339 C14.707256,11.4687239 15,12.1743119 15,13 C15,13.8256881 14.707256,14.5337781 14.1192661,15.1192661 C13.5312761,15.707256 12.8256881,16 12,16 C11.1743119,16 10.4662219,15.707256 9.88073394,15.1192661 C9.29274395,14.5312761 9,13.8256881 9,13 C9,12.1743119 9.29274395,11.4687239 9.88073394,10.8807339 Z" id="path-1"></path>
    </defs>
    <g id="Icon/Camera" stroke="none" stroke-width="1" fill="none" fill-rule="evenodd">
        <polygon id="Bounding-Box" points="0 0 24 0 24 24 0 24"></polygon>
        <mask id="mask-2" fill="white">
            <use xlink:href="#path-1"></use>
        </mask>
        <g id="Mask" fill-rule="nonzero"></g>
        <g id="Fill/Color/Grey_3" mask="url(#mask-2)" fill="#A6AFBA">
            <rect id="Box" x="0" y="0" width="24" height="24"></rect>
        </g>
    </g>
</svg>