<?xml version="1.0" encoding="UTF-8"?>
<svg width="36px" height="36px" viewBox="0 0 36 36" version="1.1" xmlns="http://www.w3.org/2000/svg" xmlns:xlink="http://www.w3.org/1999/xlink">
    <!-- Generator: Sketch 43.1 (39012) - http://www.bohemiancoding.com/sketch -->
    <title>ic/delete@1x</title>
    <desc>Created with Sketch.</desc>
    <defs></defs>
    <g id="Symbols" stroke="none" stroke-width="1" fill="none" fill-rule="evenodd">
        <g id="ic/delete" fill-rule="nonzero">
            <g id="垃圾桶-(1)" transform="translate(3.000000, 1.000000)">
                <path d="M13.2959184,3.58503401 C13.2959184,4.51302267 14.0482018,5.26530612 14.9761905,5.26530612 C15.9041791,5.26530612 16.6564626,4.51302267 16.6564626,3.58503401 C16.6564626,2.65704535 15.9041791,1.9047619 14.9761905,1.9047619 C14.0482018,1.9047619 13.2959184,2.65704535 13.2959184,3.58503401 L13.2959184,3.58503401 Z" id="Shape" fill="#000000"></path>
                <path d="M26,4.03000021 C25.9557823,4.02659885 25.8911565,4.01360544 25.8469388,4.01360544 C25.8027211,4.01360544 25.7585034,4.02380952 25.7142857,4.02721088 L17,4.03741497 L17.0034014,2.44557823 C17.0034014,1.65646259 16.3435374,1.0170068 15.5544218,1.0170068 C15.4285714,1.0170068 15.1428571,1.02040816 15.0306122,1.03061224 C14.9115646,1.02380952 14.5612245,0.993197279 14.4217687,0.993197279 C13.6326531,0.993197279 12.9931973,1.63265306 12.9931973,2.42176871 L13,4.01360544 L1.34693878,4.03741497 C0.557823129,4.03741497 0,4.21088435 0,5 C0,5.78911565 0.571428571,6.01020408 1.36054422,6.01020408 L3.0170068,6.01020408 L3.0170068,29.122449 C3.08163265,30.6394558 4.22789116,31.9965986 5.7585034,31.9965986 L7,32 L22.8673469,32 L24.2959184,31.9965986 C25.8707483,31.9965986 26.9965986,30.5748299 27,29 L27,6 L28.5748299,6 C29.3639456,6 30,5.78911565 30,5 C30.0034014,4.21088435 29.3503401,4.02721088 28.5612245,4.02721088 L26,4.03000021 Z M24.9858457,27.1401964 C24.9964614,29.0607531 24.621373,29.7670448 23.3014862,29.9827595 L6.40127389,29.9931973 C5.57678698,29.8192338 5.17338995,29.4017215 5.01061571,28.5075493 L5,6.00363509 L24.9858457,5.99319728 L25,29.9792802 L24.9858457,27.1401964 L24.9858457,27.1401964 Z M11.5,8.99319728 C10.6713881,8.99319728 10,9.51283916 10,10.1541693 L10,25.8322252 C10,26.4735554 10.6713881,26.9931973 11.5,26.9931973 C12.3286119,26.9931973 13,26.4735554 13,25.8322252 L13,10.1541693 C13,9.51283916 12.3286119,8.99319728 11.5,8.99319728 L11.5,8.99319728 Z M18.49999,8.99319728 C17.6713836,8.99319728 17,9.51283916 17,10.1541693 L17,25.8322252 C17,26.4735554 17.6713836,26.9931973 18.49999,26.9931973 C19.3285964,26.9931973 19.9999801,26.4735554 19.9999801,25.8322252 L19.9999801,10.1541693 C20.0042293,9.51283916 19.3285964,8.99319728 18.49999,8.99319728 L18.49999,8.99319728 Z" id="Shape" fill="#FFFFFF"></path>
            </g>
        </g>
    </g>
</svg>