<svg width="72" height="72" viewBox="0 0 72 72" xmlns="http://www.w3.org/2000/svg"><title>ic_loadinggray1</title><g fill="#DCDCDC" fill-rule="evenodd"><path d="M69.932 41.882c-.88-.158-1.493-.965-1.364-1.803.165-.835.845-1.48 1.76-1.42.873.057 1.635.88 1.458 1.812-.14.936-.972 1.568-1.854 1.41M68.464 47.53c-.855-.31-1.257-1.187-1.024-2.002.21-.82 1.086-1.315 1.957-1.106.87.21 1.385 1.123 1.147 2.04-.262.91-1.252 1.37-2.08 1.07M66.075 52.86c-.392-.22-.647-.57-.765-.955-.134-.397-.13-.828.057-1.213.367-.764 1.333-1.094 2.155-.74.823.354 1.157 1.335.746 2.188-.205.424-.55.724-.94.857-.41.124-.864.08-1.253-.138M62.803 57.698c-.69-.57-.843-1.58-.335-2.26.516-.674 1.525-.835 2.258-.358.767.5.93 1.52.357 2.275-.567.76-1.59.91-2.28.343M58.746 61.9c-.586-.677-.553-1.688.075-2.258.646-.553 1.585-.624 2.26 0 .64.593.712 1.708-.004 2.33-.7.64-1.743.605-2.33-.072M54.054 65.37c-.47-.772-.242-1.727.462-2.197.678-.51 1.67-.344 2.217.365.546.71.374 1.746-.386 2.312-.786.525-1.834.28-2.293-.48M48.85 68.017c-.325-.828.06-1.73.81-2.124.763-.37 1.722-.023 2.14.77.418.79.066 1.767-.788 2.177-.844.436-1.833.016-2.163-.823M43.266 69.734c-.18-.876.338-1.76 1.158-1.97.82-.215 1.714.32 1.985 1.147.283.874-.24 1.75-1.156 1.987-.917.235-1.807-.285-1.988-1.163M37.47 70.442c-.03-.895.632-1.656 1.48-1.697.845-.042 1.622.51 1.752 1.414.127.865-.52 1.763-1.466 1.815-.946.05-1.737-.638-1.766-1.533M31.637 70.207c.122-.903.892-1.455 1.742-1.447.846.04 1.515.802 1.493 1.698-.02.895-.805 1.583-1.75 1.534-.95-.015-1.605-.914-1.486-1.785M25.92 69.006c.27-.854 1.153-1.377 1.974-1.166.82.21 1.345 1.097 1.173 1.976-.172.878-1.056 1.402-1.973 1.166-.918-.236-1.443-1.122-1.174-1.976M20.51 66.802c.412-.796 1.364-1.144 2.126-.774.75.4 1.166 1.243.838 2.1-.31.817-1.32 1.3-2.16.86-.855-.41-1.214-1.39-.803-2.186M15.546 63.734c.542-.72 1.52-.874 2.21-.384.726.44.943 1.42.486 2.19-.456.77-1.483.997-2.29.504-.774-.546-.942-1.6-.406-2.31M11.157 59.884c.655-.618 1.62-.582 2.27-.034.627.57.665 1.586.085 2.268-.58.683-1.618.72-2.318.083-.72-.616-.685-1.706-.037-2.316M7.464 55.357c.746-.496 1.763-.35 2.27.33.508.68.362 1.696-.324 2.272-.686.574-1.704.427-2.27-.332-.568-.757-.422-1.776.324-2.27M4.637 50.244c.818-.362 1.782-.037 2.148.727.34.78.107 1.712-.673 2.167-.767.447-1.83.176-2.214-.69-.412-.854-.08-1.84.74-2.203M2.703 44.736c.87-.216 1.744.272 1.953 1.094.293.794-.15 1.693-.99 2.007-.838.313-1.783-.155-2.106-1.045-.24-.916.274-1.837 1.143-2.056M1.706 38.984c.886-.066 1.634.566 1.792 1.4.128.838-.482 1.654-1.362 1.82-.88.166-1.71-.46-1.853-1.395-.17-.934.524-1.758 1.423-1.826M1.706 33.143c.892.083 1.58.836 1.538 1.683-.056.847-.795 1.546-1.67 1.563-.916.014-1.63-.74-1.57-1.685.047-.945.81-1.645 1.702-1.562M2.703 27.39c.865.233 1.395 1.087 1.182 1.907-.157.83-.955 1.406-1.848 1.27C1.16 30.434.535 29.56.712 28.632c.234-.918 1.126-1.473 1.99-1.24M4.637 21.884c.827.38 1.13 1.282.87 2.09-.29.796-1.215 1.212-2.064.928-.85-.283-1.276-1.233-.95-2.123.298-.904 1.346-1.267 2.144-.896M7.464 16.772c.73.504.978 1.508.537 2.23-.44.725-1.437.968-2.226.545-.79-.423-1.032-1.424-.54-2.233.493-.81 1.487-1.055 2.23-.542M11.157 12.244c.64.625.7 1.642.13 2.27-.594.607-1.56.726-2.266.176-.705-.55-.835-1.626-.177-2.31.636-.7 1.673-.76 2.314-.136M15.546 8.395c.527.724.404 1.723-.276 2.23-.648.543-1.63.49-2.24-.178-.597-.656-.535-1.728.19-2.335.757-.57 1.8-.44 2.326.283M20.51 5.326c.41.826.073 1.7-.636 2.167-.724.44-1.704.187-2.187-.567-.484-.753-.22-1.764.59-2.254.796-.516 1.85-.126 2.234.654M25.92 3.122c.248.835-.187 1.78-.983 2.07-.795.29-1.724-.144-2.073-.968-.35-.825.09-1.76.978-2.085.89-.323 1.816.1 2.078.982M31.637 1.92c.105.89-.488 1.716-1.326 1.843-.843.098-1.67-.42-1.872-1.288-.204-.874.37-1.79 1.313-1.906.937-.145 1.782.462 1.887 1.35M37.47 1.687c-.046.9-.77 1.568-1.615 1.556-.847.045-1.577-.646-1.63-1.54C34.17.81 34.894.047 35.84 0c.945.013 1.675.8 1.63 1.687M43.266 2.394c-.19.853-1.024 1.438-1.864 1.322-.838-.127-1.438-.954-1.34-1.844.096-.89.933-1.498 1.87-1.354.938.13 1.533.98 1.334 1.876M48.85 4.112c-.342.827-1.264 1.264-2.06.973-.4-.147-.705-.455-.885-.83-.19-.35-.247-.784-.12-1.214.126-.43.418-.772.8-.976.372-.177.83-.203 1.272-.042.89.326 1.334 1.262.992 2.09M54.054 6.757c-.477.758-1.45 1.017-2.174.575-.74-.412-1.06-1.33-.666-2.147.384-.796 1.41-1.15 2.236-.69.81.49 1.08 1.504.604 2.262M58.746 10.228c-.61.684-1.56.708-2.246.21-.68-.506-.808-1.51-.288-2.238.52-.73 1.556-.86 2.314-.292.765.56.804 1.67.22 2.32M62.803 14.43c-.686.544-1.697.472-2.278-.146-.57-.627-.517-1.65.118-2.28.636-.63 1.668-.576 2.305.125.646.692.57 1.73-.145 2.3M66.075 19.27c-.785.43-1.78.193-2.22-.532-.426-.733-.212-1.722.504-2.226.747-.527 1.767-.306 2.247.51.492.81.253 1.816-.532 2.247M68.464 24.597c-.847.29-1.77-.118-2.06-.914-.29-.795.01-1.7.836-2.092.79-.376 1.838-.02 2.167.87.328.888-.096 1.846-.943 2.137M69.932 30.246c-.905.147-1.656-.43-1.876-1.25-.213-.82.316-1.68 1.18-1.92.86-.24 1.753.308 1.987 1.226.24.917-.428 1.806-1.29 1.944M70.46 36.064c-.896-.008-1.658-.7-1.7-1.547-.044-.847.645-1.607 1.536-1.698.892-.092 1.654.6 1.702 1.546.047.945-.642 1.705-1.538 1.698"/></g></svg>