<?xml version="1.0" encoding="utf-8"?>
<!-- Generator: Adobe Illustrator 21.0.0, SVG Export Plug-In . SVG Version: 6.00 Build 0)  -->
<svg version="1.1" id="图层_1" xmlns="http://www.w3.org/2000/svg" xmlns:xlink="http://www.w3.org/1999/xlink" x="0px" y="0px"
	 viewBox="0 0 200 200" style="enable-background:new 0 0 200 200;" xml:space="preserve">
<style type="text/css">
	.st0{fill:#B0B0B0;}
</style>
<path class="st0" d="M167.8,147.2c0,0.6,0.6,1.2,1.2,1.2c0.6,0,1.2-0.6,1.2-1.2c0-0.6-0.6-1.2-1.2-1.2
	C168.3,146,167.8,146.5,167.8,147.2L167.8,147.2z M141.7,174c0,0.6,0.3,1.2,0.7,1.7c0.4,0.4,1,0.7,1.7,0.7c0.6,0,1.2-0.3,1.7-0.7
	c0.4-0.4,0.7-1.1,0.7-1.7c0-0.6-0.2-1.2-0.7-1.7c-0.4-0.4-1-0.7-1.7-0.7c-0.6,0-1.2,0.2-1.7,0.7C141.9,172.8,141.7,173.4,141.7,174
	L141.7,174z M106.6,187.9c0,0.9,0.4,1.8,1,2.5c0.7,0.7,1.6,1,2.5,1c0.9,0,1.8-0.4,2.5-1c0.7-0.6,1-1.6,1-2.5c0-0.9-0.4-1.9-1-2.5
	c-0.7-0.6-1.6-1-2.5-1c-0.9,0-1.8,0.4-2.5,1C106.9,186,106.6,186.9,106.6,187.9L106.6,187.9z M68.8,186c0,1.2,0.5,2.4,1.4,3.3
	c0.9,0.9,2.1,1.4,3.3,1.4c1.2,0,2.5-0.5,3.3-1.4c0.9-0.9,1.4-2.1,1.4-3.3s-0.5-2.4-1.4-3.3c-0.9-0.9-2.1-1.4-3.3-1.4
	c-1.2,0-2.4,0.5-3.3,1.4C69.3,183.6,68.8,184.8,68.8,186L68.8,186z M35.2,168.8c0,1.5,0.6,3.1,1.7,4.1c1.1,1.1,2.6,1.7,4.2,1.7
	c1.5,0,3.1-0.6,4.2-1.7c1.1-1.1,1.7-2.6,1.7-4.1c0-1.5-0.6-3.1-1.7-4.2c-1.1-1.1-2.6-1.7-4.2-1.7c-1.5,0-3.1,0.6-4.2,1.7
	C35.8,165.7,35.2,167.3,35.2,168.8L35.2,168.8z M12,139.5c0,1.8,0.8,3.7,2.1,5c1.3,1.3,3.2,2.1,5,2.1c1.9,0,3.7-0.8,5-2.1
	c1.3-1.3,2.1-3.1,2.1-5c0-1.8-0.8-3.7-2.1-5c-1.3-1.3-3.1-2.1-5-2.1c-1.8,0-3.7,0.8-5,2.1C12.8,135.9,12,137.7,12,139.5L12,139.5z
	 M3.3,103.6c0,2.2,0.9,4.3,2.4,5.8c1.5,1.5,3.7,2.4,5.8,2.4c2.2,0,4.3-0.9,5.8-2.4c1.5-1.5,2.4-3.7,2.4-5.8c0-2.2-0.9-4.3-2.4-5.8
	c-1.5-1.5-3.7-2.4-5.8-2.4c-2.1,0-4.3,0.9-5.8,2.4C4.2,99.3,3.3,101.5,3.3,103.6L3.3,103.6z M10.4,67.9c0,2.5,1,4.9,2.8,6.7
	s4.2,2.8,6.7,2.8c2.5,0,4.9-1,6.6-2.8c1.7-1.7,2.8-4.2,2.8-6.7c0-2.5-1-4.9-2.8-6.7c-1.7-1.7-4.2-2.7-6.6-2.7c-2.5,0-4.9,1-6.7,2.7
	C11.5,63,10.4,65.5,10.4,67.9L10.4,67.9z M32,39.1c0,2.8,1.1,5.5,3.1,7.5c2,2,4.7,3.1,7.5,3.1c2.8,0,5.5-1.1,7.5-3.1
	c2-2,3.1-4.7,3.1-7.5S52,33.6,50,31.7c-2-2-4.7-3.1-7.5-3.1c-2.8,0-5.5,1.1-7.5,3.1C33.1,33.6,32,36.4,32,39.1L32,39.1z M63.6,22.6
	c0,3.1,1.3,6.1,3.4,8.3c2.2,2.2,5.2,3.4,8.3,3.4s6.1-1.3,8.3-3.4c2.2-2.2,3.4-5.2,3.4-8.3c0-3.1-1.3-6.1-3.4-8.3
	c-2.2-2.2-5.2-3.4-8.3-3.4s-6.1,1.3-8.3,3.4C64.8,16.5,63.6,19.6,63.6,22.6L63.6,22.6z M99,21.6c0,3.4,1.4,6.8,3.8,9.1
	c2.4,2.4,5.8,3.8,9.1,3.8c3.4,0,6.8-1.4,9.1-3.8c2.4-2.4,3.8-5.8,3.8-9.1c0-3.4-1.4-6.7-3.8-9.1c-2.4-2.4-5.8-3.8-9.1-3.8
	c-3.4,0-6.8,1.4-9.1,3.8C100.4,14.9,99,18.2,99,21.6L99,21.6z M131.5,36.2c0,3.7,1.5,7.4,4.1,10c2.6,2.6,6.3,4.1,10,4.1
	s7.4-1.5,10-4.1c2.6-2.6,4.1-6.3,4.1-10s-1.5-7.4-4.1-10s-6.3-4.1-10-4.1s-7.4,1.5-10,4.1S131.5,32.6,131.5,36.2L131.5,36.2z
	 M154.6,63.7c0,4,1.6,8,4.5,10.8c2.8,2.8,6.8,4.5,10.8,4.5s8-1.6,10.8-4.5c2.8-2.8,4.5-6.8,4.5-10.8c0-4-1.7-8-4.5-10.8
	c-2.8-2.8-6.8-4.5-10.8-4.5s-8,1.6-10.8,4.5C156.3,55.7,154.6,59.7,154.6,63.7L154.6,63.7z M163.8,99.3c0,4.3,1.8,8.6,4.8,11.6
	c3,3.1,7.3,4.8,11.6,4.8s8.6-1.8,11.6-4.8c3-3,4.8-7.3,4.8-11.6c0-4.3-1.8-8.6-4.8-11.6c-3.1-3-7.3-4.8-11.6-4.8s-8.6,1.8-11.6,4.8
	C165.6,90.7,163.8,95,163.8,99.3L163.8,99.3z"/>
</svg>
