<?xml version="1.0" encoding="UTF-8"?>
<svg width="260px" height="260px" viewBox="0 0 260 260" version="1.1" xmlns="http://www.w3.org/2000/svg" xmlns:xlink="http://www.w3.org/1999/xlink">
    <!-- Generator: Sketch 63.1 (92452) - https://sketch.com -->
    <title>页面反馈/msg_lose备份</title>
    <desc>Created with Sketch.</desc>
    <g id="页面反馈/msg_lose备份" stroke="none" stroke-width="1" fill="none" fill-rule="evenodd">
        <g id="pic_lose" fill="#A6A6A6" font-family="SourceHanSansCN-Regular, Source Han Sans CN" font-size="18" font-weight="normal" letter-spacing="0.05625">
            <text id="未找到相关内容">
                <tspan x="67" y="215">未找到相关内容</tspan>
            </text>
        </g>
        <g id="c1-空状态" transform="translate(51.000000, 24.000000)" fill-rule="nonzero">
            <rect id="矩形" fill="#000000" opacity="0" x="0" y="0" width="158" height="158"></rect>
            <path d="M121.570508,103.286328 C121.570508,104.479349 122.537643,105.446484 123.730664,105.446484 C124.923685,105.446484 125.89082,104.479349 125.89082,103.286328 C125.89082,102.093307 124.923685,101.126172 123.730664,101.126172 C122.537643,101.126172 121.570508,102.093307 121.570508,103.286328 Z M130.288281,77.025 C128.498437,75.2351562 126.106836,74.2476563 123.576367,74.2476563 C118.345703,74.2476563 114.087109,78.50625 114.087109,83.7369141 C114.087109,84.7861328 114.951172,85.6501953 116.000391,85.6501953 C117.049609,85.6501953 117.913672,84.7861328 117.913672,83.7369141 C117.913672,80.6046875 120.45957,78.0587891 123.591797,78.0587891 C125.103906,78.0587891 126.523437,78.6451172 127.603516,79.7251953 C128.668164,80.7898438 129.269922,82.2248047 129.269922,83.7369141 C129.269922,85.0484375 128.837891,86.2828125 128.004687,87.3011719 C127.202344,88.2886719 126.075977,88.9984375 124.841602,89.2607422 C122.990039,89.6773438 121.693945,91.2974609 121.693945,93.1953125 L121.693945,96.2966797 C121.693945,97.3458984 122.558008,98.2099609 123.607227,98.2099609 C124.656445,98.2099609 125.520508,97.3458984 125.520508,96.2966797 L125.520508,93.1953125 C125.520508,93.1027344 125.582227,93.0101562 125.690234,92.9947266 C127.757812,92.5318359 129.640234,91.3591797 130.982617,89.7082031 C132.34043,88.0263672 133.096484,85.8970703 133.096484,83.7369141 C133.081055,81.2064453 132.093555,78.8148438 130.288281,77.025 L130.288281,77.025 Z M15.6611328,97.5464844 C16.1703125,96.4972656 17.0498047,96.2041016 18.1453125,96.28125 C18.6853516,96.3121094 19.2408203,96.28125 19.9197266,96.28125 L19.9197266,94.0130859 C19.9197266,92.825 20.5214844,92.1769531 21.6015625,92.1769531 C22.7742188,92.1769531 23.3759766,92.8095703 23.3759766,94.0130859 L23.3759766,96.2041016 C24.3480469,96.28125 25.2583984,96.28125 26.1378906,96.4355469 C27.1408203,96.6052734 27.7271484,97.4230469 27.6345703,98.2408203 C27.5111328,99.24375 26.8167969,99.8609375 25.7367188,99.9072266 C25.3509766,99.9226563 24.9498047,99.9072266 24.5640625,99.9072266 L23.3759766,99.9072266 C23.3759766,100.771289 23.3914063,101.573633 23.3759766,102.375977 C23.3605469,103.070313 23.1136719,103.6875 22.4193359,103.918945 C21.7867188,104.119531 20.7529297,104.18125 20.3208984,103.533203 C20.1203125,103.224609 19.9505859,102.854297 19.9197266,102.483984 C19.8580078,101.681641 19.8888672,100.863867 19.8734375,100.046094 C19.8734375,100.030664 19.8425781,99.9998047 19.7654297,99.9072266 C19.2716797,99.9072266 18.7007813,99.8763672 18.1298828,99.9072266 C17.034375,99.984375 16.1548828,99.6912109 15.6457031,98.6419922 C15.6611328,98.2716797 15.6611328,97.9167969 15.6611328,97.5464844 L15.6611328,97.5464844 Z M15.9234375,24.5794922 C17.2041016,25.0578125 17.5126953,25.7367188 17.4972656,27.0482422 L17.4972656,28.8380859 C18.3458984,28.8380859 19.1173828,28.8226563 19.9042969,28.8380859 C20.6757813,28.8535156 21.2775391,29.2546875 21.5089844,29.9644531 C21.725,30.5970703 21.7712891,31.3376953 21.1695313,31.8314453 C20.8763672,32.0783203 20.4443359,32.2480469 20.0740234,32.2789063 C19.2408203,32.340625 18.4076172,32.2943359 17.5126953,32.2943359 C17.5126953,33.1275391 17.5435547,33.8835938 17.4972656,34.6242188 C17.4201172,35.9357422 16.6332031,36.6455078 15.6611328,36.5683594 C14.5964844,36.4912109 13.9175781,35.8277344 13.8867188,34.6396484 C13.8712891,33.8835938 13.8867188,33.1275391 13.8867188,32.2943359 L11.5568359,32.2943359 C10.4150391,32.2943359 9.81328125,31.7851562 9.78242188,30.8130859 C9.7515625,29.5478516 10.3378906,28.884375 11.5105469,28.8380859 C11.8962891,28.8226563 12.2974609,28.8380859 12.6832031,28.8380859 L13.8712891,28.8380859 L13.8712891,27.0945312 C13.8712891,25.5207031 14.1181641,25.1349609 15.4451172,24.5949219 C15.5994141,24.5794922 15.7691406,24.5794922 15.9234375,24.5794922 Z M120.752734,128.220703 L122.372852,128.220703 C123.190625,128.236133 123.576367,128.591016 123.591797,129.37793 C123.607227,130.164844 123.190625,130.689453 122.45,130.735742 C121.925391,130.766602 121.400781,130.735742 120.752734,130.735742 L120.752734,132.216992 C120.737305,133.081055 120.305273,133.574805 119.518359,133.574805 C118.685156,133.574805 118.237695,133.111914 118.222266,132.201563 L118.222266,130.735742 L116.833594,130.735742 C115.861523,130.735742 115.383203,130.288281 115.398633,129.424219 C115.414063,128.498438 115.738086,128.205273 116.787305,128.205273 L118.237695,128.205273 L118.237695,126.569727 C118.253125,125.782813 118.700586,125.289063 119.441211,125.227344 C120.042969,125.181055 120.691016,125.798242 120.752734,126.492578 C120.783594,126.785742 120.752734,127.063477 120.752734,127.356641 L120.752734,128.220703 Z M124.471289,36.2597656 C124.471289,36.8923828 124.486719,37.4169922 124.471289,37.9261719 C124.44043,38.6513672 123.93125,39.0988281 123.206055,39.0988281 C122.480859,39.0988281 122.002539,38.6513672 121.95625,37.9107422 C121.94082,37.6484375 121.95625,37.3861328 121.95625,37.1238281 L121.95625,36.2597656 C121.416211,36.2597656 120.922461,36.2751953 120.428711,36.2597656 C119.580078,36.2443359 119.117187,35.7814453 119.117187,34.9791016 C119.117187,34.0533203 119.441211,33.7447266 120.397852,33.7447266 L121.94082,33.7447266 C121.94082,33.1583984 121.925391,32.6337891 121.94082,32.1091797 C121.97168,31.3994141 122.588867,30.7205078 123.159766,30.7513672 C123.854102,30.7822266 124.425,31.3839844 124.455859,32.1246094 C124.471289,32.6183594 124.455859,33.1275391 124.455859,33.7447266 L126.091406,33.7447266 C126.862891,33.7601562 127.264062,34.1304687 127.294922,34.8402344 C127.325781,35.6425781 126.924609,36.1826172 126.199414,36.2597656 C125.90625,36.290625 125.628516,36.2597656 125.335352,36.2597656 L124.471289,36.2597656 L124.471289,36.2597656 Z M104.474414,66.3785156 L68.5541016,66.3785156 C66.9802734,66.3785156 65.7150391,65.1132812 65.7150391,63.5394531 C65.7150391,61.965625 66.9802734,60.7003906 68.5541016,60.7003906 L104.489844,60.7003906 C106.063672,60.7003906 107.328906,61.965625 107.328906,63.5394531 C107.313477,65.1132812 106.048242,66.3785156 104.474414,66.3785156 Z M85.3261719,82.5025391 L68.5541016,82.5025391 C66.9802734,82.5025391 65.7150391,81.2373047 65.7150391,79.6634766 C65.7150391,78.0896484 66.9802734,76.8244141 68.5541016,76.8244141 L85.3261719,76.8244141 C86.9,76.8244141 88.1652344,78.0896484 88.1652344,79.6634766 C88.1652344,81.2373047 86.9,82.5025391 85.3261719,82.5025391 Z M146.983203,96.8367187 C149.930273,86.9771484 146.366016,76.7009766 138.74375,70.6679688 L138.74375,54.1890625 C138.74375,49.2978516 134.762891,45.3169922 129.87168,45.3169922 L62.5210938,45.3169922 C57.6298828,45.3169922 53.6490234,49.2978516 53.6490234,54.1890625 L53.6490234,89.9242187 C53.6490234,94.8154297 57.6298828,98.7962891 62.5210938,98.7962891 L100.863867,98.7962891 C103.517773,105.523633 109.11875,111.001172 116.586719,113.238477 C121.863672,114.812305 127.248633,114.53457 132.047266,112.760156 C132.093555,113.06875 132.186133,113.377344 132.34043,113.670508 L140.780469,129.300781 C141.474805,130.596875 143.094922,131.075195 144.391016,130.380859 C145.687109,129.686523 146.16543,128.066406 145.471094,126.770312 L137.046484,111.124609 C136.923047,110.893164 136.76875,110.692578 136.599023,110.507422 C141.413086,107.483203 145.224219,102.746289 146.983203,96.8367187 L146.983203,96.8367187 Z M100.184961,82.8265625 C99.1511719,86.2673828 98.9197266,89.7699219 99.3671875,93.1181641 L62.5210937,93.1181641 C60.7621094,93.1181641 59.3271484,91.6832031 59.3271484,89.9242188 L59.3271484,54.1890625 C59.3271484,52.4300781 60.7621094,50.9951172 62.5210937,50.9951172 L129.887109,50.9951172 C131.646094,50.9951172 133.081055,52.4300781 133.081055,54.1890625 L133.081055,67.3197266 C132.278711,66.9802734 131.445508,66.6871094 130.596875,66.4248047 C117.666797,62.5673828 104.057812,69.9119141 100.184961,82.8265625 L100.184961,82.8265625 Z M132.649023,106.65 C130.458008,107.822656 128.112695,108.563281 125.659375,108.825586 C123.128906,109.10332 120.583008,108.871875 118.114258,108.13125 C115.645508,107.390625 113.392773,106.187109 111.417773,104.566992 C109.519922,102.993164 107.961523,101.095313 106.773438,98.9042969 C106.758008,98.8734375 106.742578,98.8271484 106.711719,98.7962891 C105.755078,97.0064453 105.107031,95.1085938 104.767578,93.1181641 C104.69043,92.7169922 104.644141,92.3158203 104.597852,91.9146484 C104.320117,89.3841797 104.551563,86.8382813 105.292188,84.3695313 C106.032813,81.9007813 107.236328,79.6480469 108.856445,77.6730469 C110.430273,75.7751953 112.328125,74.2167969 114.519141,73.0287109 C116.710156,71.8560547 119.055469,71.1154297 121.508789,70.853125 C124.039258,70.5753906 126.585156,70.8068359 129.053906,71.5474609 C130.473438,71.9640625 131.81582,72.5503906 133.065625,73.2601563 C134.006836,73.8001953 134.901758,74.4173828 135.734961,75.1117188 C136.861328,76.0375 137.864258,77.0867188 138.72832,78.2285156 C139.345508,79.0308594 139.885547,79.8794922 140.379297,80.7744141 C141.551953,82.9654297 142.292578,85.3107422 142.554883,87.7640625 C142.832617,90.2945313 142.601172,92.8404297 141.860547,95.3091797 C141.119922,97.7779297 139.916406,100.030664 138.296289,102.005664 C136.737891,103.903516 134.840039,105.461914 132.649023,106.65 L132.649023,106.65 Z M95.0160156,116.324414 L47.0296875,116.324414 C45.4558594,116.324414 44.190625,115.05918 44.190625,113.485352 C44.190625,111.911523 45.4558594,110.646289 47.0296875,110.646289 L95.0160156,110.646289 C96.5898437,110.646289 97.8550781,111.911523 97.8550781,113.485352 C97.8550781,115.05918 96.5898437,116.324414 95.0160156,116.324414 Z M99.4751953,132.556445 L29.9027344,132.556445 L29.9027344,41.8761719 C29.9027344,34.0070312 36.3060547,27.6037109 44.1751953,27.6037109 L113.747656,27.6037109 L113.747656,40.734375 L107.436914,40.734375 L107.436914,33.8990234 L44.1751953,33.8990234 C39.7777344,33.8990234 36.2134766,37.4787109 36.2134766,41.8607422 L36.2134766,126.245703 L99.4751953,126.245703 C103.872656,126.245703 107.436914,122.666016 107.436914,118.283984 L107.436914,115.861523 L113.747656,115.861523 L113.747656,118.283984 C113.747656,126.153125 107.344336,132.556445 99.4751953,132.556445 Z" id="形状" fill="#CBCBCB"></path>
        </g>
    </g>
</svg>