<?xml version="1.0" encoding="UTF-8"?>
<svg width="115px" height="129px" viewBox="0 0 115 129" version="1.1" xmlns="http://www.w3.org/2000/svg" xmlns:xlink="http://www.w3.org/1999/xlink">
    <!-- Generator: Sketch 63.1 (92452) - https://sketch.com -->
    <title>蓝牙@2x</title>
    <desc>Created with Sketch.</desc>
    <g id="读卡客户识别" stroke="none" stroke-width="1" fill="none" fill-rule="evenodd">
        <g id="4读卡识别" transform="translate(-583.000000, -379.000000)" fill-rule="nonzero">
            <g id="蓝牙" transform="translate(517.000000, 320.000000)">
                <rect id="矩形" fill="#000000" opacity="0" x="0" y="0" width="246" height="246"></rect>
                <path d="M108.807933,120.889117 L135.801245,92.1119293 C136.635562,91.2228715 137.067324,90.0297002 136.995138,88.8126144 C136.922953,87.5955287 136.353179,86.4617588 135.41962,85.6775543 L104.880745,60.0376793 C103.5594,58.930195 101.716557,58.687349 100.153418,59.4147221 C98.590279,60.1420952 97.5892317,61.7082841 97.5854951,63.4323668 L97.5854951,109.755429 L73.5608701,85.9216168 C71.8208279,84.1962793 69.0115826,84.2081997 67.2862451,85.9482418 C65.5609075,87.688284 65.5728279,90.4975293 67.3128701,92.2228668 L96.4317451,121.110992 L67.2019326,152.271117 C65.6293865,154.072456 65.7649964,156.795401 67.50874,158.43158 C69.2524837,160.067759 71.9785413,160.029956 73.6762451,158.346054 L97.5854951,132.852617 L97.5854951,182.898742 C97.5903779,185.34748 99.5742569,187.331359 102.022995,187.336245 C103.241618,187.337645 104.406969,186.836833 105.24462,185.951742 L135.783495,153.753242 C137.44339,152.003622 137.402005,149.24859 135.690308,147.549617 L108.807933,120.889117 L108.807933,120.889117 Z M106.460495,72.9552418 L126.11862,89.4583043 L106.460495,110.421054 L106.460495,72.9552418 Z M106.460495,171.773929 L106.460495,131.059867 L126.358245,150.797867 L106.460495,171.773929 L106.460495,171.773929 Z M149.08712,97.5168043 C148.204071,96.1993651 146.685255,95.4531021 145.102795,95.5591253 C143.520334,95.6651484 142.114644,96.6073504 141.415232,98.0308128 C140.715821,99.4542751 140.828946,101.14274 141.711995,102.460179 C144.856681,107.153903 146.52994,112.678905 146.517808,118.328679 C146.531448,123.976639 144.85969,129.50024 141.716433,134.192742 C140.833384,135.508596 140.719412,137.195596 141.417451,138.618265 C142.115489,140.040935 143.519489,140.983137 145.100576,141.089953 C146.681663,141.196769 148.199634,140.451971 149.082683,139.136117 C153.209378,132.982582 155.406445,125.737823 155.392871,118.328679 C155.406216,110.918842 153.210877,103.673142 149.08712,97.5168043 L149.08712,97.5168043 Z M175.667745,95.3868043 C174.123163,91.6466238 172.211608,88.0687748 169.96112,84.7057418 C169.078864,83.3883026 167.56078,82.6416167 165.978716,82.7469534 C164.396652,82.8522901 162.990961,83.7936462 162.291154,85.2164221 C161.591346,86.639198 161.703739,88.3272401 162.585995,89.6446793 C168.401222,98.331895 171.498505,108.553702 171.483183,119.007617 C171.491274,129.460465 168.394615,139.680213 162.585995,148.370554 C161.322636,150.403602 161.897382,153.072088 163.885665,154.404788 C165.873949,155.737488 168.560663,155.255084 169.96112,153.313929 C176.757031,143.166518 180.376588,131.224917 180.358252,119.012054 C180.358252,110.847054 178.778433,102.899492 175.667745,95.3868043 L175.667745,95.3868043 Z" id="形状" fill="#FFFFFF"></path>
            </g>
        </g>
    </g>
</svg>