<svg xmlns="http://www.w3.org/2000/svg" xmlns:xlink="http://www.w3.org/1999/xlink" width="1920" height="138" viewBox="0 0 1920 138">
  <defs>
    <clipPath id="clip-path">
      <rect id="Mask" width="1919.5" height="137.895" fill="#3574fa"/>
    </clipPath>
  </defs>
  <g id="bg-btn" transform="translate(0 0.105)" opacity="0.703" style="isolation: isolate">
    <rect id="矩形_1064" data-name="矩形 1064" width="1920" height="138" transform="translate(0 -0.105)" fill="rgba(80,90,204,0)"/>
    <g id="headerView" transform="translate(0.5)" clip-path="url(#clip-path)">
      <g id="Group" transform="translate(-1488.339 48.264)">
        <path id="Fill_1" data-name="Fill 1" d="M4781.887.385s-232.017,38.4-588.9,37.531c-237.807-.575-455.1-42.34-772.082-37.531-214.05,3.248-449.366,48.911-688.4,48.255C2488.379,47.97,2232.7,2.173,1860.932.385S1168.8,57.937,871.578,59.362C360.962,61.812,8.455,11.177,0,16.471V127.914H4781.887Z" transform="translate(0 14)" fill="#fff" opacity="0.126"/>
        <path id="Fill_3" data-name="Fill 3" d="M4781.887,72.905S4612.444,3.084,4011.074,5.261C3532.108,7,3435.116,51.994,3156.517,52.092c-229.467.079-491.323-48.752-730.239-46.831-236.723,1.9-451.3,51.651-683.121,52.034C1517.312,57.667,1326.92,1.842,965.8.059S498.055,37.727,340.622,52.092C95.777,74.429,0,78.108,0,78.108v30.105H4781.887Z" transform="translate(56.208 7.127)" fill="#fff" opacity="0.21"/>
        <path id="Fill_7" data-name="Fill 7" d="M0,53.31c29.036,4.567,224.277,11.063,612.464-4.845C793.819,41.03,954.746,5.642,1177.811,4.847c222.122-.792,508.117,39.895,753.791,38.769C2284.939,42,2419.125,5.033,2661.841,4.847c233.739-.181,416.98,27.289,636.017,29.078C3625.474,36.6,3910.755.2,4169.423,0c436.567-.331,612.464,48.463,612.464,48.463V81.349H0Z" transform="translate(56.208 33.991)" fill="#fff" opacity="0.342"/>
      </g>
    </g>
  </g>
</svg>
