<svg xmlns="http://www.w3.org/2000/svg" xmlns:xlink="http://www.w3.org/1999/xlink" width="1026.827" height="401.885" viewBox="0 0 1026.827 401.885">
  <defs>
    <linearGradient id="linear-gradient" x1="10.19" y1="-24.867" x2="11.189" y2="-24.867" gradientUnits="objectBoundingBox">
      <stop offset="0" stop-color="#f8c547"/>
      <stop offset="1" stop-color="#f71d69"/>
    </linearGradient>
    <linearGradient id="linear-gradient-2" x1="0.5" x2="0.5" y2="1" gradientUnits="objectBoundingBox">
      <stop offset="0" stop-color="#0a0a0a"/>
      <stop offset="0.567" stop-color="#191919"/>
      <stop offset="1" stop-color="#6a7488"/>
    </linearGradient>
    <linearGradient id="linear-gradient-3" x1="0.248" x2="0.5" y2="0.324" gradientUnits="objectBoundingBox">
      <stop offset="0" stop-color="#e8ceaa"/>
      <stop offset="0.547" stop-color="#f7e5bc"/>
      <stop offset="1" stop-color="#fcf8f3"/>
    </linearGradient>
    <linearGradient id="linear-gradient-4" x1="0.351" y1="1.105" x2="0.649" y2="-0.105" gradientUnits="objectBoundingBox">
      <stop offset="0"/>
      <stop offset="0.982" stop-color="#5a5a5a"/>
      <stop offset="1" stop-color="#4270cb"/>
    </linearGradient>
  </defs>
  <g id="bg-main-login-info" transform="translate(-5157.103 23601)">
    <g id="组_4225" data-name="组 4225" transform="translate(5147.103 -23655)">
      <g id="组_3850" data-name="组 3850" transform="translate(0 1.675)">
        <g id="组_3746" data-name="组 3746" transform="translate(781.77 76.083)">
          <path id="路径_6" data-name="路径 6" d="M0,281.81v16.038H245.641V0L122.82,219.949,47.763,222.24Z" transform="translate(9.417 80.279)" fill="rgba(255,255,255,0.4)"/>
          <path id="形状结合" d="M122.535,272.264,254.589,39.856V0L113.21,247.061H46.168L2.893,296.881c-3.372,3.882-3.908,13.239-1.018,17.768h0c2.89,4.529,9.857,5.249,13.229,1.367l38-43.753Z" transform="translate(0 0)" fill="rgba(255,255,255,0.4)"/>
        </g>
        <g id="组_4198" data-name="组 4198" transform="translate(29.304 211.633)" opacity="0.2">
          <g id="bg" transform="translate(-13.979 -0.075)">
            <path id="路径_5051" data-name="路径 5051" d="M10.45,105.092A42.275,42.275,0,0,1,6.474,75C13.459,46.2,33.23-4.361,85.554,2.79,158.173,12.73,179.3,15.215,209.09,5.883s81.317-9.305,97.442,11.79c9.775,12.784,42.826,70.134,21.731,90.015s10.216,59.2,11.183,80.075-29.158,23.581-67.042,24.216-257.95-6.6-257.95-6.6-28.219-48.652-5.854-66.02C22.433,128.59,16.221,115.723,10.45,105.092Z" transform="translate(0.021 0.075)" fill="#f8fcff"/>
            <path id="路径_5052" data-name="路径 5052" d="M53.034,655.706c-4.832-.166-22.973,2.319-24.05,3.258-.276.249-4.252,12.066,13.226,27.308,27.943,24.409,103.1,25.237,127.457,15.96,35.343-13.475,74.083,11.79,154.351,2.126,25.651-3.093,42.8-42.384,31.146-47.492-6.986-3.037-15.352,5.025-22.366,1.491-8.09-4.087-24.464-6.627-34.6-3.507a.8.8,0,0,0-.552.966.782.782,0,0,0,.911.552l-5.329,1.712c-5.937,4.418-4.611-1.463-18.528-2.209l-41.031-1.022c-14.662.442-71.128,2.927-93.218,2.043H128.3c-8.118-1.022-29.131-1.491-29.9-1.519Z" transform="translate(-20.557 -473.005)" fill="#e8f0ff"/>
          </g>
          <g id="chair" transform="translate(31.215 122.515)">
            <path id="路径_5053" data-name="路径 5053" d="M164.1,465.9" transform="translate(-163.977 -459.825)" fill="#fff"/>
            <path id="路径_5054" data-name="路径 5054" d="M178.1,443.9h12.425s3.866.552,4.142,3.313-.083,38.684-.083,38.684l24.934-.3a3.818,3.818,0,0,1,2.485,3.59,4.445,4.445,0,0,1-1.933,3.866l-37.884-.166L178.1,443.9" transform="translate(-174.112 -443.9)" fill="#c6e3ff"/>
            <path id="路径_5055" data-name="路径 5055" d="M167.644,443.9s-3.59.552-3.866,6.075,0,42.8,0,42.8l37.856.276a1.884,1.884,0,0,0,1.436-.635,4.227,4.227,0,0,0,1.3-2.4c0-1.491-.552-3.866-3.59-3.866s-28.716-.276-28.716-.276l-.552-38.657C171.51,447.241,171.51,444.452,167.644,443.9Z" transform="translate(-163.656 -443.9)" fill="#c6e3ff"/>
            <path id="路径_5056" data-name="路径 5056" d="M235.256,620.15s-.663,3.12,1.546,3.12h3.59a2.579,2.579,0,0,0,.718-3.037c-.746-1.381-5.854-.083-5.854-.083" transform="translate(-215.418 -571.084)" fill="#bac6f2"/>
            <path id="路径_5057" data-name="路径 5057" d="M241.1,632.493l.276,31.174h2.485L244,632.3Z" transform="translate(-219.716 -580.279)" fill="#e9edfa"/>
            <path id="路径_5058" data-name="路径 5058" d="M204.1,743.9l23.746.276v2.209l-23.746-.276Z" transform="translate(-192.932 -661.064)" fill="#e9edfa"/>
          </g>
          <g id="table" transform="translate(75.24 135.217)">
            <path id="路径_5059" data-name="路径 5059" d="M371.2,602.609,370.1,544.9h5.8l-.276,57.709Z" transform="translate(-357.122 -529.713)" fill="#fff"/>
            <path id="路径_5060" data-name="路径 5060" d="M831.1,545.9h6.351l-2.209,57.709-4.142.276Z" transform="translate(-690.831 -530.437)" fill="#fff"/>
            <path id="路径_5061" data-name="路径 5061" d="M354.1,508.176l.276,9.388,140.545.828.166-10.492Z" transform="translate(-345.54 -502.93)" fill="#e9edfa"/>
            <path id="路径_5062" data-name="路径 5062" d="M323.1,489.9l157.94.552V495.7l-157.664-.276Z" transform="translate(-323.1 -489.9)" fill="#c6e3ff"/>
          </g>
          <g id="flower" transform="translate(254.213 117.524)">
            <path id="路径_5063" data-name="路径 5063" d="M1022.8,667.7l.276,23.47,31.478-.552V667.7Z" transform="translate(-1008.572 -600.913)" fill="#e9edfa"/>
            <path id="路径_5064" data-name="路径 5064" d="M1107.588,690.728l.028-23.028H1105.6" transform="translate(-1068.509 -600.913)" fill="#fff"/>
            <path id="路径_5065" data-name="路径 5065" d="M1052.333,492.554s-.745-13.916,5.826-17.865.939-13.171,2.264-18.058,7.51-8.477,7.51-12.232-.552-14.3,6.571-17.478,12.784.939,10.548,7.151-3.949,13.364-6.406,15.6-1.491,5.826-1.132,10.161-3.01,11.459-4.887,14.11,0,7.151-.552,11.845c0,0-1.022,6.572-2.071,6.793S1052.333,492.554,1052.333,492.554Z" transform="translate(-1029.932 -425.822)" fill="#c9e0ff"/>
            <path id="路径_5066" data-name="路径 5066" d="M1008.362,585.921s.828-6.627-6.516-8.5-1.049-6.268-2.513-8.587-8.394-4.031-8.394-5.8.635-6.793-7.345-8.311-14.275.442-11.763,3.4,4.418,6.351,7.124,7.428,1.684,2.761,1.27,4.832,3.369,5.467,5.467,6.71,0,3.4.635,5.633c0,0,1.16,3.12,2.292,3.231S1008.362,585.921,1008.362,585.921Z" transform="translate(-971.271 -518.747)" fill="#c9e0ff"/>
            <path id="路径_5067" data-name="路径 5067" d="M1083.348,581.982s-.58-6.931,4.528-8.891.746-6.544,1.74-8.974,5.854-4.2,5.854-6.075-.442-7.1,5.108-8.7,9.94.469,8.173,3.562-3.065,6.627-4.97,7.759-1.16,2.9-.884,5.053-2.347,5.716-3.81,7.013,0,3.562-.442,5.881c0,0-.8,3.258-1.6,3.369S1083.348,581.982,1083.348,581.982Z" transform="translate(-1052.387 -514.836)" fill="#c9e0ff"/>
          </g>
          <g id="board" transform="translate(43.266 51.221)">
            <path id="路径_5068" data-name="路径 5068" d="M441.9,185.7l.193,52.96,147.309-.221V186.114Z" transform="translate(-377.122 -185.7)" fill="#fff"/>
            <path id="路径_5069" data-name="路径 5069" d="M537.3,245.7v6.516l60.332-.276V245.7Z" transform="translate(-446.181 -229.133)" fill="#bac6f2"/>
            <path id="路径_5070" data-name="路径 5070" d="M537.3,311.4v6.516l60.332-.276V311.4Z" transform="translate(-446.181 -276.692)" fill="#bac6f2"/>
            <circle id="椭圆_374" data-name="椭圆 374" cx="4.528" cy="4.528" r="4.528" transform="translate(76.402 16.291)" fill="#bac6f2"/>
            <circle id="椭圆_375" data-name="椭圆 375" cx="4.528" cy="4.528" r="4.528" transform="translate(76.402 33.217)" fill="#bac6f2"/>
            <rect id="矩形_1366" data-name="矩形 1366" width="35.813" height="17.478" transform="translate(167.936 23.691)" fill="#e9edfa"/>
            <path id="路径_5071" data-name="路径 5071" d="M813.4,293.289s2.789-6.1,5.44-5.44,3.313,3.451,5.3,2.264,3.286-5.992,5.219-6.765c2.761-1.077,3.672.11,7.4,2.237s5.3,1.657,6.82.083c1.408-1.436,4-5.329,6.875-7.069" transform="translate(-646.044 -252.948)" fill="none" stroke="#bac6f2" stroke-linecap="round" stroke-linejoin="round" stroke-width="3"/>
            <rect id="矩形_1367" data-name="矩形 1367" width="53.291" height="50.668" transform="translate(0 0.69)" fill="#fff"/>
            <circle id="椭圆_376" data-name="椭圆 376" cx="13.778" cy="13.778" r="13.778" transform="translate(12.177 17.589)" stroke-width="6" stroke="#bac6f2" stroke-linecap="round" stroke-linejoin="round" fill="none"/>
            <rect id="矩形_1368" data-name="矩形 1368" width="13.557" height="3.203" transform="translate(3.507 5.081)" fill="#bac6f2"/>
            <rect id="矩形_1369" data-name="矩形 1369" width="13.557" height="3.203" transform="translate(3.507 10.106)" fill="#bac6f2"/>
          </g>
          <g id="Computer" transform="translate(84.711 91.645)">
            <path id="路径_5072" data-name="路径 5072" d="M359.157,445.622H401.21a1.735,1.735,0,0,0,1.574-1.905V440.1H357.5v4.39a1.653,1.653,0,0,0,1.657,1.132" transform="translate(-357.472 -410.279)" fill="#bac5f4"/>
            <path id="路径_5073" data-name="路径 5073" d="M357.428,334.585,357.4,363.3l45.311-.414V333.757a1.381,1.381,0,0,0-1.491-1.657H359.14s-1.905,0-1.712,2.485" transform="translate(-357.4 -332.1)" fill="#bac5f4"/>
            <path id="路径_5074" data-name="路径 5074" d="M426.5,467.08V459.1l6.627.276v7.013Z" transform="translate(-407.42 -424.033)" fill="#bac5f4"/>
            <path id="路径_5075" data-name="路径 5075" d="M388.4,485.1h27.529l.028,1.381H388.4Z" transform="translate(-379.84 -442.854)" fill="#bac5f4"/>
            <path id="路径_5076" data-name="路径 5076" d="M434.525,447.2a1.325,1.325,0,1,1-1.325,1.325,1.326,1.326,0,0,1,1.325-1.325h0" transform="translate(-412.27 -415.419)" fill="#fff"/>
            <rect id="矩形_1370" data-name="矩形 1370" width="42.522" height="27.888" transform="translate(1.408 1.381)" fill="#f8f8ff"/>
            <path id="路径_5077" data-name="路径 5077" d="M368.463,342.3a.663.663,0,1,1-.663.663.672.672,0,0,1,.663-.663h0" transform="translate(-364.928 -339.484)" fill="#fa5f5d"/>
            <path id="路径_5078" data-name="路径 5078" d="M376.663,342.3a.663.663,0,1,1-.663.663.672.672,0,0,1,.663-.663h0" transform="translate(-370.864 -339.484)" fill="#fdbc4e"/>
            <path id="路径_5079" data-name="路径 5079" d="M385.263,342.3a.663.663,0,1,1-.663.663.672.672,0,0,1,.663-.663h0" transform="translate(-377.089 -339.484)" fill="#37cd58"/>
            <path id="路径_5080" data-name="路径 5080" d="M395.164,354.973a.649.649,0,0,1-.69.607h-8.146c-.414,0-.828-.276-.828-.607V353.73c0-.331.387-.635.828-.635h8.118a.674.674,0,0,1,.718.607v1.27Z" transform="translate(-377.741 -347.297)" fill="#5cacfc"/>
            <path id="路径_5081" data-name="路径 5081" d="M414.769,371.888a.708.708,0,0,1-.746.663H386.328a.794.794,0,0,1-.828-.663v-6.13a.794.794,0,0,1,.828-.663h27.695a.708.708,0,0,1,.746.663h0Z" transform="translate(-377.741 -355.983)" fill="#b9e4ff"/>
            <path id="路径_5082" data-name="路径 5082" d="M394.612,398.126a.672.672,0,0,1-.663.663h-7.621a.775.775,0,0,1-.828-.663v-3.369a.794.794,0,0,1,.828-.663h7.566a.677.677,0,0,1,.718.635h0v3.4Z" transform="translate(-377.741 -376.976)" fill="#b9e4ff"/>
            <path id="路径_5083" data-name="路径 5083" d="M430.612,398.126a.672.672,0,0,1-.663.663h-7.621a.775.775,0,0,1-.828-.663v-3.369a.794.794,0,0,1,.828-.663h7.566a.677.677,0,0,1,.718.635v3.4Z" transform="translate(-403.801 -376.976)" fill="#b9e4ff"/>
            <path id="路径_5084" data-name="路径 5084" d="M467.612,398.126a.708.708,0,0,1-.746.663H459.3a.76.76,0,0,1-.8-.663v-3.369a.724.724,0,0,1,.8-.663h7.566a.733.733,0,0,1,.773.663h0l-.028,3.369Z" transform="translate(-430.584 -376.976)" fill="#b9e4ff"/>
            <path id="路径_5085" data-name="路径 5085" d="M430.612,414.514a.4.4,0,0,1-.3.248c-.028,0-.028,0-.055-.11h-8.339c-.166.11-.414,0-.414-.138v-.11c0-.138.248-.276.414-.3h8.339a.326.326,0,0,1,.248.249c0,.028,0,.028.083.055l.028.11Z" transform="translate(-403.801 -391.458)" fill="#e9edfb"/>
            <path id="路径_5086" data-name="路径 5086" d="M430.612,418.487a.434.434,0,0,1-.3.276s-.028,0-.028-.11h-8.366c-.166.11-.414,0-.414-.166v-.11c0-.138.248-.249.414-.276h8.339a.476.476,0,0,1,.331.276l.028.11Z" transform="translate(-403.801 -394.354)" fill="#e9edfb"/>
            <path id="路径_5087" data-name="路径 5087" d="M430.612,422.487a.456.456,0,0,1-.331.3v-.138h-8.366a.272.272,0,0,1-.387-.083.1.1,0,0,1-.028-.083v-.11c0-.138.248-.221.414-.276h8.339a.476.476,0,0,1,.331.276Z" transform="translate(-403.801 -397.249)" fill="#e9edfb"/>
            <path id="路径_5088" data-name="路径 5088" d="M430.612,426.43a1.814,1.814,0,0,1-.331.469h-8.366c-.166-.138-.414-.3-.414-.469v-.11c0-.138.248-.3.414-.248h8.339a.215.215,0,0,1,.248.166v.083l.083.028.028.083Z" transform="translate(-403.801 -400.116)" fill="#e9edfb"/>
            <path id="路径_5089" data-name="路径 5089" d="M425.973,430.459c0,.138-.083.193-.249.193h-3.838c-.166,0-.387-.055-.387-.193v-.11c0-.138.221-.249.387-.249h3.838a.247.247,0,0,1,.249.249h0Z" transform="translate(-403.801 -403.04)" fill="#e9edfb"/>
            <path id="路径_5090" data-name="路径 5090" d="M468.119,414.514c-.166.138-.138.248-.3.138h-8.339c-.138.11-.276.028-.276-.11l.083-.028v-.11c-.083-.138.028-.276.193-.3h8.339c.166.055.138.166.3.3Z" transform="translate(-431.091 -391.458)" fill="#e9edfb"/>
            <path id="路径_5091" data-name="路径 5091" d="M468.262,418.487c-.166.138-.138.276-.3.166h-8.339c-.166.11-.276,0-.193-.166v-.11c-.083-.138.028-.249.193-.276h8.339c.166.055.138.138.3.276Z" transform="translate(-431.234 -394.354)" fill="#e9edfb"/>
            <path id="路径_5092" data-name="路径 5092" d="M468.262,422.487c-.166.138-.138.3-.3.166h-8.339c-.166.11-.276,0-.193-.166v-.11c-.083-.138.028-.221.193-.276h8.339c.166.055.138.138.3.276Z" transform="translate(-431.234 -397.249)" fill="#e9edfb"/>
            <path id="路径_5093" data-name="路径 5093" d="M468.227,426.429c-.166.138-.138.331-.3.469h-8.339c-.166-.166-.276-.3-.193-.469v-.11a.168.168,0,0,1,0-.221.182.182,0,0,1,.166-.028h8.366c.166-.055.138.11.3.249Z" transform="translate(-431.2 -400.115)" fill="#e9edfb"/>
            <path id="路径_5094" data-name="路径 5094" d="M463.752,430.459c0,.138,0,.193-.138.193h-3.866c-.166,0-.249-.055-.249-.193v-.11a.247.247,0,0,1,.249-.249h3.838c.166,0,.138.11.138.249Z" transform="translate(-431.308 -403.04)" fill="#e9edfb"/>
            <path id="路径_5095" data-name="路径 5095" d="M394.336,414.514c.11.138.055.248-.11.138h-8.366a.213.213,0,0,1-.3-.028c-.028-.028-.028-.055-.055-.11v-.11a.45.45,0,0,1,.359-.3H394.2c.166.055.221.166.11.3l.028.11Z" transform="translate(-377.741 -391.458)" fill="#e9edfb"/>
            <path id="路径_5096" data-name="路径 5096" d="M394.336,418.487c.11.138.055.276-.11.166h-8.366c-.166.138-.3,0-.359-.166v-.11a.429.429,0,0,1,.359-.276H394.2c.166.055.221.138.11.276l.028.11Z" transform="translate(-377.741 -394.354)" fill="#e9edfb"/>
            <path id="路径_5097" data-name="路径 5097" d="M394.336,422.487c.11.138.055.3-.11.166h-8.366c-.166.138-.3,0-.359-.166v-.11c.028-.138.193-.221.359-.276H394.2c.166.055.221.138.11.276l.028.11Z" transform="translate(-377.741 -397.249)" fill="#e9edfb"/>
            <path id="路径_5098" data-name="路径 5098" d="M391.851,426.071h2.375c.166-.055.221.11.11.248v.11a.337.337,0,0,1-.11.469h-8.366a1.024,1.024,0,0,1-.359-.469v-.11a.312.312,0,0,1,.359-.248h5.992" transform="translate(-377.741 -400.116)" fill="#e9edfb"/>
            <path id="路径_5099" data-name="路径 5099" d="M390.194,430.459c0,.138-.083.193-.248.193H385.8c-.166,0-.3-.055-.3-.193v-.11a.324.324,0,0,1,.3-.249h4.142a.243.243,0,0,1,.248.221h0v.138Z" transform="translate(-377.741 -403.04)" fill="#e9edfb"/>
          </g>
          <g id="Layer_6" transform="translate(-19.304 158.718)">
            <g id="Layer_18">
              <path id="路径_5100" data-name="路径 5100" d="M9.027,676.634A19.819,19.819,0,0,0-1.355,656.367c-12.784-7.069-13.392-6.986-15.932-7.786-1.463-.5-2.954.552-1.27,2.651,1.684,2.126.718,2.651,4.087,3.59s3.866,5.025,5.55,6.047,3.148,1.3,8.284,3.507c4.666,2.016,8.643,7.7,8.643,9.692s4.556,2.678,4.556,2.678Z" transform="translate(19.304 -628.178)" fill="#92e8b0"/>
              <path id="路径_5101" data-name="路径 5101" d="M14.675,675.394s3.258-12.149-7.952-18.721-15.1-6.489-17.34-7.29c-1.27-.469,2.209,1.132,3.672,3.065,1.463,1.96,1.1,1.519,3.728,2.955,3.037,1.684,4.307,3.313,6.1,3.645,2.6.5,1.822,3.2,6.323,5.219,4.059,1.85,4.584,6.793,4.584,8.643,0,1.878,3.976,2.485,3.976,2.485Z" transform="translate(13.214 -628.789)" fill="#71e2a1"/>
              <path id="路径_5102" data-name="路径 5102" d="M116.347,692.625l1.27-1.215a5.328,5.328,0,0,1,2.154-1.187c3.949-1.049,16.4-4.943,21.565-14.358a.153.153,0,0,0-.083-.221h-.028a.1.1,0,0,1-.055-.028c-1.712-.138-10.575-.276-22.421,9.83a3.835,3.835,0,0,0-.58.58c-.3.414-.8,1.132-1.022,1.491-.3.552.3,1.463-.525,2.264S114,692.6,114,692.6l1.463,1.077Z" transform="translate(-77.192 -647.814)" fill="#92e8b0"/>
              <path id="路径_5103" data-name="路径 5103" d="M60.019,619.164s3.4-30.4-5.881-39.954c-8.532-8.781-8.67-.718-8.643.663a1.165,1.165,0,0,0,.083.331,19.169,19.169,0,0,1,1.988,12.287c-.884,4.39,5.412,3.81,5.964,8.146s2.734,11.017,2.513,14.082-.249,6.047-.249,6.047l3.424.11Z" transform="translate(-27.601 -575.126)" fill="#71e2a1"/>
              <path id="路径_5104" data-name="路径 5104" d="M60.27,619.133a.52.52,0,0,0,.055-.221c.221-1.988,3.065-30.622-5.881-39.844-8.477-8.753-8.615-.828-8.56.607a1.406,1.406,0,0,0,.193.469c.635.911,3.424,4.887,5.909,4.445,6.875-1.215.8,7.041,4.528,11.459,2.982,3.479,1.988,15.518,1.767,18.61A29.382,29.382,0,0,1,57.4,619.8a.814.814,0,0,0,.635.939h.055c.055,0,.11.028.166.028h.635a.892.892,0,0,0,.884-.5Z" transform="translate(-27.88 -575.013)" fill="#92e8b0"/>
              <path id="路径_5105" data-name="路径 5105" d="M103.567,659.836s.607-8.422,5.522-13.557a10.267,10.267,0,0,1,5.025-2.816c1.463-.331,3.866-1.519,5.964-5.467,0,0,3.948-5.605,7.925-7.29,3.949-1.712,0-1.905,0-1.905s-11.321,2.154-18.583,8.781a11.5,11.5,0,0,1-1.463,1.132c-1.878,1.3-7.1,6.13-6.875,20.295Z" transform="translate(-67.836 -613.948)" fill="#92e8b0"/>
              <path id="路径_5106" data-name="路径 5106" d="M84.743,735.9s.166-1.022-1.187-.994c-1.187.055-21.178-.11-21.178-.11s-.939,0-.884.718,3.093,17.368,3.369,17.7a.928.928,0,0,0,.58.442c.387.11,14.413.028,14.413.028a.7.7,0,0,0,.607-.635s4.307-16.954,4.28-17.147" transform="translate(-39.182 -690.68)" fill="url(#linear-gradient)"/>
            </g>
          </g>
          <g id="Man" transform="translate(155.891 52.817)">
            <g id="组_4197" data-name="组 4197" transform="translate(0 159.299)">
              <path id="路径_5107" data-name="路径 5107" d="M860.733,775.662c-.746-3.148-.994-7.179-1.491-7.262h-.552l-5.274.055s-1.1,5.025-1.657,7.124c-.055.138-.138.5-.249.746a3.756,3.756,0,0,0-.11,1.1,4.9,4.9,0,0,0,2.54,4.39c1.905.939,3.341,1.85,5.274,0C861.175,779.942,861.478,778.81,860.733,775.662Z" transform="translate(-823.177 -768.4)" fill="#767676"/>
              <path id="路径_5108" data-name="路径 5108" d="M770.037,770.2l-6.682.359s-2.651,4.583-6.516,5.688c-3.645,1.049-9.664,3.589-6.986,5.025,1.988,1.16,14.855.11,17.975.359,2.347.193,2.982-1.243,2.734-4.39C770.4,774.866,770.037,770.2,770.037,770.2Z" transform="translate(-749.186 -769.703)" fill="#767676"/>
            </g>
            <path id="路径_5109" data-name="路径 5109" d="M783.089,468.1s-4.473,36.862-4.777,39.264,1.546,14.689,1.546,17.036,4.39,27.5,4.39,27.5l6.986-.3s-1.408-37.028-1.243-38.822c.138-1.795,7.787-23.277,7.787-23.277s.552,5.688.552,7.483,2.1,54.175,2.1,54.175H806.5l8.615-77.148-.138-1.491Z" transform="translate(-770.245 -391.72)" fill="url(#linear-gradient-2)"/>
            <path id="路径_5110" data-name="路径 5110" d="M792.545,210.2l-8.173,3.175a5.374,5.374,0,0,0-2.347,2.43s-.745-.442-.745.8a13.826,13.826,0,0,0,1.1,4.832,42.891,42.891,0,0,1,2.154,3.783c.607,1.3.387,3.976-.249,4.39-.635.387-11.9,10.575-11.9,10.575L763,269.041l1.243,9.112,1.905,8.974s-.387.635.387,1.408a74.541,74.541,0,0,1,4.2,6.323l1.16-8.228-3.838-12.2L766.7,264.154l8.974-18.334,31.091,5.522,3.4,19.991-6.3,17.037-1.1,8.311,5.274-4.639a10.223,10.223,0,0,0,1.187-2.237l3.148-8.863,2.347-14.165s-19.632-35.371-20.626-37.469c-.442-.939.055-3.231.3-4.39a6.257,6.257,0,0,1,1.242-2.789,5.935,5.935,0,0,0,1.3-2.982c0-.746.3-3.645-.442-2.927-.138.193-.69-.69-.939-1.85A8.424,8.424,0,0,0,792.545,210.2Z" transform="translate(-759.186 -205.031)" fill="url(#linear-gradient-3)"/>
            <path id="路径_5111" data-name="路径 5111" d="M781.442,292.839a1.236,1.236,0,0,1-1.684-.055,12.6,12.6,0,0,1-.939-1.657c-.5-.994-4.335-6.627-4.335-6.627s-9.112,2.347-10.575,3.286a7.714,7.714,0,0,0-3.341,4.087c-.5,1.74-7.538,22.228-7.869,23.47-.359,1.243-2.154,3.231-1.3,8.284s5.578,17.948,6.075,18.086S763,339.365,763,339.365s-3.976-16.043-3.976-17.644,3.59-6.13,5.025-9.222,2.485-5.771,2.982-7.124-4.28,26.673-4.28,26.673-.11,5.081.856,5.578c.884.442,11.6,4.528,14.11,5.495a.577.577,0,0,0,.69-.3h0l1.6-4.528c0-.055.055-.11.11-.055a.054.054,0,0,1,.055.055l1.491,4.943a.557.557,0,0,0,.607.359l13.2-2.844s-.193-24.354.055-28.44c.193-3.976-.3-6.24.442-5.136.8,1.187,4.142,12.149,4.142,14S796.38,339.2,796.38,339.2l4.943,2.734S808,324.151,808.336,321.8c.359-2.347.5-3.59-.607-5.937s-7.179-23.608-7.179-23.608-.607-2.6-5.081-3.949-7.814-3.341-8.615-3.286-3.286,4.722-4.39,6.13C781.939,291.679,782.049,291.928,781.442,292.839Z" transform="translate(-750.623 -258.815)" fill="#d3dff4"/>
            <path id="路径_5112" data-name="路径 5112" d="M837.138,196.676s-7.538,2.734-9.057,3.893a3.763,3.763,0,0,0-1.408,1.657s-.8-.359-.745.8-.884-1.795-1.16-2.734a6.271,6.271,0,0,1,1.795-5.522c2.043-1.933,4.28-3.4,6.185-3.286a7.09,7.09,0,0,1,4.943,2.1c1.491,1.436,1.85,1.353,2.154,1.491a6.012,6.012,0,0,1,2.043,3.59,18,18,0,0,1-.359,4.446.584.584,0,0,0-.745-.11c-.387.276-.5-1.684-1.795-4.142C838.049,197.035,837.138,196.676,837.138,196.676Z" transform="translate(-803.834 -191.479)" fill="url(#linear-gradient-4)"/>
            <path id="路径_5113" data-name="路径 5113" d="M813.5,531.9c-.856,2.485-4.2,7.372-6.378,10.327-2.181,2.927-8.919,9.112-8.477,16.65s4.97,26.922,4.97,28.661-1.684,9.968-2.982,12.508-1.905,7.069-1.243,7.069a18.646,18.646,0,0,0,3.645-.5,30.824,30.824,0,0,0,3.231-.856c.442-.193.552-1.657.552-1.657a5.519,5.519,0,0,0-.193-1.795,17.77,17.77,0,0,1-.69-2.844c-.248-7.069-.884-23.47-.746-24.63.249-2.154-1.491-12.95.111-18.279C806.874,551.256,813.5,531.9,813.5,531.9Z" transform="translate(-784.974 -437.903)" opacity="0.07"/>
            <path id="路径_5114" data-name="路径 5114" d="M790.96,483.2l-1.16,8.863s1.16,1.85,1.491.3c.359-1.546,2.734-4.445,1.242-6.516A8.8,8.8,0,0,1,790.96,483.2Z" transform="translate(-778.586 -402.65)" opacity="0.07"/>
            <path id="路径_5115" data-name="路径 5115" d="M900.8,492.1l-.387,4.225-.5,4.087s-1.684,1.243-1.657-.359c.055-1.6-2.844-3.976-.635-5.578S900.8,492.1,900.8,492.1Z" transform="translate(-856.034 -409.093)" opacity="0.07"/>
            <path id="路径_5116" data-name="路径 5116" d="M833.986,269.137c.3-.055-1.436.387.11-.11,2.651-.856,1.546-5.826,1.546-5.826a3.516,3.516,0,0,0,2.734,2.6c2.485.746,3.148.193-.607,1.933-3.728,1.74-1.795,2.347-1.546,4.639" transform="translate(-810.181 -243.396)" opacity="0.07"/>
            <path id="路径_5117" data-name="路径 5117" d="M797.3,350.737l-4.2,25.4s.055,4.528.856,5.191c.8.635,3.479,1.1,4.087,1.546s7.069,2.6,5.384-1.049c-.387-.8-9.112-5.688-5.219-10.824s3.175-12.2,1.353-17.147a22.177,22.177,0,0,1-1.491-9.057Z" transform="translate(-780.975 -302.465)" opacity="0.07"/>
          </g>
        </g>
      </g>
      <text id="_" data-name="+" transform="translate(316.898 144)" fill="#fff" font-size="41" font-family="PingFangSC-Medium, PingFang SC" font-weight="500" opacity="0.5"><tspan x="-12.403" y="0">+</tspan></text>
      <text id="_2" data-name="+" transform="translate(389.898 86)" fill="#fff" font-size="30" font-family="PingFangSC-Medium, PingFang SC" font-weight="500" opacity="0.5"><tspan x="-9.075" y="0">+</tspan></text>
    </g>
  </g>
</svg>
