<svg xmlns="http://www.w3.org/2000/svg" xmlns:xlink="http://www.w3.org/1999/xlink" width="461.327" height="742.208" viewBox="0 0 461.327 742.208">
  <defs>
    <linearGradient id="linear-gradient" x1="0.5" y1="1" x2="0.5" gradientUnits="objectBoundingBox">
      <stop offset="0" stop-color="#ffd193"/>
      <stop offset="1" stop-color="#fff9ef"/>
    </linearGradient>
    <filter id="矩形_1277" x="0" y="0" width="461.327" height="742.208" filterUnits="userSpaceOnUse">
      <feOffset dy="4" input="SourceAlpha"/>
      <feGaussianBlur stdDeviation="8" result="blur"/>
      <feFlood flood-opacity="0.059"/>
      <feComposite operator="in" in2="blur"/>
      <feComposite in="SourceGraphic"/>
    </filter>
  </defs>
  <g id="bg-main-menu4" transform="translate(24 18.325)">
    <g id="组_3850" data-name="组 3850" transform="translate(0 1.675)">
      <g transform="matrix(1, 0, 0, 1, -24, -20)" filter="url(#矩形_1277)">
        <rect id="矩形_1277-2" data-name="矩形 1277" width="413.327" height="694.208" rx="8" transform="translate(24 20)" fill="url(#linear-gradient)"/>
      </g>
      <g id="组_3746" data-name="组 3746" transform="translate(157.77 309.38)">
        <path id="路径_6" data-name="路径 6" d="M0,286.613v16.311H245.641V0L122.82,223.7l-75.057,2.33Z" transform="translate(9.417 81.648)" fill="rgba(255,255,255,0.06)"/>
        <path id="形状结合" d="M122.535,276.9,254.589,40.535V0L113.21,251.272H46.168L2.893,301.941c-3.372,3.948-3.908,13.465-1.018,18.071h0c2.89,4.606,9.857,5.338,13.229,1.39l38-44.5Z" transform="translate(0 0)" fill="rgba(255,255,255,0.06)"/>
      </g>
    </g>
    <g id="团队构建应用程序" transform="translate(51.206 392.586)">
      <g id="plant_7_" transform="translate(0 152.62)">
        <path id="Path" d="M71.753,124.3c9.92,0,15.546-14.321,13.621-17.278s-7.995,5.176-9.328,2.81,12.043-13.606,9.575-16.564-7.058,3.845-8.094,2.514,10.727-13.014,8.4-15.824-4.877,4.585-6.933,2.958S87.6,66.5,82.711,63.1,70.57,86.171,67.757,86.911,57.837,71.678,54.58,74.931s11.252,22.331,8.883,24.254-11.1-8.43-13.918-4.289,9.772,13.162,8.883,14.346-10.364-3.254-11.4-.148S56.207,124.3,71.753,124.3Z" transform="translate(-13.813 -19.061)" fill="#fff2da"/>
        <path id="Path-2" data-name="Path" d="M74.592,141.55a.542.542,0,0,1-.527-.42c-4.435-19.279,5.485-38.794,5.585-38.989a.541.541,0,0,1,.962.5c-.1.191-9.838,19.364-5.492,38.251a.541.541,0,0,1-.407.648A.514.514,0,0,1,74.592,141.55Z" transform="translate(-21.452 -30.549)" fill="#ffe7ba"/>
        <path id="Path-3" data-name="Path" d="M40.413,88.831c0-6.925-9.3-8.951-9.3-13.681s12.344-7.263,12.344-15.877S31.113,51.842,31.113,45.255s6.172-6.587,6.172-14.694S21.306.834,14.2.834,0,21.1,0,27.858s12.006,9.8,12.006,15.539S0,49.5,0,55.145,14.542,65.89,14.542,70.084,4.058,77.009,4.058,84.947s10.12,23.815,15.218,23.815S40.413,95.756,40.413,88.831Z" transform="translate(0 -0.834)" fill="#fff"/>
        <path id="Path-4" data-name="Path" d="M26.127,127.307a.521.521,0,0,1-.094-.008.54.54,0,0,1-.439-.625c5.318-30.3,5.036-51.551,3.862-64.039-1.267-13.488-3.8-19.884-3.83-19.947a.541.541,0,0,1,1-.4c.107.263,2.623,6.606,3.905,20.251,1.179,12.554,1.465,33.9-3.874,64.326A.544.544,0,0,1,26.127,127.307Z" transform="translate(-7.526 -12.927)" fill="#ffe7ba"/>
      </g>
      <g id="desktop" transform="translate(44.867 58.434)">
        <rect id="Rectangle" width="184.732" height="107.933" transform="translate(9.005 8.995)" fill="#fff9ed"/>
        <path id="Shape" d="M203.384,126.372V9.444A8.734,8.734,0,0,0,194.936.45H9.09A8.734,8.734,0,0,0,.642,9.444V126.372ZM9.09,9.444H194.936V117.377H9.09Z" transform="translate(-0.642 -0.45)" fill="#333"/>
        <path id="Path-5" data-name="Path" d="M.642,178.85v17.989a8.734,8.734,0,0,0,8.448,8.995H76.67c0,14.9-7.564,26.983-16.895,26.983h0a8.734,8.734,0,0,0-8.448,8.995H152.7a8.734,8.734,0,0,0-8.448-8.995h0c-9.331,0-16.895-12.081-16.895-26.983h67.58a8.734,8.734,0,0,0,8.448-8.995V178.85Z" transform="translate(-0.642 -52.928)" fill="#fff"/>
        <path id="Path-6" data-name="Path" d="M89.944,244.062h90.047c-9.946,0-18.009-12.081-18.009-26.983H107.954C107.953,231.981,99.891,244.062,89.944,244.062Z" transform="translate(-33.597 -64.173)" fill="#ffe9cb"/>
        <ellipse id="Oval" cx="4.502" cy="4.497" rx="4.502" ry="4.497" transform="translate(96.869 134.916)" fill="#f0cd8b"/>
        <ellipse id="Oval-2" data-name="Oval" cx="2.251" cy="2.249" rx="2.251" ry="2.249" transform="translate(99.119 2.248)" fill="#f3f9ff"/>
        <path id="Shape-2" data-name="Shape" d="M238.335,94.388V93.164h6.206l.028.884-.014.34Zm-6.206,0h-6.2V93.164h6.2Zm-12.41,0h-6.206V93.164h6.206ZM207.89,91.175a5.465,5.465,0,0,1-.5-2.293v-4.1h1.225v4.1A4.239,4.239,0,0,0,209,90.665Zm41.922-.683-1.172-.357a4.277,4.277,0,0,0,.187-1.253V84.137h1.225v4.745A5.511,5.511,0,0,1,249.812,90.492Zm-41.2-11.9h-1.225v-6.2h1.225Zm41.436-.649h-1.225v-6.2h1.225ZM208.616,66.192h-1.225v-6.2h1.225Zm41.436-.649h-1.225v-6.2h1.225ZM208.616,53.8h-1.225V49.07a5.506,5.506,0,0,1,.247-1.632l1.17.363a4.292,4.292,0,0,0-.191,1.269V53.8Zm41.436-.65h-1.225V49.07a4.237,4.237,0,0,0-.4-1.8l1.111-.515a5.448,5.448,0,0,1,.509,2.313v4.076Zm-6.142-8.358H237.7V43.564h6.206Zm-12.411,0h-6.206V43.564H231.5Zm-12.411,0H212.9l-.017-1.062v-.161h6.2Z" transform="translate(-74.83 -13.132)" fill="#88baff"/>
        <g id="Group" transform="translate(28.133 29.457)">
          <path id="Path-7" data-name="Path" d="M94.405,54.739H6.66A5.78,5.78,0,0,1,.877,48.963V10.917A5.78,5.78,0,0,1,6.66,5.141H94.405a5.78,5.78,0,0,1,5.784,5.776V48.963A5.78,5.78,0,0,1,94.405,54.739Z" transform="translate(-0.877 -2.082)" fill="#ffe7bc"/>
          <path id="Path-8" data-name="Path" d="M94.405,50.405H6.66A5.78,5.78,0,0,1,.877,44.629V6.583A5.78,5.78,0,0,1,6.66.807H94.405a5.78,5.78,0,0,1,5.784,5.776V44.629A5.78,5.78,0,0,1,94.405,50.405Z" transform="translate(-0.877 -0.807)" fill="#fff"/>
          <path id="Rectangle-2" data-name="Rectangle" d="M0,0H6.2V45.518H0Z" transform="translate(45.519 22.607) rotate(-90)" fill="#7266d5"/>
          <path id="Rectangle-3" data-name="Rectangle" d="M0,0H6.2V24.828H0Z" transform="translate(66.208 22.607) rotate(-90)" fill="#9e95e3"/>
          <path id="Rectangle-4" data-name="Rectangle" d="M0,0H6.2V45.518H0Z" transform="translate(45.518 35.007) rotate(-90)" fill="#7266d5"/>
          <path id="Rectangle-5" data-name="Rectangle" d="M0,0H6.2V8.276H0Z" transform="translate(82.76 35.007) rotate(-90)" fill="#9e95e3"/>
          <path id="Path-9" data-name="Path" d="M26.05,43.775a13.433,13.433,0,1,1,0-26.866v6.2a7.233,7.233,0,1,0,7.242,7.233H39.5A13.456,13.456,0,0,1,26.05,43.775Z" transform="translate(-4.326 -5.543)" fill="#ffe994"/>
          <path id="Path-10" data-name="Path" d="M45.1,30.343H38.9a7.246,7.246,0,0,0-7.242-7.233v-6.2A13.456,13.456,0,0,1,45.1,30.343Z" transform="translate(-9.931 -5.544)" fill="#ffcb01"/>
        </g>
      </g>
      <g id="woman_3_" transform="translate(232.547 128.311)">
        <path id="Path-11" data-name="Path" d="M35.966,6.57H5.9A5.009,5.009,0,0,0,.884,11.576V49.121A5.009,5.009,0,0,0,5.9,54.127h30.07a5.009,5.009,0,0,0,5.012-5.006V11.576A5.01,5.01,0,0,0,35.966,6.57Z" transform="translate(-0.884 -2.288)" fill="#1277d7"/>
        <path id="Path-12" data-name="Path" d="M35.966,3.608H5.9A5.009,5.009,0,0,0,.884,8.614V46.159A5.009,5.009,0,0,0,5.9,51.165h30.07a5.009,5.009,0,0,0,5.012-5.006V8.614A5.01,5.01,0,0,0,35.966,3.608Z" transform="translate(-0.884 -1.416)" fill="#ffa17e"/>
        <path id="Shape-3" data-name="Shape" d="M24.063,35.731A12.515,12.515,0,1,1,36.593,23.216,12.537,12.537,0,0,1,24.063,35.731Zm0-22.528A10.012,10.012,0,1,0,34.087,23.215,10.027,10.027,0,0,0,24.063,13.2Z" transform="translate(-4.017 -3.503)" fill="#fedd85"/>
        <path id="Path-13" data-name="Path" d="M24.063,35.731a12.515,12.515,0,1,1,0-25.03,1.251,1.251,0,1,1,0,2.5A10.012,10.012,0,1,0,34.087,23.215a1.253,1.253,0,0,1,2.506,0A12.536,12.536,0,0,1,24.063,35.731Z" transform="translate(-4.017 -3.503)" fill="#fff"/>
        <ellipse id="Oval-3" data-name="Oval" cx="2.506" cy="2.503" rx="2.506" ry="2.503" transform="translate(28.817 17.21)" fill="#224380"/>
        <path id="Path-14" data-name="Path" d="M31.686,53.254H21.663a1.251,1.251,0,1,0,0,2.5H31.686a1.251,1.251,0,1,0,0-2.5Z" transform="translate(-6.628 -16.02)" fill="#224380"/>
        <path id="Path-15" data-name="Path" d="M31.686,60.346H21.663a1.251,1.251,0,1,0,0,2.5H31.686a1.251,1.251,0,1,0,0-2.5Z" transform="translate(-6.628 -18.106)" fill="#fff"/>
        <g id="Group-2" data-name="Group" transform="translate(14.57 0)">
          <path id="Path-16" data-name="Path" d="M45.235,10.331c-1.44.481-1.332,2.948-1.781,3.667s-1.184,1.711-1.141,2.272,1.487.54,1.373,1.914-.128,3.082,1.974,3.512S47.43,24,47.509,25.778s.345,2.289,1.066,2.255a10.353,10.353,0,0,0,4.661-2.042c1.73-1.277,3.749-5.011,3.387-7.15-.7-4.12-2.234-7.46-5.592-8.4S46.452,9.925,45.235,10.331Z" transform="translate(-13.021 -3.261)" fill="#ffeed8"/>
          <path id="Path-17" data-name="Path" d="M9.649,154.011c1.833-1.879,1.752-8.975,1.885-12.159l5.868,1.127c-.717,2.459-1.9,6.557-2.2,7.935-.447,2.016-.061,5.469-.429,6.312s-9.063,1.812-9.063,1.812l-1.423-.995A26.421,26.421,0,0,0,9.649,154.011Z" transform="translate(-1.835 -42.082)" fill="#ffeed8"/>
          <path id="Path-18" data-name="Path" d="M13.654,161.822c.831.095.139,2.986-.852,3.849.031,0-3.661-.041-3.661-.041l.064-.947a18.356,18.356,0,0,1-5.1,1.018c-1.815-.123-3.3-.34-3.279-.635.028-.415,2.473-1.679,3-1.644.726.05,1.4.978,2.02.989S12.977,161.746,13.654,161.822Z" transform="translate(-0.818 -47.956)" fill="#0b224e"/>
          <path id="Path-19" data-name="Path" d="M54.219,151.266c.526-2.57-3.378-8.5-4.987-11.25L54.78,137.8c.726,2.456,1.948,6.543,2.436,7.867.713,1.938,2.905,4.635,3.052,5.544s-6.649,6.414-6.649,6.414l-1.735-.07A26.459,26.459,0,0,0,54.219,151.266Z" transform="translate(-15.057 -40.89)" fill="#ffeed8"/>
          <path id="Path-20" data-name="Path" d="M59.994,155.338c.751-.369,1.731,2.439,1.365,3.7.027-.015-3.1,1.94-3.1,1.94l-.458-.832a18.321,18.321,0,0,1-3.74,3.607c-1.594.876-2.96,1.493-3.1,1.234-.2-.364,1.173-2.748,1.635-3,.638-.35,1.707.068,2.235-.258S59.382,155.638,59.994,155.338Z" transform="translate(-15.558 -46.039)" fill="#0b224e"/>
          <path id="Path-21" data-name="Path" d="M40.058,74.884H25.244s-7.26,15.862-8.732,26.643-1.991,23.409-1.991,23.409l5.2.773c1.208-5.246,4.077-7.974,3.687-17.989,2.155-3.99,5.271-9.329,5.271-9.329Z" transform="translate(-4.846 -22.383)" fill="#0b224e"/>
          <path id="Path-22" data-name="Path" d="M41.734,102.472c1.009-7.346,4.414-11.424,4.414-19.947a18.339,18.339,0,0,0-1.742-7.64H29.592s-1.559,15.747,2.522,29.989c1.592,5.554,12.969,19.592,12.969,19.592l5.1-1.084C47.3,115.6,46.4,108.446,41.734,102.472Z" transform="translate(-9.193 -22.383)" fill="#102b5e"/>
          <path id="Path-23" data-name="Path" d="M52.259,37.733c.542-6.279-6.848-6.4-8.292-6.4-.63,0-2.2,1.187-3.793,2.818-1.7,2.007-7.149,4.636-7.551,7.31-.334,2.223.859,6.824-.346,12.261-1.444,4.582-2.563,8.349-2.563,8.349H44.528s-1.006-5.109.392-8.343S51.671,44.543,52.259,37.733Z" transform="translate(-9.315 -9.573)" fill="#ffd752"/>
          <path id="Path-24" data-name="Path" d="M47.122,44.355a22.383,22.383,0,0,1-14.043,18.3c-.868.348-1.66.658-2.377.936.418-1.385,1-3.284,1.665-5.391l11.211-7.257S45.944,46.954,47.122,44.355Z" transform="translate(-9.606 -13.402)" fill="#ffa143"/>
          <path id="Path-25" data-name="Path" d="M34.785,51.914S30.1,58.038,25.97,60.3a42.161,42.161,0,0,1-15.244,5.138s-8.71,2.35-9.873-.973c-.416-1.187,2.453.1,6.23-.539,1.226-.245-.147-1.176-.589-1.911s.736-1.029,2.453.2,8.438-1.519,14.324-6.272c5.775-4.663,6.9-8.266,6.9-8.266Z" transform="translate(-0.814 -14.379)" fill="#ffeed8"/>
          <path id="Path-26" data-name="Path" d="M44.9,8.273a2.658,2.658,0,0,1-2.514-2.658c0-4.471,10.2-7.694,14.263-2.262s3.968,12.664,8.924,16.409-.55,13.223-5.782,13.361-10.6-5.065-8.948-9.6,3.488-10.634.5-9.534S49.6,8.06,44.9,8.273Z" transform="translate(-13.043 -0.503)" fill="#3e3e3e"/>
        </g>
      </g>
      <g id="man_laptop" transform="translate(22.326)">
        <path id="Path-27" data-name="Path" d="M20.376,52.924,32.093,65.8a.864.864,0,0,1-.058,1.223h0a.867.867,0,0,1-1.224-.058L19.093,54.088a.864.864,0,0,1,.058-1.223h0A.868.868,0,0,1,20.376,52.924Z" transform="translate(-5.709 -15.988)" fill="#fff5e8"/>
        <path id="Path-28" data-name="Path" d="M60.009,114.548l2.719,3.784L58.451,122.3,55.6,117.915Z" transform="translate(-16.516 -34.199)" fill="#ffeed8"/>
        <path id="Path-29" data-name="Path" d="M20.929,115.712l-4.014,4.82-4.2-3.284,4.433-4.331Z" transform="translate(-3.901 -33.719)" fill="#ffeed8"/>
        <path id="Path-30" data-name="Path" d="M38.752,85.033,22.792,105.6l-4.4-3.765S29.412,79.65,32.429,76.516,39.114,79.729,38.752,85.033Z" transform="translate(-5.57 -22.767)" fill="#0b224e"/>
        <path id="Path-31" data-name="Path" d="M72.63,77.113c-1.322-4.188-15.816-5.932-15.816-5.932-2.494-.154-21.805-.57-22.127,7.146-.278,6.665,14.907,27.283,14.907,27.283l4.381-2.668s-3.623-13.13-7.8-20.031a87.149,87.149,0,0,0,18.4,1.615C75.176,84.508,72.63,77.113,72.63,77.113Z" transform="translate(-10.362 -21.424)" fill="#102b5e"/>
        <path id="Path-32" data-name="Path" d="M82.907,63.252C79.2,50.873,83.521,49.4,81.67,38.23s-9.805-11.252-9.805-11.252a14.349,14.349,0,0,0-9.414,11.48c-.293,2.6.6,6.778.6,9.468,0,8.012-1.466,10.271,2.82,11.876.316.118,6.73,1.137,9.766,3.906C79.336,67.082,84.356,68.088,82.907,63.252Z" transform="translate(-18.513 -8.439)" fill="#93cafc"/>
        <path id="Path-33" data-name="Path" d="M76.973,55.619c-2.044,2.082-9.834,5.84-13.846,7.007-.028-.048-.053-.1-.078-.149-.67-1.368-.665-3.437-.423-5.864.058-.578.231-2.217.45-4.258,7.471-2.424,12.728-10.5,16.15-10.317C79.225,42.037,80.914,51.6,76.973,55.619Z" transform="translate(-18.537 -12.868)" fill="#61a8fc"/>
        <path id="Path-34" data-name="Path" d="M53.628,72.938H36.21a.866.866,0,0,1-.866-.865h0a.866.866,0,0,1,.866-.865H53.628a.866.866,0,0,1,.866.865h0A.866.866,0,0,1,53.628,72.938Z" transform="translate(-10.556 -21.45)" fill="#aa896c"/>
        <path id="Path-35" data-name="Path" d="M50.838,64.586s-3.741-.663-5.853.783-3.38,3.839-2.112,3.938a7.839,7.839,0,0,0,3.138,0c1.449-.322.362-1.407,2.9-1.467s3.2-1.688,3.2-1.688S52.04,64.715,50.838,64.586Z" transform="translate(-12.622 -19.458)" fill="#ffeed8"/>
        <path id="Path-36" data-name="Path" d="M68.68,38.723c-.142,3.057.738,5.915-4.035,9.717-4.433,3.53-11.484,5.978-11.484,5.978L55.5,58.465s15.59-4.793,17.682-7.2,3.29-9.15,3.3-11.412C76.511,33.2,69.18,27.977,68.68,38.723Z" transform="translate(-15.797 -10.08)" fill="#7bc0ff"/>
        <path id="Path-37" data-name="Path" d="M53.763,11.59c-.211,2.065.786,2.673.885,3.456s-.174,2.584.131,3.235,1.342.277,2.011,1,.7,2.063,1.92,2.583,3.809-.943,4.279-.107c1.559,2.773.948,6.111,1.559,6.541.425.3,7.383-5.484,6.233-6.884-1.463-1.78-2.377-2.74-2.8-4.886s-2.867-9.617-5.783-9.3S53.987,9.4,53.763,11.59Z" transform="translate(-15.966 -2.627)" fill="#ffeed8"/>
        <path id="Path-38" data-name="Path" d="M69.116,7.453c.768,5.68-.61,8.4-1.8,8.743-1.523.439-4.726-5.68-6.153-5.124-1,.389-1.993,2.147-2.82,1.728-.7-.356-.354-2.987-2.307-2.227-4.057,1.579-5.338.071-6.1-1.884C49.393,6.28,51.4,3.983,54.5,2.341c2.617-1.39,5.717-2.945,7.894.248C62.392,2.589,68.122.108,69.116,7.453Z" transform="translate(-14.822 -0.713)" fill="#3e3e3e"/>
        <path id="Path-39" data-name="Path" d="M66.435,29.481a8.35,8.35,0,0,0-.822-2.17c-.333-.591-1.736-.023-2.954.161a13.259,13.259,0,0,0,4.133-1.378A3.743,3.743,0,0,1,66.435,29.481Z" transform="translate(-18.591 -8.179)" fill="#cd916a"/>
        <path id="Path-40" data-name="Path" d="M16.2,111.051c-.346,1.372,1.17,2.069,1.942,2.809s3.6,3.106,4.243,2.331.59-1.665,1.053-2.275,1.688-.99,1.273-1.924-1.9-1.227-2.78-1.746c-.646-.38-2.367-2.841-2.9-2.618s-.627,1.234-1.037,1.67C17.381,109.946,16.468,109.986,16.2,111.051Z" transform="translate(-4.91 -32.159)" fill="#355aa2"/>
        <path id="Path-41" data-name="Path" d="M60.7,113.942c.126,1.409-1.479,1.861-2.358,2.472s-4.044,2.5-4.556,1.639-.322-1.736-.683-2.411-1.512-1.241-.955-2.1,2.064-.916,3.019-1.29c.7-.274,2.783-2.435,3.277-2.132s.427,1.317.763,1.811C59.7,112.666,60.6,112.849,60.7,113.942Z" transform="translate(-15.455 -32.888)" fill="#355aa2"/>
        <path id="Path-42" data-name="Path" d="M60.337,118.627c.422-.392,1.445-.141,2.736,1.4s2.619,2.593,1.32,3.815c-.816.768-5.982,3.283-9.26,5.774a6.091,6.091,0,0,1-4.538.923.807.807,0,0,1-.634-.57.694.694,0,0,1,.275-.757c2.727-1.9,2.958-1.725,4.037-4.583a6.732,6.732,0,0,1,1.074-2.277c.767-.639,1.721-.23,2.936-1.311A30.416,30.416,0,0,0,60.337,118.627Z" transform="translate(-14.849 -35.351)" fill="#0b224e"/>
        <path id="Path-43" data-name="Path" d="M15.3,119.053c.541.2.779,1.224-.015,3.072s-1.133,3.5-2.811,2.9c-1.055-.38-5.635-3.847-9.34-5.642a6.079,6.079,0,0,1-2.875-3.627.8.8,0,0,1,.222-.822.7.7,0,0,1,.8-.1c2.934,1.57,2.877,1.856,5.917,1.527a6.768,6.768,0,0,1,2.52-.072c.917.4.983,1.43,2.5,2.024A30.712,30.712,0,0,0,15.3,119.053Z" transform="translate(-0.226 -34.259)" fill="#0b224e"/>
      </g>
    </g>
    <text id="_" data-name="+" transform="translate(316.898 146)" fill="#fff" font-size="41" font-family="PingFangSC-Medium, PingFang SC" font-weight="500" opacity="0.5"><tspan x="-12.403" y="0">+</tspan></text>
    <text id="_2" data-name="+" transform="translate(389.898 86)" fill="#fff" font-size="30" font-family="PingFangSC-Medium, PingFang SC" font-weight="500" opacity="0.5"><tspan x="-9.075" y="0">+</tspan></text>
    <text id="_3" data-name="+" transform="translate(73.898 65)" fill="#fff" font-size="61" font-family="PingFangSC-Medium, PingFang SC" font-weight="500" opacity="0.5"><tspan x="-18.452" y="0">+</tspan></text>
    <text id="_4" data-name="+" transform="translate(248.898 521)" fill="#ffd1a3" font-size="61" font-family="PingFangSC-Medium, PingFang SC" font-weight="500"><tspan x="-18.452" y="0">+</tspan></text>
  </g>
</svg>
