<svg xmlns="http://www.w3.org/2000/svg" width="49.995" height="49.995" viewBox="0 0 49.995 49.995">
  <g id="icon-btn-next" transform="translate(49.995) rotate(90)">
    <path id="路径_4248" data-name="路径 4248" d="M25,25,0,25A25,25,0,1,0,25,0,25,25,0,0,0,0,25Z" transform="translate(0 0)" fill="rgba(0,0,0,0.23)"/>
    <path id="联合_1" data-name="联合 1" d="M18.483,13.2,10.267,3.191,1.851,13.2a1,1,0,0,1-.768.377A1.007,1.007,0,0,1,.316,13.2a1.477,1.477,0,0,1,0-1.831L9.258.732a1.327,1.327,0,0,1,.2-.349A.973.973,0,0,1,10.211,0l.057,0,.058,0a1.009,1.009,0,0,1,.768.382,1.34,1.34,0,0,1,.245.455l8.64,10.53a1.506,1.506,0,0,1,0,1.831.975.975,0,0,1-.749.382h0A.975.975,0,0,1,18.483,13.2Z" transform="translate(14.654 16.54)" fill="#fff"/>
  </g>
</svg>
