<svg xmlns="http://www.w3.org/2000/svg" xmlns:xlink="http://www.w3.org/1999/xlink" width="478.36" height="382.553" viewBox="0 0 478.36 382.553">
  <defs>
    <linearGradient id="linear-gradient" x1="0.5" x2="0.5" y2="0.985" gradientUnits="objectBoundingBox">
      <stop offset="0" stop-color="#ffe5ce"/>
      <stop offset="1" stop-color="#fff"/>
    </linearGradient>
    <filter id="蒙版" x="75.179" y="27.275" width="336" height="336" filterUnits="userSpaceOnUse">
      <feOffset dx="4" dy="4" input="SourceAlpha"/>
      <feGaussianBlur stdDeviation="15" result="blur"/>
      <feFlood flood-opacity="0.153"/>
      <feComposite operator="in" in2="blur"/>
      <feComposite in="SourceGraphic"/>
    </filter>
    <clipPath id="clip-path">
      <circle id="蒙版-2" data-name="蒙版" cx="116" cy="116" r="116" transform="translate(-0.321 -0.321)" fill="url(#linear-gradient)"/>
    </clipPath>
  </defs>
  <g id="icon-countdwon-bg" transform="translate(-305.173 -356.156)">
    <path id="路径_12061" data-name="路径 12061" d="M664,474.009c-61-27.294-41.662-68.22-70.23-100.75-11.914-13.566-25.728-28.491-41.934-37.368-14.6-8-30.347-14.973-47.867-16.326-21.954-1.7-45.8,6.03-63.99,20.733-17.9,14.467-30.78,31.365-51.53,41.111-26.056,12.239-54.05,3.475-79.5,1.694-29.754-2.082-60.623,14.4-70.74,42.164-4.536,12.449-4.552,26.054-2.467,39.087,2.123,13.273,6.619,26.723,15.413,37.385,9.286,11.26,21.548,19.843,29.7,32.1,9.667,14.534,8.889,34.151,5.711,52.5s-8.487,36.954-6.9,54.894c2.334,26.369,20.754,48.948,46.458,56.95,33,10.272,71.584-2.661,106.66-16,31.405-11.945,67.682-25.935,100.463-23.7,34.576,2.362,91.066,15.117,140.045-17.251C729.537,607.472,725,501.3,664,474.009Z" transform="translate(70.768 36.821)" fill="#c6deff" opacity="0.038"/>
    <g id="组_31466" data-name="组 31466" transform="matrix(0.966, 0.259, -0.259, 0.966, 629.713, 532.412)" opacity="0.153">
      <path id="路径_12063" data-name="路径 12063" d="M38.143,68.63l13.284-1.52A111.219,111.219,0,0,0,69.293,54.862C65.473,51.575,54.129,51.7,54.129,51.7c11.671-1.018,15.222-.077,19.045-.394,6.293-6.229,9.431-14.973,13.007-22.015-13.717,4.261-17.218,4.472-17.218,4.472,8.252-1.842,13.84-5.455,18.692-7.517C95.922,8.4,93.093,0,93.093,0,87.249.851,74.378,4.438,69.4,5.65A170.375,170.375,0,0,0,59.2,23.842c1.245-5.262,4.549-12.345,7.122-17.4-7.189,1.924-6,1.689-11.63,4.375C49.093,18.57,43.009,33.689,43.009,33.689c1.076-6.377,4.955-15.565,7.233-20.6A86.507,86.507,0,0,0,26.609,32.168c-2.628,7.687-4.468,15.763-4.468,15.763a65.968,65.968,0,0,1,1.682-12.5C16.646,44.156,10.381,54.165,3.344,65.251L0,76.021l14.4,1.571c11.414.165,22.644-3.335,32.414-8.09Z" transform="translate(0 0)" fill="#fff"/>
    </g>
    <g id="组_31467" data-name="组 31467" transform="matrix(-0.966, 0.259, -0.259, -0.966, 479.532, 607.365)" opacity="0.153">
      <path id="路径_12063-2" data-name="路径 12063" d="M38.142,8.967l13.284,1.52A111.221,111.221,0,0,1,69.292,22.735C65.472,26.022,54.128,25.9,54.128,25.9c11.671,1.018,15.222.077,19.045.394C79.465,32.524,82.6,41.268,86.18,48.31c-13.716-4.261-17.217-4.472-17.217-4.472,8.252,1.842,13.84,5.455,18.692,7.517C95.921,69.195,93.092,77.6,93.092,77.6c-5.844-.851-18.715-4.438-23.689-5.65A170.377,170.377,0,0,1,59.195,53.754c1.245,5.261,4.549,12.345,7.122,17.4-7.188-1.924-6-1.689-11.63-4.375-5.594-7.753-11.678-22.872-11.678-22.872,1.076,6.377,4.955,15.565,7.233,20.6A86.507,86.507,0,0,1,26.609,45.428c-2.627-7.687-4.468-15.762-4.468-15.762a65.964,65.964,0,0,0,1.682,12.5C16.645,33.441,10.381,23.431,3.344,12.346L0,1.576,14.4.006C25.81-.159,37.04,3.34,46.81,8.1Z" transform="translate(0 0)" fill="#fff"/>
    </g>
    <g id="组_31463" data-name="组 31463" transform="translate(629.786 505.205) rotate(-2)" opacity="0.02">
      <path id="路径_12063-3" data-name="路径 12063" d="M697.729,515.441l13.572-1.553a113.64,113.64,0,0,0,18.255-12.514c-3.9-3.358-15.494-3.234-15.494-3.234,11.924-1.04,15.553-.078,19.458-.4,6.43-6.364,9.636-15.3,13.29-22.493-14.014,4.354-17.591,4.569-17.591,4.569,8.431-1.882,14.14-5.574,19.1-7.68,8.447-18.227,5.556-26.81,5.556-26.81-5.971.869-19.121,4.534-24.2,5.773a174.074,174.074,0,0,0-10.43,18.586c1.272-5.376,4.647-12.613,7.276-17.778-7.345,1.966-6.135,1.726-11.882,4.47-5.716,7.922-11.932,23.368-11.932,23.368,1.1-6.516,5.062-15.9,7.39-21.046a88.384,88.384,0,0,0-24.146,19.492c-2.685,7.854-4.565,16.1-4.565,16.1a67.394,67.394,0,0,1,1.718-12.768c-7.332,8.912-13.733,19.138-20.923,30.464l-3.417,11,14.709,1.6c11.662.168,23.135-3.407,33.117-8.266Z" transform="translate(-658.758 -445.322)"/>
    </g>
    <g id="组_11686" data-name="组 11686" transform="translate(632.187 473.87)" opacity="0.251">
      <path id="路径_12063-4" data-name="路径 12063" d="M47.806,86.017l16.649-1.906A139.4,139.4,0,0,0,86.848,68.76c-4.789-4.119-19.007-3.968-19.007-3.968,14.628-1.276,19.079-.1,23.869-.494,7.887-7.807,11.82-18.766,16.3-27.592-17.192,5.341-21.58,5.6-21.58,5.6C96.777,40,103.78,35.472,109.861,32.889,120.223,10.529,116.677,0,116.677,0c-7.325,1.066-23.456,5.562-29.69,7.082a213.542,213.542,0,0,0-12.8,22.8c1.56-6.594,5.7-15.473,8.926-21.808-9.01,2.411-7.526,2.117-14.576,5.483C61.53,23.274,53.9,42.223,53.9,42.223c1.349-7.993,6.21-19.508,9.066-25.817A108.422,108.422,0,0,0,33.35,40.318c-3.293,9.634-5.6,19.756-5.6,19.756A82.68,82.68,0,0,1,29.857,44.41C20.863,55.342,13.011,67.887,4.191,81.781L0,95.28l18.043,1.968c14.306.206,28.38-4.18,40.626-10.14Z" fill="#fff"/>
    </g>
    <g id="组_31468" data-name="组 31468" transform="translate(456.974 571.126) rotate(180)" opacity="0.251">
      <path id="路径_12063-5" data-name="路径 12063" d="M47.805,11.239l16.649,1.906A139.4,139.4,0,0,1,86.847,28.495c-4.789,4.119-19.006,3.968-19.006,3.968,14.628,1.276,19.078.1,23.869.494,7.887,7.807,11.82,18.765,16.3,27.592-17.191-5.341-21.579-5.6-21.579-5.6,10.343,2.308,17.346,6.837,23.427,9.421,10.361,22.359,6.816,32.888,6.816,32.888-7.325-1.066-23.456-5.562-29.69-7.081a213.536,213.536,0,0,1-12.795-22.8c1.56,6.594,5.7,15.472,8.926,21.808-9.01-2.411-7.526-2.117-14.576-5.483C61.53,73.98,53.9,55.031,53.9,55.031c1.348,7.993,6.21,19.508,9.066,25.817A108.421,108.421,0,0,1,33.35,56.936c-3.293-9.634-5.6-19.755-5.6-19.755a82.671,82.671,0,0,0,2.108,15.663C20.862,41.912,13.011,29.367,4.191,15.474L0,1.975,18.043.007c14.305-.206,28.38,4.18,40.625,10.14Z" transform="translate(0 0)" fill="#fff"/>
    </g>
    <g id="没有数据" transform="translate(421.209 424.289)">
      <g id="插图" transform="translate(0 0)">
        <g id="路径-2">
          <g transform="matrix(1, 0, 0, 1, -116.04, -68.13)" filter="url(#蒙版)">
            <circle id="蒙版-3" data-name="蒙版" cx="123" cy="123" r="123" transform="translate(116.18 68.28)" fill="#fdfeff"/>
          </g>
        </g>
      </g>
    </g>
  </g>
</svg>
