<svg xmlns="http://www.w3.org/2000/svg" width="174.973" height="137.486" viewBox="0 0 174.973 137.486">
  <g id="icon-finance-confirm" transform="translate(-883.326 -253.187)">
    <g id="组_20660" data-name="组 20660" transform="translate(875.484 251.117)">
      <g id="组_20661" data-name="组 20661" transform="matrix(0.985, -0.174, 0.174, 0.985, 0, 9.266)">
        <path id="路径_10872" data-name="路径 10872" d="M10.946,12.79a16.638,16.638,0,0,1,.374,12.95s-5.56-.586-8.678-7.69S.03,0,.03,0,7.828,5.683,10.946,12.79Z" transform="translate(34.499 99.387)" fill="#91c8ff"/>
        <path id="路径_10873" data-name="路径 10873" d="M15.124,40.518a12.988,12.988,0,0,0,10.361-5.624A11.469,11.469,0,0,0,15.411,29.8C8.384,29.977,0,35.564,0,35.564S8.082,40.72,15.124,40.518Zm-3.69-26.973A15.009,15.009,0,0,1,9.744,25s-4.683-1.679-6.266-8.583S4.049,0,4.049,0s5.82,6.637,7.385,13.545Z" transform="translate(20.33 90.247)" fill="#91c8ff"/>
        <path id="路径_10874" data-name="路径 10874" d="M12.225,39.772a10.66,10.66,0,0,0,9.791-2.779,10.917,10.917,0,0,0-7.876-6.585C8.063,29.1,0,32.254,0,32.254S6.151,38.464,12.225,39.772Zm2.051-26.338c.043,6.308-3.529,9.424-3.529,9.424s-3.609-2.574-3.651-8.9S10.584,0,10.584,0,14.225,7.122,14.276,13.433Z" transform="translate(8.059 78.262)" fill="#91c8ff"/>
        <path id="路径_10875" data-name="路径 10875" d="M8.833,38.152a8.657,8.657,0,0,0,8.686.038,10.543,10.543,0,0,0-5.36-7.6C7.315,27.96,0,28.686,0,28.686S4,35.536,8.833,38.152ZM16.6,13.409c-1.888,5.621-5.86,6.927-5.86,6.927s-2.31-3.783-.414-9.394S17.538,0,17.538,0,18.478,7.789,16.6,13.409Z" transform="translate(1.281 62.936)" fill="#91c8ff"/>
        <path id="路径_10876" data-name="路径 10876" d="M4.623,32.613c3.315,4.3,7.379,3.57,7.379,3.57a11.469,11.469,0,0,0-2.243-8.929C6.447,22.951,0,20.592,0,20.592S1.311,28.3,4.623,32.613Zm12.7-19.642c-2.94,5.035-7.017,5.25-7.017,5.25a12.181,12.181,0,0,1,1.5-9.368C14.734,3.823,20.924,0,20.924,0S20.246,7.942,17.318,12.971Z" transform="translate(0 47.09)" fill="#91c8ff"/>
        <path id="路径_10877" data-name="路径 10877" d="M2.044,25.31c2.32,5.125,6.368,5.507,6.368,5.507a12.087,12.087,0,0,0-.37-9.409C5.719,16.27.011,12.217.011,12.217S-.274,20.181,2.044,25.31ZM18.683,10.481c-3.776,3.563-7.374,2.415-7.374,2.415A11.133,11.133,0,0,1,14.9,4.976C18.674,1.4,24.972,0,24.972,0s-2.518,6.911-6.289,10.481Z" transform="translate(1.88 34.494)" fill="#91c8ff"/>
        <path id="路径_10878" data-name="路径 10878" d="M.164,31.316c.765,5.377,4.2,7.029,4.2,7.029a11.278,11.278,0,0,0,1.961-8.569C5.555,24.4,1.591,18.893,1.591,18.893S-.607,25.949.164,31.316ZM31.2,4.685a4.955,4.955,0,0,1-4.478-2.013A5.8,5.8,0,0,1,31.171.017c3.069-.222,6.679,1.856,6.679,1.856S34.271,4.463,31.2,4.685Z" transform="translate(8.827 9.045)" fill="#91c8ff"/>
        <path id="路径_10879" data-name="路径 10879" d="M8.589,6.041A7.214,7.214,0,0,0,8.3,11.706s2.44-.489,3.849-3.723S13.455,0,13.455,0A19.61,19.61,0,0,0,8.589,6.041ZM6.078,21.568A6.175,6.175,0,0,1,0,19.979a7.9,7.9,0,0,1,5.286-4.323c3.919-.936,8.9.912,8.9.912S9.995,20.618,6.078,21.568Z" transform="translate(27.247 0)" fill="#91c8ff"/>
        <path id="路径_10880" data-name="路径 10880" d="M8.045,8.7A9.052,9.052,0,0,0,8.6,15.952s3.049-1.156,4.355-5.565S13.336,0,13.336,0,9.342,4.3,8.045,8.7ZM7.032,28.412C3.046,30.87,0,29.01,0,29.01a9.807,9.807,0,0,1,4.525-6.49c3.976-2.431,9.9-2.354,9.9-2.354S11.014,25.975,7.032,28.412Z" transform="translate(18.646 4.027)" fill="#91c8ff"/>
        <path id="路径_10881" data-name="路径 10881" d="M.009,23.347c-.191,5.11,2.619,7.392,2.619,7.392s2.991-2.329,3.194-7.456S3.346,12.218,3.346,12.218.217,18.233.009,23.347ZM30.391.692A6.463,6.463,0,0,0,26.726,4.65a4.772,4.772,0,0,0,4.853.439C34.522,3.883,37.361.236,37.361.236S33.325-.528,30.391.692Z" transform="translate(16.003 2.291)" fill="#91c8ff"/>
      </g>
      <g id="组_20662" data-name="组 20662" transform="matrix(0.985, 0.174, -0.174, 0.985, 138.104, 0)">
        <path id="路径_10882" data-name="路径 10882" d="M10.361,40.507A12.994,12.994,0,0,1,0,34.883a11.47,11.47,0,0,1,10.075-5.092c7.027.176,15.4,5.762,15.4,5.762S17.4,40.71,10.361,40.507Zm3.682-26.973a14.989,14.989,0,0,0,1.7,11.456S20.427,23.311,22,16.418,21.44,0,21.44,0,15.614,6.627,14.043,13.534Z" transform="translate(7.546 90.257)" fill="#91c8ff"/>
        <path id="路径_10883" data-name="路径 10883" d="M9.782,39.768A10.653,10.653,0,0,1,0,36.989,10.908,10.908,0,0,1,7.867,30.4c6.071-1.308,14.152,1.847,14.152,1.847S15.868,38.461,9.782,39.768ZM7.737,13.43c-.043,6.308,3.526,9.424,3.526,9.424s3.615-2.574,3.657-8.9S11.429,0,11.429,0,7.788,7.119,7.737,13.43Z" transform="translate(23.287 78.265)" fill="#91c8ff"/>
        <path id="路径_10884" data-name="路径 10884" d="M8.933,38.152a8.668,8.668,0,0,1-8.695.037,10.586,10.586,0,0,1,5.374-7.6c4.845-2.625,12.154-1.9,12.154-1.9S13.769,35.536,8.933,38.152ZM1.18,13.41c1.874,5.62,5.862,6.927,5.862,6.927s2.29-3.783.394-9.394S.228,0,.228,0-.7,7.789,1.18,13.41Z" transform="translate(34.312 62.936)" fill="#91c8ff"/>
        <path id="路径_10885" data-name="路径 10885" d="M16.3,32.613c-3.309,4.3-7.37,3.57-7.37,3.57a11.488,11.488,0,0,1,2.24-8.93c3.306-4.3,9.755-6.661,9.755-6.661S19.612,28.3,16.3,32.613ZM3.611,12.971c2.94,5.029,7.014,5.25,7.014,5.25a12.191,12.191,0,0,0-1.5-9.369C6.19,3.823,0,0,0,0S.674,7.942,3.611,12.971Z" transform="translate(32.435 47.09)" fill="#91c8ff"/>
        <path id="路径_10886" data-name="路径 10886" d="M22.922,25.309c-2.32,5.125-6.362,5.507-6.362,5.507a12.087,12.087,0,0,1,.37-9.409c2.323-5.138,8.031-9.191,8.031-9.191s.279,7.964-2.038,13.093ZM6.292,10.481c3.77,3.563,7.363,2.428,7.363,2.428a11.179,11.179,0,0,0-3.578-7.932C6.318,1.42,0,0,0,0S2.513,6.911,6.292,10.481Z" transform="translate(26.512 34.494)" fill="#91c8ff"/>
        <path id="路径_10887" data-name="路径 10887" d="M37.683,31.316c-.762,5.377-4.189,7.029-4.189,7.029a11.3,11.3,0,0,1-1.964-8.569c.762-5.374,4.729-10.883,4.729-10.883s2.2,7.056,1.424,12.423ZM6.653,4.685a4.943,4.943,0,0,0,4.47-2.014A5.762,5.762,0,0,0,6.684.017C3.613-.206,0,1.873,0,1.873S3.581,4.463,6.653,4.685Z" transform="translate(6.682 9.045)" fill="#91c8ff"/>
        <path id="路径_10888" data-name="路径 10888" d="M5.625,6.042A7.233,7.233,0,0,1,5.9,11.707s-2.434-.489-3.849-3.723S.735,0,.735,0A19.841,19.841,0,0,1,5.625,6.042ZM8.118,21.568A6.2,6.2,0,0,0,14.2,19.979a7.926,7.926,0,0,0-5.309-4.324C4.959,14.719,0,16.568,0,16.568S4.2,20.618,8.118,21.568Z" transform="translate(11.917 0)" fill="#91c8ff"/>
        <path id="路径_10889" data-name="路径 10889" d="M6.385,8.7a9.06,9.06,0,0,1-.554,7.248S2.78,14.8,1.476,10.387,1.1,0,1.1,0,5.085,4.3,6.385,8.7ZM7.4,28.412c3.98,2.458,7.034.6,7.034.6A9.8,9.8,0,0,0,9.9,22.52C5.92,20.089,0,20.166,0,20.166S3.416,25.975,7.4,28.412Z" transform="translate(20.282 4.027)" fill="#91c8ff"/>
        <path id="路径_10891" data-name="路径 10891" d="M1.491,12.79a16.66,16.66,0,0,0-.377,12.95s5.56-.586,8.681-7.69S12.406,0,12.406,0,4.617,5.684,1.491,12.79Z" transform="translate(6.429 99.387)" fill="#91c8ff"/>
        <path id="路径_10892" data-name="路径 10892" d="M37.343,23.347c.2,5.11-2.622,7.392-2.622,7.392s-2.985-2.329-3.179-7.456,2.47-11.065,2.47-11.065S37.138,18.233,37.343,23.347ZM6.967.691A6.453,6.453,0,0,1,10.629,4.65a4.755,4.755,0,0,1-4.844.44C2.845,3.883,0,.236,0,.236S4.036-.528,6.967.691Z" transform="translate(0 2.291)" fill="#91c8ff"/>
      </g>
      <path id="路径_10890" data-name="路径 10890" d="M469.844,130.085l1.313,2.66,2.937.427-2.126,2.071.5,2.923-2.626-1.38-2.624,1.38.5-2.923-2.124-2.071,2.935-.427,1.313-2.66Z" transform="translate(-325.583 -100.782)" fill="#95caff" opacity="0.3"/>
      <path id="路径_10898" data-name="路径 10898" d="M450.389,129.854l1.289,2.607,2.88.42-2.086,2.031.492,2.866-2.575-1.352-2.575,1.352.492-2.866-2.083-2.031,2.88-.42Z" transform="translate(-404.254 -60.829)" fill="#95caff" opacity="0.3"/>
      <text id="认证" transform="translate(95.224 131.556)" fill="#89bfff" font-size="24" font-family="AlibabaPuHuiTi-Bold, Alibaba PuHuiTi" font-weight="700"><tspan x="-23.616" y="0">认证</tspan></text>
    </g>
    <g id="组_20663" data-name="组 20663" transform="translate(938.16 278.835)">
      <path id="路径_10894" data-name="路径 10894" d="M265.706,338.135H250.66a2.191,2.191,0,0,1-2.179-2.179,2.219,2.219,0,0,1,2.179-2.179h15.046a2.191,2.191,0,0,1,2.179,2.179A2.164,2.164,0,0,1,265.706,338.135Zm-.8,11.484H252.331a2.179,2.179,0,1,1,0-4.359H264.9a2.191,2.191,0,0,1,2.179,2.179A2.114,2.114,0,0,1,264.9,349.618Z" transform="translate(-213.711 -321.46)" fill="#4d9dfc"/>
      <path id="路径_10895" data-name="路径 10895" d="M165.319,107.484H105.193a2.326,2.326,0,0,0-2.305,2.305V153.21a2.326,2.326,0,0,0,2.305,2.305h37.128a2,2,0,0,0,1.97-1.97V152.33c0-1.048-.88-.43-1.97-.43H106.462V110.639h57.589v23.884c0,1.048-.617,1.928.43,1.97H165.7a1.968,1.968,0,0,0,1.97-1.97V109.789a2.391,2.391,0,0,0-2.347-2.305Z" transform="translate(-102.888 -107.484)" fill="#4d9dfc"/>
      <path id="路径_10896" data-name="路径 10896" d="M385.742,334.224h-6.228V331.6h6.228a1.891,1.891,0,1,0,0-3.782H381.65l5.241-5.262a1.888,1.888,0,1,0-2.665-2.674l-6.7,6.73-6.7-6.728a1.888,1.888,0,0,0-2.665,2.674l5.241,5.26h-3.877a1.891,1.891,0,1,0,0,3.782h6.228v2.626h-6.228a1.891,1.891,0,1,0,0,3.782h6.228v6.566a1.884,1.884,0,1,0,3.768,0v-6.565h6.228a1.891,1.891,0,1,0,0-3.782Z" transform="translate(-358.491 -307.675)" fill="#4d9dfc"/>
      <path id="路径_10897" data-name="路径 10897" d="M13.8,0A13.808,13.808,0,1,0,27.617,13.814,13.808,13.808,0,0,0,13.8,0Z" transform="translate(43.21 29.939)" fill="#ffa741"/>
      <path id="路径_10901" data-name="路径 10901" d="M290.649,335.337l-5.219,7.6a.883.883,0,0,1-.794.34,1.03,1.03,0,0,1-.794-.34l-5.219-7.489a.9.9,0,0,1,1.475-1.021l4.652,6.467,4.425-6.581a.9.9,0,1,1,1.475,1.021Z" transform="translate(-227.617 -293.929)" fill="#fff"/>
    </g>
    <g id="椭圆_445" data-name="椭圆 445" transform="translate(936.345 255.207)" fill="#fff" stroke="#95caff" stroke-width="2" opacity="0.3">
      <circle cx="4.144" cy="4.144" r="4.144" stroke="none"/>
      <circle cx="4.144" cy="4.144" r="3.144" fill="none"/>
    </g>
    <g id="组_20666" data-name="组 20666" transform="translate(928.107 343.612)">
      <g id="椭圆_446" data-name="椭圆 446" transform="translate(38.939 -1)" fill="#fff" stroke="#95caff" stroke-width="1">
        <circle cx="3.763" cy="3.763" r="3.763" stroke="none"/>
        <circle cx="3.763" cy="3.763" r="3.263" fill="none"/>
      </g>
      <path id="路径_10900" data-name="路径 10900" d="M34.5,0H0" transform="translate(0 2.709)" fill="none" stroke="#95caff" stroke-width="1.5"/>
      <line id="直线_308" data-name="直线 308" x1="34.502" transform="translate(50.902 2.709)" fill="none" stroke="#95caff" stroke-width="1.5"/>
    </g>
  </g>
</svg>
