<svg xmlns="http://www.w3.org/2000/svg" width="80.673" height="80.673" viewBox="0 0 80.673 80.673">
  <g id="icon-main-print" transform="translate(2 2)">
    <g id="画板">
      <g id="编组-6">
        <g id="icon_rzrqyw1">
          <circle id="椭圆形" cx="40.337" cy="40.337" r="40.337" transform="translate(-2 -2)" fill="#edf7ff"/>
          <g id="组_3840" data-name="组 3840" transform="translate(18.415 18.812)">
            <path id="路径_4210" data-name="路径 4210" d="M232.7,605.12h21.841v10.922H232.7Z" transform="translate(-223.604 -581.457)" fill="#fff"/>
            <path id="路径_4211" data-name="路径 4211" d="M275.11,23.3h-18.2A.911.911,0,0,0,256,24.2V34.215h20.021V24.2A.911.911,0,0,0,275.11,23.3ZM256,60.608a.911.911,0,0,0,.911.908h18.2a.911.911,0,0,0,.911-.908V46.956H256Z" transform="translate(-245.989 -22.385)" fill="#d6e3ff"/>
            <path id="路径_4212" data-name="路径 4212" d="M38.223,10.922H30.94v-9.1A1.819,1.819,0,0,0,29.123,0h-18.2A1.819,1.819,0,0,0,9.1,1.819v9.1H1.819A1.819,1.819,0,0,0,0,12.738v16.38A1.822,1.822,0,0,0,1.819,30.94H9.1v7.28a1.819,1.819,0,0,0,1.819,1.819h18.2a1.819,1.819,0,0,0,1.822-1.819V30.938h7.28a1.819,1.819,0,0,0,1.819-1.819V12.741A1.819,1.819,0,0,0,38.223,10.922Zm-27.3-9.1h18.2v9.1h-18.2v-9.1Zm18.2,36.4h-18.2V25.482h18.2V38.221Zm9.1-9.1H30.94V25.482h.911a.911.911,0,0,0,0-1.819H8.191a.911.911,0,1,0,0,1.819H9.1v3.639H1.819V12.741h36.4Z" transform="translate(0 0)" fill="#1f5ade"/>
            <path id="路径_4213" data-name="路径 4213" d="M744.7,418.88h3.641v3.641H744.7Z" transform="translate(-715.583 -402.5)" fill="#ff9813"/>
          </g>
        </g>
      </g>
    </g>
  </g>
</svg>
