<svg xmlns="http://www.w3.org/2000/svg" width="22.289" height="22.289" viewBox="0 0 22.289 22.289">
  <g id="icon-more-info" transform="translate(-61.952 -61.952)">
    <path id="路径_12619" data-name="路径 12619" d="M423.2,278.815a.564.564,0,0,0,.789,0l5.539-5.5a.575.575,0,0,0,.165-.392.543.543,0,0,0-.165-.392l-5.539-5.5a.564.564,0,0,0-.789,0,.553.553,0,0,0,0,.783l5.144,5.1-5.144,5.1A.553.553,0,0,0,423.2,278.815Z" transform="translate(-352.163 -199.831)" fill="#3b6aff"/>
    <path id="路径_12620" data-name="路径 12620" d="M73.1,84.241A11.145,11.145,0,1,0,61.952,73.1,11.152,11.152,0,0,0,73.1,84.241Zm0-21.186A10.041,10.041,0,1,1,63.055,73.1,10.056,10.056,0,0,1,73.1,63.055Z" transform="translate(0 0)" fill="#3b6aff"/>
  </g>
</svg>
