<svg xmlns="http://www.w3.org/2000/svg" xmlns:xlink="http://www.w3.org/1999/xlink" width="86" height="86" viewBox="0 0 86 86">
  <defs>
    <filter id="矩形_7776" x="0" y="0" width="86" height="86" filterUnits="userSpaceOnUse">
      <feOffset input="SourceAlpha"/>
      <feGaussianBlur stdDeviation="5" result="blur"/>
      <feFlood flood-opacity="0.051"/>
      <feComposite operator="in" in2="blur"/>
      <feComposite in="SourceGraphic"/>
    </filter>
  </defs>
  <g id="icon-area-del-normal" transform="translate(10 10)">
    <g transform="matrix(1, 0, 0, 1, -10, -10)" filter="url(#矩形_7776)">
      <rect id="矩形_7776-2" data-name="矩形 7776" width="56" height="56" rx="28" transform="translate(15 15)" fill="#fff"/>
    </g>
    <path id="路径_10993" data-name="路径 10993" d="M78.125,82.286a.83.83,0,0,1-.832-.831V72.3a.831.831,0,1,1,1.663,0v9.146A.834.834,0,0,1,78.125,82.286Zm-4.989,0a.83.83,0,0,1-.831-.831V72.3a.831.831,0,1,1,1.663,0v9.146A.834.834,0,0,1,73.136,82.286Zm13.308-14.14H82.286V66.484a2.486,2.486,0,0,0-2.477-2.494H71.473a2.5,2.5,0,0,0-2.494,2.494v1.663H64.821a.831.831,0,1,0,0,1.663H86.444a.831.831,0,1,0,0-1.663Zm-15.8-1.663a.836.836,0,0,1,.832-.832H79.81a.815.815,0,0,1,.814.832v1.663H70.641V66.484ZM81.455,87.275H69.814a2.5,2.5,0,0,1-2.494-2.494V72.3a.831.831,0,0,1,1.663,0V84.781a.833.833,0,0,0,.832.832H81.459a.83.83,0,0,0,.831-.832V72.326a.831.831,0,1,1,1.663,0V84.781A2.505,2.505,0,0,1,81.455,87.275Z" transform="translate(-42.633 -42.633)" fill="#666"/>
    <g id="矩形_12521" data-name="矩形 12521" fill="none" stroke="rgba(112,112,112,0)" stroke-width="1">
      <rect width="66" height="66" stroke="none"/>
      <rect x="0.5" y="0.5" width="65" height="65" fill="none"/>
    </g>
  </g>
</svg>
