<svg xmlns="http://www.w3.org/2000/svg" width="80.673" height="80.673" viewBox="0 0 80.673 80.673">
  <g id="icon-main-record" transform="translate(2 2)">
    <g id="画板">
      <g id="编组-6">
        <g id="icon_rzrqyw1">
          <circle id="椭圆形" cx="40.337" cy="40.337" r="40.337" transform="translate(-2 -2)" fill="#edf7ff"/>
          <g id="组_3845" data-name="组 3845" transform="translate(22.325 18.812)">
            <path id="路径_4214" data-name="路径 4214" d="M344.381,280.936a7.427,7.427,0,1,0,7.427,7.427A7.442,7.442,0,0,0,344.381,280.936Z" transform="translate(-328.236 -270.926)" fill="#1f5ade"/>
            <path id="路径_4215" data-name="路径 4215" d="M388.349,324.03a5.812,5.812,0,1,1-5.812-5.812A5.857,5.857,0,0,1,388.349,324.03Z" transform="translate(-366.283 -306.593)" fill="#d6e3ff"/>
            <path id="路径_4216" data-name="路径 4216" d="M478.377,163.615a2.235,2.235,0,1,0-2.235-2.235A2.276,2.276,0,0,0,478.377,163.615Z" transform="translate(-462.232 -155.245)" fill="#ff9813"/>
            <path id="路径_4217" data-name="路径 4217" d="M163.723,88.746c0-1.076-1.076-.861-1.076-.861H159.2l-2.153-6.458a16.169,16.169,0,0,0,8.826-7.1,15.992,15.992,0,0,0,2.26-8.288,16.342,16.342,0,0,0-1.292-6.35,18.848,18.848,0,0,0-3.444-5.166,15.006,15.006,0,0,0-5.167-3.444,15.441,15.441,0,0,0-6.243-1.292,16.476,16.476,0,0,0-6.458,1.292,18.849,18.849,0,0,0-5.166,3.444,15.007,15.007,0,0,0-3.444,5.166,16.258,16.258,0,0,0,0,12.7,16.706,16.706,0,0,0,3.444,5.167A15.007,15.007,0,0,0,145.533,81c.431.215.861.323,1.292.538l-2.153,6.35H141.12s-1.076-.215-1.076.861a1.054,1.054,0,0,0,1.076,1.076h21.527A1.054,1.054,0,0,0,163.723,88.746Zm-14.854-6.888a16.224,16.224,0,0,0,6.028-.108l2.045,6.135H146.717Zm17.222-15.822a13.929,13.929,0,0,1-1.938,7.212,14.841,14.841,0,0,1-5.166,5.167,13.828,13.828,0,0,1-7.1,1.937,14.309,14.309,0,0,1-10.225-24.433,14.159,14.159,0,0,1,10.118-4.2,14.332,14.332,0,0,1,14.316,14.315Zm0,0" transform="translate(-135.63 -49.782)" fill="#1f5ade"/>
          </g>
        </g>
      </g>
    </g>
  </g>
</svg>
