<svg xmlns="http://www.w3.org/2000/svg" xmlns:xlink="http://www.w3.org/1999/xlink" width="50.639" height="39.656" viewBox="0 0 50.639 39.656">
  <defs>
    <clipPath id="clip-path">
      <path id="路径_4561" data-name="路径 4561" d="M32.766.2H17.241a1,1,0,0,1-.918-1.057,1,1,0,0,1,.918-1.057H32.766a1,1,0,0,1,.918,1.057A1,1,0,0,1,32.766.2Z" transform="translate(-16.324 1.913)" fill="#fff"/>
    </clipPath>
    <clipPath id="clip-path-2">
      <path id="路径_4560" data-name="路径 4560" d="M-1762,384H158V-696H-1762Z" transform="translate(1762 696)" fill="none"/>
    </clipPath>
  </defs>
  <g id="icon-search-bar-record" transform="translate(-8.272 -14.582)">
    <g id="组_3853" data-name="组 3853" transform="translate(21.322 14.582)">
      <path id="路径_4226" data-name="路径 4226" d="M306.136,66.268c-4.125,0-7.469-3.644-7.469-8.138V46.959c0-4.495,3.344-8.138,7.469-8.138s7.469,3.644,7.469,8.138V58.13c0,4.495-3.344,8.138-7.469,8.138Zm0-25.055c-3.362,0-5,3.049-5,5.746V58.13c0,2.7,1.517,5.513,5,5.513s4.954-2.816,4.954-5.513V46.959C311.09,44.262,309.5,41.213,306.136,41.213Z" transform="translate(-293.784 -38.82)" fill="#fff"/>
      <path id="路径_4227" data-name="路径 4227" d="M450.441,386.441m-2.441,0A2.442,2.442,0,1,0,450.441,384,2.441,2.441,0,0,0,448,386.441Z" transform="translate(-438.089 -367.132)" fill="#ff9813"/>
      <path id="路径_4228" data-name="路径 4228" d="M183.019,400.277c-6.822,0-12.352-5.83-12.352-13.022v-1.628A1.588,1.588,0,0,1,172.211,384c.853,0,1.046.729,1.046,1.628v1.628c0,5.394,4.646,10.409,9.762,10.409s9.791-5.015,9.791-10.409v-1.628c0-.9.164-1.628,1.017-1.628a1.588,1.588,0,0,1,1.544,1.628v1.628C195.371,394.447,189.841,400.277,183.019,400.277Z" transform="translate(-170.667 -367.132)" fill="#fff"/>
      <path id="路径_4229" data-name="路径 4229" d="M470.7,734.132a1.42,1.42,0,0,1-1.368-1.467V726.8a1.371,1.371,0,1,1,2.736,0v5.866A1.42,1.42,0,0,1,470.7,734.132Z" transform="translate(-458.349 -694.477)" fill="#fff"/>
      <g id="组_3968" data-name="组 3968" transform="translate(3.953 37.496)">
        <g id="组_3967" data-name="组 3967" clip-path="url(#clip-path)">
          <g id="组_3966" data-name="组 3966" transform="translate(-1791.324 -681.087)" clip-path="url(#clip-path-2)">
            <path id="路径_4559" data-name="路径 4559" d="M-4.952-47.993H54.959V4.978H-4.952Z" transform="translate(1762 696)" fill="#fff"/>
          </g>
        </g>
      </g>
    </g>
    <path id="路径_4558" data-name="路径 4558" d="M.979-18.429a.879.879,0,0,1-.931-.816V-25.8a.879.879,0,0,1,.931-.816.879.879,0,0,1,.931.816v6.553A.879.879,0,0,1,.979-18.429ZM5.2-14.714a.879.879,0,0,1-.931-.816V-29.512a.879.879,0,0,1,.931-.816.879.879,0,0,1,.931.816V-15.53a.879.879,0,0,1-.931.816Zm4.194-2.713a.879.879,0,0,1-.931-.816V-26.82a.879.879,0,0,1,.931-.816.879.879,0,0,1,.931.816v8.577A.879.879,0,0,1,9.393-17.427Zm31.949-1a.879.879,0,0,1-.931-.816V-25.8a.879.879,0,0,1,.931-.816.879.879,0,0,1,.931.816v6.553A.879.879,0,0,1,41.342-18.429Zm4.22,3.715a.879.879,0,0,1-.931-.816V-29.512a.879.879,0,0,1,.931-.816.879.879,0,0,1,.931.816V-15.53a.879.879,0,0,1-.931.816Zm4.194-2.713a.879.879,0,0,1-.931-.816V-26.82a.879.879,0,0,1,.931-.816.879.879,0,0,1,.931.816v8.577A.879.879,0,0,1,49.756-17.427Z" transform="translate(8.224 57.238)" fill="#708ff5"/>
  </g>
</svg>
