<svg id="icon-Appropriateness" xmlns="http://www.w3.org/2000/svg" width="128" height="128" viewBox="0 0 128 128">
  <g id="椭圆_357" data-name="椭圆 357" fill="#6cb0ff" stroke="#fff" stroke-width="10">
    <circle cx="64" cy="64" r="64" stroke="none"/>
    <circle cx="64" cy="64" r="59" fill="none"/>
  </g>
  <path id="路径_4891" data-name="路径 4891" d="M213.661,117.106a9.556,9.556,0,1,1-6.831,16.236l-2.307,2.376a14.122,14.122,0,0,1,.273,19.613l3.92,3.605a10.586,10.586,0,1,1-1.34,1.313l-3.962-3.636a14.121,14.121,0,0,1-18.566-.653l-1.966,2.027a13.131,13.131,0,1,1-1.169-1.488l1.86-1.913a14.12,14.12,0,0,1-.732-16.873l-4.311-3.97a7.817,7.817,0,1,1,1.154-1.48l4.319,3.97a14.113,14.113,0,0,1,19.116-1.761l2.528-2.6a9.559,9.559,0,0,1,8.015-14.763ZM187.383,153.2h14.687a8.923,8.923,0,0,0-.03-3.074,18.089,18.089,0,0,0-3.962-4.949,16.9,16.9,0,0,0-2.345-.076,5.058,5.058,0,0,0,2.683-4.448,3.822,3.822,0,1,0-7.636,0,5.04,5.04,0,0,0,2.751,4.478c-1.23.023-2.216.046-2.216.046s-3.742,2.725-3.932,5.169A8.138,8.138,0,0,0,187.383,153.2Z" transform="translate(-128.309 -85.224)" fill="#fff"/>
</svg>
