<svg xmlns="http://www.w3.org/2000/svg" width="88.981" height="52" viewBox="0 0 88.981 52">
  <g id="icon-loding-rocket" transform="translate(-656.319 -894.95)">
    <g id="组_29830" data-name="组 29830" transform="translate(656.023 908.299)">
      <path id="多边形_16" data-name="多边形 16" d="M12.177,4.036a2,2,0,0,1,3.645,0l10.9,24.141A2,2,0,0,1,24.9,31H3.1a2,2,0,0,1-1.823-2.823Z" transform="translate(0.296 27.651) rotate(-90)" fill="#fec"/>
      <path id="多边形_18" data-name="多边形 18" d="M11.259,3.08a2,2,0,0,1,3.482,0l9.572,16.935A2,2,0,0,1,22.572,23H3.428a2,2,0,0,1-1.741-2.984Z" transform="translate(8.296 26.651) rotate(-90)" fill="#ffc260"/>
      <path id="多边形_17" data-name="多边形 17" d="M11.534,1.578a2,2,0,0,1,2.931,0l8.414,9.061A2,2,0,0,1,21.414,14H4.586a2,2,0,0,1-1.466-3.361Z" transform="translate(18.296 26.651) rotate(-90)" fill="#ff813e"/>
    </g>
    <g id="组_29833" data-name="组 29833" transform="translate(687.328 894.594)">
      <g id="组_29832" data-name="组 29832" transform="translate(0 0)">
        <path id="多边形_19" data-name="多边形 19" d="M23.3,5.614a3,3,0,0,1,5.406,0L49.929,49.7a3,3,0,0,1-2.7,4.3H4.774a3,3,0,0,1-2.7-4.3Z" transform="translate(55.991 0.356) rotate(90)" fill="#5d70ff"/>
        <path id="路径_12796" data-name="路径 12796" d="M8274.6-23348.83a11.083,11.083,0,0,0,1.332.525c39.538,15.346,54.127-12.887,54.127-12.887s-19.72-31.479-54.506-12.621a4.339,4.339,0,0,0-.953.531c-.668.457-2.514,5.744-2.514,11.857S8273.563-23349.3,8274.6-23348.83Z" transform="translate(-8272.082 23388.219)" fill="#95a6ff"/>
        <path id="路径_12797" data-name="路径 12797" d="M8274.407-23348.83a9.966,9.966,0,0,0,1.233.525c36.592,15.346,50.093-12.887,50.093-12.887s-18.25-31.479-50.442-12.621a3.946,3.946,0,0,0-.884.531c-.617.457-2.325,5.744-2.325,11.857S8273.453-23349.3,8274.407-23348.83Z" transform="translate(-8267.761 23388.219)" fill="#6e84ff"/>
        <path id="路径_12799" data-name="路径 12799" d="M8267.332-23358.076a6.7,6.7,0,0,0,.864.365c35,8.533,44.662-12.7,44.662-12.7s-22.8,10.32-47.919,3.607C8263.076-23362.445,8266.66-23358.406,8267.332-23358.076Z" transform="translate(-8256.251 23398.055)" fill="#899aff"/>
      </g>
      <g id="组_29831" data-name="组 29831" transform="translate(28.786 17.921)">
        <path id="矩形_12151" data-name="矩形 12151" d="M0,0H7a4,4,0,0,1,4,4v9a4,4,0,0,1-4,4H0a0,0,0,0,1,0,0V0A0,0,0,0,1,0,0Z" transform="translate(0.206 0.434)" fill="#4766fd"/>
        <path id="矩形_12152" data-name="矩形 12152" d="M0,0H3A4,4,0,0,1,7,4V9a4,4,0,0,1-4,4H0a0,0,0,0,1,0,0V0A0,0,0,0,1,0,0Z" transform="translate(2.206 2.434)" fill="#fff"/>
        <path id="矩形_12153" data-name="矩形 12153" d="M0,0H1A4,4,0,0,1,5,4V5A4,4,0,0,1,1,9H0A0,0,0,0,1,0,9V0A0,0,0,0,1,0,0Z" transform="translate(3.206 4.434)" fill="#c0cbfc"/>
      </g>
    </g>
  </g>
</svg>
