<svg id="icon-go-index" xmlns="http://www.w3.org/2000/svg" width="37.746" height="36.028" viewBox="0 0 37.746 36.028">
  <path id="路径_4553" data-name="路径 4553" d="M418.95,617.874a1.12,1.12,0,0,1-1.119-1.122V606.036a.189.189,0,0,0-.2-.18h-4.1a.189.189,0,0,0-.2.18v10.715a1.118,1.118,0,0,1-2.237,0V606.036a2.432,2.432,0,0,1,2.434-2.424h4.1a2.432,2.432,0,0,1,2.435,2.424v10.715A1.12,1.12,0,0,1,418.95,617.874Z" transform="translate(-396.586 -581.846)" fill="#84a3ff"/>
  <path id="路径_4554" data-name="路径 4554" d="M96.723,123.067l-7.911-.019a1.125,1.125,0,1,1,0-2.249h0l7.908.019a.179.179,0,0,0,.176-.18V107.9a1.773,1.773,0,0,1,1.766-1.777h3.3a.181.181,0,0,0,.14-.292L85.65,89.345a.178.178,0,0,0-.261,0l-.028.03L68.925,105.827a.181.181,0,0,0,.14.292h2.77A1.773,1.773,0,0,1,73.6,107.9v12.743a.18.18,0,0,0,.179.18h8.307a1.124,1.124,0,1,1,0,2.249H73.779a2.424,2.424,0,0,1-2.414-2.429v-12.27h-2.3a2.382,2.382,0,0,1-2.214-1.461,2.409,2.409,0,0,1,.45-2.626l.029-.03L83.77,87.792a2.4,2.4,0,0,1,3.495,0l16.47,16.489a2.409,2.409,0,0,1,.45,2.626,2.382,2.382,0,0,1-2.214,1.461H99.137v12.27A2.424,2.424,0,0,1,96.723,123.067Z" transform="translate(-66.645 -87.039)" fill="#84a3ff"/>
</svg>
