<svg xmlns="http://www.w3.org/2000/svg" width="80.673" height="80.673" viewBox="0 0 80.673 80.673">
  <g id="icon-main-reset-psw" transform="translate(2 2)">
    <g id="画板">
      <g id="编组-6">
        <g id="icon_rzrqyw1">
          <circle id="椭圆形" cx="40.337" cy="40.337" r="40.337" transform="translate(-2 -2)" fill="#edf7ff"/>
          <g id="组_3847" data-name="组 3847" transform="translate(19.673 18.174)">
            <path id="路径_4218" data-name="路径 4218" d="M325.505,466.608H316.33a3.436,3.436,0,0,1-3.441-3.441v-5.184a3.436,3.436,0,0,1,3.441-3.441h9.176a3.436,3.436,0,0,1,3.441,3.441v5.161a3.441,3.441,0,0,1-3.441,3.464Zm-9.176-9.772a1.15,1.15,0,0,0-1.147,1.147v5.161a1.15,1.15,0,0,0,1.147,1.147h9.176a1.15,1.15,0,0,0,1.147-1.147v-5.161a1.15,1.15,0,0,0-1.147-1.147Z" transform="translate(-301.787 -436.214)" fill="#1f5ade"/>
            <path id="路径_4219" data-name="路径 4219" d="M390.561,307.245a1.136,1.136,0,0,1-1.147-1.147v-2.087a3.058,3.058,0,0,0-.895-2.156,2.9,2.9,0,0,0-2.087-.895,3.006,3.006,0,0,0-2.982,3.051V306.1a1.147,1.147,0,0,1-2.294,0v-2.087a5.321,5.321,0,0,1,5.276-5.345,5.261,5.261,0,0,1,3.739,1.56,5.331,5.331,0,0,1,1.537,3.762v2.087A1.141,1.141,0,0,1,390.561,307.245Z" transform="translate(-367.301 -286.623)" fill="#1f5ade"/>
            <path id="路径_4220" data-name="路径 4220" d="M165.631,112.809a1.077,1.077,0,0,1-1.078-1.078,1.1,1.1,0,0,1,1.078-1.1,16.975,16.975,0,1,0-12.662-28.284,1.08,1.08,0,1,1-1.606-1.445,19.14,19.14,0,1,1,14.268,31.908Z" transform="translate(-146.5 -71.519)" fill="#1f5ade"/>
            <path id="路径_4221" data-name="路径 4221" d="M56.678,41.29A19.149,19.149,0,0,1,37.547,22.159a1.077,1.077,0,0,1,1.078-1.078A1.063,1.063,0,0,1,39.7,22.159,17,17,0,0,0,56.678,39.134a1.078,1.078,0,1,1,0,2.156Zm-4.519-30.1H43.144a1.078,1.078,0,0,1-1.078-1.078V1.078A1.063,1.063,0,0,1,43.144,0a1.077,1.077,0,0,1,1.078,1.078V9.015h7.937a1.09,1.09,0,0,1,0,2.179Z" transform="translate(-37.547 0)" fill="#1f5ade"/>
            <path id="路径_4245" data-name="路径 4245" d="M386.432,313.53a1.136,1.136,0,0,1-1.147-1.147v-2.8a1.147,1.147,0,1,1,2.294,0v2.8A1.15,1.15,0,0,1,386.432,313.53Z" transform="translate(-367.301 -286.623)" fill="#ff9813"/>
          </g>
        </g>
      </g>
    </g>
  </g>
</svg>
