<svg id="icon-personal" xmlns="http://www.w3.org/2000/svg" xmlns:xlink="http://www.w3.org/1999/xlink" width="113" height="113" viewBox="0 0 113 113">
  <defs>
    <linearGradient id="linear-gradient" x1="0.5" x2="0.5" y2="1" gradientUnits="objectBoundingBox">
      <stop offset="0" stop-color="#71c3ff"/>
      <stop offset="1" stop-color="#5696ff"/>
    </linearGradient>
  </defs>
  <circle id="椭圆_100" data-name="椭圆 100" cx="56.5" cy="56.5" r="56.5" fill="url(#linear-gradient)"/>
  <g id="组_3999" data-name="组 3999" transform="translate(32.015 32.235)">
    <path id="路径_4827" data-name="路径 4827" d="M347.346,130.487a12.416,12.416,0,1,1,12.415-12.415A12.452,12.452,0,0,1,347.346,130.487Zm0-21.727a9.273,9.273,0,1,0,6.6,2.716A9.273,9.273,0,0,0,347.346,108.76Zm0,0" transform="translate(-322.514 -105.656)" fill="#fff"/>
    <path id="路径_4828" data-name="路径 4828" d="M176.973,509.244H149.037c-3.931,0-7.243-1.448-9.208-4.034a9.139,9.139,0,0,1-1.242-8.071,1.571,1.571,0,0,1,3,.932,5.792,5.792,0,0,0,.724,5.277c1.345,1.759,3.725,2.793,6.725,2.793h27.935c2.9,0,5.38-1.035,6.621-2.793a5.672,5.672,0,0,0,.724-5.173l-.517-1.759c-1.448-5.07-5.69-8.9-8.381-8.9-.62,0-1.448.931-2.379,1.966-1.966,2.173-4.656,5.277-10.14,5.277-5.174,0-7.45-2.794-9.1-4.863-1.242-1.552-2.069-2.379-3.414-2.379-3.208,0-5.277,2.379-6.415,4.346a1.58,1.58,0,0,1-2.69-1.656c2.276-3.828,5.38-5.794,9.105-5.794,2.9,0,4.449,1.863,5.794,3.518,1.552,1.863,3,3.725,6.725,3.725,4.139,0,6.1-2.277,7.76-4.242,1.345-1.448,2.69-3,4.759-3,4.346,0,9.52,5.07,11.278,11.174l.621,1.655a8.973,8.973,0,0,1-1.242,7.967C184.215,507.8,180.9,509.244,176.973,509.244Zm0,0" transform="translate(-138.174 -460.513)" fill="#fff"/>
  </g>
</svg>
