<svg xmlns="http://www.w3.org/2000/svg" width="49.995" height="49.995" viewBox="0 0 49.995 49.995">
  <g id="icon-btn-preview" transform="translate(49.995) rotate(90)">
    <path id="路径_4248" data-name="路径 4248" d="M25,25,0,25A25,25,0,1,1,25,50,25,25,0,0,1,0,25Z" transform="translate(0 0)" fill="rgba(0,0,0,0.23)"/>
    <path id="联合_1" data-name="联合 1" d="M18.483.377,10.267,10.389,1.851.377A1,1,0,0,0,1.083,0,1.007,1.007,0,0,0,.316.382a1.477,1.477,0,0,0,0,1.831L9.258,12.849a1.323,1.323,0,0,0,.2.349.973.973,0,0,0,.749.382l.057,0,.058,0a1.008,1.008,0,0,0,.768-.382,1.339,1.339,0,0,0,.245-.455l8.64-10.53a1.506,1.506,0,0,0,0-1.831A.975.975,0,0,0,19.234,0h0A.975.975,0,0,0,18.483.377Z" transform="translate(14.654 19.875)" fill="#fff"/>
  </g>
</svg>
