<svg id="icon-mechanism" xmlns="http://www.w3.org/2000/svg" xmlns:xlink="http://www.w3.org/1999/xlink" width="112" height="113" viewBox="0 0 112 113">
  <defs>
    <linearGradient id="linear-gradient" x1="0.5" x2="0.5" y2="1" gradientUnits="objectBoundingBox">
      <stop offset="0" stop-color="#ffb879"/>
      <stop offset="1" stop-color="#ff7449"/>
    </linearGradient>
  </defs>
  <ellipse id="椭圆_100" data-name="椭圆 100" cx="56" cy="56.5" rx="56" ry="56.5" fill="url(#linear-gradient)"/>
  <g id="组_4000" data-name="组 4000" transform="translate(27.599 27.028)">
    <path id="路径_4829" data-name="路径 4829" d="M131.944,119.557H129.55V93.773a12.229,12.229,0,0,0-9.872-11.787L112.5,80.55V74.214a5.378,5.378,0,0,0-1.989-4.125A5.783,5.783,0,0,0,105.5,68.91L93.232,71.452a12.892,12.892,0,0,0-10.35,12.339v35.766H79.2a1.575,1.575,0,0,0-1.736,1.58,1.726,1.726,0,0,0,1.736,1.809h52.747a1.907,1.907,0,0,0,1.947-1.809C133.872,120.128,132.953,119.577,131.944,119.557Zm-46.058,0V83.791C86,79.453,88.9,75.134,93.178,74.4l13.746-2.542a2.247,2.247,0,0,1,1.768.405,1.658,1.658,0,0,1,.663,1.289L109.408,83l.206,36.558Zm26.462,0V83.049l6.446,1.289c4.009.685,7.52,4.112,7.62,8.177v27.041Z" transform="translate(-77.462 -68.758)" fill="#fff"/>
    <path id="路径_4830" data-name="路径 4830" d="M309.328,323.7h-8.251a1.842,1.842,0,0,0,0,3.683h8.251a1.842,1.842,0,1,0,0-3.683Zm0,11.05h-8.251a1.842,1.842,0,0,0,0,3.683h8.251a1.842,1.842,0,1,0,0-3.683Zm0,11.05h-8.251a1.842,1.842,0,0,0,0,3.683h8.251a1.842,1.842,0,1,0,0-3.683Zm17.57-11.05h-3.683a1.842,1.842,0,0,0-1.842,1.842,1.879,1.879,0,0,0,1.842,1.842H326.9a1.879,1.879,0,0,0,1.842-1.842A1.842,1.842,0,0,0,326.9,334.748Zm0,11.05h-3.683a1.842,1.842,0,0,0-1.842,1.842,1.878,1.878,0,0,0,1.842,1.842H326.9a1.878,1.878,0,0,0,1.842-1.842A1.842,1.842,0,0,0,326.9,345.8Z" transform="translate(-284.976 -307.191)" fill="#fff"/>
  </g>
</svg>
