<svg id="icon-to-menulist" xmlns="http://www.w3.org/2000/svg" width="22.666" height="21.88" viewBox="0 0 22.666 21.88">
  <path id="路径_13141" data-name="路径 13141" d="M7.983,1.688A.421.421,0,0,1,8.4,2.11V8.019a.421.421,0,0,1-.419.421H2.111a.422.422,0,0,1-.419-.421V2.111a.421.421,0,0,1,.419-.422H7.983M7.983,0H2.111a2.1,2.1,0,0,0-2.1,2.11V8.019a2.1,2.1,0,0,0,2.1,2.11H7.983a2.1,2.1,0,0,0,2.1-2.11V2.111A2.1,2.1,0,0,0,7.983,0ZM7.97,13.44a.422.422,0,0,1,.42.421v5.908a.421.421,0,0,1-.419.422H2.1a.422.422,0,0,1-.42-.422V13.862a.421.421,0,0,1,.42-.422H7.971m0-1.688H2.1A2.1,2.1,0,0,0,0,13.862V19.77a2.1,2.1,0,0,0,2.1,2.11H7.97a2.1,2.1,0,0,0,2.1-2.11V13.862a2.1,2.1,0,0,0-2.1-2.11h0ZM21.74,2H13.167a.844.844,0,1,0,0,1.688H21.74A.844.844,0,0,0,21.74,2Zm.082,10.762H13.249a.844.844,0,1,0,0,1.688h8.573a.844.844,0,0,0,0-1.688Zm0,5.38H13.246a.844.844,0,1,0,0,1.688h8.572a.844.844,0,0,0,0-1.688ZM21.772,7.38H13.2a.844.844,0,1,0,0,1.688h8.573a.844.844,0,1,0,0-1.688Z" fill="#666"/>
  <path id="路径_13142" data-name="路径 13142" d="M7.983,1.688A.421.421,0,0,1,8.4,2.11V8.019a.421.421,0,0,1-.419.421H2.111a.422.422,0,0,1-.419-.421V2.111a.421.421,0,0,1,.419-.422H7.983M7.983,0H2.111a2.1,2.1,0,0,0-2.1,2.11V8.019a2.1,2.1,0,0,0,2.1,2.11H7.983a2.1,2.1,0,0,0,2.1-2.11V2.111A2.1,2.1,0,0,0,7.983,0ZM7.97,13.44a.422.422,0,0,1,.42.421v5.908a.421.421,0,0,1-.419.422H2.1a.422.422,0,0,1-.42-.422V13.862a.421.421,0,0,1,.42-.422H7.971m0-1.688H2.1A2.1,2.1,0,0,0,0,13.862V19.77a2.1,2.1,0,0,0,2.1,2.11H7.97a2.1,2.1,0,0,0,2.1-2.11V13.862a2.1,2.1,0,0,0-2.1-2.11h0ZM21.74,2H13.167a.844.844,0,1,0,0,1.688H21.74A.844.844,0,0,0,21.74,2Zm.082,10.762H13.249a.844.844,0,1,0,0,1.688h8.573a.844.844,0,0,0,0-1.688Zm0,5.38H13.246a.844.844,0,1,0,0,1.688h8.572a.844.844,0,0,0,0-1.688ZM21.772,7.38H13.2a.844.844,0,1,0,0,1.688h8.573a.844.844,0,1,0,0-1.688Z" fill="#666"/>
</svg>
