<svg id="icon-select-no" xmlns="http://www.w3.org/2000/svg" width="97.89" height="97.89" viewBox="0 0 97.89 97.89">
  <circle id="椭圆_100" data-name="椭圆 100" cx="48.945" cy="48.945" r="48.945" fill="#fff"/>
  <g id="组_4032" data-name="组 4032" transform="translate(28.957 28.012)">
    <path id="路径_4893" data-name="路径 4893" d="M340.557,327.471l13.859,14.313a3.218,3.218,0,0,1,0,4.447l-1.077,1.112a2.977,2.977,0,0,1-4.307,0l-13.895-14.351-14.055,14.316a3.034,3.034,0,0,1-4.345,0l-1.086-1.106a3.171,3.171,0,0,1,0-4.425l14.088-14.356L316.2,313.428a3.218,3.218,0,0,1,0-4.447l1.077-1.112a2.977,2.977,0,0,1,4.307,0L335.163,321.9l13.62-13.873a3.034,3.034,0,0,1,4.345,0l1.087,1.106a3.171,3.171,0,0,1,0,4.425Z" transform="translate(-314.752 -306.948)" fill="#f44b3d"/>
  </g>
</svg>
