<svg xmlns="http://www.w3.org/2000/svg" width="219.508" height="139.012" viewBox="0 0 219.508 139.012">
  <g id="icon-agreement-cancel" transform="translate(-1018.432 -209.911)">
    <g id="组_20671" data-name="组 20671" transform="translate(-12793.938 -1136)">
      <path id="路径_10906" data-name="路径 10906" d="M760.794,522.449a25,25,0,1,1,25.042-24.924A24.968,24.968,0,0,1,760.794,522.449Zm-21.363-25.062c-.025,11,10.335,21.433,21.309,21.465a21.245,21.245,0,0,0,21.514-21.327c.033-12.106-10.328-21.465-21.391-21.493-10.965-.025-21.408,10.38-21.433,21.354Z" transform="translate(13168.027 924.838)" fill="#4ba2fa"/>
      <path id="路径_10910" data-name="路径 10910" d="M100.34,129.38H191.51a1.394,1.394,0,1,1,0,2.788H100.34a1.394,1.394,0,0,1,0-2.788Zm-29.9,8.364h41.2a1.394,1.394,0,1,1,0,2.788h-41.2a1.394,1.394,0,1,1,0-2.788Zm56.233,0H229.264a1.394,1.394,0,1,1,0,2.788H126.676a1.394,1.394,0,1,1,0-2.788Zm-69.486,0h6.053a1.394,1.394,0,1,1,0,2.788H57.189a1.394,1.394,0,1,1,0-2.788Zm139.244-8.364h4.112a1.394,1.394,0,0,1,0,2.788h-4.112a1.394,1.394,0,1,1,0-2.788Zm41.284,8.364h7.4a1.394,1.394,0,0,1,0,2.788h-7.4a1.394,1.394,0,1,1,0-2.788Zm-45.555,13.383h15.051a1.394,1.394,0,0,1,0,2.787H192.163a1.394,1.394,0,0,1,0-2.787Zm-6.406,0h2.172a1.394,1.394,0,0,1,0,2.787h-2.172a1.394,1.394,0,1,1,0-2.787Zm-54.809,0h23.779a1.394,1.394,0,1,1,0,2.787h-23.78a1.394,1.394,0,1,1,0-2.787Zm35.707,0h15.052a1.394,1.394,0,0,1,0,2.787H166.656a1.394,1.394,0,0,1,0-2.787ZM91.086,129.38H95.2a1.394,1.394,0,1,1,0,2.788H91.086a1.394,1.394,0,0,1,0-2.788Zm27.048,8.364H121.4a1.394,1.394,0,1,1,0,2.788h-3.263a1.394,1.394,0,1,1,0-2.788Z" transform="translate(13756.575 1331.01)" fill="#ddd"/>
      <path id="路径_10911" data-name="路径 10911" d="M561.094,337.9c0-12.226-.012-16.815-.012-29.041,0-10.6,5.883-11.29,11.54-11.29h46.157c8.89,0,11.639,3.025,11.639,11.54v14.457c0,4.55-4.919,4.028-4.919,0V308.244c0-4.274-2.259-5.771-6.72-5.771H571.75c-4.777,0-5.769.649-5.769,5.771v59.433c0,3.161,1.731,5.769,5.769,5.769,7,0,14.1,0,21.1,0,3.527,0,3.785,4.9,0,4.9s-15.341.046-22.4.019a9.088,9.088,0,0,1-8.841-6.3,11.24,11.24,0,0,1-.49-3.378c-.033-12.184-.022-18.6-.022-30.783Zm51.915-22.192c4.6,0,3.968,4.978,0,4.978H578.391c-4.327,0-4.147-4.978,0-4.978C589.75,315.708,608.592,315.708,613.008,315.711ZM594.4,333.02c4.6,0,3.967,4.978,0,4.978H578.391c-4.327,0-4.147-4.978,0-4.978,11.359,0,11.591,0,16.008,0Z" transform="translate(13308.113 1064.043)" fill="#4ba2fa"/>
      <path id="路径_10912" data-name="路径 10912" d="M86.575,46.638A9.339,9.339,0,1,1,95.914,37.3,9.339,9.339,0,0,1,86.575,46.638Zm.033-4.269a5.037,5.037,0,1,0-5.037-5.037,5.037,5.037,0,0,0,5.037,5.037ZM284.06,53.8a.292.292,0,1,1-.413.413l-2.894-2.894-2.9,2.894a.292.292,0,1,1-.413-.413l2.894-2.894-2.894-2.9a.292.292,0,0,1,.413-.413l2.9,2.894,2.894-2.894a.292.292,0,0,1,.413.413l-2.894,2.9ZM290.31,90.6a5.568,5.568,0,1,1,5.568-5.568A5.568,5.568,0,0,1,290.31,90.6Zm.159-2.137a3.475,3.475,0,1,0-3.475-3.475A3.475,3.475,0,0,0,290.469,88.461ZM227.8,66.535c-.744-.743-1.485-1.488-2.232-2.228-.082-.081-.077-.124,0-.2.182-.173.354-.355.535-.537l.092.087,2.255,2.252c.075.075.068.116,0,.183-.179.173-.353.355-.537.546-.049-.045-.082-.072-.113-.1Zm5.619,4.293,2.338,2.342a.225.225,0,0,1,.025.042c-.2.194-.392.39-.592.578-.016.014-.087-.006-.113-.032-.329-.322-.654-.65-.981-.975l-1.274-1.276-.088-.092a.6.6,0,0,1,.043-.064c.173-.173.345-.344.516-.517C233.333,70.79,233.366,70.775,233.416,70.827Zm-.178-4.323c-.15-.162-.311-.316-.468-.471-.043-.043-.059-.077-.009-.127l2.3-2.3a.447.447,0,0,1,.051-.035c.2.2.386.386.572.579.014.014.009.058,0,.082s-.029.033-.043.048q-1.114,1.114-2.225,2.226c-.072.074-.114.072-.183,0Zm-5.274,4.346c.152.162.311.315.47.47.043.043.058.077.007.129l-2.3,2.3a.565.565,0,0,1-.051.036c-.2-.2-.387-.386-.574-.579-.014-.014-.009-.058,0-.084s.029-.032.043-.048q1.112-1.112,2.224-2.225c.072-.074.116-.072.184,0Zm2.764-7.194c0,.465,0,.93,0,1.4,0,.1-.029.133-.13.13q-.327-.009-.655,0c-.072,0-.105-.016-.105-.1V62.228c0-.078.025-.1.1-.1.227,0,.452,0,.676,0,.091,0,.113.029.113.113,0,.472,0,.945,0,1.417Zm-3.612,4.372q-.009.332,0,.665c0,.077-.026.1-.1.1q-1.43,0-2.856,0c-.082,0-.1-.035-.1-.107,0-.225,0-.451,0-.675,0-.084.026-.108.108-.108.471,0,.943,0,1.416,0s.938,0,1.406,0c.1,0,.13.023.126.124Zm10.114-.006c-.006.224,0,.449,0,.675,0,.072-.025.1-.1.1h-2.855c-.087,0-.105-.033-.1-.111,0-.221.006-.444,0-.665,0-.088.027-.113.114-.113.471,0,.943,0,1.416,0s.938,0,1.406,0C237.2,67.9,237.234,67.928,237.231,68.023Zm-6.5,5.736c0,.472,0,.945,0,1.416,0,.092-.025.123-.117.12q-.338-.007-.676,0c-.072,0-.1-.025-.1-.1V72.342c0-.075.023-.1.1-.1.225,0,.451,0,.675,0,.09,0,.116.026.114.113,0,.468,0,.938,0,1.406Zm-9.685-42.654a7.1,7.1,0,1,1,7.1-7.1A7.1,7.1,0,0,1,221.045,31.105Zm.1-2.962a4.043,4.043,0,1,0-4.043-4.043A4.043,4.043,0,0,0,221.149,28.143Z" transform="translate(13736 1329)" fill="#ffaaa7"/>
      <path id="路径_10919" data-name="路径 10919" d="M26.631,21.2H23.945V18.511a1.343,1.343,0,1,0-2.685,0V21.2H18.575a1.343,1.343,0,0,0,0,2.685H21.26v2.685a1.343,1.343,0,1,0,2.685,0V23.882h2.685a1.343,1.343,0,1,0,0-2.685Z" transform="translate(13938.093 1397.99) rotate(45)" fill="#4ba2fa"/>
      <path id="路径_10920" data-name="路径 10920" d="M20.008,13.881l-.2-.164a12.512,12.512,0,0,0-2.95-1.607l-.465-.176.377-.321A6.564,6.564,0,0,0,19.105,6.6a6.67,6.67,0,0,0-13.34,0A6.567,6.567,0,0,0,8.1,11.613l.378.32-.464.176A12.331,12.331,0,0,0,.064,23.534a.971.971,0,0,0,.971.971c.536,0,1.255-.435,1.255-.971,0-5.692,4.4-9.818,10.148-9.818a9.583,9.583,0,0,1,6.108,1.8c.282.262.884.151,1.238,0a.975.975,0,0,0,.593-.88.952.952,0,0,0-.368-.752ZM16.772,6.6a4.077,4.077,0,0,1-4.335,4.3A4.08,4.08,0,0,1,8.1,6.6a3.988,3.988,0,0,1,4.339-4.183A3.985,3.985,0,0,1,16.771,6.6Z" transform="translate(13916.156 1409.079)" fill="#4ba2fa"/>
    </g>
  </g>
</svg>
