<svg id="icon-product" xmlns="http://www.w3.org/2000/svg" xmlns:xlink="http://www.w3.org/1999/xlink" width="112" height="113" viewBox="0 0 112 113">
  <defs>
    <linearGradient id="linear-gradient" x1="0.5" x2="0.5" y2="1" gradientUnits="objectBoundingBox">
      <stop offset="0" stop-color="#7f9ceb"/>
      <stop offset="1" stop-color="#3661c1"/>
    </linearGradient>
  </defs>
  <ellipse id="椭圆_100" data-name="椭圆 100" cx="56" cy="56.5" rx="56" ry="56.5" fill="url(#linear-gradient)"/>
  <g id="icon-set-version" transform="translate(30.574 33.323)">
    <path id="路径_4076" data-name="路径 4076" d="M163.878,126.8H129.324a8.135,8.135,0,0,0-8.124,8.124v22.551a8.135,8.135,0,0,0,8.124,8.124h34.548a8.145,8.145,0,0,0,8.13-8.124V134.924A8.135,8.135,0,0,0,163.878,126.8Zm4.874,30.675a4.89,4.89,0,0,1-4.881,4.874H129.324a4.876,4.876,0,0,1-4.874-4.874V134.924a4.876,4.876,0,0,1,4.874-4.874h34.554a4.876,4.876,0,0,1,4.874,4.874ZM153.5,170.934a1.625,1.625,0,0,0,0-3.249H139.7a1.625,1.625,0,0,0,0,3.249Zm8.786,2.424H130.909a1.625,1.625,0,1,0,0,3.249h31.376a1.625,1.625,0,1,0,0-3.249Z" transform="translate(-121.2 -126.8)" fill="#fff"/>
    <path id="路径_4077" data-name="路径 4077" d="M469.924,388.224m-2.924,0a2.924,2.924,0,1,0,2.924-2.924A2.924,2.924,0,0,0,467,388.224Z" transform="translate(-444.527 -368.5)" fill="#fff"/>
    <path id="路径_4078" data-name="路径 4078" d="M289.924,388.224m-2.924,0a2.924,2.924,0,1,0,2.924-2.924A2.924,2.924,0,0,0,287,388.224Z" transform="translate(-276.225 -368.5)" fill="#fff"/>
    <path id="路径_4079" data-name="路径 4079" d="M649.924,388.224m-2.925,0a2.924,2.924,0,1,0,2.925-2.924A2.925,2.925,0,0,0,647,388.224Z" transform="translate(-612.829 -368.5)" fill="#fff"/>
  </g>
</svg>
