<svg xmlns="http://www.w3.org/2000/svg" width="383.22" height="167.041" viewBox="0 0 383.22 167.041">
  <g id="pic-Check" transform="translate(-48.244 -119.865)">
    <g id="组_13" data-name="组 13" transform="translate(255.913 197.87) rotate(152)">
      <path id="路径_20" data-name="路径 20" stroke="#ff6606" d="M180.923,37.206c-20.37,15.351-49.608,22.121-76.559,17.724-11.039-1.8-22.055-5.6-29.4-12.7-9.6-9.281-10.93-24.28-1.765-33.862S101.642-3.07,112.221,5.439c6.685,5.377,9.176,13.616,8.535,21.34s-4.05,15.086-7.7,22.2c-9.666,18.828-42.139,49.537-80.594,36" fill="none" transform="translate(3.118 0.525)" stroke-linecap="round" stroke-linejoin="round" stroke-width="4" stroke-dasharray="8 8"/>
      <path id="路径_21" data-name="路径 21" stroke="#ff6606" d="M0,2.024C7.452,1.287,12.341,1.485,19.6,0c-2.907,6.571-2.561,19.741-2.236,18.868" fill="none" transform="translate(174.056 28.963)" stroke-linecap="round" stroke-linejoin="round" stroke-width="4" stroke-dasharray="8 8"/>
    </g>
    <text id="在此勾选确认协议_" data-name="在此勾选确认协议！" transform="translate(200.465 146.865)" fill="#ff6606" font-size="26" font-family="AlibabaPuHuiTi-Regular, Alibaba PuHuiTi"><tspan x="0" y="0">在此勾选确认协议！</tspan></text>
  </g>
</svg>
