<svg xmlns="http://www.w3.org/2000/svg" xmlns:xlink="http://www.w3.org/1999/xlink" width="360" height="360" viewBox="0 0 360 360">
  <defs>
    <clipPath id="clip-path">
      <rect id="蒙版" width="342.703" height="342.703" rx="8" fill="#fff" opacity="0.3"/>
    </clipPath>
    <linearGradient id="linear-gradient" x1="0.328" y1="1.105" x2="0.672" y2="-0.105" gradientUnits="objectBoundingBox">
      <stop offset="0" stop-color="#e8ceaa"/>
      <stop offset="0.547" stop-color="#f7e5bc"/>
      <stop offset="1" stop-color="#fcf8f3"/>
    </linearGradient>
    <linearGradient id="linear-gradient-3" x1="0.351" y1="1.105" x2="0.649" y2="-0.105" gradientUnits="objectBoundingBox">
      <stop offset="0"/>
      <stop offset="0.982" stop-color="#5a5a5a"/>
      <stop offset="1" stop-color="#4270cb"/>
    </linearGradient>
    <linearGradient id="linear-gradient-5" x1="-0.105" y1="1.077" x2="1.105" y2="-0.077" gradientUnits="objectBoundingBox">
      <stop offset="0" stop-color="#d3dff4"/>
      <stop offset="0.133" stop-color="#d3dff4"/>
      <stop offset="0.29" stop-color="#d9e2f5"/>
      <stop offset="0.452" stop-color="#f3f9fc"/>
      <stop offset="1" stop-color="#f3f9fc"/>
    </linearGradient>
    <linearGradient id="linear-gradient-6" x1="-0.105" y1="0.661" x2="1.105" y2="0.339" gradientUnits="objectBoundingBox">
      <stop offset="0" stop-color="#f3f9fc"/>
      <stop offset="0.271" stop-color="#f3f9fc"/>
      <stop offset="0.529" stop-color="#d9e2f5"/>
      <stop offset="0.867" stop-color="#d3dff4"/>
      <stop offset="1" stop-color="#d3dff4"/>
    </linearGradient>
    <linearGradient id="linear-gradient-7" x1="0.135" y1="1.105" x2="0.865" y2="-0.105" gradientUnits="objectBoundingBox">
      <stop offset="0" stop-color="#d9e3f0"/>
      <stop offset="0.133" stop-color="#d9e3f0"/>
      <stop offset="0.46" stop-color="#bacff9"/>
      <stop offset="0.96" stop-color="#c4d7f9"/>
      <stop offset="1" stop-color="#c4d7f9"/>
    </linearGradient>
    <clipPath id="clip-path-2">
      <path id="联合_2" data-name="联合 2" d="M0,314.45V236.809H89.3V314.45Zm251.262-2.773v-72.1h88.191v72.1Zm0-231.263V0h88.191V80.415ZM0,80.415V0H89.3V80.415Z" fill="#fff" stroke="#707070" stroke-width="2"/>
    </clipPath>
    <clipPath id="clip-path-3">
      <rect id="矩形_4" data-name="矩形 4" width="6.801" height="25.707" fill="none"/>
    </clipPath>
  </defs>
  <g id="pic-scan-face-failed" transform="translate(-780.334 -269.316)">
    <g id="组_4481" data-name="组 4481" transform="translate(0 -76)">
      <g id="组_4018" data-name="组 4018" transform="translate(780.334 345.316)">
        <rect id="矩形_1" data-name="矩形 1" width="360" height="360" rx="8" fill="#4e72ea"/>
      </g>
      <g id="编组_9" data-name="编组 9" transform="translate(788.982 355.965)">
        <g id="矢量智能对象1" transform="translate(0 0)">
          <g id="矢量智能对象1-2" data-name="矢量智能对象1" clip-path="url(#clip-path)">
            <g id="组_3973" data-name="组 3973" transform="matrix(1, -0.009, 0.009, 1, 8.926, 55.86)">
              <g id="双录人像_拷贝-5" transform="translate(0 0)">
                <g id="双录人像_拷贝-6" transform="translate(0 0)">
                  <path id="形状_70-2" d="M38.521,57.381s15.064-2.2,18.124-6.922c0,0,6.673-21.509,4.746-30.691,0,0,20.571,11.7,27.136,10.951,0,0,14.74,4.937,24.351-5.175l21.571-21.3L138.346,0s-4.554,29,1.853,40.549a44.025,44.025,0,0,0,12.916,13.63l12.545,5.513,17.017,13.446L156.919,92.606s-21.415,20.056-36.155,15.871c-8.815-2.5-15.143,23.193-26.875,22.115C64.578,127.9,24.015,98.675,24.015,98.675L3.291,93.527s-6.742-14.889-.925-20.274C2.365,73.252,31.1,64.272,38.521,57.381Z" transform="translate(61.522 154.058)" fill-rule="evenodd" fill="url(#linear-gradient)"/>
                  <path id="形状_69-2" d="M8.935,6.071S2.982,30.166,0,34.921A304.232,304.232,0,0,0,1.4,65.331S5.678,82.564,4.832,95.648c0,0-.17,9.671,11.334,23.862,0,0,8.755,15.217,15.145,17.592l14.683,7.456s15.428,2.876,24.447-3.147c0,0,17.54-10.066,24.62-16.806a83.048,83.048,0,0,0,13.479-18.9A242.365,242.365,0,0,1,113.574,81.1s4.007,9.019,5.493,3.24c0,0,19.188-25.542,6.421-38.895,0,0,.026-7.574-4.273-3.868l-4.384,21.092s1.469-15.339-5.841-20.612c0,0-3.037-21.811-5.2-24.143a34.2,34.2,0,0,0-35.5-14.62S23.97-5.716,8.935,6.071Z" transform="translate(98.106 44.552)" fill-rule="evenodd" fill="url(#linear-gradient)"/>
                  <path id="形状_68-2" d="M12.981,91.543S16.37,85.132,18.1,68.961s15.96-13.834,23.98-13.283c0,0,28.975,6.524,49.165-.213,0,0,22.465-.4,23.232,15.191,0,0-.609,15.327,7.152,22.021l1.381,12.7,1.776,11.538,6.975-26.729,7.715-10.51s1.122-32.639-8.355-48.379C121.682,15.63,113.2,8.5,80.563,1.1c0,0-32.217-6.16-56.88,10.723,0,0-36.493,21.358-18.879,80.1l2.692,14.1,3.794,20.715,2.43-18.968Z" transform="translate(87.732 0)" fill-rule="evenodd" fill="url(#linear-gradient-3)"/>
                  <path id="形状_73-2" d="M6.393.763S-.917-2.691.442,5.1c0,0-1.3,8.3.556,12.164l2.416,8.017S9.109,33.263,10.1,37.163c0,0,5.273,5.146,5.855-6.363Z" transform="translate(86.967 91.686)" fill-rule="evenodd" fill="url(#linear-gradient)"/>
                  <path id="形状_71-2" d="M208.218,0s56.588,24.795,68.787,25.3c0,0,21.743,10.412,28.061,31.225l14.817,27.558s4.98,4.075-1.766,6.176L16.9,85.556.454,84.273s-6.442-26.811,29.22-45.647c0,0,60.176-26.525,70.268-31.652L109.98,2.452S122.753,29,137.632,51.7c7.072,10.79,16.594,16.158,21.693,26.276C159.324,77.974,173.611,27.179,208.218,0Z" transform="translate(0 202.437)" fill-rule="evenodd" fill="url(#linear-gradient-5)"/>
                  <path id="形状_72-2" d="M27.407,0A21.592,21.592,0,0,0,7.7,17.154S-1.649,63.97.256,78.441c0,0,9.184-28.217,21.751-17.257l6.514,7.842,40.15,18.818S13.561,37.605,27.407,0Z" transform="translate(95.228 187.119) rotate(3)" fill-rule="evenodd" fill="url(#linear-gradient-6)"/>
                  <path id="形状_19-5" d="M27.026.173s13.6-2.239,15.284,9.391c0,0,18.165,47.89-14.114,76.893,0,0-15.51-37.466-28.2-24.155A306.9,306.9,0,0,0,26.954,6.937C27.814,4.607,26.295,2.7,27.026.173Z" transform="translate(172.238 187.044)" fill-rule="evenodd" fill="url(#linear-gradient-7)"/>
                </g>
              </g>
            </g>
          </g>
        </g>
        <g id="蒙版组_57" data-name="蒙版组 57" transform="translate(2.25 12.751)" clip-path="url(#clip-path-2)">
          <g id="矩形_1312" data-name="矩形 1312" transform="translate(21.294 6.264)" fill="none" stroke="#60a3ff" stroke-width="4">
            <rect width="301.875" height="303.175" stroke="none"/>
            <rect x="2" y="2" width="297.875" height="299.175" fill="none"/>
          </g>
        </g>
      </g>
    </g>
    <g id="组_29" data-name="组 29" transform="translate(1043.811 321.995)">
      <circle id="椭圆_58" data-name="椭圆 58" cx="24.012" cy="24.012" r="24.012" fill="#f20f0f"/>
      <g id="组_28" data-name="组 28" transform="translate(20.612 11.159)">
        <g id="组_27" data-name="组 27">
          <g id="组_26" data-name="组 26" clip-path="url(#clip-path-3)">
            <path id="路径_110" data-name="路径 110" d="M1680.32,192.056h-2.266a1.515,1.515,0,0,1-1.51-1.511l-.756-15.856a1.514,1.514,0,0,1,1.512-1.509h3.775a1.513,1.513,0,0,1,1.51,1.509l-.755,15.856a1.515,1.515,0,0,1-1.509,1.511Zm0,0" transform="translate(-1675.789 -173.177)" fill="#fff"/>
            <path id="路径_111" data-name="路径 111" d="M1676.174,186.224a2.643,2.643,0,1,0,1.322-2.289,2.644,2.644,0,0,0-1.322,2.289Zm0,0" transform="translate(-1675.418 -163.191)" fill="#fff"/>
          </g>
        </g>
      </g>
    </g>
  </g>
</svg>
