<?xml version="1.0" encoding="UTF-8"?>
<svg width="18px" height="18px" viewBox="0 0 18 18" version="1.1" xmlns="http://www.w3.org/2000/svg" xmlns:xlink="http://www.w3.org/1999/xlink">
    <!-- Generator: Sketch 54.1 (76490) - https://sketchapp.com -->
    <title>箭头-上</title>
    <desc>Created with Sketch.</desc>
    <g id="00节点模版" stroke="none" stroke-width="1" fill="none" fill-rule="evenodd">
        <g id="18影像采集-采集纸质文件01" transform="translate(-306.000000, -964.000000)" fill-rule="nonzero">
            <g id="编组" transform="translate(303.000000, 957.000000)">
                <g id="箭头-上" transform="translate(12.000000, 16.000000) scale(-1, -1) rotate(90.000000) translate(-12.000000, -16.000000) translate(0.000000, 4.000000)">
                    <rect id="矩形" fill="#000000" opacity="0" x="0" y="0" width="24" height="24"></rect>
                    <path d="M20.6835938,12.4804687 C20.6835938,12.8601562 20.5453125,13.1929687 20.2710937,13.4835937 L19.434375,14.3203125 C19.153125,14.6015625 18.8132813,14.7445312 18.4195313,14.7445312 C18.01875,14.7445312 17.6835938,14.6039062 17.4164063,14.3203125 L14.1398437,11.0507812 L14.1398437,18.8953125 C14.1398437,19.2820312 14.0015625,19.5960937 13.7226562,19.8375 C13.44375,20.0789063 13.1085937,20.2007813 12.7148438,20.2007813 L11.2875,20.2007813 C10.89375,20.2007813 10.5585938,20.0789063 10.2796875,19.8375 C10.0007812,19.5960938 9.8625,19.2820312 9.8625,18.8953125 L9.8625,11.0507812 L6.58359375,14.3203125 C6.31640625,14.6015625 5.98125,14.7445312 5.58046875,14.7445312 C5.1796875,14.7445312 4.84453125,14.6039062 4.57734375,14.3203125 L3.740625,13.4835937 C3.459375,13.2023437 3.31640625,12.8671875 3.31640625,12.4804687 C3.31640625,12.0867187 3.45703125,11.7492188 3.740625,11.465625 L10.9945313,4.21171875 C11.2546875,3.9375 11.5898438,3.79921875 11.9976562,3.79921875 C12.3984375,3.79921875 12.7359375,3.9375 13.0125,4.21171875 L20.2664062,11.465625 C20.5429687,11.7539062 20.6835937,12.09375 20.6835938,12.4804687 Z" id="路径" fill="#617388"></path>
                </g>
            </g>
        </g>
    </g>
</svg>