<?xml version="1.0" encoding="UTF-8"?>
<svg width="36px" height="36px" viewBox="0 0 36 36" version="1.1" xmlns="http://www.w3.org/2000/svg" xmlns:xlink="http://www.w3.org/1999/xlink">
    <!-- Generator: Sketch 48.2 (47327) - http://www.bohemiancoding.com/sketch -->
    <title>ic_chat</title>
    <desc>Created with Sketch.</desc>
    <defs></defs>
    <g id="Symbols" stroke="none" stroke-width="1" fill="none" fill-rule="evenodd">
        <g id="ic_chat" fill="#FFFFFF" fill-rule="nonzero">
            <path d="M32,17.2713085 C32,15.6076482 31.632006,13.9898077 30.8806126,12.4635156 C30.1752526,10.9982862 29.1632006,9.68566767 27.8598162,8.55623697 C26.5717457,7.44204918 25.0843186,6.55677794 23.4129402,5.94628837 C21.6955282,5.32055592 19.8707352,5 18,5 C16.1292648,5 14.3045175,5.32055592 12.5870598,5.94628837 C10.9309954,6.55682343 9.42825421,7.44204918 8.1401838,8.55623697 C6.85211339,9.68566762 5.84006134,10.9982862 5.1193874,12.4635156 C4.38335371,13.9898077 3.99999996,15.6076938 4,17.2713085 C4,19.2402362 4.55203672,21.2091184 5.57940278,22.9491296 C6.5147932,24.521196 7.84885143,25.91012 9.44356827,26.9937765 C9.4128945,27.2074501 9.36690669,27.5432034 9.24425724,27.9400648 C9.04490051,28.6574367 8.63087295,29.7716244 7.7568301,31.0231803 C7.61882094,31.2063226 7.60350688,31.4505275 7.71084223,31.6642012 C7.81817763,31.8626319 8.01753436,32 8.2475192,32 L8.278193,32 C9.93430311,32 11.5903218,31.465816 13.0470752,30.458465 C13.8137827,29.9242809 14.3504596,29.3900514 14.6111639,29.1000723 C15.6330208,29.3344681 16.6757151,29.4674059 17.7239359,29.4969337 C17.8005975,29.527465 17.8772591,29.5427079 17.9692805,29.5427079 C19.3186985,29.5427079 20.6527567,29.3748085 21.9254673,29.0390097 C27.7217613,27.6195544 31.9539665,22.979661 31.9539665,17.5002705 L31.9539665,17.3781908 C32,17.3629024 32,17.3170827 32,17.2713085 Z M24.9463094,14.4934605 C24.9463094,15.3939746 24.2256355,16.1265894 23.3362329,16.1265894 C22.4468302,16.1265894 21.7261563,15.3940201 21.7261563,14.4934605 C21.7261563,13.5929463 22.4468302,12.8603316 23.3362329,12.8603316 C24.2255898,12.8603316 24.9463094,13.5929463 24.9463094,14.4934605 Z M11.5136144,14.4934605 C11.5136144,13.5929463 12.2343341,12.8603316 13.123691,12.8603316 C14.0130936,12.8603316 14.7337676,13.5929463 14.7337676,14.4934605 C14.7337676,15.3939746 14.0130936,16.1265894 13.123691,16.1265894 C12.2343341,16.1265894 11.5136144,15.3939746 11.5136144,14.4934605 Z M12.4336452,20.6596915 C12.4183311,19.8354829 13.7064015,19.8354829 13.7064015,20.6596915 C13.7064015,21.1022816 13.8137369,21.4991431 14.0437675,21.895959 C14.2584839,22.2622891 14.5651304,22.6285737 14.9024963,22.8728242 C15.807213,23.5443763 16.8805669,23.8801297 18.015314,23.8649322 C19.1347015,23.8649322 20.2234151,23.5596647 21.1281318,22.8728242 C21.480766,22.6133309 21.8028179,22.2470462 22.0174887,21.8349419 C22.2168454,21.4686118 22.3088668,21.0717958 22.3241808,20.6596915 C22.3395406,19.8354829 23.6122513,19.8354829 23.5969372,20.6596915 C23.5662634,23.5290879 20.5761408,25.1622623 18.030628,25.1469739 C15.485161,25.1316855 12.4643646,23.5596192 12.4336452,20.6596915 Z" id="Shape"></path>
        </g>
    </g>
</svg>