<?xml version="1.0" encoding="UTF-8"?>
<svg width="36px" height="36px" viewBox="0 0 36 36" version="1.1" xmlns="http://www.w3.org/2000/svg" xmlns:xlink="http://www.w3.org/1999/xlink">
    <!-- Generator: Sketch 48.2 (47327) - http://www.bohemiancoding.com/sketch -->
    <title>ic/close-white</title>
    <desc>Created with Sketch.</desc>
    <defs></defs>
    <g id="Symbols" stroke="none" stroke-width="1" fill="none" fill-rule="evenodd">
        <g id="ic/close-white">
            <path d="M18,0 C8.059,0 0,8.059 0,18 C0,27.941 8.059,36 18,36 C27.942,36 36,27.941 36,18 C36,8.059 27.942,0 18,0" id="Fill-1" fill="#FFFFFF"></path>
            <g id="Group" transform="translate(18.000000, 18.000000) rotate(45.000000) translate(-18.000000, -18.000000) translate(8.000000, 8.000000)" fill="#B0B0B0">
                <path d="M11,9 L19.1666667,9 C19.626904,9 20,9.44771525 20,10 C20,10.5522847 19.626904,11 19.1666667,11 L11,11 L11,19 C11,19.5522847 10.5522847,20 10,20 C9.44771525,20 9,19.5522847 9,19 L9,11 L0.833333333,11 C0.373096042,11 -1.83271965e-15,10.5522847 -1.77635684e-15,10 C-1.71999403e-15,9.44771525 0.373096042,9 0.833333333,9 L9,9 L9,1 C9,0.44771525 9.44771525,1.01453063e-16 10,0 C10.5522847,-1.01453063e-16 11,0.44771525 11,1 L11,9 Z" id="Combined-Shape"></path>
            </g>
        </g>
    </g>
</svg>