<?xml version="1.0" encoding="UTF-8"?>
<svg width="36px" height="36px" viewBox="0 0 36 36" version="1.1" xmlns="http://www.w3.org/2000/svg" xmlns:xlink="http://www.w3.org/1999/xlink">
    <!-- Generator: Sketch 49.2 (51160) - http://www.bohemiancoding.com/sketch -->
    <title>ic/developing</title>
    <desc>Created with Sketch.</desc>
    <defs>
        <polygon id="path-1" points="0.0002 0 36 0 36 32 0.0002 32"></polygon>
        <polygon id="path-3" points="-0.0004 4.20036136e-05 15.9996 4.20036136e-05 15.9996 15 -0.0004 15"></polygon>
    </defs>
    <g id="ic/developing" stroke="none" stroke-width="1" fill="none" fill-rule="evenodd">
        <g id="Page-1" transform="translate(0.000000, 1.000000)">
            <path d="M26.5,24.0003 C27.893,24.0003 29,25.1063 29,26.5003 C29,27.8933 27.893,29.0003 26.5,29.0003 C25.107,29.0003 24,27.8933 24,26.5003 C24,25.1063 25.107,24.0003 26.5,24.0003" id="Fill-1" fill="#8CC1FF"></path>
            <g id="Group-5">
                <mask id="mask-2" fill="white">
                    <use xlink:href="#path-1"></use>
                </mask>
                <g id="Clip-4"></g>
                <path d="M34,21.8072186 L34,8.9998 C34,7.8958 33.104,6.9998 32,6.9998 L4,6.9998 C2.896,6.9998 2,7.8958 2,8.9998 L2,27.9998 C2,29.1048 2.896,29.9998 4,29.9998 L15.0926551,29.9998 C15.2133976,30.1032612 15.3625949,30.1805696 15.5402,30.221 L15.5952,30.221 C16.5812,30.447 17.2932,31.01 17.8402,31.967 C17.8462,31.978 17.8492,31.99 17.8552,32 L3.0002,32 C1.5122,32 0.0002,30.464 0.0002,29 L0.0002,3 C0.0002,1.535 1.5122,0 3.0002,0 L33.0002,0 C34.4882,0 36.0002,1.535 36.0002,3 L36.0002,23.627 C35.1982,23.355 34.5832,22.835 34.1042,21.999 C34.067638,21.9362798 34.0328818,21.872306 34,21.8072186 Z" id="Combined-Shape" fill="#8CC1FF" mask="url(#mask-2)"></path>
            </g>
            <path d="M26.5,24.0003 C25.107,24.0003 24,25.1063 24,26.5003 C24,27.8933 25.107,29.0003 26.5,29.0003 C27.893,29.0003 29,27.8933 29,26.5003 C29,25.1063 27.893,24.0003 26.5,24.0003" id="Fill-6" fill="#FFFFFF"></path>
            <path d="M21.5,1.9998 C22.328,1.9998 23,2.6718 23,3.4998 C23,4.3288 22.328,4.9998 21.5,4.9998 C20.672,4.9998 20,4.3288 20,3.4998 C20,2.6718 20.672,1.9998 21.5,1.9998" id="Fill-10" fill="#FFFFFF"></path>
            <path d="M26.5,1.9998 C27.328,1.9998 28,2.6718 28,3.4998 C28,4.3288 27.328,4.9998 26.5,4.9998 C25.672,4.9998 25,4.3288 25,3.4998 C25,2.6718 25.672,1.9998 26.5,1.9998" id="Fill-12" fill="#FFFFFF"></path>
            <path d="M31.5,1.9998 C32.328,1.9998 33,2.6718 33,3.4998 C33,4.3288 32.328,4.9998 31.5,4.9998 C30.672,4.9998 30,4.3288 30,3.4998 C30,2.6718 30.672,1.9998 31.5,1.9998" id="Fill-14" fill="#FFFFFF"></path>
            <g id="Group-24" transform="translate(18.000000, 19.000000)">
                <mask id="mask-4" fill="white">
                    <use xlink:href="#path-3"></use>
                </mask>
                <g id="Clip-23"></g>
                <path d="M15.81,6.001258 C15.772,5.707258 15.581,5.450258 15.239,5.377258 L15.201,5.377258 C14.515,5.230258 14.02,4.862258 13.638,4.238258 C13.295,3.688258 13.181,2.989258 13.41,2.365258 C13.524,2.108258 13.448,1.777258 13.181,1.558258 C12.457,0.897257996 11.581,0.382257996 10.591,0.0522579964 C10.325,-0.0587420036 10.02,0.0152579964 9.752,0.272257996 C9.333,0.786257996 8.686,1.043258 7.962,1.043258 C7.315,1.043258 6.706,0.749257996 6.172,0.235257996 C5.867,-0.0587420036 5.562,-0.0217420036 5.333,0.0522579964 C4.343,0.455257996 3.505,0.933257996 2.782,1.521258 C2.515,1.704258 2.401,2.035258 2.515,2.328258 C2.706,3.026258 2.629,3.688258 2.287,4.275258 C1.981,4.789258 1.41,5.193258 0.724,5.377258 C0.686,5.377258 0.686,5.377258 0.648,5.414258 C0.419,5.523258 0.267,5.707258 0.153,5.965258 L0.153,6.001258 C0.039,6.552258 0,7.029258 0,7.507258 C0,7.984258 0.039,8.535258 0.153,8.977258 C0.191,9.271258 0.381,9.527258 0.724,9.601258 L0.762,9.601258 C1.448,9.747258 1.944,10.115258 2.325,10.739258 C2.667,11.290258 2.782,11.988258 2.553,12.612258 C2.499,12.731258 2.492,12.867258 2.521,13.000258 C2.555,13.152258 2.638,13.303258 2.782,13.420258 C3.505,14.081258 4.381,14.596258 5.41,14.926258 C5.448,14.926258 5.486,14.963258 5.562,14.963258 L5.676,14.963258 C5.867,14.963258 6.096,14.890258 6.287,14.706258 C6.706,14.229258 7.353,13.935258 8.077,13.935258 C8.724,13.935258 9.333,14.229258 9.867,14.742258 C10.02,14.890258 10.21,15.000258 10.401,15.000258 C10.477,15.000258 10.591,15.000258 10.667,14.963258 C11.658,14.559258 12.496,14.081258 13.219,13.494258 C13.395,13.397258 13.496,13.203258 13.517,13.000258 C13.529,12.894258 13.525,12.786258 13.486,12.686258 C13.295,11.988258 13.372,11.327258 13.714,10.739258 C14.02,10.225258 14.591,9.821258 15.277,9.638258 C15.315,9.638258 15.315,9.638258 15.353,9.601258 C15.581,9.490258 15.734,9.307258 15.848,9.050258 L15.848,9.013258 C15.962,8.462258 16,7.984258 16,7.507258 C15.962,6.993258 15.924,6.479258 15.81,6.001258" id="Fill-22" fill="#8CC1FF" mask="url(#mask-4)"></path>
            </g>
        </g>
        <path d="M26.25,29.5 C24.9964286,29.5 24,28.5035714 24,27.25 C24,25.9964286 24.9964286,25 26.25,25 C27.5035714,25 28.5,25.9964286 28.5,27.25 C28.5,28.5035714 27.5035714,29.5 26.25,29.5 Z" id="Path" fill="#FFFFFF"></path>
        <rect id="Rectangle-9" fill="#C3EEFF" x="5" y="11" width="22" height="2"></rect>
        <rect id="Rectangle-9-Copy" fill="#C3EEFF" x="5" y="15" width="18" height="2"></rect>
        <rect id="Rectangle-9-Copy-2" fill="#C3EEFF" x="5" y="19" width="9" height="2"></rect>
        <rect id="Rectangle-9-Copy-3" fill="#C3EEFF" x="5" y="23" width="5" height="2"></rect>
    </g>
</svg>