<?xml version="1.0" encoding="UTF-8"?>
<svg width="36px" height="36px" viewBox="0 0 36 36" version="1.1" xmlns="http://www.w3.org/2000/svg" xmlns:xlink="http://www.w3.org/1999/xlink">
    <!-- Generator: Sketch 49.2 (51160) - http://www.bohemiancoding.com/sketch -->
    <title>ic/getback</title>
    <desc>Created with Sketch.</desc>
    <defs></defs>
    <g id="ic/getback" stroke="none" stroke-width="1" fill="none" fill-rule="evenodd">
        <path d="M17.9998,-0.0002 C8.0588,-0.0002 -0.0002,8.0588 -0.0002,17.9998 C-0.0002,27.9408 8.0588,36.0008 17.9998,36.0008 C27.9408,36.0008 35.9998,27.9408 35.9998,17.9998 C35.9998,8.0588 27.9408,-0.0002 17.9998,-0.0002 L17.9998,-0.0002 Z" id="Path" fill="#F5A623"></path>
        <path d="M26.7015243,27.9257264 C25.8621157,23.490988 21.6335295,20.1260284 16.9579563,20.1260284 L16.9579563,24.3764408 C16.9827723,24.5818455 16.9119121,24.7235658 16.7510566,24.8794879 C16.4414546,25.1911828 15.9590376,25.0636645 15.6962272,24.8370316 L8.65879893,17.1225452 C8.50930497,16.9737987 8.44562054,16.7754202 8.45548714,16.5842174 C8.44562054,16.3858389 8.50930497,16.1946362 8.65879893,16.0458896 L15.7350957,8.2816217 C16.0156958,8.00535686 16.4704564,8.00535686 16.7509071,8.2816217 C16.9123606,8.44457013 16.9697663,8.65715054 16.9456978,8.86958145 L16.9456978,13.0492832 C22.8205115,13.0492832 27.5839872,17.8097689 27.5839872,23.6826393 C27.5841367,25.1913323 27.266761,26.6222885 26.7015243,27.9257264 Z" id="Shape" fill="#FFFFFF" fill-rule="nonzero"></path>
    </g>
</svg>