<svg id="icon-termination" xmlns="http://www.w3.org/2000/svg" width="128" height="128" viewBox="0 0 128 128">
  <g id="路径_4840" data-name="路径 4840" fill="#f44b3d">
    <path d="M 64 123 C 56.03285598754883 123 48.30666732788086 121.4407501220703 41.03606414794922 118.3655395507812 C 37.54114532470703 116.8873138427734 34.16991806030273 115.0574188232422 31.01602172851562 112.9266891479492 C 27.89079093933105 110.8153305053711 24.95181274414062 108.3904190063477 22.28070831298828 105.7192916870117 C 19.60958290100098 103.0481872558594 17.18466758728027 100.1091842651367 15.07331275939941 96.98395538330078 C 12.94258308410645 93.83006286621094 11.11268711090088 90.45883178710938 9.634458541870117 86.96391296386719 C 6.559249877929688 79.69333648681641 5 71.96714782714844 5 64 C 5 56.03285598754883 6.559249877929688 48.30666732788086 9.634458541870117 41.03606414794922 C 11.11268711090088 37.54114532470703 12.94258308410645 34.16991806030273 15.07331275939941 31.01602172851562 C 17.18466758728027 27.89079093933105 19.60958290100098 24.95181274414062 22.28070831298828 22.28070831298828 C 24.95181274414062 19.60958290100098 27.89079093933105 17.18466758728027 31.01602172851562 15.07331275939941 C 34.16991806030273 12.94258308410645 37.54114532470703 11.11268711090088 41.03606414794922 9.634458541870117 C 48.30666732788086 6.559249877929688 56.03285598754883 5 64 5 C 71.96714782714844 5 79.69333648681641 6.559249877929688 86.96391296386719 9.634458541870117 C 90.45883178710938 11.11268711090088 93.83006286621094 12.94258308410645 96.98395538330078 15.07331275939941 C 100.1091842651367 17.18466758728027 103.0481872558594 19.60958290100098 105.7192916870117 22.28070831298828 C 108.3904190063477 24.95181274414062 110.8153305053711 27.89079093933105 112.9266891479492 31.01602172851562 C 115.0574188232422 34.16991806030273 116.8873138427734 37.54114532470703 118.3655395507812 41.03606414794922 C 121.4407501220703 48.30666732788086 123 56.03285598754883 123 64 C 123 71.96714782714844 121.4407501220703 79.69333648681641 118.3655395507812 86.96391296386719 C 116.8873138427734 90.45883178710938 115.0574188232422 93.83006286621094 112.9266891479492 96.98395538330078 C 110.8153305053711 100.1091842651367 108.3904190063477 103.0481872558594 105.7192916870117 105.7192916870117 C 103.0481872558594 108.3904190063477 100.1091842651367 110.8153305053711 96.98395538330078 112.9266891479492 C 93.83006286621094 115.0574188232422 90.45883178710938 116.8873138427734 86.96391296386719 118.3655395507812 C 79.69333648681641 121.4407501220703 71.96714782714844 123 64 123 Z" stroke="none"/>
    <path d="M 64 10 C 34.22428894042969 10 10 34.22428894042969 10 64 C 10 93.77571105957031 34.22428894042969 118 64 118 C 93.77571105957031 118 118 93.77571105957031 118 64 C 118 34.22428894042969 93.77571105957031 10 64 10 M 64 0 C 99.34620666503906 0 128 28.65378570556641 128 64 C 128 99.34620666503906 99.34620666503906 128 64 128 C 28.65378570556641 128 0 99.34620666503906 0 64 C 0 28.65378570556641 28.65378570556641 0 64 0 Z" stroke="none" fill="#fff"/>
  </g>
  <path id="路径_4919" data-name="路径 4919" d="M419.056,113.031a7.26,7.26,0,1,0,7.259,7.26A7.268,7.268,0,0,0,419.056,113.031Zm0-50.641a7.268,7.268,0,0,0-7.26,7.259v.028l3.375,30.385c.008,4.057,1.71,7.231,3.881,7.231s3.873-3.173,3.888-7.231l3.372-30.357,0-.056A7.267,7.267,0,0,0,419.059,62.39Z" transform="translate(-355.787 -29.504)" fill="#fff"/>
</svg>
