<svg xmlns="http://www.w3.org/2000/svg" width="28.756" height="31.691" viewBox="0 0 28.756 31.691">
  <g id="icon-back-edit" transform="translate(-42.127 -4.251)">
    <path id="路径_4895" data-name="路径 4895" d="M57.239,34.943H46.966A4.931,4.931,0,0,1,42.127,30.1V8.09a4.931,4.931,0,0,1,4.839-4.839h18.49A4.931,4.931,0,0,1,70.3,8.09V20.075a1.17,1.17,0,0,1-1.17,1.17c-.646,0-.907-.524-.907-1.17V7.747a2.6,2.6,0,0,0-2.5-2.5H46.62a2.6,2.6,0,0,0-2.5,2.5V30.454a2.6,2.6,0,0,0,2.5,2.5H57.239c.646,0,1.17.174,1.17.82A1.17,1.17,0,0,1,57.239,34.943Z" transform="translate(0 1)" fill="#3b6aff"/>
    <path id="路径_4896" data-name="路径 4896" d="M245.34,280.986l-12.964-.01a1.17,1.17,0,1,1,0-2.34l12.964.01a1.17,1.17,0,0,1,0,2.34Zm0,6.105H232.131a1.17,1.17,0,1,1,0-2.34H245.34a1.17,1.17,0,0,1,0,2.34Zm1.3,14.409a1.17,1.17,0,0,1-.847-1.977l6.035-6.337a1.17,1.17,0,0,1,1.694,1.613l-6.035,6.337A1.167,1.167,0,0,1,246.643,301.5Z" transform="translate(-182.964 -266.818)" fill="#3b6aff"/>
    <path id="路径_4897" data-name="路径 4897" d="M704.979,743.668a1.166,1.166,0,0,1-.847-.363l-6.035-6.337a1.17,1.17,0,0,1,1.694-1.614l6.035,6.337a1.17,1.17,0,0,1-.847,1.977Z" transform="translate(-635.265 -708.986)" fill="#3b6aff"/>
    <path id="路径_13143" data-name="路径 13143" d="M239.953,286.652h-7.821a1.17,1.17,0,1,1,0-2.34h7.821a1.17,1.17,0,1,1,0,2.34Z" transform="translate(-182.965 -259.915)" fill="#3b6aff"/>
  </g>
</svg>
