<svg id="icon-scan-btn" xmlns="http://www.w3.org/2000/svg" width="33.556" height="31.25" viewBox="0 0 33.556 31.25">
  <path id="路径_5124" data-name="路径 5124" d="M742.7,2.5h6.243V8.739a1.171,1.171,0,0,0,2.341,0V2.5A2.116,2.116,0,0,0,748.944.155H742.7a1.171,1.171,0,1,0,0,2.341Z" transform="translate(-718.9 -0.137)" fill="#1f59db"/>
  <path id="路径_5125" data-name="路径 5125" d="M39.721,9.769A1.171,1.171,0,0,0,40.892,8.6V2.359h6.535a1.171,1.171,0,1,0,0-2.341H41.19a2.344,2.344,0,0,0-2.633,2.341V8.6a1.171,1.171,0,0,0,1.165,1.166Z" transform="translate(-37.38 0)" fill="#1f59db"/>
  <path id="路径_5126" data-name="路径 5126" d="M750.115,703.8a1.171,1.171,0,0,0-1.171,1.171v6.243H742.7a1.171,1.171,0,0,0,0,2.341h6.243a2.116,2.116,0,0,0,2.341-2.341v-6.243A1.171,1.171,0,0,0,750.115,703.8Z" transform="translate(-718.9 -682.326)" fill="#1f59db"/>
  <path id="路径_5127" data-name="路径 5127" d="M47.14,711.169H40.6v-6.243a1.171,1.171,0,1,0-2.341,0v6.243a2.344,2.344,0,0,0,2.633,2.341h6.243a1.171,1.171,0,0,0,0-2.341Z" transform="translate(-37.093 -682.278)" fill="#1f59db"/>
  <path id="路径_5128" data-name="路径 5128" d="M32.386,486.459H1.171a1.171,1.171,0,0,0,0,2.341H32.386a1.171,1.171,0,0,0,0-2.341Z" transform="translate(0 -471.613)" fill="#1f59db"/>
</svg>
