<svg id="组件_26_3" data-name="组件 26 – 3" xmlns="http://www.w3.org/2000/svg" xmlns:xlink="http://www.w3.org/1999/xlink" width="128" height="128" viewBox="0 0 128 128">
  <defs>
    <linearGradient id="linear-gradient" x1="0.5" y1="0.923" x2="0.5" y2="0.074" gradientUnits="objectBoundingBox">
      <stop offset="0" stop-color="#ff7b73"/>
      <stop offset="1" stop-color="#ffd2b9"/>
    </linearGradient>
  </defs>
  <g id="路径_4840" data-name="路径 4840" fill="url(#linear-gradient)">
    <path d="M 64 122.9999923706055 C 56.03285598754883 122.9999923706055 48.30666732788086 121.4407424926758 41.03606414794922 118.3655319213867 C 37.54114532470703 116.8873062133789 34.16991806030273 115.0574111938477 31.01602172851562 112.9266815185547 C 27.89079093933105 110.8153228759766 24.95181274414062 108.3904113769531 22.28070831298828 105.7192840576172 C 19.60958290100098 103.0481796264648 17.18466758728027 100.1091766357422 15.07331275939941 96.98394775390625 C 12.94258308410645 93.83005523681641 11.11268711090088 90.45882415771484 9.634458541870117 86.96390533447266 C 6.559249877929688 79.69332885742188 5 71.96714019775391 5 63.99999237060547 C 5 56.0328483581543 6.559249877929688 48.30665969848633 9.634458541870117 41.03607559204102 C 11.11268711090088 37.54116058349609 12.94258308410645 34.16992950439453 15.07331275939941 31.01603317260742 C 17.18466758728027 27.89080429077148 19.60958290100098 24.95180511474609 22.28070831298828 22.28070068359375 C 24.95181274414062 19.60957527160645 27.89079093933105 17.18465995788574 31.01602172851562 15.07330513000488 C 34.16991806030273 12.94257545471191 37.54114532470703 11.11267948150635 41.03606414794922 9.634450912475586 C 48.30666732788086 6.559242248535156 56.03285598754883 4.999992370605469 64 4.999992370605469 C 71.96714782714844 4.999992370605469 79.69333648681641 6.559242248535156 86.96393585205078 9.634450912475586 C 90.45885467529297 11.11267948150635 93.83008575439453 12.94257545471191 96.98397827148438 15.07330513000488 C 100.1092071533203 17.18465995788574 103.0481872558594 19.60957527160645 105.7192916870117 22.28070068359375 C 108.3904190063477 24.95180511474609 110.8153305053711 27.89080429077148 112.9266891479492 31.01603317260742 C 115.0574188232422 34.16992950439453 116.8873138427734 37.54116058349609 118.3655395507812 41.03607559204102 C 121.4407501220703 48.30665969848633 123 56.0328483581543 123 63.99999237060547 C 123 71.96714019775391 121.4407501220703 79.69332885742188 118.3655395507812 86.96390533447266 C 116.8873138427734 90.45882415771484 115.0574188232422 93.83005523681641 112.9266891479492 96.98394775390625 C 110.8153305053711 100.1091766357422 108.3904190063477 103.0481796264648 105.7192916870117 105.7192840576172 C 103.0481872558594 108.3904113769531 100.1092071533203 110.8153228759766 96.98397827148438 112.9266815185547 C 93.83008575439453 115.0574111938477 90.45885467529297 116.8873062133789 86.96393585205078 118.3655319213867 C 79.69333648681641 121.4407424926758 71.96714782714844 122.9999923706055 64 122.9999923706055 Z" stroke="none"/>
    <path d="M 64 9.999992370605469 C 34.22428894042969 9.999992370605469 10 34.22428131103516 10 63.99999237060547 C 10 93.77570343017578 34.22428894042969 117.9999923706055 64 117.9999923706055 C 93.77571105957031 117.9999923706055 118 93.77570343017578 118 63.99999237060547 C 118 34.22428131103516 93.77571105957031 9.999992370605469 64 9.999992370605469 M 64 -7.62939453125e-06 C 99.34620666503906 -7.62939453125e-06 128 28.65377807617188 128 63.99999237060547 C 128 99.34620666503906 99.34620666503906 127.9999923706055 64 127.9999923706055 C 28.65378570556641 127.9999923706055 0 99.34620666503906 0 63.99999237060547 C 0 28.65377807617188 28.65378570556641 -7.62939453125e-06 64 -7.62939453125e-06 Z" stroke="none" fill="#fff"/>
  </g>
  <g id="组_4032" data-name="组 4032" transform="translate(38.109 39.427)">
    <path id="路径_4893" data-name="路径 4893" d="M347.476,332.973l17.574,18.15a4.081,4.081,0,0,1,0,5.64l-1.365,1.41a3.775,3.775,0,0,1-5.461,0l-17.62-18.2L322.78,358.129a3.847,3.847,0,0,1-5.51,0l-1.377-1.4a4.021,4.021,0,0,1,0-5.612l17.865-18.2-17.173-17.744a4.081,4.081,0,0,1,0-5.64l1.365-1.41a3.775,3.775,0,0,1,5.461,0l17.222,17.793,17.271-17.592a3.847,3.847,0,0,1,5.51,0l1.378,1.4a4.021,4.021,0,0,1,0,5.612Z" transform="translate(-314.752 -306.948)" fill="#fff"/>
  </g>
</svg>
