<svg id="icon-Verification_succeeded" data-name="icon-Verification succeeded" xmlns="http://www.w3.org/2000/svg" width="128" height="128" viewBox="0 0 128 128">
  <g id="路径_4840" data-name="路径 4840" fill="#4dde96">
    <path d="M 64.00000762939453 123 C 56.03286361694336 123 48.30667495727539 121.4407501220703 41.03607177734375 118.3655395507812 C 37.54115295410156 116.8873138427734 34.16992568969727 115.0574188232422 31.01602935791016 112.9266891479492 C 27.89079856872559 110.8153305053711 24.95182037353516 108.3904190063477 22.28071594238281 105.7192916870117 C 19.60959053039551 103.0481872558594 17.1846752166748 100.1091842651367 15.07332038879395 96.98395538330078 C 12.94259071350098 93.83006286621094 11.11269474029541 90.45883178710938 9.634466171264648 86.96391296386719 C 6.559257507324219 79.69333648681641 5.000007629394531 71.96714782714844 5.000007629394531 64 C 5.000007629394531 56.03285598754883 6.559257507324219 48.30666732788086 9.634466171264648 41.03606414794922 C 11.11269474029541 37.54114532470703 12.94259071350098 34.16991806030273 15.07332038879395 31.01602172851562 C 17.1846752166748 27.89079093933105 19.60959053039551 24.95181274414062 22.28071594238281 22.28070831298828 C 24.95182037353516 19.60958290100098 27.89079856872559 17.18466758728027 31.01602935791016 15.07331275939941 C 34.16992568969727 12.94258308410645 37.54115295410156 11.11268711090088 41.03607177734375 9.634458541870117 C 48.30667495727539 6.559249877929688 56.03286361694336 5 64.00000762939453 5 C 71.96715545654297 5 79.69334411621094 6.559249877929688 86.96394348144531 9.634458541870117 C 90.4588623046875 11.11268711090088 93.83009338378906 12.94258308410645 96.98398590087891 15.07331275939941 C 100.1092147827148 17.18466758728027 103.0481948852539 19.60958290100098 105.7192993164062 22.28070831298828 C 108.3904266357422 24.95181274414062 110.8153381347656 27.89079093933105 112.9266967773438 31.01602172851562 C 115.0574264526367 34.16991806030273 116.887321472168 37.54114532470703 118.3655471801758 41.03606414794922 C 121.4407577514648 48.30666732788086 123.0000076293945 56.03285598754883 123.0000076293945 64 C 123.0000076293945 71.96714782714844 121.4407577514648 79.69333648681641 118.3655471801758 86.96391296386719 C 116.887321472168 90.45883178710938 115.0574264526367 93.83006286621094 112.9266967773438 96.98395538330078 C 110.8153381347656 100.1091842651367 108.3904266357422 103.0481872558594 105.7192993164062 105.7192916870117 C 103.0481948852539 108.3904190063477 100.1092147827148 110.8153305053711 96.98398590087891 112.9266891479492 C 93.83009338378906 115.0574188232422 90.4588623046875 116.8873138427734 86.96394348144531 118.3655395507812 C 79.69334411621094 121.4407501220703 71.96715545654297 123 64.00000762939453 123 Z" stroke="none"/>
    <path d="M 64.00000762939453 10 C 34.22429656982422 10 10.00000762939453 34.22428894042969 10.00000762939453 64 C 10.00000762939453 93.77571105957031 34.22429656982422 118 64.00000762939453 118 C 93.77571868896484 118 118.0000076293945 93.77571105957031 118.0000076293945 64 C 118.0000076293945 34.22428894042969 93.77571868896484 10 64.00000762939453 10 M 64.00000762939453 0 C 99.34622192382812 0 128 28.65378570556641 128 64 C 128 99.34620666503906 99.34622192382812 128 64.00000762939453 128 C 28.65377044677734 128 1.52587890625e-05 99.34620666503906 1.52587890625e-05 64 C 1.52587890625e-05 28.65378570556641 28.65377044677734 0 64.00000762939453 0 Z" stroke="none" fill="#fff"/>
  </g>
  <path id="路径_74" data-name="路径 74" d="M963.666,455.661l-15.008-12.3L942,448.939l25.956,27.574c4.5-11.937,18.642-35.288,35.937-51.883l-1.585-3.82a168.425,168.425,0,0,0-38.641,34.85Zm0,0" transform="translate(-908.642 -384.744)" fill="#fff"/>
</svg>
