<svg id="icon-windows-close" xmlns="http://www.w3.org/2000/svg" width="70" height="70" viewBox="0 0 70 70">
  <g id="椭圆_359" data-name="椭圆 359" fill="none" stroke="#fff" stroke-width="3">
    <circle cx="35" cy="35" r="35" stroke="none"/>
    <circle cx="35" cy="35" r="33.5" fill="none"/>
  </g>
  <g id="组_4009" data-name="组 4009" transform="translate(21.803 21.968)">
    <path id="路径_4838" data-name="路径 4838" d="M242.093,222.491a1.8,1.8,0,0,1,0,2.508l-22.9,22.565a1.868,1.868,0,0,1-2.545,0,1.8,1.8,0,0,1,0-2.508l22.9-22.565a1.868,1.868,0,0,1,2.546,0Z" transform="translate(-216.136 -221.99)" fill="#fff"/>
    <path id="路径_4839" data-name="路径 4839" d="M226.1,230.5a1.807,1.807,0,0,1,2.461,0l22.145,21.8a1.739,1.739,0,0,1,0,2.423,1.807,1.807,0,0,1-2.461,0l-22.145-21.8A1.739,1.739,0,0,1,226.1,230.5Z" transform="translate(-225.136 -229.615)" fill="#fff"/>
  </g>
</svg>
