<svg xmlns="http://www.w3.org/2000/svg" width="23.511" height="23.302" viewBox="0 0 23.511 23.302">
  <path id="icon-input-edit" d="M106.943,161.316a2.689,2.689,0,0,1,.175.564,3.276,3.276,0,0,1,.067.671,1.93,1.93,0,0,1-.134.7,2.142,2.142,0,0,1-.429.671q-.322.322-.577.564t-.443.43q-.215.215-.4.376l-4.546-4.431q.322-.3.765-.712t.738-.658a2.361,2.361,0,0,1,.779-.416,2.45,2.45,0,0,1,.792-.107,3.008,3.008,0,0,1,.752.121,3.874,3.874,0,0,1,.631.242,3.384,3.384,0,0,1,1.085.84A3.214,3.214,0,0,1,106.943,161.316ZM86.5,175.006q.161-.161.752-.765t1.477-1.49l1.96-1.96,2.175-2.175,5.772-5.772,4.545,4.458-5.772,5.772-2.148,2.175q-1.074,1.047-1.933,1.92T91.908,178.6q-.564.564-.671.644-.268.242-.617.51a3.349,3.349,0,0,1-.725.43,11.707,11.707,0,0,1-1.1.456q-.725.268-1.517.523c-.528.17-.877.286-1.446.479a6.61,6.61,0,0,1-.94.307c-.265.093-.643.279-.832.08s-.066-.356,0-.79a10.687,10.687,0,0,1,.284-1.1q.21-.74.429-1.477.228-.765.443-1.409a5.962,5.962,0,0,1,.349-.886,4.493,4.493,0,0,1,.362-.685A4.423,4.423,0,0,1,86.5,175.006Zm8.789,4.87h2.4v2.39h-2.4v-2.39Zm4.878,0h2.4v2.39h-2.4v-2.39Zm4.9,0h2.4v2.39h-2.4v-2.39Z" transform="translate(-83.958 -158.964)" fill="#3b6aff"/>
</svg>
