<svg id="icon-question" xmlns="http://www.w3.org/2000/svg" xmlns:xlink="http://www.w3.org/1999/xlink" width="128" height="128" viewBox="0 0 128 128">
  <defs>
    <linearGradient id="linear-gradient" x1="0.5" y1="0.931" x2="0.5" y2="0.082" gradientUnits="objectBoundingBox">
      <stop offset="0" stop-color="#6a6ae0"/>
      <stop offset="1" stop-color="#5192ff"/>
    </linearGradient>
  </defs>
  <g id="路径_4840" data-name="路径 4840" fill="url(#linear-gradient)">
    <path d="M 64 123 C 56.03285598754883 123 48.30666732788086 121.4407501220703 41.03606414794922 118.3655395507812 C 37.54114532470703 116.8873138427734 34.16991806030273 115.0574188232422 31.01602172851562 112.9266891479492 C 27.89079093933105 110.8153305053711 24.95181274414062 108.3904190063477 22.28070831298828 105.7192916870117 C 19.60958290100098 103.0481872558594 17.18466758728027 100.1092071533203 15.07331275939941 96.98397827148438 C 12.94258308410645 93.83008575439453 11.11268711090088 90.45885467529297 9.634458541870117 86.96393585205078 C 6.559249877929688 79.69333648681641 5 71.96714782714844 5 64 C 5 56.03285598754883 6.559249877929688 48.30666732788086 9.634458541870117 41.03606414794922 C 11.11268711090088 37.54114532470703 12.94258308410645 34.16991806030273 15.07331275939941 31.01602172851562 C 17.18466758728027 27.89079093933105 19.60958290100098 24.95181274414062 22.28070831298828 22.28070831298828 C 24.95181274414062 19.60958290100098 27.89079093933105 17.18466758728027 31.01602172851562 15.07331275939941 C 34.16991806030273 12.94258308410645 37.54114532470703 11.11268711090088 41.03606414794922 9.634458541870117 C 48.30666732788086 6.559249877929688 56.03285598754883 5 64 5 C 71.96714782714844 5 79.69333648681641 6.559249877929688 86.96393585205078 9.634458541870117 C 90.45885467529297 11.11268711090088 93.83008575439453 12.94258308410645 96.98397827148438 15.07331275939941 C 100.1092071533203 17.18466758728027 103.0481872558594 19.60958290100098 105.7192916870117 22.28070831298828 C 108.3904190063477 24.95181274414062 110.8153305053711 27.89079093933105 112.9266891479492 31.01602172851562 C 115.0574188232422 34.16991806030273 116.8873138427734 37.54114532470703 118.3655395507812 41.03606414794922 C 121.4407501220703 48.30666732788086 123 56.03285598754883 123 64 C 123 71.96714782714844 121.4407501220703 79.69333648681641 118.3655395507812 86.96393585205078 C 116.8873138427734 90.45885467529297 115.0574188232422 93.83008575439453 112.9266891479492 96.98397827148438 C 110.8153305053711 100.1092071533203 108.3904190063477 103.0481872558594 105.7192916870117 105.7192916870117 C 103.0481872558594 108.3904190063477 100.1092071533203 110.8153305053711 96.98397827148438 112.9266891479492 C 93.83008575439453 115.0574188232422 90.45885467529297 116.8873138427734 86.96393585205078 118.3655395507812 C 79.69333648681641 121.4407501220703 71.96714782714844 123 64 123 Z" stroke="none"/>
    <path d="M 64 10 C 34.22428894042969 10 10 34.22428894042969 10 64 C 10 93.77571105957031 34.22428894042969 118 64 118 C 93.77571105957031 118 118 93.77571105957031 118 64 C 118 34.22428894042969 93.77571105957031 10 64 10 M 64 0 C 99.34620666503906 0 128 28.65378570556641 128 64 C 128 99.34620666503906 99.34620666503906 128 64 128 C 28.65378570556641 128 0 99.34620666503906 0 64 C 0 28.65378570556641 28.65378570556641 0 64 0 Z" stroke="none" fill="#fff"/>
  </g>
  <g id="组_4257" data-name="组 4257" transform="translate(-253.964 -135.586)">
    <path id="路径_5159" data-name="路径 5159" d="M318.256,221.466a4.232,4.232,0,1,1-4.232,4.232A4.232,4.232,0,0,1,318.256,221.466Zm0-48.666a17.456,17.456,0,0,1,17.456,17.456c0,4.787-2.878,8.755-8.051,13.293l-.333.286-4.84,4.041v3.994a4.232,4.232,0,0,1-8.464,0v-5.343c0-1.947.545-2.9,2.248-4.459l1.317-1.143c.122-.106,3.465-2.841,4.486-3.74l.825-.741c2.883-2.661,4.348-4.793,4.348-6.189a8.993,8.993,0,1,0-17.985,0,4.232,4.232,0,0,1-8.464,0A17.456,17.456,0,0,1,318.256,172.8Z" fill="#fff"/>
  </g>
</svg>
