<svg xmlns="http://www.w3.org/2000/svg" width="22.725" height="25.64" viewBox="0 0 22.725 25.64">
  <g id="icon-biz-seemore" transform="translate(-423.572 -954.223)">
    <path id="路径_12960" data-name="路径 12960" d="M138.36,64.193a.751.751,0,0,1,.157.492V76.411s-.123.685-.714.685-.744-.685-.744-.685V65.48H118.112V87.342h8.016s1.007-.048,1.007.737-1.007.72-1.007.72H117.7a1.378,1.378,0,0,1-.78-.307,1.338,1.338,0,0,1-.27-.785V64.786a1.136,1.136,0,0,1,.225-.574.819.819,0,0,1,.52-.19h20.44A.9.9,0,0,1,138.36,64.193Zm-6.238,11.653A6.559,6.559,0,0,1,137.247,86.5l1.949,1.95s.412.619,0,1.031-1.031,0-1.031,0l-1.95-1.949a6.559,6.559,0,1,1-4.093-11.683Zm0,1.457a5.1,5.1,0,1,0,5.1,5.1A5.1,5.1,0,0,0,132.122,77.3Zm-6.7-1.666s.886.026.886.73-.886.728-.886.728h-4.372s-.741-.121-.741-.728.741-.73.741-.73Zm8.638-7.243s.942-.016.942.737-.942.721-.942.721H121.109s-.809-.119-.809-.732.809-.726.809-.726Z" transform="translate(306.917 890.201)" fill="#666"/>
    <path id="路径_12961" data-name="路径 12961" d="M134.7,74.805s.886.026.886.73-.886.728-.886.728H121.975s-.741-.121-.741-.728.741-.73.741-.73Z" transform="translate(306.061 887.352)" fill="#666"/>
  </g>
</svg>
