<svg xmlns="http://www.w3.org/2000/svg" width="39.074" height="41.087" viewBox="0 0 39.074 41.087">
  <path id="icon-Electronic_protocol_Unread_" data-name="icon-Electronic protocol（Unread）" d="M57.031,41.023H28.94a3.344,3.344,0,0,1-3.34-3.34V3.426A3.436,3.436,0,0,1,29.026,0H58.144A3.436,3.436,0,0,1,61.57,3.426v7.28c0,1.113-.086,2.055-1.2,2.055s-1.028-1.113-1.028-2.312V4.368c0-1.8-.771-2.484-2.484-2.484H30.053A2.256,2.256,0,0,0,27.57,4.368V36.655a2.45,2.45,0,0,0,2.484,2.484H56.945a2.363,2.363,0,0,0,2.4-2.4V31.259c0-1.2-.086-2.569,1.028-2.569s1.2.942,1.2,2.055V36.4a4.352,4.352,0,0,1-3.854,4.625.938.938,0,0,1-.685,0ZM61.4,15.587l-7.965,8.136a1.189,1.189,0,0,0-.428.856l-.514,2.4a.59.59,0,0,0,.428.685h.257l2.4-.685a1.332,1.332,0,0,0,.685-.514l7.965-8.136a1.71,1.71,0,0,0,0-2.312l-.514-.428A1.555,1.555,0,0,0,61.4,15.587ZM35.278,33.058a1.217,1.217,0,0,1-.514-.171,1,1,0,0,1-.428-1.37c4.453-7.965,6.166-7.708,6.766-7.622s1.2.343,1.37,1.627c.171,1.028.257,1.97.343,3v.6l.771-.856c1.542-1.627,2.484-2.741,3.683-2.484s1.285,1.37,1.456,1.627a3.5,3.5,0,0,1,.086,1.627l.514-.257a1,1,0,0,1,1.285.685.985.985,0,0,1-.428,1.2c-1.627.771-2.569,1.113-3.34.514a1.75,1.75,0,0,1-.343-1.8,2.377,2.377,0,0,0,0-1.542c-.514.514-1.028,1.113-1.542,1.627L44.1,30.4c-.428.514-1.37,1.456-2.4,1.113s-1.113-1.542-1.2-3.083a24.069,24.069,0,0,0-.086-2.484A31.517,31.517,0,0,0,36.048,32.2.746.746,0,0,1,35.278,33.058ZM32.537,7.708H53.348V9.763H32.537Zm0,4.2H53.348V13.96H32.537Zm0,4.111H49.152V18.07H32.537Z" transform="translate(-25.6)" fill="#6c6c6c"/>
</svg>
