<svg id="icon-notic-info-small" xmlns="http://www.w3.org/2000/svg" width="26" height="26" viewBox="0 0 26 26">
  <circle id="椭圆_358" data-name="椭圆 358" cx="12.178" cy="12.178" r="12.178" transform="translate(0.752 0.592)" fill="#fff"/>
  <g id="组_3236" data-name="组 3236">
    <path id="路径_4067" data-name="路径 4067" d="M311.667,324.539a13,13,0,1,1,13-13A13.014,13.014,0,0,1,311.667,324.539Zm.161-17.843a1.56,1.56,0,1,0-1.518-1.559A1.454,1.454,0,0,0,311.828,306.7Zm1.747,10.8-.075-.036a1.327,1.327,0,0,1-.3-.934V308.9a.651.651,0,0,0-.283-.539.612.612,0,0,0-.593-.057l-2.192.947a.959.959,0,0,0-.564.744.985.985,0,0,0,.317.887l.733.645v4.993a.974.974,0,0,1-.546.994.836.836,0,0,0-.517.76v.089a.8.8,0,0,0,.788.809h2.92a.855.855,0,0,0,.827-.708A.874.874,0,0,0,313.575,317.5Z" transform="translate(-298.667 -298.539)" fill="#3b6aff"/>
  </g>
</svg>
