<?xml version="1.0" encoding="UTF-8"?>
<svg width="240px" height="165px" viewBox="0 0 240 165" version="1.1" xmlns="http://www.w3.org/2000/svg" xmlns:xlink="http://www.w3.org/1999/xlink">
    <!-- Generator: Sketch 52.4 (67378) - http://www.bohemiancoding.com/sketch -->
    <title>身份证正面</title>
    <desc>Created with Sketch.</desc>
    <g id="pad" stroke="none" stroke-width="1" fill="none" fill-rule="evenodd">
        <g id="iPad/03验证01" transform="translate(-179.000000, -270.000000)">
            <g id="分组" transform="translate(99.000000, 218.000000)">
                <g id="身份证正面" transform="translate(80.000000, 10.000000)">
                    <rect id="矩形" fill="#000000" opacity="0" x="0" y="0" width="240" height="240"></rect>
                    <path d="M25.6425438,79.5610901 L114.164304,79.5610901 L114.164304,88.1091525 L25.6425438,88.1091525 L25.6425438,79.5610901 Z M25.6425438,120.082193 L114.164304,120.082193 L114.164304,128.630255 L25.6425438,128.630255 L25.6425438,120.082193 Z M25.6425438,160.521103 L216.987629,160.521103 L216.987629,169.069165 L25.6425438,169.069165 L25.6425438,160.521103 Z" id="形状" fill-opacity="0.5" fill="#FFFFFF" fill-rule="nonzero"></path>
                    <path d="M213.288948,140.301648 C213.288948,142.274278 211.562897,143.918136 209.425882,143.918136 L139.972876,143.918136 C137.835861,143.918136 136.10981,142.274277 136.10981,140.301648 C136.10981,140.301648 136.10981,127.232976 146.466116,122.54798 C153.041548,119.506843 148.84971,121.97263 156.904615,118.931492 C164.95952,115.890355 165.206099,114.821847 165.206098,114.821847 L165.288291,107.753257 C165.288291,107.753257 162.247154,105.616241 161.343032,98.958616 C159.452595,99.4517735 158.877245,96.9037933 158.712859,95.3421283 C158.630666,93.7804632 157.644351,88.9310815 159.945752,89.3420459 C159.452595,86.0543296 159.123823,83.1775781 159.288209,81.6159127 C159.863559,76.191181 165.617063,70.4376776 174.411704,70.0267131 C184.76801,70.4376776 188.877655,76.1089882 189.453006,81.6159127 C189.617392,83.1775778 189.28862,86.1365224 188.795462,89.3420459 C191.096864,88.9310815 190.110549,93.7804629 189.946163,95.3421283 C189.86397,96.9859864 189.206427,99.4517735 187.31599,98.958616 C186.411868,105.616241 183.370731,107.671064 183.370731,107.671064 L183.452924,114.739654 C183.452924,114.739654 184.521431,115.725969 192.576336,118.767106 C200.631241,121.808244 196.439403,119.506842 203.014835,122.54798 C213.288949,127.232976 213.288949,140.301648 213.288948,140.301648 Z" id="路径" fill-opacity="0.5" fill="#FFFFFF"></path>
                    <path d="M224.795955,206.138166 L15.2040446,206.138166 C7.3135255,206.138166 0.98467179,199.727119 0.98467179,191.918793 L0.98467179,56.7936551 C0.98467179,48.903136 7.39571856,42.5742823 15.2040446,42.5742823 L224.795955,42.5742823 C232.686475,42.5742823 239.015328,48.9853291 239.015328,56.7936551 L239.015328,191.8366 C239.015328,199.727119 232.686475,206.138165 224.795955,206.138166 Z M15.2040446,47.7524354 C10.1902773,47.7524354 6.16282488,51.7798879 6.16282488,56.7936551 L6.16282488,191.8366 C6.16282488,196.850367 10.1902773,200.87782 15.2040446,200.87782 L224.795955,200.87782 C229.809723,200.87782 233.837175,196.850367 233.837175,191.8366 L233.837175,56.7936551 C233.837175,51.7798879 229.809723,47.7524354 224.795955,47.7524354 L15.2040446,47.7524354 Z" id="形状" fill-opacity="0.5" fill="#FFFFFF" fill-rule="nonzero"></path>
                </g>
            </g>
        </g>
    </g>
</svg>