<?xml version="1.0" encoding="UTF-8"?>
<svg width="239px" height="164px" viewBox="0 0 239 164" version="1.1" xmlns="http://www.w3.org/2000/svg" xmlns:xlink="http://www.w3.org/1999/xlink">
    <!-- Generator: Sketch 52.4 (67378) - http://www.bohemiancoding.com/sketch -->
    <title>身份证反面</title>
    <desc>Created with Sketch.</desc>
    <g id="pad" stroke="none" stroke-width="1" fill="none" fill-rule="evenodd">
        <g id="iPad/03验证01" transform="translate(-606.000000, -277.000000)">
            <g id="分组-2" transform="translate(525.000000, 220.000000)">
                <g id="身份证反面" transform="translate(80.000000, 10.000000)">
                    <rect id="矩形" fill="#000000" opacity="0" x="0" y="0" width="240" height="240"></rect>
                    <path d="M217.211131,92.7941481 L128.607179,92.7941481 L128.607179,84.2460859 L217.211131,84.2460859 L217.211131,92.7941481 Z M217.211131,133.315251 L128.607179,133.315251 L128.607179,124.767189 L217.211131,124.767189 L217.211131,133.315251 Z M217.211131,173.754161 L25.8660459,173.754161 L25.8660459,165.206098 L217.211131,165.206098 L217.211131,173.754161 Z" id="形状" fill-opacity="0.5" fill="#FFFFFF" fill-rule="nonzero"></path>
                    <path d="M225.019457,210.740968 L15.4275469,210.740968 C7.53702782,210.740968 1.20817411,204.329922 1.20817411,196.521596 L1.20817411,61.3964579 C1.20817411,53.5059388 7.61922089,47.1770851 15.4275469,47.1770851 L225.019457,47.1770851 C232.909977,47.1770851 239.23883,53.5881319 239.23883,61.3964579 L239.23883,196.439403 C239.321023,204.329922 232.909977,210.740968 225.019457,210.740968 Z M15.4275469,52.3552382 C10.4137797,52.3552382 6.3863272,56.3826907 6.3863272,61.3964579 L6.3863272,196.439403 C6.3863272,201.45317 10.4137797,205.480622 15.4275469,205.480622 L225.019457,205.480622 C230.033225,205.480622 234.060677,201.45317 234.060677,196.439403 L234.060677,61.3964579 C234.060677,56.3826907 230.033225,52.3552382 225.019457,52.3552382 L15.4275469,52.3552382 Z" id="形状" fill-opacity="0.5" fill="#FFFFFF" fill-rule="nonzero"></path>
                    <path d="M85.6202886,132.657707 C91.2915992,126.904204 94.4149297,119.424649 94.4149297,111.369745 C94.4149297,94.520199 80.4421355,80.7939838 63.1816253,80.7939838 C45.9211151,80.7939838 31.9483209,94.520199 31.9483209,111.369745 C31.9483209,119.42465 35.0716514,126.904204 40.7429617,132.657707 L39.5922611,139.80849 C39.4278753,140.630419 39.8388397,141.370155 40.4963831,141.78112 C40.9073476,142.027699 41.2361193,142.192085 41.6470837,142.274277 C41.8936624,142.767435 42.3868199,143.178399 42.9621702,143.260593 C43.126556,143.260593 43.2909419,143.342785 43.4553277,143.342785 C43.7019064,144.000329 44.2772567,144.493486 45.0169931,144.575679 C45.2635717,144.657872 45.5101506,144.657872 45.7567293,144.740065 L45.7567293,144.822258 C46.085501,145.479801 46.743044,145.890765 47.4827802,145.972958 L51.3458468,146.30173 C52.085583,146.383923 52.8253191,145.972958 53.2362836,145.397608 L53.8116339,145.397608 C54.6335628,145.972958 55.6198779,145.972958 56.0308424,145.972958 L56.1952282,145.972958 C56.6061927,146.137344 57.0993502,146.137344 57.5925078,146.055151 L57.8390864,146.055151 L60.798031,146.383923 L61.0446096,146.383923 C61.3733813,146.383923 61.6199599,146.30173 61.9487316,146.219537 C62.9350464,146.30173 63.6747825,146.30173 64.6610976,146.219537 C64.9898693,146.383923 65.4008338,146.466116 65.7296055,146.383923 L68.6885501,146.055151 L68.8529356,146.055151 C69.2639001,146.137344 69.5926718,146.137344 70.0036365,145.972958 L70.414601,145.972958 C70.9077585,145.972958 71.8940733,145.890765 72.7160023,145.397608 L73.2913526,145.397608 C73.702317,145.972958 74.4420532,146.383923 75.1817896,146.30173 L78.8804704,145.972958 C79.3736279,145.972958 79.8667852,145.72638 80.1955569,145.397608 C80.3599427,145.233222 80.5243286,144.986643 80.6887141,144.822258 C80.9352927,144.740065 81.2640644,144.740065 81.5106433,144.657872 C82.2503795,144.493486 82.8257298,144.000328 83.0723084,143.424978 C83.2366943,143.424978 83.4010801,143.342786 83.565466,143.342785 C84.1408163,143.178399 84.6339738,142.849628 84.8805524,142.356471 C85.2093241,142.274278 85.6202886,142.109892 86.031253,141.863313 C86.6887964,141.452349 87.0175678,140.630419 86.935375,139.890683 L85.6202886,132.657707 Z M74.5242463,103.31484 L75.7571399,100.76686 L76.414683,103.479226 L78.9626632,103.479226 L76.9078406,104.794312 C77.0722264,105.616241 77.2366123,106.602556 77.4009981,107.506678 C76.7434547,106.849135 76.0037186,106.355978 75.3461755,105.86282 C74.5242465,106.355978 73.6201245,106.684749 72.9625812,107.177907 L73.7845101,104.794312 L71.8940733,103.31484 C72.7981953,103.150454 73.6201243,103.31484 74.5242463,103.31484 Z M71.0721441,113.095796 L68.5241642,112.438253 L67.1268847,114.657461 L66.798113,112.109481 C66.1405696,111.780709 65.2364479,111.616323 64.4145187,111.451938 L66.798113,110.465623 C66.798113,109.643694 66.6337272,108.821765 66.6337272,107.917643 L68.3597784,109.725887 L70.7433727,109.068344 L69.510479,111.123166 C70.0858293,111.698516 70.5789869,112.35606 71.0721441,113.095796 Z M61.4555741,97.4791437 L63.1816253,92.4653764 L64.9076762,97.4791437 L70.0858293,97.4791437 L65.8117982,100.520281 L65.8117982,100.684667 L67.2090778,105.040891 L63.2638181,102.328525 L59.3185587,105.040891 L60.7158379,100.684667 L60.7158379,100.520281 L56.4418068,97.4791437 L61.4555741,97.4791437 Z M55.6198779,109.068344 L58.0034722,109.725887 L59.7295232,107.917643 C59.7295232,108.739572 59.5651373,109.561501 59.5651373,110.465623 L61.9487316,111.451938 C61.1268027,111.616324 60.2226807,111.78071 59.5651373,112.109481 L59.2363656,114.657461 L57.6747005,112.438253 L55.2911062,113.095796 C55.7842638,112.438253 56.3596141,111.78071 56.8527716,111.040973 L55.6198779,109.068344 Z M49.9485673,103.479226 L50.4417248,100.76686 L51.8390041,103.31484 C52.660933,103.31484 53.565055,103.150454 54.3869842,103.31484 L52.4965474,104.794312 L53.3184764,107.177907 C52.660933,106.684749 51.7568113,106.355978 50.9348824,105.86282 C50.277339,106.355978 49.5376028,106.849135 48.8800594,107.506678 C49.0444453,106.684749 49.2088311,105.698434 49.373217,104.794312 L47.3183944,103.479226 L49.9485673,103.479226 Z M78.4695057,132.657707 C73.9809782,135.772802 68.6451914,137.43665 63.1816253,137.424896 C57.6747005,137.424896 52.3321616,135.781038 47.8937447,132.657707 C47.2362013,132.246743 47.1540085,131.342621 47.564973,130.767271 C47.9759374,130.19192 48.8800594,130.027534 49.5376028,130.438499 C53.5650553,133.233058 58.3322439,134.71253 63.2638181,134.71253 C68.1953923,134.712531 72.9625809,133.233058 76.9900333,130.438499 C77.6475767,130.027534 78.4695057,130.109727 78.9626632,130.767271 C79.2914349,131.424814 79.127049,132.246743 78.4695057,132.657707 Z" id="形状" fill-opacity="0.5" fill="#FFFFFF" fill-rule="nonzero"></path>
                </g>
            </g>
        </g>
    </g>
</svg>