<?xml version="1.0" encoding="UTF-8"?>
<svg width="28px" height="27px" viewBox="0 0 28 27" version="1.1" xmlns="http://www.w3.org/2000/svg" xmlns:xlink="http://www.w3.org/1999/xlink">
    <!-- Generator: Sketch 52.5 (67469) - http://www.bohemiancoding.com/sketch -->
    <title>客服 (1)</title>
    <desc>Created with Sketch.</desc>
    <g id="Symbols" stroke="none" stroke-width="1" fill="none" fill-rule="evenodd">
        <g id="ic_kefu" transform="translate(-22.000000, -14.000000)" fill="#FFFFFF">
            <g id="客服-(1)" transform="translate(19.000000, 9.000000)">
                <g id="ic/serviceman_w-copy">
                    <g id="dianhua" transform="translate(3.000000, 5.000000)">
                        <g id="组_295" transform="translate(0.752000, 0.456000)">
                            <path d="M18.674,26.186 C18.0587254,26.191749 17.4446894,26.1297082 16.843,26.001 C15.4653669,25.7779484 14.1495653,25.2694079 12.98,24.508 C11.2025084,23.4577462 9.52838067,22.2416598 7.98,20.876 C6.22720115,19.368426 4.64779517,17.6702879 3.271,15.813 C1.92602959,14.0696155 0.966232776,12.0607226 0.455,9.919 C-0.145,6.98 0.178,4.687 1.424,3.102 C2.34371543,1.95906893 3.6872457,1.23751669 5.148,1.102 L5.21,1.102 C5.87929903,1.13522781 6.5389705,1.27533204 7.164,1.517 C8.5120242,2.00280465 9.6020587,3.01983286 10.18,4.331 C10.6220391,5.23522744 10.6723122,6.28155831 10.319,7.224 C10.0054228,7.95140738 9.57395998,8.62208369 9.042,9.209 C8.61699888,9.67724895 8.26443118,10.2064376 7.996,10.779 C8.03445351,11.1023564 8.1564575,11.4101235 8.35,11.672 C8.7408147,12.305927 9.19443354,12.8989147 9.704,13.442 C10.8628091,14.7070384 12.1466855,15.8515378 13.536,16.858 C14.3431756,17.5704231 15.3167903,18.0680636 16.367,18.305 C17.967,18.243 19.876,16.766 20.43,16.32 C20.8451516,15.9815084 21.3722846,15.8112698 21.907,15.843 C24.061,15.982 25.523,16.689 26.247,17.92 C26.69933,18.75196 26.836046,19.7192702 26.632,20.644 C26.5488516,21.0909289 26.4090577,21.5254324 26.216,21.937 L26.201,21.983 L26.17,22.029 C24.8570868,24.1972235 22.6562259,25.67751 20.153,26.076 C19.6631761,26.1471821 19.1689647,26.1839388 18.674,26.186 Z" id="路径_183" fill-rule="nonzero"></path>
                            <path d="M20.644,14.583 L20.552,14.583 C20.3089418,14.5612058 20.0845957,14.4434285 19.928628,14.2557416 C19.7726602,14.0680548 19.6979368,13.8259411 19.721,13.583 C19.9614462,12.0820036 19.5532406,10.5495059 18.598,9.367 C17.438285,8.2372981 15.906031,7.5698484 14.289,7.49 C13.9570581,7.48878955 13.6517458,7.30809171 13.4909634,7.01768523 C13.330181,6.72727874 13.3390912,6.37261286 13.5142533,6.09064627 C13.6894154,5.80867968 14.003416,5.64354077 14.335,5.659 C16.4577734,5.7575698 18.4668352,6.64687928 19.967,8.152 C21.2698696,9.71347503 21.8414093,11.7582767 21.537,13.769 C21.4927944,14.2295248 21.1066392,14.5815185 20.644,14.583 Z" id="路径_184"></path>
                            <path d="M25.491,13.306 L25.379,13.306 C25.1359939,13.2758135 24.9150131,13.1500964 24.764896,12.956633 C24.614779,12.7631697 24.5478857,12.5178891 24.579,12.275 C24.933,9.397 24.348,7.089 22.855,5.427 C19.977,2.227 14.638,2.288 14.591,2.288 C14.2610652,2.29353763 13.9532386,2.1226365 13.7834755,1.83967341 C13.6137124,1.55671032 13.6078038,1.20467409 13.7679755,0.91617338 C13.9281472,0.62767267 14.2300652,0.446537599 14.56,0.441 C15.7415706,0.446619717 16.9187162,0.585837563 18.069,0.856 C19.1537705,1.09880642 20.2070221,1.46554867 21.208,1.949 C22.3543415,2.49460117 23.3837502,3.25774242 24.239,4.196 C26.116,6.273 26.855,9.074 26.424,12.506 C26.3479429,12.9635189 25.9547667,13.3006474 25.491,13.306 Z" id="路径_185"></path>
                        </g>
                    </g>
                </g>
            </g>
        </g>
    </g>
</svg>