<svg xmlns="http://www.w3.org/2000/svg" width="36.693" height="41.866" viewBox="0 0 36.693 41.866">
  <path id="提醒" d="M154.825,95.432q-.806-1.1-1.8-2.622a27.648,27.648,0,0,1-1.832-3.278,26.983,26.983,0,0,1-1.479-3.763,12.966,12.966,0,0,1-.576-3.825,13.339,13.339,0,0,0-.665-4.321,13.089,13.089,0,0,0-1.761-3.48,11,11,0,0,0-2.655-2.592A12.36,12.36,0,0,0,140.909,70a4.173,4.173,0,0,0,.4-1.764,4.238,4.238,0,1,0-8.475,0,4.183,4.183,0,0,0,.392,1.755c-.11.027-.238.048-.336.074a12.465,12.465,0,0,0-3.05,1.583,11.877,11.877,0,0,0-2.563,2.524,12.463,12.463,0,0,0-1.791,3.43,13.188,13.188,0,0,0-.695,4.383,12.875,12.875,0,0,1-.573,3.852,28.911,28.911,0,0,1-1.464,3.706,34.617,34.617,0,0,1-1.8,3.3c-.677,1.087-1.259,2.067-1.719,2.883A2.725,2.725,0,0,0,119,98.591a2.5,2.5,0,0,0,2.177,1.336h31.588A2.555,2.555,0,0,0,154,99.5a2.891,2.891,0,0,0,1.39-2.319A2.638,2.638,0,0,0,154.825,95.432ZM137.072,66.971a1.268,1.268,0,1,1-1.268,1.268A1.269,1.269,0,0,1,137.072,66.971ZM122.049,96.958c.419,0,.891-1.6,1.422-2.459a36.9,36.9,0,0,0,1.957-3.626,32.562,32.562,0,0,0,1.618-4.113A15.985,15.985,0,0,0,127.76,82a10.341,10.341,0,0,1,.532-3.415,9.548,9.548,0,0,1,1.363-2.631,8.87,8.87,0,0,1,1.9-1.883,9.192,9.192,0,0,1,2.227-1.173,14.941,14.941,0,0,1,3.109-.208c1.663,0,2.973.1,3.065.1a9.35,9.35,0,0,1,2.411,1.2,8.06,8.06,0,0,1,1.933,1.892,10.052,10.052,0,0,1,1.354,2.687,10.506,10.506,0,0,1,.508,3.371,15.932,15.932,0,0,0,.71,4.706,29.389,29.389,0,0,0,1.642,4.173,32.715,32.715,0,0,0,2.022,3.706c.57.87,1.09,2.429,1.589,2.429H122.049Zm7.6,5.939H144.5v2.97H129.648Z" transform="translate(-118.697 -64.001)" fill="#ea384c"/>
</svg>
