<svg xmlns="http://www.w3.org/2000/svg" viewBox="0 0 72 72" width='72px' height='72px'>
  <defs>
    <style>
      .cls-1 {
        fill: #b0b0b0;
        fill-rule: evenodd;
      }

      .cls-2 {
        fill: none;
      }
    </style>
  </defs>
  <g id="Group_1" data-name="Group 1" transform="translate(62 16)">
    <g id="loading-grey" transform="translate(-62 -15)">
      <g id="ic_loading-grey" data-name="ic/loading-grey" transform="translate(0 1)">
        <g id="Page-1-2" data-name="Page-1" transform="translate(0 0)">
          <path id="Fill-1" class="cls-1" d="M59.748,33.763a6.13,6.13,0,1,0,1.794-4.339,6.214,6.214,0,0,0-1.794,4.339M56.331,20.507a5.685,5.685,0,1,0,1.664-4.03,5.763,5.763,0,0,0-1.664,4.03M47.738,10.27a5.252,5.252,0,1,0,1.537-3.717,5.325,5.325,0,0,0-1.537,3.717M35.646,4.82A4.812,4.812,0,1,0,43.86,1.409,4.811,4.811,0,0,0,35.646,4.82M22.438,5.2A4.373,4.373,0,1,0,29.9,2.1a4.373,4.373,0,0,0-7.466,3.1m-11.76,6.147a3.942,3.942,0,1,0,1.154-2.792,3.995,3.995,0,0,0-1.154,2.792M2.668,22.076a3.5,3.5,0,0,0,3.5,3.5A3.5,3.5,0,1,0,3.7,19.6a3.554,3.554,0,0,0-1.028,2.479M0,35.385a3.065,3.065,0,0,0,3.06,3.064,3.066,3.066,0,0,0,0-6.132A3.065,3.065,0,0,0,0,35.385M3.246,48.779a2.619,2.619,0,0,0,2.623,2.628,2.632,2.632,0,1,0-2.623-2.628m8.645,10.908a2.186,2.186,0,1,0,4.373,0,2.186,2.186,0,1,0-4.373,0M24.373,66.1a1.749,1.749,0,0,0,1.746,1.752,1.75,1.75,0,1,0-1.236-2.99,1.786,1.786,0,0,0-.51,1.238m14.072.693a1.312,1.312,0,0,0,2.24.928,1.314,1.314,0,0,0-.927-2.244A1.309,1.309,0,0,0,38.445,66.8m13.07-5.159a.87.87,0,0,0,.874.872.87.87,0,0,0,.875-.872.877.877,0,0,0-.875-.876.877.877,0,0,0-.874.876m9.7-10.024a.439.439,0,1,0,.439-.44.459.459,0,0,0-.439.44" transform="translate(0 0)"/>
        </g>
      </g>
    </g>
    <rect id="Rectangle_1" data-name="Rectangle 1" class="cls-2" width="72" height="72" transform="translate(-62 -16)"/>
  </g>
</svg>
