<?xml version="1.0" encoding="UTF-8"?>
<svg width="36px" height="36px" viewBox="0 0 36 36" version="1.1" xmlns="http://www.w3.org/2000/svg" xmlns:xlink="http://www.w3.org/1999/xlink">
    <!-- Generator: Sketch 48.2 (47327) - http://www.bohemiancoding.com/sketch -->
    <title>ic/loading-grey</title>
    <desc>Created with Sketch.</desc>
    <defs>
        <polygon id="path-1" points="0 25 0 0 27 0 27 25"></polygon>
        <polygon id="path-3" points="0 34.0540541 0 0 36 0 36 34.0540541"></polygon>
    </defs>
    <g id="Symbols" stroke="none" stroke-width="1" fill="none" fill-rule="evenodd">
        <g id="ic/loading-grey">
            <g id="Page-1">
                <mask id="mask-2" fill="white">
                    <use xlink:href="#path-1"></use>
                </mask>
                <g id="Clip-2"></g>
            </g>
            <g id="Page-1" transform="translate(0.000000, 1.000000)">
                <mask id="mask-4" fill="white">
                    <use xlink:href="#path-3"></use>
                </mask>
                <g id="Clip-2"></g>
                <path d="M29.8739281,16.8816403 C29.8739281,17.6849953 30.2034829,18.4827586 30.770853,19.0512582 C31.3384093,19.6197577 32.1348489,19.9496738 32.936871,19.9496738 C33.7390792,19.9496738 34.5355188,19.6197577 35.103075,19.0512582 C35.6704452,18.4827586 36,17.6849953 36,16.8816403 C36,16.0782852 35.6704452,15.2805219 35.103075,14.7120224 C34.5355188,14.1453868 33.7390792,13.8136067 32.936871,13.8136067 C32.1348489,13.8136067 31.3384093,14.1453868 30.770853,14.7120224 C30.2034829,15.2805219 29.8739281,16.0782852 29.8739281,16.8816403 M28.1656768,10.2534949 C28.1656768,10.999068 28.4708546,11.7390494 28.9974724,12.2665424 C29.5240901,12.7940354 30.2648906,13.1015843 31.0092267,13.1015843 C31.7535627,13.1015843 32.4921302,12.7940354 33.018748,12.2665424 C33.5453657,11.7390494 33.8525904,10.999068 33.8525904,10.2534949 C33.8525904,9.50605778 33.5453657,8.76607642 33.018748,8.23858341 C32.4921302,7.7110904 31.7535627,7.40540541 31.0092267,7.40540541 C30.2648906,7.40540541 29.5240901,7.7110904 28.9974724,8.23858341 C28.4708546,8.76607642 28.1656768,9.50605778 28.1656768,10.2534949 M23.8689969,5.13513514 C23.8689969,5.82292637 24.1518446,6.50698975 24.6375238,6.99347623 C25.1233892,7.47996272 25.8063176,7.76328052 26.4927815,7.76328052 C27.1796176,7.76328052 27.8623599,7.47996272 28.3482252,6.99347623 C28.8337184,6.50698975 29.1167522,5.82292637 29.1167522,5.13513514 C29.1167522,4.4473439 28.8337184,3.76328052 28.3482252,3.27679404 C27.8623599,2.79030755 27.1796176,2.50698975 26.4927815,2.50698975 C25.8063176,2.50698975 25.1233892,2.79030755 24.6375238,3.27679404 C24.1518446,3.76328052 23.8689969,4.4473439 23.8689969,5.13513514 M17.8231271,2.41006524 C17.8231271,3.04007456 18.08197,3.66821994 18.5267108,4.11369991 C18.9733125,4.5610438 19.5983687,4.82013048 20.2293796,4.82013048 C20.8583435,4.82013048 21.4854467,4.5610438 21.9301875,4.11369991 C22.376603,3.66821994 22.6354459,3.04007456 22.6354459,2.41006524 C22.6354459,1.77819199 22.376603,1.15191053 21.9301875,0.704566636 C21.4854467,0.259086673 20.8583435,0 20.2293796,0 C19.5983687,0 18.9733125,0.259086673 18.5267108,0.704566636 C18.08197,1.15191053 17.8231271,1.77819199 17.8231271,2.41006524 M11.2190054,2.60018639 C11.2190054,3.17427773 11.4534712,3.74464119 11.8591344,4.14911463 C12.2649836,4.555452 12.8323538,4.79030755 13.4056787,4.79030755 C13.9788174,4.79030755 14.5461876,4.555452 14.9520368,4.14911463 C15.3575139,3.74464119 15.5921659,3.17427773 15.5921659,2.60018639 C15.5921659,2.02795899 15.3575139,1.45759553 14.9520368,1.05125815 C14.5461876,0.646784716 13.9788174,0.410065238 13.4056787,0.410065238 C12.8323538,0.410065238 12.2649836,0.646784716 11.8591344,1.05125815 C11.4534712,1.45759553 11.2190054,2.02795899 11.2190054,2.60018639 M5.33875045,5.67381174 C5.33875045,6.19012116 5.55107231,6.7027027 5.9156109,7.06803355 C6.28033557,7.4333644 6.79206662,7.64585275 7.30938019,7.64585275 C7.82483291,7.64585275 8.33656396,7.4333644 8.70128863,7.06803355 C9.06619939,6.7027027 9.27814908,6.19012116 9.27814908,5.67381174 C9.27814908,5.15750233 9.06619939,4.64305685 8.70128863,4.277726 C8.33656396,3.91425909 7.82483291,3.6999068 7.30938019,3.6999068 C6.79206662,3.6999068 6.28033557,3.91425909 5.9156109,4.277726 C5.55107231,4.64305685 5.33875045,5.15750233 5.33875045,5.67381174 M1.3342224,11.0382106 C1.3342224,11.4967381 1.5240281,11.9534017 1.84800037,12.277726 C2.17160048,12.6020503 2.62564548,12.7903075 3.08545908,12.7903075 C3.54303968,12.7903075 3.99708468,12.6020503 4.32273171,12.277726 C4.64670399,11.9534017 4.83446276,11.4967381 4.83446276,11.0382106 C4.83446276,10.5796831 4.64670399,10.1230196 4.32273171,9.79869525 C3.99708468,9.47437092 3.54303968,9.2861137 3.08545908,9.2861137 C2.62564548,9.2861137 2.17160048,9.47437092 1.84800037,9.79869525 C1.5240281,10.1230196 1.3342224,10.5796831 1.3342224,11.0382106 M0,17.6924511 C0,18.0931966 0.165800859,18.4920783 0.448648565,18.7753961 C0.731496271,19.0587139 1.12952998,19.2246039 1.5297967,19.2246039 C1.9315521,19.2246039 2.32977189,19.0587139 2.6126196,18.7753961 C2.89565339,18.4920783 3.06126816,18.0931966 3.06126816,17.6924511 C3.06126816,17.2898416 2.89565339,16.8909599 2.6126196,16.6076421 C2.32977189,16.3243243 1.9315521,16.1584343 1.5297967,16.1584343 C1.12952998,16.1584343 0.731496271,16.3243243 0.448648565,16.6076421 C0.165800859,16.8909599 0,17.2898416 0,17.6924511 M1.62283871,24.389562 C1.62283871,24.7325256 1.76407648,25.0754893 2.0059857,25.3196645 C2.24975576,25.5619758 2.59233644,25.7036347 2.93454495,25.7036347 C3.27898646,25.7036347 3.62119497,25.5619758 3.86310419,25.3196645 C4.10687425,25.0754893 4.24848419,24.7325256 4.24848419,24.389562 C4.24848419,24.0447344 4.10687425,23.7017707 3.86310419,23.4594595 C3.62119497,23.2152842 3.27898646,23.0736253 2.93454495,23.0736253 C2.59233644,23.0736253 2.24975576,23.2152842 2.0059857,23.4594595 C1.76407648,23.7017707 1.62283871,24.0447344 1.62283871,24.389562 M5.94557043,29.8434296 C5.94557043,30.1304753 6.06280336,30.415657 6.26544885,30.6169618 C6.46828043,30.8201305 6.75112813,30.9375582 7.03769752,30.9375582 C7.32426691,30.9375582 7.60916154,30.8201305 7.81180703,30.6169618 C8.01296385,30.415657 8.13205762,30.1304753 8.13205762,29.8434296 C8.13205762,29.556384 8.01296385,29.2712022 7.81180703,29.0680336 C7.60916154,28.8667288 7.32426691,28.7474371 7.03769752,28.7474371 C6.75112813,28.7474371 6.46828043,28.8667288 6.26544885,29.0680336 C6.06280336,29.2712022 5.94557043,29.556384 5.94557043,29.8434296 M12.1866423,33.0512582 C12.1866423,33.2805219 12.2815451,33.5079217 12.4415774,33.6700839 C12.6034705,33.832246 12.8323538,33.9273066 13.0595624,33.9273066 C13.2884457,33.9273066 13.5173291,33.832246 13.6771752,33.6700839 C13.8392544,33.5079217 13.9339712,33.2805219 13.9339712,33.0512582 C13.9339712,32.8219944 13.8392544,32.5945946 13.6771752,32.4324324 C13.5173291,32.2702703 13.2884457,32.1770736 13.0595624,32.1770736 C12.8323538,32.1770736 12.6034705,32.2702703 12.4415774,32.4324324 C12.2815451,32.5945946 12.1866423,32.8219944 12.1866423,33.0512582 M19.222665,33.3979497 C19.222665,33.5694315 19.293377,33.7409133 19.4141455,33.862069 C19.5369609,33.9832246 19.7062974,34.0540541 19.8793555,34.0540541 C20.0505528,34.0540541 20.2219362,33.9832246 20.3427047,33.862069 C20.4655202,33.7409133 20.5362321,33.5694315 20.5362321,33.3979497 C20.5362321,33.2246039 20.4655202,33.0531221 20.3427047,32.9319664 C20.2219362,32.8108108 20.0505528,32.7399814 19.8793555,32.7399814 C19.7062974,32.7399814 19.5369609,32.8108108 19.4141455,32.9319664 C19.293377,33.0531221 19.222665,33.2246039 19.222665,33.3979497 M25.7579357,30.8182665 C25.7579357,30.9319664 25.8063176,31.0456664 25.8861476,31.1276794 C25.9682106,31.2078285 26.0815358,31.2544268 26.1950471,31.2544268 C26.3106052,31.2544268 26.4239304,31.2078285 26.5041326,31.1276794 C26.5858235,31.0456664 26.6323445,30.9319664 26.6323445,30.8182665 C26.6323445,30.7027027 26.5858235,30.5890028 26.5041326,30.5088537 C26.4239304,30.4268406 26.3106052,30.3802423 26.1950471,30.3802423 C26.0815358,30.3802423 25.9682106,30.4268406 25.8861476,30.5088537 C25.8063176,30.5890028 25.7579357,30.7027027 25.7579357,30.8182665 M30.6070991,25.806151 C30.6070991,25.9217148 30.7133531,26.0260951 30.8266782,26.0260951 C30.9420503,26.0260951 31.0464435,25.9217148 31.0464435,25.806151 C31.0464435,25.6905871 30.9420503,25.5862069 30.8266782,25.5862069 C30.7133531,25.5862069 30.6070991,25.6905871 30.6070991,25.806151" id="Fill-1" fill="#B0B0B0" mask="url(#mask-4)"></path>
            </g>
        </g>
    </g>
</svg>