<svg xmlns="http://www.w3.org/2000/svg" xmlns:xlink="http://www.w3.org/1999/xlink" width="202.384" height="190.654" viewBox="0 0 202.384 190.654">
  <defs>
    <linearGradient id="linear-gradient" x1="0.5" y1="0.982" x2="0.5" y2="0.029" gradientUnits="objectBoundingBox">
      <stop offset="0" stop-color="#565671"/>
      <stop offset="1" stop-color="#616c9c"/>
    </linearGradient>
    <linearGradient id="linear-gradient-2" x1="0.355" y1="0.125" x2="0.523" y2="1.058" gradientUnits="objectBoundingBox">
      <stop offset="0" stop-color="#94bcff"/>
      <stop offset="0.993" stop-color="#5b8cff"/>
    </linearGradient>
    <linearGradient id="linear-gradient-3" x1="0.032" y1="0.87" x2="1.004" y2="0.2" xlink:href="#linear-gradient-2"/>
    <linearGradient id="linear-gradient-4" x1="0.304" y1="0.972" x2="0.707" y2="0.002" xlink:href="#linear-gradient-2"/>
    <linearGradient id="linear-gradient-5" x1="0.499" y1="1.104" x2="0.501" y2="-0.103" xlink:href="#linear-gradient-2"/>
    <linearGradient id="linear-gradient-6" x1="0" y1="0.5" x2="1" y2="0.5" xlink:href="#linear-gradient-2"/>
    <linearGradient id="linear-gradient-7" x1="0.5" y1="0.052" x2="0.5" y2="0.873" gradientUnits="objectBoundingBox">
      <stop offset="0" stop-color="#94fdff" stop-opacity="0.2"/>
      <stop offset="0.993" stop-color="#7ffdff" stop-opacity="0"/>
    </linearGradient>
    <linearGradient id="linear-gradient-9" x1="0.5" y1="1.01" x2="0.5" y2="0.022" xlink:href="#linear-gradient-2"/>
    <linearGradient id="linear-gradient-10" x1="61.657" y1="0.125" x2="61.825" y2="1.058" xlink:href="#linear-gradient-2"/>
    <linearGradient id="linear-gradient-12" x1="0.47" y1="-0.048" x2="0.533" y2="1.193" xlink:href="#linear-gradient-2"/>
    <linearGradient id="linear-gradient-13" x1="0.481" y1="-0.158" x2="0.526" y2="1.329" xlink:href="#linear-gradient-2"/>
    <linearGradient id="linear-gradient-14" x1="0.477" y1="-0.11" x2="0.527" y2="1.272" xlink:href="#linear-gradient-2"/>
    <linearGradient id="linear-gradient-15" x1="0.472" y1="-0.041" x2="0.537" y2="1.182" xlink:href="#linear-gradient-2"/>
    <linearGradient id="linear-gradient-16" x1="0.474" y1="-0.065" x2="0.533" y2="1.213" xlink:href="#linear-gradient-2"/>
    <linearGradient id="linear-gradient-17" x1="0.447" y1="0.047" x2="0.583" y2="1.069" xlink:href="#linear-gradient-2"/>
  </defs>
  <g id="pic-Calibration_in_progress" data-name="pic-Calibration in progress" transform="translate(0.206 0.374)">
    <path id="路径_1" data-name="路径 1" d="M304.393,140.842l83.7-7.35,5.216,1.9V271.012l-5.216,2.608-83.7-7.824Z" transform="translate(-250.093 -112.627)" fill="rgba(46,46,46,0.22)"/>
    <path id="路径_2" data-name="路径 2" d="M295.344,140.842l88.914-7.35V273.62L295.344,265.8Z" transform="translate(-246.575 -112.627)" fill="url(#linear-gradient)"/>
    <g id="组_1" data-name="组 1" transform="translate(48.267 25.37)">
      <line id="直线_1" data-name="直线 1" y1="7.587" x2="88.914" fill="none" stroke="#707070" stroke-miterlimit="10" stroke-width="0.411"/>
      <line id="直线_2" data-name="直线 2" y1="6.771" x2="88.914" transform="translate(0 7.636)" fill="none" stroke="#707070" stroke-miterlimit="10" stroke-width="0.411"/>
      <line id="直线_3" data-name="直线 3" y1="5.955" x2="88.914" transform="translate(0 15.272)" fill="none" stroke="#707070" stroke-miterlimit="10" stroke-width="0.411"/>
      <line id="直线_4" data-name="直线 4" y1="5.14" x2="88.914" transform="translate(0 22.908)" fill="none" stroke="#707070" stroke-miterlimit="10" stroke-width="0.411"/>
      <line id="直线_5" data-name="直线 5" y1="4.324" x2="88.914" transform="translate(0 30.544)" fill="none" stroke="#707070" stroke-miterlimit="10" stroke-width="0.411"/>
      <line id="直线_6" data-name="直线 6" y1="3.508" x2="88.914" transform="translate(0 38.181)" fill="none" stroke="#707070" stroke-miterlimit="10" stroke-width="0.411"/>
      <line id="直线_7" data-name="直线 7" y1="2.692" x2="88.914" transform="translate(0 45.817)" fill="none" stroke="#707070" stroke-miterlimit="10" stroke-width="0.411"/>
      <line id="直线_8" data-name="直线 8" y1="1.876" x2="88.914" transform="translate(0 53.453)" fill="none" stroke="#707070" stroke-miterlimit="10" stroke-width="0.411"/>
      <line id="直线_9" data-name="直线 9" y1="1.06" x2="88.914" transform="translate(0 61.089)" fill="none" stroke="#707070" stroke-miterlimit="10" stroke-width="0.411"/>
      <line id="直线_10" data-name="直线 10" y1="0.244" x2="88.914" transform="translate(0 68.725)" fill="none" stroke="#707070" stroke-miterlimit="10" stroke-width="0.411"/>
      <line id="直线_11" data-name="直线 11" x2="88.914" y2="0.572" transform="translate(0 75.789)" fill="none" stroke="#707070" stroke-miterlimit="10" stroke-width="0.411"/>
      <line id="直线_12" data-name="直线 12" x2="88.914" y2="1.388" transform="translate(0 82.61)" fill="none" stroke="#707070" stroke-miterlimit="10" stroke-width="0.411"/>
      <line id="直线_13" data-name="直线 13" x2="88.914" y2="2.204" transform="translate(0 89.43)" fill="none" stroke="#707070" stroke-miterlimit="10" stroke-width="0.411"/>
      <line id="直线_14" data-name="直线 14" x2="88.914" y2="3.02" transform="translate(0 96.25)" fill="none" stroke="#707070" stroke-miterlimit="10" stroke-width="0.411"/>
      <line id="直线_15" data-name="直线 15" x2="88.914" y2="3.835" transform="translate(0 103.07)" fill="none" stroke="#707070" stroke-miterlimit="10" stroke-width="0.411"/>
      <line id="直线_16" data-name="直线 16" x2="88.914" y2="4.651" transform="translate(0 109.89)" fill="none" stroke="#707070" stroke-miterlimit="10" stroke-width="0.411"/>
      <line id="直线_17" data-name="直线 17" x2="88.914" y2="5.467" transform="translate(0 116.711)" fill="none" stroke="#707070" stroke-miterlimit="10" stroke-width="0.411"/>
      <line id="直线_18" data-name="直线 18" x2="88.914" y2="6.283" transform="translate(0 123.531)" fill="none" stroke="#707070" stroke-miterlimit="10" stroke-width="0.411"/>
    </g>
    <g id="组_2" data-name="组 2" transform="translate(53.661 21.77)">
      <line id="直线_19" data-name="直线 19" y1="124.878" transform="translate(0 6.402)" fill="none" stroke="#707070" stroke-miterlimit="10" stroke-width="0.411"/>
      <line id="直线_20" data-name="直线 20" y1="125.954" transform="translate(6.092 5.909)" fill="none" stroke="#707070" stroke-miterlimit="10" stroke-width="0.411"/>
      <line id="直线_21" data-name="直线 21" y1="127.03" transform="translate(12.183 5.417)" fill="none" stroke="#707070" stroke-miterlimit="10" stroke-width="0.411"/>
      <line id="直线_22" data-name="直线 22" y1="128.106" transform="translate(18.275 4.924)" fill="none" stroke="#707070" stroke-miterlimit="10" stroke-width="0.411"/>
      <line id="直线_23" data-name="直线 23" y1="129.182" transform="translate(24.367 4.432)" fill="none" stroke="#707070" stroke-miterlimit="10" stroke-width="0.411"/>
      <line id="直线_24" data-name="直线 24" y1="130.258" transform="translate(30.459 3.94)" fill="none" stroke="#707070" stroke-miterlimit="10" stroke-width="0.411"/>
      <line id="直线_25" data-name="直线 25" y1="131.334" transform="translate(36.55 3.447)" fill="none" stroke="#707070" stroke-miterlimit="10" stroke-width="0.411"/>
      <line id="直线_26" data-name="直线 26" y1="132.411" transform="translate(42.642 2.955)" fill="none" stroke="#707070" stroke-miterlimit="10" stroke-width="0.411"/>
      <line id="直线_27" data-name="直线 27" y1="133.487" transform="translate(48.734 2.462)" fill="none" stroke="#707070" stroke-miterlimit="10" stroke-width="0.411"/>
      <line id="直线_28" data-name="直线 28" y1="134.563" transform="translate(54.826 1.97)" fill="none" stroke="#707070" stroke-miterlimit="10" stroke-width="0.411"/>
      <line id="直线_29" data-name="直线 29" y1="135.639" transform="translate(60.917 1.477)" fill="none" stroke="#707070" stroke-miterlimit="10" stroke-width="0.411"/>
      <line id="直线_30" data-name="直线 30" y1="136.715" transform="translate(67.009 0.985)" fill="none" stroke="#707070" stroke-miterlimit="10" stroke-width="0.411"/>
      <line id="直线_31" data-name="直线 31" y1="137.791" transform="translate(73.101 0.492)" fill="none" stroke="#707070" stroke-miterlimit="10" stroke-width="0.411"/>
      <line id="直线_32" data-name="直线 32" y1="138.867" transform="translate(79.192)" fill="none" stroke="#707070" stroke-miterlimit="10" stroke-width="0.411"/>
    </g>
    <path id="路径_3" data-name="路径 3" d="M295.344,286.176V268.867s3.32-9.247,10.2-11.144,17.546-8.062,17.546-8.062l2.845,18.731s4.268-10.907,9.484-7.35c0,0-9.484-13.278-9.247-19.679,0,0-3.082-4.979-3.556-8.773,0,0-7.113-10.907-2.608-14.226,0,0-5.69-18.02,8.535-28.452,0,0,5.928-5.69,7.825-3.082,0,0,1.423-1.66,2.608-1.185a8.064,8.064,0,0,1,3.082-4.031s2.846,5.454,7.113,5.454c0,0,6.164-.711,10.906,8.535,0,0,3.794,7.588.474,20.628,0,0,4.031,3.082-2.371,15.412a28.347,28.347,0,0,1-4.031,8.062s.237,7.587-8.773,20.865c0,0,4.268-3.556,9.958,8.536a87.761,87.761,0,0,0,2.134-18.969s7.825,5.454,14.463,7.588c0,0,12.329,2.371,12.329,36.277Z" transform="translate(-246.575 -133.007)" fill="url(#linear-gradient-2)"/>
    <path id="路径_4" data-name="路径 4" d="M426.958,105.6l63.069-8.3V145.43l-62.6,3.319Z" transform="translate(-298.817 -97.298)" fill="#dfe7f4" stroke="#3674ce" stroke-miterlimit="10" stroke-width="0.411"/>
    <path id="路径_4841" data-name="路径 4841" d="M0,7.228,59.823,0V41.924L.45,44.815Z" transform="matrix(1, -0.017, 0.017, 1, 129.342, 3.843)" fill="#fff"/>
    <path id="路径_5" data-name="路径 5" d="M426.958,105.6l63.069-8.3v5.453l-63.022,7.108Z" transform="translate(-298.817 -97.298)" stroke="#3674ce" stroke-miterlimit="10" stroke-width="0.411" fill="url(#linear-gradient-3)"/>
    <path id="路径_6" data-name="路径 6" d="M215.554,181.231v32.72l57.853-.474V177.911Z" transform="translate(-215.554 -131.439)" fill="#dfe7f4" stroke="#3674ce" stroke-miterlimit="10" stroke-width="0.411"/>
    <path id="路径_7" data-name="路径 7" d="M536.362,97.3l1.778,1.126v48.191l-1.778-1.186Z" transform="translate(-345.151 -97.298)" stroke="#3674ce" stroke-miterlimit="10" stroke-width="0.411" fill="url(#linear-gradient-4)"/>
    <path id="路径_8" data-name="路径 8" d="M427.781,184.11l1.383,1.106,62.911-3.24-1.7-1.185Z" transform="translate(-299.165 -132.658)" stroke="#3674ce" stroke-miterlimit="10" stroke-width="0.411" fill="url(#linear-gradient-5)"/>
    <path id="路径_9" data-name="路径 9" d="M315.909,177.911l1.778.534v33.55l-1.778,1.482Z" transform="translate(-256.159 -131.439)" stroke="#3674ce" stroke-miterlimit="10" stroke-width="0.411" fill="url(#linear-gradient-6)"/>
    <path id="路径_10" data-name="路径 10" d="M294.933,260.581h89.151v66.863L295.17,319.62Z" transform="translate(-246.409 -166.451)" fill="url(#linear-gradient-7)"/>
    <g id="组_3" data-name="组 3" transform="translate(130.986 116.418)">
      <path id="路径_11" data-name="路径 11" d="M432.368,299.243l45.287.237v64.729l-45.761-4.742Z" transform="translate(-431.894 -299.243)" fill="#dfe7f4" stroke="#3674ce" stroke-miterlimit="10" stroke-width="0.411"/>
      <path id="路径_12" data-name="路径 12" d="M432.694,299.243l45.287.237v5.35l-45.316-1.077Z" transform="translate(-432.22 -299.243)" stroke="#3674ce" stroke-miterlimit="10" stroke-width="0.411" fill="url(#linear-gradient-6)"/>
      <path id="路径_13" data-name="路径 13" d="M511.273,299.654l1.581.553v62.516l-1.581,1.66Z" transform="translate(-465.512 -299.417)" stroke="#3674ce" stroke-miterlimit="10" stroke-width="0.411" fill="url(#linear-gradient-9)"/>
    </g>
    <path id="路径_14" data-name="路径 14" d="M436.457,123.934l-.208,27.948,19.413-1.708V122.037Z" transform="translate(-304.426 -107.776)" fill="#cddaf5"/>
    <path id="路径_15" data-name="路径 15" d="M475.335,120.443l32.483-3.952v5.058l-32.562,3.794Z" transform="translate(-319.272 -105.427)" fill="#cddaf5"/>
    <path id="路径_16" data-name="路径 16" d="M475.256,134.75V139.1l23.078-2.529v-4.584Z" transform="translate(-319.272 -111.988)" fill="#cddaf5"/>
    <path id="路径_17" data-name="路径 17" d="M475.256,148.935v4.742l9.879-1.027v-4.9Z" transform="translate(-320.415 -118.665)" fill="#cddaf5"/>
    <path id="路径_18" data-name="路径 18" d="M475.256,160.482v4.584l26.081-2.134v-4.9Z" transform="translate(-319.272 -123.02)" fill="#cddaf5"/>
    <path id="路径_19" data-name="路径 19" d="M455.663,154.072v-3.779s-.725-2.019-2.226-2.433a21.929,21.929,0,0,1-3.831-1.76l-.621,4.09s-.932-2.381-2.071-1.6c0,0,2.071-2.9,2.019-4.3a6.089,6.089,0,0,0,.777-1.916s1.553-2.381.57-3.106c0,0,1.242-3.935-1.864-6.212,0,0-1.294-1.242-1.708-.673,0,0-.311-.363-.57-.259a1.761,1.761,0,0,0-.673-.88s-.621,1.19-1.553,1.19c0,0-1.346-.155-2.381,1.864a6.894,6.894,0,0,0-.1,4.5s-.88.673.518,3.365a6.186,6.186,0,0,0,.88,1.76s-.052,1.657,1.916,4.556c0,0-.932-.777-2.175,1.864a19.146,19.146,0,0,1-.466-4.142,14.7,14.7,0,0,1-3.158,1.657s-2.692.518-2.692,7.921Z" transform="translate(-304.426 -111.674)" fill="url(#linear-gradient-10)"/>
    <path id="路径_20" data-name="路径 20" d="M221.489,188.381v25.291l50.74-1.581V184.9Z" transform="translate(-218.068 -134.4)" fill="#fff"/>
    <path id="路径_21" data-name="路径 21" d="M221.489,190.065v25.291l16.732-.514V188.879Z" transform="translate(-218.068 -136.084)" fill="#5e98ff"/>
    <path id="路径_22" data-name="路径 22" d="M256.546,199.867v4.386l15.649-.83v-4.742Z" transform="translate(-232.915 -140.236)" fill="#cddaf5"/>
    <path id="路径_23" data-name="路径 23" d="M256.752,211.241v4.386l27.148-1.185v-4.861Z" transform="translate(-233.002 -144.852)" fill="#cddaf5"/>
    <path id="路径_24" data-name="路径 24" d="M455.611,317.614v23.394l18.336,1.423V318.4Z" transform="translate(-312.254 -190.605)" fill="#cddaf5"/>
    <path id="路径_25" data-name="路径 25" d="M455.543,342.256v-3.577s.686-1.911,2.107-2.3a20.771,20.771,0,0,0,3.626-1.666l.588,3.871s.882-2.254,1.96-1.519c0,0-1.96-2.744-1.911-4.067a5.771,5.771,0,0,1-.735-1.813s-1.47-2.254-.539-2.94c0,0-1.176-3.724,1.764-5.88,0,0,1.225-1.176,1.617-.637,0,0,.294-.343.539-.245a1.667,1.667,0,0,1,.637-.833s.588,1.127,1.47,1.127c0,0,1.274-.147,2.254,1.764a6.525,6.525,0,0,1,.1,4.263s.833.637-.49,3.185a5.858,5.858,0,0,1-.833,1.666s.049,1.568-1.813,4.312c0,0,.882-.735,2.058,1.764a18.138,18.138,0,0,0,.441-3.92,13.91,13.91,0,0,0,2.989,1.568s2.548.49,2.548,7.5Z" transform="translate(-312.225 -191.89)" fill="url(#linear-gradient-2)"/>
    <path id="路径_26" data-name="路径 26" d="M440.942,366.832v3.438l12.329.948v-3.082Z" transform="translate(-306.5 -211.45)" fill="url(#linear-gradient-12)"/>
    <path id="路径_27" data-name="路径 27" d="M467.265,369.505v2.964l23.118,1.9v-3.2Z" transform="translate(-315.887 -212.582)" fill="url(#linear-gradient-13)"/>
    <path id="路径_28" data-name="路径 28" d="M440.736,376.291v3.319l20.035,1.778v-2.964Z" transform="translate(-306.216 -215.456)" fill="url(#linear-gradient-14)"/>
    <path id="路径_29" data-name="路径 29" d="M479.4,380.2v2.964l10.433.948v-3.082Z" transform="translate(-322.072 -217.111)" fill="url(#linear-gradient-15)"/>
    <path id="路径_30" data-name="路径 30" d="M440.736,386.162v3.082l14.345,1.541V387.7Z" transform="translate(-306.366 -219.637)" fill="url(#linear-gradient-16)"/>
    <path id="路径_31" data-name="路径 31" d="M469.115,389.453v2.727l3.438.474v-3.082Z" transform="translate(-318.106 -221.03)" fill="url(#linear-gradient-17)"/>
    <ellipse id="椭圆_1" data-name="椭圆 1" cx="1.327" cy="1.327" rx="1.327" ry="1.327" transform="translate(92.976 111.649)" fill="#4e82ff" stroke="#fff" stroke-miterlimit="10" stroke-width="0.411"/>
    <ellipse id="椭圆_2" data-name="椭圆 2" cx="1.327" cy="1.327" rx="1.327" ry="1.327" transform="translate(78.461 68.307)" fill="#4e82ff" stroke="#fff" stroke-miterlimit="10" stroke-width="0.411"/>
    <ellipse id="椭圆_3" data-name="椭圆 3" cx="1.327" cy="1.327" rx="1.327" ry="1.327" transform="translate(98.579 54.217)" fill="#4e82ff" stroke="#fff" stroke-miterlimit="10" stroke-width="0.411"/>
    <path id="路径_32" data-name="路径 32" d="M374.908,295.576l8.113,16.972L408,313.931" transform="translate(-279.441 -181.272)" fill="none" stroke="#fff" stroke-miterlimit="10" stroke-width="0.823" stroke-dasharray="2.468 2.468"/>
    <path id="路径_33" data-name="路径 33" d="M319.062,197.716l13.91-.474,3.7,10.691" transform="translate(-257.258 -139.626)" fill="none" stroke="#fff" stroke-miterlimit="10" stroke-width="0.823" stroke-dasharray="2.468 2.468"/>
    <path id="路径_34" data-name="路径 34" d="M408.591,166.807l-15.807,1.423L383.4,180.953" transform="translate(-283.025 -126.736)" fill="none" stroke="#fff" stroke-miterlimit="10" stroke-width="0.823" stroke-dasharray="2.468 2.468"/>
    <path id="路径_35" data-name="路径 35" d="M234.91,197.859l-6.876.415s-1.126.415-1.126,1.3v13.159a1.366,1.366,0,0,0,1.482,1.422l6.165-.118a1.627,1.627,0,0,0,1.6-1.6v-13.1A1.282,1.282,0,0,0,234.91,197.859ZM231.6,212.614c-.389.058-.733-.086-.769-.324s.25-.477.639-.536.732.086.768.324S231.991,212.555,231.6,212.614Zm3.462-2.544-7.054.237v-8.892l7.054-.474Z" transform="translate(-220.362 -139.887)" fill="#fff"/>
    <g id="组_5" data-name="组 5" transform="translate(180.539 36.831)">
      <ellipse id="椭圆_4" data-name="椭圆 4" cx="10.57" cy="10.57" rx="10.57" ry="10.57" fill="#ff9e1d" stroke="#fff" stroke-miterlimit="10" stroke-width="1"/>
      <g id="组_4" data-name="组 4" transform="translate(5.831 5.792)">
        <ellipse id="椭圆_5" data-name="椭圆 5" cx="0.197" cy="0.197" rx="0.197" ry="0.197" transform="translate(4.522)" fill="#fff"/>
        <ellipse id="椭圆_6" data-name="椭圆 6" cx="0.241" cy="0.241" rx="0.241" ry="0.241" transform="translate(2.258 0.524)" fill="#fff"/>
        <ellipse id="椭圆_7" data-name="椭圆 7" cx="0.285" cy="0.285" rx="0.285" ry="0.285" transform="translate(0.659 1.999)" fill="#fff"/>
        <ellipse id="椭圆_8" data-name="椭圆 8" cx="0.329" cy="0.329" rx="0.329" ry="0.329" transform="translate(0 4.152)" fill="#fff"/>
        <ellipse id="椭圆_9" data-name="椭圆 9" cx="0.373" cy="0.373" rx="0.373" ry="0.373" transform="translate(0.481 6.334)" fill="#fff"/>
        <ellipse id="椭圆_10" data-name="椭圆 10" cx="0.417" cy="0.417" rx="0.417" ry="0.417" transform="translate(1.916 7.929)" fill="#fff"/>
        <ellipse id="椭圆_11" data-name="椭圆 11" cx="0.461" cy="0.461" rx="0.461" ry="0.461" transform="translate(4 8.634)" fill="#fff"/>
        <ellipse id="椭圆_12" data-name="椭圆 12" cx="0.505" cy="0.505" rx="0.505" ry="0.505" transform="translate(6.289 8.22)" fill="#fff"/>
        <ellipse id="椭圆_13" data-name="椭圆 13" cx="0.549" cy="0.549" rx="0.549" ry="0.549" transform="translate(7.788 6.786)" fill="#fff"/>
        <ellipse id="椭圆_14" data-name="椭圆 14" cx="0.593" cy="0.593" rx="0.593" ry="0.593" transform="translate(8.291 4.484)" fill="#fff"/>
      </g>
    </g>
    <g id="组_7" data-name="组 7" transform="translate(45.049 69.634)">
      <ellipse id="椭圆_15" data-name="椭圆 15" cx="10.341" cy="10.341" rx="10.341" ry="10.341" fill="#ff9e1d" stroke="#fff" stroke-miterlimit="10" stroke-width="1"/>
      <g id="组_6" data-name="组 6" transform="translate(5.704 5.666)">
        <ellipse id="椭圆_16" data-name="椭圆 16" cx="0.193" cy="0.193" rx="0.193" ry="0.193" transform="translate(4.424)" fill="#fff"/>
        <ellipse id="椭圆_17" data-name="椭圆 17" cx="0.236" cy="0.236" rx="0.236" ry="0.236" transform="translate(2.209 0.512)" fill="#fff"/>
        <ellipse id="椭圆_18" data-name="椭圆 18" cx="0.279" cy="0.279" rx="0.279" ry="0.279" transform="translate(0.645 1.956)" fill="#fff"/>
        <ellipse id="椭圆_19" data-name="椭圆 19" cx="0.322" cy="0.322" rx="0.322" ry="0.322" transform="translate(0 4.062)" fill="#fff"/>
        <ellipse id="椭圆_20" data-name="椭圆 20" cx="0.365" cy="0.365" rx="0.365" ry="0.365" transform="translate(0.47 6.197)" fill="#fff"/>
        <ellipse id="椭圆_21" data-name="椭圆 21" cx="0.408" cy="0.408" rx="0.408" ry="0.408" transform="translate(1.875 7.757)" fill="#fff"/>
        <ellipse id="椭圆_22" data-name="椭圆 22" cx="0.451" cy="0.451" rx="0.451" ry="0.451" transform="translate(3.913 8.446)" fill="#fff"/>
        <ellipse id="椭圆_23" data-name="椭圆 23" cx="0.494" cy="0.494" rx="0.494" ry="0.494" transform="translate(6.152 8.042)" fill="#fff"/>
        <ellipse id="椭圆_24" data-name="椭圆 24" cx="0.537" cy="0.537" rx="0.537" ry="0.537" transform="translate(7.619 6.639)" fill="#fff"/>
        <ellipse id="椭圆_25" data-name="椭圆 25" cx="0.58" cy="0.58" rx="0.58" ry="0.58" transform="translate(8.111 4.387)" fill="#fff"/>
      </g>
    </g>
    <g id="组_9" data-name="组 9" transform="translate(163.872 168.837)">
      <ellipse id="椭圆_26" data-name="椭圆 26" cx="10.472" cy="10.472" rx="10.472" ry="10.472" fill="#ff9e1d" stroke="#fff" stroke-miterlimit="10" stroke-width="1"/>
      <g id="组_8" data-name="组 8" transform="translate(5.777 5.738)">
        <ellipse id="椭圆_27" data-name="椭圆 27" cx="0.195" cy="0.195" rx="0.195" ry="0.195" transform="translate(4.48)" fill="#fff"/>
        <ellipse id="椭圆_28" data-name="椭圆 28" cx="0.239" cy="0.239" rx="0.239" ry="0.239" transform="translate(2.237 0.519)" fill="#fff"/>
        <ellipse id="椭圆_29" data-name="椭圆 29" cx="0.283" cy="0.283" rx="0.283" ry="0.283" transform="translate(0.653 1.981)" fill="#fff"/>
        <ellipse id="椭圆_30" data-name="椭圆 30" cx="0.326" cy="0.326" rx="0.326" ry="0.326" transform="translate(0 4.114)" fill="#fff"/>
        <ellipse id="椭圆_31" data-name="椭圆 31" cx="0.37" cy="0.37" rx="0.37" ry="0.37" transform="translate(0.476 6.275)" fill="#fff"/>
        <ellipse id="椭圆_32" data-name="椭圆 32" cx="0.413" cy="0.413" rx="0.413" ry="0.413" transform="translate(1.898 7.856)" fill="#fff"/>
        <ellipse id="椭圆_33" data-name="椭圆 33" cx="0.457" cy="0.457" rx="0.457" ry="0.457" transform="translate(3.963 8.553)" fill="#fff"/>
        <ellipse id="椭圆_34" data-name="椭圆 34" cx="0.501" cy="0.501" rx="0.501" ry="0.501" transform="translate(6.231 8.144)" fill="#fff"/>
        <ellipse id="椭圆_35" data-name="椭圆 35" cx="0.544" cy="0.544" rx="0.544" ry="0.544" transform="translate(7.715 6.723)" fill="#fff"/>
        <ellipse id="椭圆_36" data-name="椭圆 36" cx="0.588" cy="0.588" rx="0.588" ry="0.588" transform="translate(8.214 4.442)" fill="#fff"/>
      </g>
    </g>
  </g>
</svg>
