<svg xmlns="http://www.w3.org/2000/svg" xmlns:xlink="http://www.w3.org/1999/xlink" width="202.195" height="197.568" viewBox="0 0 202.195 197.568">
  <defs>
    <linearGradient id="linear-gradient" x1="0.5" y1="0.982" x2="0.5" y2="0.029" gradientUnits="objectBoundingBox">
      <stop offset="0" stop-color="#565671"/>
      <stop offset="1" stop-color="#616c9c"/>
    </linearGradient>
    <linearGradient id="linear-gradient-2" x1="0.355" y1="0.125" x2="0.523" y2="1.058" gradientUnits="objectBoundingBox">
      <stop offset="0" stop-color="#94bcff"/>
      <stop offset="0.993" stop-color="#5b8cff"/>
    </linearGradient>
    <linearGradient id="linear-gradient-3" x1="0.032" y1="0.87" x2="1.004" y2="0.2" xlink:href="#linear-gradient-2"/>
    <linearGradient id="linear-gradient-4" x1="0.304" y1="0.972" x2="0.707" y2="0.002" xlink:href="#linear-gradient-2"/>
    <linearGradient id="linear-gradient-5" x1="0.499" y1="1.104" x2="0.501" y2="-0.103" xlink:href="#linear-gradient-2"/>
    <linearGradient id="linear-gradient-6" x1="0" y1="0.5" x2="1" y2="0.5" xlink:href="#linear-gradient-2"/>
    <linearGradient id="linear-gradient-7" x1="0.5" y1="0.052" x2="0.5" y2="0.873" gradientUnits="objectBoundingBox">
      <stop offset="0" stop-color="#94fdff" stop-opacity="0.2"/>
      <stop offset="0.993" stop-color="#7ffdff" stop-opacity="0"/>
    </linearGradient>
    <linearGradient id="linear-gradient-9" x1="0.5" y1="1.01" x2="0.5" y2="0.022" xlink:href="#linear-gradient-2"/>
    <linearGradient id="linear-gradient-10" x1="27.267" y1="0.125" x2="27.435" y2="1.058" xlink:href="#linear-gradient-2"/>
    <linearGradient id="linear-gradient-12" x1="0.47" y1="-0.048" x2="0.533" y2="1.193" xlink:href="#linear-gradient-2"/>
    <linearGradient id="linear-gradient-13" x1="0.481" y1="-0.158" x2="0.526" y2="1.329" xlink:href="#linear-gradient-2"/>
    <linearGradient id="linear-gradient-14" x1="0.477" y1="-0.11" x2="0.527" y2="1.272" xlink:href="#linear-gradient-2"/>
    <linearGradient id="linear-gradient-15" x1="0.472" y1="-0.041" x2="0.537" y2="1.182" xlink:href="#linear-gradient-2"/>
    <linearGradient id="linear-gradient-16" x1="0.474" y1="-0.065" x2="0.533" y2="1.213" xlink:href="#linear-gradient-2"/>
    <linearGradient id="linear-gradient-17" x1="0.447" y1="0.047" x2="0.583" y2="1.069" xlink:href="#linear-gradient-2"/>
  </defs>
  <g id="pic-Verification_succeeded" data-name="pic-Verification succeeded" transform="translate(0.206 0.374)">
    <path id="路径_36" data-name="路径 36" d="M883.451,141.13l86.979-7.638,5.421,1.971V276.4l-5.421,2.71-86.979-8.131Z" transform="translate(-830.229 -111.809)" fill="rgba(46,46,46,0.22)"/>
    <path id="路径_37" data-name="路径 37" d="M874.4,141.13l92.4-7.638V279.113l-92.4-8.131Z" transform="translate(-826.601 -111.809)" fill="url(#linear-gradient)"/>
    <g id="组_12" data-name="组 12" transform="translate(47.308 26.365)">
      <line id="直线_33" data-name="直线 33" y1="7.885" x2="92.399" fill="none" stroke="#707070" stroke-miterlimit="10" stroke-width="0.411"/>
      <line id="直线_34" data-name="直线 34" y1="7.037" x2="92.399" transform="translate(0 7.935)" fill="none" stroke="#707070" stroke-miterlimit="10" stroke-width="0.411"/>
      <line id="直线_35" data-name="直线 35" y1="6.189" x2="92.399" transform="translate(0 15.871)" fill="none" stroke="#707070" stroke-miterlimit="10" stroke-width="0.411"/>
      <line id="直线_36" data-name="直线 36" y1="5.341" x2="92.399" transform="translate(0 23.806)" fill="none" stroke="#707070" stroke-miterlimit="10" stroke-width="0.411"/>
      <line id="直线_37" data-name="直线 37" y1="4.493" x2="92.399" transform="translate(0 31.742)" fill="none" stroke="#707070" stroke-miterlimit="10" stroke-width="0.411"/>
      <line id="直线_38" data-name="直线 38" y1="3.645" x2="92.399" transform="translate(0 39.677)" fill="none" stroke="#707070" stroke-miterlimit="10" stroke-width="0.411"/>
      <line id="直线_39" data-name="直线 39" y1="2.797" x2="92.399" transform="translate(0 47.613)" fill="none" stroke="#707070" stroke-miterlimit="10" stroke-width="0.411"/>
      <line id="直线_40" data-name="直线 40" y1="1.949" x2="92.399" transform="translate(0 55.548)" fill="none" stroke="#707070" stroke-miterlimit="10" stroke-width="0.411"/>
      <line id="直线_41" data-name="直线 41" y1="1.102" x2="92.399" transform="translate(0 63.484)" fill="none" stroke="#707070" stroke-miterlimit="10" stroke-width="0.411"/>
      <line id="直线_42" data-name="直线 42" y1="0.254" x2="92.399" transform="translate(0 71.419)" fill="none" stroke="#707070" stroke-miterlimit="10" stroke-width="0.411"/>
      <line id="直线_43" data-name="直线 43" x2="92.399" y2="0.594" transform="translate(0 78.76)" fill="none" stroke="#707070" stroke-miterlimit="10" stroke-width="0.411"/>
      <line id="直线_44" data-name="直线 44" x2="92.399" y2="1.442" transform="translate(0 85.848)" fill="none" stroke="#707070" stroke-miterlimit="10" stroke-width="0.411"/>
      <line id="直线_45" data-name="直线 45" x2="92.399" y2="2.29" transform="translate(0 92.936)" fill="none" stroke="#707070" stroke-miterlimit="10" stroke-width="0.411"/>
      <line id="直线_46" data-name="直线 46" x2="92.399" y2="3.138" transform="translate(0 100.023)" fill="none" stroke="#707070" stroke-miterlimit="10" stroke-width="0.411"/>
      <line id="直线_47" data-name="直线 47" x2="92.399" y2="3.986" transform="translate(0 107.111)" fill="none" stroke="#707070" stroke-miterlimit="10" stroke-width="0.411"/>
      <line id="直线_48" data-name="直线 48" x2="92.399" y2="4.834" transform="translate(0 114.198)" fill="none" stroke="#707070" stroke-miterlimit="10" stroke-width="0.411"/>
      <line id="直线_49" data-name="直线 49" x2="92.399" y2="5.682" transform="translate(0 121.286)" fill="none" stroke="#707070" stroke-miterlimit="10" stroke-width="0.411"/>
      <line id="直线_50" data-name="直线 50" x2="92.399" y2="6.53" transform="translate(0 128.373)" fill="none" stroke="#707070" stroke-miterlimit="10" stroke-width="0.411"/>
    </g>
    <g id="组_13" data-name="组 13" transform="translate(52.852 22.624)">
      <line id="直线_51" data-name="直线 51" y1="129.773" transform="translate(0 6.653)" fill="none" stroke="#707070" stroke-miterlimit="10" stroke-width="0.411"/>
      <line id="直线_52" data-name="直线 52" y1="130.892" transform="translate(6.331 6.141)" fill="none" stroke="#707070" stroke-miterlimit="10" stroke-width="0.411"/>
      <line id="直线_53" data-name="直线 53" y1="132.01" transform="translate(12.661 5.629)" fill="none" stroke="#707070" stroke-miterlimit="10" stroke-width="0.411"/>
      <line id="直线_54" data-name="直线 54" y1="133.128" transform="translate(18.992 5.117)" fill="none" stroke="#707070" stroke-miterlimit="10" stroke-width="0.411"/>
      <line id="直线_55" data-name="直线 55" y1="134.246" transform="translate(25.322 4.606)" fill="none" stroke="#707070" stroke-miterlimit="10" stroke-width="0.411"/>
      <line id="直线_56" data-name="直线 56" y1="135.365" transform="translate(31.653 4.094)" fill="none" stroke="#707070" stroke-miterlimit="10" stroke-width="0.411"/>
      <line id="直线_57" data-name="直线 57" y1="136.483" transform="translate(37.983 3.582)" fill="none" stroke="#707070" stroke-miterlimit="10" stroke-width="0.411"/>
      <line id="直线_58" data-name="直线 58" y1="137.601" transform="translate(44.314 3.071)" fill="none" stroke="#707070" stroke-miterlimit="10" stroke-width="0.411"/>
      <line id="直线_59" data-name="直线 59" y1="138.719" transform="translate(50.644 2.559)" fill="none" stroke="#707070" stroke-miterlimit="10" stroke-width="0.411"/>
      <line id="直线_60" data-name="直线 60" y1="139.838" transform="translate(56.975 2.047)" fill="none" stroke="#707070" stroke-miterlimit="10" stroke-width="0.411"/>
      <line id="直线_61" data-name="直线 61" y1="140.956" transform="translate(63.305 1.535)" fill="none" stroke="#707070" stroke-miterlimit="10" stroke-width="0.411"/>
      <line id="直线_62" data-name="直线 62" y1="142.074" transform="translate(69.636 1.023)" fill="none" stroke="#707070" stroke-miterlimit="10" stroke-width="0.411"/>
      <line id="直线_63" data-name="直线 63" y1="143.193" transform="translate(75.966 0.512)" fill="none" stroke="#707070" stroke-miterlimit="10" stroke-width="0.411"/>
      <line id="直线_64" data-name="直线 64" y1="144.311" transform="translate(82.297 0)" fill="none" stroke="#707070" stroke-miterlimit="10" stroke-width="0.411"/>
    </g>
    <path id="路径_38" data-name="路径 38" d="M874.4,290.275V272.288s3.449-9.61,10.6-11.581,18.234-8.378,18.234-8.378l2.956,19.465s4.435-11.334,9.856-7.638c0,0-9.856-13.8-9.61-20.451,0,0-3.2-5.174-3.7-9.117,0,0-7.392-11.335-2.71-14.784,0,0-5.914-18.726,8.87-29.568,0,0,6.16-5.914,8.131-3.2,0,0,1.479-1.725,2.71-1.232a8.381,8.381,0,0,1,3.2-4.189s2.957,5.667,7.392,5.667c0,0,6.406-.739,11.334,8.87,0,0,3.943,7.885.493,21.437,0,0,4.189,3.2-2.464,16.016a29.46,29.46,0,0,1-4.189,8.378s.246,7.884-9.117,21.683c0,0,4.435-3.7,10.349,8.871,0,0,1.972-7.392,2.218-19.712,0,0,8.131,5.667,15.03,7.885,0,0,12.813,2.464,12.813,37.7Z" transform="translate(-826.601 -131.101)" fill="url(#linear-gradient-2)"/>
    <path id="路径_39" data-name="路径 39" d="M1006.016,105.922l65.542-8.624v50.019l-65.049,3.45Z" transform="translate(-879.367 -97.298)" fill="#dfe7f4" stroke="#3674ce" stroke-miterlimit="10" stroke-width="0.411"/>
    <path id="路径_40" data-name="路径 40" d="M1006.016,105.922l65.542-8.624v5.667l-65.492,7.386Z" transform="translate(-879.367 -97.298)" stroke="#3674ce" stroke-miterlimit="10" stroke-width="0.411" fill="url(#linear-gradient-3)"/>
    <path id="路径_41" data-name="路径 41" d="M794.612,181.361v34l60.121-.493v-36.96Z" transform="translate(-794.612 -129.617)" fill="#dfe7f4" stroke="#3674ce" stroke-miterlimit="10" stroke-width="0.411"/>
    <path id="路径_42" data-name="路径 42" d="M1115.42,97.3l1.848,1.17v50.08l-1.848-1.232Z" transform="translate(-923.229 -97.298)" stroke="#3674ce" stroke-miterlimit="10" stroke-width="0.411" fill="url(#linear-gradient-4)"/>
    <path id="路径_43" data-name="路径 43" d="M1006.838,184.24l1.438,1.15,65.378-3.367-1.766-1.232Z" transform="translate(-879.697 -130.772)" stroke="#3674ce" stroke-miterlimit="10" stroke-width="0.411" fill="url(#linear-gradient-5)"/>
    <path id="路径_44" data-name="路径 44" d="M894.967,177.911l1.848.554v34.865l-1.848,1.54Z" transform="translate(-834.846 -129.617)" stroke="#3674ce" stroke-miterlimit="10" stroke-width="0.411" fill="url(#linear-gradient-6)"/>
    <path id="路径_45" data-name="路径 45" d="M873.991,260.581h92.646v69.484l-92.4-8.131Z" transform="translate(-826.436 -162.761)" fill="url(#linear-gradient-7)"/>
    <g id="组_14" data-name="组 14" transform="translate(129.605 120.981)">
      <path id="路径_46" data-name="路径 46" d="M1011.444,299.243l47.062.246v67.267l-47.555-4.928Z" transform="translate(-1010.951 -299.243)" fill="#dfe7f4" stroke="#3674ce" stroke-miterlimit="10" stroke-width="0.411"/>
      <path id="路径_47" data-name="路径 47" d="M1011.753,299.243l47.062.246v5.559l-47.093-1.119Z" transform="translate(-1011.261 -299.243)" stroke="#3674ce" stroke-miterlimit="10" stroke-width="0.411" fill="url(#linear-gradient-6)"/>
      <path id="路径_48" data-name="路径 48" d="M1090.331,299.654l1.643.575V365.2l-1.643,1.725Z" transform="translate(-1042.776 -299.407)" stroke="#3674ce" stroke-miterlimit="10" stroke-width="0.411" fill="url(#linear-gradient-9)"/>
    </g>
    <path id="路径_49" data-name="路径 49" d="M1015.523,124.009l-.216,29.043,20.174-1.775V122.038Z" transform="translate(-883.092 -107.217)" fill="#cddaf5"/>
    <path id="路径_50" data-name="路径 50" d="M1054.4,120.6l33.757-4.107v5.256l-33.839,3.942Z" transform="translate(-898.731 -104.993)" fill="#cddaf5"/>
    <path id="路径_51" data-name="路径 51" d="M1054.314,134.858v4.517l23.983-2.628v-4.764Z" transform="translate(-898.731 -111.204)" fill="#cddaf5"/>
    <path id="路径_52" data-name="路径 52" d="M1054.314,148.982v4.928l10.267-1.068V147.75Z" transform="translate(-898.731 -117.525)" fill="#cddaf5"/>
    <path id="路径_53" data-name="路径 53" d="M1054.314,160.578v4.764l27.1-2.218v-5.092Z" transform="translate(-898.731 -121.647)" fill="#cddaf5"/>
    <path id="路径_54" data-name="路径 54" d="M1035.481,154.967V151.04s-.753-2.1-2.313-2.529a22.788,22.788,0,0,1-3.981-1.829l-.646,4.25s-.968-2.475-2.152-1.668c0,0,2.152-3.013,2.1-4.465a6.326,6.326,0,0,0,.807-1.991s1.614-2.475.592-3.228c0,0,1.291-4.089-1.937-6.456,0,0-1.345-1.291-1.775-.7,0,0-.323-.377-.592-.269a1.83,1.83,0,0,0-.7-.915s-.646,1.237-1.614,1.237c0,0-1.4-.161-2.475,1.937a7.164,7.164,0,0,0-.108,4.681s-.914.7.538,3.5a6.432,6.432,0,0,0,.915,1.829s-.054,1.722,1.99,4.735c0,0-.968-.807-2.259,1.937a19.9,19.9,0,0,1-.484-4.3,15.273,15.273,0,0,1-3.282,1.722s-2.8.538-2.8,8.231Z" transform="translate(-883.092 -110.907)" fill="url(#linear-gradient-10)"/>
    <path id="路径_55" data-name="路径 55" d="M800.547,188.517V214.8l52.729-1.643V184.9Z" transform="translate(-796.991 -132.421)" fill="#fff"/>
    <path id="路径_56" data-name="路径 56" d="M800.547,190.111v26.282l17.388-.534V188.879Z" transform="translate(-796.991 -134.015)" fill="#5e98ff"/>
    <path id="路径_57" data-name="路径 57" d="M835.6,199.914v4.558l16.262-.862v-4.928Z" transform="translate(-811.046 -137.944)" fill="#cddaf5"/>
    <path id="路径_58" data-name="路径 58" d="M835.809,211.306v4.558l28.213-1.232v-5.051Z" transform="translate(-811.129 -142.314)" fill="#cddaf5"/>
    <path id="路径_59" data-name="路径 59" d="M1034.669,317.614v24.311l19.055,1.478V318.435Z" transform="translate(-890.855 -185.626)" fill="#cddaf5"/>
    <path id="路径_60" data-name="路径 60" d="M1034.6,343.1v-3.717s.713-1.986,2.19-2.393a21.584,21.584,0,0,0,3.768-1.731l.611,4.023s.916-2.342,2.037-1.579c0,0-2.037-2.852-1.986-4.227a6,6,0,0,1-.764-1.884s-1.528-2.342-.56-3.055c0,0-1.222-3.87,1.833-6.111,0,0,1.273-1.222,1.681-.662,0,0,.305-.356.56-.255a1.733,1.733,0,0,1,.662-.866s.611,1.171,1.528,1.171c0,0,1.324-.153,2.342,1.833a6.781,6.781,0,0,1,.1,4.43s.866.662-.509,3.31a6.092,6.092,0,0,1-.866,1.731s.051,1.629-1.884,4.481c0,0,.917-.764,2.139,1.833a18.852,18.852,0,0,0,.458-4.074,14.454,14.454,0,0,0,3.106,1.63s2.648.509,2.648,7.791Z" transform="translate(-890.828 -186.842)" fill="url(#linear-gradient-2)"/>
    <path id="路径_61" data-name="路径 61" d="M1020,366.832V370.4l12.813.986v-3.2Z" transform="translate(-884.974 -205.359)" fill="url(#linear-gradient-12)"/>
    <path id="路径_62" data-name="路径 62" d="M1046.323,369.505v3.08l24.024,1.971V371.23Z" transform="translate(-895.527 -206.431)" fill="url(#linear-gradient-13)"/>
    <path id="路径_63" data-name="路径 63" d="M1019.794,376.291v3.45l20.821,1.848v-3.08Z" transform="translate(-884.891 -209.151)" fill="url(#linear-gradient-14)"/>
    <path id="路径_64" data-name="路径 64" d="M1058.456,380.2v3.08l10.842.986v-3.2Z" transform="translate(-900.391 -210.718)" fill="url(#linear-gradient-15)"/>
    <path id="路径_65" data-name="路径 65" d="M1019.794,386.162v3.2l14.907,1.6v-3.2Z" transform="translate(-884.891 -213.109)" fill="url(#linear-gradient-16)"/>
    <path id="路径_66" data-name="路径 66" d="M1048.173,389.453v2.834l3.573.493v-3.2Z" transform="translate(-896.269 -214.428)" fill="url(#linear-gradient-17)"/>
    <circle id="椭圆_48" data-name="椭圆 48" cx="1.379" cy="1.379" r="1.379" transform="translate(93.539 116.026)" fill="#4e82ff" stroke="#fff" stroke-miterlimit="10" stroke-width="0.411"/>
    <circle id="椭圆_49" data-name="椭圆 49" cx="1.379" cy="1.379" r="1.379" transform="translate(78.936 70.984)" fill="#4e82ff" stroke="#fff" stroke-miterlimit="10" stroke-width="0.411"/>
    <circle id="椭圆_50" data-name="椭圆 50" cx="1.379" cy="1.379" r="1.379" transform="translate(99.176 56.342)" fill="#4e82ff" stroke="#fff" stroke-miterlimit="10" stroke-width="0.411"/>
    <path id="路径_67" data-name="路径 67" d="M953.966,295.576l8.431,17.638,25.954,1.437" transform="translate(-858.5 -176.791)" fill="none" stroke="#fff" stroke-miterlimit="10" stroke-width="0.823" stroke-dasharray="2.468 2.468"/>
    <path id="路径_68" data-name="路径 68" d="M898.12,197.735l14.455-.493,3.85,11.11" transform="translate(-836.11 -137.367)" fill="none" stroke="#fff" stroke-miterlimit="10" stroke-width="0.823" stroke-dasharray="2.468 2.468"/>
    <path id="路径_69" data-name="路径 69" d="M988.636,166.806l-16.427,1.478-9.748,13.223" transform="translate(-861.906 -125.165)" fill="none" stroke="#fff" stroke-miterlimit="10" stroke-width="0.823" stroke-dasharray="2.468 2.468"/>
    <path id="路径_70" data-name="路径 70" d="M814.281,197.859l-7.145.431s-1.171.431-1.171,1.355v13.675a1.42,1.42,0,0,0,1.54,1.478l6.407-.123a1.691,1.691,0,0,0,1.663-1.663V199.4A1.333,1.333,0,0,0,814.281,197.859Zm-3.436,15.334c-.4.061-.761-.09-.8-.337s.26-.5.664-.557.761.09.8.337S811.248,213.131,810.844,213.193Zm3.6-2.644-7.33.246v-9.24l7.33-.492Z" transform="translate(-799.163 -137.615)" fill="#fff"/>
    <g id="组_16" data-name="组 16" transform="translate(180.597 38.208)">
      <circle id="椭圆_51" data-name="椭圆 51" cx="10.446" cy="10.446" r="10.446" fill="#a1e51c" stroke="#fff" stroke-miterlimit="10" stroke-width="1"/>
      <g id="组_15" data-name="组 15" transform="translate(5.188 5.607)">
        <path id="路径_71" data-name="路径 71" d="M1111.07,178.842l-2.586-2.118-1.146.96,4.47,4.749A28.806,28.806,0,0,1,1118,173.5l-.273-.658a28.993,28.993,0,0,0-6.655,6Zm0,0" transform="translate(-1107.338 -172.839)" fill="#fff"/>
      </g>
    </g>
    <g id="组_18" data-name="组 18" transform="translate(163.485 175.532)">
      <circle id="椭圆_52" data-name="椭圆 52" cx="10.581" cy="10.581" r="10.581" transform="translate(0 0)" fill="#a1e51c" stroke="#fff" stroke-miterlimit="10" stroke-width="1"/>
      <g id="组_17" data-name="组 17" transform="translate(5.255 5.679)">
        <path id="路径_72" data-name="路径 72" d="M1082.78,408.366l-2.618-2.146-1.162.973,4.528,4.81a29.179,29.179,0,0,1,6.269-9.05l-.276-.667a29.367,29.367,0,0,0-6.741,6.08Zm0,0" transform="translate(-1079 -402.286)" fill="#fff"/>
      </g>
    </g>
    <g id="组_20" data-name="组 20" transform="translate(45.34 72.363)">
      <circle id="椭圆_53" data-name="椭圆 53" cx="10.108" cy="10.108" r="10.108" fill="#a1e51c" stroke="#fff" stroke-miterlimit="10" stroke-width="1"/>
      <g id="组_19" data-name="组 19" transform="translate(5.02 5.425)">
        <path id="路径_73" data-name="路径 73" d="M884.611,235.094l-2.5-2.05-1.11.929,4.325,4.6a27.874,27.874,0,0,1,5.989-8.646l-.264-.637a28.053,28.053,0,0,0-6.439,5.808Zm0,0" transform="translate(-881 -229.286)" fill="#fff"/>
      </g>
    </g>
  </g>
</svg>
