<svg xmlns="http://www.w3.org/2000/svg" viewBox="0 0 300 300"><defs><style>.cls-1{fill:none;}.cls-2{fill:#cbcbcb;}.cls-3{fill:#fff;}.cls-4{fill:#a6a6a6;}</style></defs><title>pic_no_network</title><g id="图层_2" data-name="图层 2"><g id="图层_1-2" data-name="图层 1"><rect class="cls-1" width="300" height="300"/><rect class="cls-2" x="181" y="175.5" width="25" height="6" rx="3" ry="3"/><rect class="cls-2" x="96" y="175.5" width="75" height="6" rx="3" ry="3"/><rect class="cls-2" x="229" y="150.5" width="10" height="6" rx="3" ry="3"/><rect class="cls-2" x="63" y="150.5" width="157" height="6" rx="3" ry="3"/><path class="cls-3" d="M123,124h56a12,12,0,0,1,12,12v15a0,0,0,0,1,0,0H111a0,0,0,0,1,0,0V136A12,12,0,0,1,123,124Z"/><path class="cls-2" d="M192,152H110V136a13,13,0,0,1,13-13h56a13,13,0,0,1,13,13Zm-80-2h78V136a11,11,0,0,0-11-11H123a11,11,0,0,0-11,11Z"/><path class="cls-2" d="M207.92,61.32a5,5,0,0,1-3.58-1.48l-1-.94a1.5,1.5,0,1,1,2.08-2.16l1,1a2,2,0,0,0,1.46.6,1.53,1.53,0,0,1,1.54,1.47,1.47,1.47,0,0,1-1.4,1.53Zm-113.84,0a5,5,0,0,1-3.58-1.48,1.5,1.5,0,1,1,2.12-2.13,2.09,2.09,0,0,0,2.23.46A1.5,1.5,0,0,1,96,60.95,5.06,5.06,0,0,1,94.08,61.32Zm117.15-2.25A1.5,1.5,0,0,1,209.83,57a2.07,2.07,0,0,0,.14-.76,2,2,0,0,0-.6-1.45l2.1-2.14,0,0a5.06,5.06,0,0,1,1.13,5.44A1.5,1.5,0,0,1,211.23,59.07Zm-112.66-.7a1.5,1.5,0,0,1-1-2.6c1-1,2.1-1.9,3.18-2.81a1.5,1.5,0,1,1,1.92,2.3c-1,.87-2.08,1.78-3.06,2.71A1.5,1.5,0,0,1,98.57,58.37ZM201.35,56.5a1.49,1.49,0,0,1-1-.37c-1-.89-2.09-1.76-3.16-2.59A1.5,1.5,0,0,1,199,51.17c1.11.86,2.22,1.77,3.29,2.7a1.5,1.5,0,0,1-1,2.63ZM90.78,56.41a1.5,1.5,0,0,1-1.39-2.07,5,5,0,0,1,1.11-1.66q1-1,2-2a1.5,1.5,0,1,1,2,2.19q-1,.92-1.94,1.88a2.05,2.05,0,0,0-.45.68A1.5,1.5,0,0,1,90.78,56.41ZM105,53a1.5,1.5,0,0,1-.9-2.7c1.13-.85,2.3-1.67,3.47-2.45a1.5,1.5,0,0,1,1.66,2.5c-1.13.75-2.25,1.54-3.34,2.36A1.49,1.49,0,0,1,105,53Zm102.43-.68a1.49,1.49,0,0,1-1-.39c-1-.92-2.06-1.82-3.1-2.67a1.5,1.5,0,0,1,1.9-2.32c1.08.89,2.16,1.82,3.21,2.77a1.5,1.5,0,0,1-1,2.61Zm-12.63-1a1.49,1.49,0,0,1-.85-.27c-1.12-.78-2.27-1.53-3.42-2.23a1.5,1.5,0,1,1,1.57-2.56c1.2.73,2.39,1.52,3.56,2.32a1.5,1.5,0,0,1-.85,2.73Zm-98.11-.84a1.5,1.5,0,0,1-1-2.64c1.08-.92,2.19-1.81,3.3-2.66a1.5,1.5,0,0,1,1.82,2.38c-1.07.82-2.14,1.69-3.19,2.57A1.5,1.5,0,0,1,96.65,50.55Zm15.24-2.14a1.5,1.5,0,0,1-.76-2.79c1.21-.72,2.46-1.41,3.72-2.06a1.5,1.5,0,0,1,1.38,2.66c-1.21.63-2.41,1.29-3.57,2A1.5,1.5,0,0,1,111.9,48.41Zm89.05-1.34a1.49,1.49,0,0,1-.89-.29c-1.09-.81-2.22-1.6-3.35-2.35a1.5,1.5,0,0,1,1.66-2.5c1.17.78,2.34,1.6,3.47,2.44a1.5,1.5,0,0,1-.89,2.71Zm-13.29,0a1.49,1.49,0,0,1-.71-.18c-1.2-.65-2.42-1.27-3.65-1.85a1.5,1.5,0,0,1,1.28-2.71c1.27.6,2.55,1.25,3.79,1.92a1.5,1.5,0,0,1-.71,2.82Zm-84.39-1.55a1.5,1.5,0,0,1-.85-2.73c1.17-.81,2.36-1.59,3.55-2.32A1.5,1.5,0,1,1,107.55,43c-1.15.71-2.3,1.46-3.43,2.24A1.5,1.5,0,0,1,103.27,45.48Zm16-.91a1.5,1.5,0,0,1-.62-2.87c1.28-.58,2.6-1.13,3.92-1.64a1.5,1.5,0,1,1,1.08,2.8c-1.27.49-2.54,1-3.77,1.58A1.49,1.49,0,0,1,119.29,44.57Zm60.83-1.11a1.49,1.49,0,0,1-.56-.11c-1.26-.51-2.54-1-3.83-1.44a1.5,1.5,0,1,1,1-2.84c1.33.46,2.67,1,4,1.5a1.5,1.5,0,0,1-.57,2.89Zm13.89-1a1.49,1.49,0,0,1-.77-.21c-1.17-.7-2.37-1.37-3.57-2a1.5,1.5,0,1,1,1.4-2.65c1.24.66,2.49,1.36,3.7,2.08a1.5,1.5,0,0,1-.77,2.79Zm-66.95-.88a1.5,1.5,0,0,1-.46-2.93c1.34-.44,2.71-.84,4.07-1.21a1.5,1.5,0,0,1,.77,2.9c-1.31.35-2.63.74-3.92,1.16A1.49,1.49,0,0,1,127.06,41.57Zm-16.71-.47a1.5,1.5,0,0,1-.73-2.81c1.23-.68,2.5-1.34,3.77-2a1.5,1.5,0,1,1,1.32,2.7c-1.22.6-2.44,1.23-3.63,1.89A1.49,1.49,0,0,1,110.35,41.09Zm61.89-.35a1.51,1.51,0,0,1-.41-.06c-1.31-.37-2.64-.72-4-1a1.5,1.5,0,0,1,.67-2.93c1.37.31,2.76.67,4.12,1.06a1.5,1.5,0,0,1-.41,2.94Zm-37.13-1.33a1.5,1.5,0,0,1-.31-3c1.38-.29,2.79-.54,4.18-.76a1.5,1.5,0,1,1,.46,3c-1.34.21-2.69.45-4,.73A1.46,1.46,0,0,1,135.11,39.42Zm29-.53-.26,0c-1.34-.23-2.7-.43-4-.58a1.5,1.5,0,1,1,.35-3c1.4.16,2.82.37,4.21.61a1.5,1.5,0,0,1-.25,3Zm22.52-.34a1.49,1.49,0,0,1-.63-.14c-1.24-.58-2.5-1.13-3.75-1.64A1.5,1.5,0,0,1,183.39,34c1.29.53,2.6,1.1,3.89,1.7a1.5,1.5,0,0,1-.63,2.86Zm-43.3-.39a1.5,1.5,0,0,1-.15-3c1.4-.14,2.82-.24,4.24-.31a1.5,1.5,0,0,1,.13,3c-1.36.06-2.73.16-4.08.29Zm12.49-.23h-.09c-1.37-.09-2.74-.13-4.08-.14a1.5,1.5,0,0,1,0-3h0c1.4,0,2.83.06,4.25.15a1.5,1.5,0,0,1-.09,3Zm-38-.49a1.5,1.5,0,0,1-.59-2.88c1.3-.56,2.62-1.08,3.94-1.57a1.5,1.5,0,1,1,1,2.81c-1.27.47-2.55,1-3.8,1.52A1.5,1.5,0,0,1,117.84,37.44Zm61.08-2a1.49,1.49,0,0,1-.5-.08c-1.29-.45-2.6-.87-3.9-1.26a1.5,1.5,0,0,1,.85-2.88c1.35.4,2.7.84,4,1.3a1.5,1.5,0,0,1-.5,2.92Zm-53.27-.86a1.5,1.5,0,0,1-.45-2.93c1.34-.42,2.71-.82,4.08-1.17a1.5,1.5,0,1,1,.76,2.9c-1.32.34-2.64.72-3.94,1.13A1.47,1.47,0,0,1,125.66,34.54ZM170.94,33a1.53,1.53,0,0,1-.35,0c-1.32-.32-2.67-.61-4-.87a1.5,1.5,0,0,1,.56-2.95c1.38.26,2.78.57,4.15.9a1.5,1.5,0,0,1-.35,3Zm-37.21-.6a1.5,1.5,0,0,1-.3-3c1.38-.29,2.78-.54,4.17-.76a1.5,1.5,0,1,1,.47,3c-1.34.21-2.7.46-4,.74A1.52,1.52,0,0,1,133.72,32.44Zm29-1h-.21c-1.33-.19-2.7-.34-4.07-.47a1.5,1.5,0,1,1,.27-3c1.42.13,2.83.29,4.22.49a1.5,1.5,0,0,1-.21,3ZM142,31.14a1.5,1.5,0,0,1-.16-3c1.4-.15,2.82-.27,4.23-.35a1.47,1.47,0,0,1,1.58,1.41,1.5,1.5,0,0,1-1.41,1.58c-1.36.08-2.73.19-4.08.34Zm12.49-.41h-.06c-1.12,0-2.26-.07-3.39-.07h-.72a1.5,1.5,0,0,1,0-3H151c1.17,0,2.34,0,3.51.07a1.5,1.5,0,0,1-.06,3Z"/><path class="cls-2" d="M108.32,75.55h0a5.07,5.07,0,0,1-4-2,1.5,1.5,0,1,1,2.39-1.82l.18.21a2,2,0,0,0,1.46.6,1.78,1.78,0,0,0,.37,0,1.5,1.5,0,1,1,.54,3A5,5,0,0,1,108.32,75.55Zm85.37,0a5,5,0,0,1-3.58-1.48l-.78-.77a1.5,1.5,0,1,1,2.08-2.16l.83.81a2,2,0,0,0,1.5.6A1.53,1.53,0,0,1,195.26,74a1.47,1.47,0,0,1-1.42,1.54Zm3.22-2.05a1.5,1.5,0,0,1-1.36-2.13,2.09,2.09,0,0,0,.19-.87,2,2,0,0,0-.44-1.27,1.5,1.5,0,0,1,2.36-1.86,5.07,5.07,0,0,1,.6,5.27A1.5,1.5,0,0,1,196.91,73.5Zm-84.81-.23a1.5,1.5,0,0,1-1-2.59c1-.92,2-1.81,3-2.66a1.5,1.5,0,0,1,1.9,2.32c-1,.8-1.95,1.65-2.87,2.52A1.49,1.49,0,0,1,112.1,73.27Zm75.35-2.18a1.5,1.5,0,0,1-1-.35c-1-.82-2-1.61-3-2.35A1.5,1.5,0,0,1,185.23,66c1.08.78,2.15,1.62,3.18,2.48a1.5,1.5,0,0,1-1,2.65Zm-82.34-.66a1.5,1.5,0,0,1-1.35-2.16,5.08,5.08,0,0,1,1-1.36q1-1,2-1.94a1.5,1.5,0,1,1,2,2.21q-1,.9-1.93,1.85a2.08,2.08,0,0,0-.4.55A1.5,1.5,0,0,1,105.11,70.43Zm13.06-2.12a1.5,1.5,0,0,1-.87-2.72c1.09-.77,2.22-1.52,3.36-2.21a1.5,1.5,0,0,1,1.56,2.56c-1.08.66-2.16,1.37-3.19,2.1A1.5,1.5,0,0,1,118.17,68.31Zm75.5-1.24a1.49,1.49,0,0,1-1-.38c-.94-.85-1.93-1.68-2.93-2.47a1.5,1.5,0,0,1,1.86-2.35c1,.83,2.08,1.7,3.07,2.59a1.5,1.5,0,0,1-1,2.62Zm-12.57-.58a1.49,1.49,0,0,1-.79-.23c-1.08-.68-2.2-1.32-3.31-1.91a1.5,1.5,0,0,1,1.41-2.65c1.18.62,2.35,1.3,3.49,2a1.5,1.5,0,0,1-.79,2.77ZM110.74,65a1.5,1.5,0,0,1-.95-2.67c1-.84,2.11-1.66,3.2-2.43a1.5,1.5,0,0,1,1.74,2.44c-1,.74-2.06,1.52-3,2.32A1.49,1.49,0,0,1,110.74,65Zm14.12-.78a1.5,1.5,0,0,1-.69-2.83c1.19-.61,2.41-1.19,3.64-1.72A1.5,1.5,0,0,1,129,62.43c-1.16.5-2.33,1.05-3.45,1.63A1.49,1.49,0,0,1,124.86,64.23Zm49.31-1.43a1.48,1.48,0,0,1-.61-.13c-1.16-.52-2.35-1-3.54-1.43a1.5,1.5,0,1,1,1-2.82c1.26.46,2.51,1,3.74,1.51a1.5,1.5,0,0,1-.61,2.87Zm13.36-.6a1.49,1.49,0,0,1-.86-.27c-1-.73-2.12-1.43-3.21-2.09A1.5,1.5,0,0,1,185,57.28c1.14.69,2.27,1.43,3.36,2.19a1.5,1.5,0,0,1-.86,2.73Zm-55.47-1.08a1.5,1.5,0,0,1-.5-2.92c1.26-.44,2.55-.85,3.84-1.2a1.5,1.5,0,1,1,.8,2.89c-1.23.34-2.45.72-3.64,1.14A1.5,1.5,0,0,1,132.06,61.12Zm-14.93-.67a1.5,1.5,0,0,1-.8-2.77c1.13-.71,2.3-1.39,3.47-2a1.5,1.5,0,1,1,1.43,2.64c-1.12.61-2.23,1.26-3.31,1.93A1.5,1.5,0,0,1,117.13,60.45Zm49.67-.33a1.5,1.5,0,0,1-.42-.06c-1.22-.35-2.47-.66-3.71-.93a1.5,1.5,0,1,1,.63-2.93c1.3.28,2.62.61,3.91,1a1.5,1.5,0,0,1-.41,2.94ZM139.61,59a1.5,1.5,0,0,1-.3-3c1.3-.27,2.64-.49,4-.67a1.5,1.5,0,1,1,.39,3c-1.26.17-2.53.38-3.77.63A1.5,1.5,0,0,1,139.61,59Zm19.52-.56-.21,0c-1.25-.18-2.52-.32-3.8-.41a1.5,1.5,0,1,1,.22-3c1.34.1,2.69.25,4,.44a1.5,1.5,0,0,1-.21,3Zm21.7-.35a1.5,1.5,0,0,1-.7-.17c-1.12-.59-2.28-1.16-3.44-1.68a1.5,1.5,0,0,1,1.23-2.74c1.21.55,2.43,1.14,3.61,1.76a1.5,1.5,0,0,1-.7,2.83ZM147.39,58a1.5,1.5,0,0,1-.09-3c1.23-.08,2.48-.12,3.71-.12h.32a1.5,1.5,0,0,1,0,3H151c-1.18,0-2.37,0-3.53.11ZM124,56.71a1.5,1.5,0,0,1-.63-2.86c1.2-.56,2.45-1.09,3.69-1.58a1.5,1.5,0,1,1,1.09,2.79c-1.19.47-2.38,1-3.52,1.51A1.5,1.5,0,0,1,124,56.71Zm49.65-1.8a1.51,1.51,0,0,1-.53-.1c-1.19-.45-2.41-.87-3.62-1.24a1.5,1.5,0,0,1,.88-2.87c1.28.39,2.56.83,3.8,1.3a1.5,1.5,0,0,1-.53,2.9Zm-42.35-1.05a1.5,1.5,0,0,1-.46-2.93c1.27-.41,2.57-.78,3.86-1.11a1.5,1.5,0,1,1,.74,2.91c-1.23.31-2.47.67-3.68,1.06A1.48,1.48,0,0,1,131.33,53.85Zm34.85-1.26a1.52,1.52,0,0,1-.35,0c-1.23-.3-2.5-.57-3.75-.79a1.5,1.5,0,0,1,.53-3c1.31.24,2.63.51,3.93.83a1.5,1.5,0,0,1-.35,3Zm-27.25-.68a1.5,1.5,0,0,1-.28-3c1.31-.25,2.65-.46,4-.63a1.5,1.5,0,1,1,.38,3c-1.26.16-2.53.36-3.78.6Zm19.54-.7h-.18c-1.27-.15-2.55-.26-3.82-.33a1.5,1.5,0,1,1,.17-3c1.33.07,2.67.19,4,.34a1.5,1.5,0,0,1-.17,3Zm-11.75-.29a1.5,1.5,0,0,1-.1-3c1.32-.09,2.67-.14,4-.14h0a1.5,1.5,0,0,1,0,3c-1.28,0-2.57.05-3.83.14Z"/><path class="cls-2" d="M179.46,89.78a5,5,0,0,1-3.58-1.48q-.46-.45-.92-.89a1.5,1.5,0,0,1,2-2.2q.51.47,1,1a2,2,0,0,0,1.46.6A1.54,1.54,0,0,1,181,88.25a1.46,1.46,0,0,1-1.41,1.52Zm-55.69-.22a1.5,1.5,0,0,1-.52-2.91,2,2,0,0,0,.74-.47c.63-.63,1.3-1.25,2-1.84a1.5,1.5,0,1,1,2,2.26c-.63.54-1.24,1.12-1.82,1.7a5,5,0,0,1-1.83,1.17A1.5,1.5,0,0,1,123.77,89.56Zm-3.8-.87a1.5,1.5,0,0,1-1.08-.46,5.06,5.06,0,0,1-1-5.46,1.5,1.5,0,0,1,2.77,1.16,2.06,2.06,0,0,0,.41,2.22A1.5,1.5,0,0,1,120,88.68Zm62.79-1.13a1.5,1.5,0,0,1-1.39-2.06,2.06,2.06,0,0,0-.44-2.21,1.5,1.5,0,0,1,2.13-2.11,5.06,5.06,0,0,1,1.09,5.44A1.5,1.5,0,0,1,182.76,87.55Zm-10-2.39a1.49,1.49,0,0,1-.89-.29,35.37,35.37,0,0,0-3.31-2.18,1.5,1.5,0,1,1,1.5-2.6,38.44,38.44,0,0,1,3.59,2.36,1.5,1.5,0,0,1-.89,2.71Zm-42.59-.73a1.5,1.5,0,0,1-.85-2.73A38,38,0,0,1,133,79.46a1.5,1.5,0,0,1,1.41,2.65,35.2,35.2,0,0,0-3.38,2.06A1.49,1.49,0,0,1,130.22,84.43ZM122,81.82a1.5,1.5,0,0,1-1-2.62c1.06-.94,2.18-1.84,3.33-2.68a1.5,1.5,0,1,1,1.77,2.42c-1.07.78-2.12,1.63-3.11,2.5A1.49,1.49,0,0,1,122,81.82ZM165.67,81a1.5,1.5,0,0,1-.6-.12,34.38,34.38,0,0,0-3.71-1.37,1.5,1.5,0,1,1,.88-2.87,37.72,37.72,0,0,1,4,1.49,1.5,1.5,0,0,1-.6,2.88Zm13.27-.09a1.49,1.49,0,0,1-1-.35c-1-.85-2.09-1.66-3.18-2.4a1.5,1.5,0,1,1,1.69-2.48c1.17.8,2.32,1.67,3.41,2.57a1.5,1.5,0,0,1-1,2.65Zm-41.46-.39a1.5,1.5,0,0,1-.55-2.89A37.7,37.7,0,0,1,141,76.3a1.5,1.5,0,0,1,.78,2.9A35,35,0,0,0,138,80.44,1.49,1.49,0,0,1,137.49,80.55Zm20.3-1.93-.28,0a35.3,35.3,0,0,0-3.93-.5,1.5,1.5,0,0,1-1.39-1.6,1.52,1.52,0,0,1,1.6-1.39,38.45,38.45,0,0,1,4.26.55,1.5,1.5,0,0,1-.27,3Zm-12.34-.21a1.5,1.5,0,0,1-.22-3,38.72,38.72,0,0,1,4.28-.4,1.5,1.5,0,1,1,.11,3,35.58,35.58,0,0,0-3.95.37ZM128.69,77a1.5,1.5,0,0,1-.77-2.79c1.23-.73,2.5-1.4,3.78-2A1.5,1.5,0,1,1,133,74.88c-1.19.56-2.38,1.19-3.52,1.87A1.49,1.49,0,0,1,128.69,77Zm43.44-.67a1.49,1.49,0,0,1-.72-.19c-1.16-.64-2.36-1.23-3.58-1.76A1.5,1.5,0,1,1,169,71.58c1.31.57,2.6,1.2,3.83,1.89a1.5,1.5,0,0,1-.73,2.81Zm-36-2.85a1.5,1.5,0,0,1-.51-2.91c1.33-.48,2.71-.9,4.09-1.25a1.5,1.5,0,1,1,.74,2.91c-1.29.33-2.57.72-3.81,1.17A1.51,1.51,0,0,1,136.16,73.44ZM164.56,73a1.5,1.5,0,0,1-.46-.07c-1.26-.41-2.55-.76-3.85-1A1.5,1.5,0,0,1,160.9,69c1.39.31,2.77.69,4.12,1.12a1.5,1.5,0,0,1-.46,2.93Zm-20.41-1.6a1.5,1.5,0,0,1-.23-3c1.39-.22,2.82-.37,4.24-.46a1.5,1.5,0,0,1,.19,3c-1.33.08-2.67.23-4,.43Zm12.36-.19h-.19c-1.3-.16-2.64-.27-4-.31a1.5,1.5,0,0,1,0-3h0c1.43,0,2.86.16,4.26.33a1.5,1.5,0,0,1-.18,3Z"/><circle class="cls-2" cx="151" cy="113.18" r="5.79" transform="translate(-35.8 139.92) rotate(-45)"/><path class="cls-2" d="M136.77,104a5,5,0,0,1-.65,0,1.5,1.5,0,1,1,.38-3,2.08,2.08,0,0,0,1.72-.59l.24-.24a1.5,1.5,0,1,1,2.08,2.16l-.2.2A5,5,0,0,1,136.77,104Zm28.51,0a5.05,5.05,0,0,1-3.62-1.48l-.5-.48a1.5,1.5,0,0,1,2-2.22l.61.58a2,2,0,0,0,1.46.6,1.53,1.53,0,0,1,1.54,1.5,1.47,1.47,0,0,1-1.46,1.5v-1.5l0,1.5Zm3-1.7A1.5,1.5,0,0,1,167,100a2.07,2.07,0,0,0,.1-2,1.5,1.5,0,0,1,2.7-1.31,5.1,5.1,0,0,1,.5,2.2,5,5,0,0,1-.75,2.65A1.5,1.5,0,0,1,168.26,102.31ZM133.55,102a1.5,1.5,0,0,1-1.36-.86,5.06,5.06,0,0,1,.29-4.85,1.5,1.5,0,1,1,2.54,1.6,2.05,2.05,0,0,0-.31,1.09,2.08,2.08,0,0,0,.2.88,1.5,1.5,0,0,1-1.36,2.14Zm8.76-1.4a1.5,1.5,0,0,1-.79-2.78A18,18,0,0,1,145,96.13,1.5,1.5,0,0,1,146,99a15,15,0,0,0-2.92,1.38A1.49,1.49,0,0,1,142.32,100.57Zm17-.24a1.49,1.49,0,0,1-.75-.2,15,15,0,0,0-3-1.3,1.5,1.5,0,0,1,.91-2.86A17.93,17.93,0,0,1,160,97.53a1.5,1.5,0,0,1-.75,2.8ZM149,98.24a1.5,1.5,0,0,1-.18-3,18.34,18.34,0,0,1,3.88-.05,1.5,1.5,0,1,1-.28,3,15.22,15.22,0,0,0-3.24,0Zm17-1.9A1.49,1.49,0,0,1,165,96a22,22,0,0,0-2.73-1.91,1.5,1.5,0,1,1,1.53-2.58,25.1,25.1,0,0,1,3.1,2.17,1.5,1.5,0,0,1-1,2.66Zm-29.67-.24a1.5,1.5,0,0,1-.93-2.68,24.94,24.94,0,0,1,3.14-2.12A1.5,1.5,0,0,1,140,93.91a22.07,22.07,0,0,0-2.76,1.86A1.49,1.49,0,0,1,136.31,96.1Zm23.57-3.37a1.49,1.49,0,0,1-.56-.11,22.26,22.26,0,0,0-3.18-1,1.5,1.5,0,1,1,.69-2.92,25.25,25.25,0,0,1,3.61,1.15,1.5,1.5,0,0,1-.56,2.89Zm-17.4-.14a1.5,1.5,0,0,1-.54-2.9,25.3,25.3,0,0,1,3.63-1.09,1.5,1.5,0,1,1,.64,2.93,22.45,22.45,0,0,0-3.2,1A1.51,1.51,0,0,1,142.48,92.58ZM153,91.09h-.13a22.26,22.26,0,0,0-3.34,0,1.5,1.5,0,0,1-.2-3,25.49,25.49,0,0,1,3.78,0,1.5,1.5,0,0,1-.12,3Z"/><rect class="cls-2" x="133" y="134" width="30" height="3" rx="1.5" ry="1.5"/><rect class="cls-2" x="169" y="133" width="5" height="5" rx="2.5" ry="2.5"/><path class="cls-4" d="M92,262.83c0,1.5-.42,2.24-1.44,2.66s-2.75.45-5.63.42a12,12,0,0,0-.9-2.37c2.11.1,4.19.06,4.8.06s.83-.22.83-.77V240.94H68.14v25H65.78V238.7H92Zm-14.53-4.38c-.61-1.15-1.47-2.56-2.43-4.06A25.57,25.57,0,0,1,70.26,262a18.78,18.78,0,0,0-1.86-1.31,21.71,21.71,0,0,0,5.12-8.38c-1.41-2-3-4.1-4.42-5.86l1.47-1.31c1.25,1.44,2.53,3.1,3.74,4.74a57,57,0,0,0,1.44-6.69l2.18.22a58.16,58.16,0,0,1-2,8.64c1.25,1.79,2.37,3.52,3.14,4.9Zm9.21,1A51.63,51.63,0,0,0,84,254.54a24.44,24.44,0,0,1-4.86,7.68,14,14,0,0,0-1.89-1.31,21,21,0,0,0,5.34-8.61c-1.38-2-2.91-4.1-4.35-5.89l1.54-1.18c1.22,1.41,2.43,3,3.58,4.61a50.41,50.41,0,0,0,1.38-6.62l2.14.22a53.64,53.64,0,0,1-2,8.64,46.54,46.54,0,0,1,3.39,6Z"/><path class="cls-4" d="M127.44,240.62a22.33,22.33,0,0,1-6,8,23.72,23.72,0,0,0,7.36,3.3,7.28,7.28,0,0,0-1,2.18A27.09,27.09,0,0,1,119.7,250a33.17,33.17,0,0,1-8.64,4.35,9.94,9.94,0,0,0-1-2.21,29.41,29.41,0,0,0,7.9-3.58,20.41,20.41,0,0,1-3.55-4.29,22.35,22.35,0,0,1-2.88,3.26,22,22,0,0,0-1.44-1.79,64.18,64.18,0,0,1-6.14,8.48l5.86-1.28a8.83,8.83,0,0,0,.06,2.08c-7.87,1.92-8.93,2.24-9.6,2.66-.13-.48-.51-1.63-.77-2.27.67-.13,1.44-.9,2.4-2.08a35.52,35.52,0,0,0,3.3-4.22c-3.94.54-4.7.74-5.15,1a17.74,17.74,0,0,0-.77-2.3c.54-.16,1.12-.86,1.82-2a46.92,46.92,0,0,0,4.38-8.9L107.7,238a55.44,55.44,0,0,1-5.15,9.34l4-.42c.7-1.09,1.34-2.21,1.92-3.3l2.08,1.25-.35.61a24.62,24.62,0,0,0,6-9.12l2.14.64c-.38.93-.83,1.92-1.28,2.82h8.48l.45-.06Zm-28,21.25c2.66-.64,6.72-1.82,10.72-3l.38,2.08c-3.74,1.12-7.65,2.3-10.59,3.26ZM112.95,254h13.53v11.62h-2.3v-1.54h-9v1.57h-2.21Zm2.21,2.14V262h9v-5.82Zm.54-13.82a15.55,15.55,0,0,0,3.94,4.9A18.35,18.35,0,0,0,124.3,242h-8.38Z"/><path class="cls-4" d="M152.75,241.39c-.7,1.18-1.47,2.34-2.27,3.52v21H148V248.11a41,41,0,0,1-11.58,9.31,16.34,16.34,0,0,0-1.6-2.08,37.13,37.13,0,0,0,14.94-14H135.57V239h27.33v2.37Zm.13,5.34a73,73,0,0,1,10.91,8.42L161.9,257a71.43,71.43,0,0,0-10.78-8.7Z"/><path class="cls-4" d="M179.25,255.88c-.38-.93-1.38-2.72-2.21-4.19V266H174.8V252.49a32.72,32.72,0,0,1-3.94,7.94,11.49,11.49,0,0,0-1.25-2.3,34,34,0,0,0,4.83-10h-4.13v-2.24h4.48v-5.15c-1.15.26-2.34.48-3.42.67a11.22,11.22,0,0,0-.7-1.89,38.8,38.8,0,0,0,8.48-2.5l1.47,1.92a22.17,22.17,0,0,1-3.58,1.25v5.7h3.65v2.24H177v.74c.83,1,3.17,4.22,3.71,5.06Zm-.77,7.49a33.89,33.89,0,0,0,2.82-5.86l1.86.83c-.77,1.76-1.76,4.35-2.75,6.08Zm3.58-18.75c-.32.29-.64.51-1,.77a6,6,0,0,0-1.47-1.5,18.6,18.6,0,0,0,5.89-7.26l2.21.38c-.29.64-.64,1.28-1,1.92h6.5l.35-.1,1.47,1a29.16,29.16,0,0,1-2.66,4.13h4.16v11.29H181.62v-2h12.8v-2.78H182.48v-1.86h11.94v-2.66H182.06Zm3.42-3.78a23.69,23.69,0,0,1-2.66,3.07H190a22.37,22.37,0,0,0,2-3.07Zm6.3,22.72c1,0,1.18-.38,1.28-3.2a6.56,6.56,0,0,0,2,.8c-.22,3.46-.86,4.32-3,4.32H187.5c-2.69,0-3.36-.61-3.36-2.78v-5.18h2.18v5.18c0,.74.19.86,1.41.86Zm-1.22-2.85a30.63,30.63,0,0,0-3.3-4.06l1.66-.93a29.52,29.52,0,0,1,3.36,3.94Zm5.54-3.46a34.45,34.45,0,0,1,3,6.14l-2,.77a38.2,38.2,0,0,0-2.88-6.3Z"/><path class="cls-4" d="M220.82,262.7a27,27,0,0,0,5.25.42c1.15,0,6.62,0,8.16-.06a8.07,8.07,0,0,0-.9,2.4h-7.39c-6.66,0-11.42-1.15-14.33-6.59a17,17,0,0,1-4.77,7.23,10.79,10.79,0,0,0-1.92-1.63c3.55-2.72,5.28-7.26,6-13l2.37.26c-.19,1.47-.45,2.85-.74,4.13a9.68,9.68,0,0,0,5.86,6.24V248.85h-7.94v-2.27H229v2.27h-8.16v5.21h9.47v2.24h-9.47Zm-12.13-15.39h-2.34v-6.94h12.41a27.78,27.78,0,0,0-1.47-3.14l2.3-.67a26.11,26.11,0,0,1,1.89,3.81h11.39v6.94h-2.4v-4.67H208.69Z"/></g></g></svg>