<svg xmlns="http://www.w3.org/2000/svg" viewBox="0 0 300 300"><defs><style>.cls-1{fill:none;}.cls-2{fill:#a6a6a6;stroke:#cbcbcb;stroke-miterlimit:10;stroke-width:0.5px;}.cls-3{fill:#fff;}.cls-4{fill:#cbcbcb;}</style></defs><title>资源 5</title><g id="图层_2" data-name="图层 2"><g id="图层_1-2" data-name="图层 1"><rect class="cls-1" width="300" height="300"/><path class="cls-2" d="M53.74,252.61l-7.3.77-.22-2c2-.16,4.64-.42,7.52-.67v-2.66H49.9a4.94,4.94,0,0,0-2.56.45,16.52,16.52,0,0,0-.77-2.18A3.38,3.38,0,0,0,48.21,245a20.19,20.19,0,0,0,1.54-2.21H46.19V240.9h4.67c.38-.74.77-1.47,1.09-2.24l2.4.67c-.29.54-.61,1-.93,1.57h7.49v1.86H52.24a33.78,33.78,0,0,1-2.62,3.39h4.13v-2.08H56v2.08h5v1.92H56v2.43c1.6-.16,3.2-.35,4.8-.51l0,1.82-4.83.54v3.1H53.74Zm-3.68,3.46H70.83v11.81H68.49v-1.06H52.34v1.12H50.06ZM52.34,258v2.59H68.49V258Zm16.16,7v-2.66H52.34v2.66Zm6.24-17.09H71v7.55H68.78v-7.55H64.49A14,14,0,0,1,62,255.42a11.59,11.59,0,0,0-1.79-1.18c2-2.56,2.27-6,2.27-8.61v-4.77a50,50,0,0,0,10.08-1.66L73.81,241a47.87,47.87,0,0,1-9.22,1.5v3.39H74.73Z"/><path class="cls-2" d="M105.9,264.89c1.57,0,1.82-.74,2-5.09a7.2,7.2,0,0,0,2.27,1c-.32,5.09-1.06,6.4-4.13,6.4h-6c-3.3,0-4.16-.83-4.16-3.68V252.61h-.67C94,258.78,90.77,264.67,82.58,268a7.79,7.79,0,0,0-1.6-2c7.52-2.85,10.59-7.94,11.93-13.41H81.39v-2.33H93.33a60.11,60.11,0,0,0,.58-7.07H83.38v-2.3h24.7v2.3H96.24a59.91,59.91,0,0,1-.58,7.07H109.9v2.33H98.38v10.91c0,1.12.32,1.38,2,1.38Z"/><path class="cls-2" d="M124,250.62c1.15,1.15,4.06,4.51,4.74,5.38l-1.5,1.89c-.61-1-2-3-3.23-4.58v14.46h-2.27V252.86a33.85,33.85,0,0,1-4.54,9.09,15.58,15.58,0,0,0-1.38-2.18c2.27-2.72,4.48-7.68,5.63-12h-4.86v-2.24h5.15v-6.82H124v6.82h4.58v2.24H124Zm20.29-10v27H142v-1.79h-9.73v1.79H130v-27Zm-12.06,2.24v5.34H142v-5.34Zm0,13H142v-5.5h-9.73Zm9.73,7.71v-5.5h-9.73v5.5Z"/><path class="cls-2" d="M168,255.9a18.76,18.76,0,0,0,12.57,9.57,8.68,8.68,0,0,0-1.66,2.24,20,20,0,0,1-12.48-10c-1.44,3.68-4.93,7.36-13.12,10.21a8.26,8.26,0,0,0-1.7-2c8.51-2.91,11.55-6.53,12.57-10H152.3v-2.34h12.42c0-.64.06-1.22.06-1.82v-3.87H154.22v-2.34h15a46.29,46.29,0,0,0,3.52-6.69l2.53.9c-1.06,1.89-2.34,4.06-3.49,5.79h6.34v2.34H167.44v3.9c0,.61,0,1.18-.06,1.79h12.45v2.34ZM159.25,239a23.07,23.07,0,0,1,3.29,5.34l-2.11,1.15a24.15,24.15,0,0,0-3.17-5.5Z"/><path class="cls-2" d="M195.6,239.49a49.72,49.72,0,0,1-2.69,6.3v22.27H190.7V249.63a36.35,36.35,0,0,1-3,4.13,14.86,14.86,0,0,0-1.31-2.21,36.86,36.86,0,0,0,7.14-12.7ZM215.44,244v2H195.18v-2ZM197,257.7h16.19v10.18h-2.11v-1.15h-12V268H197Zm15.87-7.17H197.49v-2h15.42Zm-15.42,2.53h15.42v2H197.49Zm1.63,6.62v5.06h12v-5.06Zm5.63-15.87a30.39,30.39,0,0,0-2.21-4.26l2-.83a24.53,24.53,0,0,1,2.34,4.16Z"/><path class="cls-2" d="M222,265.41a31.29,31.29,0,0,0,3.23-6.46l2.08.9a56.35,56.35,0,0,1-3.14,6.59Zm13.57-8.58h-8.86V241.7h7.42a23.28,23.28,0,0,0,1.22-3.29l2.75.48a23,23,0,0,1-1.5,2.82h9.54v15.14H235.73a24.87,24.87,0,0,1,4.29,4.8l-1.92,1.18a25.21,25.21,0,0,0-4.26-5Zm5.12,8.35c1.7,0,2-.48,2.14-3.71a6.07,6.07,0,0,0,2.21.9c-.32,4.06-1.09,5-4.19,5h-7.29c-3.71,0-4.67-.67-4.67-3.2V259h2.37v5.18c0,.86.35,1,2.43,1Zm-11.68-19h14.75v-2.56H229Zm0,4.38h14.75V248H229Zm0,4.38h14.75v-2.56H229Zm17.89,3.52a24.65,24.65,0,0,1,3.65,6.33l-2.21,1a25.71,25.71,0,0,0-3.55-6.46Z"/><path class="cls-3" d="M193,153H107a10,10,0,0,1-10-10V39a10,10,0,0,1,10-10h60.83c.92,0,1.8-.1,2.44.55l32.06,32.11a2.68,2.68,0,0,1,.66,2.22V143A10,10,0,0,1,193,153Z"/><path class="cls-4" d="M193,154H107a11,11,0,0,1-11-11V39a11,11,0,0,1,11-11h61.14a3.62,3.62,0,0,1,2.85.85L203,61a3.62,3.62,0,0,1,1,2.93V143A11,11,0,0,1,193,154ZM107,30a9,9,0,0,0-9,9V143a9,9,0,0,0,9,9h86a9,9,0,0,0,9-9V63.89c0-.93,0-1.18-.37-1.51L169.57,30.26c-.26-.26-.68-.27-1.41-.26H107Z"/><path class="cls-4" d="M203,65H182.06C174.82,65,168,56.12,168,49.24V30h2V49.24C170,55.12,176,63,182.06,63H203Z"/><rect class="cls-4" x="112" y="52" width="45" height="2" rx="1" ry="1"/><rect class="cls-4" x="112" y="94" width="46" height="2" rx="1" ry="1"/><rect class="cls-4" x="162" y="94" width="13" height="2" rx="1" ry="1"/><rect class="cls-4" x="112" y="74" width="17" height="2" rx="1" ry="1"/><rect class="cls-4" x="134" y="74" width="55" height="2" rx="1" ry="1"/><rect class="cls-4" x="62" y="152.5" width="18" height="6" rx="3" ry="3"/><rect class="cls-4" x="91" y="152.5" width="147" height="6" rx="3" ry="3"/><rect class="cls-4" x="174" y="177.5" width="31" height="6" rx="3" ry="3"/><rect class="cls-4" x="95" y="177.5" width="71" height="6" rx="3" ry="3"/></g></g></svg>