<svg xmlns="http://www.w3.org/2000/svg" viewBox="0 0 300 300"><defs><style>.cls-1{fill:none;}.cls-2{fill:#a6a6a6;}.cls-3{fill:#cbcbcb;}.cls-4{fill:#fff;}</style></defs><title>资源 9</title><g id="图层_2" data-name="图层 2"><g id="图层_1-2" data-name="图层 1"><rect class="cls-1" width="300" height="300"/><path class="cls-2" d="M58.17,263.12c0,1.28-.26,2-1.09,2.4S55,266,52.86,266a7.78,7.78,0,0,0-.7-2.27c1.47,0,2.82,0,3.2,0s.61-.16.61-.61v-7.87h-5C50.65,259,50,263,48.54,266a7.87,7.87,0,0,0-2-1.15C48.79,260.36,49,254,49,249.33V237.9h9.22ZM56,252.94v-5.37H51.13v1.76c0,1.09,0,2.34-.06,3.62Zm-4.83-12.83v5.25H56v-5.25Zm24.25,9.09A27.37,27.37,0,0,1,71,260a17.24,17.24,0,0,0,5.34,4.19A8.33,8.33,0,0,0,74.81,266a19.44,19.44,0,0,1-5.18-4.32,18.7,18.7,0,0,1-4.83,4.1A8.3,8.3,0,0,0,63.38,264a17.55,17.55,0,0,0,4.9-4.06A34.08,34.08,0,0,1,64,251h-.8v15H61V238h13.5v6.14c0,1.22-.29,1.82-1.25,2.18a20,20,0,0,1-5,.32,6.76,6.76,0,0,0-.77-2c2,0,3.62,0,4.1,0s.64-.13.64-.51v-3.9h-9v8.58H73.59l.42-.06ZM66.1,251a27.63,27.63,0,0,0,3.49,7.17,24,24,0,0,0,3.2-7.17Z"/><path class="cls-2" d="M108.05,240.88a20.89,20.89,0,0,1-8.42,6.82,50.45,50.45,0,0,0,11.55,1.86,9.19,9.19,0,0,0-1.31,2.14,44.34,44.34,0,0,1-13.06-2.82,57.69,57.69,0,0,1-13.69,3.2,7.65,7.65,0,0,0-1-2.08,57.62,57.62,0,0,0,12-2.37,17.39,17.39,0,0,1-4.77-3.78A30.78,30.78,0,0,1,85,246.8,7.05,7.05,0,0,0,83.58,245a22.91,22.91,0,0,0,9.28-8.35l2.5.51a31.22,31.22,0,0,1-2,2.82h12.9l.42-.13Zm.26,13.6a6.24,6.24,0,0,1-.13,1.06c-.67,5.79-1.41,8.19-2.5,9.18a3.68,3.68,0,0,1-2.59.86c-.93,0-2.85,0-4.73-.1a4.54,4.54,0,0,0-.74-2.11c2,.19,4,.22,4.83.22a2.15,2.15,0,0,0,1.38-.29c.74-.61,1.38-2.56,1.92-6.75h-9.7c-2,5.15-6,7.84-12.22,9.34a9.88,9.88,0,0,0-1.31-2c5.63-1.09,9.18-3.23,11-7.33h-8.8v-2.08h9.54a21.43,21.43,0,0,0,.61-3.17l2.46.19c-.16,1.06-.38,2.08-.61,3ZM91,242.51a14.87,14.87,0,0,0,5.89,4.19,22.6,22.6,0,0,0,7.52-4.64H91.45Z"/><path class="cls-2" d="M137.43,252.11a24.78,24.78,0,0,0,9.25,4.38,7.69,7.69,0,0,0-1.5,1.89c-.61-.19-1.22-.38-1.82-.61v8H141V265h-5.66v.93h-2.21v-9.79h6.62a22.3,22.3,0,0,1-5.34-4h-6a24.92,24.92,0,0,1-5,4h6.75v9.63h-2.27V265h-5.31v.93h-2.21V257.8c-.71.32-1.41.64-2.18.93a5.41,5.41,0,0,0-1.28-1.79,27.12,27.12,0,0,0,8.38-4.83h-7.81V250h9.86a14.53,14.53,0,0,0,2.14-3.23H119.8v-8.61h10.08v8.25l2.27.45a25,25,0,0,1-1.92,3.14h8.93a20.17,20.17,0,0,0-3.81-1.92l1.25-1.25a17.93,17.93,0,0,1,4.7,2.37l-.77.8h5.54v2.11Zm-9.82-11.9h-5.66v4.51h5.66Zm.32,18h-5.31v4.7h5.31Zm15.81-11.46H133.3v-8.61h10.43ZM141,262.92v-4.7h-5.66v4.7Zm.38-22.72h-5.92v4.51h5.92Z"/><path class="cls-2" d="M181.24,252.46h-7.1V266H171.7V252.46h-9c-.45,5-2.08,10-7.94,13.63a10.87,10.87,0,0,0-1.89-1.76,14.69,14.69,0,0,0,7.39-11.87h-7.49v-2.3h7.58c0-.48,0-.9,0-1.38V241.1H154v-2.27h26.27v2.27h-6.11v9.06h7.1Zm-9.54-2.3V241.1h-8.9v9.06Z"/><path class="cls-2" d="M195.35,245.13c-1.09,4.74-3,10.56-6,14.17a16.2,16.2,0,0,0-2.11-1.41c2.91-3.36,4.67-8.93,5.47-13.25Zm8.22-7.9v25.41c0,1.76-.48,2.5-1.57,2.94a23.05,23.05,0,0,1-6.11.45,11.39,11.39,0,0,0-1-2.56c2.34.06,4.58.06,5.21,0s.9-.22.9-.86V237.23Zm7.33,7.07c2.78,4.48,5.47,10.3,6.27,14.08l-2.46,1.12a53.53,53.53,0,0,0-6-14.24Z"/><path class="cls-2" d="M234.68,253a22.08,22.08,0,0,1-1.44,2.56h15.71v2.21h-7.36v4.54h9.66v2.24H228.57v-2.24h10.59V257.8h-6.4v-1.47a24.48,24.48,0,0,1-8.29,7.55,12.33,12.33,0,0,0-1.73-2A21,21,0,0,0,232,253h-8.51V250.8h9.66A27,27,0,0,0,234.2,248h-7.81v-2.14h8.45a24.08,24.08,0,0,0,.64-2.72H224.86v-2.21h6.34a19,19,0,0,0-2.11-3.26l2-.83a17.63,17.63,0,0,1,2.69,4.1h7.3a31.75,31.75,0,0,0,2.43-4.22l2.56.77c-.74,1.15-1.6,2.43-2.37,3.46h6.43v2.21H238c-.22.93-.45,1.86-.7,2.72H248.6V248H236.73c-.32,1-.67,1.92-1,2.82h15.65V253Z"/><rect class="cls-3" x="181" y="175.5" width="25" height="6" rx="3" ry="3"/><rect class="cls-3" x="96" y="175.5" width="75" height="6" rx="3" ry="3"/><rect class="cls-3" x="229" y="150.5" width="10" height="6" rx="3" ry="3"/><rect class="cls-3" x="63" y="150.5" width="157" height="6" rx="3" ry="3"/><path class="cls-3" d="M206.14,135.68H181v-8h25.14a5.06,5.06,0,0,0,5-5V111a5.05,5.05,0,0,0-5-5H183.62V98h22.52a13.06,13.06,0,0,1,13,13v11.58A13.06,13.06,0,0,1,206.14,135.68Z"/><path class="cls-3" d="M151,72.72a1.5,1.5,0,0,1-1.06-.44,15.32,15.32,0,0,1,0-21.67,12.32,12.32,0,0,0,0-17.42,1.5,1.5,0,1,1,2.12-2.12,15.32,15.32,0,0,1,0,21.67,12.33,12.33,0,0,0,0,17.42A1.5,1.5,0,0,1,151,72.72Z"/><path class="cls-3" d="M133.5,72.72a1.5,1.5,0,0,1-1.06-.44,15.25,15.25,0,0,1-3.25-16.87,1.5,1.5,0,1,1,2.76,1.18,12.27,12.27,0,0,0,2.62,13.57,1.5,1.5,0,0,1-1.06,2.56Z"/><path class="cls-3" d="M133.5,53.17a1.5,1.5,0,0,1-1.06-2.56,12.29,12.29,0,0,0,3.34-11.29,1.5,1.5,0,1,1,2.93-.62,15.28,15.28,0,0,1-4.15,14A1.5,1.5,0,0,1,133.5,53.17Z"/><path class="cls-3" d="M168.5,72.72a1.5,1.5,0,0,1-1.06-.44,15.19,15.19,0,0,1-3.64-5.79,1.5,1.5,0,1,1,2.83-1,12.21,12.21,0,0,0,2.92,4.65,1.5,1.5,0,0,1-1.06,2.56Z"/><path class="cls-3" d="M164.46,62.5h0A1.5,1.5,0,0,1,163,61a15.27,15.27,0,0,1,4.48-10.34,12.33,12.33,0,0,0,2-14.86,1.5,1.5,0,0,1,2.6-1.5,15.33,15.33,0,0,1-2.44,18.48A12.28,12.28,0,0,0,166,61,1.5,1.5,0,0,1,164.46,62.5Z"/><path class="cls-4" d="M174.76,150H127.24a12.66,12.66,0,0,1-12.62-11.7L111.1,91.92A4.58,4.58,0,0,1,115.67,87h70.67a4.58,4.58,0,0,1,4.56,4.92l-3.52,46.38A12.66,12.66,0,0,1,174.76,150Z"/><path class="cls-3" d="M174.76,152H127.24a14.72,14.72,0,0,1-14.61-13.55l-3.52-46.38A6.58,6.58,0,0,1,115.67,85h70.67a6.58,6.58,0,0,1,6.56,7.08l-3.52,46.38A14.72,14.72,0,0,1,174.76,152ZM115.67,89a2.58,2.58,0,0,0-2.57,2.77l3.52,46.38A10.7,10.7,0,0,0,127.24,148h47.51a10.7,10.7,0,0,0,10.63-9.85l3.52-46.38A2.58,2.58,0,0,0,186.33,89Z"/></g></g></svg>