<?xml version="1.0" encoding="UTF-8"?>
<svg width="72px" height="72px" viewBox="0 0 36 36" version="1.1" xmlns="http://www.w3.org/2000/svg" xmlns:xlink="http://www.w3.org/1999/xlink">
    <!-- Generator: Sketch 48.2 (47327) - http://www.bohemiancoding.com/sketch -->
    <title>ic/plaint</title>
    <desc>Created with Sketch.</desc>
    <defs>
        <rect id="path-1" x="10" y="4" width="16" height="28"></rect>
        <polygon id="path-2" points="35.9998 36.0002 0 36.0002 0 0.0002 35.9998 0.0002 35.9998 36.0002"></polygon>
    </defs>
    <g id="Symbols" stroke="none" stroke-width="1" fill="none" fill-rule="evenodd">
        <g id="ic/plaint">
            <g id="Page-1">
                <g id="Rectangle">
                    <use fill="#FFFFFF" fill-rule="evenodd" xlink:href="#path-1"></use>
                    <rect stroke="#979797" stroke-width="1" x="10.5" y="4.5" width="15" height="27"></rect>
                </g>
                <mask id="mask-3" fill="white">
                    <use xlink:href="#path-2"></use>
                </mask>
                <g id="Clip-2"></g>
                <path d="M20.0068,20.9848 C20.0068,22.0888 19.1108,22.9848 18.0068,22.9848 C16.9028,22.9848 16.0068,22.0888 16.0068,20.9848 L16.0068,7.9848 C16.0068,6.8808 16.9028,5.9848 18.0068,5.9848 C19.1108,5.9848 20.0068,6.8808 20.0068,7.9848 L20.0068,20.9848 Z M18.0068,29.9848 C16.9028,29.9848 16.0068,29.0888 16.0068,27.9848 C16.0068,26.8808 16.9028,25.9848 18.0068,25.9848 C19.1108,25.9848 20.0068,26.8808 20.0068,27.9848 C20.0068,29.0888 19.1108,29.9848 18.0068,29.9848 L18.0068,29.9848 Z M17.9998,-0.0002 C8.0588,-0.0002 -0.0002,8.0588 -0.0002,17.9998 C-0.0002,27.9408 8.0588,36.0008 17.9998,36.0008 C27.9408,36.0008 35.9998,27.9408 35.9998,17.9998 C35.9998,8.0588 27.9408,-0.0002 17.9998,-0.0002 L17.9998,-0.0002 Z" id="Fill-1" fill="#F34747" mask="url(#mask-3)"></path>
            </g>
        </g>
    </g>
</svg>