<?xml version="1.0" encoding="UTF-8"?>
<svg width="36px" height="36px" viewBox="0 0 36 36" version="1.1" xmlns="http://www.w3.org/2000/svg" xmlns:xlink="http://www.w3.org/1999/xlink">
    <!-- Generator: Sketch 48.2 (47327) - http://www.bohemiancoding.com/sketch -->
    <title>ic_again</title>
    <desc>Created with Sketch.</desc>
    <defs></defs>
    <g id="Symbols" stroke="none" stroke-width="1" fill="none" fill-rule="evenodd">
        <g id="ic_again" fill="#FFFFFF" fill-rule="nonzero">
            <g id="rotate-cw" transform="translate(7.000000, 8.000000)">
                <path d="M20,6 L20,1 C20,-0.1045695 20.8954305,-1 22,-1 C23.1045695,-1 24,-0.1045695 24,1 L24,8 C24,9.1045695 23.1045695,10 22,10 L15,10 C13.8954305,10 13,9.1045695 13,8 C13,6.8954305 13.8954305,6 15,6 L20,6 Z" id="Shape"></path>
                <path d="M17.3507219,12.6707515 C17.715456,11.628138 18.8563366,11.0786082 19.89895,11.4433423 C20.9415635,11.8080764 21.4910933,12.948957 21.1263592,13.9915705 C19.3630308,19.0321465 14.5037082,22.2923016 9.20619191,21.9793177 C3.91006888,21.6664161 -0.53732662,17.858294 -1.70614462,12.6466939 C-2.87384954,7.44005682 -0.489899924,2.07870748 4.14835469,-0.504134856 C8.79542291,-3.0918851 14.5793891,-2.2633429 18.2844283,1.48210008 L23.3782758,6.32645157 C24.1786802,7.08765229 24.2104611,8.35358338 23.4492604,9.15398781 C22.6880597,9.95439224 21.4221286,9.98617313 20.6217242,9.22497242 L15.4845364,4.33813264 C12.9977106,1.82506651 9.17162845,1.27698749 6.09439966,2.99056241 C3.00835726,4.70904524 1.41611031,8.28990621 2.19690166,11.7713484 C2.97657992,15.2478274 5.93258575,17.7789338 9.44210555,17.9862807 C12.950232,18.1935452 16.1757293,16.0295354 17.3507219,12.6707515 Z" id="Shape"></path>
            </g>
        </g>
    </g>
</svg>