<?xml version="1.0" encoding="UTF-8"?>
<svg width="36px" height="36px" viewBox="0 0 36 36" version="1.1" xmlns="http://www.w3.org/2000/svg" xmlns:xlink="http://www.w3.org/1999/xlink">
    <!-- Generator: Sketch 49.2 (51160) - http://www.bohemiancoding.com/sketch -->
    <title>ic/serviceman_w</title>
    <desc>Created with Sketch.</desc>
    <defs></defs>
    <g id="ic/serviceman_w" stroke="none" stroke-width="1" fill="none" fill-rule="evenodd">
        <path d="M20.2857143,26 C18.4096654,27.3804199 17.1932939,26.3058758 16.7142857,26 C16.8069457,25.9347522 16.4138933,25.942211 16,26 C15.9354183,26.4471901 15.9427191,26.8496816 16,27.3333333 C16.6147091,27.5096207 17.4484257,28 18.1428571,28 C19.1689531,28 19.9538364,27.772359 21,27.3333333 C21.0304408,26.9236056 21.0804672,26.5242076 21,26 C20.6575013,25.9688954 20.2644489,25.9182732 20.2857143,26 Z M13.6666667,19 C13.4479091,19 13,19.5370909 13,20.6 L13,21.4 C13,22.4628727 13.4479091,23 13.6666667,23 C14.5520909,23 15,22.4628727 15,21.4 L15,20.6 C15,19.5371273 14.5520909,19 13.6666667,19 Z M23.3333333,19 C22.4479091,19 22,19.5370909 22,20.6 L22,21.4 C22,22.4628727 22.4479091,23 23.3333333,23 C23.5520909,23 24,22.4628727 24,21.4 L24,20.6 C24,19.5371273 23.5520909,19 23.3333333,19 Z M29.5714286,16.5555556 C29.6111409,10.2537887 24.4190889,5.00000003 18.8571429,5 C12.5809426,4.99999997 7.38889063,10.2537887 7.42857143,16.5555556 C6.62503235,16.2432433 6,16.8756438 6,18 L6,22.3333333 C6,23.3405086 6.62503235,23.972973 7.42857143,23.7777778 L8.14285714,23.7777778 C8.84719424,23.972973 9.47222659,23.3405086 9.57142857,22.3333333 L9.57142857,19.4444444 C14.9214759,19.4586511 18.7110956,15.4680983 20.2857143,12.9444444 C21.7213267,13.964602 24.7798217,16.4083784 27.4285714,16.5555556 C27.6129061,17.1030319 27.527805,17.3659705 27.4285714,18 L27.4285714,22.3333333 C27.527805,22.9032359 27.6504692,23.2082088 28.1428571,23.7777778 C27.5069716,26.0312531 25.2901443,28.1252113 21,29.5555556 C21.1232514,29.2296044 20.7184529,28.8918919 20.2857143,28.8333333 L16.7142857,28.8333333 C16.1909851,28.8918919 15.7222345,29.3662162 16,30.2777778 C15.7222345,30.5256757 16.1909851,31 16.7142857,31 L20.2857143,31 C20.6207887,31 20.9545959,30.7837592 21,30.2777778 C25.480959,28.8678403 27.9533421,26.6615135 28.1428571,23.7777778 C28.6211144,23.9418624 28.7648646,23.972973 28.8571429,23.7777778 L29.5714286,23.7777778 C30.3749677,23.972973 31,23.3405086 31,22.3333333 L31,18 C31.0000316,16.8756437 30.3749992,16.2432433 29.5714286,16.5555556 Z" id="Shape" fill="#FFFFFF" fill-rule="nonzero"></path>
    </g>
</svg>