<svg xmlns="http://www.w3.org/2000/svg" xmlns:xlink="http://www.w3.org/1999/xlink" width="314.111" height="276.932" viewBox="0 0 314.111 276.932">
  <defs>
    <linearGradient id="linear-gradient" x1="0.5" y1="1" x2="0.5" y2="0.014" gradientUnits="objectBoundingBox">
      <stop offset="0" stop-color="#c4c9ff" stop-opacity="0.063"/>
      <stop offset="1" stop-color="#5382ff" stop-opacity="0.09"/>
    </linearGradient>
  </defs>
  <g id="icon-voice-notfound" transform="translate(7954.993 6951.968)">
    <g id="组_3046" data-name="组 3046" transform="translate(-7954.993 -6951.968)">
      <g id="组_3032" data-name="组 3032" transform="translate(0 0)">
        <path id="路径_3992" data-name="路径 3992" d="M58.755,248.516c-2.544,8.593-8.6,33.043,1.454,61.126,2.666,7.5,13.084,35.223,42.765,51.2,5.089,2.784,32.829,17.673,61.178,8.352,18.777-6.173,17.929-16.34,35.132-20.7,22.774-5.689,30.892,10.288,58.876,10.652,32.951.363,57.3-21.546,62.752-26.75,19.262-18.278,25.32-39.46,27.864-49.264a116.7,116.7,0,0,0-4.725-74.077c-12.6-30.5-34.89-46.844-44.459-53.137-27.986-17.914-66.873-25.54-100.067-13.677-42.158,15.008-34.162,46.358-80.319,61.246-16.6,5.325-38.4,7.867-52.092,26.749a52.255,52.255,0,0,0-8.36,18.278Z" transform="translate(-54.613 -136.534)" opacity="0.8" fill="url(#linear-gradient)"/>
      </g>
    </g>
    <g id="组_3044" data-name="组 3044" transform="translate(-7961.311 -7005.826)">
      <path id="路径_3999" data-name="路径 3999" d="M73.232,333.066h253.2a1.976,1.976,0,1,1,0,3.953H73.233a1.976,1.976,0,1,1,0-3.953Zm272.982,0h11.869a1.976,1.976,0,1,1,0,3.953H346.215a1.976,1.976,0,1,1,0-3.953ZM217.636,344.924H229.5a1.976,1.976,0,1,1,0,3.953H217.636a1.976,1.976,0,1,1,0-3.953Zm31.65,0h51.431a1.976,1.976,0,1,1,0,3.953H249.286a1.976,1.976,0,1,1,0-3.953Zm-136.491,0h89.016a1.976,1.976,0,1,1,0,3.953H112.795a1.976,1.976,0,1,1,0-3.953Zm215.617-115.1a7.906,7.906,0,1,0-7.913-7.906,7.909,7.909,0,0,0,7.913,7.906Zm0,3.953a11.858,11.858,0,1,1,11.869-11.858A11.863,11.863,0,0,1,328.412,233.777ZM211.7,107.288a7.906,7.906,0,1,0-7.912-7.906,7.909,7.909,0,0,0,7.912,7.906Zm0,3.953a11.858,11.858,0,1,1,11.869-11.858A11.863,11.863,0,0,1,211.7,111.241Zm-108.8,183.8a7.906,7.906,0,1,0-7.912-7.905,7.909,7.909,0,0,0,7.912,7.905Zm0,3.953a11.858,11.858,0,1,1,11.869-11.858A11.863,11.863,0,0,1,102.9,299Z" transform="translate(-39.633 -18.087)" fill="#e0ebff"/>
      <path id="路径_4003" data-name="路径 4003" d="M110.276,625.778h11.858a1.977,1.977,0,0,1,0,3.953H110.277a1.976,1.976,0,1,1,0-3.953Z" transform="translate(-70.749 -408.2)" fill="#e0ebff"/>
      <path id="路径_4004" data-name="路径 4004" d="M129.319,399.075v11.858a1.976,1.976,0,1,1-3.953,0V399.075a1.976,1.976,0,1,1,3.953,0ZM309.17,284.444h11.859a1.976,1.976,0,0,1,0,3.953H309.17a1.976,1.976,0,1,1,0-3.953Z" transform="translate(-81.887 -185.496)" fill="#e0ebff"/>
      <path id="路径_4005" data-name="路径 4005" d="M669.764,269.354v11.858a1.976,1.976,0,0,1-3.953,0V269.354a1.976,1.976,0,1,1,3.953,0Z" transform="translate(-434.388 -174.409)" fill="#e0ebff"/>
      <path id="路径_4007" data-name="路径 4007" d="M339.547,409.586l105.658.041a11.858,11.858,0,0,1,11.858,11.858V559.832h-108.7c-6.549,0-21.627-5.345-21.626-11.894l0-127.4s.949-5.212,4.151-7.949S339.547,409.586,339.547,409.586Z" transform="translate(-213.18 -272.758)" fill="#e0ebff"/>
      <path id="路径_4008" data-name="路径 4008" d="M256.691,426.667H375.274a11.858,11.858,0,0,1,11.858,11.858v142.3h-142.3v-142.3a11.858,11.858,0,0,1,11.859-11.858Z" transform="translate(-159.727 -278.175)" fill="#fff"/>
      <path id="路径_4010" data-name="路径 4010" d="M315.813,515.262h27.669a1.976,1.976,0,1,1,0,3.953H315.814a1.976,1.976,0,1,1,0-3.953Zm61.268,0h27.67a1.976,1.976,0,1,1,0,3.953H377.081a1.976,1.976,0,1,1,0-3.953Zm-23.268,48.485h9.647a1.976,1.976,0,1,1,0,3.953h-9.647a1.976,1.976,0,0,1,0-3.953Z" transform="translate(-204.032 -323.896)" fill="#88b3f2"/>
    </g>
  </g>
</svg>
