<?xml version="1.0" encoding="UTF-8"?>
<svg width="250px" height="257px" viewBox="0 0 250 257" version="1.1" xmlns="http://www.w3.org/2000/svg" xmlns:xlink="http://www.w3.org/1999/xlink">
    <!-- Generator: Sketch 48.2 (47327) - http://www.bohemiancoding.com/sketch -->
    <title>Shape</title>
    <desc>Created with Sketch.</desc>
    <defs>
        <linearGradient x1="50%" y1="4.98246173%" x2="50%" y2="100%" id="linearGradient-1">
            <stop stop-color="#6D89FF" offset="0%"></stop>
            <stop stop-color="#6671F6" offset="100%"></stop>
        </linearGradient>
    </defs>
    <g id="5-1视频1" stroke="none" stroke-width="1" fill="none" fill-rule="evenodd" transform="translate(-515.000000, -142.000000)" opacity="0.56810462">
        <path d="M656.713132,350.465129 C638.988253,364.184619 625.364891,352.364633 623.833544,350.933247 C621.037792,348.282274 616.635605,348.364321 613.962986,351.138367 C611.276684,353.919091 611.358454,358.346497 614.140842,361.031499 C618.884742,365.605828 628.222367,371 639.678998,371 C647.492275,371 656.282967,368.495949 665.285242,361.526966 C668.340937,359.159662 668.901233,354.766283 666.536282,351.712384 C664.164014,348.657849 659.761827,348.101005 656.713132,350.465129 Z M591.5,277 C585.703045,277 581,281.699545 581,287.5 L581,301.5 C581,307.300136 585.703045,312 591.5,312 C597.296954,312 602,307.300136 602,301.5 L602,287.5 C602,281.699864 597.296955,277 591.5,277 Z M681.5,277 C675.703045,277 671,281.699545 671,287.5 L671,301.5 C671,307.300136 675.703045,312 681.5,312 C687.296955,312 692,307.300136 692,301.5 L692,287.5 C692,281.699864 687.296955,277 681.5,277 Z M751.111409,253.135135 C751.111409,193.931681 699.190889,142 640.000158,142 C580.809426,142 528.888906,193.931681 528.888906,253.135135 C521.250323,253.135135 515,259.386171 515,267.027027 L515,315.648649 C515,323.288873 521.250323,329.54054 528.888906,329.54054 L535.83336,329.54054 C543.471942,329.54054 549.722266,323.288873 549.722266,315.648649 L549.722266,287.864865 C549.848911,287.864811 549.975532,287.861442 550.102001,287.854762 C604.214759,284.918205 642.110956,245.473125 660.740083,220.696621 C672.213267,230.611643 702.798217,254.767433 732.56309,259.449316 C731.129061,261.633816 730.27805,264.232862 730.27805,267.027027 L730.27805,315.648649 C730.27805,318.966601 731.504692,321.981141 733.46366,324.376861 C730.069716,349.885848 707.901443,370.583819 667.403602,385.970984 C666.232514,381.500321 662.184529,378.162162 657.361291,378.162162 L622.639025,378.162162 C616.909851,378.162162 612.222345,382.850675 612.222345,388.581081 C612.222345,394.311487 616.909851,399 622.639025,399 L657.361291,399 C661.207887,399 664.545959,396.862543 666.349939,393.739709 C709.80959,377.924421 734.533421,356.11573 739.840877,328.777434 C741.211144,329.233025 742.648646,329.540541 744.16664,329.54054 L751.111094,329.54054 C758.749677,329.54054 765,323.288873 765,315.648649 L765,267.027027 C765.000316,259.386171 758.749992,253.135135 751.111409,253.135135 Z M670.415987,191.566905 C667.059489,189.722716 662.843392,190.956593 661.009539,194.322774 C660.597536,195.077301 618.889831,269.94998 549.281548,274 L549.281548,267.080505 C549.281548,261.837947 546.308703,257.30542 542,254.943698 C542.152139,254.37157 542.35184,253.815852 542.35184,253.195442 C542.35184,201.418041 587.685987,156 639.367747,156 C688.675452,156 732.104244,197.358554 736,246.121633 C708.567492,242.918917 677.790141,217.816616 668.085085,209.334421 C671.107068,204.688605 672.83225,201.595392 673.163616,200.987605 C675.004398,197.624579 673.772485,193.407622 670.415987,191.566905 Z" id="Shape" fill="url(#linearGradient-1)" fill-rule="nonzero"></path>
    </g>
</svg>