<svg id="icon-record-mic" xmlns="http://www.w3.org/2000/svg" xmlns:xlink="http://www.w3.org/1999/xlink" width="99.858" height="154.39" viewBox="0 0 99.858 154.39">
  <defs>
    <linearGradient id="linear-gradient" x1="-0.027" y1="1.037" x2="1.027" y2="-0.023" gradientUnits="objectBoundingBox">
      <stop offset="0" stop-color="#aabbf5"/>
      <stop offset="1" stop-color="#b2cdf5"/>
    </linearGradient>
    <linearGradient id="linear-gradient-2" x1="-0.027" y1="-0.037" x2="1.027" y2="1.023" gradientUnits="objectBoundingBox">
      <stop offset="0" stop-color="#4d68ff"/>
      <stop offset="1" stop-color="#3894ff"/>
    </linearGradient>
    <linearGradient id="linear-gradient-3" x1="-0.027" y1="-0.037" x2="1.027" y2="1.023" gradientUnits="objectBoundingBox">
      <stop offset="0" stop-color="#4d54ff"/>
      <stop offset="1" stop-color="#3894ff"/>
    </linearGradient>
  </defs>
  <path id="路径_13154" data-name="路径 13154" d="M404.675,272.638c-11.417-.014-20.661-7.649-20.675-18.838V236.363c.014-11.189,9.259-17.016,20.675-17.029,11.417.014,20.675,5.84,20.689,17.029V253.8C425.35,265,416.1,272.638,404.675,272.638Z" transform="translate(-354.749 -178.17)" fill="url(#linear-gradient)"/>
  <g id="组_30221" data-name="组 30221">
    <path id="路径_13151" data-name="路径 13151" d="M393.571,427.2A4.893,4.893,0,0,0,388.6,432v13.722c0,19.4-17.946,35.184-40,35.184s-40-15.789-40-35.184V431.468a4.971,4.971,0,0,0-9.937-.01v14.261c0,23.7,20.673,42.953,46.668,44.491v16.728h-20.7a4.812,4.812,0,0,0,0,9.607h49.514a4.812,4.812,0,0,0,0-9.607H355.252V489.911c24.368-2.966,43.273-21.531,43.273-44.192V432.007a4.873,4.873,0,0,0-4.963-4.8Z" transform="translate(-298.667 -362.155)" fill="url(#linear-gradient-2)"/>
    <path id="路径_13153" data-name="路径 13153" d="M413.95,195.333c-16.538.02-29.93,13.153-29.95,29.361v45.734c.02,16.209,13.412,29.341,29.95,29.361,16.538-.02,29.95-13.153,29.97-29.361V224.694C443.9,208.476,430.5,195.333,413.95,195.333Zm20.323,72.423s.147,21.733-20.323,21.733-20.3-21.733-20.3-21.733V224.694a20.317,20.317,0,0,1,40.626,0Z" transform="translate(-364.027 -195.333)" fill="url(#linear-gradient-3)"/>
  </g>
</svg>
