<?xml version="1.0" encoding="UTF-8"?>
<svg width="42px" height="42px" viewBox="0 0 42 42" version="1.1" xmlns="http://www.w3.org/2000/svg" xmlns:xlink="http://www.w3.org/1999/xlink">
    <!-- Generator: Sketch 46.2 (44496) - http://www.bohemiancoding.com/sketch -->
    <title>ic/ic_scanner</title>
    <desc>Created with Sketch.</desc>
    <defs></defs>
    <g id="Symbols" stroke="none" stroke-width="1" fill="none" fill-rule="evenodd">
        <g id="ic/ic_scanner" fill="#FFFFFF">
            <path d="M2,22 L39,22 L39,20 L2,20 L2,22 Z M39,32 L39,39.001 L32,39.001 L32,42 L42.001,42 L42.001,32 L39,32 Z M39,10 L39,2.999 L32,2.999 L32,0 L42.001,0 L42.001,10 L39,10 Z M0,32 L0,42 L10,42 L10,39.001 L3,39.001 L3,32 L0,32 Z M0,10 L0,0 L10,0 L10,2.999 L3,2.999 L3,10 L0,10 Z" id="Page-1"></path>
        </g>
    </g>
</svg>