<?xml version="1.0" encoding="UTF-8"?>
<svg width="42px" height="42px" viewBox="0 0 42 42" version="1.1" xmlns="http://www.w3.org/2000/svg" xmlns:xlink="http://www.w3.org/1999/xlink">
    <!-- Generator: Sketch 46.2 (44496) - http://www.bohemiancoding.com/sketch -->
    <title>ic/search_white</title>
    <desc>Created with Sketch.</desc>
    <defs>
        <polygon id="path-1" points="1.60609945e-15 41.98495 1.60609945e-15 0.000311111111 41.2142889 0.000311111111 41.2142889 41.98495 0 41.98495"></polygon>
    </defs>
    <g id="Symbols" stroke="none" stroke-width="1" fill="none" fill-rule="evenodd">
        <g id="ic/search_white">
            <g id="Page-1">
                <mask id="mask-2" fill="white">
                    <use xlink:href="#path-1"></use>
                </mask>
                <g id="Clip-2"></g>
                <path d="M16.6033357,31.0006492 C9.05172216,31.0006492 2.9291896,24.7349131 2.9291896,17.0056418 C2.9291896,9.27637041 9.05172216,3.01063433 16.6033357,3.01063433 C24.1549492,3.01063433 30.2774817,9.27637041 30.2774817,17.0056418 C30.2774817,24.7349131 24.1549492,31.0006492 16.6033357,31.0006492 M40.6261324,39.759297 L29.2623468,28.002775 C31.7212636,25.0375794 33.2068269,21.2001759 33.2068269,17.0056418 C33.2068269,7.61365118 25.7735942,0.000311111111 16.6033357,0.000311111111 C7.43307713,0.000311111111 -0.000155555555,7.61365118 -0.000155555555,17.0056418 C-0.000155555555,26.3968543 7.43307713,34.0109724 16.6033357,34.0109724 C20.7559494,34.0109724 24.5495519,32.445511 27.4611013,29.8646782 L38.8202445,41.6157538 C39.3185272,42.1284969 40.127076,42.1284969 40.6261324,41.6157538 C41.1244151,41.1030107 41.1244151,40.2720401 40.6261324,39.759297" id="Fill-1" fill="#FFFFFF" mask="url(#mask-2)"></path>
            </g>
        </g>
    </g>
</svg>