<svg xmlns="http://www.w3.org/2000/svg" xmlns:xlink="http://www.w3.org/1999/xlink" width="326" height="228" viewBox="0 0 326 228">
  <defs>
    <linearGradient id="linear-gradient" x1="0.5" x2="0.5" y2="1" gradientUnits="objectBoundingBox">
      <stop offset="0" stop-color="#fff"/>
      <stop offset="1" stop-color="#eaf3ff"/>
    </linearGradient>
    <filter id="矩形_1212" x="0" y="0" width="326" height="228" filterUnits="userSpaceOnUse">
      <feOffset dy="5" input="SourceAlpha"/>
      <feGaussianBlur stdDeviation="10" result="blur"/>
      <feFlood flood-color="#335add" flood-opacity="0.302"/>
      <feComposite operator="in" in2="blur"/>
      <feComposite in="SourceGraphic"/>
    </filter>
  </defs>
  <g id="pic-yyzz-small" transform="translate(-271.806 -256.241)">
    <g id="组_3101" data-name="组 3101" transform="translate(301.806 281.241)">
      <g transform="matrix(1, 0, 0, 1, -30, -25)" filter="url(#矩形_1212)">
        <rect id="矩形_1212-2" data-name="矩形 1212" width="266" height="168" rx="4" transform="translate(30 25)" fill="url(#linear-gradient)"/>
      </g>
      <path id="路径_3496" data-name="路径 3496" d="M184.393,310.712H284.912v3.13H184.393Zm0,13.486H269.9v3.142H184.393Zm0,13.5H269.9v3.133H184.393Zm0,13.486H284.912v3.162H184.393Zm129.329-40.468H414.23v3.13H313.723Zm0,13.486h86v3.142h-86Zm0,13.5h86v3.132h-86Z" transform="translate(-167.974 -213.335)" fill="#cbe0ff"/>
      <g id="组_3106" data-name="组 3106" transform="translate(16.289 6.606)">
        <path id="路径_3502" data-name="路径 3502" d="M440.126,76.424a24.913,24.913,0,1,1-24.9-24.913,24.913,24.913,0,0,1,24.9,24.913Zm0,0" transform="translate(-298.4 -51.511)" fill="#fff"/>
        <g id="组_3105" data-name="组 3105" transform="translate(0 17.029)">
          <g id="组_3103" data-name="组 3103" transform="translate(0 0)">
            <rect id="矩形_1213" data-name="矩形 1213" width="77.294" height="4.791" rx="2.395" fill="#cbe0ff"/>
            <rect id="矩形_1214" data-name="矩形 1214" width="77.294" height="5.43" rx="2.715" transform="translate(0 10.54)" fill="#cbe0ff"/>
          </g>
          <g id="组_3104" data-name="组 3104" transform="translate(155.808 0)">
            <rect id="矩形_1213-2" data-name="矩形 1213" width="75.058" height="4.791" rx="2.395" transform="translate(0)" fill="#cbe0ff"/>
            <rect id="矩形_1214-2" data-name="矩形 1214" width="75.058" height="5.43" rx="2.715" transform="translate(0 10.54)" fill="#cbe0ff"/>
          </g>
        </g>
        <g id="guohui-copy" transform="translate(100.142 6.534)">
          <path id="合并形状" d="M18.377,8.819l.865,2.663L16.977,9.834,14.712,11.48l.865-2.661L13.312,7.173h2.8l.865-2.663.865,2.663h2.8Zm-7.451,1.6,1.34-.112-1.018.877.52,1.239-1.15-.7L9.6,12.6l.308-1.31-1.15-.7,1.34-.111.308-1.31Zm4.182,2.667-.1,1.341,1.244.509-1.305.319-.1,1.341-.708-1.143-1.306.319.868-1.026L13,13.6l1.244.509Zm5.913.474-.7,1.15.878,1.018-1.31-.307-.7,1.15-.111-1.339-1.31-.307,1.24-.521L18.9,13.062l.877,1.018Zm2.83-3.023,1.341.1-1.142.708.319,1.305-1.026-.868-1.144.707.508-1.244-1.026-.868,1.341.1.508-1.244Zm9.9,6.273a16.76,16.76,0,0,1-5.119,12.078l.752,3.322c0,1.444-1.171,3.137-2.614,3.137H7.106c-1.444,0-2.615-1.693-2.615-3.137l.7-3.373A16.811,16.811,0,1,1,33.747,16.807ZM16.936,29.279a12.427,12.427,0,0,0,8.5-3.347h-17a12.427,12.427,0,0,0,8.5,3.347Zm9.787-4.742a12.471,12.471,0,1,0-19.575,0l.317-1.428h4.687v-1.1h-.425l.628-1.255h.577l.293-1.1h7.425l.293,1.1h.576l.628,1.255H21.72v1.1h4.687Z" transform="translate(-0.126 0.005)" fill="#ff7171"/>
        </g>
      </g>
      <rect id="矩形_7843" data-name="矩形 7843" width="15.65" height="15.331" rx="2" transform="translate(76.957 65.853)" fill="#cbe0ff"/>
      <rect id="矩形_7845" data-name="矩形 7845" width="15.65" height="15.331" rx="2" transform="translate(120.066 65.853)" fill="#cbe0ff"/>
      <rect id="矩形_7847" data-name="矩形 7847" width="15.331" height="15.331" rx="2" transform="translate(163.174 65.853)" fill="#cbe0ff"/>
      <rect id="矩形_7844" data-name="矩形 7844" width="15.331" height="15.331" rx="2" transform="translate(98.671 65.853)" fill="#cbe0ff"/>
      <rect id="矩形_7846" data-name="矩形 7846" width="15.65" height="15.331" rx="2" transform="translate(141.46 65.853)" fill="#cbe0ff"/>
      <rect id="矩形_7848" data-name="矩形 7848" width="15.65" height="15.331" rx="2" transform="translate(184.569 65.853)" fill="#cbe0ff"/>
    </g>
    <g id="组_3102" data-name="组 3102" transform="matrix(0.857, -0.515, 0.515, 0.857, 507.107, 408.633)">
      <path id="路径_3499" data-name="路径 3499" d="M37.986,24.321a19.309,19.309,0,1,0-9,11.736A19.319,19.319,0,0,0,37.986,24.321ZM14.445,37.549A18.866,18.866,0,1,1,37.549,24.2a18.866,18.866,0,0,1-23.1,13.345Z" transform="translate(0 0)" fill="#ff7171"/>
      <path id="路径_3500" data-name="路径 3500" d="M33.076,21.183a16.823,16.823,0,1,0-20.6,11.893A16.823,16.823,0,0,0,33.076,21.183ZM12.524,32.852A16.6,16.6,0,1,1,32.852,21.108,16.6,16.6,0,0,1,12.524,32.852Z" transform="translate(2.497 2.497)" fill="#ff7171"/>
      <path id="路径_3501" data-name="路径 3501" d="M26.406,12.982a12.659,12.659,0,0,1-2.359,8.787l.235.064a12.955,12.955,0,0,0,2.359-8.787ZM1.445,11a12.488,12.488,0,0,1,2-4.175l-.235-.064A12.955,12.955,0,0,0,.847,15.545l.235.064A12.6,12.6,0,0,1,1.445,11ZM17.769.587q.064.424.16.844c.256.128.523.245.779.374.128.064.235.085.224.246-.011.139-.16.181-.246.224-.235.128-.459.267-.7.406-.032.287-.043.577-.064.875-.011.139-.032.267-.149.3s-.214-.085-.267-.139l-.618-.576c-.3.064-.587.139-.875.192-.107.021-.246.032-.3-.085a.47.47,0,0,1,.085-.319l.351-.737-.5-.844a.233.233,0,0,1,.085-.256.644.644,0,0,1,.245.011c.192.021.383.021.577.043a1.041,1.041,0,0,0,.256.021c.171-.192.331-.4.5-.587a.824.824,0,0,1,.224-.246c.011-.053.043-.064.075-.053C17.759.319,17.747.459,17.769.587ZM11.331,0c.149.042.139.181.16.31.053.287.107.555.16.844.256.128.523.245.779.374.128.064.235.085.224.246-.011.139-.16.181-.246.224-.235.128-.459.267-.7.406-.032.287-.043.577-.075.865-.011.139-.032.267-.149.3-.1.032-.214-.085-.267-.139l-.617-.576c-.3.064-.6.128-.875.192-.107.021-.246.032-.3-.085a.555.555,0,0,1,.085-.319L9.857,1.9c-.171-.278-.331-.566-.5-.844A.233.233,0,0,1,9.441.8a.644.644,0,0,1,.245.011c.181.011.383.021.577.043a1.041,1.041,0,0,0,.256.021c.171-.192.331-.4.5-.587a.824.824,0,0,1,.224-.246C11.267,0,11.289,0,11.331,0Zm11.8,3.427c.053.287.107.555.16.844.256.128.523.245.779.374.128.064.235.085.224.246-.011.139-.16.181-.246.224-.235.128-.47.278-.7.406q-.048.436-.064.875c-.011.139-.032.267-.149.3s-.214-.085-.267-.139l-.619-.577c-.3.064-.6.128-.875.192-.107.021-.246.032-.3-.085a.555.555,0,0,1,.085-.319l.351-.737L21,4.184a.233.233,0,0,1,.085-.256.644.644,0,0,1,.245.011c.192.021.383.021.577.043A1.042,1.042,0,0,0,22.167,4c.171-.192.331-.4.5-.587a.825.825,0,0,1,.224-.246c.011-.053.032-.053.075-.053C23.118,3.16,23.107,3.3,23.128,3.427Zm3,4.58.16.844c.256.128.523.245.779.374.128.064.235.085.224.246-.011.139-.16.181-.246.224-.235.128-.47.278-.7.406q-.048.436-.064.875c-.011.139-.032.267-.149.3s-.214-.085-.267-.139c-.213-.192-.427-.383-.619-.577-.3.064-.577.128-.875.192-.107.021-.246.032-.3-.085a.47.47,0,0,1,.085-.319l.351-.737c-.171-.278-.331-.566-.5-.844a.233.233,0,0,1,.085-.256.644.644,0,0,1,.245.011c.192.021.383.021.577.043a1.042,1.042,0,0,0,.256.021c.171-.192.331-.4.5-.587a.824.824,0,0,1,.224-.246c.021-.064.053-.053.075-.053.149.042.139.181.16.309Zm-19.75-5.3c.053.287.107.555.16.844.256.128.523.245.779.374.128.064.235.085.224.246-.011.139-.16.181-.246.224q-.358.193-.7.406c-.032.287-.043.577-.064.875-.011.139-.032.267-.149.3s-.214-.085-.267-.139l-.618-.576c-.3.064-.6.128-.875.192-.107.021-.246.032-.3-.085A.555.555,0,0,1,4.4,5.051l.351-.737-.5-.844a.233.233,0,0,1,.085-.256.644.644,0,0,1,.245.011c.181.011.383.021.577.043a1.041,1.041,0,0,0,.256.021c.171-.192.331-.4.5-.587a.824.824,0,0,1,.224-.246c.011-.053.043-.064.075-.053C6.367,2.445,6.357,2.584,6.377,2.712ZM10.359,28.2l.555-.64.854.064c.139.011.246.032.309-.1s-.053-.246-.1-.309c-.128-.235-.278-.47-.406-.7.118-.267.245-.523.374-.779.064-.128.1-.246.032-.331s-.224-.032-.287-.011l-.833.192-.673-.609c-.075-.075-.2-.16-.3-.064a.47.47,0,0,0-.085.319c-.021.278-.053.543-.064.811l-.865.479a.215.215,0,0,0-.053.267.712.712,0,0,0,.213.128l.511.256a1.506,1.506,0,0,1,.224.118c.043.256.1.5.139.758a.683.683,0,0,0,.085.319c.042-.021.053-.011.075.011.16.032.214-.085.287-.181Zm-5.573-2.9.555-.64.854.064c.139.011.246.032.309-.1s-.053-.246-.1-.309q-.212-.347-.406-.7l.385-.79c.064-.128.1-.246.032-.331s-.224-.032-.287-.011l-.833.192-.672-.608c-.075-.075-.2-.16-.3-.064a.47.47,0,0,0-.085.319c-.021.278-.053.543-.064.811l-.865.479a.215.215,0,0,0-.053.267A1.413,1.413,0,0,0,3.475,24l.511.256a.752.752,0,0,1,.224.118c.043.256.1.5.139.758a.683.683,0,0,0,.085.319c.032-.011.042,0,.064.021C4.659,25.506,4.712,25.388,4.787,25.292Zm11.637,3.118.555-.64.854.064c.139.011.246.032.309-.1s-.053-.246-.1-.309c-.128-.235-.278-.47-.406-.7.118-.267.245-.523.374-.779.064-.128.1-.246.032-.331s-.224-.032-.287-.011l-.833.192-.673-.608c-.075-.075-.2-.16-.3-.064a.47.47,0,0,0-.085.319c-.021.278-.053.543-.064.811l-.865.479a.214.214,0,0,0-.053.267.711.711,0,0,0,.213.128l.511.256a1.508,1.508,0,0,1,.224.118c.043.256.1.5.139.758a.683.683,0,0,0,.085.319.053.053,0,0,1,.075.011C16.3,28.623,16.349,28.506,16.424,28.409Zm4.89-2.456.555-.64.854.064c.139.011.246.032.309-.1s-.053-.246-.1-.309q-.212-.347-.406-.7l.383-.79c.064-.128.1-.246.032-.331s-.224-.032-.287-.011l-.833.192-.673-.608c-.075-.075-.2-.16-.3-.064a.47.47,0,0,0-.085.319c-.021.278-.053.543-.064.811l-.865.479a.215.215,0,0,0-.053.267A1.416,1.416,0,0,0,20,24.66l.511.256a1.506,1.506,0,0,1,.224.118c.043.256.1.5.139.758a.684.684,0,0,0,.085.319c.032-.011.042,0,.064.021.16.032.214-.085.287-.181Zm-19.751-5.3.555-.64.854.064c.139.011.246.032.309-.1s-.053-.246-.1-.309c-.128-.235-.278-.47-.406-.7.118-.267.245-.523.374-.779.064-.128.1-.246.032-.331s-.224-.032-.287-.011l-.833.192-.673-.609c-.075-.075-.2-.16-.3-.064a.47.47,0,0,0-.085.319c-.021.278-.053.543-.064.811l-.865.479a.214.214,0,0,0-.053.267,1.413,1.413,0,0,0,.213.128l.511.256a1.507,1.507,0,0,1,.224.118c.043.256.1.5.139.758a.683.683,0,0,0,.085.319.064.064,0,0,1,.075.011C1.434,20.872,1.488,20.755,1.562,20.659Z" transform="translate(5.356 4.965)" fill="#ff7171"/>
      <line id="直线_139" data-name="直线 139" y1="0.67" x2="11.923" transform="translate(13.969 22.579)" fill="none" stroke="#ff7171" stroke-width="2"/>
      <line id="直线_140" data-name="直线 140" y1="1.141" x2="17.276" transform="translate(10.518 16.347)" fill="none" stroke="#ff7171" stroke-width="3"/>
    </g>
  </g>
</svg>
