<svg xmlns="http://www.w3.org/2000/svg" width="35.737" height="34.751" viewBox="0 0 35.737 34.751">
  <path id="icon-call-help" d="M25.881,24.98A5.207,5.207,0,0,0,20.1,27.274a1.685,1.685,0,0,1-1.359.85h-.68A10.941,10.941,0,0,1,7.1,18.947a1.726,1.726,0,0,1,.85-1.7A4.967,4.967,0,0,0,10.332,14.1a4.709,4.709,0,0,0-.68-3.823A5.4,5.4,0,0,0,3.365,8.242,5.01,5.01,0,0,0,.052,13.679c.85,11.81,10.96,21.071,23.28,21.071h.85a8.243,8.243,0,0,0,1.444-.085A5.144,5.144,0,0,0,29.7,29.908a5.078,5.078,0,0,0-3.823-4.928Zm-1.869-3.823A1.416,1.416,0,0,1,22.567,19.8,7.091,7.091,0,0,0,15.43,12.83a1.5,1.5,0,0,1-1.274-.68,1.46,1.46,0,0,1,0-1.444,1.5,1.5,0,0,1,1.274-.68,9.793,9.793,0,0,1,9.941,9.686A1.317,1.317,0,0,1,24.012,21.156Zm5.1-.85a1.416,1.416,0,0,1-1.444-1.359A11.28,11.28,0,0,0,16.28,7.817a1.5,1.5,0,0,1-1.274-.68,1.46,1.46,0,0,1,0-1.444,1.5,1.5,0,0,1,1.274-.68A14.072,14.072,0,0,1,30.554,18.947,1.364,1.364,0,0,1,29.11,20.307Zm5.183-.85A1.416,1.416,0,0,1,32.848,18.1,15.542,15.542,0,0,0,17.13,2.8a1.5,1.5,0,0,1-1.274-.68,1.46,1.46,0,0,1,0-1.444A1.5,1.5,0,0,1,17.13,0,18.39,18.39,0,0,1,35.737,18.1,1.416,1.416,0,0,1,34.293,19.457Z" transform="translate(0 0)" fill="#fff"/>
</svg>
