<svg xmlns="http://www.w3.org/2000/svg" width="32" height="32" viewBox="0 0 32 32">
  <g id="icon-To_be_improved" data-name="icon-To be improved" transform="translate(0 -3.281)">
    <circle id="椭圆_358" data-name="椭圆 358" cx="15" cy="15" r="15" transform="translate(1.095 4)" fill="#fff"/>
    <g id="组_3236" data-name="组 3236" transform="translate(0 3.281)">
      <path id="路径_4067" data-name="路径 4067" d="M314.667,330.539a16,16,0,1,1,16-16A16.018,16.018,0,0,1,314.667,330.539Zm.2-21.961A1.92,1.92,0,1,0,313,306.66,1.789,1.789,0,0,0,314.865,308.578Zm2.15,13.292-.093-.045a1.633,1.633,0,0,1-.374-1.15V311.3a.8.8,0,0,0-.349-.663.753.753,0,0,0-.73-.07l-2.7,1.166a1.18,1.18,0,0,0-.694.916,1.212,1.212,0,0,0,.39,1.092l.9.794v6.145a1.2,1.2,0,0,1-.672,1.223,1.029,1.029,0,0,0-.637.935v.109a.983.983,0,0,0,.97,1h3.594a1.052,1.052,0,0,0,1.018-.871A1.075,1.075,0,0,0,317.016,321.87Z" transform="translate(-298.667 -298.539)" fill="#ff8c06"/>
    </g>
  </g>
</svg>
