<svg xmlns="http://www.w3.org/2000/svg" width="32" height="32" viewBox="0 0 32 32">
  <g id="icon-refuse" transform="translate(-14.163 -14.163)">
    <path id="路径_4818" data-name="路径 4818" d="M89.137,73.137a15.742,15.742,0,0,1,8.116,2.192,15.164,15.164,0,0,1,5.692,5.693,16.118,16.118,0,0,1,0,16.231,15.164,15.164,0,0,1-5.693,5.692,16.118,16.118,0,0,1-16.231,0,15.452,15.452,0,0,1-5.692-5.731A16,16,0,0,1,89.137,73.137Z" transform="translate(-58.974 -58.974)" fill="#f44b3d"/>
    <path id="路径_4819" data-name="路径 4819" d="M292.473,305.517,305.3,292.693a1.6,1.6,0,1,1,2.263,2.263l-12.823,12.823a1.6,1.6,0,1,1-2.263-2.263Z" transform="translate(-269.862 -270.074)" fill="#fff"/>
    <path id="路径_4820" data-name="路径 4820" d="M294.736,292.728l12.823,12.823a1.6,1.6,0,1,1-2.263,2.263l-12.823-12.821a1.6,1.6,0,1,1,2.263-2.263Z" transform="translate(-269.863 -270.109)" fill="#fff"/>
  </g>
</svg>
