<svg id="icon-Abnormal-account" xmlns="http://www.w3.org/2000/svg" xmlns:xlink="http://www.w3.org/1999/xlink" width="128" height="128" viewBox="0 0 128 128">
  <defs>
    <linearGradient id="linear-gradient" x1="0.5" y1="0.923" x2="0.5" y2="0.074" gradientUnits="objectBoundingBox">
      <stop offset="0" stop-color="#ff7b73"/>
      <stop offset="1" stop-color="#ffd2b9"/>
    </linearGradient>
  </defs>
  <g id="椭圆_357" data-name="椭圆 357" stroke="#fff" stroke-width="10" fill="url(#linear-gradient)">
    <circle cx="64" cy="64" r="64" stroke="none"/>
    <circle cx="64" cy="64" r="59" fill="none"/>
  </g>
  <g id="组_3981" data-name="组 3981" transform="translate(34.093 30.355)">
    <path id="路径_4664" data-name="路径 4664" d="M128.07,72.459l-.75-.268c-18.6-6.86-25.455-20.418-27.867-30.6A53.978,53.978,0,0,1,98.6,21.066l.268-1.286L100.1,19.4c1.286-.429,17.31-7.878,27.063-12.433l.911-.429.911.429c9.807,4.555,25.777,11.951,27.117,12.433l1.233.375.214,1.286c.107.7,3.108,16.934-5.252,31.832a2.124,2.124,0,1,1-3.7-2.09c6.431-11.468,5.413-24.062,4.93-27.813-4.609-1.983-19.346-8.842-25.455-11.683-6.056,2.84-20.793,9.7-25.455,11.683a50.352,50.352,0,0,0,1.018,17.738C106.795,53.7,115.048,62.866,128.07,67.9a42.36,42.36,0,0,0,13.5-8.2,2.161,2.161,0,1,1,2.947,3.162,46.225,46.225,0,0,1-15.7,9.378l-.75.214Z" transform="translate(-97.996 -6.543)" fill="#fff"/>
    <path id="路径_4665" data-name="路径 4665" d="M391.717,328.969l-9.485-7.985a13.732,13.732,0,0,0,2.947-8.574,13.835,13.835,0,1,0-6.109,11.522l9.861,8.306a2.314,2.314,0,0,0,1.393.482,2.087,2.087,0,0,0,1.608-.75,2.121,2.121,0,0,0-.214-3Zm-30.01-16.559A9.593,9.593,0,1,1,371.3,322a9.583,9.583,0,0,1-9.593-9.593Z" transform="translate(-340.421 -279.398)" fill="#fff"/>
  </g>
</svg>
