<svg id="icon-Improve_information" data-name="icon-Improve information" xmlns="http://www.w3.org/2000/svg" width="128" height="128" viewBox="0 0 128 128">
  <g id="组件_28_1" data-name="组件 28 – 1">
    <g id="椭圆_357" data-name="椭圆 357" fill="#ff8c06" stroke="#fff" stroke-width="10">
      <circle cx="64" cy="64" r="64" stroke="none"/>
      <circle cx="64" cy="64" r="59" fill="none"/>
    </g>
  </g>
  <g id="组_3993" data-name="组 3993" transform="translate(28.413 -56.406)">
    <path id="路径_4821" data-name="路径 4821" d="M127.83,175.961a14.73,14.73,0,1,1,14.73-14.73A14.748,14.748,0,0,1,127.83,175.961Zm0-25.39a10.66,10.66,0,1,0,10.66,10.66,10.674,10.674,0,0,0-10.66-10.66Z" transform="translate(-105.565 -52.456)" fill="#fff"/>
    <path id="路径_4822" data-name="路径 4822" d="M44.125,585.359H40.054a17.988,17.988,0,1,0-35.977,0H0a22.062,22.062,0,0,1,44.125,0Z" transform="translate(0 -441.487)" fill="#fff"/>
    <path id="路径_4823" data-name="路径 4823" d="M450.907,147.3H422.738v-4.071h24.1V94.371H410V90.3h40.907Z" transform="translate(-382.684 0)" fill="#fff"/>
    <path id="路径_4824" data-name="路径 4824" d="M572.2,264.1h21.859v4.071H572.2Zm3.311,9.92h18.555v4.071H575.511Zm4.131,9.927h14.417v4.071H579.642Z" transform="translate(-534.078 -162.221)" fill="#fff"/>
  </g>
</svg>
