<svg id="icon-Business-access" xmlns="http://www.w3.org/2000/svg" xmlns:xlink="http://www.w3.org/1999/xlink" width="128" height="128" viewBox="0 0 128 128">
  <defs>
    <linearGradient id="linear-gradient" x1="0.5" y1="0.923" x2="0.5" y2="0.074" gradientUnits="objectBoundingBox">
      <stop offset="0" stop-color="#ff7b73"/>
      <stop offset="1" stop-color="#ffd2b9"/>
    </linearGradient>
  </defs>
  <g id="椭圆_357" data-name="椭圆 357" stroke="#fff" stroke-width="10" fill="url(#linear-gradient)">
    <circle cx="64" cy="64" r="64" stroke="none"/>
    <circle cx="64" cy="64" r="59" fill="none"/>
  </g>
  <g id="组_3989" data-name="组 3989" transform="translate(33.021 32.368)">
    <path id="路径_4811" data-name="路径 4811" d="M245.437,198.122a25.055,25.055,0,0,0,47.416,1.107l.378-1.1,5.309,1.67a30.62,30.62,0,0,1-57.99,1.236l-.423-1.252,5.309-1.67ZM269.335,160a30.458,30.458,0,0,1,15.393,4.146l1.369.846-3.05,4.658a25.055,25.055,0,0,0-37.232,12.344l-.378,1.1-5.309-1.67A30.62,30.62,0,0,1,269.335,160Z" transform="translate(-238.72 -160)" fill="#fcfdfe"/>
    <path id="路径_4812" data-name="路径 4812" d="M422.317,211.465c.89,3.684,3.8,9.411,8.732,17.035l1.013,1.553-4.647,3.061c-5.51-8.348-8.927-14.776-10.268-19.439l-.239-.907Zm5.1-37.065,4.647,3.061-1.976,3.061c-4.046,6.4-6.573,11.359-7.574,14.792l-.206.768-5.409-1.3C418.026,190.055,421.526,183.321,427.414,174.4Z" transform="translate(-400.117 -173.148)" fill="#fcfdfe"/>
    <path id="路径_4813" data-name="路径 4813" d="M554.635,211.465c-.885,3.684-3.8,9.411-8.726,17.035l-1.013,1.553,4.641,3.061c5.51-8.348,8.927-14.776,10.268-19.439l.239-.907Zm-5.1-37.065-4.641,3.061,1.976,3.061c4.046,6.4,6.567,11.359,7.569,14.792l.206.768,5.415-1.3c-1.135-4.73-4.636-11.464-10.518-20.386Z" transform="translate(-516.986 -173.148)" fill="#fcfdfe"/>
    <path id="路径_4814" data-name="路径 4814" d="M285.157,305.608a2.783,2.783,0,0,1-2.3,2.938l-.473.039H226.727a2.783,2.783,0,0,1-.5-5.521l.5-.045h52.592l-.2-1.363c-.712-4.491-2-7.853-3.8-10.112l-.557-.64a2.783,2.783,0,1,1,4.057-3.807C282.514,291.032,284.567,297.221,285.157,305.608Z" transform="translate(-223.939 -275.194)" fill="#fcfdfe"/>
  </g>
</svg>
