<svg id="icon-prohibit" xmlns="http://www.w3.org/2000/svg" width="32" height="32" viewBox="0 0 32 32">
  <path id="路径_4815" data-name="路径 4815" d="M439.138,366.08a1.106,1.106,0,0,0-.288.823,3.191,3.191,0,0,0,.315,1.1l1.968-1.717a2.089,2.089,0,0,0-1.159-.567A.992.992,0,0,0,439.138,366.08Z" transform="translate(-425.133 -354.286)" fill="#f44b3d"/>
  <path id="路径_4816" data-name="路径 4816" d="M16,0A16,16,0,1,0,32,16,16,16,0,0,0,16,0Zm7.321,17.463H8.677a1.465,1.465,0,0,1,0-2.926H23.321a1.465,1.465,0,0,1,0,2.926Z" fill="#f44b3d"/>
</svg>
