<svg id="icon-warning" xmlns="http://www.w3.org/2000/svg" width="32" height="32" viewBox="0 0 32 32">
  <path id="路径_4799" data-name="路径 4799" d="M16,16,0,16A16,16,0,1,0,16,0,16,16,0,0,0,0,16Z" fill="#ff6606"/>
  <path id="路径_4800" data-name="路径 4800" d="M439.654,227.556a2.353,2.353,0,0,1,2.312,2.31v.355l-1.245,9.064a.814.814,0,0,1-.889.711h-.356c-.356,0-.889-.355-.889-.711l-1.245-9.064a2.383,2.383,0,0,1,1.956-2.666Zm0,15.106a1.777,1.777,0,1,1-1.779,1.777A1.68,1.68,0,0,1,439.654,242.662Z" transform="translate(-423.654 -220.441)" fill="#fff"/>
</svg>
